<svg width="260" height="70" viewBox="0 0 260 70" fill="none" xmlns="http://www.w3.org/2000/svg">
<path fill-rule="evenodd" clip-rule="evenodd" d="M237.618 0.0916386C236.173 0.458795 235.366 1.22703 234.898 2.6806C234.764 3.09874 234.745 3.99171 234.745 9.97036C234.745 13.7177 234.735 19.0329 234.721 21.782L234.697 26.7803L234.338 26.4399C233.715 25.8504 232.064 24.5926 230.939 23.8506C227.859 21.8193 224.814 20.6034 221.208 19.9645C219.762 19.7083 216.276 19.6115 214.598 19.7809C209.546 20.2903 205.189 22.022 201.476 24.9961C200.26 25.9705 198.233 28.045 197.321 29.2504C194.563 32.8923 192.834 37.1442 192.176 41.9044C191.963 43.4431 191.886 46.54 192.025 47.9915C192.542 53.4068 195.008 58.3994 199.225 62.571C203.295 66.5971 208.415 69.1514 213.829 69.8568C215.274 70.0451 218.257 70.0482 219.848 69.8632C224.523 69.3196 229.126 67.4153 232.78 64.5135C233.789 63.7123 235.7 61.8222 236.517 60.8181C238.844 57.9584 240.758 54.0156 241.548 50.4504C241.958 48.6047 242.081 47.4956 242.175 44.7992C242.287 41.5844 242.293 5.61414 242.182 3.89737C242.11 2.79438 242.064 2.56034 241.813 2.02748C241.212 0.751434 240.22 0.0738192 238.854 0.0060673C238.422 -0.0152779 237.895 0.0212186 237.618 0.0916386ZM255.055 0.334631C254 0.722846 253.309 1.40303 252.964 2.39473C252.821 2.80438 252.791 3.39223 252.749 6.58753C252.691 11.1384 252.79 12.8641 253.157 13.6778C253.472 14.3738 254.041 14.9334 254.784 15.2776C255.303 15.5184 255.46 15.544 256.414 15.5444C257.35 15.5448 257.527 15.5173 257.996 15.2974C258.981 14.835 259.663 13.9547 259.909 12.8291C259.991 12.4508 260.014 10.9661 259.992 7.4928C259.961 2.73739 259.958 2.67422 259.742 2.14249C259.446 1.41552 258.876 0.795458 258.208 0.474709C257.73 0.245438 257.525 0.207894 256.605 0.181975C255.75 0.157866 255.457 0.186739 255.055 0.334631ZM255.311 18.4451C254.182 18.7877 253.207 19.8242 252.706 21.2147L252.483 21.8341L252.457 43.6081C252.429 67.3711 252.404 66.2016 252.973 67.3985C253.298 68.0823 254.06 68.9019 254.646 69.1967C256.011 69.8842 257.912 69.587 258.816 68.5447C259.283 68.0076 259.506 67.5538 259.727 66.6932C259.908 65.9888 259.913 65.4282 259.912 43.9502C259.91 19.9969 259.94 21.3491 259.387 20.2635C258.916 19.34 258.263 18.7848 257.322 18.5069C256.792 18.3506 255.73 18.318 255.311 18.4451ZM19.2826 19.6041C16.5733 19.798 13.1786 20.7161 10.7766 21.9046C7.77795 23.3883 5.03836 25.8312 3.36406 28.5141C1.72054 31.1478 0.764643 34.064 0.319103 37.8034C0.125815 39.4253 0.00510536 47.0788 0.00040739 57.997C-0.00323594 66.7049 0.00510535 66.8475 0.579601 67.9189C1.10021 68.8897 1.84623 69.317 3.04163 69.3294C3.86924 69.338 4.91439 69.0273 5.7421 68.5267C6.76741 67.9067 7.02436 67.4485 7.18246 65.9576C7.23529 65.4594 7.2746 59.8934 7.27565 52.756C7.27757 40.4553 7.31755 38.6268 7.61582 37.2002C8.14641 34.663 9.41333 32.4241 11.3908 30.5288C15.4504 26.638 21.0363 25.68 26.0035 28.0228C28.5355 29.217 30.9762 31.6541 32.1955 34.2057C32.652 35.1611 33.0951 36.5223 33.3188 37.6567C33.4727 38.4372 33.4923 39.6932 33.5474 52.3749C33.5925 62.73 33.6369 66.3437 33.7231 66.6502C33.9371 67.4118 34.4374 68.296 34.8668 68.6716C35.3567 69.1002 35.9377 69.3174 36.8041 69.396C38.5473 69.5539 39.6721 68.8576 40.4124 67.162L40.6902 66.5256L40.7452 52.7084C40.7948 40.2126 40.816 38.7971 40.966 37.9076C41.4593 34.9828 42.5729 32.825 44.6663 30.7373C46.6505 28.7585 48.8582 27.5563 51.5945 26.9646C52.7102 26.7233 55.2362 26.7251 56.3611 26.9681C61.2414 28.0221 64.9129 31.3218 66.3771 35.97C66.9723 37.8596 66.9397 37.006 67.0043 52.3749C67.0517 63.6843 67.0882 66.5047 67.1907 66.8115C67.4541 67.6002 67.8692 68.2673 68.3911 68.7415C69.0689 69.3571 69.6574 69.5633 70.7245 69.5588C71.4399 69.5558 71.5852 69.5216 72.2294 69.2052C73.017 68.8183 73.4842 68.3532 73.8675 67.5745C74.3596 66.575 74.3674 66.4242 74.4306 56.7583C74.4952 46.8798 74.3848 39.054 74.1578 37.4142C73.6981 34.0951 72.6795 31.3567 70.8968 28.6474C67.721 23.8212 62.6895 20.6174 56.8935 19.7309C55.4676 19.5128 52.665 19.5126 51.2367 19.7305C45.9042 20.5439 41.2945 23.1306 38.0631 27.1228C37.66 27.6206 37.2881 28.0289 37.2366 28.03C37.185 28.0311 36.8153 27.6451 36.415 27.1724C34.9765 25.4735 32.7763 23.5695 30.9406 22.4355C29.0267 21.2531 26.5819 20.2855 24.5034 19.8877C23.5648 19.7081 21.2051 19.4818 20.604 19.514C20.4722 19.5209 19.8775 19.5615 19.2826 19.6041ZM162.598 19.5619C160.358 19.7753 158.594 20.1775 156.784 20.8876C152.22 22.678 148.484 25.6567 146.179 29.3411C144.751 31.6257 143.779 34.5368 143.405 37.6524C143.306 38.472 143.279 41.6828 143.279 52.3749C143.279 65.393 143.287 66.0857 143.458 66.8115C143.934 68.8393 144.717 69.4645 146.778 69.4645C147.837 69.4645 148.543 69.288 149.191 68.8616C149.663 68.5511 150.25 67.7887 150.442 67.2393C150.529 66.9883 150.572 63.4237 150.616 52.7084C150.682 36.9189 150.644 37.8071 151.34 35.7142C152.959 30.8509 157.156 27.5841 162.502 27.0257C168.394 26.4105 174.049 30.146 175.971 35.9228C176.672 38.0313 176.635 37.134 176.65 52.4225C176.664 67.5152 176.637 66.8279 177.242 67.932C177.918 69.1665 179.403 69.7895 181.046 69.5285C182.624 69.2781 183.592 68.2689 183.881 66.5732C183.956 66.1346 183.977 61.8508 183.954 51.8984C183.923 38.918 183.908 37.7665 183.749 36.8424C183.238 33.8656 182.222 31.2069 180.745 28.9809C178.473 25.5581 174.63 22.4665 170.7 20.8998C168.027 19.8346 164.994 19.3338 162.598 19.5619ZM107.277 19.7912C98.629 20.8351 90.8791 26.5125 87.2842 34.4373C85.7244 37.8759 85.0399 41.3382 85.1603 45.1804C85.283 49.0945 86.1364 52.5631 87.8096 55.9483C91.4697 63.3535 98.1375 68.1553 106.558 69.4497C108.36 69.7267 112.098 69.7493 113.844 69.4936C118.373 68.8309 121.947 67.2978 125.493 64.497C127.478 62.9296 130.368 59.7645 130.994 58.4735C131.272 57.9005 131.294 57.7791 131.294 56.8536C131.294 55.9545 131.267 55.7988 131.03 55.3185C130.699 54.6496 129.887 53.8751 129.161 53.537C128.683 53.3145 128.488 53.2801 127.699 53.2801C126.91 53.2801 126.714 53.3145 126.236 53.537C125.567 53.8485 124.849 54.5061 123.863 55.7101C121.487 58.6118 118.503 60.6379 115.103 61.6589C113.293 62.2027 112.364 62.3287 110.153 62.3309C108.041 62.333 107.452 62.2631 105.669 61.7998C99.7201 60.2546 95.0382 55.6503 93.329 49.665C93.0905 48.8296 92.8953 48.0899 92.8953 48.0212C92.8953 47.9186 95.8784 47.8948 109.554 47.8881C118.716 47.8837 127.615 47.8465 129.329 47.8056C132.772 47.7233 133.104 47.6719 133.853 47.1036C134.799 46.3871 135.037 45.6669 135.024 43.5605C134.984 36.5897 131.604 29.709 126.057 25.3056C124.59 24.1404 123.248 23.3015 121.419 22.4057C119.012 21.2266 116.253 20.3538 113.557 19.9183C112.435 19.737 108.401 19.6554 107.277 19.7912ZM113.5 27.4032C120.226 28.8441 125.906 34.2612 126.968 40.2491L127.023 40.5588H110.103C96.6307 40.5588 93.183 40.5345 93.1832 40.4397C93.1838 40.1511 93.6781 38.534 93.9946 37.7849C96.169 32.6399 101.435 28.4543 107.037 27.4192C108.584 27.1333 108.509 27.1388 110.585 27.1651C112.145 27.1849 112.688 27.2293 113.5 27.4032ZM219.615 27.2643C226.345 28.2153 231.755 32.7496 233.831 39.1793C234.519 41.3126 234.744 43.0246 234.669 45.5561C234.626 46.9788 234.562 47.6204 234.372 48.5187C233.013 54.9363 228.477 59.8842 222.18 61.8175C220.082 62.4613 217.391 62.7116 215.159 62.4705C209.026 61.808 203.725 58.1086 201.038 52.616C198.003 46.41 198.874 38.91 203.254 33.5549C204.05 32.5815 205.664 31.0772 206.705 30.3385C208.393 29.141 211.225 27.8979 213.173 27.4999C215.073 27.1116 217.822 27.011 219.615 27.2643Z" fill="#248C2D"/>
</svg>
