<svg width="70" height="94" viewBox="0 0 70 94" fill="none" xmlns="http://www.w3.org/2000/svg">
<path d="M69.45 58.9L53.7 2.83002L52.34 5.33002L50.95 0.970024L42 18.6L34.86 9.21002L33.93 11.43L31.26 8.14002L0.160004 93.75L34.55 32.49L41.56 40.94L49.41 28.64L69.45 58.9Z" fill="#0076BC"/>
<path d="M5.66 81.94L31.72 10.89L41.4 22.82L50.66 4.57002L65.1 49.77L48.29 24.22L40.32 36.7L33.22 28.14L5.66 81.94Z" fill="white"/>
<path d="M33.15 49.19V64.25L29.05 64.27V52.83L27.64 52.37L33.15 49.19ZM39.68 62.54C39.65 62.54 39.62 62.54 39.59 62.54C38.23 62.54 37.98 60.33 38.03 59.3C38.1 57.93 38.53 56.84 39.36 55.79C39.47 55.82 39.57 55.86 39.67 55.91C40.87 56.44 41.28 57.77 41.32 59.12C41.37 60.31 41.03 62.45 39.68 62.54ZM45.09 58.58C44.61 55.72 42.92 54.83 40.52 54.04C41.3 52.97 42 51.91 44.22 50.13L40.56 49.13C40.27 49.32 39.98 49.54 39.69 49.77C37.05 51.9 34.31 55.71 34.21 59.23C34.13 62.09 36.63 64.34 39.45 64.43C39.53 64.43 39.62 64.43 39.7 64.43C42.86 64.41 45.67 61.99 45.09 58.58ZM52.83 60.57C52.53 61.73 52.06 62.37 51.6 62.37C51.14 62.37 50.67 61.73 50.37 60.57C49.77 58.17 50.1 54.3 50.34 53.42C50.69 52.13 51.16 51.62 51.6 51.62C52.05 51.62 52.52 52.12 52.86 53.42C53.1 54.3 53.44 58.17 52.83 60.57ZM51.6 49.56C47.98 49.56 45.72 53.09 45.65 56.59C45.54 61.92 48.38 64.37 51.6 64.37C54.82 64.37 57.66 61.92 57.55 56.59C57.49 53.09 55.22 49.56 51.6 49.56Z" stroke="#0076BC" stroke-width="3.275" stroke-miterlimit="22.926"/>
<path d="M33.02 49.09V64.32L28.89 64.34V52.77L27.47 52.31L33.02 49.09ZM39.61 62.58C39.58 62.58 39.55 62.58 39.52 62.58C38.15 62.58 37.9 60.35 37.95 59.3C38.02 57.92 38.46 56.81 39.3 55.76C39.41 55.8 39.51 55.83 39.61 55.88C40.82 56.42 41.23 57.76 41.27 59.12C41.3 60.33 40.97 62.49 39.61 62.58ZM45.05 58.58C44.56 55.69 42.87 54.79 40.44 53.99C41.23 52.91 41.93 51.84 44.16 50.04L40.47 49.03C40.18 49.22 39.89 49.44 39.6 49.68C36.94 51.83 34.18 55.69 34.07 59.24C33.99 62.14 36.51 64.41 39.34 64.5C39.43 64.5 39.51 64.5 39.59 64.5C42.81 64.48 45.64 62.03 45.05 58.58ZM52.86 60.59C52.56 61.76 52.09 62.41 51.62 62.41C51.15 62.41 50.68 61.76 50.38 60.59C49.77 58.16 50.11 54.26 50.35 53.36C50.7 52.05 51.17 51.54 51.62 51.54C52.07 51.54 52.54 52.05 52.89 53.36C53.13 54.26 53.47 58.16 52.86 60.59ZM51.62 49.46C47.97 49.46 45.69 53.03 45.62 56.56C45.51 61.95 48.38 64.42 51.62 64.42C54.86 64.42 57.73 61.94 57.62 56.56C57.55 53.03 55.27 49.46 51.62 49.46Z" fill="white"/>
<path d="M33.23 28.08L40.32 36.7L33.97 26.64L33.23 28.08ZM49.21 22.73L48.28 24.19L65.1 49.77L49.21 22.73ZM41.38 22.8L42.34 23.98L50.65 4.57002L41.38 22.8ZM31.72 10.89L32.59 11.98L5.66 81.94L31.72 10.89Z" fill="#585857"/>
</svg>
