<svg width="125" height="24" viewBox="0 0 125 24" fill="none" xmlns="http://www.w3.org/2000/svg">
<path d="M29.58 9.29003C31.48 7.86003 32.59 7.30003 33.53 7.30003C33.73 7.30003 33.92 7.30003 34.1 7.31003C33.13 8.42003 31.52 10.43 28.6 14.08C28.47 14.24 28.34 14.41 28.2 14.59L28.08 14.74C27.76 15.16 27.41 15.6 27.01 16.09C27.4 14.96 27.76 13.65 28.11 12.13C28.3 11.31 28.43 10.52 28.55 9.75003C28.56 9.66003 28.58 9.58003 28.59 9.49003C28.69 9.52003 28.79 9.54003 28.9 9.54003C29.05 9.53003 29.33 9.49003 29.58 9.29003ZM23.78 4.55003C24.09 4.48003 24.42 4.42003 24.71 4.37003L24.73 4.36003C25.35 4.25003 25.97 4.13003 26.51 3.96003C23.5 6.52003 21.09 9.88003 18.76 13.14L18.69 13.24L18.65 13.29C18.5 13.49 18.36 13.7 18.21 13.9C18.51 13.24 18.81 12.57 19.11 11.89L19.49 11.05C20.34 9.21003 21.74 6.11003 23.78 4.55003ZM26.47 0.950027C25.49 0.950027 24.66 1.32003 23.61 1.78003C23.18 1.97003 22.7 2.18003 22.17 2.38003L21.53 2.35003C18.69 2.23003 15.17 2.08003 12.33 2.08003C9.9 2.08003 0.0800018 3.32003 0.0800018 9.05003C0.0800018 10.55 0.710001 11.83 1.9 12.75C3.03 13.63 4.57 14.1 6.35 14.1H6.44C10.9 14.07 15.89 11.41 15.89 7.91003C15.89 6.23003 14.69 5.53003 14.15 5.31003C14 5.23003 13.84 5.20003 13.66 5.20003C13.32 5.20003 12.84 5.36003 12.59 5.72003C12.33 6.09003 12.36 6.57003 12.67 6.91003C12.67 6.92003 12.68 6.93003 12.69 6.94003C12.75 7.00003 12.8 7.04003 12.87 7.10003C12.91 7.13003 12.95 7.17003 12.97 7.19003C12.98 7.23003 12.98 7.34003 12.98 7.38003C12.95 8.77003 9.36 11.83 5.87 11.83C4.5 11.83 3.3 11.16 3.3 10.39C3.3 6.58003 13.2 4.59003 18.5 4.59003C18.74 4.59003 18.97 4.59003 19.2 4.59003C16.14 7.45003 14.76 11.3 14.29 12.9C13.66 15.05 13.35 15.89 12.83 17.3V17.31V17.32C12.23 19.14 11.71 20.24 11.17 20.8C11.04 20.93 10.93 20.96 10.64 21.05L10.48 21.1C9.96 21.23 9.65 21.75 9.77 22.3C9.88 22.83 10.34 23.2 10.87 23.2L11.15 23.18C11.77 23.12 12.46 23.06 13.13 22.63C15.55 21.12 16.58 20.14 17.46 19.03C19.56 16.38 21.19 14.17 22.63 12.22L22.65 12.19C23.08 11.61 23.48 11.06 23.87 10.54C23.66 11.33 23.48 12.18 23.33 13.1C22.72 17.09 21.94 19.57 20.88 20.89C20.85 20.92 20.81 20.97 20.77 21.01L20.76 21.02C20.47 21.33 20.21 21.59 20.21 22C20.21 22.63 20.9 23.17 21.47 23.17H21.51C21.9 23.17 22.25 22.96 22.77 22.66L22.98 22.54C24.75 21.56 26.34 20.42 27.32 19.41C31.36 15.34 32.91 13.27 34.28 11.44C35.13 10.3 35.94 9.22003 37.29 7.76003C37.51 7.78003 37.74 7.79003 37.96 7.79003C40.89 7.79003 43.92 6.25003 43.92 3.67003C43.92 3.30003 43.77 2.08003 41.91 2.08003C40.16 2.08003 38.86 3.07003 37.92 3.80003C37.85 3.86003 37.77 3.91003 37.71 3.96003C37.6 3.95003 37.48 3.93003 37.37 3.92003L37.27 3.91003C36.51 3.81003 35.73 3.71003 34.98 3.71003C32.41 3.71003 30.92 4.57003 29.5 5.88003C29.87 4.99003 30.36 4.29003 31.01 3.68003C31.42 3.35003 31.53 2.81003 31.28 2.36003C31.07 1.97003 30.61 1.72003 30.13 1.72003C29.9 1.72003 29.69 1.77003 29.5 1.88003C29.02 2.16003 28.56 2.46003 28.11 2.77003C28.17 2.61003 28.2 2.44003 28.2 2.24003C28.16 1.40003 27.31 0.950027 26.47 0.950027ZM28.9 9.17003C28.68 9.17003 28.48 9.07003 28.32 8.90003C28.28 9.16003 28.23 9.41003 28.19 9.67003C28.07 10.43 27.94 11.23 27.75 12.04C27.11 14.82 26.49 16.59 25.94 17.81C27.01 16.68 27.74 15.74 28.36 14.95L28.48 14.8C28.62 14.63 28.75 14.46 28.88 14.3C32.37 9.92003 33.97 7.93003 34.86 6.99003C34.43 6.95003 34.02 6.94003 33.53 6.94003C32.5 6.94003 31.33 7.52003 29.36 9.01003C29.19 9.15003 29 9.17003 28.9 9.17003ZM40.14 4.74003C40.92 4.64003 41.47 4.25003 41.67 4.03003C41.1 4.09003 40.7 4.32003 40.14 4.74003ZM26.47 1.31003C27.13 1.31003 27.81 1.63003 27.81 2.25003C27.81 3.44003 26.29 3.72003 24.67 4.02003C24.34 4.08003 23.97 4.15003 23.62 4.22003C21.48 5.82003 20.03 9.00003 19.17 10.91L18.79 11.75C17.99 13.54 17.23 15.26 16.31 17.06C16.63 16.66 16.95 16.24 17.27 15.81C17.83 15.05 18.39 14.28 18.98 13.45L19.05 13.35C21.54 9.87003 24.12 6.26003 27.42 3.68003C28.12 3.15003 28.86 2.65003 29.64 2.19003C29.78 2.11003 29.94 2.08003 30.1 2.08003C30.46 2.08003 30.79 2.26003 30.94 2.54003C31.11 2.84003 31.03 3.19003 30.75 3.42003C29.6 4.50003 29.03 5.79003 28.67 7.19003C30.42 5.36003 31.84 4.08003 34.95 4.08003C35.67 4.08003 36.44 4.18003 37.19 4.28003L37.29 4.29003C37.45 4.31003 37.61 4.33003 37.77 4.35003C37.88 4.27003 37.98 4.19003 38.1 4.10003C39 3.40003 40.25 2.45003 41.88 2.45003C43.32 2.45003 43.54 3.22003 43.54 3.69003C43.54 6.05003 40.69 7.45003 37.94 7.45003C37.66 7.45003 37.38 7.43003 37.13 7.40003C35.7 8.94003 34.86 10.06 33.98 11.24C32.62 13.06 31.08 15.13 27.06 19.18C26.1 20.16 24.54 21.28 22.79 22.25L22.58 22.37C22.06 22.67 21.78 22.83 21.5 22.83H21.46C21.08 22.83 20.56 22.43 20.56 22.01C20.56 21.74 20.74 21.55 21.01 21.27C21.07 21.21 21.13 21.15 21.16 21.11C22.26 19.74 23.06 17.21 23.68 13.15C23.96 11.44 24.35 9.95003 24.85 8.65003C24.1 9.61003 23.28 10.72 22.35 11.98C20.91 13.93 19.28 16.14 17.19 18.79C16.33 19.87 15.32 20.83 12.95 22.31C12.35 22.69 11.71 22.75 11.14 22.81L10.88 22.83C10.52 22.83 10.21 22.58 10.13 22.21C10.05 21.84 10.25 21.51 10.59 21.42L10.75 21.37C11.04 21.29 11.24 21.23 11.44 21.03C12.02 20.44 12.57 19.29 13.19 17.41C13.71 16 14.02 15.15 14.66 12.99C15.17 11.25 16.69 7.05003 20.16 4.24003C19.63 4.23003 19.09 4.22003 18.53 4.22003C12.95 4.22003 2.97 6.28003 2.97 10.37C2.97 11.34 4.31 12.17 5.9 12.17C9.48 12.17 13.33 9.04003 13.37 7.36003C13.37 7.01003 13.35 7.00003 13.14 6.81003C13.07 6.75003 13.03 6.71003 12.98 6.67003C12.97 6.66003 12.97 6.66003 12.96 6.65003C12.76 6.43003 12.74 6.14003 12.9 5.91003C13.07 5.67003 13.43 5.54003 13.68 5.54003C13.8 5.54003 13.92 5.57003 14.02 5.62003C14.49 5.82003 15.55 6.43003 15.55 7.90003C15.55 11.2 10.75 13.71 6.45 13.74H6.36C4.66 13.74 3.2 13.3 2.13 12.47C1.03 11.62 0.450002 10.43 0.450002 9.05003C0.450002 3.61003 9.98 2.43003 12.34 2.43003C15.17 2.43003 18.7 2.58003 21.53 2.70003L22.24 2.73003C22.81 2.52003 23.32 2.30003 23.77 2.09003C24.77 1.66003 25.56 1.31003 26.47 1.31003Z" fill="white"/>
<path d="M33.9 20.55C34.15 20.05 34.64 19.2 35.6 17.81C36.84 16 37.96 15.04 38.84 15.04C38.93 15.04 38.99 15.05 39.04 15.05L37.18 17.83C37.13 17.89 36.99 18.03 36.9 18.12C36.81 18.21 36.72 18.3 36.64 18.38C35.28 19.83 34.4 20.36 33.9 20.55ZM96.31 20.55C96.56 20.05 97.05 19.21 98.02 17.8C99.24 16.01 100.39 15.03 101.26 15.03C101.35 15.03 101.41 15.04 101.46 15.04L99.6 17.82C99.55 17.88 99.41 18.02 99.32 18.11C99.23 18.2 99.14 18.29 99.06 18.37C97.69 19.84 96.81 20.36 96.31 20.55ZM56.37 7.28003H56.36H56.33L52.99 7.49003C52.8 7.50003 52.62 7.60003 52.51 7.76003L50.19 11.13C50.11 11.21 49.91 11.41 49.7 11.61L49.67 11.64L49.63 11.68L49.62 11.69C48.41 12.87 45.59 15.62 43.82 17.58C43.8 17.6 43.79 17.62 43.77 17.64C43.74 17.67 43.71 17.71 43.68 17.75C42.15 19.48 41.1 20.32 40.38 20.71L44.96 13.83C45.09 13.63 45.1 13.37 44.98 13.17C44.87 12.98 44.66 12.87 44.44 12.87C44.42 12.87 44.4 12.87 44.39 12.87L40.96 13.18C40.83 13.19 40.71 13.24 40.62 13.32C39.97 12.93 39.09 12.87 38.58 12.87C33.82 12.87 29.65 16.03 29.65 19.63C29.65 21.57 31.02 22.83 33.15 22.83C34.39 22.83 35.6 22.17 36.51 21.51C36.78 22.2 37.5 22.95 39.38 22.95C40.85 22.95 42.69 21.81 44.71 19.63C44.64 19.89 44.6 20.14 44.6 20.38C44.6 21.92 45.91 22.92 47.94 22.92C49.23 22.92 50.62 22.19 52.17 20.68C53.02 22.06 54.87 22.92 57.06 22.92C60.03 22.92 62.25 20.72 63.67 19.06C63.68 19.05 63.7 19.04 63.71 19.02C63.75 18.98 63.79 18.93 63.83 18.89C63.63 19.38 63.52 19.87 63.52 20.35C63.52 21.83 64.81 22.86 66.66 22.86C69.58 22.86 72.63 18.77 72.66 18.73C72.66 18.73 72.66 18.73 72.66 18.72C72.83 18.55 73.03 18.34 73.28 18.08C73.99 17.33 75.14 16.1 76.2 15.42L71.75 21.7C71.61 21.89 71.6 22.14 71.7 22.35C71.81 22.56 72.02 22.69 72.25 22.69H75.58C75.79 22.69 75.98 22.59 76.1 22.42L79.4 17.59C80 16.72 81.3 15.46 82.24 15.02C81.4 16.36 80.46 17.71 79.54 19.02L79.82 19.24L79.53 19.04C79.01 19.78 78.43 20.62 77.87 21.45L77.69 21.73C77.56 21.92 77.55 22.17 77.66 22.37C77.77 22.57 77.98 22.7 78.21 22.7H81.45C81.66 22.7 81.85 22.6 81.96 22.43L84.16 19.21C84.26 19.06 84.35 18.92 84.44 18.77C84.62 18.48 84.81 18.19 85 17.93C85.73 16.98 86.97 15.73 87.99 15.18C87.8 15.43 87.58 15.68 87.39 15.9C86.3 17.19 84.94 18.8 84.94 20.47C84.94 21.57 85.58 22.89 88.6 22.89C89.7 22.89 90.95 22.29 92.33 21.11C92.84 22.23 93.98 22.86 95.53 22.86C96.81 22.86 98.11 22.09 98.89 21.54C99.16 22.23 99.88 22.98 101.76 22.98C103.37 22.98 105.4 21.62 107.64 19.06C107.68 19.01 107.73 18.95 107.79 18.88C107.98 18.7 108.2 18.46 108.44 18.22C109.13 17.51 110.33 16.27 111.33 15.54L106.87 21.79C106.73 21.98 106.72 22.23 106.82 22.44C106.93 22.65 107.14 22.78 107.38 22.78H110.76C110.97 22.78 111.16 22.68 111.27 22.51L114.58 17.67C114.98 17.09 116.13 16.02 117.12 15.43C117.09 15.47 117.05 15.51 117.02 15.55C115.91 16.84 114.39 18.61 114.39 20.55C114.39 22.97 117.08 22.97 117.97 22.97C120.36 22.97 122.79 20.31 123.72 19.16C123.73 19.15 123.74 19.13 123.75 19.12C123.77 19.1 123.78 19.08 123.79 19.07C123.9 18.92 124.09 18.67 124.09 18.31C124.09 17.85 123.74 17.36 123.17 17.36C122.66 17.36 122.35 17.71 122.21 17.87L122.16 17.93C121.39 18.83 119.6 20.92 118.21 20.92C118.1 20.92 118.02 20.91 117.96 20.91C118.07 20.45 118.62 19.84 119.15 19.25C120.09 18.21 121.16 17.04 121.16 15.47C121.16 13.96 120.11 12.99 118.49 12.99C117.38 12.99 116.22 13.66 115.34 14.31C114.86 13.48 113.86 12.96 112.7 12.96C110.36 12.96 107 16.78 106.3 17.6C106.23 17.67 106.17 17.73 106.12 17.79L106.1 17.82C104.57 19.55 103.51 20.4 102.8 20.78L107.38 13.9C107.51 13.7 107.52 13.44 107.4 13.24C107.29 13.05 107.08 12.94 106.86 12.94C106.84 12.94 106.82 12.94 106.81 12.94L103.38 13.25C103.25 13.26 103.13 13.31 103.04 13.39C102.39 13 101.51 12.94 100.99 12.94C96.89 12.94 93.07 15.35 92.24 18.43L92.1 18.6C90.56 20.27 89.41 20.87 88.9 20.87C88.82 20.87 88.76 20.87 88.72 20.86C88.78 20.32 89.33 19.69 89.91 19.03C90.78 18.04 91.77 16.91 91.77 15.39C91.77 13.9 90.74 12.94 89.14 12.94C88.04 12.94 86.87 13.6 85.99 14.26C85.49 13.42 84.4 12.91 83.03 12.91C81.96 12.91 80.92 13.53 80.14 14.16C79.68 13.39 78.74 12.91 77.63 12.91C75.3 12.91 73.03 15.41 71.53 17.07C71.38 17.23 71.25 17.38 71.13 17.51C70.94 17.69 70.7 17.96 70.42 18.26C69.66 19.1 68.48 20.39 67.46 20.84C67.81 20.35 68.32 19.74 68.64 19.35C69.74 18.03 70.61 16.99 70.61 16.14C70.61 15.44 69.87 14.76 68.28 14.01C68.3 13.93 68.3 13.85 68.3 13.77C68.3 13.02 67.66 12.49 66.75 12.49C65.86 12.49 65.2 13.08 65.2 13.86C65.2 14.06 65.25 14.25 65.34 14.43C64.26 15.52 62.61 17.22 62.16 17.79C62.04 17.91 61.9 18.06 61.76 18.22L61.75 18.23C60.85 19.21 59.16 21.05 56.97 21.05C56.22 21.05 56.22 20.73 56.22 20.44C56.22 20 56.37 19.47 56.65 18.94C57.67 18.87 58.73 18.69 59.59 18.42C60.98 17.98 63.56 16.3 63.56 14.66C63.56 13.87 63.07 12.93 60.74 12.93C57.11 12.93 53.61 14.58 52.23 16.95C51.98 17.35 51.81 17.81 51.72 18.33C49.9 20.35 48.95 20.83 48.51 20.93C48.55 20.73 48.65 20.49 48.78 20.3L54.03 12.56H56.46C57.28 12.56 57.66 12.07 57.66 11.61C57.66 11.14 57.31 10.66 56.54 10.66H55.3L56.88 8.32003C57.01 8.12003 57.02 7.87003 56.9 7.66003C56.8 7.40003 56.59 7.28003 56.37 7.28003ZM58.01 16.86C58.36 16.78 58.7 16.69 58.98 16.59C60.06 16.21 61.3 15.26 61.52 14.77C61.45 14.76 61.36 14.75 61.24 14.75C60.39 14.74 59.31 15.46 58.01 16.86ZM33.33 21.01H33.46C33.91 21.01 34.95 20.7 36.91 18.63C36.99 18.55 37.08 18.46 37.16 18.38C37.28 18.26 37.42 18.13 37.48 18.05L39.45 15.11C39.45 15.1 39.46 15.1 39.46 15.09C39.48 15.06 39.49 15.05 39.49 14.99C39.49 14.74 39.14 14.69 38.85 14.69C37.83 14.69 36.64 15.67 35.31 17.61C33.82 19.78 33.43 20.67 33.33 21.01ZM95.74 21.01H95.75H95.87C96.32 21.01 97.36 20.7 99.32 18.63C99.4 18.55 99.49 18.46 99.58 18.38C99.69 18.27 99.84 18.13 99.9 18.05L101.88 15.09C101.9 15.06 101.91 15.05 101.91 14.99C101.91 14.74 101.56 14.69 101.27 14.69C100.26 14.69 99.04 15.7 97.73 17.61C96.25 19.76 95.84 20.65 95.74 21.01ZM56.37 7.64003C56.46 7.64003 56.55 7.69003 56.6 7.77003C56.65 7.86003 56.65 7.97003 56.59 8.05003L54.64 10.95H56.54C57.1 10.95 57.3 11.26 57.3 11.55C57.3 11.77 57.12 12.14 56.46 12.14H53.84L48.49 20.03C48.27 20.33 48.13 20.72 48.13 21.03C48.13 21.24 48.16 21.24 48.32 21.24C48.87 21.24 49.96 20.75 52.05 18.41C52.12 17.9 52.28 17.44 52.53 17.05C53.85 14.79 57.22 13.21 60.73 13.21C62.37 13.21 63.2 13.67 63.2 14.58C63.2 15.97 60.79 17.58 59.48 18C58.6 18.28 57.47 18.47 56.43 18.52C56.07 19.15 55.86 19.81 55.86 20.36C55.86 20.81 55.99 21.32 56.96 21.32C59.31 21.32 61.06 19.41 62.01 18.39C62.16 18.22 62.31 18.06 62.43 17.94C62.87 17.36 64.8 15.39 65.79 14.39C65.64 14.2 65.56 13.99 65.56 13.77C65.56 13.18 66.06 12.76 66.76 12.76C67.48 12.76 67.96 13.13 67.96 13.68C67.96 13.82 67.92 13.97 67.85 14.11C69.45 14.83 70.26 15.48 70.26 16.05C70.26 16.77 69.39 17.82 68.37 19.03C67.77 19.74 66.9 20.79 66.75 21.26C66.76 21.26 66.78 21.26 66.8 21.26C68.1 21.26 69.65 19.55 70.69 18.41C70.97 18.11 71.21 17.84 71.39 17.67C71.51 17.54 71.65 17.39 71.8 17.22C73.26 15.61 75.47 13.18 77.64 13.18C78.84 13.18 79.74 13.76 80.02 14.65C80.76 13.99 81.9 13.18 83.03 13.18C84.5 13.18 85.56 13.78 85.86 14.73C86.62 14.12 87.95 13.21 89.15 13.21C90.55 13.21 91.42 14.01 91.42 15.3C91.42 16.69 90.48 17.76 89.65 18.71C88.99 19.47 88.37 20.18 88.37 20.87C88.37 20.99 88.37 21.14 88.92 21.14C89.72 21.14 91.02 20.25 92.4 18.75L92.59 18.51C93.34 15.53 97.03 13.22 101.02 13.22C101.47 13.22 102.56 13.28 103.13 13.8L103.25 13.64C103.3 13.58 103.37 13.54 103.44 13.53L106.87 13.22C106.88 13.22 106.89 13.22 106.89 13.22C106.98 13.22 107.07 13.27 107.12 13.35C107.17 13.44 107.17 13.55 107.11 13.64L102.5 20.55L102.43 20.66C102.33 20.83 102.14 21.13 102.06 21.35C103.06 21.23 104.52 20.1 106.39 17.98L106.42 17.95C106.47 17.89 106.52 17.83 106.59 17.78C107.04 17.24 110.5 13.25 112.73 13.25C113.95 13.25 114.94 13.89 115.23 14.8C115.99 14.19 117.32 13.28 118.52 13.28C119.94 13.28 120.83 14.09 120.83 15.4C120.83 16.83 119.81 17.95 118.92 18.94C118.25 19.68 117.62 20.38 117.62 20.99C117.62 21.04 117.62 21.2 118.24 21.2C119.79 21.2 121.59 19.1 122.46 18.09L122.51 18.04C122.64 17.89 122.85 17.65 123.2 17.65C123.55 17.65 123.76 17.96 123.76 18.25C123.76 18.49 123.63 18.66 123.53 18.79C123.51 18.81 123.5 18.83 123.48 18.85C123.48 18.86 123.47 18.87 123.46 18.87C122.56 19.98 120.22 22.55 117.99 22.55C117.11 22.55 114.77 22.55 114.77 20.49C114.77 18.68 116.24 16.97 117.32 15.73C117.62 15.38 118.05 14.88 118.22 14.6C117.04 14.65 114.88 16.6 114.31 17.43L111 22.27C110.95 22.34 110.87 22.39 110.78 22.39H107.4C107.3 22.39 107.21 22.33 107.16 22.24C107.11 22.15 107.12 22.04 107.18 21.96L112.1 15.07L112.18 14.96C112.23 14.89 112.34 14.72 112.42 14.58C111.31 14.73 109.31 16.8 108.21 17.94C107.95 18.21 107.73 18.44 107.55 18.62C107.5 18.69 107.45 18.75 107.41 18.8C105.24 21.29 103.3 22.6 101.8 22.6C99.7 22.6 99.22 21.62 99.15 20.9C98.13 21.72 96.78 22.48 95.58 22.48C93.96 22.48 92.86 21.74 92.54 20.47C91.45 21.47 90 22.51 88.65 22.51C86.46 22.51 85.35 21.82 85.35 20.45C85.35 18.91 86.66 17.36 87.71 16.11C88.18 15.56 88.74 14.89 88.89 14.52C87.63 14.56 85.7 16.48 84.76 17.69C84.56 17.96 84.37 18.26 84.18 18.55C84.09 18.7 83.99 18.85 83.9 18.99L81.7 22.21C81.65 22.28 81.57 22.33 81.48 22.33H78.2C78.1 22.33 78.01 22.28 77.96 22.19C77.91 22.1 77.92 22 77.97 21.92L78.16 21.64C78.72 20.81 79.3 19.97 79.82 19.22C80.76 17.88 81.72 16.49 82.59 15.1C82.7 14.92 82.84 14.67 82.88 14.49C82.86 14.49 82.84 14.49 82.82 14.49C81.7 14.49 79.77 16.4 79.1 17.38L75.8 22.22C75.75 22.29 75.67 22.34 75.58 22.34H72.25C72.15 22.34 72.06 22.28 72.01 22.2C71.96 22.12 71.97 22 72.03 21.92L76.92 15.02L77 14.92C77.1 14.8 77.17 14.7 77.22 14.62C75.83 14.81 74 16.75 73 17.83C72.77 18.08 72.55 18.31 72.37 18.49C72.36 18.5 72.36 18.51 72.35 18.52C72.32 18.56 69.36 22.51 66.63 22.51C64.99 22.51 63.84 21.63 63.84 20.36C63.84 18.64 65.51 16.63 67.26 15.29L66.92 15.13C66.39 15.7 65.84 16.25 65.32 16.8L65.27 16.85C64.66 17.48 64.03 18.13 63.41 18.8C63.4 18.81 63.39 18.81 63.39 18.82L63.38 18.83C62.01 20.45 59.86 22.59 57.03 22.59C54.72 22.59 52.87 21.61 52.24 20.11C51.13 21.26 49.57 22.59 47.92 22.59C46.08 22.59 44.94 21.75 44.94 20.41C44.94 19.89 45.14 19.31 45.53 18.72C45.69 18.49 46.19 17.77 46.78 16.91C46.16 17.55 45.56 18.17 45.1 18.66C45.07 18.7 45.03 18.75 44.98 18.8C42.8 21.3 40.86 22.62 39.36 22.62C37.26 22.62 36.78 21.64 36.7 20.92C35.92 21.55 34.52 22.5 33.13 22.5C31.19 22.5 29.99 21.41 29.99 19.66C29.99 16.25 34 13.26 38.57 13.26C39.02 13.26 40.11 13.32 40.68 13.84L40.8 13.68C40.85 13.62 40.92 13.58 40.99 13.57L44.42 13.26C44.43 13.26 44.44 13.26 44.44 13.26C44.53 13.26 44.62 13.31 44.67 13.39C44.72 13.48 44.72 13.59 44.66 13.68L40.06 20.59L39.99 20.7C39.89 20.87 39.71 21.17 39.62 21.39C40.63 21.27 42.08 20.14 43.95 18.02C43.99 17.97 44.02 17.93 44.06 17.9C44.07 17.88 44.08 17.87 44.09 17.86C45.86 15.9 48.67 13.16 49.87 11.99L49.88 11.98L49.92 11.94C50.17 11.7 50.41 11.46 50.47 11.4L52.8 8.00003C52.85 7.93003 52.92 7.89003 53 7.88003L56.35 7.67003C56.36 7.64003 56.36 7.64003 56.37 7.64003Z" fill="white"/>
<path d="M39.55 4.86002C40.47 4.15002 40.97 3.76002 41.93 3.76002C42.01 3.76002 42.02 3.96002 42.02 3.96002C42.02 4.22002 41.09 5.03002 39.78 5.03002C39.63 5.03002 39.51 5.02002 39.36 5.00002C39.42 4.95002 39.49 4.90002 39.55 4.86002ZM37.03 7.12002C37.31 7.16002 37.63 7.18002 37.94 7.18002C40.56 7.18002 43.27 5.87002 43.27 3.68002C43.27 3.04002 42.8 2.71002 41.88 2.71002C40.34 2.71002 39.16 3.62002 38.27 4.30002C38.12 4.41002 37.98 4.52002 37.85 4.62002C37.65 4.60002 37.46 4.57002 37.27 4.55002L37.17 4.54002C36.43 4.44002 35.66 4.34002 34.96 4.34002C31.74 4.34002 30.38 5.77002 28.5 7.76002L28.42 7.84002C28.21 8.08002 28.33 8.46002 28.47 8.65002C28.62 8.86002 28.81 8.90002 28.9 8.90002C28.97 8.90002 29.09 8.89002 29.18 8.80002C31.21 7.27002 32.43 6.67002 33.52 6.67002C34.23 6.67002 34.78 6.69002 35.43 6.79002C34.67 7.49002 33.22 9.27002 29.08 14.46C28.95 14.62 28.82 14.79 28.68 14.96L28.56 15.11C27.75 16.16 26.68 17.53 24.85 19.26C25.67 17.95 26.56 16.02 27.49 11.97C27.67 11.17 27.8 10.38 27.93 9.62002C28.32 7.22002 28.69 4.95002 30.58 3.20002C30.76 3.06002 30.82 2.85002 30.71 2.66002C30.61 2.47002 30.36 2.34002 30.1 2.34002C29.98 2.34002 29.87 2.37002 29.76 2.42002C29 2.87002 28.27 3.36002 27.58 3.88002C24.32 6.44002 21.75 10.03 19.26 13.5L19.19 13.6C18.6 14.42 18.05 15.2 17.48 15.97C16.64 17.11 15.77 18.17 14.9 19.12C16.38 16.5 17.44 14.13 18.54 11.65L18.92 10.8C19.81 8.85002 21.28 5.60002 23.5 3.97002C23.86 3.89002 24.26 3.82002 24.61 3.75002C26.11 3.47002 27.53 3.21002 27.53 2.24002C27.53 1.80002 26.99 1.57002 26.46 1.57002C25.61 1.57002 24.84 1.91002 23.86 2.35002C23.39 2.56002 22.86 2.79002 22.26 3.01002L21.49 2.98002C18.66 2.86002 15.14 2.71002 12.31 2.71002C10 2.71002 0.680008 3.84002 0.680008 9.06002C0.680008 10.36 1.23001 11.47 2.26001 12.27C3.28001 13.07 4.69001 13.48 6.33001 13.48H6.42001C10.59 13.45 15.26 11.06 15.26 7.91002C15.26 6.63002 14.38 6.08002 13.88 5.87002C13.82 5.83002 13.74 5.82002 13.66 5.82002C13.48 5.82002 13.21 5.92002 13.09 6.08002C13 6.21002 13.01 6.36002 13.13 6.49002C13.17 6.53002 13.22 6.57002 13.28 6.62002C13.52 6.83002 13.6 6.90002 13.6 7.37002C13.56 9.19002 9.65001 12.45 5.86001 12.45C4.10001 12.45 2.67001 11.52 2.67001 10.38C2.67001 5.90002 13.15 3.96002 18.49 3.96002C19.33 3.96002 20.13 3.97002 20.88 4.01002C17.07 6.75002 15.42 11.23 14.88 13.08C14.24 15.25 13.93 16.1 13.41 17.52C12.79 19.43 12.21 20.61 11.6 21.23C11.35 21.48 11.1 21.55 10.79 21.64L10.63 21.69C10.42 21.74 10.31 21.94 10.36 22.16C10.41 22.4 10.61 22.57 10.85 22.57L11.09 22.56C11.65 22.51 12.23 22.45 12.77 22.11C15.12 20.65 16.11 19.7 16.95 18.65C19.04 16.01 20.66 13.81 22.11 11.85C23.62 9.80002 24.84 8.15002 25.99 6.84002C25.17 8.26002 24.41 10.21 23.92 13.22C23.29 17.32 22.48 19.89 21.35 21.3C21.31 21.35 21.25 21.41 21.18 21.48C20.93 21.74 20.81 21.88 20.81 22.03C20.81 22.28 21.2 22.58 21.44 22.58H21.48C21.69 22.58 21.96 22.43 22.43 22.15L22.65 22.02C24.38 21.06 25.92 19.96 26.86 18.99C30.87 14.95 32.4 12.9 33.76 11.08C34.67 9.87002 35.53 8.72002 37.03 7.12002Z" fill="white"/>
<path d="M99.76 18.57C99.67 18.65 99.59 18.74 99.51 18.81C97.58 20.85 96.46 21.28 95.87 21.28H95.75C95.52 21.28 95.45 21.24 95.44 21.24C95.44 21.23 95.44 21.21 95.44 21.19C95.44 20.86 95.8 19.94 97.5 17.46C98.88 15.44 100.14 14.42 101.26 14.42C101.6 14.42 102.16 14.5 102.16 14.99C102.16 15.13 102.12 15.19 102.08 15.25L100.11 18.19C100.03 18.3 99.89 18.44 99.76 18.57ZM37.34 18.57C37.25 18.65 37.17 18.74 37.09 18.81C35.16 20.85 34.04 21.28 33.45 21.28H33.33C33.1 21.28 33.03 21.24 33.02 21.24C33.02 21.23 33.02 21.21 33.02 21.19C33.02 20.92 33.29 20.07 35.09 17.46C36.47 15.44 37.73 14.42 38.85 14.42C39.19 14.42 39.75 14.5 39.75 14.99C39.75 15.13 39.71 15.19 39.67 15.25L37.7 18.19C37.62 18.3 37.48 18.43 37.34 18.57ZM61.24 14.48C61.6 14.48 61.83 14.57 61.83 14.63C61.83 15.26 60.25 16.43 59.07 16.84C58.61 17 57.92 17.18 57.3 17.27C58.08 16.35 59.77 14.48 61.24 14.48ZM123.17 17.92C122.94 17.92 122.79 18.1 122.68 18.22L122.64 18.27C121.75 19.31 119.89 21.48 118.22 21.48C117.33 21.48 117.33 21.13 117.33 21C117.33 20.28 118 19.54 118.7 18.76C119.56 17.81 120.54 16.73 120.54 15.4C120.54 14.24 119.78 13.55 118.5 13.55C117.33 13.55 115.91 14.53 115.03 15.31C114.99 14.3 113.99 13.52 112.71 13.52C110.55 13.52 107.03 17.66 106.76 17.97C106.7 18.02 106.65 18.08 106.61 18.13L106.58 18.16C105.82 19.02 103.51 21.63 101.87 21.63C101.73 21.63 101.73 21.59 101.73 21.54C101.73 21.27 102.01 20.82 102.19 20.52L102.26 20.41L106.87 13.49L103.44 13.8L103.12 14.25C103.09 14.18 103.04 14.13 102.99 14.07C102.51 13.54 101.34 13.49 101 13.49C97.09 13.49 93.51 15.75 92.82 18.64L92.59 18.94C91.14 20.52 89.8 21.43 88.91 21.43C88.19 21.43 88.1 21.16 88.1 20.89C88.1 20.1 88.76 19.35 89.45 18.56C90.25 17.65 91.16 16.61 91.16 15.33C91.16 14.19 90.41 13.51 89.16 13.51C87.99 13.51 86.57 14.49 85.69 15.27C85.67 14.2 84.61 13.48 83.05 13.48C81.79 13.48 80.49 14.59 79.85 15.22C79.82 14.19 78.92 13.48 77.65 13.48C75.6 13.48 73.44 15.86 72.01 17.43C71.86 17.6 71.72 17.75 71.6 17.88C71.41 18.06 71.17 18.33 70.89 18.63C69.83 19.8 68.23 21.56 66.81 21.56C66.47 21.56 66.47 21.46 66.47 21.41C66.47 20.94 67.38 19.85 68.18 18.89C69.12 17.77 70.01 16.7 70.01 16.08C70.01 15.41 68.18 14.57 67.46 14.26C67.62 14.08 67.7 13.9 67.7 13.72C67.7 13.32 67.33 13.06 66.77 13.06C66.23 13.06 65.84 13.37 65.84 13.81C65.84 14.03 65.96 14.25 66.18 14.43C65.5 15.11 63.09 17.55 62.64 18.16C62.53 18.27 62.38 18.43 62.22 18.61C61.25 19.66 59.45 21.63 56.98 21.63C56.07 21.63 55.61 21.22 55.61 20.4C55.61 19.77 55.86 19.01 56.29 18.3C57.35 18.26 58.51 18.07 59.42 17.79C60.63 17.41 62.96 15.87 62.96 14.63C62.96 13.9 62.22 13.52 60.76 13.52C57.34 13.52 54.06 15.05 52.79 17.23C52.55 17.62 52.4 18.07 52.34 18.57C50.59 20.55 49.25 21.55 48.36 21.55C48.03 21.55 47.9 21.42 47.9 21.07C47.9 20.71 48.05 20.26 48.31 19.91L53.73 11.91H56.49C56.91 11.91 57.07 11.73 57.07 11.58C57.07 11.46 57 11.25 56.57 11.25H54.17L56.41 7.93002L53.07 8.14002L50.72 11.56C50.67 11.61 50.42 11.85 50.11 12.16C48.91 13.33 46.09 16.08 44.33 18.04L44.32 18.07C44.28 18.11 44.25 18.15 44.2 18.2C43.44 19.06 41.13 21.67 39.49 21.67C39.35 21.67 39.35 21.63 39.35 21.58C39.35 21.31 39.63 20.86 39.81 20.56L39.88 20.45L44.49 13.53L41.06 13.84L40.74 14.29C40.71 14.22 40.66 14.16 40.61 14.11C40.13 13.58 38.96 13.53 38.62 13.53C34.19 13.53 30.31 16.4 30.31 19.66C30.31 21.27 31.39 22.23 33.19 22.23C34.55 22.23 36.1 21.21 37.06 20.31C37.03 20.44 37.02 20.57 37.02 20.71C37.02 21.46 37.44 22.35 39.42 22.35C40.84 22.35 42.71 21.07 44.84 18.63C44.88 18.59 44.93 18.53 44.95 18.5C45.95 17.42 47.59 15.76 48.71 14.63C47.67 16.17 46.12 18.43 45.8 18.88C45.44 19.42 45.25 19.95 45.25 20.42C45.25 21.62 46.27 22.33 47.97 22.33C49.61 22.33 51.25 20.85 52.4 19.61C52.8 21.23 54.65 22.33 57.08 22.33C59.81 22.33 61.91 20.22 63.24 18.65L63.26 18.63L63.27 18.62C63.88 17.96 64.52 17.31 65.13 16.68C65.72 16.08 66.32 15.45 66.91 14.83L67.82 15.27C66 16.56 64.15 18.64 64.15 20.39C64.15 21.5 65.19 22.27 66.67 22.27C68.82 22.27 71.37 19.47 72.17 18.39C72.18 18.37 72.19 18.36 72.19 18.35C72.36 18.18 72.58 17.95 72.83 17.68C74 16.43 75.97 14.33 77.5 14.33C77.64 14.33 77.68 14.35 77.68 14.36C77.68 14.51 77.35 14.93 77.23 15.08L77.15 15.18L72.27 22.07H75.6L78.9 17.23C79.49 16.37 81.52 14.22 82.84 14.22C83.18 14.22 83.18 14.36 83.18 14.43C83.18 14.67 83 14.97 82.85 15.23C81.98 16.62 81.01 18.02 80.07 19.37C79.52 20.16 78.95 20.98 78.41 21.79L78.22 22.07H81.46L83.66 18.85C83.75 18.71 83.84 18.56 83.94 18.42C84.13 18.13 84.32 17.82 84.53 17.55C85.23 16.64 87.39 14.27 88.91 14.27C89.17 14.27 89.17 14.35 89.17 14.39C89.17 14.79 88.55 15.53 87.9 16.3C86.88 17.51 85.6 19.03 85.6 20.47C85.6 22.26 87.89 22.26 88.64 22.26C90.09 22.26 91.72 20.93 92.71 19.95C92.83 21.39 93.88 22.23 95.57 22.23C96.93 22.23 98.48 21.21 99.44 20.31C99.41 20.44 99.4 20.57 99.4 20.71C99.4 21.46 99.82 22.35 101.8 22.35C103.22 22.35 105.09 21.07 107.21 18.64C107.26 18.59 107.31 18.53 107.35 18.46C107.53 18.28 107.76 18.04 108.03 17.77C109.28 16.48 111.37 14.33 112.56 14.33C112.61 14.33 112.78 14.34 112.78 14.42C112.78 14.6 112.55 14.94 112.41 15.14L112.34 15.25L107.42 22.15H110.8L114.11 17.31C114.69 16.46 116.99 14.37 118.29 14.37C118.43 14.37 118.59 14.4 118.59 14.46C118.59 14.73 118.08 15.32 117.54 15.95C116.49 17.17 115.06 18.83 115.06 20.54C115.06 22.13 116.64 22.33 118.02 22.33C120.14 22.33 122.4 19.84 123.29 18.75C123.31 18.72 123.33 18.7 123.35 18.67C123.43 18.56 123.52 18.44 123.52 18.29C123.47 18.09 123.36 17.92 123.17 17.92Z" fill="white"/>
</svg>
