<svg width="103" height="64" viewBox="0 0 103 64" fill="none" xmlns="http://www.w3.org/2000/svg">
<path d="M5.37 40.9801C4.82 35.1401 4.77 29.3101 5.51 23.4801C4.28 24.5901 3.23 25.3601 1.78 27.1201C1.42 30.0401 1.74 33.9901 2.02 37.5101C2.41 42.4901 2.92 47.6501 3.95 51.7801C5.04 51.4601 5.5 50.9901 6.08 50.5101L5.95 47.8401C6.01 45.6001 6.05 43.6101 7.68 41.8201C8.52 43.9501 10.38 46.8101 12.87 47.7601C14.46 48.3601 15.87 48.0101 16.75 47.2201C17.96 46.1301 18.17 44.2201 16.45 42.8101C16.24 43.5801 15.89 44.2001 15.44 44.6001C12.78 46.9901 10.85 39.5001 10.78 36.2101C10.1 36.6201 8.02 38.7101 7.47 39.3601C9.12 33.4501 11.53 28.98 15.04 24.74C17.64 21.6101 23.89 14.8001 28.26 17.9601C26.67 18.2201 25.07 20.9601 27.47 21.7901C30.07 22.6901 32.14 20.1601 32.25 17.8001C32.44 13.7401 28.55 12.7701 25.3 13.5301C20.8 14.5801 16.96 17.5201 13.87 21.3201C9.22 27.0501 6.27 34.7701 5.37 40.9801ZM21.28 39.0501C20.87 41.0501 19.6 42.3701 18.35 42.4701C15.83 42.6701 15.39 39.3701 15.49 37.5801C15.63 35.18 16.84 31.1501 19.91 31.1401C20.99 31.1301 21.61 31.7101 21.74 32.4101C21.91 33.3501 21.29 34.4901 20.33 34.4901C20.56 33.2601 19.88 33.25 19.49 33.35C18.52 33.6 17.88 35.2401 17.78 36.8601C17.7 38.0801 17.91 39.6601 18.52 40.0301C18.94 40.2801 19.64 39.9201 20.2 38.6401C20.6 37.7201 20.83 36.5201 20.87 35.5701L22.75 34.8401C22.65 35.2901 22.49 36.2801 22.58 37.2301C22.64 37.8301 22.76 38.4301 22.92 38.8701C23.24 39.7401 24.02 40.0601 24.3 38.6201C25.1 39.3401 24.36 40.9401 23.48 41.2301C22.67 41.5101 21.33 40.8601 21.28 39.0501ZM26.19 31.0901C26.01 30.3101 25.79 29.7901 25.5 29.42C24.65 28.34 23.58 29.2901 23.14 30.2701C23.9 30.6201 24.33 31.4901 24.52 32.7701C24.69 33.9001 24.78 35.2901 24.84 36.4001C24.9 37.4401 24.96 38.3601 25.12 38.9001L26.72 37.6201C26.63 36.7801 26.59 35.1601 26.72 33.6301C26.81 32.5901 26.96 31.47 27.43 30.51C27.9 29.56 28.41 29.65 28.7 30.26C28.92 30.72 28.8 31.7801 28.85 32.5501C29 35.0101 29.3 36.4701 30.89 36.2701C31.84 36.1501 32.7 34.48 31.87 34.0501C31.66 34.4701 31.43 34.9401 31.2 34.9401C30.48 34.9401 31.16 30.0501 30.67 28.4701C30.24 27.1001 29.19 26.8701 28.46 27.1801C27.14 27.7301 26.35 29.0501 26.19 31.0901ZM34.67 26.33C35.2 27.98 34.61 29.9201 34.96 31.6301C35.2 32.8001 36.72 32.2601 37.02 29.2201C37.17 27.7601 36.89 25.8601 36.95 24.2701C37.55 24.1801 38.45 24.35 39.18 24.8001C38.87 26.2301 38.75 28.8801 39.11 30.8701C39.41 32.5201 39.85 33.6301 41.27 34.1901C39.56 34.96 37.89 33.7701 37.53 31.58C37.25 32.2701 36.65 33.1901 35.83 33.8001C34.19 35.0201 33.15 33.99 32.97 32.6901C32.76 31.2101 32.83 29.7101 32.85 28.3101C32.86 27.4001 32.39 26.6601 31.77 26.8801C31.86 25.9201 34.19 24.99 34.67 26.33ZM40.99 21.2601C40.67 24.5801 40.63 28.6101 41.15 31.9101C41.73 31.7501 42.01 31.4501 42.47 30.9601C42.45 28.4401 42.65 24.8101 43.31 22.1801C42.52 21.7101 41.66 21.3601 40.99 21.2601ZM35.45 23.9101C35.29 23.4701 35.11 22.8501 35.65 22.4301C39.45 19.3901 46.36 16.5001 51.21 15.6801C52.36 15.4901 54.66 14.8001 54.62 16.8501C54.61 17.4501 54.28 18.1401 53.49 18.5801C53.74 17.5801 52.55 17.7601 51.85 17.8301C46.47 18.3301 39.04 21.1401 35.45 23.9101ZM49.51 27.6201C49.45 29.2201 50.59 29.92 51.38 29.6901C52.26 29.43 53.05 28.0001 52.33 27.3801C51.25 29.4801 50.88 26.9001 50.87 26.0001C50.86 25.3001 50.96 24.5901 51.17 23.9101L49.31 24.5601C49.21 25.4001 48.91 26.4701 48.47 27.2801C47.86 28.41 47.15 28.73 46.76 28.51C46.19 28.18 46.08 26.7801 46.23 25.7001C46.43 24.2701 47.14 22.8101 48.1 22.5901C48.48 22.5001 49.17 22.6301 48.96 23.5401C49.72 23.5401 50.24 22.6201 50.3 21.9601C50.36 21.17 49.79 20.6201 48.65 20.6301C46.92 20.6401 45.82 22.0401 45.06 23.5601C44.63 24.4401 44.14 26.4501 44.24 28.1201C44.35 30.0301 45.39 30.7401 46.46 30.6601C47.68 30.5701 48.99 29.4001 49.51 27.6201ZM53.24 29.9601C53.9 29.85 54.32 29.8301 54.93 29.0501C55 28.5801 55.05 26.92 55.09 26.4C55.98 25.78 56.84 25.6401 57.39 25.4701C57.27 27.9101 57.47 30.5301 59.28 30.5201C59.94 30.5201 60.11 30.2001 60.3 29.5501C59.51 29.2901 59.23 28.5901 59.23 27.7501C59.24 25.5801 59.46 23.5 60.06 21.2901C59.45 20.8001 58.89 20.4501 58.2 20.1601C57.76 21.5601 57.73 22.6601 57.57 23.9601C56.88 24.1101 55.83 24.42 55.14 24.9C55.19 23.8601 55.38 22.6301 55.67 21.5701C55.22 20.9701 54.33 20.4401 53.88 20.1601C53.21 23.4201 53.21 26.7301 53.24 29.9601ZM71.37 24.9C71.46 23.66 72.47 19.5401 72.49 19.0401C71.77 19.0801 70.89 19.6501 70.32 19.9201C69.91 21.2401 69.42 23.8401 69.26 24.8101C68.36 26.3901 66.76 29.7501 64.56 29.1801C63.52 28.9101 63.03 27.6901 62.93 26.0501C62.84 24.5801 63.09 22.32 64.7 22.08C65.29 21.99 65.65 22.2801 65.74 22.6401C65.84 23.0001 65.67 23.4401 65.2 23.7101C64.71 24.0001 64.48 24.9201 65.09 25.1801C66.35 25.7301 67.62 24.07 67.56 22.58C67.52 21.49 66.77 20.4901 64.8 20.5001C61.92 20.5101 60.58 23.6 60.73 26.4C60.83 28.28 61.51 30.4701 63.65 30.7901C64.73 30.9501 65.91 30.58 66.83 29.92C67.63 29.34 68.29 28.5001 68.86 27.2501C68.63 28.9301 68.46 30.6201 68.51 32.3001C68.9 32.7501 69.56 33.1201 70.34 32.9501C70.55 31.4801 70.53 27.1701 72.77 26.5701C72.98 28.2801 73.71 32.3501 75.22 34.2901C75.81 35.0501 76.52 35.5401 77.36 35.5401C77.97 35.5401 78.28 35.4201 78.32 34.6801C77.85 34.6501 77.08 34.2501 76.55 32.9801C75.95 31.5501 75.48 27.3001 75.35 26.51C75.11 25.0301 74.43 23.9201 71.65 25.8801C72.39 24.5801 74.8 20.9401 76.69 19.3501C77.55 18.6301 79.06 17.9801 79 19.8601C78.98 20.33 78.88 20.8101 78.53 21.0001C78.21 20.6601 77.77 20.83 77.5 21.1901C77.22 21.5601 77.1 22.1301 77.45 22.5601C77.66 22.8201 78 23.01 78.33 23.01C79.49 23 80.35 21.59 80.55 20.1301C80.76 18.5801 80.21 16.9801 78.47 16.9901C74.99 17.0201 72.67 22.44 71.37 24.9ZM82.74 31.2901C82.38 32.9401 83.08 34.0901 84.11 34.3101C85 34.4901 85.98 33.4701 85.63 32.3801C84.54 33.6401 84.2 32.4501 84.27 31.0201C84.32 30.0501 84.57 29.09 85.04 28.24L83.13 27.9801C82.87 28.8101 82.38 29.7801 81.81 30.4101C81.01 31.2901 80.27 31.2701 79.94 30.8401C79.45 30.2101 79.62 28.6901 79.97 27.6301C80.44 26.2301 81.4 25.0601 82.36 25.3101C82.75 25.4101 83.37 25.6301 83.01 26.85C84.44 27.59 85.38 24.4601 83.26 23.5301C80.48 22.3001 78.42 24.9601 77.7 27.4601C77.19 29.26 77.28 32.09 79.24 32.9401C80.42 33.4601 81.9 32.8901 82.74 31.2901ZM91.15 27.1601C90.51 27.3001 90 27.3001 89.34 27.2301C86.18 26.9001 84.6 24.0001 84.89 20.9001C85.28 16.7301 88.85 12.2101 94.04 13.1001C97.06 13.6201 97.55 15.2701 96.85 16.6201C96.19 17.8901 94.47 18.8901 92.81 18.4401C94.87 16.5801 92.53 14.8801 90.83 16.7501C90.1 17.5501 89.5 18.8701 89.19 20.2301C88.58 22.9401 89.19 25.7401 92.51 24.6201C95.47 23.6201 95.99 20.3401 96.55 17.6701C97.56 17.1801 100.23 16.3301 101.67 16.2201C98.51 22.2801 95.71 30.0701 96.38 36.9701L94.41 38.0201C93.49 33.8401 93.62 30.2101 94.1 26.3001L93.3 26.8901C91.71 34.0001 87.24 41.4701 80.12 44.2201C76.58 45.5901 70.66 45.7201 69.12 41.3901C68.57 39.8301 69.63 37.0801 71.55 37.2801C70.2 41.1101 74.04 41.7901 77.4 41.0701C84.01 39.6201 89.61 33.7801 91.15 27.1601ZM74.93 54.4801C75.18 52.8401 75.58 51.4501 76.39 50.5701C77.2 49.6901 78.41 49.3301 80.29 49.7501V56.4801C78.86 54.9101 76.98 54.4601 74.93 54.4801ZM80.29 60.07V61.1001C80.29 61.7201 80.04 62.3601 79.56 62.8601C81.01 62.9501 82.83 62.93 84.28 62.82C83.57 62.46 83.52 61.4701 83.51 60.6301C83.5 56.6101 83.28 52.7601 83.51 48.7901C83.53 48.4901 83.76 48.0501 84.14 47.8101C83.32 47.6601 81.36 47.6701 79.79 47.6701C77.76 47.6701 75.53 47.59 74.22 47.6501C73.69 47.68 73.18 47.6601 72.66 47.7701C73.45 48.1401 74.4 48.9801 73.72 50.2401C72.57 52.3501 71.83 54.73 71.64 57.1501C71.49 59.0501 71.42 62.7001 73.82 63.2401C75.17 63.5401 76.68 62.9001 77.38 61.7001C74.94 61.9001 74.3 58.2501 74.67 56.3901C76.96 56.2301 78.85 57.23 80.29 60.07ZM62.25 53.5401V49.1801C62.25 48.7001 62.28 48.1801 62.75 47.7201C61.98 47.4801 59.26 47.4201 58.49 47.6701C58.92 47.9101 58.88 48.5201 58.92 49.0501L58.96 60.8801C58.96 61.4901 58.95 62.1 58.5 62.68C59.53 62.7201 62.26 62.7801 63.04 62.6401C62.53 61.9601 62.27 61.3501 62.26 60.6601C62.24 59.4401 62.19 58.3501 62.26 57.1101C62.27 57.0101 62.56 56.4001 62.82 56C63.86 59.3101 66.14 62.9501 69.46 63.1901C70.24 63.2501 71.11 60.9301 71.32 60.2701C68.28 60.5101 65.97 57.3701 65.16 54.1201L63.69 54.6201C64.06 53.3701 65.5 50.8101 67.25 50.0301C66.97 50.9401 67.35 51.7501 68.05 52.0401C69.6 52.6901 70.61 51.1701 70.61 49.7901C70.61 48.7101 70.25 47.5701 68.64 47.4501C65.34 47.2201 63.58 51.0901 62.25 53.5401ZM52.84 47.6801C53.21 48.1101 53.23 49.1001 53.3 50.3901C53.37 51.8601 53.32 53.5701 53.3 54.8001C52.43 56.3501 48.7 58.0701 48.43 55.1001C48.22 52.7801 48.64 48.7301 49.43 47.6801C47.95 47.5101 46.09 47.4701 44.76 47.6801C45.09 47.9301 45.49 49.4101 45.45 50.6401C45.43 51.5401 45.36 52.4601 45.3 53.1301C45.18 54.4401 45.23 55.5601 45.48 56.43C46.56 60.2901 50.97 59.66 53.31 57.7201V59.9201C53.31 61.1301 53.13 62.2601 52.58 62.6501C53.28 62.7701 56.07 62.84 56.89 62.6501C56.22 61.6301 56.4 60.3901 56.4 59.3001V50.1001C56.4 49.0001 56.52 48.0501 57.13 47.6701C56 47.4801 54.06 47.5501 52.84 47.6801ZM40.7 55.0201C40.83 58.8501 39.25 60.7401 37.61 60.7601C35.97 60.7801 34.28 58.9401 34.16 55.2901C34.04 51.5101 35.61 49.6001 37.25 49.5601C38.89 49.5201 40.58 51.3401 40.7 55.0201ZM37.89 62.9101C42.12 62.7001 44.29 58.7401 44.21 54.8701C44.13 51.0001 41.78 47.2201 36.98 47.3701C32.95 47.4901 30.79 51.5001 30.83 55.4101C30.88 59.3301 33.13 63.1501 37.89 62.9101ZM22.05 53.8601V60.4801C23.14 60.5801 24.3 60.6501 25.2 60.3101C26.02 60.0001 26.62 59.3401 26.76 58.0501C27.05 55.3201 24.4 53.9401 22.05 53.8601ZM22.05 49.6801V51.5901C26.07 52.1301 30.26 53.1501 29.99 58.2601C29.78 62.2401 25.67 62.7001 22.5 62.7001C21.06 62.7001 19.62 62.6401 18.19 62.5301C18.9 62.1701 19.09 58.3701 19.06 54.7201C19.03 51.4501 19 48.3001 18.33 47.8101L19.4 47.8401C21.67 47.9901 24.76 47.4901 27.04 47.6401C28.41 47.7301 29.6 48.2501 29.66 49.4201C29.73 50.7801 28.53 52.2901 27.04 51.8401C27.84 50.8801 27.42 50.2101 26.62 49.8801C25.28 49.3201 22.74 49.5601 22.05 49.6801ZM45.13 7.65005V3.97005C45.52 3.79005 45.91 3.81005 46.33 3.84005C47.78 3.96005 47.86 4.96005 47.05 6.04005C46.5 6.77005 45.79 7.32005 45.13 7.65005ZM45.13 11.3301V9.24005C45.96 8.84005 46.54 8.36005 47.29 7.70005C47.97 8.17005 48.48 8.69005 48.43 9.58005C48.39 10.2601 48.06 10.8301 47.53 11.1501C46.82 11.5701 45.91 11.4001 45.13 11.3301ZM43.3 2.61005L42.56 2.59005C43.02 2.93005 43.05 5.11005 43.07 7.36005C43.09 9.88005 42.95 12.5001 42.47 12.7501C43.44 12.8601 44.51 12.8601 45.49 12.8601C46.84 12.8601 48.3 12.8601 49.41 11.9901C50.22 11.3601 50.66 10.4201 50.68 9.31005C50.71 7.80005 49.67 6.76005 48.61 6.26005C49.23 5.75005 49.85 4.88005 49.85 4.03005C49.85 3.00005 48.81 2.52005 47.5 2.43005C46.11 2.36005 44.67 2.70005 43.3 2.61005ZM69.26 11.5201C69.48 11.2001 68.62 9.59005 68.12 9.56005C67.71 10.6501 67.2 11.4201 66.03 11.4601C64.5 11.5101 63.73 10.4501 63.66 8.17005C63.6 6.27005 63.93 4.72005 64.8 4.16005C65.58 3.67005 66.57 3.93005 67.13 4.62005C66.38 5.17005 66.05 6.09005 66.34 6.96005C66.59 7.70005 67.39 8.03005 68.09 7.77005C69.44 7.27005 69.52 5.47005 68.87 4.10005C68.12 2.54005 66.36 2.12005 65.1 2.32005C62.97 2.66005 61.52 3.98005 61.15 6.89005C60.61 11.2301 62.87 13.1101 65.42 13.1001C66.6 13.1001 68.62 12.4501 69.26 11.5201ZM54.01 7.21005C54.18 6.08005 54.46 5.12005 55.01 4.52005C55.56 3.91005 56.4 3.66005 57.7 3.95005V8.59005C56.73 7.50005 55.43 7.19005 54.01 7.21005ZM57.71 11.0601V11.7701C57.71 12.1901 57.54 12.6401 57.21 12.9801C58.21 13.0501 59.47 13.0301 60.47 12.9601C59.98 12.7101 59.94 12.0301 59.94 11.4501C59.93 8.68005 59.78 6.03005 59.94 3.29005C59.95 3.08005 60.11 2.78005 60.38 2.62005C59.81 2.51005 58.46 2.52005 57.38 2.52005C55.98 2.52005 54.44 2.46005 53.54 2.51005C53.18 2.53005 52.83 2.52005 52.47 2.59005C53.02 2.84005 53.67 3.43005 53.2 4.29005C52.41 5.74005 51.9 7.39005 51.77 9.05005C51.67 10.3601 51.62 12.8801 53.27 13.2501C54.2 13.4601 55.24 13.0101 55.72 12.1901C54.04 12.3301 53.6 9.81005 53.85 8.53005C55.41 8.41005 56.71 9.10005 57.71 11.0601ZM35.66 6.55005V3.55005C35.66 3.22005 35.68 2.87005 36 2.54005C35.47 2.38005 33.6 2.34005 33.06 2.50005C33.35 2.66005 33.33 3.09005 33.35 3.45005L33.38 11.6101C33.38 12.0301 33.37 12.4501 33.06 12.8501C33.77 12.8801 35.65 12.9201 36.19 12.8201C35.84 12.3501 35.66 11.9301 35.65 11.4601C35.63 10.6201 35.6 9.86005 35.65 9.01005C35.65 8.94005 35.86 8.52005 36.04 8.24005C36.76 10.5201 38.33 13.0301 40.62 13.2001C41.16 13.2401 41.76 11.6401 41.91 11.1901C39.81 11.3601 38.22 9.19005 37.66 6.95005L36.65 7.30005C36.9 6.44005 37.9 4.67005 39.1 4.13005C38.91 4.76005 39.17 5.32005 39.65 5.52005C40.72 5.97005 41.41 4.92005 41.42 3.97005C41.42 3.23005 41.17 2.44005 40.06 2.36005C37.78 2.20005 36.57 4.87005 35.66 6.55005Z" fill="#AF8116"/>
<path d="M44.67 41.6201C44.81 41.6201 44.93 41.7301 44.93 41.8801C44.93 42.0201 44.81 42.1401 44.67 42.1401C44.53 42.1401 44.41 42.0201 44.41 41.8801C44.41 41.7301 44.52 41.6201 44.67 41.6201ZM49.1 40.3401C49.35 39.9401 50.35 38.7201 50.35 38.5201C48.29 37.1001 44.99 35.7101 42.56 35.7001C40.27 35.6901 38.48 36.0601 36.3 37.0101C34.45 37.8101 32.8 38.8301 30.64 39.1201C32.36 39.6101 33.62 39.1801 35.23 38.6901C36.94 38.1601 39 37.5501 40.92 37.6701C42.34 37.7601 45.77 38.5001 46.11 40.2001C44.39 40.1901 43.18 40.8201 42.42 41.8001L40.79 42.2101L39.98 42.7601L40.68 43.2401C42.07 43.2501 42.18 43.0101 43.02 43.2901C45.02 44.0401 47.62 44.5401 50.1 44.4201C52.29 44.3101 54.39 43.7201 55.91 42.3901C56.94 41.4801 57.99 40.2801 59.06 39.8001C59.86 39.4401 60.95 38.9501 61.02 38.4701C60.44 38.3301 59.65 38.4401 59.05 38.4401C58.45 38.4401 58.12 38.9201 57.31 39.0901C56.38 39.2901 56 39.5301 54.79 39.5501C55.39 38.5501 56.95 37.1401 58.86 36.2401C60.57 35.4301 62.43 34.4901 64.35 34.9201C66.08 35.3101 70.13 36.0801 72.06 35.3801C70.47 35.4201 67.52 34.2301 66.21 33.7101C61.25 31.7501 56.29 34.0401 52.46 37.2701C51.32 38.2001 50.34 39.5501 49.1 40.3401Z" fill="#AF8116"/>
<path d="M91.8 58.2001C89.71 58.6601 88.12 58.7801 87.06 58.7401C86 58.7001 85.46 58.4801 85.45 58.2601C85.44 58.0401 85.96 57.8201 87.01 57.7501C88.07 57.6901 89.66 57.7801 91.8 58.2001ZM101.96 55.3601L88.27 55.9001C85.52 56.0101 85.49 55.6401 85.46 55.4201C85.43 55.2001 85.4 54.8201 88.14 54.9101L101.96 55.3601ZM91.8 52.5201C89.71 52.9801 88.12 53.1001 87.06 53.0601C86 53.0201 85.46 52.8001 85.45 52.5801C85.44 52.3601 85.96 52.1401 87.01 52.0701C88.07 52.0101 89.66 52.1001 91.8 52.5201Z" fill="#AF8116"/>
<path d="M10.63 58.2001C12.72 58.6601 14.31 58.7801 15.37 58.7401C16.43 58.7001 16.97 58.4801 16.98 58.2601C16.99 58.0401 16.47 57.8201 15.42 57.7501C14.36 57.6901 12.76 57.7801 10.63 58.2001ZM0.470001 55.3601L14.16 55.9001C16.91 56.0101 16.94 55.6401 16.97 55.4201C17 55.2001 17.03 54.8201 14.29 54.9101L0.470001 55.3601ZM10.63 52.5201C12.72 52.9801 14.31 53.1001 15.37 53.0601C16.43 53.0201 16.97 52.8001 16.98 52.5801C16.99 52.3601 16.47 52.1401 15.42 52.0701C14.36 52.0101 12.76 52.1001 10.63 52.5201Z" fill="#AF8116"/>
<path d="M78.63 10.78C80.89 10.07 80.67 7.07005 80.73 7.05005C80.9 7.00005 80.89 6.95005 81.23 6.64005C79.45 7.56005 77.51 8.40005 75.58 9.06005C73.75 9.68005 71.68 9.96005 70.26 9.46005C71.72 9.70005 73.81 9.24005 75.43 8.70005C77.15 8.13005 78.8 7.22005 80.37 6.35005C80.61 6.22005 81.91 5.68005 81.85 5.85005C81.23 7.47005 82.33 9.61005 78.63 10.78ZM97.38 3.80005C93.89 2.73005 89.99 5.41005 86.19 8.06005C83.87 9.68005 81.28 10.66 79.1 11.09C76.93 11.51 74.58 11.54 71.72 11.81C74.08 11.87 76.71 11.9801 79.45 11.51C82.25 11.0301 84.6 9.96005 86.95 8.42005C90.32 6.23005 93.32 3.62005 97.38 3.80005ZM85.17 4.12005C86.31 4.57005 86.5 7.06005 85.63 7.93005C84.89 6.97005 84.78 5.24005 85.17 4.12005ZM87.13 3.09005C86.61 4.15005 86.4 5.86005 87.02 6.90005C87.99 6.14005 88.21 3.67005 87.13 3.09005ZM89.07 2.15005C90.09 2.84005 89.81 4.73005 88.52 6.03005C88.3 4.75005 88.45 3.16005 89.07 2.15005ZM91.58 1.16005C90.66 2.04005 89.98 3.73005 90.32 4.96005C91.48 4.52005 92.41 2.09005 91.58 1.16005ZM94.27 0.83005C94.62 1.95005 92.97 3.98005 91.9 4.06005C92.05 2.81005 93.2 1.41005 94.27 0.83005ZM97.26 0.800049C96.07 1.04005 94.55 2.03005 94.04 3.18005C95.25 3.49005 97.41 2.03005 97.26 0.800049ZM100.13 1.57005C100 2.81005 97.56 3.74005 96.46 3.17005C97.22 2.16005 98.92 1.53005 100.13 1.57005ZM90.45 10.66C89.73 9.62005 87.87 8.90005 86.54 9.17005C86.89 10.3601 89.47 11.41 90.45 10.66ZM92.03 9.54005C91.22 8.63005 89.8 7.71005 88.09 8.19005C88.92 9.15005 91.04 10.29 92.03 9.54005ZM93.71 8.42005C92.72 9.17005 90.63 7.64005 89.71 7.24005C91.47 6.36005 92.9 7.51005 93.71 8.42005ZM95.47 7.50005C94.59 8.14005 92.51 6.71005 91.53 6.12005C92.91 5.44005 94.73 6.30005 95.47 7.50005ZM97.37 6.56005C96.56 5.65005 95.18 4.44005 93.4 5.28005C94.43 5.69005 96.38 7.31005 97.37 6.56005ZM99.71 5.60005C98.72 6.35005 96.52 5.35005 95.61 4.48005C97.16 4.13005 98.9 4.69005 99.71 5.60005ZM102.04 3.79005C100.89 3.28005 99 3.19005 97.86 3.82005C98.68 4.78005 101.4 4.87005 102.04 3.79005Z" fill="#AF8116"/>
<path d="M23.8 10.78C21.54 10.07 21.76 7.07005 21.7 7.05005C21.53 7.00005 21.54 6.95005 21.2 6.64005C22.98 7.56005 24.92 8.40005 26.85 9.06005C28.68 9.68005 30.75 9.96005 32.17 9.46005C30.71 9.70005 28.61 9.24005 27 8.70005C25.28 8.13005 23.63 7.22005 22.06 6.35005C21.82 6.22005 20.52 5.68005 20.58 5.85005C21.2 7.47005 20.1 9.61005 23.8 10.78ZM5.05 3.80005C8.54 2.73005 12.44 5.41005 16.24 8.06005C18.56 9.68005 21.14 10.66 23.33 11.09C25.49 11.51 27.85 11.54 30.71 11.81C28.35 11.87 25.72 11.9801 22.98 11.51C20.18 11.0301 17.83 9.96005 15.48 8.42005C12.11 6.23005 9.11 3.62005 5.05 3.80005ZM17.26 4.12005C16.12 4.57005 15.93 7.06005 16.8 7.93005C17.54 6.97005 17.65 5.24005 17.26 4.12005ZM15.3 3.09005C15.82 4.15005 16.03 5.86005 15.41 6.90005C14.44 6.14005 14.22 3.67005 15.3 3.09005ZM13.36 2.15005C12.34 2.84005 12.62 4.73005 13.91 6.03005C14.13 4.75005 13.98 3.16005 13.36 2.15005ZM10.84 1.16005C11.76 2.04005 12.44 3.73005 12.1 4.96005C10.95 4.52005 10.02 2.09005 10.84 1.16005ZM8.16 0.83005C7.81 1.95005 9.46 3.98005 10.53 4.06005C10.38 2.81005 9.23 1.41005 8.16 0.83005ZM5.17 0.800049C6.36 1.04005 7.88 2.03005 8.39 3.18005C7.18 3.49005 5.02 2.03005 5.17 0.800049ZM2.29 1.57005C2.42 2.81005 4.86 3.74005 5.96 3.17005C5.21 2.16005 3.51 1.53005 2.29 1.57005ZM11.98 10.66C12.7 9.62005 14.56 8.90005 15.89 9.17005C15.54 10.3601 12.96 11.41 11.98 10.66ZM10.4 9.54005C11.21 8.63005 12.63 7.71005 14.34 8.19005C13.51 9.15005 11.39 10.29 10.4 9.54005ZM8.72 8.42005C9.71 9.17005 11.8 7.64005 12.72 7.24005C10.96 6.36005 9.53 7.51005 8.72 8.42005ZM6.96 7.50005C7.84 8.14005 9.92 6.71005 10.9 6.12005C9.52 5.44005 7.7 6.30005 6.96 7.50005ZM5.06 6.56005C5.87 5.65005 7.25 4.44005 9.03 5.28005C8 5.69005 6.05 7.31005 5.06 6.56005ZM2.72 5.60005C3.71 6.35005 5.91 5.35005 6.82 4.48005C5.27 4.13005 3.53 4.69005 2.72 5.60005ZM0.389999 3.79005C1.54 3.28005 3.43 3.19005 4.57 3.82005C3.74 4.78005 1.03 4.87005 0.389999 3.79005Z" fill="#AF8116"/>
<path d="M59.3 41.5201C60.08 41.3501 60.86 41.1601 61.66 41.0801C62.34 41.0101 62.77 41.0601 63.11 41.3301C63.35 41.5101 63.54 41.8001 63.75 42.2201C64.27 42.1901 64.78 42.1301 65.3 42.1301C66.2 42.1401 66.98 42.3301 67.83 42.9701C68.57 43.5201 69.2 44.2601 69.63 44.8901L69.59 44.9301C69.09 44.5301 68.34 43.9301 67.56 43.4901C66.55 42.9201 64.5 42.8101 63.4 43.2301C62.84 42.3801 62.59 41.5801 61.47 41.5601L59.3 41.5201ZM61.84 37.1401C62.48 37.0201 63.37 36.9301 64.06 37.1801C64.93 37.5001 65.07 38.3401 65.12 39.1801L65.58 39.1701C66.17 39.1501 66.8 39.1301 67.1 39.7801C67.25 40.0901 67.25 40.4901 67.23 40.9501H67.17C67.05 40.7001 66.96 40.5101 66.88 40.3501C66.64 39.8501 66.34 39.8301 65.97 39.8301C65.37 39.8201 64.81 39.8501 64.21 39.9101C64.28 39.0001 64.51 38.1001 63.65 37.6001C63.1 37.2801 62.24 37.2601 61.84 37.1401ZM24.14 45.4801C24.98 44.7801 25.82 44.0901 26.77 43.6301C29.19 42.4701 29.95 43.0201 31.9 44.0201C32.86 42.7801 34.29 41.8401 35.86 41.2101C37.59 40.5201 39.49 40.1801 41.14 40.2001V40.2801C39.5 40.5401 37.72 41.0601 36.17 41.8901C34.43 42.8301 33.34 43.8801 32.12 45.4401C30.11 44.7401 29.45 43.2701 27.04 44.0801C26.02 44.4301 25.04 45.0201 24.14 45.4801ZM23.55 23.8901C24.03 24.6001 25.17 24.9601 26.79 24.8101C30.1 24.4901 33.39 22.2801 34.74 19.0301C36.91 17.4901 40.39 16.2301 43.16 15.6701L43.17 15.8301C40.76 16.5701 37.41 17.7801 35.32 19.6601C33.84 23.1301 30.43 25.5501 26.84 25.9801C24.57 26.2501 21.16 25.0901 22.76 22.0301C18.58 24.8601 15.3 28.7001 12.8 33.0701C14.78 28.6101 19.29 21.8001 24.31 20.3601C23.45 21.4801 22.74 22.6901 23.55 23.8901ZM58.13 17.4601C58.87 17.2901 59.44 17.1001 60.02 16.8701C61.78 16.1901 63.67 15.3401 65.51 14.8501C68.12 14.1701 70.59 14.4601 72.18 16.0701C73.8 14.3501 76.29 13.2001 78.55 13.3101C82.78 13.5101 83.72 16.9301 82.46 20.1601L82.38 20.1201C83.12 17.1601 81.66 14.5101 78.27 14.3901C75.73 14.3001 73.88 15.6801 72.4 17.5901C70.4 15.5701 67.98 15.2201 65.54 15.7801C63.64 16.2201 61.9 17.0501 60.07 17.6701C58.86 18.0801 57.64 18.4201 56.38 18.7801C57.28 17.9301 57.83 14.9801 55.69 14.8101C57.44 14.1901 58.34 15.5101 58.13 17.4601Z" fill="#AF8116"/>
<path d="M30.59 14.5901C29.28 13.7101 27.33 13.6101 25.59 14.0201C21.03 15.0901 17.27 18.1101 14.36 21.6801C10.05 26.9801 6.9 34.4501 5.93 41.1801L5.88 41.5001L5.68 41.3601L5.73 41.0401C6.7 34.3101 9.85 26.8501 14.16 21.5401C17.07 17.9601 20.83 14.9401 25.39 13.8701C27.22 13.4401 29.28 13.5801 30.59 14.5901ZM29.19 18.1601L28.33 18.3001C27.16 18.4901 25.84 20.4201 27.2 21.2501C26.17 20.3601 27.42 18.6301 28.52 18.4401L29.38 18.3001L29.19 18.1601ZM10.49 37.1701C10.48 37.0701 10.47 36.9801 10.46 36.8801C10.05 37.2301 9.6 37.6801 9.3 37.9701C8.79 38.4701 8.22 39.0301 7.76 39.5801L7.03 40.4501L6.87 41.0201L7.95 39.7301C8.41 39.1801 8.98 38.6201 9.49 38.1201C9.76 37.8601 10.12 37.4901 10.49 37.1701ZM16.79 43.6601C16.74 43.5901 16.68 43.5201 16.62 43.4501C16.41 43.9801 16.11 44.4701 15.69 44.8501C15.29 45.2101 14.8 45.4601 14.25 45.3901C13.99 45.3601 13.75 45.2601 13.52 45.1201C13.8 45.3501 14.11 45.5001 14.44 45.5401C14.99 45.6001 15.48 45.3501 15.88 45.0001C16.29 44.6301 16.59 44.1601 16.79 43.6601ZM7.91 41.3901L8.03 41.6801C8.73 43.4601 10.07 45.5601 11.78 46.7501C10.17 45.5401 8.91 43.5401 8.23 41.8201L8.02 41.2801L7.91 41.3901ZM5.04 24.3801C4.95 24.4601 4.86 24.5401 4.77 24.6201C3.8 25.4701 2.96 26.2901 2.14 27.2701C1.87 29.5701 2.01 32.1001 2.16 34.4001C2.23 35.43 2.31 36.4501 2.39 37.4801C2.45 38.2801 2.52 39.0701 2.59 39.8701C2.92 43.6501 3.34 47.6101 4.22 51.3101C4.27 51.2901 4.32 51.2701 4.37 51.2501C3.51 47.6101 3.11 43.7101 2.78 40.0101C2.71 39.2101 2.65 38.4201 2.58 37.6201C2.5 36.5901 2.42 35.5701 2.35 34.5401C2.2 32.2401 2.06 29.7101 2.33 27.4101C3.15 26.4201 3.99 25.6001 4.97 24.7501L5 24.7301C5.01 24.6101 5.03 24.5001 5.04 24.3801ZM21.64 38.8401L21.83 38.8601L21.84 39.1801C21.85 39.7601 22.03 40.3601 22.48 40.7501C22.42 40.7201 22.37 40.6801 22.32 40.6401C21.84 40.2501 21.65 39.6301 21.64 39.0401V38.8401ZM21.05 31.8701C20.78 31.7101 20.45 31.6501 20.11 31.6501C17.31 31.6601 16.18 35.5001 16.05 37.7501C15.98 38.9401 16.16 40.9901 17.2 41.8601C15.99 41.1001 15.78 38.8801 15.85 37.6101C15.98 35.3601 17.11 31.5201 19.91 31.5101C20.33 31.5001 20.76 31.6101 21.05 31.8701ZM20.44 33.2001C20.64 33.4001 20.72 33.7101 20.73 34.0301C20.79 34.0001 20.85 33.9601 20.9 33.9101C20.85 33.6101 20.71 33.3401 20.44 33.2001ZM22.24 35.6601C22.25 35.5801 22.26 35.5101 22.27 35.4301L21.21 35.8401C21.14 36.8201 20.9 37.9201 20.52 38.8001C20.31 39.2901 20 39.8301 19.57 40.1701C19.25 40.4201 18.83 40.5701 18.44 40.4101C18.37 40.3801 18.39 40.3901 18.36 40.3701C18.41 40.4201 18.47 40.4601 18.53 40.4901C18.61 40.5401 18.56 40.5101 18.64 40.5501C19.04 40.7201 19.45 40.5601 19.77 40.3101C20.2 39.9701 20.51 39.4301 20.72 38.9401C21.1 38.0601 21.34 36.9601 21.41 35.9801L22.24 35.6601ZM24.26 39.6601C24.11 39.8501 23.91 39.9701 23.65 39.9801C23.5 39.9801 23.36 39.9401 23.23 39.8701C23.4 40.0201 23.6 40.1201 23.84 40.1201C24.18 40.1201 24.27 39.8701 24.26 39.6601ZM31.81 34.9101C31.65 35.1301 31.45 35.3001 31.21 35.3001C31.14 35.3001 31.07 35.2901 31.01 35.2601C31.37 35.68 31.67 35.2701 31.81 34.9101ZM28.72 29.6701C28.95 29.7901 29.11 30.0201 29.22 30.2501C29.49 30.8201 29.37 32.0101 29.41 32.6701C29.45 33.4001 29.53 35.2201 30.14 35.8301C30.11 35.8201 30.09 35.8001 30.06 35.7801C29.33 35.3001 29.26 33.3001 29.21 32.5301C29.17 31.8601 29.3 30.6801 29.02 30.1101C28.95 29.9501 28.85 29.7901 28.72 29.6701ZM26.42 33.0101C26.49 32.4301 26.58 31.8401 26.75 31.2801V31.2601C26.86 29.8001 27.35 28.2601 28.8 27.6601C29.18 27.5001 29.51 27.5501 29.79 27.7101C29.48 27.4401 29.07 27.3301 28.6 27.5201C27.14 28.1201 26.66 29.6701 26.55 31.1201L26.41 32.9701L26.42 33.0101ZM23.62 30.1301C24.42 30.7001 24.74 31.7701 24.88 32.7101C25.06 33.9101 25.14 35.1501 25.21 36.3701C25.24 36.9001 25.26 37.6301 25.36 38.2401L25.52 38.1101C25.45 37.5601 25.43 36.9601 25.41 36.5101C25.34 35.3001 25.27 34.0501 25.08 32.8501C24.94 31.9101 24.63 30.8401 23.82 30.2701C24.12 29.7701 24.62 29.2701 25.11 29.5101C24.56 28.9901 23.96 29.5701 23.62 30.1301ZM37.75 30.7001L37.87 30.4001L38.08 31.6601C38.22 32.4901 38.61 33.2901 39.2 33.7701C38.5 33.3201 38.03 32.4401 37.88 31.5201L37.75 30.7001ZM32.65 26.7601C33.06 27.1301 33.21 27.8101 33.21 28.3201C33.2 29.7601 33.13 31.2101 33.33 32.6401C33.39 33.0901 33.6 33.6201 34.01 33.8601L34.04 33.8701C33.75 33.6001 33.59 33.1601 33.53 32.7801C33.33 31.3501 33.4 29.9001 33.41 28.4601C33.41 27.8801 33.21 27.0801 32.65 26.7601ZM34.2 26.2401C33.79 25.7901 32.78 26.1201 32.34 26.5701C32.42 26.6001 32.49 26.6401 32.56 26.6901C32.94 26.3101 33.73 26.0201 34.2 26.2401ZM38.76 25.0401L38.77 24.9901C38.34 24.7701 37.79 24.6101 37.3 24.6101C37.29 26.1501 37.53 27.7301 37.38 29.2601C37.3 30.1101 37.09 31.1101 36.6 31.8301C36.31 32.2601 35.8 32.7201 35.23 32.5301C35.19 32.5201 35.15 32.5001 35.11 32.4801C35.2 32.5601 35.3 32.6301 35.42 32.6701C35.99 32.8601 36.5 32.4001 36.79 31.9701C37.27 31.2501 37.48 30.2501 37.57 29.4001C37.72 27.8801 37.47 26.2901 37.49 24.7501C37.91 24.7501 38.37 24.8701 38.76 25.0401ZM41.45 31.4101C41.51 31.3801 41.56 31.3401 41.61 31.3101C41.22 28.4201 41.22 24.8301 41.48 21.9201C41.94 22.0401 42.43 22.2501 42.86 22.4801L42.87 22.4501C42.39 22.1801 41.82 21.9201 41.28 21.7901C41.01 24.7601 41.02 28.4301 41.45 31.4101ZM53.66 17.7201C53.71 17.7701 53.76 17.8301 53.79 17.8901C53.8 17.8701 53.82 17.8601 53.83 17.8401C53.78 17.8001 53.73 17.7601 53.66 17.7201ZM35.66 23.3101C35.63 23.0901 35.67 22.8801 35.88 22.7101C39.68 19.6801 46.49 16.8401 51.28 16.0301C51.94 15.9201 53.37 15.5401 53.96 15.9701C53.99 15.9901 54.02 16.0201 54.04 16.0401C53.4 15.7201 52.11 16.0601 51.48 16.1701C46.69 16.9801 39.88 19.8201 36.08 22.8501C35.97 22.9401 35.9 23.0401 35.88 23.1601C35.79 23.2101 35.73 23.2601 35.66 23.3101ZM49.87 27.4301L50.07 27.4601L50.06 27.7801C50.04 28.3001 50.16 28.8601 50.56 29.2201L50.57 29.2301C50.49 29.1901 50.42 29.1301 50.36 29.0801C49.97 28.7201 49.84 28.1601 49.86 27.6401L49.87 27.4301ZM49.73 21.3001C49.48 21.1701 49.15 21.1201 48.85 21.1201C47.23 21.1301 46.24 22.5401 45.59 23.8501C45.03 24.9801 44.73 26.9901 44.8 28.2301C44.84 28.9301 45.05 29.6801 45.54 30.1001C44.91 29.7201 44.66 28.8801 44.61 28.0901C44.54 26.8501 44.84 24.8301 45.4 23.7101C46.05 22.4001 47.04 20.9901 48.66 20.9801C49.05 20.9801 49.48 21.0501 49.73 21.3001ZM49.05 22.4501C49.2 22.6001 49.31 22.8001 49.35 23.0401C49.39 23.0101 49.44 22.9701 49.48 22.9301C49.39 22.7201 49.24 22.5601 49.05 22.4501ZM50.61 24.7001C50.62 24.6301 50.64 24.5501 50.65 24.4801L49.64 24.8301C49.51 25.7101 49.21 26.6901 48.79 27.4501C48.43 28.1201 47.5 29.3301 46.6 28.8301C46.66 28.8801 46.72 28.9301 46.78 28.9601C47.69 29.4801 48.62 28.2701 48.98 27.5901C49.39 26.8301 49.69 25.8501 49.83 24.9701L50.61 24.7001ZM52.24 28.1801C52.03 28.4201 51.77 28.6001 51.46 28.5301C51.41 28.5201 51.37 28.5001 51.33 28.4801C51.43 28.5701 51.54 28.6401 51.66 28.6701C51.81 28.7001 51.95 28.6801 52.07 28.6201C52.15 28.4701 52.22 28.3201 52.24 28.1801ZM57.77 25.1801L57.98 25.1101L57.95 25.6301C57.91 26.5401 57.77 29.1601 58.73 30.0201C57.56 29.3501 57.71 26.4601 57.76 25.4801L57.77 25.1801ZM54.68 21.1301C54.5 20.9901 54.31 20.8701 54.13 20.7501C53.6 23.6501 53.58 26.6001 53.6 29.5301C53.67 29.5201 53.73 29.5001 53.79 29.4801C53.78 26.6101 53.81 23.7201 54.33 20.8801C54.44 20.9701 54.56 21.0501 54.68 21.1301ZM59.55 21.3601C59.19 21.0901 58.83 20.8701 58.43 20.6701C58.13 21.7901 58.07 22.8501 57.93 24.0101L57.9 24.2701L57.65 24.3301C56.92 24.4901 55.97 24.7901 55.35 25.2101L54.96 25.4801L54.95 25.7701L55.55 25.3601C56.17 24.9301 57.12 24.6401 57.85 24.4801L58.1 24.4201L58.13 24.1601C58.27 23.0001 58.33 21.9401 58.63 20.8201C58.95 20.9701 59.25 21.1501 59.55 21.3601ZM59.85 29.7601C59.82 29.7401 59.78 29.7201 59.75 29.7001C59.78 29.7201 59.81 29.7501 59.84 29.7701L59.85 29.7601ZM78.35 21.3401C78.21 21.3201 78.07 21.4501 77.99 21.5601C77.79 21.8201 77.71 22.2101 77.94 22.4901C77.96 22.5201 77.99 22.5401 78.02 22.5701C77.92 22.5101 77.82 22.4301 77.75 22.3501C77.53 22.0701 77.6 21.6901 77.8 21.4201C77.91 21.2701 78.12 21.0901 78.29 21.2701L78.35 21.3401ZM78.97 18.5501C79.35 18.7601 79.59 19.2301 79.56 20.0301C79.54 20.5701 79.41 21.2001 78.9 21.4801L78.66 21.6101L78.5 21.4501L78.7 21.3401C79.22 21.0601 79.35 20.4301 79.36 19.8901C79.39 19.2401 79.24 18.8001 78.97 18.5501ZM71.43 25.5601C71.84 24.8501 72.31 24.1301 72.8 23.4301C74.14 20.8501 76.1 17.5201 78.67 17.5101C79.04 17.5101 79.34 17.5901 79.58 17.7401C79.31 17.5101 78.95 17.3701 78.47 17.3701C75.23 17.3801 72.96 22.6601 71.68 25.0801L71.43 25.5601ZM66.66 21.3801C66.2 20.9901 65.51 20.8501 64.82 20.8601C62.03 20.8701 60.98 24.0401 61.11 26.3801C61.18 27.7201 61.56 29.3101 62.7 30.0501C61.72 29.2601 61.38 27.7901 61.31 26.5201C61.19 24.1801 62.23 21.0201 65.02 21.0001C65.61 21.0001 66.21 21.1001 66.66 21.3801ZM65.79 22.0201C65.94 22.1501 66.05 22.3301 66.11 22.5501C66.27 23.1601 65.91 23.7301 65.4 24.0301C65.17 24.1701 64.93 24.7201 65.25 24.8601C65.27 24.8701 65.3 24.8801 65.32 24.8901C65.21 24.6801 65.41 24.2901 65.59 24.1801C66.1 23.8801 66.46 23.3101 66.3 22.7001C66.22 22.3801 66.03 22.1601 65.79 22.0201ZM69.26 25.5601L68.55 27.0901C68.46 27.2701 68.37 27.4601 68.28 27.6301C67.35 28.9401 66.16 30.0401 64.67 29.6601C64.38 29.5901 64.13 29.4501 63.92 29.2801C64.08 29.3801 64.27 29.4601 64.47 29.5201C66.69 30.1001 68.25 27.3701 69.26 25.5601ZM74.56 25.4101C73.87 25.0901 72.54 25.7501 72.06 26.0901L70.73 27.0301C71.13 26.6101 71.42 26.3701 71.84 26.0601C72.33 25.6901 73.82 24.8501 74.47 25.3401C74.51 25.3501 74.54 25.3801 74.56 25.4101ZM77.9 35.0301C77.75 34.9601 77.61 34.8701 77.48 34.7601C77.62 34.8501 77.77 34.9201 77.92 34.9701C77.92 35.0001 77.91 35.0101 77.9 35.0301ZM73.11 26.3101L73.28 26.2601L73.33 26.6701C73.59 28.8301 74.36 32.4801 75.7 34.2101C75.88 34.4501 76.09 34.6701 76.32 34.8501C76.01 34.6501 75.74 34.3601 75.5 34.0701C74.16 32.3401 73.39 28.6801 73.13 26.5201L73.11 26.3101ZM72.06 19.5001C71.58 19.6501 71.05 19.9601 70.63 20.1801C70.43 20.8401 70.28 21.5301 70.14 22.1901C69.77 23.9101 69.48 25.5701 69.24 27.3001C69.02 28.9101 68.85 30.5301 68.89 32.1501C68.99 32.2501 69.09 32.3301 69.21 32.4001C69.17 32.3601 69.13 32.3301 69.09 32.2901C69.05 30.6701 69.22 29.0401 69.44 27.4401C69.68 25.7101 69.98 24.0501 70.34 22.3301C70.48 21.6601 70.63 20.9701 70.83 20.3201C71.18 20.1401 71.61 19.9001 72.02 19.7301C72.02 19.6501 72.04 19.5701 72.06 19.5001ZM83.48 29.5901L83.87 28.8301L83.28 31.5001C83.11 32.2501 83.17 33.2701 83.76 33.7901C82.99 33.3401 82.9 32.1901 83.08 31.3601L83.48 29.5901ZM83.54 24.1201C83.47 24.0801 83.39 24.0301 83.3 24.0001C80.7 22.8501 78.86 25.5201 78.23 27.7001C77.83 29.1101 77.79 31.4101 79.06 32.4401C77.59 31.5001 77.62 29.0401 78.04 27.5601C78.66 25.3801 80.51 22.7101 83.1 23.8601C83.28 23.9301 83.42 24.0201 83.54 24.1201ZM83.11 25.2901C83.46 25.6001 83.54 26.0601 83.44 26.6001C83.52 26.6001 83.59 26.5701 83.66 26.5301C83.72 25.9901 83.57 25.5601 83.11 25.2901ZM84.45 28.6301L83.58 28.5101C83.29 29.3101 82.83 30.1801 82.28 30.7901C81.75 31.3701 80.79 31.9801 80.04 31.3901C80.02 31.3801 80 31.3601 79.98 31.3401C80.7 31.7601 81.58 31.1901 82.08 30.6401C82.63 30.0401 83.1 29.1601 83.38 28.3601L84.49 28.5101C84.48 28.5601 84.46 28.5901 84.45 28.6301ZM85.29 33.1501C85.26 33.2401 85.23 33.3201 85.19 33.4001C85.06 33.4201 84.93 33.4201 84.8 33.3701C84.7 33.3301 84.61 33.2701 84.54 33.2001C84.56 33.2101 84.58 33.2201 84.6 33.2301C84.84 33.3101 85.07 33.2601 85.29 33.1501ZM91.58 26.8701L91.5 27.2301C89.94 33.9501 84.27 39.93 77.47 41.4001C75.94 41.7301 73.54 41.9001 72.09 40.9401C73.52 42.0601 76.06 41.8901 77.66 41.5501C84.45 40.0801 90.13 34.0901 91.69 27.3801L91.82 26.8201L91.58 26.8701ZM96.11 14.2801C95.52 13.9001 94.75 13.6901 94.16 13.5901C92.12 13.2401 90.19 13.7501 88.59 15.0601C86.82 16.5101 85.65 18.8001 85.44 21.0701C85.26 23.0401 85.87 25.0301 87.32 26.1401C85.74 25.0601 85.06 22.9901 85.25 20.9301C85.46 18.6701 86.64 16.3701 88.4 14.9201C90 13.6101 91.93 13.1001 93.97 13.4501C94.62 13.5601 95.51 13.8001 96.11 14.2801ZM93.49 15.9501C94.16 16.3501 94.44 17.2201 93.83 18.1701C93.73 18.1801 93.63 18.1801 93.53 18.1801C94.2 17.2701 94.04 16.4201 93.49 15.9501ZM100.93 16.8601L101.03 16.6701C99.73 16.8901 97.9 17.4501 96.86 17.9201C96.29 20.7001 95.69 23.9201 92.62 24.9601C91.71 25.2701 90.65 25.4001 89.82 24.8701C90.67 25.5601 91.83 25.4301 92.81 25.1001C95.88 24.0701 96.48 20.8401 97.05 18.0601C98.02 17.6201 99.66 17.1101 100.93 16.8601ZM94.52 25.8201L94.46 26.3401C93.99 30.1801 93.9 33.6901 94.67 37.4701L94.82 37.3901C94.1 33.6901 94.2 30.2501 94.66 26.4801L94.76 25.6501L94.52 25.8201ZM71.05 37.6501C69.7 37.93 69.05 40.1001 69.46 41.2601C69.82 42.2801 70.45 43.0301 71.23 43.5701C70.54 43.0501 69.98 42.3301 69.65 41.4001C69.26 40.3101 69.82 38.3401 71 37.8701C71.02 37.8001 71.03 37.7301 71.05 37.6501ZM79.27 56.0401C78.07 55.2201 76.65 54.9701 75.13 54.9901L74.7 55L74.72 54.8601H74.93C76.54 54.8301 78.04 55.1001 79.27 56.0401ZM80.65 49.5701L80.85 49.6101V57.57L80.65 57.3501V49.5701ZM78.39 57.07C79.39 57.76 80.18 58.8001 80.81 60.0501L80.85 60.1301V61.2401C80.85 61.6901 80.73 62.14 80.53 62.5401C80.44 62.5401 80.35 62.5301 80.26 62.5301C80.51 62.1001 80.65 61.6001 80.65 61.1001V59.9901L80.61 59.9101C80.02 58.7401 79.29 57.76 78.39 57.07ZM76.64 62.07C76.38 61.98 76.14 61.85 75.93 61.68C76.16 61.8301 76.42 61.94 76.71 62C76.68 62.0201 76.66 62.05 76.64 62.07ZM83.39 48.0801C83.2 48.0701 83.01 48.0601 82.82 48.0501C82.23 48.0301 81.64 48.0201 81.05 48.0201C80.63 48.0201 80.22 48.0201 79.8 48.0201C79.44 48.0201 79.07 48.0201 78.71 48.0101C77.24 47.9901 75.71 47.9201 74.25 48.0001C74.07 48.0101 73.89 48.0101 73.7 48.0201C74.32 48.6201 74.55 49.4601 74.05 50.4001C72.92 52.4701 72.2 54.8001 72.01 57.1601C71.9 58.6501 71.78 61.6501 73.3 62.6201C71.98 61.5301 72.09 58.7301 72.2 57.3001C72.38 54.9401 73.11 52.6101 74.24 50.5401C74.75 49.6101 74.51 48.7701 73.89 48.1601C74.07 48.1501 74.25 48.1501 74.44 48.1401C75.9 48.0701 77.44 48.1301 78.91 48.1501C79.27 48.1501 79.63 48.1601 80 48.1601C80.42 48.1601 80.83 48.1601 81.25 48.1601C81.84 48.1601 82.43 48.1701 83.02 48.1901C83.12 48.1901 83.22 48.2001 83.32 48.2001C83.34 48.1701 83.36 48.1301 83.39 48.0801ZM69.69 48.2101C69.46 48.0701 69.17 47.9901 68.8 47.9601C65.71 47.7401 63.99 51.6101 62.77 53.8601L62.09 55.1101V54.6101L62.57 53.7201C63.79 51.4701 65.52 47.6001 68.6 47.8201C69.09 47.8501 69.44 47.9801 69.69 48.2101ZM67.74 49.6301L67.59 50.1201C67.42 50.6801 67.54 51.3401 68.07 51.6401C67.71 51.3101 67.64 50.7501 67.79 50.2601L68.02 49.5001L67.74 49.6301ZM64.97 54.7701C64.95 54.7101 64.93 54.6401 64.92 54.5801L63.4 55.1001L64.97 54.7701ZM70.75 60.7701L70.8 60.6501C70.42 60.6301 70.04 60.5701 69.67 60.4501C69.16 60.2901 68.69 60.0601 68.26 59.7601C68.75 60.1301 69.28 60.4201 69.87 60.6001C70.16 60.6801 70.45 60.7401 70.75 60.7701ZM63.03 55.4601L63.16 55.8901C63.81 57.9601 65.12 60.5901 67.07 61.9401C65.22 60.5501 63.98 58.0201 63.35 56.0301L63.12 55.3001L63.03 55.4601ZM62.12 47.9701C61.3 47.8701 59.96 47.84 59.13 47.9201C59.25 48.2601 59.25 48.6701 59.27 49.0301V49.0401L59.31 60.8801C59.31 61.4201 59.29 61.8901 59.1 62.3401L59.35 62.3501C59.49 61.9401 59.51 61.5101 59.51 61.0201L59.47 49.1801V49.1701C59.45 48.8201 59.45 48.4101 59.33 48.0701C60.07 48.0001 61.24 48.0101 62.07 48.0901C62.08 48.0501 62.1 48.0101 62.12 47.9701ZM53.66 57.25L53.86 57.0901V60.0601C53.86 60.6901 53.82 61.6701 53.51 62.3801C53.42 62.3801 53.34 62.37 53.26 62.3601C53.62 61.64 53.67 60.5901 53.67 59.9201V57.25H53.66ZM48.79 48.1001C48.81 48.0601 48.82 48.0201 48.84 47.9801C47.72 47.8801 46.47 47.8501 45.36 47.9601C45.7 48.7701 45.82 50.0801 45.81 50.6501C45.79 51.4901 45.73 52.3201 45.66 53.1601C45.57 54.1701 45.55 55.3501 45.83 56.3301C46.09 57.2701 46.58 57.9201 47.2 58.3301C46.68 57.9201 46.26 57.3101 46.02 56.4701C45.74 55.48 45.76 54.3101 45.85 53.3001C45.92 52.4701 45.98 51.6301 46 50.7901C46.02 50.2201 45.89 48.9101 45.55 48.1001C46.59 48.0001 47.74 48.0201 48.79 48.1001ZM53.4 47.9901C53.63 48.7201 53.63 49.7801 53.66 50.3701C53.73 51.8401 53.68 53.3201 53.66 54.8001V54.8901L53.62 54.9701C52.82 56.39 50.3 57.6401 48.95 56.8001C50.25 57.9001 52.98 56.6001 53.82 55.1101L53.86 55.0301V54.9401C53.88 53.4701 53.93 51.9901 53.86 50.5101C53.83 49.9101 53.84 48.8601 53.6 48.1301C54.44 48.0601 55.45 48.0201 56.33 48.0701C56.35 48.0301 56.37 47.9901 56.39 47.9501C55.45 47.8701 54.33 47.91 53.4 47.9901ZM41.06 55.0101C41.01 53.5401 40.7 51.9101 39.84 50.6901C39.61 50.3701 39.34 50.0701 39.03 49.8301C39.42 50.09 39.76 50.4401 40.04 50.8301C40.9 52.0501 41.21 53.6901 41.26 55.1501C41.31 56.6401 41.12 58.3501 40.33 59.6501C39.78 60.5501 38.92 61.2501 37.82 61.2701C37.15 61.2801 36.56 61.0301 36.05 60.6401C36.51 60.9501 37.04 61.1401 37.62 61.1301C38.71 61.1201 39.58 60.4101 40.13 59.5101C40.92 58.2101 41.11 56.5001 41.06 55.0101ZM41.16 48.9801C40.07 48.1501 38.67 47.6901 37 47.7401C33.03 47.8601 31.16 51.9201 31.2 55.4101C31.23 57.9801 32.19 60.2801 34.02 61.5401C32.32 60.25 31.42 58.0301 31.39 55.5501C31.35 52.0501 33.22 48.0001 37.19 47.8801C38.77 47.8301 40.1 48.2401 41.16 48.9801ZM25.62 54.68C26.64 55.46 27.28 56.6101 27.12 58.0901C27 59.2801 26.47 60.2101 25.33 60.6501C24.33 61.0301 23.08 60.9401 22.02 60.8501L21.89 60.8401V60.9601L22.22 60.9801C23.28 61.0801 24.53 61.1701 25.53 60.7901C26.67 60.3501 27.19 59.4201 27.32 58.2301C27.48 56.6601 26.75 55.46 25.62 54.68ZM27.81 53.7701C26.33 52.6501 24.16 52.2401 22.01 51.9401L21.89 51.9201V52.0401L22.2 52.0801C24.26 52.3701 26.34 52.7601 27.81 53.7701ZM28.87 48.5701C28.39 48.2701 27.72 48.1601 27.21 48.1301C24.69 47.9601 22.11 48.5 19.58 48.3301L19.17 48.3201C19.4 48.9701 19.46 49.8701 19.5 50.3301C19.61 51.8201 19.61 53.3501 19.63 54.8501C19.64 56.5601 19.63 58.3201 19.47 60.0301C19.43 60.4901 19.35 61.5001 19.09 62.2301L18.85 62.2101C19.15 61.4801 19.24 60.3701 19.28 59.8901C19.44 58.1901 19.46 56.4201 19.44 54.7101C19.43 53.2101 19.43 51.6801 19.31 50.1901C19.27 49.7201 19.21 48.8301 18.98 48.1801L19.39 48.1901C21.92 48.3601 24.5 47.8201 27.02 47.9901C27.6 48.0201 28.39 48.1601 28.87 48.5701ZM27.66 51.5401C27.76 51.5301 27.85 51.5201 27.94 51.4901C28.17 50.8601 27.98 50.2701 27.35 49.8701C27.87 50.3001 27.97 50.9101 27.66 51.5401ZM47.53 3.90005C48.35 4.39005 48.26 5.44005 47.53 6.41005C47 7.12005 46.27 7.72005 45.49 8.12005L44.96 8.39005V8.15005L45.29 7.98005C46.08 7.58005 46.8 6.98005 47.33 6.27005C48 5.38005 48.14 4.43005 47.53 3.90005ZM47.69 7.55005C48.47 8.10005 49.04 8.73005 48.99 9.74005C48.95 10.5001 48.58 11.2101 47.91 11.6001C47.1 12.0801 46.17 11.9201 45.3 11.8401L44.97 11.8101V11.6801L45.1 11.6901C45.98 11.7701 46.91 11.9301 47.72 11.4501C48.38 11.0601 48.76 10.3501 48.8 9.59005C48.85 8.67005 48.37 8.06005 47.69 7.55005ZM49.17 7.04005C48.84 6.82005 48.47 6.70005 48.09 6.56005L48.17 6.47005L48.45 6.60005C48.71 6.72005 48.95 6.87005 49.17 7.04005ZM43.28 2.98005H43.16C43.28 3.42005 43.32 3.93005 43.34 4.24005C43.42 5.27005 43.42 6.33005 43.43 7.37005C43.44 8.55005 43.43 9.77005 43.32 10.9501C43.29 11.2801 43.24 11.9401 43.06 12.4501C43.14 12.4601 43.22 12.4601 43.3 12.4601C43.44 11.9701 43.49 11.3901 43.52 11.0801C43.63 9.90005 43.64 8.68005 43.63 7.50005C43.62 6.46005 43.62 5.41005 43.54 4.37005C43.52 4.06005 43.48 3.54005 43.36 3.11005H43.48C44.89 3.20005 46.28 2.85005 47.68 2.94005C48.11 2.97005 48.73 3.06005 49.17 3.32005C48.74 2.94005 47.99 2.83005 47.49 2.80005C46.09 2.72005 44.69 3.07005 43.28 2.98005ZM67.79 3.32005C67.09 2.86005 66.19 2.69005 65.35 2.82005C62.99 3.19005 61.99 4.79005 61.71 7.08005C61.49 8.87005 61.7 10.9601 63.17 12.1001C61.53 11.0001 61.29 8.80005 61.52 6.93005C61.8 4.64005 62.8 3.05005 65.16 2.68005C66.08 2.53005 67.07 2.75005 67.79 3.32005ZM67.07 4.05005C67.2 4.15005 67.31 4.27005 67.42 4.39005L67.66 4.68005L67.36 4.91005C66.75 5.36005 66.46 6.12005 66.7 6.85005C66.78 7.09005 66.94 7.27005 67.14 7.38005C67.03 7.28005 66.94 7.14005 66.89 6.99005C66.65 6.26005 66.94 5.50005 67.55 5.05005L67.85 4.82005L67.61 4.53005C67.45 4.34005 67.27 4.18005 67.07 4.05005ZM68.46 10.3001C68.4 10.2201 68.35 10.1501 68.3 10.0901C67.87 11.0601 67.25 11.7801 66.05 11.8101C65.45 11.8301 64.98 11.7001 64.61 11.4601C65.01 11.7901 65.54 11.9701 66.25 11.9501C67.41 11.9201 68.03 11.2401 68.46 10.3001ZM56.97 8.39005C56.17 7.85005 55.22 7.69005 54.21 7.71005L53.78 7.72005L53.8 7.58005H54.01C55.11 7.56005 56.14 7.74005 56.97 8.39005ZM58.07 3.75005L58.27 3.79005V9.66005L58.07 9.44005V3.75005ZM56.49 8.92005C57.21 9.41005 57.77 10.1401 58.22 11.0301L58.26 11.1101V11.9001C58.26 12.1601 58.21 12.4101 58.12 12.6401C58.03 12.6401 57.95 12.6401 57.87 12.6301C58 12.3601 58.07 12.0501 58.07 11.7501V10.9601L58.03 10.8801C57.62 10.0901 57.12 9.41005 56.49 8.92005ZM54.97 12.4801C54.86 12.4201 54.76 12.3601 54.67 12.2801C54.78 12.3501 54.89 12.4001 55.02 12.4501C55 12.4601 54.98 12.4701 54.97 12.4801ZM53.41 2.86005C53.74 3.29005 53.83 3.85005 53.51 4.45005C52.74 5.87005 52.24 7.46005 52.12 9.07005C52.04 10.0501 51.96 12.1501 53 12.7501C52.16 12.0101 52.25 10.1301 52.32 9.21005C52.44 7.60005 52.94 6.01005 53.71 4.59005C54.04 3.99005 53.95 3.43005 53.61 3.00005C53.66 3.00005 53.7 3.00005 53.75 2.99005C55 2.93005 56.31 3.00005 57.57 3.00005C57.86 3.00005 58.14 3.00005 58.43 3.00005C58.78 3.00005 59.21 2.99005 59.62 3.01005C59.63 2.97005 59.65 2.92005 59.67 2.88005C59.18 2.85005 58.65 2.86005 58.23 2.86005C57.94 2.86005 57.66 2.86005 57.37 2.86005C56.11 2.86005 54.8 2.78005 53.55 2.85005C53.51 2.85005 53.46 2.86005 53.41 2.86005ZM41.34 11.6701L41.38 11.5601C40.79 11.5101 40.25 11.2901 39.77 10.9701C40.24 11.3201 40.76 11.5701 41.34 11.6701ZM36.28 7.80005L36.39 8.14005C36.83 9.54005 37.73 11.3601 39.07 12.2801C37.83 11.3301 37 9.62005 36.58 8.29005L36.47 7.95005L37.46 7.61005C37.44 7.55005 37.42 7.48005 37.4 7.42005L36.28 7.80005ZM40.75 2.99005C40.61 2.92005 40.44 2.87005 40.23 2.86005C38.17 2.71005 36.99 5.37005 36.18 6.87005L35.5 8.12005V7.62005L35.98 6.73005C36.79 5.23005 37.97 2.57005 40.03 2.72005C40.36 2.74005 40.59 2.84005 40.75 2.99005ZM39.6 3.74005L39.45 4.24005C39.34 4.59005 39.41 5.01005 39.77 5.18005C39.58 4.98005 39.56 4.66005 39.64 4.38005L39.87 3.62005L39.6 3.74005ZM33.65 2.78005C33.7 2.99005 33.7 3.22005 33.71 3.44005V3.45005L33.74 11.6201C33.74 11.9501 33.73 12.2401 33.64 12.5201L33.87 12.5301C33.92 12.2901 33.94 12.0401 33.93 11.7701L33.9 3.60005V3.59005C33.89 3.37005 33.88 3.14005 33.83 2.93005C34.26 2.90005 34.86 2.90005 35.35 2.94005C35.36 2.90005 35.37 2.86005 35.39 2.82005C34.89 2.76005 34.16 2.74005 33.65 2.78005Z" fill="#73500D"/>
</svg>
