<svg width="166" height="35" viewBox="0 0 166 35" fill="none" xmlns="http://www.w3.org/2000/svg">
<path fill-rule="evenodd" clip-rule="evenodd" d="M47.8119 0.0715133C47.7141 0.107184 47.5265 0.219858 47.3949 0.321877C47.1452 0.51562 46.807 0.619595 46.4248 0.620109C46.1034 0.620521 45.8587 0.706789 45.6302 0.900172C45.51 1.00188 45.2597 1.1299 45.0288 1.20782C44.7769 1.29281 44.5456 1.41459 44.3921 1.54317C44.1578 1.73928 44.0454 1.79147 43.6189 1.9025C43.4578 1.94445 43.2743 2.09454 42.7501 2.61313C41.6789 3.67301 41.489 3.90685 41.3434 4.3455C41.262 4.59082 41.1381 4.82378 40.9937 5.00347C40.8337 5.20247 40.7518 5.3644 40.7058 5.57261C40.6704 5.73269 40.5914 5.93477 40.5301 6.02176C40.4688 6.1087 40.3501 6.27608 40.2663 6.3937L40.1138 6.60757V9.34442V12.0813L40.2663 12.2951C40.3501 12.4128 40.4695 12.5811 40.5315 12.6693C40.5935 12.7574 40.6715 12.9697 40.7048 13.1412C40.7517 13.3823 40.8166 13.5165 40.9914 13.734C41.14 13.9188 41.2616 14.1482 41.3465 14.4042L41.4757 14.7934L42.7291 16.0632L43.9826 17.3329L44.3816 17.4688C44.6433 17.5579 44.8641 17.6758 45.0226 17.8113C45.1929 17.9568 45.3595 18.0425 45.5855 18.1008C46.0294 18.2154 46.1289 18.2761 46.4499 18.6273C46.6479 18.8439 46.7473 19.0027 46.7884 19.1677C46.8287 19.3299 46.8479 20.4071 46.8511 22.6858C46.8537 24.4922 46.8708 26.5049 46.8892 27.1584L46.9227 28.3467L47.0751 28.5605C47.1589 28.6781 47.2783 28.8465 47.3403 28.9346C47.4024 29.0227 47.48 29.2329 47.5127 29.4016C47.557 29.6297 47.6286 29.7819 47.792 29.995C48.0069 30.2754 48.0545 30.38 48.166 30.8191C48.2122 31.0007 48.3602 31.1767 49.088 31.9152C50.0357 32.8767 50.1814 32.9935 50.6265 33.1486C50.808 33.2119 51.02 33.339 51.1655 33.4719C52.0503 34.2801 52.1369 34.3289 52.7834 34.3831C53.3261 34.4285 53.463 34.4701 53.6835 34.6567C54.065 34.9793 54.0466 34.9763 55.7894 34.9945C57.5496 35.0129 57.6639 34.9988 57.9997 34.7232C58.3258 34.4554 58.4281 34.4199 58.9773 34.3836C59.4419 34.3528 59.5194 34.3332 59.7009 34.2002C59.8127 34.1183 59.9744 34.0006 60.0603 33.9385C60.1461 33.8764 60.3456 33.7963 60.5036 33.7605C60.7092 33.7139 60.869 33.6309 61.0655 33.4689C61.2442 33.3214 61.4729 33.197 61.7206 33.1127C62.0858 32.9883 62.127 32.9568 62.7504 32.3253C63.3837 31.6837 63.4029 31.6576 63.5331 31.2618C63.6517 30.901 63.7044 30.8184 64.0089 30.5164C64.415 30.1134 64.5036 30.0621 64.7925 30.0624C65.0774 30.0626 65.2125 30.1528 65.8043 30.7381C66.6501 31.5746 66.8396 31.7232 67.2414 31.8647C67.6039 31.9924 67.8128 32.1478 68.4968 32.7988C68.6324 32.9279 68.8201 33.0296 69.091 33.121C69.3087 33.1945 69.5661 33.3205 69.6629 33.401C69.9623 33.6499 70.1539 33.7206 70.6421 33.7623C71.1401 33.8049 71.2469 33.8443 71.5666 34.1034C71.8652 34.3453 72.0416 34.3859 72.7953 34.3859C73.5516 34.3859 73.6943 34.4233 74.0457 34.7134C74.4016 35.0072 74.4495 35.012 76.8765 34.9941C79.2983 34.9763 79.1997 34.9885 79.5921 34.6567C79.8365 34.45 79.9638 34.4212 80.789 34.3864C81.6313 34.3508 81.7374 34.3214 82.1101 34.0205C82.2148 33.936 82.4505 33.8332 82.6833 33.7705C82.9832 33.6896 83.1434 33.6105 83.3472 33.4423C83.505 33.3122 83.7193 33.1923 83.8665 33.1519C84.1839 33.0647 84.376 32.968 84.5981 32.7833C84.695 32.7028 84.9484 32.5781 85.1613 32.5063C85.5126 32.3878 85.5925 32.3329 86.0268 31.9118C86.564 31.3909 86.6432 31.3382 87.0508 31.2304C87.2984 31.1649 87.4119 31.0874 87.8487 30.6853C88.2872 30.2817 88.3827 30.2166 88.5363 30.2166C88.7332 30.2166 88.8077 30.2776 89.7828 31.2382C90.1895 31.6389 90.3646 31.7763 90.5195 31.8166C90.9843 31.9376 91.0884 32.0007 91.6195 32.4837C92.1198 32.9386 92.2146 33.0024 92.5687 33.1219C92.785 33.1949 93.0413 33.3205 93.1381 33.401C93.4376 33.6499 93.6291 33.7206 94.1173 33.7623C94.6153 33.8049 94.7222 33.8443 95.0418 34.1034C95.3397 34.3447 95.5173 34.3859 96.2613 34.3859C96.9894 34.3859 97.1835 34.4274 97.4554 34.6417C97.9055 34.9963 97.7509 34.9778 100.275 34.9778C102.788 34.9778 102.672 34.9912 103.067 34.6567C103.312 34.45 103.439 34.4212 104.264 34.3864C105.106 34.3508 105.213 34.3214 105.585 34.0206C105.685 33.9405 105.93 33.8307 106.14 33.7721C106.417 33.695 106.582 33.611 106.764 33.4555C106.94 33.3054 107.129 33.2076 107.413 33.1193C107.667 33.0402 107.889 32.9307 108.02 32.8196C108.141 32.7176 108.392 32.5887 108.621 32.5109C108.979 32.3896 109.059 32.3349 109.498 31.9132C110.042 31.3901 110.121 31.3375 110.526 31.2304C110.774 31.1649 110.887 31.0874 111.324 30.6853C111.762 30.2817 111.858 30.2166 112.012 30.2166C112.208 30.2166 112.283 30.2776 113.258 31.2382C113.665 31.6389 113.84 31.7763 113.995 31.8166C114.46 31.9376 114.564 32.0007 115.095 32.4837C115.595 32.9386 115.69 33.0024 116.044 33.1219C116.26 33.1949 116.517 33.3205 116.613 33.401C116.911 33.6483 117.105 33.7206 117.593 33.7647C118.114 33.8119 118.252 33.8551 118.469 34.039C118.796 34.3158 118.928 34.3511 119.762 34.3864C120.587 34.4212 120.714 34.45 120.959 34.6567C121.354 34.9912 121.239 34.9778 123.751 34.9778C126.263 34.9778 126.147 34.9912 126.543 34.6567C126.786 34.4512 126.913 34.4216 127.714 34.3863C128.528 34.3504 128.64 34.3187 129.01 34.0205C129.115 33.936 129.35 33.8332 129.583 33.7705C129.883 33.6896 130.043 33.6105 130.247 33.4423C130.405 33.3122 130.619 33.1923 130.766 33.1519C131.084 33.0647 131.276 32.968 131.498 32.7833C131.595 32.7028 131.85 32.5774 132.066 32.5048C132.361 32.405 132.524 32.3117 132.728 32.124C133.49 31.4237 133.584 31.3528 133.844 31.2745C133.99 31.2306 134.139 31.1946 134.176 31.1946C134.212 31.1946 134.455 30.9986 134.717 30.7591C134.978 30.5195 135.254 30.2996 135.33 30.2704C135.541 30.189 135.737 30.3019 136.23 30.7888C136.765 31.3179 137.221 31.7231 137.334 31.7708C137.381 31.7904 137.552 31.8436 137.714 31.8889C137.971 31.9606 138.082 32.0385 138.564 32.4875C138.908 32.8075 139.182 33.0206 139.285 33.0481C139.377 33.0725 139.547 33.1175 139.663 33.148C139.779 33.1784 139.985 33.2964 140.12 33.41C140.4 33.645 140.748 33.7682 141.13 33.7682C141.457 33.7682 141.686 33.843 141.916 34.024C142.292 34.3202 142.4 34.3505 143.212 34.3863C144.012 34.4216 144.14 34.4512 144.383 34.6567C144.466 34.7263 144.613 34.827 144.711 34.8805C144.882 34.9743 145.127 34.9784 151.443 34.9933C156.28 35.0046 158.051 34.9931 158.201 34.9494C158.313 34.9167 158.501 34.8105 158.619 34.7134C158.921 34.4636 159.138 34.3859 159.534 34.3859C159.996 34.3859 160.178 34.3253 160.475 34.0716C160.628 33.9407 160.843 33.8206 161.028 33.7624C161.482 33.619 161.578 33.5532 162.344 32.8533C162.495 32.715 162.699 32.5941 162.892 32.528C163.288 32.3926 163.412 32.2616 163.552 31.8297C163.654 31.5159 163.721 31.419 164.173 30.9372C164.636 30.4434 164.691 30.3634 164.807 30.0107C164.878 29.7984 165.015 29.523 165.112 29.3988C165.21 29.2744 165.313 29.0776 165.341 28.9612C165.463 28.4593 165.504 28.3632 165.699 28.1144C165.813 27.97 165.927 27.7761 165.953 27.6835C166.016 27.4638 166.016 23.7558 165.953 23.5361C165.927 23.4435 165.813 23.2496 165.699 23.1052C165.504 22.8564 165.463 22.7603 165.341 22.2584C165.313 22.142 165.21 21.9451 165.112 21.8208C165.015 21.6966 164.877 21.4205 164.807 21.2074C164.727 20.9636 164.604 20.7279 164.477 20.5719C164.35 20.4168 164.236 20.1972 164.171 19.9853C164.104 19.7635 163.991 19.5523 163.846 19.3731C163.695 19.1878 163.603 19.012 163.56 18.8287C163.487 18.5102 163.391 18.306 163.22 18.0977C163.151 18.0143 163.07 17.8869 163.039 17.8146C163.005 17.7356 162.971 17.1171 162.954 16.2675C162.923 14.714 162.931 14.7603 162.573 14.2841C162.395 14.0485 162.292 13.6943 162.291 13.3182C162.291 12.9939 162.209 12.7538 162.012 12.5036C161.902 12.3643 161.787 12.1213 161.709 11.8666C161.622 11.5795 161.522 11.3789 161.379 11.2043C161.25 11.047 161.144 10.8461 161.095 10.6639C161.051 10.5044 161 10.3338 160.981 10.2849C160.904 10.0922 158.801 7.91487 156.828 5.9849C156.121 5.29393 155.876 5.0848 155.726 5.04553C155.62 5.01773 155.444 4.97151 155.335 4.94279C155.226 4.91412 155.026 4.79774 154.891 4.68424C154.755 4.57069 154.553 4.4539 154.441 4.42466C154.014 4.31292 153.903 4.26108 153.668 4.06348C153.391 3.83123 153.043 3.70816 152.661 3.70816C152.335 3.70816 152.105 3.63342 151.875 3.45239C151.439 3.1083 151.502 3.11865 149.64 3.09049C147.754 3.06197 147.981 3.10207 147.376 2.69158C147.146 2.53525 147.101 2.52429 146.695 2.5246C146.164 2.52491 145.95 2.58112 145.695 2.78788C145.587 2.87544 145.441 2.97241 145.371 3.0033C145.301 3.03449 144.759 3.07284 144.152 3.08951C142.979 3.12173 142.909 3.13697 142.554 3.43736C142.333 3.6239 142.197 3.66554 141.654 3.71099C141.139 3.75413 140.939 3.8266 140.663 4.06976C140.575 4.14753 140.323 4.27194 140.103 4.34617C139.844 4.43352 139.616 4.55365 139.457 4.68686C139.304 4.81493 139.103 4.92276 138.925 4.97243C138.469 5.09947 138.534 5.05412 137.616 5.88093C137.416 6.06062 137.255 6.15137 136.996 6.2313C136.79 6.29446 136.584 6.39828 136.499 6.48156C136.212 6.76008 135.584 7.29684 135.477 7.35506C135.31 7.44575 134.949 7.42619 134.777 7.31712C134.693 7.26395 134.406 7.0035 134.138 6.73826C133.288 5.89524 132.465 5.12485 132.374 5.08794C132.326 5.06828 132.159 5.01655 132.003 4.97295C131.83 4.92493 131.615 4.81061 131.457 4.68295C131.313 4.56704 131.121 4.45235 131.03 4.42806C130.939 4.40376 130.769 4.35893 130.653 4.32841C130.537 4.29794 130.331 4.17996 130.196 4.06636C129.916 3.83139 129.569 3.70816 129.186 3.70816C128.86 3.70816 128.63 3.63342 128.4 3.45239C127.975 3.11741 127.987 3.11978 126.495 3.0892C125.664 3.07222 125.073 3.03861 124.996 3.00412C124.926 2.97277 124.78 2.87508 124.671 2.78701C124.426 2.58894 124.054 2.47282 123.664 2.47282C123.193 2.47282 123.047 2.38331 122.131 1.53241C122.016 1.42566 121.83 1.31432 121.718 1.28503C121.293 1.17349 121.183 1.12253 120.935 0.92246C120.653 0.694693 120.454 0.619801 120.133 0.619801C119.751 0.619801 119.413 0.515826 119.163 0.321877C118.762 0.0112903 118.73 0.00665774 116.942 0.00665774C115.154 0.00665774 115.122 0.0112903 114.721 0.321877C114.471 0.515826 114.132 0.619801 113.751 0.619801C113.428 0.619801 113.231 0.694848 112.944 0.92632C112.787 1.05315 112.571 1.16752 112.399 1.21544C111.995 1.32812 111.976 1.33821 111.651 1.62352C111.327 1.90863 109.327 3.91668 109.165 4.11994C109.109 4.19072 108.933 4.37026 108.775 4.51886C108.417 4.85595 108.265 4.8715 107.901 4.60893C107.763 4.50985 107.625 4.42878 107.593 4.42878C107.402 4.42878 106.983 4.2442 106.772 4.06652C106.49 3.82969 106.144 3.70816 105.752 3.70816C105.43 3.70816 105.201 3.61973 104.91 3.3828C104.582 3.1153 104.451 3.09049 103.366 3.09049C102.279 3.09049 102.185 3.07088 101.811 2.76513C101.474 2.49058 101.367 2.47282 100.048 2.47282C98.7074 2.47282 98.4772 2.51065 98.1359 2.78701C98.0271 2.87508 97.881 2.97236 97.8111 3.00319C97.7412 3.03402 97.2039 3.07289 96.617 3.08951C95.4537 3.12251 95.4417 3.12534 94.9911 3.47381C94.8682 3.56883 94.6504 3.67306 94.4996 3.70899C94.1743 3.78645 93.9834 3.87967 93.7464 4.07671C93.6465 4.15973 93.3872 4.28044 93.1538 4.35255C92.8844 4.43578 92.666 4.54238 92.5314 4.65634C92.4104 4.75877 92.1598 4.88756 91.9299 4.96544C91.5719 5.08676 91.4916 5.14147 91.0531 5.56319C90.5081 6.08723 90.4303 6.13875 90.0205 6.24716C89.7647 6.31484 89.6619 6.38613 89.2089 6.81006C88.6063 7.37405 88.5424 7.41425 88.249 7.41399C87.9639 7.41373 87.8284 7.32314 87.2386 6.73826C86.3884 5.89524 85.565 5.12485 85.4748 5.08794C85.4268 5.06828 85.2595 5.01655 85.103 4.97295C84.9306 4.92493 84.7155 4.81061 84.5572 4.68295C84.4135 4.56704 84.2214 4.45235 84.1304 4.42806C84.0393 4.40376 83.8697 4.35893 83.7535 4.32841C83.6373 4.29794 83.4315 4.17996 83.2962 4.06636C83.0143 3.82969 82.6686 3.70816 82.2771 3.70816C81.9498 3.70816 81.7228 3.61875 81.4269 3.37318C81.305 3.27193 81.1288 3.16688 81.0355 3.13975C80.9422 3.11267 80.4363 3.09049 79.9112 3.09049C78.8556 3.09049 78.7572 3.06933 78.3861 2.76297C78.0453 2.48167 77.9142 2.46268 76.4446 2.48157C75.0125 2.5 74.9916 2.50386 74.6182 2.81969C74.3623 3.03613 74.2405 3.05837 73.1418 3.08951C71.9888 3.12225 71.944 3.13249 71.5412 3.45445C71.2901 3.6552 71.0202 3.71918 70.7317 3.6464C70.529 3.59528 70.3965 3.48405 69.6898 2.77239C69.0273 2.1051 68.8426 1.94713 68.6736 1.90312C68.2488 1.79255 68.1431 1.74324 67.8699 1.52835C67.6796 1.37856 67.4995 1.28756 67.3076 1.24406C67.1523 1.20885 66.955 1.12928 66.8691 1.0672C66.7833 1.00513 66.6235 0.888745 66.5142 0.808551C66.3428 0.682855 66.2453 0.656603 65.8077 0.618102C65.2465 0.568688 65.0562 0.504656 64.7644 0.266801C64.6562 0.178628 64.4847 0.0831462 64.3833 0.0545788C64.0883 -0.0283952 48.0408 -0.0119754 47.8119 0.0715133ZM23.316 0.611977C22.5972 0.644507 22.5684 0.650221 22.3638 0.799955C22.2477 0.884885 22.0815 1.00579 21.9945 1.06864C21.9075 1.13149 21.7 1.21009 21.5335 1.24329C21.3084 1.28812 21.1581 1.3607 20.9478 1.52613C20.6709 1.74396 20.5676 1.79204 20.1341 1.90513C19.9465 1.95402 19.673 2.21087 17.9053 3.99775C16.502 5.41644 15.8266 6.06396 15.6802 6.13134C15.4222 6.24999 14.8099 6.26419 14.5574 6.15734C14.4626 6.11719 14.2726 5.99432 14.1351 5.88422C13.9691 5.75132 13.7897 5.66243 13.6009 5.61965C13.4446 5.58424 13.2465 5.50446 13.1606 5.44238C13.0748 5.3803 12.9107 5.26089 12.7959 5.17694C12.591 5.02694 12.573 5.0237 11.7675 4.99199C10.8805 4.9571 10.737 4.92045 10.3945 4.64136C9.99825 4.31832 9.60806 4.32321 9.19242 4.65639C9.07164 4.75321 8.87982 4.8576 8.7661 4.88833C8.65244 4.91901 8.09818 4.96281 7.53436 4.98561L6.50928 5.02705L6.30268 5.17827C6.18901 5.26151 6.02489 5.38097 5.93785 5.44382C5.85085 5.50667 5.64257 5.58542 5.475 5.61883C5.24954 5.66376 5.10229 5.73428 4.90859 5.89004C4.76063 6.0091 4.48838 6.15667 4.28198 6.22976C3.88158 6.37157 3.64276 6.55908 2.89765 7.31671C1.99802 8.23148 1.91591 8.34035 1.75707 8.8297C1.71108 8.97125 1.5933 9.18928 1.49523 9.31421C1.38304 9.45715 1.27044 9.69572 1.19153 9.95788C1.12131 10.191 1.00195 10.4536 0.920343 10.5543C0.672024 10.8608 0.604698 11.0505 0.558916 11.5726C0.508612 12.146 0.474466 12.2544 0.257803 12.529C0.0375825 12.8081 -0.00210173 13.0035 8.31984e-05 13.7968C0.00226812 14.5635 0.0447471 14.7493 0.28956 15.0628C0.500329 15.3328 0.555918 15.574 0.556223 16.2195C0.556578 16.8693 0.639758 17.1943 0.886045 17.5081C0.985078 17.6343 1.12176 17.9104 1.19488 18.1319C1.27644 18.379 1.38619 18.5933 1.48476 18.6981C1.99065 19.2362 2.28186 19.6445 2.40858 19.9935C2.53907 20.3528 2.56579 20.3841 3.85094 21.6835C5.10945 22.9559 5.17378 23.0125 5.50604 23.1392C5.75482 23.234 5.9509 23.3608 6.20537 23.5911C6.46883 23.8296 10.6655 28.0081 10.8815 28.2471C11.1484 28.5423 13.9476 31.3656 14.3907 31.7865C15.0742 32.4358 15.2635 32.5355 15.5971 32.4219C15.8599 32.3325 16.5121 31.7138 18.7079 29.4707C19.6504 28.5079 20.4392 27.7044 20.4609 27.6852C20.4826 27.666 22.1776 25.9588 24.2275 23.8915L27.9547 20.1329L28.3585 19.9967L28.7622 19.8605L30.6602 17.9378L32.5582 16.0151L32.6935 15.6037C32.8304 15.1873 33.039 14.8953 33.5895 14.3497C33.7423 14.1983 33.8125 14.0639 33.9125 13.7318C33.9848 13.4918 34.1037 13.2291 34.1861 13.1274C34.5463 12.6828 34.5245 12.9069 34.5245 9.65326C34.5245 6.40075 34.5461 6.62347 34.1873 6.18065C34.1079 6.08255 33.9837 5.82261 33.9116 5.60303C33.8296 5.35354 33.7208 5.14044 33.6217 5.03503C33.1634 4.54768 32.8164 4.07666 32.7393 3.83756C32.6086 3.43217 32.5409 3.32623 32.1851 2.96927C31.899 2.68231 31.7969 2.61612 31.4668 2.5037C31.1776 2.40518 31.0165 2.31145 30.8189 2.12677C29.9635 1.32734 29.8313 1.24535 29.389 1.24036C29.0189 1.23619 28.6443 1.10833 28.4025 0.903673C28.287 0.805926 28.1081 0.702105 28.0049 0.672972C27.7782 0.60894 24.3639 0.56457 23.316 0.611977ZM26.1383 6.30331C26.2332 6.34346 26.4288 6.47086 26.5731 6.58641C26.7175 6.70197 26.8637 6.79653 26.898 6.79653C26.9323 6.79653 27.0838 6.83364 27.2345 6.87893C27.4525 6.94456 27.5844 7.03603 27.8803 7.32664C28.1979 7.63857 28.2634 7.73364 28.3292 7.97772C28.4328 8.36212 28.5285 8.57135 28.7037 8.79598C28.8833 9.02617 28.96 9.2983 28.96 9.70473C28.96 10.1068 28.8836 10.3827 28.7105 10.6055C28.5305 10.8372 28.465 10.9641 28.3487 11.3066C28.2273 11.6639 27.9735 11.9518 26.2738 13.6597C25.5366 14.4004 24.5648 15.3828 24.1142 15.8429C23.6636 16.303 22.9657 17.0094 22.5631 17.4128C21.8092 18.1683 18.9731 21.0477 18.9098 21.1218C18.7028 21.3643 15.8889 24.1269 15.7748 24.1997C15.6838 24.2577 15.5302 24.2969 15.3937 24.2969C15.2572 24.2969 15.1036 24.2577 15.0126 24.1997C14.8985 24.1269 12.0845 21.3643 11.8775 21.1218C11.804 21.0356 8.92596 18.1162 8.22424 17.4159C7.24656 16.4402 6.34216 15.4722 6.2479 15.3004C6.14983 15.1218 6.10791 13.3071 6.1944 12.9819C6.22971 12.849 6.36761 12.6343 6.56654 12.4024C7.12807 11.7477 8.09574 10.8023 8.30539 10.7035C8.48166 10.6205 8.64207 10.6076 9.5138 10.6066C10.2971 10.6058 10.5595 10.6226 10.7025 10.6832C10.9016 10.7675 11.4575 11.269 12.4341 12.2456C13.1434 12.9548 13.1846 12.9864 13.5808 13.1245C13.8155 13.2063 13.9812 13.3285 14.4457 13.7626C14.9186 14.2044 15.0569 14.3057 15.2267 14.3348C15.6997 14.4157 15.6199 14.483 18.5242 11.5578C20.9771 9.08721 21.2273 8.85003 21.4626 8.7722C21.8441 8.64594 21.9894 8.56019 22.2232 8.32321C23.0994 7.43499 24.2172 6.39535 24.375 6.32174C24.6269 6.20428 25.8736 6.19126 26.1383 6.30331ZM64.4164 6.30975C64.5203 6.3534 64.7604 6.54451 64.95 6.7344C65.2405 7.02537 65.3102 7.13027 65.3932 7.40195C65.5088 7.78048 65.5638 7.89228 65.7538 8.13482C65.9744 8.41642 66.0125 8.67826 65.9939 9.78657C65.9804 10.5945 65.9612 10.8152 65.8936 10.9401C65.7661 11.1753 64.6282 12.3073 64.4357 12.3904C64.3425 12.4307 64.0423 12.4833 63.7686 12.5074C63.2512 12.5529 63.1487 12.588 62.8523 12.8208C62.5523 13.0565 62.4143 13.0762 61.0647 13.0762C59.6808 13.0762 59.5339 13.1012 59.3629 13.3656C59.2745 13.5022 59.2688 13.8312 59.2446 20.2286C59.2217 26.2843 59.2111 26.9659 59.1367 27.1282C59.0175 27.3888 57.8933 28.5118 57.6338 28.6296C57.4538 28.7113 57.2423 28.7315 56.2873 28.758C54.9336 28.7957 54.6955 28.7603 54.3052 28.4632C54.1592 28.3521 53.8847 28.2011 53.6953 28.1278C53.2965 27.9734 53.193 27.8602 53.0484 27.42C52.9892 27.24 52.8548 26.9914 52.7416 26.8526C52.6307 26.7167 52.5167 26.5204 52.4882 26.4165C52.4542 26.2926 52.4362 23.9578 52.436 19.639C52.4356 13.4699 52.43 13.039 52.3468 12.8703C52.1703 12.5124 52.1543 12.5101 49.8087 12.5101C48.4397 12.51 47.6221 12.4898 47.446 12.4516C47.212 12.4008 47.1249 12.3421 46.782 12.0042C46.4364 11.6637 46.3748 11.5746 46.288 11.2899C46.1704 10.9044 46.1274 10.8181 45.9059 10.5241C45.7041 10.2563 45.627 9.93008 45.627 9.34442C45.627 8.75877 45.7041 8.43253 45.9059 8.16472C46.1213 7.87889 46.1776 7.77013 46.2659 7.46871C46.376 7.09316 46.5007 6.96788 46.8833 6.84815C47.0768 6.78762 47.312 6.6662 47.4371 6.56238C47.8641 6.20799 47.1656 6.23455 56.1086 6.23233C63.3131 6.23053 64.2488 6.23928 64.4164 6.30975ZM118.161 6.32715C118.279 6.38171 118.629 6.69095 118.989 7.05806C119.574 7.65442 119.62 7.71557 119.714 8.0312C119.84 8.44962 119.939 8.60486 120.244 8.86022C120.538 9.10605 120.711 9.1183 121.089 8.91977L121.358 8.77822L123.317 8.76237C125.426 8.74528 125.548 8.75702 125.859 9.00614C126.171 9.25496 126.357 9.32291 126.84 9.36424C127.342 9.40712 127.448 9.44685 127.769 9.71148C127.899 9.81931 128.096 9.9134 128.302 9.96657C128.743 10.0803 128.756 10.0887 129.369 10.6579C129.786 11.0456 129.949 11.1649 130.101 11.1939C130.486 11.267 130.665 11.379 131.009 11.7641C131.25 12.0335 131.38 12.2309 131.447 12.4268C131.499 12.5803 131.569 12.7585 131.603 12.8229C131.673 12.9545 132.36 13.7901 132.485 13.8954C132.53 13.9329 132.611 14.1116 132.667 14.2926C132.785 14.682 132.828 14.7677 133.05 15.0621C133.232 15.3039 133.327 15.6482 133.331 16.077C133.334 16.4093 133.418 16.6558 133.619 16.9159C133.704 17.0264 133.8 17.1973 133.832 17.2956C133.864 17.394 133.904 17.973 133.921 18.5824C133.958 19.8955 133.92 20.1644 133.645 20.528C133.415 20.8325 133.334 21.0578 133.331 21.3994C133.327 21.8298 133.232 22.1724 133.048 22.4168C132.836 22.6986 132.753 22.8656 132.667 23.1853C132.63 23.324 132.526 23.5353 132.436 23.655C132.221 23.9404 132.176 24.029 132.064 24.3951C131.953 24.7554 131.702 25.0587 130.61 26.1501C129.563 27.1971 129.36 27.368 129.054 27.4601C128.908 27.504 128.76 27.54 128.726 27.54C128.691 27.54 128.552 27.629 128.416 27.7378C128.045 28.0349 127.958 28.0687 127.45 28.1121C126.968 28.1534 126.782 28.2207 126.469 28.4688C126.126 28.7409 126.08 28.745 123.42 28.7446C120.762 28.7442 120.714 28.7398 120.372 28.4688C120.141 28.286 119.947 28.1896 119.64 28.1054C119.503 28.0678 119.295 27.9624 119.176 27.871C118.894 27.6525 118.808 27.6081 118.439 27.492C118.218 27.4224 118.053 27.3231 117.862 27.1455C116.98 26.3263 116.983 26.3285 116.586 26.2023C116.295 26.1096 116.175 25.9765 116.026 25.5805C115.941 25.3549 115.807 25.1343 115.649 24.9573C114.927 24.1501 114.891 24.1003 114.784 23.7506C114.723 23.5493 114.604 23.3121 114.5 23.1837C114.296 22.931 114.199 22.7175 114.149 22.4061C114.125 22.2632 114.035 22.0864 113.888 21.8944C113.764 21.733 113.636 21.507 113.604 21.392C113.514 21.0762 113.512 8.29577 113.602 7.99677C113.711 7.63465 114.77 6.47425 115.141 6.31129C115.281 6.24963 115.578 6.23419 116.637 6.23347C117.813 6.23269 117.98 6.24299 118.161 6.32715ZM79.2031 8.83464C79.2951 8.87242 79.4671 8.9837 79.5854 9.08191C79.7356 9.20653 79.9228 9.29341 80.2058 9.3697C80.4474 9.43481 80.683 9.53693 80.789 9.62248C81.017 9.80649 81.2107 9.90362 81.5184 9.98804C81.6686 10.0292 81.8655 10.1426 82.0217 10.2776C82.1992 10.4311 82.4008 10.5407 82.676 10.6336C83.1166 10.7822 83.4434 11.0433 84.0156 11.7038C84.3736 12.1171 84.4154 12.1845 84.5514 12.5691C84.6145 12.7478 84.7492 12.966 84.9007 13.1353C85.5931 13.9089 85.6632 14.0033 85.7405 14.267C85.7839 14.415 85.8194 14.5639 85.8194 14.5978C85.8194 14.6317 85.9226 14.7941 86.0487 14.9586C86.1748 15.1232 86.2983 15.3402 86.3231 15.441C86.3479 15.5417 86.3815 16.0569 86.3978 16.586C86.4301 17.6338 86.4708 17.8305 86.7212 18.1513C86.9071 18.3894 86.9875 18.66 86.9875 19.047C86.9875 19.44 86.9064 19.7032 86.703 19.9702C86.4553 20.2953 86.3787 20.6089 86.3761 21.3083C86.3735 21.9979 86.3276 22.1625 86.0324 22.5409C85.9152 22.691 85.8194 22.8423 85.8194 22.877C85.8194 23.0738 85.6393 23.4964 85.4636 23.7117C85.3342 23.8704 85.2142 24.1029 85.1306 24.3573C84.989 24.7881 84.8689 24.9466 84.041 25.7957C83.2579 26.5987 83.0622 26.7534 82.6812 26.8707C82.447 26.9427 82.2674 27.0394 82.1275 27.1686C81.6382 27.6207 81.263 27.9394 81.1447 28.0034C81.0748 28.0413 80.8074 28.0902 80.5505 28.1121C80.068 28.1534 79.8828 28.2207 79.5695 28.4688C79.2263 28.7407 79.1803 28.7448 76.5208 28.7448C73.8613 28.7448 73.8152 28.7407 73.472 28.4688C73.1587 28.2207 72.9735 28.1534 72.4911 28.1121C72.2341 28.0902 71.9667 28.0413 71.8969 28.0034C71.7775 27.9389 71.3881 27.6077 70.9119 27.1658C70.7969 27.0591 70.6113 26.9482 70.4995 26.9195C70.0268 26.798 69.8847 26.7124 69.5009 26.3182C68.7594 25.5563 68.5975 25.3529 68.4968 25.0564C68.4434 24.8992 68.3719 24.7179 68.3378 24.6534C68.2684 24.5219 67.5812 23.6863 67.456 23.5809C67.4114 23.5435 67.3298 23.3648 67.2746 23.1838C67.1558 22.7944 67.1131 22.7087 66.8913 22.4143C66.6636 22.1121 66.6128 21.8218 66.6102 20.8074C66.6077 19.8648 66.5748 19.7025 66.3204 19.3767C66.0072 18.9754 66.0071 18.5514 66.3201 18.1512C66.5771 17.8228 66.6077 17.6666 66.6102 16.6746C66.6127 15.6179 66.6608 15.3955 66.9649 15.03C67.1114 14.854 67.1955 14.6868 67.2534 14.4565C67.2983 14.2777 67.3592 14.0851 67.3886 14.0284C67.4393 13.9312 67.7776 13.5261 68.1985 13.0585C68.3265 12.9164 68.4215 12.7349 68.4935 12.495C68.581 12.2029 68.6543 12.0815 68.9129 11.7999C69.2509 11.4318 69.8558 10.8773 70.0339 10.7722C70.0944 10.7366 70.271 10.6613 70.4264 10.6049C70.5818 10.5485 70.8252 10.4019 70.9673 10.2791C71.125 10.1427 71.3217 10.0294 71.4723 9.98804C71.7815 9.90321 71.9749 9.80598 72.202 9.62109C72.3133 9.5305 72.5285 9.43857 72.776 9.37593C73.0562 9.305 73.2342 9.22418 73.3855 9.09931C73.7712 8.7808 73.7725 8.78049 74.8948 8.74919C76.5319 8.70359 79.0037 8.75264 79.2031 8.83464ZM102.678 8.83469C102.77 8.87247 102.942 8.9837 103.061 9.08191C103.211 9.20653 103.398 9.29341 103.681 9.3697C103.922 9.4345 104.159 9.53719 104.264 9.62207C104.501 9.81277 104.611 9.86903 104.97 9.98197C105.155 10.0405 105.369 10.1605 105.525 10.2934C105.697 10.4405 105.872 10.5345 106.074 10.5878C106.573 10.7199 106.551 10.7012 107.946 12.1751C108.443 12.6997 108.491 12.7691 108.609 13.1287C108.69 13.3739 108.811 13.6079 108.939 13.7646C109.115 13.98 109.295 14.4026 109.295 14.5994C109.295 14.6341 109.39 14.7854 109.508 14.9355C109.779 15.2832 109.849 15.4854 109.851 15.9333C109.854 16.4039 109.911 16.588 110.139 16.8698C110.444 17.2467 110.459 17.336 110.459 18.7382C110.459 20.1404 110.444 20.2297 110.139 20.6065C109.911 20.8884 109.854 21.0725 109.851 21.5431C109.849 21.991 109.779 22.1932 109.508 22.5409C109.39 22.691 109.295 22.8423 109.295 22.877C109.295 23.0736 109.115 23.4963 108.94 23.7109C108.816 23.8627 108.69 24.1029 108.613 24.3331C108.515 24.6302 108.422 24.7844 108.168 25.0754C107.677 25.6363 106.034 27.2838 105.889 27.3603C105.818 27.3974 105.628 27.4628 105.467 27.5054C105.287 27.5531 105.088 27.6545 104.95 27.7691C104.694 27.9818 104.485 28.079 104.174 28.131C104.035 28.1542 103.865 28.2408 103.7 28.3726C103.212 28.7632 103.39 28.7437 100.301 28.7452C97.3095 28.7465 97.2966 28.7455 96.9473 28.4688C96.634 28.2207 96.4488 28.1534 95.9663 28.1121C95.7093 28.0902 95.4428 28.0416 95.374 28.0043C95.2528 27.9386 94.6388 27.4162 94.3326 27.1183C94.25 27.0379 94.0899 26.9484 93.9769 26.9196C93.4963 26.7971 93.36 26.7138 92.9499 26.2921C92.2083 25.5298 92.0724 25.356 91.9647 25.0329C91.8454 24.6751 91.7653 24.5556 91.2638 23.9873C90.8429 23.5104 90.7622 23.3523 90.7213 22.9242C90.6549 22.229 90.6447 22.1938 90.4306 21.9194C90.3152 21.7714 90.1917 21.5684 90.1564 21.4682C90.0638 21.206 90.0638 16.2704 90.1564 16.0082C90.1917 15.908 90.3165 15.7033 90.4336 15.5532C90.5507 15.4031 90.6466 15.2518 90.6466 15.217C90.6466 15.0175 90.8269 14.6019 91.0266 14.3415C91.1529 14.1767 91.2563 14.014 91.2563 13.9801C91.2563 13.7434 91.4395 13.3515 91.6738 13.0866C92.4304 12.2316 94.4482 10.2298 94.6747 10.1096C94.7374 10.0762 94.921 10.014 95.0828 9.97121C95.2641 9.92323 95.4627 9.82204 95.6011 9.70725C95.8572 9.49462 96.0659 9.39734 96.377 9.3454C96.513 9.32275 96.6846 9.23695 96.8354 9.11614C97.2609 8.77539 97.2388 8.78059 98.3954 8.74986C100.074 8.70529 102.479 8.75295 102.678 8.83469ZM149.589 8.81415C149.687 8.84303 149.847 8.93007 149.944 9.00753C150.258 9.25563 150.443 9.32301 150.925 9.36424C151.429 9.40732 151.533 9.44639 151.86 9.71698C151.987 9.82178 152.193 9.92493 152.367 9.97095C152.79 10.083 152.861 10.1308 153.45 10.7093C153.744 10.9972 154.106 11.3521 154.256 11.4981C154.406 11.6442 154.73 11.9876 154.978 12.2615C155.374 12.7004 155.439 12.8011 155.533 13.1129C155.605 13.3526 155.7 13.5341 155.828 13.6762C156.689 14.633 156.747 14.7368 156.751 15.3205C156.754 15.7732 156.817 15.9664 157.066 16.2868C157.173 16.4248 157.285 16.628 157.314 16.7384C157.348 16.8668 157.362 17.6378 157.353 18.881L157.338 20.8228L157.172 21.1424C157.082 21.3182 157.007 21.5105 157.007 21.5697C157.007 21.7419 157.133 21.9412 157.401 22.1954C157.589 22.3736 157.707 22.4414 157.875 22.4691C157.999 22.4894 158.191 22.5467 158.303 22.5966C158.525 22.6956 159.604 23.7575 159.744 24.0141C159.814 24.1439 159.83 24.3795 159.843 25.4897C159.854 26.3561 159.839 26.8849 159.802 27.0259C159.763 27.1707 159.643 27.3519 159.432 27.5808C158.98 28.0734 158.358 28.6025 158.138 28.6813C157.862 28.7804 144.523 28.7824 144.247 28.6835C144.146 28.6472 143.934 28.5159 143.777 28.392C143.59 28.245 143.415 28.1541 143.275 28.1306C142.966 28.079 142.756 27.9814 142.501 27.7691C142.363 27.6545 142.164 27.5531 141.983 27.5054C141.822 27.4628 141.632 27.3975 141.562 27.3605C141.421 27.2868 139.192 25.0447 138.67 24.4526C138.425 24.1735 138.324 24.0106 138.252 23.7775C138.138 23.4072 138.083 23.2968 137.893 23.0622C137.813 22.963 137.692 22.6974 137.623 22.4702C137.544 22.2083 137.426 21.96 137.298 21.7887C137.174 21.6219 137.077 21.4198 137.042 21.2586C136.967 20.9031 136.967 16.572 137.043 16.2163C137.075 16.0653 137.17 15.8585 137.268 15.7287C137.491 15.4326 137.57 15.2681 137.645 14.945C137.688 14.7609 137.785 14.5796 137.957 14.3625C138.094 14.1892 138.207 14.0184 138.207 13.9829C138.207 13.7289 138.389 13.3578 138.678 13.0208C139.077 12.5564 140.775 10.8382 141.253 10.4139C141.584 10.1208 141.95 9.93636 142.2 9.93636C142.235 9.93636 142.374 9.84736 142.51 9.7386C142.83 9.48165 142.895 9.44933 143.284 9.3489C143.49 9.29573 143.687 9.20164 143.818 9.0938C144.196 8.78152 144.201 8.78039 145.32 8.74945C146.744 8.71012 149.371 8.74997 149.589 8.81415ZM75.0561 15.6569C74.7995 15.7318 73.5481 17.0165 73.4762 17.2788C73.3991 17.56 73.4086 20.0007 73.4876 20.2161C73.606 20.539 74.7151 21.6966 75.0144 21.8098C75.2379 21.8942 77.7544 21.8951 77.9829 21.8108C78.0745 21.777 78.4452 21.4628 78.8068 21.1126C79.2897 20.6448 79.4859 20.4182 79.5461 20.2585C79.6156 20.0742 79.6255 19.8385 79.6115 18.7076L79.5949 17.3742L79.458 17.1383C79.247 16.7747 78.169 15.7124 77.9479 15.6502C77.7169 15.5852 75.2825 15.5909 75.0561 15.6569ZM98.6495 15.6465C98.3972 15.7087 98.2089 15.8351 97.8619 16.1754C97.3923 16.6357 97.0334 17.069 96.9628 17.2608C96.9217 17.3726 96.9022 17.8477 96.9022 18.7382C96.9022 19.6287 96.9217 20.1038 96.9628 20.2156C97.0921 20.5669 98.2276 21.739 98.5225 21.8254C98.7548 21.8934 101.185 21.8933 101.427 21.8252C101.563 21.7868 101.789 21.5955 102.276 21.1046L102.94 20.4363L103.069 20.0119C103.15 19.7439 103.263 19.5043 103.375 19.3616C103.723 18.919 103.716 18.5488 103.351 18.1017C103.221 17.9435 103.117 17.7444 103.068 17.5612C102.942 17.0915 102.854 16.9622 102.215 16.3163C101.777 15.8735 101.556 15.6875 101.424 15.6504C101.217 15.5921 98.8835 15.5888 98.6495 15.6465ZM122.047 15.6774C121.893 15.7254 121.714 15.8484 121.51 16.047C121.14 16.4054 121.064 16.5185 120.933 16.9049C120.877 17.0684 120.742 17.3104 120.633 17.4427C120.339 17.7987 120.31 17.9526 120.329 19.0728C120.35 20.2821 120.358 20.3024 121.117 21.0761C121.909 21.8825 121.813 21.8489 123.376 21.869C124.186 21.8793 124.753 21.865 124.877 21.8311C125.198 21.7436 126.922 19.9827 127.063 19.5979C127.137 19.3986 127.148 18.7251 127.082 18.4918C127.056 18.3991 126.941 18.2046 126.827 18.0595C126.686 17.88 126.585 17.6742 126.511 17.416C126.404 17.0426 126.391 17.0257 125.751 16.3776C125.264 15.8841 125.051 15.7036 124.903 15.6586C124.606 15.5686 122.348 15.5835 122.047 15.6774ZM146.013 15.6515C145.933 15.6758 145.755 15.7913 145.619 15.908C145.479 16.0273 145.238 16.1653 145.069 16.2232C144.684 16.355 144.547 16.4977 144.43 16.8899C144.369 17.0919 144.255 17.305 144.114 17.4783C143.993 17.6278 143.872 17.8275 143.845 17.9221C143.782 18.1433 143.781 19.382 143.844 19.6023C143.87 19.6949 143.983 19.887 144.095 20.029C144.209 20.1751 144.347 20.4372 144.411 20.6321C144.499 20.8995 144.588 21.0444 144.808 21.2783C144.964 21.4442 145.195 21.6411 145.32 21.7161L145.549 21.8523L146.845 21.8693C148.307 21.8885 148.416 21.8712 148.776 21.564C148.907 21.4523 149.15 21.3155 149.322 21.2565C149.718 21.121 149.853 20.981 149.973 20.5817C150.026 20.4048 150.142 20.1626 150.232 20.0436C150.567 19.5985 150.58 19.5524 150.58 18.7382C150.58 18.1022 150.565 17.9653 150.483 17.8121C150.213 17.3093 148.719 15.8027 148.355 15.6656C148.163 15.5935 146.242 15.5819 146.013 15.6515Z" fill="white"/>
</svg>
