<svg width="259" height="258" viewBox="0 0 259 258" fill="none" xmlns="http://www.w3.org/2000/svg">
<path d="M76.9014 106.426L96.7359 99.203C107.517 95.2771 119.436 100.835 123.359 111.617L103.524 118.84C92.7431 122.766 80.8238 117.208 76.9014 106.426Z" fill="#248C2D"/>
<path fill-rule="evenodd" clip-rule="evenodd" d="M121.508 102.877C121.69 105.796 122.288 108.738 123.339 111.625L153.485 100.647C166.795 95.8008 174.806 82.8375 173.967 69.3784C173.785 66.4596 173.187 63.5175 172.137 60.6299L141.99 71.6078C128.681 76.4544 120.67 89.4177 121.508 102.877ZM130.331 99.6642C130.831 91.0142 136.36 83.0731 145.015 79.9215L165.145 72.5911C164.644 81.2411 159.116 89.1821 150.461 92.3337L130.331 99.6642Z" fill="#248C2D"/>
<path fill-rule="evenodd" clip-rule="evenodd" d="M62.7137 126.513C60.8782 128.255 60.8921 129.21 62.8297 134.536C64.1699 138.22 64.444 139.323 64.0143 139.302C58.9145 139.061 54.3616 140.763 51.1515 144.11C48.7487 146.615 47.0213 150.459 46.7017 154.011L46.4683 156.606L50.4178 167.463L54.3673 178.319L56.3526 180.225C62.7741 186.391 72.9372 186.176 79.1333 179.743C81.2897 177.505 83.18 173.186 83.4839 169.804L83.7187 167.192L76.6076 147.292C68.6865 125.124 68.8728 125.504 65.8501 125.363C65.0139 125.325 64.1954 125.35 64.0315 125.419C63.8678 125.488 63.2747 125.98 62.7137 126.513ZM176.546 84.716C175.108 85.8484 174.493 86.8476 174.431 88.1497C174.377 89.285 175.754 93.4132 180.977 107.77C184.615 117.771 188.081 126.775 188.679 127.78C192.111 133.552 198.919 136.577 205.606 135.303C210.13 134.442 214.467 131.16 216.645 126.95C218.07 124.196 218.665 120.173 218.121 116.961C217.598 113.865 212.818 100.664 211.283 98.0757C208.635 93.609 203.984 90.6838 198.8 90.2257C196.604 90.0317 195.14 90.1917 192.882 90.8717C190.603 91.5579 189.41 92.153 187.928 93.3419C186.853 94.2034 185.853 94.8522 185.705 94.7831C185.557 94.7144 184.699 92.6321 183.798 90.1561C181.96 85.1024 181.326 84.3598 178.746 84.2404C177.926 84.2024 177.21 84.2034 177.156 84.242C177.102 84.2806 176.827 84.4939 176.546 84.716ZM198.436 77.2275C197.206 78.5282 197.035 80.1925 197.986 81.5981C199.4 83.6873 202.486 83.7186 203.929 81.6588C205.506 79.4082 204.085 76.3571 201.34 76.0994C200.501 76.0209 199.753 75.9791 199.679 76.0066C199.604 76.0337 199.045 76.5833 198.436 77.2275ZM202.129 77.0696C202.844 77.4022 203.549 78.0076 203.698 78.4151C203.846 78.8226 203.772 79.7474 203.534 80.4703C203.22 81.426 202.744 81.9149 201.794 82.2611C200.283 82.8112 198.875 82.0696 198.269 80.4051C197.844 79.2369 198.864 77.1808 200.089 76.7345C200.497 76.586 201.415 76.7369 202.129 77.0696ZM199.102 78.265C198.839 78.8284 200.12 81.9925 200.548 81.8367C200.761 81.7589 200.809 81.3464 200.654 80.9199C200.498 80.4934 200.535 80.0851 200.734 80.0126C200.933 79.9401 201.333 80.1894 201.624 80.5666C201.914 80.9438 202.315 81.1931 202.514 81.1206C202.997 80.9449 202.734 80.2845 202.132 80.16C201.835 80.0985 201.794 79.7576 202.025 79.2634C202.521 78.2017 202.328 77.799 201.249 77.6448C200.221 77.4982 199.341 77.7525 199.102 78.265ZM201.439 78.5482C201.461 79.3709 200.288 79.9161 200.029 79.2034C199.898 78.844 200.139 78.4727 200.616 78.2991C201.09 78.1265 201.431 78.2294 201.439 78.5482ZM87.3193 129.694C83.8611 131.961 81.0571 136.65 80.4722 141.143C80.1283 143.783 80.1974 144.176 81.9109 149.319C82.9007 152.29 83.9777 155.115 84.3036 155.596C84.6295 156.078 85.5837 156.609 86.4242 156.778C87.8568 157.066 88.7081 156.81 100.073 152.672L112.194 148.26L113.05 146.666L113.905 145.072L111.884 139.516C109.916 134.106 109.807 133.905 107.735 131.86C105.171 129.329 102.884 128.02 99.8679 127.358C95.7174 126.446 90.9059 127.342 87.3193 129.694ZM120.561 117.722C117.141 120.401 114.567 124.891 114.165 128.878C114.039 130.133 114.156 132.364 114.426 133.835C114.736 135.523 116.691 141.252 119.723 149.353L124.529 162.195L126.176 162.962C127.369 163.517 128.213 163.599 129.23 163.262C131.1 162.64 132.171 161.369 132.342 159.565C132.46 158.318 131.71 155.963 127.595 144.65C122.204 129.832 122.253 130.071 123.969 126.943C125.08 124.916 127.418 123.493 129.756 123.422C132.02 123.352 134.612 124.691 135.905 126.597C136.615 127.645 138.625 132.688 141.695 141.127C146.896 155.425 146.841 155.328 149.755 155.463C152.068 155.57 154.118 153.725 154.218 151.446C154.258 150.555 152.747 146.109 148.949 135.932L143.624 121.666L141.447 119.516C140.246 118.331 138.173 116.856 136.823 116.228C135.455 115.59 133.043 114.97 131.354 114.821C128.908 114.605 127.729 114.748 125.167 115.574C123.228 116.199 121.445 117.031 120.561 117.722ZM154.399 105.379C150.704 108.302 148.366 112.311 147.926 116.482C147.605 119.535 148.095 122.479 149.623 126.677C150.99 130.433 152.4 132.137 154.325 132.357C155.164 132.453 158.605 131.348 167.187 128.228C173.874 125.797 179.271 123.65 179.76 123.228C180.232 122.821 180.759 121.789 180.931 120.935C181.189 119.657 180.994 118.697 179.829 115.49C178.154 110.879 176.315 108.044 173.534 105.784C171.116 103.819 168.337 102.776 164.742 102.488C162.683 102.322 161.325 102.508 158.911 103.286C157.027 103.893 155.216 104.733 154.399 105.379ZM63.1383 148.069C67.2998 148.406 68.3147 149.734 71.9072 159.542C74.1309 165.612 74.6982 167.55 74.6363 168.861C74.4795 172.191 72.8972 174.43 69.9505 175.492C67.4043 176.409 64.8325 175.924 62.8852 174.161C61.4287 172.841 61.2289 172.416 58.36 164.53C56.5764 159.627 55.3656 155.776 55.3756 155.038C55.3993 153.272 56.2121 151.533 57.7068 150.05C59.3397 148.431 60.8438 147.882 63.1383 148.069ZM97.0303 135.832C99.559 136.09 101.698 137.644 102.956 140.139L103.92 142.052L97.0748 144.545L90.2298 147.037L89.6748 145.512C88.6048 142.57 89.1972 140.008 91.4679 137.756C92.1784 137.052 93.2705 136.285 93.8952 136.052C94.5198 135.819 95.9306 135.721 97.0303 135.832ZM165.317 111.329C167.262 111.732 169.34 113.546 170.304 115.683L171.07 117.38L164.414 119.924L157.759 122.467L157.114 120.694C156.759 119.719 156.544 118.36 156.635 117.675C156.869 115.922 158.118 113.565 159.291 112.662C160.681 111.593 163.536 110.961 165.317 111.329ZM197.059 98.9059C197.864 98.8492 199.208 99.101 200.045 99.465C202.938 100.723 203.16 101.098 206.548 110.41C210.05 120.037 210.17 120.903 208.383 123.686C207.534 125.01 207.02 125.365 204.772 126.184C202.73 126.928 201.85 127.048 200.788 126.729C198.724 126.109 197.303 125.031 196.261 123.293C194.904 121.028 190.767 109.54 190.429 107.097C189.975 103.816 191.804 100.585 194.828 99.3273C195.249 99.1524 196.253 98.9626 197.059 98.9059ZM89.3357 161.702C87.7962 163.719 88.2851 166.335 90.605 168.495C91.3692 169.207 93.167 170.335 94.5995 171.002C102.632 174.743 112.367 170.974 115.87 162.767C116.999 160.122 117.528 156.921 117.058 155.578C116.638 154.376 114.867 153.039 113.456 152.858C110.68 152.501 109.207 153.793 108.355 157.328C108.045 158.618 107.444 160.193 107.021 160.829C106.563 161.517 105.434 162.362 104.231 162.916C102.666 163.638 101.771 163.793 100.253 163.607C99.1712 163.474 97.81 162.934 97.2114 162.401C96.6149 161.871 95.5065 161.089 94.7476 160.664C92.9971 159.684 90.5124 160.16 89.3357 161.702ZM156.824 137.084C156.357 137.611 155.918 138.441 155.848 138.929C155.613 140.56 156.724 142.706 158.64 144.321C163.418 148.351 170.466 149.008 176.257 145.964C179.096 144.472 182.101 141.228 183.3 138.361C183.845 137.058 184.377 134.929 184.482 133.632C184.645 131.614 184.538 131.082 183.739 129.961C183.114 129.082 182.306 128.548 181.294 128.345C180.463 128.178 179.381 128.188 178.889 128.366C177.375 128.914 176.154 130.615 175.92 132.503C175.797 133.494 175.242 135.015 174.685 135.882C173.923 137.069 173.145 137.691 171.532 138.4C168.741 139.627 166.818 139.35 163.996 137.314C162.817 136.464 161.349 135.689 160.733 135.591C159.272 135.361 157.879 135.892 156.824 137.084Z" fill="#248C2D"/>
<path d="M36.6136 54.3601L35.9638 53.9497C32.9386 52.0394 26.8816 50.0642 20.6638 59.8999L20.0831 60.8185C13.9644 70.4973 17.66 74.8686 19.5954 76.1221L19.8419 76.2778L23.312 70.7886C22.9488 70.3712 20.9157 68.429 24.4141 62.8951C26.7511 59.1983 28.8347 58.3823 30.6065 58.6547L24.771 67.8854L28.5805 70.291L34.416 61.0603C35.5125 62.5992 35.8597 65.0755 33.551 68.7275C29.9959 74.351 27.1781 73.1046 26.7264 72.9761L23.2563 78.4652L23.5028 78.6209C25.6092 79.951 31.3042 81.2588 37.3379 71.7144L37.9186 70.7958C44.0232 61.1394 39.594 56.2421 36.6136 54.3601Z" fill="#248C2D"/>
<path d="M50.1911 54.0944L43.7785 47.3568L57.7403 46.9148L63.5798 41.3611L47.5933 41.7906L49.6031 27.4451L43.9172 32.8526L42.2621 45.7636L36.5985 39.813L32.1228 44.0696L45.7154 58.351L50.1911 54.0944Z" fill="#248C2D"/>
<path d="M77.9634 23.8508C78.069 24.3083 78.9869 27.2885 73.4195 30.4231C68.4066 33.2456 65.5222 31.3117 64.3908 29.3031L64.2347 29.0261C63.0254 26.8789 62.9031 23.9068 68.0546 21.0063C73.5296 17.9238 75.552 19.9477 75.9506 20.3314L81.6566 17.1187L81.5136 16.8648C80.3591 14.8692 76.1787 10.9585 66.199 16.5774L65.2519 17.1107C55.1105 22.8206 56.7775 28.9674 58.5331 32.0843L58.9102 32.7538C60.6397 35.8244 65.3085 40.494 75.2651 34.8881L76.2122 34.3549C86.0533 28.814 85.0348 23.0623 83.8124 20.8921L83.6693 20.6381L77.9634 23.8508Z" fill="#248C2D"/>
<path d="M94.8698 25.4452L91.0021 11.0097L102.756 7.85941L106.624 22.295L112.59 20.6958L107.488 1.65315L83.8012 8.00171L88.9032 27.0444L94.8698 25.4452Z" fill="#248C2D"/>
<path d="M114.891 0.64272L115.494 20.3487L136.533 19.6978L136.393 15.1156L121.448 15.578L121.349 12.3466L135.684 11.9031L135.546 7.4004L121.211 7.84391L121.122 4.93039L135.802 4.47623L135.665 0L114.891 0.64272Z" fill="#248C2D"/>
<path d="M154.335 16.057C161.254 17.4181 163.93 14.9465 164.611 11.4885L164.663 11.2284C165.36 7.69238 163.823 4.52698 156.878 3.16077L142.365 0.305558L138.55 19.6499L144.611 20.8422L145.882 14.394L154.335 16.057ZM147.559 5.89188L155.908 7.53439C157.833 7.91304 158.568 8.84103 158.312 10.1411L158.296 10.2191C158.04 11.5191 156.986 12.068 155.087 11.6945L146.739 10.052L147.559 5.89188Z" fill="#248C2D"/>
<path d="M176.409 30.5711L182.563 16.8321L190.33 20.3063L192.237 16.0491L171.042 6.56826L169.135 10.8254L176.878 14.2887L170.723 28.0277L176.409 30.5711Z" fill="#248C2D"/>
<path d="M202.428 47.7166L213.106 37.2519L221.623 45.9358L210.945 56.4006L215.268 60.8088L229.355 47.0042L212.191 29.5039L198.104 43.3084L202.428 47.7166Z" fill="#248C2D"/>
<path d="M241.626 65.2882L241.067 64.2954C234.942 53.4212 228.824 55.2541 225.752 56.984L225.059 57.3742C222.032 59.0781 217.154 63.4363 223.279 74.3106L223.838 75.3033C229.937 86.1314 236.207 84.2435 239.233 82.5397L239.926 82.1495C242.999 80.4196 247.712 76.0932 241.626 65.2882ZM237.182 67.1215C240.446 72.9165 238.578 75.4886 236.591 76.6071L236.268 76.7892C234.281 77.9078 230.985 78.2131 227.733 72.4412C224.469 66.6462 226.522 63.9701 228.486 62.8645L228.763 62.7084C230.75 61.5898 233.866 61.2342 237.182 67.1215Z" fill="#248C2D"/>
<path d="M255.044 98.488L242.834 109.52C242.524 109.803 242.286 110.022 241.971 110.065L241.945 110.068C241.708 110.1 241.507 109.994 241.432 109.442L240.969 106.002L236.24 106.64L236.756 110.474C237.262 114.229 238.6 114.824 242.149 116.351L258.387 123.305L257.559 117.16L247.332 112.924L255.999 105.578L255.044 98.488Z" fill="#248C2D"/>
<path d="M237.574 140.849L252.572 142.179L251.818 150.652L256.465 151.064L258.525 127.941L253.877 127.529L253.125 135.976L238.127 134.646L237.574 140.849Z" fill="#248C2D"/>
<path d="M230.408 169.58L228.285 175.885L250.344 172.172L252.898 164.586L237.386 148.858L235.381 154.811L238.232 157.643L234.417 168.971L230.408 169.58ZM241.75 161.146L247.593 166.969L239.365 168.229L241.75 161.146Z" fill="#248C2D"/>
<path d="M218.261 191.552L214.921 196.747L231.512 207.403L242.909 189.678C234.19 184.078 231.992 182.351 231.596 181.152C231.372 180.473 231.576 179.91 232.092 179.108L232.307 178.773L228.181 176.124L227.25 177.573C225.529 180.248 225.49 181.829 226.23 183.471C226.993 185.126 227.997 186.653 236.136 191.881L231.061 199.773L218.261 191.552Z" fill="#248C2D"/>
<path d="M227.028 212.906L213.275 198.778L198.187 213.454L201.385 216.739L212.102 206.314L214.358 208.631L204.077 218.631L207.22 221.859L217.5 211.859L219.533 213.948L209.006 224.188L212.13 227.397L227.028 212.906Z" fill="#248C2D"/>
<path d="M191.476 218.22L195.434 224.899L184.029 231.654L180.071 224.975L174.756 228.123L184.806 245.083L190.121 241.935L186.46 235.758L197.865 229.003L201.526 235.18L206.84 232.033L196.791 215.072L191.476 218.22Z" fill="#248C2D"/>
<path d="M154.178 234.591L148.242 236.298L153.689 255.245L159.626 253.537L168.73 237.326L172.34 249.881L178.276 248.174L172.828 229.227L166.892 230.934L157.773 247.095L154.178 234.591Z" fill="#248C2D"/>
<path d="M139.464 237.504L139.327 245.267L136.703 245.221C136.208 241.688 133.692 237.059 124.15 236.893L123.01 236.873C111.798 236.679 110.095 243.036 110.033 246.507L110.019 247.302C109.957 250.826 111.464 257.081 122.649 257.275L123.789 257.295C132.933 257.453 135.762 253.394 136.539 249.989L139.242 250.036L139.115 257.216L145.291 257.323L145.64 237.611L139.464 237.504ZM116.49 247.229L116.497 246.858C116.537 244.579 118.022 241.584 123.508 241.679C129.022 241.775 130.371 244.899 130.332 247.151L130.326 247.469C130.286 249.748 128.909 252.613 123.316 252.516C117.803 252.42 116.45 249.508 116.49 247.229Z" fill="#248C2D"/>
<path d="M80.9706 225.945L75.5448 222.996L71.3642 230.679L67.7902 218.782L60.711 214.934L65.1766 229.518L51.7515 232.509L58.6445 236.255L69.7807 233.589L66.1196 240.318L71.5454 243.266L75.2066 236.538L79.0206 247.329L85.9135 251.075L81.1282 238.187L95.8044 234.006L88.7252 230.159L76.7901 233.628L80.9706 225.945Z" fill="#248C2D"/>
<path d="M46.9075 199.641L42.2679 194.875L35.4868 216.184L41.0691 221.919L62.1571 215.307L57.7763 210.807L53.9535 212.048L45.617 203.484L46.9075 199.641ZM49.2269 213.577L41.3743 216.114L44.0143 208.222L49.2269 213.577Z" fill="#248C2D"/>
<path d="M34.5665 181.715L31.755 176.218L23.9655 180.201L27.7368 168.362L24.0686 161.191L19.5154 175.751L6.74829 170.642L10.32 177.625L21.015 181.71L14.1933 185.198L17.0048 190.695L23.8265 187.207L20.8782 198.267L24.4499 205.25L27.781 191.911L42.2529 196.742L38.5846 189.571L26.777 185.698L34.5665 181.715Z" fill="#248C2D"/>
<path d="M19.7739 160.042L20.2011 162.523L28.1694 161.149L27.1665 155.326L23.9009 155.889L21.1307 139.803L24.3963 139.24L23.3935 133.416L15.4252 134.79L15.9649 137.924L1.23005 140.464L4.8457 161.459C13.232 160.014 17.5913 159.396 19.7739 160.042ZM18.8295 154.558C16.809 154.073 12.6191 154.58 8.6219 155.269L6.98047 145.738L17.0127 144.008L18.8295 154.558Z" fill="#248C2D"/>
<path d="M7.59706 117.44L6.71383 125.074L0.709631 124.382L0 130.516L19.5927 132.774L21.1825 119.033C22.1266 110.872 19.3175 108.628 15.657 108.206L15.3937 108.175C11.7595 107.756 8.53207 109.358 7.59706 117.44ZM23.2444 101.211L3.6517 98.9524L2.94207 105.086L22.5347 107.345L23.2444 101.211ZM15.8781 126.131L11.1116 125.581L11.9736 118.131C12.3208 115.13 13.4159 114.43 14.7326 114.581L14.8116 114.59C16.102 114.739 17.0873 115.68 16.7401 118.681L15.8781 126.131Z" fill="#248C2D"/>
</svg>
