<svg width="86" height="140" viewBox="0 0 86 140" fill="none" xmlns="http://www.w3.org/2000/svg">
<path fill-rule="evenodd" clip-rule="evenodd" d="M42.8201 0.0355003C42.8423 0.0723688 42.8328 0.110161 42.7956 0.133787C42.7622 0.154949 42.7547 0.172195 42.7789 0.172195C42.8031 0.172195 42.8486 0.155917 42.8799 0.135987C42.9248 0.107522 42.9207 0.0865355 42.8605 0.0377001C42.7993 -0.0119712 42.7912 -0.0124111 42.8201 0.0355003ZM42.811 0.206028C42.7515 0.22675 42.625 0.444354 42.625 0.525922C42.625 0.552759 42.6451 0.562263 42.6697 0.547084C42.6943 0.531861 42.703 0.50102 42.6891 0.478494C42.6752 0.455969 42.6848 0.437534 42.7104 0.437534C42.7702 0.437534 42.7708 0.511799 42.7112 0.548624C42.686 0.564198 42.6781 0.619809 42.6938 0.672208C42.7209 0.763499 42.7194 0.763983 42.6586 0.684351C42.5964 0.602783 42.5945 0.602783 42.5622 0.684351C42.5079 0.821178 42.4875 0.974108 42.5268 0.949866C42.547 0.937371 42.5635 0.998965 42.5635 1.08674V1.24631L42.5126 1.12185C42.4813 1.04512 42.4499 1.01656 42.4309 1.04745C42.4139 1.07495 42.4115 1.09747 42.4257 1.09747C42.4398 1.09747 42.422 1.15436 42.3861 1.22387C42.3501 1.29339 42.3331 1.36268 42.3483 1.37786C42.3634 1.39304 42.3548 1.40544 42.3292 1.40544C42.3036 1.40544 42.2708 1.43615 42.2564 1.47372C42.2416 1.51244 42.2489 1.53048 42.2732 1.51543C42.2976 1.50039 42.3048 1.51842 42.29 1.55714C42.2756 1.59471 42.2485 1.62542 42.2297 1.62542C42.1634 1.62542 42.1499 1.80378 42.2115 1.86538C42.2557 1.90955 42.2595 1.93665 42.2247 1.95821C42.1976 1.97497 42.162 1.96687 42.1456 1.94026C42.1282 1.91219 42.0949 1.9469 42.0662 2.02292C42.039 2.09503 42.0349 2.14277 42.057 2.12909C42.0792 2.1154 42.0973 2.12517 42.0973 2.15078C42.0973 2.17638 42.0781 2.19737 42.0545 2.19737C41.9874 2.19737 41.8749 2.44766 41.9059 2.52826C41.9281 2.58616 41.9411 2.58893 41.9708 2.54203C41.9933 2.50666 42.0083 2.50305 42.0087 2.53297C42.0091 2.56025 41.9759 2.60974 41.935 2.64296C41.8926 2.67732 41.874 2.68097 41.8917 2.65136C41.9088 2.62281 41.9042 2.58787 41.8813 2.57375C41.857 2.55871 41.8446 2.63191 41.8512 2.75053C41.8618 2.93729 41.8582 2.94503 41.8056 2.85013C41.7606 2.76896 41.7483 2.76355 41.7471 2.82431C41.7462 2.86668 41.7472 2.91393 41.7493 2.92937C41.7513 2.94481 41.7269 2.97359 41.695 2.99334C41.6602 3.01485 41.6387 3.10496 41.6413 3.21825C41.6445 3.35305 41.6357 3.38204 41.6108 3.31926L41.5758 3.23127L41.5676 3.31926C41.5632 3.36766 41.5634 3.44408 41.5681 3.48904C41.5733 3.53788 41.5576 3.559 41.5292 3.54144C41.4805 3.5113 41.4662 3.56032 41.4786 3.71522C41.4844 3.78839 41.478 3.79208 41.4403 3.73722C41.4139 3.69864 41.3948 3.69257 41.3944 3.72262C41.394 3.7509 41.382 3.8103 41.3676 3.8546C41.3458 3.92165 41.3494 3.92412 41.3889 3.86921C41.4226 3.82231 41.4365 3.81954 41.437 3.85957C41.4374 3.89059 41.4081 3.92733 41.372 3.94119C41.3358 3.95509 41.3172 3.98413 41.3306 4.00582C41.344 4.02746 41.3373 4.04519 41.3158 4.04519C41.2635 4.04519 41.1726 4.34718 41.2166 4.37441C41.2356 4.38616 41.2616 4.4357 41.2744 4.48454C41.2871 4.53333 41.2796 4.56219 41.2577 4.54859C41.2358 4.53504 41.2178 4.49545 41.2178 4.46056C41.2178 4.38299 41.1321 4.37529 41.1242 4.45215C41.1212 4.48242 41.1141 4.54925 41.1085 4.60077C41.103 4.65225 41.0659 4.74077 41.0262 4.79752C40.9204 4.9486 40.9381 5.00276 41.0529 4.87944C41.1073 4.82102 41.1522 4.76281 41.1525 4.75014C41.1529 4.73751 41.1705 4.69985 41.1916 4.6665C41.2231 4.61665 41.2375 4.61925 41.2719 4.6808C41.2949 4.72198 41.3021 4.76743 41.2878 4.78177C41.2735 4.79607 41.2618 4.78468 41.2618 4.75647C41.2618 4.72823 41.2413 4.70513 41.2163 4.70513C41.1849 4.70513 41.1849 4.73157 41.2163 4.79022C41.2831 4.91512 41.2723 5.00025 41.2019 4.9039C41.1448 4.8259 41.1378 4.82814 41.0589 4.94975C41.0133 5.0201 40.9418 5.11218 40.9 5.15437C40.8582 5.19656 40.8356 5.26124 40.8497 5.29806C40.8639 5.33493 40.8519 5.36507 40.8231 5.36507C40.7943 5.36507 40.7789 5.38962 40.7889 5.41967C40.799 5.44972 40.7815 5.49987 40.7503 5.53115C40.7094 5.57202 40.7053 5.61923 40.7356 5.69904C40.7588 5.76011 40.7621 5.80032 40.7428 5.78844C40.6877 5.75434 40.6059 5.82267 40.589 5.91691C40.5806 5.96429 40.5406 6.07934 40.5003 6.17266C40.4599 6.26597 40.4397 6.36307 40.4553 6.38846C40.473 6.41701 40.4623 6.42128 40.4274 6.39963C40.3901 6.37658 40.3776 6.38494 40.3907 6.42422C40.4016 6.45696 40.3663 6.56162 40.3122 6.65687L40.2139 6.83004L39.5396 6.84958C39.1501 6.86084 38.8536 6.88803 38.8376 6.91399C38.8202 6.9421 38.6969 6.94826 38.5077 6.93044C38.3415 6.91478 38.1165 6.92023 38.0076 6.94263L37.8097 6.98328L37.9856 6.99357L38.1615 7.00391L37.9417 7.03603C37.8207 7.05372 37.6328 7.05209 37.5239 7.03238L37.326 6.99657L37.5569 7.01465C37.7052 7.02631 37.7878 7.01562 37.7878 6.98482C37.7878 6.95125 37.6465 6.94654 37.315 6.96916C37.055 6.98693 36.6741 7.01043 36.4685 7.02147C36.2629 7.03247 35.9562 7.04976 35.7869 7.05983C35.4216 7.08165 34.4035 7.1271 34.0205 7.13867C33.8714 7.1432 33.7372 7.15904 33.7224 7.17391C33.7075 7.18878 33.559 7.1912 33.3925 7.17928C33.2258 7.16736 33.0368 7.17083 32.9724 7.18698L32.8552 7.21641L32.9673 7.30463C33.0289 7.35315 33.0927 7.39024 33.1089 7.38707C33.1252 7.38395 33.1507 7.3979 33.1655 7.41813C33.2171 7.48862 33.3903 7.62227 33.3903 7.59157C33.3903 7.57458 33.3359 7.5089 33.2693 7.44563C33.186 7.36644 33.1735 7.33969 33.2289 7.35975C33.2732 7.37577 33.3253 7.38888 33.3447 7.38888C33.3797 7.38888 33.4481 7.5565 33.439 7.61985C33.4364 7.63803 33.449 7.64792 33.4672 7.64185C33.4853 7.63583 33.5089 7.65065 33.5196 7.67485C33.5493 7.74194 34.105 8.16039 34.1472 8.14741C34.1676 8.14112 34.1957 8.16589 34.2097 8.2024C34.2237 8.23892 34.2519 8.26879 34.2722 8.26879C34.2925 8.26879 34.3626 8.31829 34.4278 8.37878C34.5501 8.49216 34.6508 8.52775 34.5954 8.43796C34.5758 8.40624 34.5833 8.39915 34.6155 8.41904C34.6438 8.43655 34.6566 8.4677 34.6439 8.48829C34.6079 8.5465 34.8911 8.74756 34.9697 8.71958C35.008 8.70589 35.0261 8.70946 35.0099 8.72745C34.9635 8.77919 35.1112 8.92372 35.1825 8.89631C35.2376 8.87519 35.2368 8.86604 35.1774 8.83278C35.1159 8.79833 35.1179 8.78416 35.1946 8.70734C35.3011 8.60079 35.3063 8.60061 35.3063 8.70374C35.3063 8.76001 35.2846 8.77862 35.2388 8.7615C35.182 8.7403 35.1803 8.74742 35.2284 8.8066C35.2696 8.85737 35.2718 8.88535 35.2361 8.90739C35.2035 8.92754 35.2178 8.95966 35.278 9.00185C35.3282 9.03705 35.3892 9.0535 35.4136 9.03841C35.4771 8.99912 35.6207 9.05311 35.649 9.12698C35.6623 9.16156 35.6493 9.20362 35.6201 9.22034C35.5909 9.2371 35.5809 9.23538 35.5979 9.21651C35.6334 9.17709 35.5306 9.06072 35.4602 9.06072C35.3652 9.06072 35.4175 9.13371 35.5878 9.23886C35.6839 9.29816 35.7631 9.36271 35.7637 9.38229C35.7644 9.40186 35.7876 9.4038 35.8155 9.3866C35.8433 9.36944 35.9373 9.351 36.0244 9.34572C36.1114 9.3404 36.1478 9.34493 36.1052 9.35571C36.0626 9.36653 36.0379 9.39192 36.0504 9.41216C36.0774 9.45585 35.9859 9.44665 35.9078 9.39786C35.8776 9.37894 35.8536 9.37951 35.8546 9.39909C35.8567 9.44295 36.2293 9.72066 36.2861 9.72066C36.3087 9.72066 36.3384 9.75 36.3522 9.7859C36.3796 9.85731 36.5157 9.82884 36.5001 9.75497C36.4948 9.73007 36.5159 9.70037 36.5468 9.68902C36.5778 9.67767 36.6002 9.68511 36.5966 9.70552C36.5821 9.78735 36.6027 9.85264 36.643 9.85264C36.6664 9.85264 36.6732 9.81802 36.658 9.77565C36.6422 9.73143 36.6472 9.71401 36.6697 9.73469C36.6914 9.75449 36.712 9.82915 36.7156 9.90056L36.7222 10.0304L36.6229 9.91481C36.5647 9.8471 36.5119 9.81798 36.4955 9.84455C36.4608 9.90073 36.7152 10.0884 36.7755 10.0511C36.8008 10.0355 36.8082 10.0529 36.7931 10.0923C36.7621 10.1732 36.8248 10.1826 36.899 10.1083C36.9772 10.0301 37.0826 10.0255 37.0535 10.1015C37.0399 10.1368 37.0003 10.1547 36.9653 10.1413C36.9232 10.1251 36.9066 10.1415 36.916 10.1901C36.9239 10.2304 36.9599 10.2714 36.9962 10.2813C37.0548 10.2973 37.0548 10.2937 36.9962 10.2486C36.9376 10.2036 36.9376 10.1999 36.9962 10.2159C37.0325 10.2258 37.0622 10.2578 37.0622 10.2869C37.0622 10.3486 37.1751 10.4279 37.2219 10.399C37.2396 10.3881 37.2683 10.4023 37.2858 10.4307C37.307 10.4649 37.297 10.4713 37.2559 10.4496C37.2219 10.4316 37.2436 10.4578 37.304 10.5078C37.4152 10.5997 37.504 10.6312 37.4626 10.5641C37.435 10.5194 37.5705 10.5258 37.6463 10.5727C37.6765 10.5914 37.6878 10.6285 37.6713 10.6551C37.6521 10.6862 37.6674 10.6935 37.7141 10.6756C37.7579 10.6588 37.7826 10.6681 37.7762 10.6992C37.7705 10.7274 37.7954 10.7515 37.8317 10.7526C37.8679 10.7537 37.8995 10.7843 37.9019 10.8206C37.9121 10.9749 37.9219 11.0004 37.9617 10.9757C37.9849 10.9614 37.9926 10.9206 37.979 10.8851C37.951 10.8122 38.0737 10.7935 38.1173 10.8641C38.1332 10.8899 38.1135 10.8958 38.0687 10.8786C38.0112 10.8565 38.0025 10.8645 38.0323 10.9121C38.0537 10.9464 38.0718 11.0034 38.0725 11.0386C38.0738 11.1117 38.348 11.1847 38.3703 11.1178C38.3782 11.0942 38.4115 11.1072 38.4442 11.1467C38.4956 11.2087 38.4939 11.2147 38.4316 11.1908C38.3915 11.1754 38.3594 11.1847 38.3594 11.2118C38.3594 11.2386 38.3804 11.2605 38.406 11.2605C38.4316 11.2605 38.4412 11.2789 38.4273 11.3014C38.4135 11.3238 38.4469 11.349 38.5017 11.3574C38.5565 11.3657 38.5958 11.3983 38.5892 11.4299C38.5808 11.4695 38.6078 11.4787 38.6772 11.4597C38.7581 11.4375 38.7634 11.441 38.7052 11.4778C38.6475 11.5142 38.5409 11.7665 38.5831 11.7665C38.5892 11.7665 38.5718 11.8083 38.5445 11.8594C38.5171 11.9105 38.4823 12.0194 38.467 12.1014C38.4518 12.1834 38.4327 12.2801 38.4247 12.3164C38.4167 12.3527 38.4086 12.4182 38.4068 12.462C38.4047 12.5107 38.3836 12.5294 38.3525 12.5101C38.3176 12.4885 38.3094 12.5085 38.3264 12.5736C38.3416 12.6318 38.334 12.6578 38.3067 12.6409C38.2787 12.6237 38.2732 12.6484 38.2917 12.7069C38.311 12.7677 38.3024 12.8004 38.2671 12.8004C38.2373 12.8004 38.2253 12.8128 38.2404 12.828C38.2556 12.8431 38.2383 12.913 38.202 12.9832C38.1657 13.0535 38.1478 13.1302 38.1623 13.1536C38.1769 13.1771 38.17 13.1963 38.147 13.1963C38.1241 13.1963 38.0901 13.2705 38.0714 13.3613C38.0251 13.5864 38.0209 13.6024 37.9824 13.6985C37.9589 13.7573 37.9641 13.7732 37.9997 13.7512C38.0332 13.7304 38.0414 13.7436 38.0237 13.7899C38.0089 13.8285 37.9858 13.8491 37.9725 13.8358C37.9388 13.8021 37.8283 14.1302 37.8517 14.1944C37.8622 14.2231 37.8532 14.2528 37.8319 14.2604C37.8105 14.268 37.7832 14.3283 37.7714 14.3945C37.7596 14.4606 37.7356 14.5379 37.7181 14.5663C37.6992 14.5968 37.7052 14.606 37.7329 14.5889C37.7622 14.5708 37.7711 14.5927 37.7567 14.6476C37.7441 14.6958 37.7131 14.7224 37.6879 14.7068C37.6423 14.6786 37.6528 14.7472 37.7227 14.9342C37.7553 15.0215 37.7551 15.0215 37.6882 14.9355C37.6241 14.8529 37.6189 14.8582 37.5807 15.0455C37.5543 15.1747 37.5561 15.2683 37.5863 15.3184C37.621 15.3762 37.6137 15.4132 37.556 15.4708C37.5088 15.5181 37.4799 15.5267 37.4799 15.4935C37.4799 15.4641 37.4997 15.4401 37.5239 15.4401C37.5481 15.4401 37.5679 15.4062 37.5679 15.3647C37.5679 15.2387 37.4464 15.394 37.4229 15.5501C37.412 15.6227 37.3691 15.7811 37.3276 15.9021C37.2861 16.0231 37.2454 16.1517 37.2371 16.188C37.2288 16.2243 37.193 16.3481 37.1574 16.463C37.1218 16.578 37.1057 16.6723 37.1215 16.6727C37.1372 16.6731 37.1247 16.6895 37.0937 16.7091C37.0627 16.7288 37.0307 16.819 37.0226 16.9094C37.0145 16.9999 36.9854 17.0963 36.958 17.1237C36.8839 17.1979 36.8978 17.2634 36.9742 17.2C37.011 17.1694 37.0402 17.1646 37.0402 17.1892C37.0402 17.2555 36.9272 17.3358 36.8862 17.2985C36.8664 17.2806 36.8624 17.3 36.8773 17.3415C36.8922 17.3831 36.8882 17.4271 36.8684 17.4394C36.835 17.4601 36.7512 17.7218 36.7128 17.9259C36.7036 17.9743 36.6747 18.0696 36.6483 18.1377C36.6159 18.2217 36.6146 18.2881 36.6444 18.3438C36.711 18.4683 36.6971 18.5034 36.6192 18.4072C36.5811 18.3603 36.5622 18.3462 36.5772 18.3759C36.5922 18.4057 36.5827 18.4749 36.5561 18.5299C36.5096 18.6257 36.5105 18.6263 36.576 18.5444C36.6136 18.4974 36.6444 18.4734 36.6444 18.491C36.6444 18.5086 36.6855 18.5009 36.7358 18.474C36.79 18.4449 36.817 18.3987 36.8022 18.3602C36.7886 18.3245 36.7961 18.3069 36.819 18.3211C36.8624 18.3479 37.0035 18.2813 37.1437 18.1679C37.1886 18.1316 37.2331 18.1068 37.2427 18.1129C37.2863 18.1404 37.3393 18.1166 37.4376 18.0249C37.496 17.9704 37.5591 17.9234 37.5779 17.9204C37.5966 17.9173 37.6341 17.9124 37.6612 17.9094C37.6942 17.9057 37.6905 17.8792 37.6502 17.8294C37.6038 17.7722 37.6032 17.763 37.6476 17.7898C37.6824 17.8107 37.7433 17.7922 37.8008 17.7432C37.8881 17.6688 37.891 17.6686 37.8349 17.7409C37.7761 17.8168 37.779 17.8168 37.9092 17.7421C38.0353 17.6697 38.0601 17.5959 37.9585 17.5959C37.9343 17.5959 37.9266 17.6155 37.9414 17.6394C37.9568 17.6643 37.9392 17.6718 37.9002 17.6568C37.792 17.6152 37.8739 17.5419 37.9947 17.5722C38.1166 17.6029 38.2429 17.5252 38.1966 17.448C38.1775 17.416 38.1907 17.4174 38.2333 17.4519C38.3073 17.5117 38.4034 17.4514 38.4034 17.3451C38.4034 17.3137 38.4343 17.2879 38.472 17.2879C38.5151 17.2879 38.5283 17.3083 38.5075 17.3429C38.4879 17.3755 38.509 17.371 38.5593 17.3319C38.7315 17.198 38.8146 17.112 38.7718 17.112C38.7476 17.112 38.6863 17.1507 38.6355 17.198C38.5572 17.271 38.5394 17.274 38.5178 17.2177C38.5034 17.1801 38.5112 17.163 38.5358 17.1783C38.5597 17.193 38.5793 17.1858 38.5793 17.1622C38.5793 17.1386 38.5567 17.1117 38.529 17.1025C38.5014 17.0933 38.5509 17.0837 38.6391 17.0812C38.7272 17.0787 38.8103 17.0943 38.8236 17.1158C38.8429 17.1472 38.9685 17.0921 39.1038 16.9928C39.1141 16.9852 39.0845 16.9485 39.0378 16.9111C38.9574 16.8466 38.9583 16.8457 39.0557 16.8931C39.1399 16.934 39.1743 16.9285 39.2472 16.8625C39.2961 16.8182 39.3456 16.7886 39.3571 16.7966C39.3687 16.8047 39.3898 16.7997 39.404 16.7856C39.4181 16.7713 39.3783 16.764 39.3155 16.7692C39.2527 16.7744 39.2128 16.7973 39.2269 16.8201C39.2418 16.8442 39.2284 16.8467 39.195 16.826C39.1571 16.8026 39.148 16.8076 39.1684 16.8407C39.1889 16.8738 39.175 16.8815 39.1276 16.8633C39.0744 16.8429 39.0698 16.827 39.1097 16.8023C39.1479 16.7787 39.1393 16.7628 39.0804 16.7481C39.0346 16.7367 39.1079 16.732 39.2435 16.7377C39.4297 16.7455 39.5273 16.7253 39.6432 16.655C39.7275 16.6039 39.7881 16.5372 39.7779 16.507C39.7661 16.4722 39.7846 16.4617 39.8281 16.4784C39.8693 16.4942 39.9855 16.4397 40.1178 16.3425C40.3501 16.1719 40.3799 16.0535 40.1621 16.1662C40.003 16.2485 39.961 16.2498 40.0269 16.1703C40.0662 16.1229 40.065 16.1032 40.0213 16.0853C39.9901 16.0725 40.0338 16.0709 40.1184 16.0819C40.2393 16.0975 40.2534 16.0927 40.1844 16.0598C40.1056 16.0222 40.1088 16.0185 40.2142 16.0243C40.279 16.0278 40.3237 16.0441 40.3136 16.0604C40.3036 16.0767 40.323 16.1131 40.3569 16.1412C40.4224 16.1956 40.4965 16.1341 40.4521 16.0623C40.4392 16.0415 40.4767 16.0297 40.5354 16.0362C40.5989 16.0431 40.6869 16.0063 40.7526 15.9454C40.8135 15.889 40.9035 15.8301 40.9528 15.8145C41.0021 15.7988 41.0967 15.7403 41.1631 15.6844C41.2295 15.6285 41.3036 15.5754 41.3278 15.5664C41.3519 15.5575 41.3649 15.5303 41.3566 15.5061C41.3127 15.3787 41.3169 15.3081 41.3685 15.3081C41.4003 15.3081 41.4239 15.3428 41.421 15.3851C41.4125 15.5084 41.4733 15.5025 41.7072 15.357C41.8457 15.2709 41.915 15.2014 41.8949 15.1688C41.8737 15.1344 41.8865 15.1263 41.9336 15.1443C41.9738 15.1597 42.0723 15.1251 42.1626 15.0638C42.2498 15.0046 42.3332 14.9562 42.348 14.9562C42.3628 14.9562 42.4431 14.9041 42.5264 14.8405C42.6431 14.7515 42.6643 14.7158 42.6185 14.6852C42.5801 14.6596 42.6058 14.6551 42.691 14.6724C42.7959 14.6938 42.8094 14.689 42.7569 14.6489C42.59 14.5212 42.9294 14.6712 43.1591 14.8266C43.2957 14.919 43.4194 14.9826 43.434 14.968C43.4486 14.9534 43.4606 14.967 43.4606 14.9982C43.4606 15.044 43.4734 15.0442 43.5275 14.9993C43.5831 14.9532 43.5901 14.9553 43.5685 15.0115C43.5542 15.0488 43.5667 15.0942 43.5963 15.1125C43.631 15.134 43.6387 15.1274 43.618 15.0939C43.5988 15.0628 43.6093 15.0468 43.6442 15.0541C43.6762 15.0607 43.6963 15.038 43.689 15.0037C43.6784 14.9547 43.6888 14.9523 43.7376 14.9929C43.7733 15.0226 43.8562 15.0332 43.9327 15.0179C44.0058 15.0032 44.0779 15.0112 44.0929 15.0356C44.1093 15.0621 44.085 15.0707 44.0323 15.0569C43.9831 15.044 43.9443 15.0555 43.9443 15.083C43.9443 15.1101 43.9728 15.1321 44.0076 15.1321C44.0425 15.1321 44.0832 15.1519 44.0981 15.176C44.1145 15.2025 44.0762 15.2003 44.0017 15.1707C43.8498 15.1102 43.6796 15.0858 43.6828 15.125C43.6879 15.1875 44.1321 15.445 44.1939 15.4212C44.2342 15.4058 44.2523 15.4172 44.2409 15.4511C44.2158 15.5254 44.5179 15.7066 44.617 15.6767C44.6605 15.6636 44.723 15.6752 44.756 15.7026C44.7972 15.7368 44.8248 15.738 44.8444 15.7062C44.8601 15.6809 44.8965 15.6604 44.9253 15.6608C44.9596 15.6612 44.9568 15.6747 44.9169 15.7C44.8692 15.7302 44.8765 15.7449 44.9505 15.7685C45.0413 15.7972 45.0412 15.8801 44.9505 15.8801C44.9263 15.8801 44.9208 15.8569 44.9383 15.8286C44.9599 15.7937 44.9458 15.7865 44.8947 15.8061C44.8443 15.8254 44.8295 15.8183 44.8503 15.7848C44.8687 15.755 44.8619 15.7465 44.8336 15.764C44.8074 15.7802 44.7735 15.7734 44.7583 15.7488C44.7431 15.7242 44.701 15.7041 44.6647 15.7041C44.6284 15.7041 44.6112 15.7242 44.6263 15.7488C44.6415 15.7734 44.6688 15.7843 44.6869 15.7732C44.705 15.7619 44.7691 15.7985 44.8293 15.8543C44.9377 15.955 45.1264 16.0735 45.1829 16.0765C45.199 16.0774 45.2271 16.0929 45.2452 16.1111C45.2962 16.1621 45.3604 16.15 45.3268 16.0957C45.3052 16.0608 45.3213 16.0603 45.3844 16.0941C45.4325 16.1199 45.4802 16.1326 45.4904 16.1224C45.5006 16.1122 45.5119 16.1428 45.5155 16.1904C45.5213 16.2687 45.5155 16.2705 45.4535 16.2084C45.4158 16.1707 45.3739 16.1509 45.3604 16.1644C45.3242 16.2006 45.4976 16.3165 45.5446 16.2874C45.5666 16.2737 45.6104 16.2978 45.6419 16.3408C45.6786 16.3911 45.7268 16.4084 45.7768 16.3892C45.8195 16.3728 45.8404 16.3734 45.8232 16.3906C45.7782 16.4358 45.8772 16.5406 45.9615 16.5369C46.0166 16.5346 46.0128 16.5251 45.9451 16.496C45.8871 16.4711 45.8797 16.4574 45.9232 16.4558C45.9594 16.4544 46.0155 16.4701 46.0478 16.4906C46.094 16.5199 46.0899 16.5341 46.0281 16.5578C45.9601 16.5839 45.9669 16.5985 46.0794 16.6678C46.1507 16.7117 46.2537 16.7433 46.3083 16.7379C46.3926 16.7295 46.3993 16.7382 46.3523 16.7952C46.3045 16.8533 46.3089 16.8562 46.3849 16.8169C46.4682 16.7738 46.6115 16.774 46.6547 16.8172C46.6656 16.8282 46.6429 16.8492 46.6044 16.864C46.5658 16.8789 46.5453 16.8731 46.5587 16.8513C46.5869 16.8057 46.4652 16.8152 46.4301 16.8614C46.4173 16.8782 46.4195 16.8827 46.435 16.8712C46.4504 16.8598 46.522 16.9001 46.5942 16.9608C46.6662 17.0215 46.7872 17.1032 46.8629 17.1424C46.9965 17.2114 46.9986 17.211 46.9378 17.1298C46.9032 17.0837 46.9288 17.1004 46.9945 17.167C47.1253 17.2993 47.1766 17.3148 47.225 17.2365C47.2469 17.201 47.2321 17.1945 47.1774 17.2155C47.1106 17.2412 47.1067 17.2355 47.1532 17.1794C47.1836 17.1428 47.226 17.1238 47.2474 17.137C47.3007 17.17 47.2968 17.2879 47.2424 17.2879C47.1162 17.2879 47.3363 17.5037 47.4848 17.5255C47.515 17.5299 47.6065 17.5836 47.688 17.6448C47.8927 17.7987 47.9663 17.8403 47.9301 17.7818C47.9139 17.7555 47.9212 17.7213 47.9464 17.7057C47.9716 17.6901 47.9875 17.6937 47.9817 17.7136C47.9618 17.7828 48.0783 17.9421 48.1702 17.9712C48.221 17.9874 48.3004 18.0385 48.3468 18.0849C48.4007 18.1388 48.4707 18.1621 48.5404 18.1495C48.6004 18.1386 48.6496 18.1503 48.6496 18.1755C48.6496 18.2007 48.615 18.2092 48.5727 18.1945C48.5085 18.1721 48.5099 18.1786 48.5811 18.2338C48.6823 18.3121 48.7557 18.3207 48.7114 18.249C48.6927 18.2187 48.6993 18.2101 48.7277 18.2278C48.754 18.244 48.7879 18.2372 48.8031 18.2126C48.8182 18.188 48.8076 18.1679 48.7794 18.1679C48.7475 18.1679 48.7405 18.1388 48.7608 18.0909C48.7787 18.0485 48.8099 17.9446 48.8301 17.8599C48.8608 17.7311 48.8637 17.7437 48.8482 17.9369C48.8371 18.0756 48.8474 18.1679 48.8741 18.1679C48.8986 18.1679 48.9056 18.189 48.8897 18.2148C48.8725 18.2426 48.8916 18.256 48.9364 18.2478C48.991 18.2377 49.016 18.2683 49.026 18.3573L49.0399 18.4807L48.9515 18.3683C48.8516 18.2412 48.7962 18.2247 48.7962 18.3218C48.7962 18.3581 48.8161 18.3878 48.8404 18.3878C48.8646 18.3878 48.92 18.42 48.9633 18.4592C49.0066 18.4984 49.0707 18.5195 49.1055 18.5061C49.1596 18.4854 49.1605 18.4569 49.1113 18.3138C49.0796 18.2214 49.027 18.1459 48.9945 18.1459C48.962 18.1459 48.9314 18.0964 48.9266 18.0359L48.9177 17.9259L48.9504 18.0354C48.9685 18.0957 48.9961 18.1241 49.0119 18.0985C49.0397 18.0535 48.9709 17.8064 48.8995 17.6949C48.8801 17.6646 48.8741 17.6241 48.886 17.6048C48.8979 17.5855 48.8895 17.541 48.8672 17.5058C48.8395 17.462 48.8267 17.4592 48.8262 17.4969C48.8258 17.5272 48.8071 17.5519 48.7846 17.5519C48.7614 17.5519 48.7578 17.4996 48.7763 17.4309C48.815 17.2868 48.7928 17.156 48.7296 17.156C48.7046 17.156 48.6971 17.1221 48.713 17.0808C48.732 17.0314 48.7072 16.9772 48.6408 16.9227C48.575 16.8688 48.5654 16.848 48.6133 16.8632C48.6811 16.8848 48.6817 16.8742 48.6198 16.726C48.5829 16.6377 48.5448 16.5015 48.5351 16.4233C48.5254 16.3452 48.4947 16.2257 48.4668 16.1576C48.439 16.0897 48.4108 16.0044 48.4042 15.9681C48.3596 15.7222 48.177 15.2323 48.1121 15.1846C48.0315 15.1253 48.0031 14.9562 48.0738 14.9562C48.0957 14.9562 48.1029 14.9149 48.0897 14.8644C48.0712 14.7939 48.0567 14.7863 48.0265 14.8314C48.0012 14.8694 47.9968 14.8493 48.0141 14.7744C48.0412 14.6573 47.8762 14.1919 47.8199 14.2266C47.8046 14.236 47.7892 14.1963 47.7858 14.1383C47.7823 14.0803 47.7953 14.0426 47.8146 14.0546C47.834 14.0666 47.8288 14.0078 47.8031 13.924C47.7774 13.8402 47.7376 13.7832 47.7146 13.7974C47.6902 13.8125 47.6846 13.7858 47.7012 13.7335C47.7169 13.6841 47.7091 13.631 47.684 13.6154C47.6588 13.5998 47.6382 13.5487 47.6382 13.5017C47.6382 13.4547 47.6191 13.4163 47.5957 13.4163C47.5133 13.4163 47.4604 13.251 47.5052 13.1332C47.535 13.0547 47.5334 13.0203 47.5001 13.0203C47.4736 13.0203 47.4624 12.9807 47.475 12.9324C47.4877 12.884 47.4801 12.8444 47.4581 12.8444C47.4362 12.8444 47.4167 12.879 47.4148 12.9214C47.4126 12.9697 47.403 12.9774 47.3887 12.9419C47.3762 12.9108 47.3881 12.8588 47.4151 12.8262C47.4492 12.7851 47.4508 12.7319 47.4203 12.6517C47.3668 12.5108 47.3136 12.4981 47.3523 12.6354C47.3738 12.7122 47.3699 12.7195 47.3347 12.6684C47.3097 12.6321 47.2992 12.5456 47.3113 12.4762C47.3238 12.4049 47.2898 12.2193 47.2329 12.0488C47.1478 11.7934 47.1187 11.7498 47.0425 11.7634C46.9775 11.775 46.9507 11.7544 46.9458 11.6894C46.9407 11.6216 46.9515 11.6118 46.9896 11.6499C47.0734 11.7338 47.1297 11.7066 47.0513 11.62C46.9693 11.5293 46.9585 11.4805 47.0206 11.4805C47.0911 11.4805 47.5495 11.1425 47.5196 11.1126C47.5042 11.0972 47.5246 11.0845 47.5649 11.0845C47.6052 11.0845 47.6382 11.0647 47.6382 11.0405C47.6382 11.0163 47.662 11.0015 47.6912 11.0075C47.7203 11.0136 47.745 10.9888 47.7461 10.9525C47.7472 10.9162 47.7679 10.8857 47.7921 10.8847C47.8514 10.8822 48.1219 10.7363 48.1219 10.7068C48.1219 10.6939 48.1039 10.6945 48.0818 10.7082C48.0597 10.7218 48.0454 10.7081 48.05 10.6778C48.0636 10.588 48.1233 10.5125 48.1795 10.514C48.2083 10.5147 48.1966 10.5421 48.1536 10.5748C48.0916 10.6219 48.0879 10.639 48.1362 10.6575C48.1696 10.6704 48.2285 10.644 48.267 10.5989C48.3318 10.5232 48.3304 10.5149 48.2482 10.4888C48.1993 10.4732 48.1679 10.4519 48.1785 10.4414C48.189 10.4308 48.2494 10.4418 48.3127 10.4659C48.4137 10.5043 48.4519 10.4887 48.626 10.338C48.735 10.2436 48.8833 10.1314 48.9554 10.0888C49.093 10.0075 49.1655 9.89664 49.0812 9.89664C49.0531 9.89664 49.0633 9.86175 49.1046 9.81608C49.1447 9.77178 49.1642 9.72228 49.1481 9.70609C49.1319 9.6899 49.1418 9.67666 49.17 9.67666C49.2348 9.67666 49.2359 9.7324 49.1723 9.79602C49.0995 9.86888 49.1681 9.95907 49.2467 9.89378C49.2806 9.86567 49.2983 9.82647 49.2861 9.80671C49.2738 9.78691 49.2839 9.75832 49.3085 9.74309C49.3331 9.72791 49.3532 9.7372 49.3532 9.76377C49.3532 9.79488 49.3752 9.79189 49.4148 9.75537C49.462 9.71186 49.4646 9.6833 49.4258 9.63266C49.3814 9.57481 49.385 9.57433 49.4546 9.62906C49.5245 9.68405 49.545 9.68031 49.628 9.59725C49.7345 9.49074 49.7302 9.48039 49.5621 9.44005C49.4903 9.4228 49.4412 9.42923 49.4412 9.45585C49.4412 9.48048 49.4708 9.50068 49.5071 9.50068C49.5434 9.50068 49.5731 9.52118 49.5731 9.54621C49.5731 9.5771 49.5448 9.57661 49.4851 9.54467C49.3743 9.48532 49.3734 9.42852 49.4822 9.37023C49.5895 9.31277 49.6614 9.31154 49.5731 9.36869C49.5204 9.40279 49.5292 9.41251 49.6171 9.41722C49.6775 9.42047 49.7433 9.42025 49.7632 9.41682C49.7832 9.41335 49.7871 9.43055 49.7719 9.4551C49.7557 9.48136 49.7728 9.4888 49.8134 9.47318C49.8514 9.45857 49.8772 9.41475 49.8707 9.37573C49.8642 9.3367 49.8886 9.30432 49.9249 9.30375C50.021 9.30221 50.1714 9.20463 50.1345 9.16776C50.1171 9.15038 50.0727 9.16121 50.0359 9.19183C49.999 9.22245 49.9689 9.22843 49.9689 9.20516C49.9689 9.16191 50.157 9.06072 50.2374 9.06072C50.2619 9.06072 50.2694 9.08082 50.2543 9.10542C50.239 9.13001 50.2051 9.13688 50.1789 9.12064C50.1505 9.10304 50.1438 9.11158 50.1625 9.1418C50.2134 9.22421 50.5018 8.97044 50.4702 8.87097C50.452 8.81346 50.4719 8.78346 50.5403 8.76555C50.6038 8.74896 50.6183 8.72965 50.5835 8.70814C50.5459 8.68491 50.5449 8.66726 50.5798 8.64566C50.6066 8.62912 50.6285 8.63867 50.6285 8.66687C50.6285 8.69635 50.6592 8.70638 50.7006 8.69045C50.7615 8.66713 50.7639 8.67347 50.7164 8.73075C50.6689 8.78803 50.6714 8.79437 50.7322 8.77105C50.7719 8.75578 50.8044 8.7245 50.8044 8.70145C50.8044 8.6784 50.8206 8.66955 50.8404 8.68178C50.8601 8.69406 50.9256 8.65833 50.9858 8.6025C51.046 8.54667 51.1386 8.47773 51.1917 8.44931C51.2447 8.42093 51.2881 8.36932 51.2881 8.33461C51.2881 8.29664 51.3144 8.28164 51.3541 8.29686C51.4005 8.31468 51.42 8.2933 51.42 8.2248C51.42 8.1563 51.4396 8.13491 51.486 8.15273C51.5223 8.16664 51.552 8.15885 51.552 8.13544C51.552 8.11199 51.5809 8.09281 51.6162 8.09281C51.7275 8.09281 51.8991 7.86914 51.8834 7.74454C51.872 7.65466 51.8887 7.62949 51.9633 7.6243C52.1355 7.61229 52.2337 7.57577 52.2231 7.5276C52.2172 7.50093 52.2433 7.49183 52.2825 7.50687C52.3462 7.53134 52.3462 7.5217 52.2822 7.39781C52.2126 7.26327 52.2472 7.17532 52.3457 7.23621C52.3774 7.25583 52.3763 7.28333 52.3422 7.32442C52.3022 7.37269 52.3165 7.38135 52.417 7.36952C52.4855 7.36147 52.5414 7.351 52.5414 7.34625C52.5414 7.34145 52.5866 7.33256 52.6419 7.32645C52.6972 7.32033 52.7665 7.2894 52.7958 7.25768C52.8327 7.21787 52.8333 7.20889 52.798 7.22873C52.7698 7.24453 52.7402 7.24048 52.732 7.21976C52.7239 7.19904 52.4437 7.16863 52.1093 7.15218C51.722 7.13317 51.5107 7.13775 51.5274 7.16476C51.544 7.19169 51.501 7.19134 51.4099 7.16384C51.3308 7.13995 50.9549 7.11298 50.5745 7.10383C50.1941 7.09472 49.8631 7.0751 49.839 7.06018C49.7996 7.03581 49.5646 7.02349 48.1219 6.97017C47.2519 6.93805 46.8517 6.91328 46.8128 6.88917C46.7906 6.87549 46.4187 6.8553 45.9863 6.8443C45.381 6.8289 45.1964 6.81082 45.1845 6.76563C45.1739 6.72582 45.1841 6.72815 45.2162 6.77293C45.2556 6.82789 45.27 6.8289 45.3022 6.77896C45.3336 6.73022 45.3444 6.72982 45.36 6.77672C45.3737 6.81755 45.388 6.81192 45.4089 6.75745C45.4276 6.7087 45.4214 6.69093 45.392 6.70905C45.3665 6.72485 45.3493 6.71103 45.3538 6.67834C45.3704 6.55687 45.3501 6.46496 45.3067 6.46496C45.282 6.46496 45.2692 6.50949 45.2783 6.56395C45.2873 6.61842 45.2856 6.63532 45.2747 6.60157C45.2576 6.54944 45.249 6.54935 45.217 6.601C45.1898 6.64504 45.1815 6.63496 45.1868 6.56453C45.1908 6.51103 45.2196 6.45749 45.2508 6.44547C45.282 6.43351 45.3075 6.40214 45.3075 6.37574C45.3075 6.34939 45.2844 6.34208 45.256 6.35959C45.223 6.38005 45.2133 6.36861 45.2291 6.32757C45.2425 6.29241 45.2258 6.20504 45.1919 6.13337C45.158 6.06165 45.1386 6.03438 45.1488 6.07265C45.1589 6.11115 45.1404 6.14234 45.1074 6.14234C45.0744 6.14234 45.0572 6.12664 45.0691 6.10745C45.0809 6.08827 45.0664 6.0338 45.0368 5.98638C44.9934 5.91691 44.9953 5.88501 45.0463 5.82214C45.0999 5.75606 45.1001 5.7499 45.0472 5.7818C44.9989 5.81088 44.9916 5.80028 45.0148 5.73525C45.0368 5.67352 45.0214 5.68043 44.9572 5.76103C44.9091 5.82153 44.8695 5.89082 44.8694 5.91502C44.8692 5.93921 44.8883 5.92931 44.9117 5.89302C44.9484 5.83613 44.9544 5.83732 44.955 5.90142C44.956 6.0031 44.8831 6.04049 44.8504 5.95514C44.8028 5.83116 44.8222 5.65087 44.8942 5.548C44.933 5.49266 44.9528 5.43546 44.9382 5.4209C44.9236 5.40634 44.9117 5.41751 44.9117 5.44571C44.9117 5.47396 44.8912 5.49706 44.8662 5.49706C44.8353 5.49706 44.8358 5.46872 44.8678 5.40906C44.894 5.35988 44.8969 5.32107 44.8742 5.32107C44.8518 5.32107 44.8345 5.2963 44.8356 5.26608C44.8421 5.09128 44.8229 5.06876 44.6809 5.08442C44.5868 5.0948 44.5587 5.08701 44.5985 5.06158C44.6319 5.04034 44.6458 5.00135 44.6295 4.97491C44.6132 4.94852 44.6211 4.88719 44.647 4.83866C44.6842 4.76928 44.6734 4.71023 44.5966 4.56276C44.5429 4.45959 44.4978 4.35536 44.4964 4.33117C44.4951 4.30697 44.4822 4.28717 44.4678 4.28717C44.3993 4.28717 44.2964 4.1565 44.2988 4.07282C44.3016 3.98092 44.3024 3.981 44.3414 4.07819C44.3633 4.13261 44.4056 4.17718 44.4354 4.17718C44.4775 4.17718 44.4778 4.16543 44.4368 4.12439C44.4078 4.09535 44.384 4.03477 44.384 3.9898C44.384 3.94484 44.3643 3.92024 44.3401 3.93516C44.3159 3.95007 44.2993 3.92654 44.3031 3.88276C44.316 3.73485 44.2963 3.64923 44.2495 3.64923C44.2239 3.64923 44.2171 3.67211 44.2343 3.70005C44.2538 3.7315 44.2464 3.73889 44.2149 3.7194C44.1846 3.70062 44.1642 3.71663 44.1642 3.75922C44.1642 3.79838 44.1839 3.81817 44.2081 3.80322C44.2323 3.78826 44.2521 3.79701 44.2521 3.82262C44.2521 3.8938 44.1648 3.87805 44.1354 3.80159C44.1212 3.76437 44.1447 3.69507 44.1876 3.6476C44.2397 3.59001 44.2472 3.56124 44.2102 3.56124C44.1797 3.56124 44.1653 3.5337 44.1782 3.50008C44.1911 3.46643 44.1635 3.39797 44.117 3.34795C44.0261 3.25036 44.004 3.18661 44.0766 3.23149C44.1229 3.26018 44.043 3.04354 43.9799 2.9695C43.9603 2.94653 43.9443 2.89285 43.9443 2.85022C43.9443 2.80759 43.8997 2.72945 43.8453 2.67657C43.7909 2.62369 43.7745 2.59645 43.8088 2.61608C43.8559 2.643 43.864 2.63279 43.8416 2.57446C43.8253 2.53196 43.8 2.44951 43.7854 2.39126C43.7708 2.33301 43.7263 2.28505 43.6867 2.2847C43.6239 2.28408 43.6231 2.27832 43.6804 2.2407C43.7345 2.2052 43.7358 2.1905 43.6877 2.15944C43.6554 2.13859 43.6301 2.10396 43.6315 2.08245C43.6357 2.01936 43.5299 1.80141 43.4952 1.80141C43.4777 1.80141 43.4739 1.82908 43.4869 1.86296C43.4999 1.89679 43.4936 1.93493 43.4729 1.94774C43.4522 1.96054 43.4344 1.89402 43.4334 1.79991C43.4316 1.6505 43.4386 1.63836 43.4886 1.70413C43.52 1.74553 43.5463 1.76709 43.5471 1.752C43.55 1.69511 43.3566 1.29114 43.2784 1.19052C43.1882 1.07464 43.1696 0.987526 43.2451 1.03421C43.2791 1.05519 43.2786 1.03636 43.2435 0.970808C43.1877 0.866406 43.1301 0.843044 43.1672 0.939835C43.1804 0.974152 43.1637 1.01274 43.1302 1.02558C43.0647 1.05075 43.0848 0.948062 43.1658 0.84344C43.1897 0.812599 43.1965 0.774674 43.181 0.7591C43.1654 0.743569 43.1524 0.75888 43.1521 0.793153C43.1515 0.8452 43.1446 0.844804 43.1104 0.790645C43.0847 0.750037 43.0854 0.715896 43.1124 0.699266C43.1371 0.683955 43.1153 0.621833 43.0611 0.552803C43.0092 0.486854 42.9789 0.420728 42.9938 0.405901C43.0087 0.391031 43.0208 0.405285 43.0208 0.437534C43.0208 0.469783 43.0314 0.485534 43.0444 0.472555C43.0775 0.439426 42.9753 0.226222 42.9159 0.204444C42.889 0.194589 42.8417 0.195293 42.811 0.206028ZM42.8889 0.300839C42.8889 0.322441 42.8592 0.351523 42.8229 0.365469C42.7559 0.391207 42.7328 0.344307 42.7863 0.290896C42.8283 0.248836 42.8889 0.254732 42.8889 0.300839ZM42.8669 0.48153C42.8818 0.505728 42.8731 0.525526 42.8475 0.525526C42.8219 0.525526 42.8009 0.505728 42.8009 0.48153C42.8009 0.457332 42.8096 0.437534 42.8203 0.437534C42.831 0.437534 42.8519 0.457332 42.8669 0.48153ZM42.6865 0.82615C42.6989 0.846344 42.6803 0.862842 42.6451 0.862842C42.6099 0.862842 42.581 0.846344 42.581 0.82615C42.581 0.806 42.5996 0.789501 42.6224 0.789501C42.6452 0.789501 42.674 0.806 42.6865 0.82615ZM43.1936 1.24305C43.1906 1.33597 43.1892 1.33628 43.1527 1.25146C43.1166 1.16738 43.1148 1.16721 43.1118 1.24781C43.1102 1.29418 43.0971 1.3204 43.0828 1.3061C43.042 1.26536 43.1102 1.09316 43.1559 1.12141C43.1783 1.13531 43.1953 1.19004 43.1936 1.24305ZM43.3286 1.31745C43.3286 1.34165 43.3088 1.36145 43.2846 1.36145C43.2605 1.36145 43.2407 1.34165 43.2407 1.31745C43.2407 1.29325 43.2605 1.27346 43.2846 1.27346C43.3088 1.27346 43.3286 1.29325 43.3286 1.31745ZM43.2377 1.43844C43.2773 1.50558 43.2887 1.50699 43.3271 1.44944C43.3539 1.4094 43.3715 1.40408 43.3719 1.43584C43.3732 1.53637 43.2773 1.5461 43.1916 1.4541C43.1441 1.40315 43.1249 1.36145 43.1488 1.36145C43.1727 1.36145 43.2127 1.39612 43.2377 1.43844ZM43.0948 1.5457C43.0808 1.58077 43.0704 1.57034 43.0682 1.51908C43.0664 1.47271 43.0767 1.44675 43.0913 1.46136C43.1059 1.47597 43.1075 1.51394 43.0948 1.5457ZM42.3484 1.75794C42.3402 1.87532 42.3329 1.88192 42.2842 1.81553C42.254 1.7743 42.2296 1.71962 42.2299 1.69401C42.2303 1.66836 42.2498 1.67712 42.2732 1.71341C42.3096 1.76982 42.316 1.76823 42.3165 1.70241C42.3169 1.66009 42.3263 1.62542 42.3374 1.62542C42.3485 1.62542 42.3535 1.68508 42.3484 1.75794ZM42.3436 2.04778C42.3279 2.08857 42.3052 2.11206 42.2931 2.09996C42.281 2.08786 42.2839 2.04457 42.2996 2.00379C42.3153 1.963 42.338 1.93951 42.35 1.95161C42.3621 1.96371 42.3592 2.007 42.3436 2.04778ZM43.5061 2.06248C43.481 2.10929 43.4612 2.17365 43.4621 2.20546C43.463 2.23732 43.4908 2.21426 43.524 2.15421L43.5844 2.0451L43.5775 2.15971C43.5705 2.2741 43.4609 2.3085 43.4271 2.20696C43.4104 2.15676 43.4905 1.97739 43.5296 1.97739C43.5417 1.97739 43.5311 2.01567 43.5061 2.06248ZM42.2492 2.19737C42.2719 2.28149 42.2681 2.29183 42.2328 2.24136C42.2015 2.19671 42.1864 2.19314 42.1859 2.23036C42.1856 2.26063 42.1643 2.28536 42.1387 2.28536C42.1124 2.28536 42.1071 2.26147 42.1266 2.23036C42.1456 2.20014 42.1549 2.13577 42.1474 2.08738C42.1285 1.9663 42.2106 2.05495 42.2492 2.19737ZM42.0094 2.74472C42.0094 2.75541 41.9896 2.77635 41.9654 2.79131C41.9412 2.80627 41.9214 2.79752 41.9214 2.77191C41.9214 2.7463 41.9412 2.72532 41.9654 2.72532C41.9896 2.72532 42.0094 2.73403 42.0094 2.74472ZM43.9882 3.00456C43.9882 3.04244 43.8095 3.22106 43.7905 3.20214C43.7789 3.19044 43.8094 3.13778 43.8585 3.08507C43.941 2.99651 43.9882 2.96716 43.9882 3.00456ZM44.0066 3.22498C43.9913 3.26475 43.961 3.29726 43.9392 3.29726C43.9174 3.29726 43.9237 3.25855 43.9532 3.21125C44.0155 3.11156 44.047 3.11965 44.0066 3.22498ZM41.6005 3.633C41.5852 3.64831 41.5929 3.70273 41.6176 3.75398C41.6612 3.84462 41.6605 3.84484 41.594 3.76182C41.5126 3.66019 41.5066 3.60523 41.577 3.60523C41.6051 3.60523 41.6157 3.61773 41.6005 3.633ZM41.531 3.9869C41.4792 4.07608 41.4667 4.04752 41.5091 3.93692C41.5241 3.89759 41.5458 3.87467 41.5571 3.88602C41.5684 3.89732 41.5567 3.94273 41.531 3.9869ZM44.2168 3.95117C44.2499 3.90383 44.2555 3.90348 44.2434 3.9495C44.2247 4.01998 44.1478 4.02702 44.1356 3.9594C44.1299 3.92812 44.1353 3.92869 44.1508 3.96107C44.1677 3.9964 44.1872 3.99345 44.2168 3.95117ZM44.3225 4.34133C44.2873 4.37657 44.2692 4.35259 44.2315 4.22118L44.2 4.11119L44.2745 4.21304C44.3155 4.26904 44.3371 4.32677 44.3225 4.34133ZM44.5674 4.82612C44.5456 4.86849 44.5366 4.93281 44.5472 4.96911C44.5639 5.02586 44.5604 5.02617 44.5224 4.97148C44.4812 4.91226 44.5272 4.74913 44.585 4.74913C44.5971 4.74913 44.5892 4.78375 44.5674 4.82612ZM44.6701 4.88076C44.6553 4.90478 44.6612 4.95683 44.6834 4.99638C44.7109 5.04557 44.7334 5.05265 44.7543 5.01873C44.7712 4.99146 44.7647 4.96911 44.7398 4.96911C44.7149 4.96911 44.706 4.93941 44.7199 4.90311C44.7482 4.82933 44.7119 4.81305 44.6701 4.88076ZM41.1159 5.06537C41.1019 5.10043 41.0915 5.09001 41.0894 5.03875C41.0875 4.99238 41.0979 4.96642 41.1125 4.98103C41.1271 4.99564 41.1286 5.0336 41.1159 5.06537ZM40.9154 5.24483C40.872 5.28794 40.867 5.28288 40.8908 5.22019C40.9074 5.17681 40.9319 5.15239 40.9455 5.16594C40.959 5.17945 40.9455 5.21495 40.9154 5.24483ZM40.9349 5.42006C40.9235 5.47453 40.8951 5.57845 40.8719 5.65104C40.8396 5.75184 40.8287 5.76116 40.8258 5.69059C40.8219 5.59499 40.9044 5.32107 40.9371 5.32107C40.9473 5.32107 40.9464 5.36564 40.9349 5.42006ZM44.9198 5.59459C44.8912 5.62324 44.8678 5.67678 44.8678 5.71365C44.8678 5.75962 44.8898 5.74906 44.9382 5.67999C45.0154 5.56978 45.0028 5.51153 44.9198 5.59459ZM45.0436 5.88783C45.0436 5.91202 45.0634 5.94405 45.0876 5.95901C45.1118 5.97397 45.1316 5.9664 45.1316 5.94221C45.1316 5.91801 45.1118 5.88598 45.0876 5.87102C45.0634 5.85606 45.0436 5.86363 45.0436 5.88783ZM44.9612 6.12474C44.9177 6.16786 44.9127 6.1628 44.9365 6.10011C44.9531 6.05673 44.9776 6.03231 44.9912 6.04586C45.0047 6.05937 44.9912 6.09487 44.9612 6.12474ZM40.5734 6.31287C40.559 6.35022 40.5379 6.37134 40.5264 6.35981C40.5148 6.34829 40.5184 6.31771 40.5344 6.29193C40.5778 6.22171 40.6031 6.23535 40.5734 6.31287ZM40.5869 6.53773C40.5916 6.61789 40.582 6.63554 40.5564 6.59409C40.5268 6.54618 40.5006 6.55524 40.4287 6.63809C40.379 6.69546 40.3383 6.76246 40.3383 6.78701C40.3383 6.81152 40.3257 6.819 40.3104 6.80364C40.2801 6.77338 40.3764 6.60918 40.4924 6.49312C40.5834 6.40196 40.5789 6.39985 40.5869 6.53773ZM40.5882 6.8252C40.5742 6.86027 40.5638 6.84984 40.5617 6.79858C40.5598 6.75221 40.5702 6.72626 40.5848 6.74086C40.5994 6.75547 40.6009 6.79344 40.5882 6.8252ZM38.7662 7.02398C38.7118 7.03445 38.6227 7.03445 38.5683 7.02398C38.5139 7.01346 38.5584 7.00488 38.6673 7.00488C38.7761 7.00488 38.8206 7.01346 38.7662 7.02398ZM47.6712 7.02442C47.6046 7.03449 47.4958 7.03449 47.4293 7.02442C47.3628 7.01434 47.4172 7.00611 47.5502 7.00611C47.6833 7.00611 47.7377 7.01434 47.6712 7.02442ZM48.4297 7.03396C48.4297 7.0835 48.2579 7.14364 48.2212 7.10691C48.2069 7.09261 48.2282 7.08091 48.2685 7.08091C48.3088 7.08091 48.3418 7.06111 48.3418 7.03691C48.3418 7.01271 48.3616 6.99291 48.3858 6.99291C48.4099 6.99291 48.4297 7.01139 48.4297 7.03396ZM36.7983 7.08091C36.7499 7.10172 36.6708 7.11813 36.6224 7.11742C36.5517 7.11637 36.556 7.10924 36.6444 7.08091C36.7948 7.03273 36.9104 7.03273 36.7983 7.08091ZM37.1281 7.08091C37.0919 7.10436 37.0325 7.12248 36.9962 7.12112C36.9527 7.11953 36.9602 7.10585 37.0182 7.08091C37.1391 7.02895 37.2085 7.02895 37.1281 7.08091ZM47.0005 7.08091C46.9486 7.10326 46.9381 7.11997 46.9749 7.12182C47.0092 7.12349 47.0253 7.13678 47.0108 7.1513C46.9713 7.19081 46.8852 7.12521 46.9145 7.07787C46.9284 7.05534 46.9732 7.03832 47.0141 7.03999C47.0748 7.04254 47.0722 7.05007 47.0005 7.08091ZM47.1984 7.08091C47.1984 7.1051 47.1897 7.1249 47.179 7.1249C47.1683 7.1249 47.1474 7.1051 47.1325 7.08091C47.1175 7.05671 47.1263 7.03691 47.1519 7.03691C47.1775 7.03691 47.1984 7.05671 47.1984 7.08091ZM48.1109 7.06722C48.0686 7.07831 47.9993 7.07831 47.957 7.06722C47.9147 7.05618 47.9493 7.04712 48.034 7.04712C48.1186 7.04712 48.1533 7.05618 48.1109 7.06722ZM49.1098 7.07686C49.187 7.10708 49.183 7.11395 49.0716 7.14193C49.0031 7.15913 48.9362 7.1623 48.9229 7.14906C48.9097 7.13577 48.9367 7.12292 48.9831 7.1205C49.0487 7.11711 49.0431 7.10836 48.9574 7.08091C48.869 7.05257 48.8647 7.04545 48.9354 7.04439C48.9838 7.04369 49.0623 7.05829 49.1098 7.07686ZM49.4412 7.08091C49.4774 7.10436 49.4873 7.12354 49.4631 7.12354C49.439 7.12354 49.3895 7.10436 49.3532 7.08091C49.3169 7.05746 49.307 7.03827 49.3312 7.03827C49.3554 7.03827 49.4049 7.05746 49.4412 7.08091ZM36.2376 7.11122C36.1953 7.12231 36.126 7.12231 36.0837 7.11122C36.0414 7.10018 36.076 7.09111 36.1607 7.09111C36.2453 7.09111 36.2799 7.10018 36.2376 7.11122ZM37.5349 7.11003C37.5047 7.12226 37.4552 7.12226 37.425 7.11003C37.3948 7.09785 37.4195 7.08786 37.4799 7.08786C37.5404 7.08786 37.5652 7.09785 37.5349 7.11003ZM38.5896 7.11628C38.5316 7.12495 38.5024 7.15108 38.5195 7.17884C38.5379 7.20863 38.5282 7.21369 38.4937 7.19235C38.4633 7.17356 38.3366 7.14356 38.2121 7.12565C38.0073 7.09622 38.0192 7.09349 38.3374 7.09723C38.5309 7.09947 38.6444 7.10805 38.5896 7.11628ZM47.3804 7.15957C47.3486 7.17013 47.3018 7.1579 47.2762 7.13229C47.2435 7.09965 47.2607 7.09393 47.3339 7.11307C47.3933 7.12864 47.4133 7.14857 47.3804 7.15957ZM47.7157 7.11113C47.6736 7.12213 47.5945 7.12253 47.5398 7.11201C47.4851 7.1015 47.5194 7.09248 47.6162 7.09199C47.7129 7.09151 47.7577 7.10013 47.7157 7.11113ZM35.5129 7.15376C35.4831 7.16582 35.4237 7.16657 35.381 7.15539C35.3382 7.14422 35.3625 7.13436 35.4351 7.13348C35.5077 7.1326 35.5427 7.14171 35.5129 7.15376ZM35.8089 7.1689C35.8089 7.1931 35.8002 7.21289 35.7895 7.21289C35.7788 7.21289 35.7579 7.1931 35.7429 7.1689C35.728 7.1447 35.7367 7.1249 35.7623 7.1249C35.7879 7.1249 35.8089 7.1447 35.8089 7.1689ZM37.9078 7.15148C37.8932 7.16608 37.8552 7.16767 37.8235 7.15495C37.7884 7.14092 37.7988 7.13049 37.8501 7.12838C37.8964 7.12649 37.9224 7.13687 37.9078 7.15148ZM38.8312 7.15148C38.8166 7.16608 38.7787 7.16767 38.747 7.15495C38.7119 7.14092 38.7223 7.13049 38.7736 7.12838C38.8199 7.12649 38.8458 7.13687 38.8312 7.15148ZM48.5727 7.15403C48.5424 7.16626 48.493 7.16626 48.4627 7.15403C48.4325 7.14184 48.4572 7.13185 48.5177 7.13185C48.5781 7.13185 48.6029 7.14184 48.5727 7.15403ZM50.1448 7.16951C50.1912 7.19996 50.1651 7.2044 50.0568 7.18452C49.8671 7.14972 49.8314 7.12468 49.9725 7.12556C50.031 7.12596 50.1085 7.14571 50.1448 7.16951ZM50.3756 7.15403C50.3454 7.16626 50.2959 7.16626 50.2657 7.15403C50.2355 7.14184 50.2602 7.13185 50.3207 7.13185C50.3811 7.13185 50.4059 7.14184 50.3756 7.15403ZM33.885 7.19802C33.8548 7.21025 33.8053 7.21025 33.775 7.19802C33.7448 7.18584 33.7695 7.17585 33.83 7.17585C33.8905 7.17585 33.9152 7.18584 33.885 7.19802ZM37.403 7.19802C37.3728 7.21025 37.3233 7.21025 37.293 7.19802C37.2628 7.18584 37.2875 7.17585 37.348 7.17585C37.4085 7.17585 37.4332 7.18584 37.403 7.19802ZM33.0604 7.25689C33.0293 7.30735 33.1392 7.31738 33.1881 7.2685C33.2059 7.25073 33.2789 7.23322 33.3505 7.22961C33.4556 7.22433 33.471 7.23454 33.4308 7.28307C33.3958 7.32526 33.3577 7.33054 33.3023 7.30089C33.2458 7.27066 33.2082 7.27726 33.1691 7.32434C33.1278 7.37423 33.1003 7.37797 33.0546 7.34004C32.983 7.2806 32.9758 7.21289 33.041 7.21289C33.0666 7.21289 33.0754 7.23269 33.0604 7.25689ZM52.5369 7.26424C52.5244 7.28439 52.4956 7.30089 52.4728 7.30089C52.4501 7.30089 52.4315 7.28439 52.4315 7.26424C52.4315 7.24404 52.4603 7.22754 52.4955 7.22754C52.5307 7.22754 52.5493 7.24404 52.5369 7.26424ZM33.5363 7.40665C33.5167 7.52795 33.5276 7.56046 33.5941 7.57753C33.6688 7.59676 33.6691 7.59909 33.5977 7.60375C33.4963 7.61035 33.4304 7.43776 33.495 7.33441C33.5609 7.22873 33.5643 7.23454 33.5363 7.40665ZM52.5396 7.39187C52.5236 7.41774 52.4835 7.42847 52.4504 7.4158C52.4174 7.40309 52.3786 7.41167 52.3643 7.43481C52.35 7.45795 52.3642 7.47766 52.3959 7.47863C52.4276 7.4796 52.3941 7.51343 52.3215 7.55382C52.249 7.59425 52.1698 7.6217 52.1456 7.61493C52.1214 7.60815 52.1272 7.62857 52.1585 7.66033C52.1948 7.69729 52.2265 7.70226 52.2464 7.6741C52.2635 7.64986 52.3516 7.58074 52.4422 7.52047C52.5327 7.46019 52.6069 7.396 52.6071 7.37788C52.6075 7.33023 52.5732 7.33736 52.5396 7.39187ZM33.7487 7.68343C33.7059 7.7005 33.7181 7.72698 33.7927 7.77894C33.8495 7.8185 33.9023 7.87965 33.9099 7.91485C33.9176 7.95004 33.8704 7.92527 33.805 7.85985C33.7396 7.79439 33.6678 7.74084 33.6455 7.74084C33.6232 7.74084 33.6172 7.72105 33.6321 7.69685C33.6471 7.67265 33.6928 7.65444 33.7337 7.65633C33.7859 7.65875 33.7904 7.6668 33.7487 7.68343ZM52.0305 7.69905C52.0276 7.73411 52.0281 7.77916 52.0316 7.79909C52.035 7.81907 52.0173 7.82263 51.9921 7.80706C51.9669 7.79148 51.9577 7.76033 51.9716 7.73781C51.9855 7.71528 51.9759 7.69685 51.9503 7.69685C51.8851 7.69685 51.8923 7.76456 51.9639 7.824C52.0473 7.89329 52.1633 7.76297 52.0866 7.6862C52.048 7.64762 52.0344 7.65074 52.0305 7.69905ZM33.918 7.74084C33.918 7.76504 33.9092 7.78484 33.8986 7.78484C33.8879 7.78484 33.8669 7.76504 33.852 7.74084C33.837 7.71665 33.8458 7.69685 33.8714 7.69685C33.897 7.69685 33.918 7.71665 33.918 7.74084ZM51.8542 7.94982C51.7995 8.0196 51.801 8.02114 51.8708 7.96645C51.9131 7.93324 51.9477 7.89857 51.9477 7.88946C51.9477 7.85325 51.9116 7.87653 51.8542 7.94982ZM34.1571 7.96527C34.147 7.98154 34.1683 8.01929 34.2043 8.04921C34.2403 8.07913 34.2691 8.1259 34.2683 8.15317C34.2676 8.18049 34.2407 8.16818 34.2085 8.12581C34.1419 8.03795 34.0724 8.02066 34.1203 8.10381C34.1387 8.13575 34.1351 8.14345 34.1119 8.12216C34.0899 8.10196 34.071 8.06237 34.0699 8.03416C34.0688 8.00592 34.0426 7.98828 34.0116 7.99492C33.9807 8.00156 33.9653 7.99096 33.9774 7.97134C33.9895 7.95172 34.039 7.9357 34.0874 7.9357C34.1358 7.9357 34.1671 7.94899 34.1571 7.96527ZM51.6891 7.99228C51.6983 7.98709 51.7005 7.99149 51.694 8.00205C51.6654 8.04833 51.5226 8.0277 51.5226 7.97732C51.5226 7.93847 51.5453 7.93372 51.5975 7.96166C51.6386 7.9837 51.6799 7.99747 51.6891 7.99228ZM34.5336 8.31085C34.5336 8.27966 34.5455 8.26602 34.56 8.28054C34.5745 8.29506 34.5739 8.32718 34.5586 8.35195C34.5255 8.40549 34.4017 8.36664 34.4017 8.30271C34.4017 8.27693 34.4296 8.2812 34.4676 8.31279C34.5205 8.35665 34.5336 8.35626 34.5336 8.31085ZM51.0305 8.30795C50.9953 8.3303 50.982 8.38103 50.9982 8.43189C51.016 8.4882 50.9948 8.54579 50.9369 8.59819C50.8882 8.64232 50.8467 8.66049 50.8447 8.63858C50.8427 8.61667 50.8362 8.55512 50.8302 8.5018C50.8243 8.44847 50.8372 8.41583 50.8589 8.42929C50.8806 8.44271 50.8871 8.48301 50.8733 8.51891C50.8579 8.55912 50.8694 8.57668 50.9033 8.56471C50.9335 8.55402 50.954 8.50782 50.9487 8.46202C50.935 8.34389 50.9683 8.26866 51.0339 8.26945C51.0772 8.26998 51.0764 8.27891 51.0305 8.30795ZM51.1882 8.31684C51.1454 8.34178 51.1217 8.38054 51.1356 8.40298C51.1494 8.42542 51.1294 8.43175 51.0912 8.41706C51.0296 8.39339 51.0305 8.38362 51.0999 8.331C51.1429 8.29832 51.198 8.27157 51.2221 8.27152C51.2463 8.27148 51.2311 8.29189 51.1882 8.31684ZM34.8964 8.34192C34.8329 8.36756 34.8224 8.47447 34.8814 8.49612C34.9378 8.51684 34.9606 8.65899 34.9074 8.65899C34.8832 8.65899 34.8689 8.63207 34.8756 8.5992C34.8823 8.56629 34.8674 8.52683 34.8426 8.51148C34.8178 8.49612 34.7971 8.51939 34.7968 8.56317C34.7962 8.63048 34.7897 8.6326 34.7542 8.57677C34.7275 8.53475 34.7278 8.50545 34.7549 8.49612C34.8265 8.47144 34.8022 8.40104 34.7205 8.39638C34.6692 8.39348 34.6802 8.38028 34.7535 8.35679C34.8745 8.31798 34.9838 8.30663 34.8964 8.34192ZM35.1284 8.70026C35.1149 8.71381 35.0794 8.7003 35.0496 8.67021C35.0065 8.62674 35.0115 8.62173 35.0742 8.64557C35.1175 8.66212 35.142 8.68671 35.1284 8.70026ZM50.5209 8.837C50.5067 8.85992 50.5139 8.89024 50.5368 8.9044C50.5597 8.91857 50.59 8.9114 50.6042 8.88848C50.6183 8.86555 50.6112 8.83524 50.5882 8.82107C50.5653 8.80691 50.535 8.81408 50.5209 8.837ZM50.3207 9.01672C50.3207 9.04092 50.312 9.06072 50.3013 9.06072C50.2906 9.06072 50.2696 9.04092 50.2547 9.01672C50.2397 8.99253 50.2485 8.97273 50.2741 8.97273C50.2997 8.97273 50.3207 8.99253 50.3207 9.01672ZM50.0128 9.02895C50.0128 9.03569 49.9746 9.07392 49.9278 9.114C49.8538 9.1774 49.8359 9.17854 49.7897 9.12275C49.7462 9.07035 49.7497 9.06376 49.8087 9.08641C49.8489 9.10181 49.8809 9.09253 49.8809 9.06543C49.8809 9.03863 49.9106 9.01672 49.9469 9.01672C49.9832 9.01672 50.0128 9.02222 50.0128 9.02895ZM49.779 9.33297C49.765 9.36803 49.7546 9.3576 49.7525 9.30635C49.7506 9.25998 49.7609 9.23402 49.7755 9.24863C49.7901 9.26323 49.7917 9.3012 49.779 9.33297ZM36.2817 9.46341C36.3532 9.53495 36.2673 9.69584 36.192 9.63134C36.1627 9.60622 36.0991 9.55655 36.0507 9.52092C35.9687 9.46051 35.9711 9.45914 36.0866 9.50041C36.256 9.561 36.2865 9.55387 36.1853 9.47727C36.1213 9.42888 36.1164 9.41269 36.1655 9.41269C36.2015 9.41269 36.2539 9.43552 36.2817 9.46341ZM48.9135 10.0453C48.9135 10.0544 48.8855 10.085 48.8514 10.1134C48.8039 10.1528 48.7817 10.1525 48.7567 10.112C48.7367 10.0796 48.7425 10.0705 48.7717 10.0885C48.7979 10.1048 48.8318 10.0979 48.8471 10.0733C48.8742 10.0293 48.9135 10.0127 48.9135 10.0453ZM48.646 10.1448C48.656 10.1535 48.6313 10.1606 48.591 10.1606C48.507 10.1606 48.4916 10.2326 48.5699 10.2587C48.6036 10.2699 48.5883 10.3099 48.5269 10.3714C48.4701 10.4282 48.4032 10.4557 48.3611 10.4395C48.3222 10.4245 48.3089 10.4003 48.3315 10.3855C48.3541 10.3707 48.3839 10.3289 48.3977 10.2926C48.4177 10.24 48.4235 10.2423 48.4263 10.3036C48.4281 10.346 48.4517 10.3806 48.4785 10.3806C48.54 10.3806 48.488 10.1538 48.4153 10.1047C48.3869 10.0856 48.4231 10.0832 48.4957 10.0995C48.5683 10.1157 48.6359 10.1361 48.646 10.1448ZM37.5679 10.4246C37.5679 10.4488 37.5469 10.4686 37.5213 10.4686C37.4957 10.4686 37.487 10.4488 37.5019 10.4246C37.5169 10.4004 37.5378 10.3806 37.5485 10.3806C37.5592 10.3806 37.5679 10.4004 37.5679 10.4246ZM37.7554 10.4069C37.7699 10.4214 37.7709 10.4615 37.7576 10.496C37.7392 10.544 37.7192 10.5469 37.6732 10.5087C37.64 10.4812 37.6237 10.441 37.6369 10.4196C37.6648 10.3746 37.7174 10.3689 37.7554 10.4069ZM48.1219 10.4686C48.1219 10.4876 48.0964 10.5129 48.0654 10.5249C48.0324 10.5375 48.0088 10.5141 48.0088 10.4686C48.0088 10.4231 48.0324 10.3996 48.0654 10.4123C48.0964 10.4242 48.1219 10.4496 48.1219 10.4686ZM37.5422 10.6065C37.5244 10.6355 37.547 10.6832 37.5941 10.7158C37.6402 10.7475 37.7042 10.7964 37.7364 10.8242C37.7807 10.8625 37.8076 10.862 37.8464 10.8226C37.8746 10.7938 37.8779 10.7751 37.8537 10.7811C37.7758 10.8003 37.5616 10.6757 37.6153 10.6425C37.6489 10.6216 37.6503 10.6024 37.6196 10.5834C37.5945 10.5678 37.5597 10.5783 37.5422 10.6065ZM47.0555 11.1148C47.0132 11.1259 46.9786 11.1566 46.9786 11.1831C46.9786 11.2095 46.9667 11.2193 46.9522 11.2048C46.9082 11.1608 46.9788 11.0842 47.0581 11.0896C47.1252 11.0943 47.1249 11.0967 47.0555 11.1148ZM47.3271 11.2424C47.2988 11.2766 47.2494 11.3045 47.2172 11.3045C47.1851 11.3045 47.1408 11.3368 47.1187 11.3761C47.0908 11.426 47.0692 11.4325 47.0475 11.3973C47.0283 11.3663 47.0724 11.3225 47.1623 11.2834C47.2427 11.2485 47.2924 11.2192 47.2728 11.2182C47.2532 11.2173 47.2497 11.1964 47.2648 11.1718C47.28 11.1472 47.3118 11.1391 47.3355 11.1537C47.3626 11.1705 47.3595 11.2034 47.3271 11.2424ZM47.1984 11.1898C47.1984 11.1993 47.1687 11.2185 47.1325 11.2324C47.0962 11.2463 47.0665 11.2386 47.0665 11.2152C47.0665 11.1917 47.0962 11.1725 47.1325 11.1725C47.1687 11.1725 47.1984 11.1803 47.1984 11.1898ZM38.8432 11.5685C38.8432 11.5927 38.8345 11.6125 38.8238 11.6125C38.8131 11.6125 38.7922 11.5927 38.7772 11.5685C38.7622 11.5443 38.771 11.5245 38.7966 11.5245C38.8222 11.5245 38.8432 11.5443 38.8432 11.5685ZM38.6909 11.7997C38.6545 11.887 38.6053 11.9703 38.5818 11.9849C38.5583 11.9994 38.5669 11.9577 38.6009 11.8921C38.6349 11.8264 38.6527 11.7565 38.6404 11.7366C38.6281 11.7167 38.6412 11.7005 38.6694 11.7005C38.7001 11.7005 38.7089 11.6695 38.6914 11.6235C38.6704 11.5684 38.6756 11.5599 38.7097 11.5937C38.7437 11.6275 38.7385 11.6859 38.6909 11.7997ZM38.8046 11.7562C38.7612 11.7993 38.7562 11.7943 38.78 11.7316C38.7966 11.6882 38.8211 11.6638 38.8347 11.6773C38.8482 11.6908 38.8347 11.7263 38.8046 11.7562ZM47.0526 11.9287C47.0385 11.9638 47.0281 11.9534 47.026 11.9021C47.0241 11.8557 47.0345 11.8298 47.0491 11.8444C47.0637 11.859 47.0653 11.897 47.0526 11.9287ZM38.6722 12.1091C38.6363 12.145 38.6233 12.1401 38.6233 12.0906C38.6233 12.0031 38.6824 11.9439 38.7043 12.0095C38.7136 12.0374 38.6991 12.0822 38.6722 12.1091ZM38.4601 12.6684C38.4728 12.7169 38.4652 12.7454 38.4433 12.7318C38.4214 12.7183 38.4034 12.6787 38.4034 12.6438C38.4034 12.5527 38.4333 12.5657 38.4601 12.6684ZM38.3681 12.9214C38.3553 12.9879 38.3364 13.017 38.326 12.9859C38.3073 12.9299 38.3408 12.8004 38.3739 12.8004C38.3834 12.8004 38.3808 12.8548 38.3681 12.9214ZM38.2575 13.1166C38.2435 13.1517 38.2331 13.1412 38.231 13.09C38.2291 13.0436 38.2395 13.0177 38.2541 13.0323C38.2687 13.0469 38.2703 13.0848 38.2575 13.1166ZM38.4907 13.1659C38.4903 13.1974 38.473 13.192 38.4474 13.1523C38.419 13.1083 38.4046 13.1047 38.4041 13.1413C38.4037 13.1716 38.3812 13.1963 38.3541 13.1963C38.3198 13.1963 38.3213 13.1763 38.359 13.1308C38.4174 13.0605 38.4918 13.0803 38.4907 13.1659ZM47.4432 13.3512C47.4722 13.4354 47.4805 13.5043 47.4618 13.5043C47.4184 13.5043 47.3743 13.3905 47.3743 13.2781C47.3743 13.2236 47.3554 13.2028 47.3235 13.2225C47.2911 13.2426 47.2848 13.2345 47.306 13.2002C47.349 13.1306 47.3787 13.1634 47.4432 13.3512ZM47.5307 13.1924C47.4984 13.2446 47.5479 13.3723 47.6004 13.3723C47.6244 13.3723 47.6231 13.3384 47.5973 13.2901C47.5731 13.2449 47.5658 13.1954 47.5811 13.1801C47.5964 13.1648 47.5968 13.1523 47.5822 13.1523C47.5674 13.1523 47.5443 13.1703 47.5307 13.1924ZM47.3164 13.4246C47.3024 13.4596 47.292 13.4492 47.2899 13.398C47.288 13.3516 47.2983 13.3256 47.3129 13.3402C47.3275 13.3548 47.3291 13.3928 47.3164 13.4246ZM37.9941 14.0644C37.983 14.1072 37.9731 14.0828 37.9722 14.0103C37.9714 13.9377 37.9805 13.9026 37.9925 13.9324C38.0046 13.9622 38.0053 14.0216 37.9941 14.0644ZM47.7315 14.018C47.6796 14.1071 47.6672 14.0786 47.7096 13.968C47.7246 13.9286 47.7463 13.9057 47.7576 13.9171C47.7689 13.9284 47.7572 13.9738 47.7315 14.018ZM37.9623 14.2302C37.9623 14.2544 37.9431 14.2445 37.9197 14.2082C37.8962 14.1719 37.8771 14.1224 37.8771 14.0982C37.8771 14.074 37.8962 14.0839 37.9197 14.1202C37.9431 14.1565 37.9623 14.206 37.9623 14.2302ZM47.7932 14.4249C47.7772 14.4751 47.7476 14.5162 47.7273 14.5162C47.707 14.5162 47.7131 14.4682 47.7408 14.4094C47.8001 14.2836 47.8348 14.2938 47.7932 14.4249ZM47.9148 14.5162C47.9274 14.5647 47.9198 14.5932 47.8979 14.5796C47.876 14.5661 47.8581 14.5265 47.8581 14.4916C47.8581 14.4005 47.8879 14.4135 47.9148 14.5162ZM42.5041 14.6333C42.4739 14.6456 42.4244 14.6456 42.3942 14.6333C42.3639 14.6211 42.3887 14.6111 42.4491 14.6111C42.5096 14.6111 42.5343 14.6211 42.5041 14.6333ZM43.37 14.7111C43.412 14.7617 43.4023 14.7844 43.3205 14.8271C43.2645 14.8562 43.2342 14.8636 43.253 14.8434C43.2719 14.8233 43.2423 14.7796 43.1871 14.7464C43.1072 14.6984 43.1047 14.6921 43.1747 14.7154C43.2231 14.7315 43.2923 14.7563 43.3286 14.7706C43.3853 14.793 43.3861 14.7862 43.3342 14.7224C43.301 14.6816 43.2838 14.6482 43.2959 14.6482C43.308 14.6482 43.3413 14.6765 43.37 14.7111ZM42.4686 14.8426C42.4217 14.8769 42.3739 14.8956 42.3625 14.8842C42.3383 14.86 42.4517 14.7819 42.5125 14.7808C42.5353 14.7805 42.5155 14.8082 42.4686 14.8426ZM41.9859 15.0158C42.0955 15.0625 42.1039 15.0762 42.0386 15.1013C41.992 15.1192 41.9716 15.1137 41.9877 15.0877C42.0259 15.0259 41.9056 15.0336 41.8423 15.0969C41.8056 15.1336 41.7895 15.1347 41.7895 15.1006C41.7895 15.0736 41.8143 15.0415 41.8445 15.0293C41.881 15.0145 41.8766 15.0059 41.8313 15.0036C41.7938 15.0017 41.7354 15.0249 41.7015 15.0552C41.649 15.1019 41.6485 15.0987 41.6981 15.0332C41.7662 14.9431 41.8094 14.9405 41.9859 15.0158ZM37.7279 15.076C37.7487 15.0631 37.7686 15.1001 37.7721 15.1581C37.7757 15.2185 37.7596 15.2519 37.7344 15.2363C37.7075 15.2197 37.7008 15.2456 37.7171 15.3026C37.7318 15.3541 37.7532 15.4308 37.7648 15.4731C37.7922 15.5736 37.7237 15.6903 37.6794 15.6187C37.6561 15.5809 37.6293 15.5825 37.575 15.6249C37.5102 15.6756 37.5085 15.6737 37.5601 15.6077C37.5921 15.5668 37.6465 15.5442 37.681 15.5574C37.7459 15.5823 37.7673 15.5223 37.713 15.468C37.6962 15.4511 37.6787 15.3736 37.6742 15.2957C37.6697 15.2178 37.652 15.1145 37.6348 15.0662C37.612 15.002 37.6153 14.9946 37.6468 15.0388C37.6705 15.0721 37.707 15.0889 37.7279 15.076ZM48.0786 15.0526C48.0782 15.0935 48.0977 15.1392 48.1219 15.1541C48.1776 15.1885 48.1776 15.1303 48.1219 15.0442C48.0852 14.9873 48.0792 14.9885 48.0786 15.0526ZM41.7643 15.2852C41.7177 15.3204 41.6598 15.3495 41.6356 15.3497C41.6114 15.35 41.6408 15.3124 41.7009 15.2662C41.761 15.22 41.8189 15.1909 41.8296 15.2016C41.8403 15.2123 41.8109 15.2499 41.7643 15.2852ZM48.1521 15.4038C48.1358 15.4446 48.1278 15.4404 48.1254 15.3898C48.1235 15.3501 48.0922 15.3061 48.0559 15.2922C48.0197 15.2783 47.99 15.2457 47.99 15.2198C47.99 15.1939 48.0317 15.2116 48.0827 15.2591C48.1337 15.3067 48.1649 15.3718 48.1521 15.4038ZM44.0983 15.2747C44.1181 15.2568 44.1206 15.266 44.1038 15.2952C44.0695 15.3551 43.9443 15.3227 43.9443 15.2541C43.9443 15.2259 43.9662 15.2276 44.0033 15.2584C44.0357 15.2853 44.0785 15.2927 44.0983 15.2747ZM44.472 15.4388C44.472 15.4622 44.4423 15.4699 44.406 15.456C44.3697 15.4421 44.34 15.4229 44.34 15.4134C44.34 15.4039 44.3697 15.3961 44.406 15.3961C44.4423 15.3961 44.472 15.4153 44.472 15.4388ZM41.2618 15.4595C41.2618 15.5059 41.1774 15.5255 41.1523 15.4848C41.1371 15.4602 41.1555 15.4401 41.1932 15.4401C41.2309 15.4401 41.2618 15.4488 41.2618 15.4595ZM44.428 15.5281C44.4643 15.5516 44.4742 15.5707 44.45 15.5707C44.4258 15.5707 44.3763 15.5516 44.34 15.5281C44.3038 15.5047 44.2939 15.4855 44.3181 15.4855C44.3422 15.4855 44.3917 15.5047 44.428 15.5281ZM48.1733 15.6263C48.1406 15.659 48.1349 15.6418 48.154 15.5686C48.1696 15.5091 48.1895 15.4891 48.2005 15.5221C48.2111 15.5538 48.1989 15.6007 48.1733 15.6263ZM41.1027 15.6404C41.1177 15.6795 41.1103 15.6972 41.0854 15.6818C41.0615 15.667 41.0419 15.6363 41.0419 15.6135C41.0419 15.5502 41.0735 15.5642 41.1027 15.6404ZM40.8907 15.782C40.876 15.7968 40.8298 15.7731 40.788 15.7293C40.7154 15.6533 40.7166 15.6521 40.8148 15.7025C40.8713 15.7315 40.9055 15.7673 40.8907 15.782ZM40.7634 15.8558C40.7634 15.8887 40.7403 15.9068 40.7121 15.896C40.6839 15.8851 40.6608 15.8493 40.6608 15.8164C40.6608 15.7834 40.6839 15.7653 40.7121 15.7762C40.7403 15.787 40.7634 15.8228 40.7634 15.8558ZM45.128 15.9483C45.1461 15.9371 45.1609 15.9549 45.1609 15.9878C45.1609 16.034 45.1432 16.0366 45.0831 15.999C45.0403 15.9723 45.0176 15.9306 45.0326 15.9064C45.0495 15.8791 45.0665 15.8825 45.0774 15.9155C45.0872 15.9447 45.1099 15.9594 45.128 15.9483ZM37.4353 16.2044C37.4349 16.2317 37.4134 16.2243 37.3875 16.188C37.3504 16.1361 37.3454 16.1455 37.364 16.232C37.3859 16.3341 37.3832 16.3362 37.3269 16.2608C37.2485 16.156 37.287 16.0312 37.3751 16.1043C37.4086 16.1321 37.4357 16.1771 37.4353 16.2044ZM40.2724 16.188C40.2574 16.2122 40.2216 16.2317 40.1928 16.2314C40.1613 16.2309 40.1668 16.2137 40.2064 16.188C40.2909 16.1334 40.3061 16.1334 40.2724 16.188ZM48.4598 16.3283C48.4457 16.3634 48.4353 16.3529 48.4332 16.3017C48.4313 16.2553 48.4417 16.2294 48.4563 16.244C48.4709 16.2586 48.4725 16.2965 48.4598 16.3283ZM40.0292 16.3657C39.9257 16.4313 39.8732 16.4143 39.967 16.3456C40.014 16.3113 40.0617 16.2926 40.0731 16.304C40.0845 16.3155 40.0648 16.3432 40.0292 16.3657ZM37.3968 16.6759C37.4465 16.7074 37.4445 16.7148 37.3861 16.7153C37.3092 16.716 37.2585 16.5866 37.2657 16.408C37.2688 16.333 37.2806 16.352 37.3029 16.4676C37.3209 16.5609 37.3632 16.6546 37.3968 16.6759ZM46.1487 16.441C46.2045 16.5123 46.2024 16.5132 46.121 16.4535C46.0727 16.418 46.0249 16.3833 46.0148 16.3765C46.0047 16.3696 46.0171 16.364 46.0424 16.364C46.0676 16.364 46.1155 16.3987 46.1487 16.441ZM48.4957 16.452C48.5106 16.4762 48.5019 16.496 48.4763 16.496C48.4507 16.496 48.4297 16.4762 48.4297 16.452C48.4297 16.4278 48.4384 16.408 48.4491 16.408C48.4598 16.408 48.4807 16.4278 48.4957 16.452ZM39.6787 16.4693C39.6787 16.4788 39.649 16.498 39.6127 16.5119C39.5764 16.5258 39.5468 16.5181 39.5468 16.4947C39.5468 16.4712 39.5764 16.452 39.6127 16.452C39.649 16.452 39.6787 16.4598 39.6787 16.4693ZM37.2021 16.6363C37.1881 16.6713 37.1777 16.6609 37.1756 16.6097C37.1737 16.5633 37.1841 16.5373 37.1987 16.5519C37.2133 16.5665 37.2149 16.6045 37.2021 16.6363ZM39.6787 16.584C39.6424 16.6075 39.5929 16.6266 39.5688 16.6266C39.5446 16.6266 39.5545 16.6075 39.5907 16.584C39.627 16.5606 39.6765 16.5414 39.7007 16.5414C39.7249 16.5414 39.715 16.5606 39.6787 16.584ZM46.1962 16.5698C46.1498 16.5884 46.1498 16.6051 46.1962 16.6614C46.2469 16.7229 46.2427 16.7237 46.1558 16.6696C46.0867 16.6266 46.074 16.5992 46.1118 16.5752C46.141 16.5566 46.1848 16.5426 46.209 16.5441C46.2332 16.5457 46.2274 16.5572 46.1962 16.5698ZM48.5532 16.7831C48.5396 16.7967 48.515 16.7723 48.4985 16.7289C48.4747 16.6662 48.4797 16.6611 48.5231 16.7042C48.5532 16.7341 48.5667 16.7696 48.5532 16.7831ZM38.9751 16.7333C38.9751 16.7428 38.9444 16.7624 38.9068 16.7768C38.8677 16.7918 38.8501 16.7844 38.8655 16.7595C38.8913 16.7177 38.9751 16.6976 38.9751 16.7333ZM48.4457 16.782C48.4596 16.8183 48.4518 16.848 48.4284 16.848C48.4049 16.848 48.3858 16.8183 48.3858 16.782C48.3858 16.7457 48.3935 16.716 48.403 16.716C48.4125 16.716 48.4317 16.7457 48.4457 16.782ZM46.8654 16.9149C46.912 16.9502 46.9414 16.9878 46.9307 16.9985C46.92 17.0092 46.8621 16.9801 46.802 16.934C46.7419 16.8878 46.7125 16.8501 46.7367 16.8504C46.7609 16.8506 46.8188 16.8797 46.8654 16.9149ZM39.011 16.9968C39.0033 17.0013 38.9658 17.0286 38.9275 17.0577C38.8717 17.1 38.8578 17.0979 38.8578 17.0472C38.8578 17.0124 38.8743 16.994 38.8945 17.0065C38.9146 17.019 38.9311 17.007 38.9311 16.98C38.9311 16.9529 38.9522 16.9438 38.978 16.9598C39.0038 16.9757 39.0187 16.9924 39.011 16.9968ZM46.8027 17.024C46.8027 17.0482 46.7939 17.068 46.7833 17.068C46.7726 17.068 46.7516 17.0482 46.7367 17.024C46.7217 16.9998 46.7305 16.98 46.7561 16.98C46.7817 16.98 46.8027 16.9998 46.8027 17.024ZM37.0402 17.4199C37.0402 17.4441 37.0315 17.4639 37.0208 17.4639C37.0101 17.4639 36.9892 17.4441 36.9742 17.4199C36.9593 17.3957 36.968 17.3759 36.9936 17.3759C37.0192 17.3759 37.0402 17.3957 37.0402 17.4199ZM38.0296 17.4639C38.0147 17.4881 37.9789 17.5076 37.9501 17.5073C37.9186 17.5068 37.924 17.4895 37.9637 17.4639C38.0481 17.4093 38.0634 17.4093 38.0296 17.4639ZM47.5063 17.4639C47.5063 17.4881 47.4975 17.5079 47.4869 17.5079C47.4762 17.5079 47.4552 17.4881 47.4403 17.4639C47.4253 17.4397 47.4341 17.4199 47.4597 17.4199C47.4853 17.4199 47.5063 17.4397 47.5063 17.4639ZM47.7256 17.4694C47.6764 17.5037 47.6928 17.5092 47.7921 17.4912C47.8647 17.4781 47.8985 17.4784 47.8672 17.492C47.8208 17.512 47.8208 17.5298 47.8672 17.5892C47.9179 17.654 47.9157 17.6554 47.8476 17.602C47.8056 17.569 47.7428 17.553 47.7079 17.5664C47.6731 17.5798 47.6235 17.5653 47.5978 17.5343C47.54 17.4645 47.561 17.4411 47.6904 17.4314C47.7717 17.4253 47.7785 17.4326 47.7256 17.4694ZM36.9374 17.6069C36.9252 17.6372 36.9152 17.6124 36.9152 17.5519C36.9152 17.4914 36.9252 17.4667 36.9374 17.4969C36.9496 17.5272 36.9496 17.5767 36.9374 17.6069ZM48.8407 17.6198C48.8263 17.6572 48.8052 17.6783 48.7937 17.6667C48.7821 17.6552 48.7858 17.6246 48.8017 17.5989C48.8451 17.5286 48.8704 17.5423 48.8407 17.6198ZM37.0828 17.7499C37.0828 17.7741 37.0636 17.7642 37.0402 17.7279C37.0167 17.6916 36.9976 17.6421 36.9976 17.6179C36.9976 17.5937 37.0167 17.6036 37.0402 17.6399C37.0636 17.6762 37.0828 17.7257 37.0828 17.7499ZM37.348 17.8159C37.3117 17.8393 37.2524 17.8575 37.2161 17.8561C37.1726 17.8545 37.1801 17.8408 37.2381 17.8159C37.359 17.7639 37.4284 17.7639 37.348 17.8159ZM37.5721 17.8489C37.6044 17.8912 37.6134 17.911 37.592 17.8928C37.5706 17.8746 37.5134 17.8944 37.4649 17.9368C37.4165 17.9792 37.3913 17.9891 37.409 17.9589C37.4267 17.9287 37.4194 17.9039 37.3929 17.9039C37.3616 17.9039 37.3645 17.8812 37.4013 17.8396C37.4756 17.7552 37.5014 17.7566 37.5721 17.8489ZM48.1821 17.8692C48.1649 17.897 48.1934 17.9016 48.2593 17.8817C48.3402 17.8571 48.3524 17.862 48.3132 17.9033C48.2508 17.9692 48.0926 17.9248 48.0926 17.8415C48.0926 17.8078 48.1189 17.7904 48.151 17.8027C48.1831 17.815 48.1971 17.845 48.1821 17.8692ZM37.304 17.9208C37.304 17.9301 37.2496 17.9709 37.1831 18.0114L37.0622 18.0851L37.166 17.9945C37.2673 17.9061 37.304 17.8865 37.304 17.9208ZM48.7236 18.0001C48.7096 18.0352 48.6992 18.0248 48.6971 17.9735C48.6952 17.9272 48.7055 17.9012 48.7201 17.9158C48.7347 17.9304 48.7363 17.9684 48.7236 18.0001Z" fill="#DE5366"/>
<path d="M35.4044 97.999L32.8553 95.4499L37.9535 95.7331L41.069 92.9008V96.2996L44.4679 97.4325L40.7858 98.8487L40.2193 102.531L37.1038 99.6984L32.572 101.115L35.4044 97.999Z" fill="#DE5366"/>
<path d="M47.017 96.2996L46.4505 92.3343L49.2828 95.7331L53.2481 95.4499L51.2655 97.4325L53.5314 101.115L50.1325 99.6984L48.1499 102.247L47.017 98.5654L43.6182 97.4325L47.017 96.2996Z" fill="#DE5366"/>
<path d="M55.514 100.831L52.3984 99.2735L54.6643 103.097L53.8146 107.629L56.9302 104.797L60.0458 107.912L59.196 102.814L58.0631 102.247L58.3463 101.681L56.3637 98.2822L55.514 100.831Z" fill="#DE5366"/>
<path d="M43.9014 104.797L40.5026 102.814L41.3523 106.496L37.387 109.895L45.884 110.178H51.2655L47.017 106.779L48.1499 102.247L43.9014 104.797Z" fill="#DE5366"/>
<path d="M30.3061 101.115L29.7397 98.5654L28.89 101.115H28.0403L27.1906 103.097L27.757 103.664L26.0576 107.912L29.4564 105.363L32.572 107.912L30.8726 103.664L33.1385 101.115H30.3061Z" fill="#DE5366"/>
<path d="M31.1558 107.629L30.0229 109.895H32.0055L31.1558 107.629Z" fill="#DE5366"/>
<path fill-rule="evenodd" clip-rule="evenodd" d="M60.0457 109.895V109.328C60.0457 99.9428 52.4372 92.3343 43.0516 92.3343C33.6661 92.3343 26.0576 99.9428 26.0576 109.328V109.895H60.0457ZM60.6122 109.328C60.6122 99.6299 52.75 91.7678 43.0516 91.7678C33.3532 91.7678 25.4911 99.6299 25.4911 109.328V110.461H60.6122V109.328Z" fill="#DE5366"/>
<path d="M55.7972 107.062L54.6643 110.178H57.2134L55.7972 107.062Z" fill="#DE5366"/>
<path fill-rule="evenodd" clip-rule="evenodd" d="M45.7778 40.9252C44.6716 41.1456 43.5924 42.0503 42.5768 43.6084C41.9722 44.5359 41.1465 46.3336 40.6848 47.7276L40.5445 48.1511L39.9651 48.1808C35.4773 48.4108 31.3202 49.5564 28.4799 51.3456C25.7583 53.0601 24.1335 55.4485 23.7327 58.324C23.5195 59.8533 23.8527 62.258 24.5314 64.0885C25.0647 65.5268 25.9866 66.8224 27.1606 67.7837C29.0183 69.3047 31.4373 69.7327 33.9988 68.9936C34.486 68.8531 35.5598 68.4275 35.6027 68.358C35.6142 68.3394 35.5178 68.3132 35.3886 68.2999C35.1089 68.271 34.5679 68.0618 34.1987 67.8396C32.7295 66.9557 31.0928 64.9156 30.3514 63.0444C29.9612 62.0595 29.7043 60.8719 29.754 60.2829C29.8307 59.3745 30.0966 58.4293 30.5258 57.5395C31.8433 54.8082 34.6217 52.736 38.1721 51.8366C38.6229 51.7224 39.8918 51.4913 39.9189 51.5185C39.9266 51.5262 39.895 51.9076 39.8486 52.366C39.7194 53.6444 39.6719 54.5148 39.6414 56.1608L39.6134 57.6702L39.1478 57.9448C38.8917 58.0958 38.0342 58.5946 37.2423 59.0531C36.4505 59.5117 35.8024 59.9021 35.8021 59.9206C35.8018 59.9457 37.0714 61.8816 37.1463 61.9703C37.1631 61.9901 37.6995 61.6684 38.8063 60.9749C39.2858 60.6745 39.6845 60.4354 39.6924 60.4437C39.7274 60.4805 39.9461 61.2613 40.0848 61.8447C40.7298 64.5571 41.0377 67.3275 41.0382 70.4239C41.039 74.9519 40.4414 78.9795 39.3673 81.6841C39.0503 82.4824 38.3254 83.7986 38.2028 83.7986C38.1235 83.7986 36.9779 83.2618 35.6259 82.591C32.7772 81.1778 31.3806 80.7922 29.1175 80.794C26.9782 80.7957 25.6 81.2585 24.6151 82.3059C24.0351 82.9228 23.6894 83.7683 23.6343 84.705C23.6118 85.0876 23.6218 85.1948 23.7065 85.475C24.1402 86.9091 25.3241 88.2414 26.7456 88.8947C27.8842 89.4181 28.8884 89.5898 30.5687 89.5485C32.7592 89.4947 34.665 89.0811 36.2635 88.3126C37.1873 87.8685 37.8101 87.453 38.3525 86.9187L38.6277 86.6476L38.9627 86.826C40.2032 87.4865 42.3697 88.1431 44.4209 88.48C46.5465 88.8292 48.8394 88.9677 50.0717 88.8215C53.3721 88.4298 56.5861 87.0504 59.135 84.9314C59.6932 84.4675 60.7284 83.4567 61.2009 82.9143C63.7038 80.0413 65.2533 76.3 65.727 71.986C65.8895 70.5058 65.9186 68.3043 65.7931 66.9922C65.265 61.4741 62.9029 57.058 58.6468 53.6318C56.7866 52.1344 54.5956 50.9219 52.1605 50.0423C50.6605 49.5005 50.0992 49.3142 49.5302 49.1692C49.003 49.0348 48.9466 49.0112 48.9641 48.9319C48.9747 48.8835 49.027 48.6559 49.0801 48.426C49.3198 47.389 49.434 46.4539 49.434 45.5281C49.434 43.7443 48.9655 42.4645 47.9754 41.5443C47.555 41.1535 47.314 41.0188 46.8743 40.9284C46.4749 40.8462 46.1782 40.8454 45.7778 40.9252ZM46.8117 45.6762C46.8172 44.7927 46.7559 44.4631 46.5379 44.203C46.0368 43.6052 44.8704 44.669 43.9581 46.5562C43.6269 47.2412 43.2466 48.1897 43.2869 48.2301C43.2996 48.2428 43.6639 48.2826 44.0963 48.3186C44.8392 48.3804 45.805 48.4817 46.2079 48.5401L46.3899 48.5665L46.4853 48.1553C46.7238 47.1268 46.8066 46.4971 46.8117 45.6762ZM45.0792 51.7689C44.991 51.7144 44.1196 51.5598 43.4757 51.4845C43.1614 51.4477 42.8033 51.4177 42.6799 51.4177H42.4554L42.3823 51.9566C42.3421 52.253 42.2887 52.6738 42.2637 52.8915C42.1995 53.4495 42.1553 55.2453 42.2057 55.2453C42.2908 55.2453 43.0076 54.6449 43.3816 54.2604C43.8783 53.7496 44.3607 53.1077 44.7951 52.3792C45.056 51.9418 45.1237 51.7964 45.0792 51.7689ZM53.0846 55.9775C51.635 54.7371 49.8134 53.5565 48.2907 52.8706C48.0609 52.767 47.7891 52.6461 47.6868 52.6018L47.5006 52.5214L47.3833 52.7285C46.1179 54.9627 44.7171 56.6895 43.1591 57.9357C42.9368 58.1136 42.7537 58.2761 42.7524 58.2969C42.7484 58.3557 43.1649 59.0374 43.5761 59.6449C45.0631 61.8423 46.4961 62.9754 48.8843 63.8418C49.4242 64.0377 49.5465 64.0978 49.558 64.173C49.5955 64.4176 49.0986 66.7301 48.6379 68.4551C47.4524 72.8936 46.0562 76.79 44.7647 79.2645C43.7394 81.2287 42.6041 82.8936 41.3427 84.2826C41.2218 84.4157 41.1229 84.5357 41.1228 84.5493C41.1227 84.584 42.5492 84.9232 43.0796 85.0146C43.6868 85.1192 45.0661 85.1194 45.6723 85.0149C46.2335 84.9182 46.834 84.7646 47.3892 84.5759C52.6572 82.7851 57.733 76.5572 58.708 70.6879C58.9024 69.5178 58.9324 68.661 58.8206 67.4734C58.3607 62.587 56.5367 58.9315 53.0846 55.9775ZM34.5045 85.1834C32.7556 84.3245 31.136 83.7864 29.7332 83.5983C28.5737 83.4428 27.7093 83.5666 26.7649 84.0236C26.0961 84.3472 25.6856 84.7889 25.6884 85.1821C25.692 85.6755 26.23 86.1811 27.2799 86.6777C27.9564 86.9977 28.2635 87.0623 29.2275 87.0875C30.4122 87.1186 31.6016 86.9481 33.1234 86.529C33.7334 86.361 34.9635 85.9552 35.3386 85.7983C35.506 85.7282 35.5096 85.7226 35.4266 85.6595C35.3789 85.6233 34.964 85.4091 34.5045 85.1834Z" fill="#43319D"/>
<path fill-rule="evenodd" clip-rule="evenodd" d="M39.7578 19.9607C41.2898 17.7466 42.6512 15.7804 42.7834 15.5913C42.9996 15.2819 43.029 15.2556 43.078 15.3274C43.2513 15.5815 52.1859 28.4868 52.9891 29.6433C53.2227 29.9796 53.5402 30.4381 53.6947 30.6622C53.8492 30.8862 54.7779 32.2278 55.7584 33.6434C57.3313 35.914 60.0668 39.8643 67.8081 51.0437C68.981 52.7376 71.2768 56.0538 72.9098 58.413C74.5429 60.7723 76.6406 63.8014 77.5714 65.1444C78.5021 66.4874 79.455 67.8633 79.6888 68.2021C79.9227 68.5409 80.4573 69.313 80.8768 69.9179C81.2963 70.5229 81.8102 71.2653 82.0187 71.5678C82.2273 71.8703 83.2039 73.2809 84.189 74.7024C85.1741 76.124 85.989 77.3119 85.9999 77.3422C86.0108 77.3725 85.2429 78.5257 84.2934 79.905L82.2189 82.9187C82.0274 83.197 81.8089 83.5138 81.7334 83.6226C81.6579 83.7315 80.4999 85.4144 79.1601 87.3623C77.8203 89.3102 76.3868 91.3934 75.9748 91.9917C75.5626 92.59 74.8692 93.5974 74.4339 94.2303C73.9985 94.8632 73.296 95.8835 72.8727 96.4976C72.4495 97.1117 71.9231 97.8763 71.7029 98.1967C71.3086 98.7706 67.8922 103.736 67.4349 104.4C65.9787 106.513 64.4255 108.771 64.0485 109.323C63.8227 109.653 63.638 109.935 63.638 109.95C63.638 109.964 65.9533 109.976 68.7831 109.976H73.9282V117.741V125.507L63.4102 125.518L52.8923 125.529L52.4934 126.111C52.274 126.432 51.4024 127.699 50.5566 128.927C49.0156 131.165 46.4466 134.897 44.2357 138.111C43.5865 139.055 43.0411 139.831 43.0236 139.836C43.006 139.841 42.4735 139.089 41.8403 138.165C40.7646 136.594 36.0512 129.742 34.3143 127.223C33.8887 126.605 33.4508 125.968 33.341 125.806L33.1413 125.51L22.6422 125.509L12.1432 125.507V117.742V109.977L17.2854 109.965L22.4276 109.954L21.142 108.084C18.5964 104.382 15.5462 99.9494 14.9355 99.0652C14.5929 98.5691 13.3461 96.7576 12.1649 95.0396C9.13838 90.6378 6.46324 86.75 5.20203 84.9205C4.85173 84.4124 3.60587 82.6008 2.43349 80.8949C1.26107 79.189 0.233948 77.6996 0.150923 77.5852L0 77.3773L1.24208 75.5834C1.92519 74.5968 2.9093 73.1758 3.429 72.4257C3.94866 71.6756 4.47644 70.9133 4.60182 70.7319C4.72719 70.5504 5.44042 69.5209 6.18672 68.4441C6.93307 67.3673 7.78293 66.1398 8.07537 65.7163C8.36776 65.2929 10.0195 62.9072 11.7458 60.4148C13.4721 57.9225 15.8575 54.4776 17.0465 52.7596C18.2356 51.0415 19.6409 49.0122 20.1694 48.25C20.6978 47.4878 22.1719 45.3595 23.4452 43.5204C26.3968 39.2573 30.3927 33.4867 30.6331 33.1402C31.3087 32.1662 32.8083 30.0005 33.1635 29.4858C33.3972 29.147 34.3499 27.771 35.2805 26.4281C36.2111 25.0851 38.2259 22.1748 39.7578 19.9607ZM72.8288 124.451V117.719V110.988H43.0137H13.1986V117.719V124.451H43.0137H72.8288ZM15.5292 122.999V117.851V112.704H16.1889C16.5517 112.704 16.8485 112.713 16.8485 112.725C16.8485 112.736 17.2224 114.463 17.6794 116.563C18.1364 118.663 18.5531 120.589 18.6054 120.843C18.7468 121.531 18.7523 121.534 18.8667 121.014C18.922 120.763 19.323 118.983 19.7579 117.059C20.1927 115.136 20.5914 113.369 20.6439 113.133L20.7393 112.704H21.3225H21.9056V117.851V122.999H21.4879H21.0701L21.0666 118.72C21.0647 116.344 21.0467 114.491 21.0262 114.552C21.0058 114.612 20.8485 115.285 20.6764 116.048C20.5044 116.81 20.0808 118.681 19.735 120.205L19.1062 122.977L18.7081 122.99C18.3248 123.002 18.3091 122.998 18.2865 122.902C18.2736 122.846 18.0015 121.613 17.6819 120.161C17.3623 118.709 16.9368 116.789 16.7364 115.894L16.3719 114.266L16.3684 118.632L16.3648 122.999H15.947H15.5292ZM23.8908 117.908C24.5901 115.106 25.1709 112.789 25.1816 112.759C25.1955 112.719 25.3377 112.704 25.6861 112.704C25.9529 112.704 26.1712 112.715 26.1712 112.728C26.1712 112.742 26.7748 115.049 27.5124 117.855C28.2501 120.661 28.8537 122.967 28.8537 122.978C28.8537 122.99 28.63 122.999 28.3567 122.999H27.8597L27.5146 121.58C27.3248 120.8 27.1517 120.097 27.13 120.018L27.0905 119.875H25.6862H24.2819L24.2575 119.974C24.244 120.029 24.0802 120.727 23.8935 121.525L23.5541 122.977L23.0867 122.989L22.6193 123.002L23.8908 117.908ZM30.3648 115.241C29.7479 113.906 29.2326 112.789 29.2196 112.759C29.2015 112.717 29.3177 112.704 29.7203 112.704H30.2446L30.3238 112.869C30.6323 113.511 31.7523 115.959 31.8672 116.242L32.0087 116.59L32.2703 116.044C32.4142 115.743 32.8354 114.869 33.2063 114.101L33.8806 112.704H34.3575C34.6197 112.704 34.8343 112.711 34.8343 112.72C34.8343 112.729 34.6938 113.031 34.522 113.391C34.3502 113.751 34.1446 114.184 34.0651 114.354C33.9856 114.523 33.6116 115.314 33.2341 116.11C32.8565 116.907 32.5476 117.584 32.5476 117.614C32.5476 117.644 33.0744 118.803 33.7183 120.191C34.3621 121.578 34.9165 122.777 34.9502 122.856L35.0114 122.999L34.4721 122.998L33.9328 122.996L32.9654 120.886C32.4333 119.726 31.9847 118.776 31.9686 118.776C31.9525 118.776 31.9228 118.824 31.9026 118.884C31.8825 118.944 31.4405 119.894 30.9205 120.995L29.975 122.997L29.4583 122.998C29.1742 122.999 28.942 122.984 28.9426 122.966C28.9431 122.948 29.5156 121.749 30.215 120.301L31.4864 117.669L30.3648 115.241ZM36.4174 117.835C37.1188 115.034 37.6927 112.734 37.6927 112.723C37.6927 112.713 37.9088 112.704 38.173 112.704H38.6533L38.6985 112.847C38.7766 113.094 41.3426 122.899 41.3426 122.95C41.3426 122.983 41.1845 122.999 40.8597 122.999H40.3768L40.3462 122.878C40.3293 122.811 40.1546 122.113 39.9578 121.327L39.6001 119.897L38.2205 119.886C37.4617 119.879 36.8251 119.89 36.806 119.909C36.7779 119.937 36.5019 121.072 36.1051 122.79L36.0569 122.999H35.5995C35.3479 122.999 35.1421 122.983 35.1421 122.963C35.1421 122.943 35.716 120.635 36.4174 117.835ZM41.4555 118.318C41.1403 117.653 41.0788 117.045 41.0788 114.591V112.704H41.5151H41.9514L41.97 114.761C41.9891 116.877 42.0016 117.037 42.1858 117.521C42.2879 117.79 42.5618 118.101 42.7999 118.22C43.2612 118.45 44.0326 118.346 44.829 117.945L45.2344 117.741L45.2458 115.223L45.2571 112.704H45.6965H46.1359V117.851V122.999H45.6961H45.2564V120.931C45.2564 119.794 45.2485 118.863 45.2388 118.863C45.2291 118.863 45.0658 118.943 44.876 119.04C44.3726 119.299 43.7659 119.482 43.3215 119.51C43.0109 119.529 42.9 119.517 42.6655 119.437C42.1387 119.258 41.7157 118.867 41.4555 118.318ZM47.631 122.999V117.851V112.704H48.0708H48.5105V114.945C48.5105 116.178 48.5254 117.195 48.5435 117.206C48.6192 117.252 49.0633 117.143 49.2191 117.039C49.4424 116.892 49.6791 116.399 49.918 115.586C50.4408 113.805 50.5759 113.463 50.8914 113.12C51.1737 112.814 51.4414 112.704 51.9053 112.704H52.2924V113.297V113.89L52.1051 113.864C52.002 113.85 51.8347 113.861 51.7333 113.888C51.3449 113.993 51.1895 114.242 50.906 115.212C50.3976 116.952 50.3195 117.136 49.938 117.497C49.7723 117.654 49.7059 117.743 49.7462 117.755C49.8761 117.794 50.344 118.334 50.5279 118.658C50.6836 118.933 51.7477 121.479 52.2085 122.68C52.2665 122.831 52.3264 122.955 52.3417 122.955C52.3569 122.955 52.9268 120.723 53.6082 117.994C54.2895 115.266 54.8667 112.96 54.8907 112.869L54.9343 112.704H55.4146H55.895L55.9381 112.869L55.9693 112.988L56.3105 114.288C57.2886 118.012 58.5358 122.773 58.5616 122.879L58.5911 123.002L58.0921 122.989L57.593 122.977L57.2151 121.437L56.8371 119.897L55.4262 119.886L54.0153 119.874L53.8618 120.524C53.7774 120.881 53.6138 121.584 53.4982 122.086L53.2881 122.999H52.2696H51.251L50.5999 121.382C49.8982 119.64 49.5659 118.906 49.3454 118.61C49.1866 118.397 48.9179 118.224 48.6755 118.18L48.5105 118.15V120.574V122.999H48.0708H47.631ZM59.8203 121.705C60.0057 121.466 60.007 121.084 60.0211 117.014L60.0215 116.916L60.0361 112.704H62.1229H64.2097V117.851V122.999H63.7699H63.3302V118.467V113.936H62.1248H60.9194L60.8984 117.51C60.8851 119.77 60.8592 121.223 60.8282 121.459C60.6544 122.78 60.0989 123.349 59.2164 123.11C58.9527 123.039 58.9326 123.024 58.9326 122.909C58.9326 122.792 58.9951 122.26 59.0441 121.959L59.0666 121.822L59.2268 121.903C59.433 122.008 59.5773 121.976 59.7512 121.785L59.7566 121.779C59.78 121.753 59.8011 121.73 59.8203 121.705ZM66.2388 117.908C66.9381 115.106 67.519 112.789 67.5296 112.759C67.5435 112.719 67.6842 112.704 68.0268 112.704H68.5046L69.2875 115.685C70.6147 120.738 71.2013 122.976 71.2015 122.988C71.2016 122.994 70.978 122.999 70.7047 122.999H70.2077L69.8399 121.492C69.6376 120.663 69.4633 119.96 69.4525 119.93C69.4371 119.886 69.1278 119.877 68.0238 119.886L66.6147 119.897L66.258 121.437L65.9013 122.977L65.4343 122.989L64.9674 123.002L66.2388 117.908ZM38.9948 117.379C38.8161 116.659 38.5881 115.713 38.4882 115.278C38.3883 114.842 38.2712 114.327 38.228 114.134L38.1495 113.782L38.0926 114.134C37.9745 114.865 37.8064 115.635 37.4257 117.187C37.2097 118.067 37.0331 118.795 37.0331 118.803C37.0331 118.812 37.5476 118.819 38.1764 118.819C39.1562 118.819 39.3198 118.81 39.3198 118.754C39.3198 118.718 39.1735 118.1 38.9948 117.379ZM56.1439 117.053C55.9161 116.125 55.6761 115.118 55.6105 114.816C55.5449 114.513 55.4667 114.157 55.4367 114.024L55.3822 113.782L55.3514 113.958C55.1822 114.923 55.1151 115.258 54.9456 115.982C54.8379 116.441 54.6422 117.247 54.5106 117.773C54.379 118.298 54.2713 118.749 54.2713 118.774C54.2713 118.804 54.6571 118.819 55.4146 118.819C56.0533 118.819 56.558 118.802 56.558 118.78C56.558 118.759 56.3716 117.982 56.1439 117.053ZM26.8308 118.798C26.8308 118.786 26.6711 118.128 26.4758 117.335C26.2806 116.542 26.0158 115.428 25.8876 114.86C25.7296 114.159 25.6458 113.861 25.6279 113.936C25.6134 113.996 25.5606 114.279 25.5105 114.563C25.3821 115.293 25.2941 115.683 24.8954 117.285C24.7022 118.061 24.5441 118.723 24.5441 118.757C24.5441 118.809 24.7345 118.819 25.6875 118.819C26.3163 118.819 26.8308 118.81 26.8308 118.798ZM69.1628 118.72C69.1484 118.666 68.9386 117.81 68.6966 116.817C68.4545 115.825 68.1993 114.746 68.1293 114.42C68.0593 114.093 67.9911 113.855 67.9777 113.892C67.9642 113.928 67.9303 114.106 67.9022 114.288C67.808 114.896 67.6002 115.839 67.2449 117.271C67.0509 118.053 66.8921 118.721 66.8921 118.756C66.8921 118.809 67.0722 118.819 68.0406 118.819H69.1891L69.1628 118.72ZM49.843 127.255C50.4888 126.317 51.0171 125.54 51.0171 125.528C51.0171 125.516 47.4144 125.507 43.0111 125.507C36.6178 125.507 35.0117 125.518 35.0383 125.562C35.0567 125.592 36.1001 127.111 37.3571 128.938C38.6141 130.765 40.3839 133.339 41.29 134.658C42.1961 135.977 42.957 137.08 42.9808 137.11C43.0124 137.15 43.1579 136.971 43.5165 136.45C44.374 135.205 47.3249 130.918 47.7025 130.368C47.9019 130.078 48.201 129.642 48.3671 129.4C48.5331 129.158 49.1973 128.193 49.843 127.255ZM54.7996 34.9524C48.9378 26.4898 45.4265 21.4189 44.2132 19.6637C43.5733 18.7381 43.0368 17.9816 43.0207 17.9825C43.0048 17.9834 42.941 18.0577 42.879 18.1475C42.8171 18.2373 41.8065 19.6967 40.6333 21.3905C39.4602 23.0844 37.3355 26.1531 35.9118 28.2099C34.4882 30.2667 32.8982 32.5633 32.3786 33.3134C31.859 34.0635 31.3313 34.8258 31.2058 35.0072C31.0804 35.1887 30.3878 36.1885 29.6669 37.229C28.3251 39.1656 27.5269 40.3183 20.1314 50.9997C17.7858 54.3874 15.6062 57.5353 15.2878 57.9951L11.022 64.1545C7.74274 68.8895 5.78747 71.7123 5.18611 72.5797C2.73846 76.1102 1.89695 77.3381 1.89695 77.3793C1.89695 77.4069 1.96349 77.5212 2.0448 77.6333C2.12611 77.7455 2.93419 78.9162 3.84061 80.235C4.74698 81.5537 6.08857 83.5038 6.82194 84.5686C7.55527 85.6332 9.32646 88.207 10.7579 90.288C12.1894 92.369 14.0692 95.1012 14.9354 96.3594C15.8016 97.6177 17.3754 99.9044 18.4328 101.441C19.4902 102.978 20.9828 105.145 21.7495 106.258C22.5163 107.372 23.4043 108.663 23.7229 109.128L24.3023 109.975L26.855 109.975L31.974 109.976L36.9552 109.974L49.7649 109.965L54.1086 109.954L58.1095 109.975C59.0689 109.975 60.6928 109.976 60.6928 109.976H61.7333L62.5207 108.833C63.7105 107.105 64.8776 105.41 65.6872 104.235C66.0873 103.654 66.9728 102.367 67.6551 101.375C69.0518 99.344 71.0089 96.5004 71.5309 95.7435C71.631 95.5983 72.8092 93.8858 74.149 91.9379C75.4889 89.9899 76.9261 87.9012 77.3427 87.2963C77.7594 86.6914 78.4613 85.6718 78.9025 85.0305C79.3437 84.3893 80.039 83.3796 80.4475 82.7867C80.856 82.1939 81.8615 80.733 82.6819 79.5403L84.1735 77.3718L82.9096 75.5481C82.2145 74.545 81.4164 73.3926 81.1361 72.9871C80.4039 71.928 74.8738 63.9411 74.6548 63.6265C74.5537 63.4813 73.4912 61.947 72.2935 60.2169C68.879 55.2844 62.604 46.223 60.7845 43.5974C59.8749 42.2847 58.9326 40.9236 58.6908 40.5728C58.4489 40.2221 56.6979 37.6929 54.7996 34.9524Z" fill="#43319D"/>
</svg>
