<svg width="94" height="115" viewBox="0 0 94 115" fill="none" xmlns="http://www.w3.org/2000/svg">
<path fill-rule="evenodd" clip-rule="evenodd" d="M36.1031 2.42194C36.1731 2.20988 36.2703 2.0053 36.3961 1.81121C37.1687 0.356279 39.5262 -0.0934888 41.1496 0.0155707C43.3785 0.165426 45.5004 0.682446 47.5233 1.63874C48.1226 1.92209 48.6857 2.24462 49.2646 2.56412C50.0589 3.00258 50.8514 3.2201 51.6249 3.19546C52.9136 3.15446 54.1493 2.4997 55.2512 1.5113C54.6301 3.56323 54.2804 5.46551 52.434 6.84208C53.4871 8.5121 53.8884 10.8587 54.2856 12.5893C54.5436 13.7142 54.8325 14.9137 55.3105 15.9685C55.8707 17.2047 56.7518 18.6635 58.249 18.8517C59.6331 19.026 60.6026 18.1439 60.8874 16.8491L61.0916 15.9205H93.0576L92.9729 17.1773C92.8264 19.3508 92.3562 21.6754 91.2658 23.5918C91.0581 23.9573 90.8269 24.3077 90.5717 24.6365L92.6629 24.6347L92.5068 25.9515C92.107 29.3239 90.9705 32.3165 88.8654 34.7835L91.4598 34.7684L91.344 36.0585C91.0509 39.3283 90.2632 44.1592 87.9426 47.1975L89.47 47.2106L89.3544 48.483C88.9444 53.0031 87.4486 57.9322 84.6811 61.7278L86.3576 61.7293L85.8606 63.265C79.5671 82.7137 67.9451 107.177 46.9197 114.365L46.5291 114.498L46.1382 114.365C25.1148 107.184 13.489 82.7086 7.19714 63.265L6.70012 61.7293L8.37656 61.7278C5.60894 57.9322 4.11328 53.0031 3.70312 48.483L3.58765 47.2106L5.11497 47.1975C2.79451 44.1592 2.00672 39.3283 1.71358 36.0585L1.59793 34.7684L4.19214 34.7835C2.08708 32.3165 0.950641 29.3239 0.550876 25.9515L0.394751 24.6347L2.48596 24.6365C2.23084 24.3077 1.99962 23.9573 1.79173 23.5918C0.701496 21.6754 0.23122 19.3508 0.0847127 17.1773L0 15.9205H31.9344L32.1408 16.8459C32.4173 18.0865 33.2212 18.8364 34.5167 18.8663C35.3525 18.8857 36.053 18.4256 36.6028 17.8393C37.6527 16.7198 38.4994 14.781 38.3177 13.2386C38.1982 12.225 37.3944 11.5615 36.4335 11.323C35.9408 11.2008 35.3839 11.3713 34.9765 11.693C34.4119 12.1387 34.1281 12.7083 34.1013 13.7797C33.3839 13.1443 32.6166 12.3197 32.176 11.6324C30.9661 9.74508 30.7672 7.41929 31.9033 5.39866C32.7993 3.80498 34.3391 2.75902 36.1031 2.42194Z" fill="black"/>
<path fill-rule="evenodd" clip-rule="evenodd" d="M1.27618 17.099H30.9746C31.5465 19.6635 33.6064 20.024 34.4889 20.0444C35.5652 20.0693 36.5881 19.5898 37.479 18.6398C38.7812 17.2513 39.7247 14.977 39.5039 13.1026C39.3206 11.5479 38.1154 10.5249 36.7246 10.18C35.9411 9.9857 35.1332 10.1788 34.4922 10.588C34.2401 10.7487 34.043 10.943 33.8742 11.1886C34.1339 10.2882 34.3755 9.83443 34.8996 9.46585C36.8735 8.07737 39.8131 10.817 41.7891 9.98691C40.0011 9.73224 37.3941 7.7308 35.6366 7.89156C34.2444 8.019 33.5368 9.10131 33.5237 11.4893C33.2354 11.1102 32.9594 10.6568 32.7889 10.28C31.3527 7.10128 33.5618 3.60734 37.1713 3.48516C36.9816 1.67033 39.3709 1.14462 41.0686 1.25873C43.4838 1.42111 45.1788 1.78807 46.3769 2.39921C48.8642 3.66813 48.5086 4.72197 50.0766 5.06046C50.8832 5.23435 52.099 4.76923 53.3489 3.80486C53.142 4.59292 51.6024 6.47924 50.4979 6.57659C50.097 6.61193 49.7263 6.5887 49.3316 6.49923C48.1041 6.22113 46.6152 5.44742 44.8801 4.91686C43.1451 4.38631 40.9412 4.21606 39.0003 4.63896C38.7967 4.39863 37.914 3.80264 37.4029 3.93553C37.7933 4.28937 38.0773 4.64422 38.4788 5.36118C39.1051 6.47985 39.3112 7.78452 40.44 8.08241C40.0975 7.7203 39.9854 7.49753 39.8925 7.15904C39.7996 6.82055 39.7595 6.31525 39.6805 5.80873C40.0818 5.73481 40.7351 5.58273 41.1628 5.7233C41.4631 6.23466 41.7339 7.23599 41.9381 7.75726C42.0782 8.11473 42.208 8.19571 42.5366 7.92084C42.9301 7.59185 43.3272 6.79551 43.7166 5.62151C46.2858 5.7342 48.2344 8.04727 51.1627 7.08876C52.796 9.16372 52.8807 13.493 54.2205 16.4497C55.1767 18.56 56.4151 19.8091 58.0983 20.0208C59.4866 20.1955 61.5101 19.573 62.0542 17.099H91.7815C91.4529 21.9764 89.5779 25.0906 86.9248 25.8183L91.3209 25.8143C90.7289 30.8084 88.5477 33.9099 85.9044 35.9794L90.1547 35.9546C89.5951 42.1972 87.8503 46.8967 84.7841 48.349L88.1652 48.3778C87.6207 54.3783 85.3051 59.6701 82.1402 62.9042L84.7231 62.9064C78.6703 81.6117 67.281 106.156 46.5289 113.251C25.7785 106.163 14.3853 81.6048 8.33446 62.9064L10.9176 62.9042C7.75253 59.6701 5.43693 54.3783 4.89244 48.3778L8.27349 48.349C5.20733 46.8967 3.46268 42.1972 2.90303 35.9546L7.1534 35.9794C4.50999 33.9099 2.32887 30.8084 1.73686 25.8143L6.13276 25.8183C3.47987 25.0906 1.60493 21.9764 1.27618 17.099Z" fill="#FEE301"/>
<path fill-rule="evenodd" clip-rule="evenodd" d="M68.2897 69.1309C67.468 70.8233 66.4498 72.4055 65.2646 73.8483H27.6814C26.4965 72.4055 25.4783 70.8233 24.6563 69.1309H68.2897Z" fill="#2A8347"/>
<path fill-rule="evenodd" clip-rule="evenodd" d="M65.4242 73.6514C64.04 75.3735 62.42 76.9025 60.6126 78.1911L32.2628 78.1406C30.4838 76.8626 28.888 75.3511 27.522 73.6514H65.4242Z" fill="#024797"/>
<path fill-rule="evenodd" clip-rule="evenodd" d="M60.9177 77.97C56.8871 80.9388 51.8879 82.6971 46.473 82.6971C41.0582 82.6971 36.0589 80.9388 32.0286 77.97H60.9177Z" fill="#D82721"/>
<path fill-rule="evenodd" clip-rule="evenodd" d="M75.7342 62.5689C75.9106 61.8837 75.52 61.0978 75.1099 60.7585C75.7244 60.0494 75.8261 59.3214 75.7117 58.7373C75.2558 59.6702 74.3956 60.2027 73.429 60.5467C72.3087 60.9452 71.6021 61.729 71.7386 62.7713C71.8272 63.4489 72.4496 63.9534 73.0461 64.4748C72.704 64.8157 72.5417 65.2482 72.8996 65.7543C73.0463 65.1835 73.2266 64.9868 73.4433 64.8366C73.8627 65.2437 74.1946 65.6852 74.1973 66.243C74.2022 67.2124 73.378 67.6858 72.8315 67.6418C72.0824 67.5814 71.4996 67.0181 71.4996 65.6363C70.96 66.5587 71.1098 67.4853 71.5385 67.9975C70.8514 68.2883 70.4438 68.69 70.3247 69.1884C69.7908 69.4516 69.4229 69.9001 69.2977 70.5226C69.1592 71.2099 69.5936 71.9016 69.9807 72.6018C69.5303 72.8149 69.2193 73.1754 69.3978 73.781C69.7298 73.2749 69.9678 73.1515 70.2291 73.0786C70.4655 73.5764 70.6079 74.0789 70.4372 74.5873C70.1284 75.5074 69.2625 75.6966 68.6734 75.4828C67.9681 75.2269 67.459 74.4723 67.9059 73.1626C67.0962 73.8669 67.024 74.8765 67.2646 75.4967C66.4944 75.5579 65.9689 75.7592 65.7025 76.2064C65.0799 76.3092 64.545 76.6428 64.226 77.19C63.8792 77.7845 64.0504 78.5324 64.1879 79.2774C63.7216 79.3148 63.3302 79.5335 63.2549 80.1277C63.7456 79.8043 64.0126 79.7744 64.2727 79.8043C64.3394 80.3466 64.3168 80.8675 63.9833 81.3043C63.392 82.0784 62.4458 81.9625 62.038 81.6006C61.479 81.1048 61.3609 80.3082 62.2091 79.2086C61.0429 79.5188 60.6617 80.5142 60.6885 81.1779C59.9155 80.9866 59.1463 81.0856 58.714 81.4673C58.1877 81.4154 57.6829 81.5289 57.2939 81.8532C56.7893 82.2737 56.6717 83.0153 56.5403 83.7555C56.0946 83.6269 55.6588 83.6937 55.3887 84.2158C55.9477 84.094 56.2094 84.1574 56.4396 84.275C56.3097 84.8599 56.1083 85.3938 55.6218 85.7042C54.8086 86.2231 53.9512 85.7848 53.684 85.3042C53.3177 84.6456 53.5013 83.8585 54.6643 83.1244C53.5707 83.1123 52.8058 83.7299 52.6137 84.3606C51.9345 83.9054 51.2988 83.8516 50.7829 84.0366C50.3143 83.8624 49.8022 83.8795 49.2816 84.0938C48.6086 84.3707 47.9888 85.1955 47.6138 85.9349L47.0431 85.9397L46.5375 84.4331L46.0482 85.9397L45.4776 85.9349C45.1025 85.1955 44.4827 84.3707 43.8097 84.0938C43.2892 83.8795 42.777 83.8624 42.3086 84.0366C41.7928 83.8516 41.1568 83.9054 40.4779 84.3606C40.2855 83.7299 39.5207 83.1123 38.427 83.1244C39.59 83.8585 39.7736 84.6456 39.4073 85.3042C39.1401 85.7848 38.2827 86.2231 37.4696 85.7042C36.983 85.3938 36.7816 84.8599 36.6517 84.275C36.8819 84.1574 37.1436 84.094 37.7026 84.2158C37.4325 83.6937 36.9967 83.6269 36.551 83.7555C36.4197 83.0153 36.3022 82.2737 35.7974 81.8532C35.4084 81.5289 34.9037 81.4154 34.3774 81.4673C33.9452 81.0856 33.1758 80.9866 32.4028 81.1779C32.4296 80.5142 32.0484 79.5188 30.8823 79.2086C31.7304 80.3082 31.6124 81.1048 31.0533 81.6006C30.6455 81.9625 29.6994 82.0784 29.1082 81.3043C28.7745 80.8675 28.752 80.3466 28.8187 79.8043C29.0788 79.7744 29.3458 79.8043 29.8365 80.1277C29.7612 79.5335 29.3697 79.3148 28.9034 79.2774C29.0411 78.5324 29.2124 77.7845 28.8653 77.19C28.5463 76.6428 28.0115 76.3092 27.3888 76.2064C27.1224 75.7592 26.5969 75.5579 25.8267 75.4967C26.0674 74.8765 25.9951 73.8669 25.1857 73.1626C25.6324 74.4723 25.1233 75.2269 24.4179 75.4828C23.8288 75.6966 22.9629 75.5074 22.6541 74.5873C22.4835 74.0789 22.6261 73.5764 22.8622 73.0786C23.1235 73.1515 23.3615 73.2749 23.6936 73.781C23.872 73.1754 23.561 72.8149 23.1106 72.6018C23.4978 71.9016 23.9322 71.2099 23.7936 70.5226C23.6684 69.9001 23.3005 69.4516 22.7669 69.1884C22.6476 68.69 22.24 68.2883 21.5531 67.9975C21.9817 67.4853 22.1315 66.5587 21.5919 65.6363C21.5919 67.0181 21.009 67.5814 20.2601 67.6418C19.7133 67.6858 18.8891 67.2124 18.894 66.243C18.8967 65.6852 19.2286 65.2437 19.6481 64.8366C19.8648 64.9868 20.045 65.1835 20.1917 65.7543C20.5498 65.2482 20.3874 64.8157 20.0452 64.4748C20.6417 63.9534 21.2641 63.4489 21.3527 62.7713C21.4892 61.729 20.7827 60.9452 19.6624 60.5467C18.6958 60.2027 17.8355 59.6702 17.3797 58.7373C17.2653 59.3214 17.367 60.0494 17.9814 60.7585C17.5714 61.0978 17.1808 61.8837 17.3571 62.5689C17.7895 61.8338 18.4521 61.4816 19.0823 61.4723C20.07 61.4575 20.5009 61.9267 20.5674 62.4679C20.647 63.1164 20.1637 63.6169 19.6041 64.1345C19.3264 63.9673 18.9161 63.749 18.7915 63.1589C18.4476 63.8655 18.8601 64.2892 19.1801 64.5263C18.5832 65.0904 18.0355 65.7193 18.1028 66.6055C18.1419 67.1199 18.3741 67.5596 18.7023 67.8868C18.8834 68.6672 19.1203 69.226 19.9137 69.6937C19.6348 70.1445 19.4332 70.9954 19.822 71.5893C19.9941 70.7565 20.7814 70.214 21.3757 70.0066C22.3069 69.6814 22.7135 69.9906 22.9512 70.4824C23.2449 71.0897 22.9357 71.7356 22.5735 72.4247C22.2582 72.3558 21.8217 72.2655 21.524 71.7661C21.4301 72.5267 21.9326 72.8025 22.3106 72.9296C21.9568 73.635 21.681 74.3837 22.0214 75.18C22.242 75.6954 22.6711 76.0563 23.154 76.2555C23.4399 76.7709 24.021 77.3673 24.8965 77.5537C24.7787 78.0689 24.8476 78.8939 25.4085 79.3336C25.3013 78.4902 25.8104 77.748 26.3301 77.3957C26.9702 76.9621 27.6695 77.0274 28.0542 77.4182C28.5232 77.8942 28.4491 78.5728 28.3329 79.3073C28.0117 79.3649 27.5451 79.4937 27.0356 79.126C27.2578 79.8724 27.8445 79.9195 28.2431 79.8851C28.1379 80.6433 28.1207 81.4198 28.701 82.0659C29.0243 82.4256 29.4952 82.6397 29.9856 82.7253C30.6199 83.4267 31.3543 83.6877 32.2606 83.5548C32.3179 84.0781 32.7615 84.8225 33.4365 85.0388C33.0584 84.2865 33.131 83.5449 33.4742 83.0125C34.0117 82.1782 34.6125 82.1174 35.1048 82.3493C35.6878 82.6237 35.8652 83.2716 36.0135 83.9932C35.7315 84.1629 35.3372 84.4537 34.7326 84.2943C35.1979 84.914 35.7676 84.7411 36.1297 84.564C36.2994 85.3553 36.5472 86.1425 37.3341 86.5589C37.823 86.8177 38.3724 86.8433 38.8663 86.7124C39.4204 86.9483 40.2753 87.1372 41.0566 86.7732C41.2802 87.2531 41.9452 87.7311 42.6614 87.7437C42.0567 87.1384 41.7848 86.3471 41.9417 85.7446C42.1877 84.8005 42.8275 84.5529 43.3745 84.627C44.4921 84.7781 45.1878 86.4969 45.8575 87.5092L46.3451 86.2348L46.7822 86.2364L47.2338 87.5092C47.9035 86.4969 48.5992 84.7781 49.7169 84.627C50.2638 84.5529 50.9036 84.8005 51.1496 85.7446C51.3065 86.3471 51.0346 87.1384 50.43 87.7437C51.1461 87.7311 51.8111 87.2531 52.0348 86.7732C52.816 87.1372 53.6709 86.9483 54.225 86.7124C54.719 86.8433 55.2684 86.8177 55.7574 86.5589C56.5442 86.1425 56.792 85.3553 56.9616 84.564C57.3238 84.7411 57.8936 84.914 58.3587 84.2943C57.7541 84.4537 57.3598 84.1629 57.0778 83.9932C57.2262 83.2716 57.4036 82.6237 57.9865 82.3493C58.4789 82.1174 59.0796 82.1782 59.6172 83.0125C59.9603 83.5449 60.0329 84.2865 59.6548 85.0388C60.3298 84.8225 60.7735 84.0781 60.831 83.5548C61.737 83.6877 62.4716 83.4267 63.1057 82.7253C63.5962 82.6397 64.067 82.4256 64.3903 82.0659C64.9708 81.4198 64.9536 80.6433 64.8482 79.8851C65.2468 79.9195 65.8335 79.8724 66.0559 79.126C65.5464 79.4937 65.0797 79.3649 64.7586 79.3073C64.6424 78.5728 64.5681 77.8942 65.0371 77.4182C65.422 77.0274 66.1212 76.9621 66.7614 77.3957C67.281 77.748 67.7901 78.4902 67.6828 79.3336C68.2439 78.8939 68.3129 78.0689 68.1948 77.5537C69.0704 77.3673 69.6515 76.7709 69.9375 76.2555C70.4202 76.0563 70.8493 75.6954 71.0699 75.18C71.4106 74.3837 71.1346 73.635 70.7808 72.9296C71.1587 72.8025 71.6615 72.5267 71.5673 71.7661C71.2696 72.2655 70.8332 72.3558 70.5178 72.4247C70.1557 71.7356 69.8465 71.0897 70.1401 70.4824C70.3779 69.9906 70.7845 69.6814 71.7157 70.0066C72.3099 70.214 73.0973 70.7565 73.2694 71.5893C73.6581 70.9954 73.4566 70.1445 73.1777 69.6937C73.9712 69.226 74.2079 68.6672 74.389 67.8868C74.7172 67.5596 74.9495 67.1199 74.9886 66.6055C75.0559 65.7193 74.5081 65.0904 73.9112 64.5263C74.2313 64.2892 74.6438 63.8655 74.2998 63.1589C74.1752 63.749 73.7649 63.9673 73.4873 64.1345C72.9276 63.6169 72.4445 63.1164 72.5241 62.4679C72.5904 61.9267 73.0214 61.4575 74.0091 61.4723C74.6393 61.4816 75.3018 61.8338 75.7342 62.5689ZM41.6657 84.4216C40.9952 84.8013 40.4855 85.3252 40.0817 85.9032C39.9821 86.046 39.8567 86.1768 39.712 86.292C40.3019 85.9735 40.802 85.4936 41.19 84.9485C41.3371 84.7421 41.4963 84.5664 41.6657 84.4216ZM33.6872 81.6252C32.9434 81.7319 32.3171 82.0158 31.7466 82.4242C31.5293 82.5797 31.241 82.6851 30.923 82.7352C31.5882 82.7273 32.1855 82.5601 32.7449 82.1366C33.0361 81.9165 33.3578 81.7424 33.6872 81.6252ZM26.7093 76.184C25.97 76.0594 25.2861 76.1513 24.6117 76.3583C24.3559 76.4366 24.0646 76.4564 23.7693 76.4187C24.5215 76.6144 25.3152 76.5469 26.0698 76.3126C26.2845 76.2458 26.4991 76.2032 26.7093 76.184ZM22.0554 68.9628C21.4217 68.6449 20.7716 68.5266 20.096 68.511C19.8001 68.5042 19.4948 68.4187 19.2147 68.2677C19.8946 68.7176 20.718 68.8962 21.5236 68.9129C21.709 68.9168 21.8868 68.9333 22.0554 68.9628ZM51.4256 84.4216C52.0962 84.8013 52.6059 85.3252 53.0098 85.9032C53.1094 86.046 53.2349 86.1768 53.3793 86.292C52.7894 85.9735 52.2895 85.4936 51.9014 84.9485C51.7543 84.7421 51.5951 84.5664 51.4256 84.4216ZM59.4041 81.6252C60.1481 81.7319 60.7743 82.0158 61.3448 82.4242C61.5621 82.5797 61.8504 82.6851 62.1686 82.7352C61.5033 82.7273 60.9058 82.5601 60.3464 82.1366C60.0552 81.9165 59.7336 81.7424 59.4041 81.6252ZM66.3821 76.184C67.1214 76.0594 67.8052 76.1513 68.4796 76.3583C68.7354 76.4366 69.0268 76.4564 69.322 76.4187C68.5699 76.6144 67.7761 76.5469 67.0215 76.3126C66.8069 76.2458 66.5922 76.2032 66.3821 76.184ZM71.0361 68.9628C71.6696 68.6449 72.3197 68.5266 72.9956 68.511C73.2912 68.5042 73.5965 68.4187 73.8767 68.2677C73.1967 68.7176 72.3735 68.8962 71.5677 68.9129C71.3824 68.9168 71.2047 68.9333 71.0361 68.9628Z" fill="black"/>
<path fill-rule="evenodd" clip-rule="evenodd" d="M33.0708 47.7373V62.1138H30.1456V57.5805H26.9591C27.065 59.1746 27.3378 60.7968 27.8997 62.1138H24.9149C23.2728 57.4501 23.6708 53.4874 25.2902 50.9505C27.205 47.9508 29.6038 47.7373 33.0708 47.7373ZM30.1456 54.4459V51.1317C28.3337 51.3088 27.3765 52.7763 27.0634 54.4459H30.1456Z" fill="black"/>
<path fill-rule="evenodd" clip-rule="evenodd" d="M39.6906 51.7166H42.6242V61.7605H39.6906V57.485H36.8149V61.7605H33.8812V51.7166H36.8149V54.9489H39.6906V51.7166Z" fill="black"/>
<path fill-rule="evenodd" clip-rule="evenodd" d="M48.71 51.6792H51.758V54.7656C53.1565 54.3293 53.7051 53.1107 54.1021 51.6792H57.2827C57.0826 53.1172 56.3287 54.5901 55.0554 55.5427C56.7357 56.6176 57.4681 58.0749 57.2673 61.7821H54.1154C54.0026 59.4448 54.3073 58.6439 52.7829 57.2731C52.6239 57.3604 51.9861 57.5939 51.758 57.6512V61.7821H48.71V57.6512C48.4818 57.5939 47.9123 57.3941 47.7534 57.3069C46.3654 58.4078 46.3628 59.4786 46.3523 61.7821H43.2006C42.9999 58.0749 43.7322 56.6176 45.4123 55.5427C44.105 54.6913 43.3854 53.1172 43.1852 51.6792H46.3658C46.7628 53.1107 47.3114 54.3293 48.71 54.7656V51.6792Z" fill="black"/>
<path fill-rule="evenodd" clip-rule="evenodd" d="M58.0498 47.6782H61.0346V52.4225C61.4602 50.7581 62.4984 48.7973 64.6537 47.6782H67.3401V62.1136H64.4149V51.7211C61.9032 53.9059 61.0346 58.4396 61.0346 60.5759V62.1136H58.0498V47.6782Z" fill="black"/>
<path fill-rule="evenodd" clip-rule="evenodd" d="M69.4308 47.8098L58.4251 40.3879L56.6136 41.8386L46.5722 34.3107L36.5305 41.8386L34.719 40.3879L23.7133 47.8098L35.4368 38.7433L36.9747 39.9579L46.5722 33.5012L56.1696 39.9579L57.7073 38.7433L69.4308 47.8098Z" fill="white"/>
<path fill-rule="evenodd" clip-rule="evenodd" d="M17.0837 52.4537C17.431 50.9931 18.1993 50.3377 19.3888 50.4861C20.6036 50.638 21.1845 51.462 21.1315 52.9592L21.6428 53.0232L21.4673 54.3923L20.942 54.3267C20.6249 55.7887 19.8592 56.4434 18.6444 56.2918C17.4527 56.1429 16.874 55.3201 16.9084 53.8228L16.5312 53.7757L16.7068 52.4066L17.0837 52.4537ZM20.0972 52.8301C20.0585 52.5843 19.958 52.3852 19.7966 52.2323C19.6339 52.0796 19.4287 51.9871 19.1792 51.956C18.9415 51.9263 18.719 51.9665 18.5122 52.0766C18.3055 52.1869 18.15 52.3529 18.0434 52.5734L20.0972 52.8301ZM19.9353 54.2008L17.8954 53.946C17.9313 54.1776 18.0366 54.3751 18.211 54.5365C18.3853 54.6977 18.5948 54.793 18.8398 54.8237C19.0683 54.8522 19.2828 54.8097 19.4819 54.6962C19.6808 54.5829 19.8328 54.4175 19.9353 54.2008Z" fill="black"/>
<path fill-rule="evenodd" clip-rule="evenodd" d="M17.216 49.1296L17.7599 47.5707L19.9225 47.5874L18.2049 46.2951L18.7144 44.8345L21.815 47.5921C22.0649 47.8172 22.2462 47.9998 22.3583 48.142C22.4694 48.2836 22.5406 48.4625 22.5703 48.6758C22.5995 48.8903 22.5582 49.1567 22.4469 49.4756C22.388 49.6442 22.2625 49.9269 22.0694 50.322L21.0968 49.9914C21.2079 49.7571 21.282 49.5838 21.3209 49.4725C21.4365 49.1407 21.3818 48.8971 21.1574 48.7398L17.216 49.1296Z" fill="black"/>
<path fill-rule="evenodd" clip-rule="evenodd" d="M19.1407 43.9993L21.4773 40.0049L22.5417 40.6116L21.7574 41.9522L25.0019 43.801L24.2331 45.1149L20.9889 43.2662L20.2052 44.6058L19.1407 43.9993Z" fill="black"/>
<path fill-rule="evenodd" clip-rule="evenodd" d="M24.9238 38.8989L25.4627 38.2869C25.9567 37.7261 26.4234 37.3963 26.864 37.2971C27.3027 37.198 27.7342 37.3302 28.1574 37.6934C28.5044 37.9911 28.6599 38.3427 28.6245 38.7486C28.5893 39.1548 28.3673 39.5898 27.9577 40.0549L26.2247 42.0224L22.47 38.8007L25.218 35.6804L25.9786 36.333L24.2375 38.31L24.9238 38.8989ZM26.4249 40.1868L26.9409 39.6007C27.257 39.2418 27.284 38.9498 27.0209 38.7242C26.7901 38.5261 26.5165 38.6064 26.2004 38.9655L25.6843 39.5514L26.4249 40.1868Z" fill="black"/>
<path fill-rule="evenodd" clip-rule="evenodd" d="M28.1604 36.3092C27.6944 35.6526 27.5176 35.0128 27.6286 34.3918C27.7399 33.7691 28.1264 33.2297 28.7879 32.7726C29.4662 32.3037 30.1167 32.1221 30.7392 32.228C31.3598 32.3336 31.9014 32.7102 32.3606 33.3575C32.6941 33.8277 32.8873 34.2692 32.9401 34.6808C32.9931 35.0922 32.9276 35.4864 32.7438 35.8631C32.5591 36.2407 32.2415 36.5843 31.7889 36.8973C31.3295 37.2146 30.898 37.4054 30.4938 37.4697C30.0901 37.5325 29.6842 37.4725 29.2743 37.2895C28.8655 37.1059 28.4937 36.7794 28.1604 36.3092ZM29.4243 35.444C29.7128 35.8503 29.9954 36.0893 30.2743 36.1616C30.5526 36.2331 30.8245 36.1777 31.0874 35.996C31.3577 35.8091 31.5057 35.5771 31.5308 35.3016C31.5552 35.0251 31.4091 34.6614 31.0901 34.2118C30.821 33.8325 30.5472 33.61 30.2683 33.5417C29.9901 33.4745 29.7185 33.5322 29.4527 33.7158C29.1994 33.8909 29.0578 34.1199 29.0304 34.4043C29.0022 34.6874 29.1339 35.0346 29.4243 35.444Z" fill="black"/>
<path fill-rule="evenodd" clip-rule="evenodd" d="M38.6464 33.2914L37.2421 33.9086L35.7155 30.5243L34.6171 31.007L35.2393 32.3868C35.4953 32.9541 35.6537 33.3837 35.7124 33.6771C35.7711 33.9704 35.7175 34.2281 35.5493 34.451C35.3809 34.6738 35.0474 34.8955 34.5467 35.1155C34.3932 35.1829 34.2101 35.2433 33.9975 35.2981L33.5876 34.3892L33.7982 34.2967C33.9887 34.2131 34.1043 34.1123 34.1454 33.9952C34.1863 33.8785 34.1573 33.7096 34.0578 33.4893L32.7188 30.5208L36.6227 28.8052L38.6464 33.2914Z" fill="black"/>
<path fill-rule="evenodd" clip-rule="evenodd" d="M40.586 29.8019L41.3949 29.6612C42.1364 29.5319 42.7093 29.5658 43.1149 29.7622C43.5192 29.9577 43.7701 30.3285 43.8675 30.8736C43.9473 31.3205 43.8442 31.6903 43.5577 31.9839C43.2714 32.2776 42.8215 32.4777 42.2066 32.5848L39.6055 33.0376L38.7416 28.2014L40.2531 27.9382L40.586 29.8019ZM40.9314 31.7351L41.7061 31.6004C42.1806 31.5176 42.3877 31.3076 42.3271 30.9687C42.2739 30.6714 42.0102 30.5639 41.5357 30.6465L40.761 30.7815L40.9314 31.7351Z" fill="black"/>
<path fill-rule="evenodd" clip-rule="evenodd" d="M45.01 27.3335L46.5471 27.36L46.5167 29.078L48.1974 29.1071L48.2277 27.3888L49.7715 27.4155L49.6848 32.3254L48.1409 32.2989L48.1759 30.3132L46.4954 30.2842L46.4604 32.2698L44.9233 32.2434L45.01 27.3335Z" fill="black"/>
<path fill-rule="evenodd" clip-rule="evenodd" d="M52.9003 29.98L53.6936 30.1898C54.4208 30.3821 54.9258 30.6517 55.2092 30.9989C55.492 31.3448 55.5606 31.7855 55.4155 32.3201C55.2964 32.7584 55.0445 33.0506 54.6592 33.1972C54.2739 33.3439 53.7804 33.3376 53.1774 33.1782L50.6262 32.5035L51.9138 27.76L53.3965 28.1522L52.9003 29.98ZM52.3855 31.8762L53.1452 32.0772C53.6107 32.2001 53.8884 32.0961 53.9786 31.7637C54.0578 31.4721 53.8647 31.2649 53.3992 31.1417L52.6394 30.9407L52.3855 31.8762ZM56.6995 29.0257L58.1877 29.4193L56.9 34.1626L55.4118 33.7692L56.6995 29.0257Z" fill="black"/>
<path fill-rule="evenodd" clip-rule="evenodd" d="M64.4074 33.0905L61.7709 37.2551L60.5448 36.499L61.9923 34.2126L58.9641 35.5241L57.7352 34.7662L60.3717 30.6015L61.6006 31.3595L60.1421 33.6634L63.1901 32.34L64.4074 33.0905ZM64.1009 31.4752C63.9092 31.6899 63.6706 31.8096 63.3847 31.8383C63.0995 31.866 62.823 31.7979 62.5568 31.6337C62.2914 31.4701 62.1093 31.2553 62.0087 30.9868C61.9084 30.7203 61.9141 30.4567 62.0262 30.1956L62.5272 30.5046C62.4574 30.7917 62.5564 31.0173 62.8255 31.1834C63.1134 31.3609 63.371 31.3552 63.6 31.1662L64.1009 31.4752Z" fill="black"/>
<path fill-rule="evenodd" clip-rule="evenodd" d="M67.1022 42.6474L65.9668 41.3583L66.5452 40.0805C66.6807 39.7777 66.7511 39.5719 66.7564 39.4645C66.7615 39.3554 66.7181 39.2502 66.6262 39.1458L65.1407 40.4204L64.1338 39.2771L67.8887 36.0552L68.8957 37.1987L67.4541 38.4355C67.5458 38.531 67.65 38.5779 67.766 38.5755C67.8818 38.5744 68.1484 38.4973 68.5691 38.3438C68.8785 38.2299 69.1224 38.1721 69.3012 38.1732C69.4803 38.1725 69.6783 38.2527 69.8969 38.4121C70.1148 38.5706 70.4094 38.8616 70.7804 39.2827L69.9865 39.9637L69.9355 39.906C69.763 39.7101 69.5977 39.5974 69.4397 39.5679C69.281 39.5374 69.0919 39.5649 68.8701 39.6477C68.6481 39.7319 68.4654 39.7737 68.3207 39.7749C68.176 39.7763 68.0252 39.7375 67.8699 39.6588C67.9599 39.8708 67.9925 40.096 67.9675 40.3341C67.9415 40.5714 67.8482 40.8819 67.6864 41.263L67.1022 42.6474Z" fill="black"/>
<path fill-rule="evenodd" clip-rule="evenodd" d="M69.5976 46.8083L68.829 45.4942L72.0792 43.642L71.478 42.6142L70.1529 43.3693C69.6082 43.6797 69.1916 43.8803 68.9023 43.9685C68.6128 44.057 68.3476 44.0312 68.1055 43.8892C67.8632 43.7474 67.605 43.443 67.331 42.9747C67.2471 42.8311 67.1669 42.6576 67.0898 42.4546L67.9625 41.9574L68.0777 42.1545C68.182 42.3327 68.2956 42.4355 68.4178 42.4637C68.5399 42.4918 68.7069 42.4456 68.9185 42.3248L71.7696 40.7002L73.9063 44.3529L69.5976 46.8083Z" fill="black"/>
<path fill-rule="evenodd" clip-rule="evenodd" d="M74.4932 45.8096L74.9941 47.3825L73.2442 48.6372L75.4038 48.6696L75.873 50.1433L71.7192 49.743C71.3826 49.7085 71.1271 49.6679 70.9513 49.6194C70.7765 49.5705 70.6116 49.4681 70.4594 49.314C70.3067 49.1589 70.1799 48.9202 70.0774 48.5985C70.0231 48.4282 69.954 48.1273 69.8715 47.6963L70.8527 47.3919C70.9044 47.6456 70.9492 47.8282 70.9851 47.9407C71.0917 48.2753 71.2822 48.4393 71.5574 48.4341L74.4932 45.8096Z" fill="black"/>
<path fill-rule="evenodd" clip-rule="evenodd" d="M74.3292 53.2198L74.3606 54.0299C74.3892 54.7725 74.2773 55.3283 74.0248 55.6981C73.7735 56.0669 73.3673 56.2618 72.8071 56.2828C72.3475 56.2999 71.9902 56.1487 71.7347 55.8288C71.4787 55.5087 71.3392 55.0415 71.3154 54.4255L71.2151 51.8206L76.1868 51.634L76.346 55.7656L75.3388 55.8033L75.2382 53.1857L74.3292 53.2198ZM72.3418 53.2944L72.3717 54.0703C72.3899 54.5455 72.5728 54.7766 72.9213 54.7636C73.2268 54.7521 73.3704 54.5087 73.3522 54.0335L73.3223 53.2576L72.3418 53.2944Z" fill="black"/>
<path fill-rule="evenodd" clip-rule="evenodd" d="M41.5058 101.685L41.5048 94.1743H42.7958V101.685H41.5058Z" fill="black"/>
<path fill-rule="evenodd" clip-rule="evenodd" d="M50.4615 101.685L50.4603 94.1743H51.7514V101.685H50.4615Z" fill="black"/>
<path fill-rule="evenodd" clip-rule="evenodd" d="M44.5587 99.5888V99.9723C44.5587 100.132 44.5851 100.25 44.6367 100.329C44.688 100.408 44.7646 100.447 44.8689 100.447C44.9743 100.447 45.0523 100.409 45.1024 100.332C45.1525 100.255 45.1777 100.136 45.1777 99.9723V98.7874C45.0672 98.9021 44.9465 98.9867 44.8149 99.0451C44.6844 99.1028 44.5436 99.1329 44.3942 99.1329C44.0263 99.1329 43.747 98.9934 43.5567 98.7119C43.3668 98.4309 43.2717 98.0187 43.2717 97.475V96.0387C43.2717 95.3882 43.4036 94.9025 43.6684 94.5819C43.9334 94.2614 44.334 94.1011 44.8689 94.1011C45.4026 94.1011 45.803 94.2612 46.068 94.5819C46.333 94.9025 46.4647 95.3882 46.4647 96.0387V99.7962C46.4647 100.448 46.333 100.934 46.068 101.255C45.803 101.575 45.4026 101.735 44.8689 101.735C44.3504 101.735 43.9547 101.58 43.6823 101.269C43.4088 100.956 43.2717 100.506 43.2717 99.9172V99.5888H44.5587ZM44.5587 95.8642V97.4389C44.5587 97.5958 44.5853 97.7125 44.6367 97.7909C44.688 97.8695 44.7646 97.9089 44.8689 97.9089C44.9743 97.9089 45.0523 97.8709 45.1024 97.7941C45.1525 97.7172 45.1777 97.5992 45.1777 97.4389V95.8642C45.1777 95.704 45.1525 95.5877 45.1024 95.5124C45.0523 95.4369 44.9743 95.3991 44.8689 95.3991C44.7621 95.3991 44.6841 95.4354 44.634 95.5091C44.5841 95.5829 44.5587 95.7008 44.5587 95.8642Z" fill="black"/>
<path fill-rule="evenodd" clip-rule="evenodd" d="M48.0813 99.5888V99.9723C48.0813 100.132 48.1077 100.25 48.1591 100.329C48.2106 100.408 48.2871 100.447 48.3915 100.447C48.4969 100.447 48.5746 100.409 48.625 100.332C48.6751 100.255 48.7003 100.136 48.7003 99.9723V98.7874C48.5898 98.9021 48.4691 98.9867 48.3375 99.0451C48.2069 99.1028 48.0662 99.1329 47.9168 99.1329C47.5489 99.1329 47.2696 98.9934 47.0793 98.7119C46.8894 98.4309 46.7943 98.0187 46.7943 97.475V96.0387C46.7943 95.3882 46.9262 94.9025 47.191 94.5819C47.4558 94.2614 47.8566 94.1011 48.3915 94.1011C48.9249 94.1011 49.3256 94.2612 49.5906 94.5819C49.8554 94.9025 49.9873 95.3882 49.9873 96.0387V99.7962C49.9873 100.448 49.8554 100.934 49.5906 101.255C49.3256 101.575 48.9249 101.735 48.3915 101.735C47.8728 101.735 47.4771 101.58 47.2049 101.269C46.9311 100.956 46.7943 100.506 46.7943 99.9172V99.5888H48.0813ZM48.0813 95.8642V97.4389C48.0813 97.5958 48.1077 97.7125 48.1591 97.7909C48.2104 97.8695 48.2871 97.9089 48.3915 97.9089C48.4969 97.9089 48.5748 97.8709 48.625 97.7941C48.6751 97.7172 48.7003 97.5992 48.7003 97.4389V95.8642C48.7003 95.704 48.6751 95.5877 48.625 95.5124C48.5746 95.4369 48.4969 95.3991 48.3915 95.3991C48.2847 95.3991 48.2067 95.4354 48.1566 95.5091C48.1065 95.5829 48.0813 95.7008 48.0813 95.8642Z" fill="black"/>
<path fill-rule="evenodd" clip-rule="evenodd" d="M30.2994 63.3467V67.1193H28.6862V64.5724L28.0413 67.1193H26.8966L26.2171 64.6306V67.1193H24.6041V63.3467H26.9938C27.0642 63.5735 27.1375 63.8407 27.2168 64.1485L27.4712 65.1086L27.8917 63.3467H30.2994Z" fill="black"/>
<path fill-rule="evenodd" clip-rule="evenodd" d="M34.2276 63.3467L35.284 67.1193H33.394L33.3029 66.4409H32.64L32.5307 67.1193H30.6198L31.5579 63.3467H34.2276ZM33.2505 65.7729C33.1562 65.3457 33.0633 64.8176 32.9692 64.1899C32.7822 64.9113 32.6653 65.4386 32.6189 65.7729H33.2505Z" fill="black"/>
<path fill-rule="evenodd" clip-rule="evenodd" d="M39.3394 63.3467L38.6944 65.0147L39.6686 67.1193H37.9582C37.7546 66.7431 37.5676 66.2858 37.3971 65.7466C37.3507 65.9843 37.2862 66.2374 37.204 66.5046L37.0288 67.1193H35.2316L35.8977 65.0147L35.2316 63.3467H37.0155C37.0484 63.4509 37.1127 63.6236 37.2085 63.8661C37.2848 64.0515 37.3476 64.2202 37.3971 64.3745L37.7922 63.3467H39.3394Z" fill="black"/>
<path fill-rule="evenodd" clip-rule="evenodd" d="M43.1194 63.3467L44.1758 67.1193H42.2858L42.1945 66.4409H41.5317L41.4225 67.1193H39.5115L40.4497 63.3467H43.1194ZM42.1423 65.7729C42.048 65.3457 41.9551 64.8176 41.861 64.1899C41.674 64.9113 41.5571 65.4386 41.5107 65.7729H42.1423Z" fill="black"/>
<path fill-rule="evenodd" clip-rule="evenodd" d="M47.0132 65.6727C46.8634 65.7561 46.669 65.8237 46.4296 65.8738C46.1902 65.9247 45.9477 65.9493 45.7024 65.9493C45.2608 65.9493 44.9392 65.8841 44.7401 65.7536C44.5395 65.6232 44.4393 65.4212 44.4393 65.1476V63.3442H46.2888V65.0433C46.2888 65.1906 46.3128 65.2924 46.3623 65.3473C46.41 65.402 46.4893 65.4299 46.6002 65.4299C46.8755 65.4299 47.0132 65.3043 47.0132 65.052V63.3442H48.8627V67.1193H47.0132V65.6727Z" fill="black"/>
<path fill-rule="evenodd" clip-rule="evenodd" d="M49.5992 63.3442H51.4487L51.4577 64.9383C51.8064 64.9337 51.9859 64.8309 51.9977 64.6305L52.0323 63.894C52.0442 63.6227 52.143 63.439 52.33 63.3442H54.0359C53.8698 63.4357 53.7875 63.6252 53.7906 63.913L53.7994 64.5605C53.8056 64.9519 53.3896 65.1754 52.5545 65.2296C53.3896 65.2837 53.8056 65.5103 53.7994 65.9079L53.7906 66.5086C53.7875 66.795 53.8698 66.9985 54.0359 67.1193H52.33C52.1311 67.0248 52.0323 66.841 52.0323 66.5698V65.8332C52.0323 65.7401 51.9783 65.6646 51.8721 65.608C51.7659 65.5517 51.6282 65.5222 51.4577 65.5206L51.4487 67.1193H49.5992V63.3442Z" fill="black"/>
<path fill-rule="evenodd" clip-rule="evenodd" d="M57.6005 63.3467L58.657 67.1193H56.7669L56.6756 66.4409H56.0127L55.9034 67.1193H53.9927L54.9309 63.3467H57.6005ZM56.6233 65.7729C56.5289 65.3457 56.4362 64.8176 56.3419 64.1899C56.1549 64.9113 56.0383 65.4386 55.9918 65.7729H56.6233Z" fill="black"/>
<path fill-rule="evenodd" clip-rule="evenodd" d="M63.4801 67.1193H61.6289V64.0992H61.0902V66.2365C61.0902 66.5173 61.0228 66.7192 60.8866 66.8418C60.7505 66.965 60.544 67.0414 60.2656 67.0725C59.9887 67.1036 59.5457 67.1193 58.9382 67.1193H58.6478V66.4696C58.8739 66.4696 59.028 66.4545 59.1133 66.425C59.197 66.3957 59.2406 66.2945 59.2406 66.122V63.3442H63.4801V67.1193Z" fill="black"/>
<path fill-rule="evenodd" clip-rule="evenodd" d="M67.4038 63.3467L68.4602 67.1193H66.5702L66.4789 66.4409H65.816L65.7069 67.1193H63.796L64.7341 63.3467H67.4038ZM66.4265 65.7729C66.3322 65.3457 66.2395 64.8176 66.1452 64.1899C65.9582 64.9113 65.8415 65.4386 65.7951 65.7729H66.4265Z" fill="black"/>
<path fill-rule="evenodd" clip-rule="evenodd" d="M46.553 37.761C50.0133 37.761 52.8195 40.5309 52.8195 43.9463C52.8195 47.3616 50.0133 50.1313 46.553 50.1313C43.0927 50.1313 40.2863 47.3616 40.2863 43.9463C40.2863 40.5309 43.0927 37.761 46.553 37.761ZM50.8121 42.7042L49.0594 43.2665L48.1758 45.9503L49.2593 47.4222C49.6966 47.3457 50.2335 47.1659 50.9063 46.8456C51.4499 46.0521 51.7767 45.1021 51.8027 44.0786C51.5535 43.5728 51.1594 43.0593 50.8121 42.7042ZM48.9182 43.0637L50.7387 42.48C50.7999 42.0462 50.7927 41.487 50.6922 40.7569C50.0823 39.9868 49.2566 39.3912 48.3049 39.0588C47.7402 39.1364 47.1224 39.3478 46.6725 39.5645V41.4533L48.9182 43.0637ZM49.0657 47.5604L48.0084 46.1238H45.0977L44.0399 47.5608C44.249 47.9477 44.5884 48.3967 45.1055 48.9299C45.5653 49.0597 46.0509 49.1296 46.553 49.1296C47.0717 49.1296 47.5728 49.0549 48.0461 48.9166C48.457 48.5262 48.8308 47.9968 49.0657 47.5604ZM43.8471 47.4218L44.9304 45.9503L44.0468 43.2665L42.2934 42.704C41.9857 43.0197 41.6583 43.4763 41.3047 44.1252C41.3401 45.1479 41.6759 46.0956 42.2273 46.8848C42.7301 47.1494 43.3548 47.3362 43.8471 47.4218ZM42.3679 42.48L44.1878 43.0637L46.4337 41.4533V39.5639C46.0339 39.3722 45.4918 39.2058 44.7556 39.0745C43.808 39.4153 42.9879 40.0177 42.3847 40.7932C42.2852 41.347 42.2981 41.9915 42.3679 42.48ZM52.0327 44.2854L52.5801 43.893C52.5803 43.9107 52.5807 43.9285 52.5807 43.9463C52.5807 45.2724 52.1407 46.4968 51.3974 47.4863L51.1882 46.8511C51.6718 46.101 51.9738 45.2255 52.0327 44.2854ZM51.4612 40.4929L50.7835 40.4927C50.1983 39.7951 49.4398 39.2446 48.5728 38.9057L48.3635 38.2701C49.6256 38.6621 50.7088 39.453 51.4612 40.4929ZM47.9207 49.1957L48.4686 49.5885C47.8667 49.7876 47.2225 49.8957 46.553 49.8957C45.8833 49.8957 45.2391 49.7876 44.6373 49.5885L45.1857 49.1955C45.6228 49.3061 46.0809 49.3653 46.553 49.3653C47.0251 49.3653 47.4834 49.3063 47.9207 49.1957ZM41.918 46.8509L41.7086 47.4865C40.9652 46.497 40.5251 45.2724 40.5251 43.9463C40.5251 43.9283 40.5255 43.9105 40.5257 43.8925L41.0735 44.2856C41.1324 45.2257 41.4344 46.1008 41.918 46.8509ZM42.3223 40.4927H41.6446C42.3972 39.4528 43.4804 38.6619 44.7427 38.2701L44.5334 38.9057C43.6662 39.2446 42.9075 39.7951 42.3223 40.4927Z" fill="black"/>
</svg>
