<svg width="118" height="33" viewBox="0 0 118 33" fill="none" xmlns="http://www.w3.org/2000/svg">
<path d="M73.79 16.8C73.09 16.8 72.6 16.35 72.6 15.71C72.6 14.86 73.4 14.04 74.32 13.93C74.38 13.92 74.44 13.92 74.5 13.92C75.2 13.92 75.69 14.37 75.69 15.01C75.69 15.86 74.89 16.68 73.97 16.78C73.91 16.79 73.85 16.8 73.79 16.8ZM107.2 13.15C106.5 13.15 106.01 12.7 106.01 12.06C106.01 11.21 106.81 10.39 107.73 10.29C107.79 10.28 107.85 10.28 107.91 10.28C108.61 10.28 109.1 10.73 109.1 11.37C109.1 12.22 108.3 13.04 107.38 13.14C107.32 13.15 107.25 13.15 107.2 13.15ZM108.48 1.84001V2.70001V1.84001C108.1 1.84001 107.71 1.86001 107.33 1.90001C103.4 2.33001 100.01 4.87001 98.36 8.20001C97.71 6.28001 96.29 4.96001 94.12 4.29001C93.38 4.05001 92.56 3.93001 91.7 3.93001C91.35 3.93001 90.99 3.95001 90.63 3.99001C89.38 4.13001 88.23 4.47001 87.21 5.03001C84.57 6.43001 83.55 8.36001 83.16 9.93001C81.56 7.25001 78.58 5.48001 75.08 5.48001C74.7 5.48001 74.31 5.50001 73.93 5.54001C70 5.97001 66.61 8.51001 64.96 11.84C64.31 9.92001 62.89 8.61001 60.72 7.93001C59.98 7.69001 59.16 7.57001 58.3 7.57001C57.95 7.57001 57.59 7.59001 57.23 7.63001C55.98 7.77001 54.83 8.12001 53.81 8.67001C51.95 9.66001 50.89 10.91 50.29 12.12C49.53 9.01001 47.04 8.63001 45.93 8.63001C45.7 8.63001 45.46 8.64001 45.22 8.67001C42.11 9.01001 40.98 10.86 40.51 12.17C39.73 10.52 38.35 9.68001 36.39 9.68001C36.12 9.68001 35.84 9.70001 35.56 9.73001C34.44 9.85001 32.77 10.32 31.7 11.9C31.62 11.58 31.44 11.28 31.19 11.05C30.87 10.77 30.47 10.61 30.05 10.61C29.99 10.61 29.93 10.61 29.86 10.62L24.78 11.17C24.34 11.22 23.96 11.43 23.69 11.73C23.4 11.52 23.05 11.41 22.69 11.41C22.63 11.41 22.57 11.41 22.5 11.42L17.42 11.97C16.55 12.07 15.88 12.81 15.89 13.69L15.93 21.7C15.27 19.45 14.69 17.46 14.57 17.04C14.55 16.95 14.52 16.86 14.49 16.76C14.21 15.69 13.47 12.83 9.98 12.83C9.76 12.83 9.52 12.84 9.28 12.87C9.27 12.87 9.25 12.87 9.24 12.87C5.41 13.3 4.7 16.26 4.41 17.53C4.38 17.64 4.36 17.74 4.33 17.83C4.03 18.98 0.900002 30.71 0.870002 30.83C0.720002 31.38 0.860001 31.96 1.23 32.39C1.56 32.77 2.03 32.99 2.53 32.99C2.59 32.99 2.65 32.99 2.72 32.98L7.64 32.44C8.38 32.36 8.99 31.81 9.13 31.08L9.54 29.08L9.89 30.66C10.07 31.45 10.77 32 11.56 32C11.62 32 11.68 32 11.75 31.99L16.67 31.45C17.18 31.4 17.63 31.12 17.91 30.7C18.19 30.28 18.27 29.75 18.13 29.26C18.13 29.25 18.1 29.15 18.05 29C18.73 29.58 19.57 30.03 20.58 30.35C21.32 30.59 22.14 30.71 23 30.71C23.35 30.71 23.71 30.69 24.07 30.65C25.32 30.52 26.47 30.17 27.49 29.61C28.37 29.14 29.07 28.62 29.63 28.06C29.68 28.45 29.85 28.81 30.13 29.09C30.45 29.4 30.88 29.58 31.33 29.58C31.39 29.58 31.45 29.58 31.52 29.57L36.44 29.03C37.17 28.95 37.76 28.42 37.92 27.73C38.41 28.38 39.13 28.86 40.25 28.86C40.42 28.86 40.59 28.85 40.79 28.83C42.19 28.68 42.98 28.07 43.49 27.18C43.59 27.37 43.73 27.54 43.9 27.68C44.21 27.94 44.6 28.08 45.01 28.08C45.07 28.08 45.13 28.08 45.2 28.07L50.12 27.53C50.24 27.52 50.36 27.49 50.47 27.45C50.72 27.58 51 27.66 51.28 27.66C51.34 27.66 51.4 27.66 51.47 27.65L56.55 27.1C56.99 27.05 57.37 26.84 57.64 26.54C57.93 26.75 58.28 26.86 58.64 26.86C58.7 26.86 58.76 26.86 58.83 26.85L63.91 26.3C64.79 26.2 65.45 25.46 65.44 24.59L65.42 21.19C67.07 23.63 69.93 25.23 73.24 25.23C73.62 25.23 74.01 25.21 74.39 25.17C78.02 24.77 81.2 22.57 82.96 19.61L82.97 22.32C82.97 22.81 83.18 23.27 83.54 23.59C83.86 23.87 84.26 24.03 84.68 24.03C84.74 24.03 84.8 24.03 84.87 24.02L89.95 23.47C90.39 23.42 90.77 23.21 91.04 22.91C91.33 23.12 91.68 23.23 92.04 23.23C92.1 23.23 92.16 23.23 92.23 23.22L97.31 22.67C98.18 22.57 98.85 21.84 98.84 20.96L98.82 17.56C100.47 20.01 103.33 21.6 106.64 21.6C107.02 21.6 107.41 21.58 107.79 21.54C113.34 20.93 117.84 16.11 117.81 10.79C117.77 5.77001 113.68 1.84001 108.48 1.84001Z" fill="black"/>
<path d="M73.37 15.99C72.67 15.99 72.18 15.54 72.18 14.91C72.18 14.07 72.98 13.24 73.89 13.14C73.95 13.13 74.01 13.13 74.07 13.13C74.77 13.13 75.26 13.58 75.26 14.22C75.26 15.06 74.46 15.89 73.54 15.99C73.49 15.99 73.43 15.99 73.37 15.99ZM106.75 12.36C106.05 12.36 105.57 11.91 105.56 11.28C105.56 10.44 106.36 9.61001 107.28 9.51001C107.34 9.50001 107.4 9.50001 107.46 9.50001C108.16 9.50001 108.65 9.95001 108.65 10.58C108.65 11.42 107.85 12.25 106.94 12.35C106.87 12.35 106.81 12.36 106.75 12.36ZM108.03 1.08001C107.65 1.08001 107.26 1.10001 106.88 1.14001C102.96 1.57001 99.56 4.10001 97.92 7.42001C97.27 5.50001 95.85 4.19001 93.68 3.52001C92.94 3.28001 92.12 3.16001 91.26 3.16001C90.91 3.16001 90.55 3.18001 90.19 3.22001C88.94 3.36001 87.79 3.70001 86.77 4.25001C84.13 5.65001 83.11 7.57001 82.72 9.14001C81.12 6.47001 78.14 4.71001 74.65 4.71001C74.27 4.71001 73.88 4.73001 73.5 4.77001C69.58 5.20001 66.18 7.73001 64.54 11.05C63.89 9.13001 62.48 7.83001 60.3 7.15001C59.56 6.91001 58.74 6.79001 57.88 6.79001C57.53 6.79001 57.17 6.81001 56.81 6.85001C55.56 6.99001 54.41 7.34001 53.39 7.89001C51.53 8.88001 50.47 10.13 49.87 11.33C49.11 8.23001 46.63 7.86001 45.51 7.86001C45.28 7.86001 45.04 7.87001 44.8 7.90001C41.69 8.24001 40.56 10.08 40.09 11.39C39.31 9.74001 37.93 8.90001 35.97 8.90001C35.7 8.90001 35.42 8.92001 35.14 8.95001C34.02 9.07001 32.35 9.54001 31.28 11.11C31.19 10.79 31.02 10.49 30.77 10.26C30.45 9.98001 30.05 9.83001 29.63 9.83001C29.57 9.83001 29.51 9.83001 29.44 9.84001L24.36 10.39C23.92 10.44 23.54 10.65 23.27 10.95C22.98 10.74 22.63 10.63 22.27 10.63C22.21 10.63 22.15 10.63 22.08 10.64L17 11.19C16.13 11.29 15.47 12.02 15.47 12.9L15.51 20.89C14.85 18.65 14.27 16.67 14.15 16.24C14.13 16.15 14.1 16.06 14.07 15.96C13.79 14.89 13.05 12.04 9.57 12.04C9.35 12.04 9.11 12.05 8.87 12.08C8.86 12.08 8.84 12.08 8.83 12.08C5 12.51 4.3 15.46 4 16.72C3.97 16.83 3.95 16.93 3.93 17.02C3.63 18.17 0.500003 29.86 0.470003 29.98C0.330003 30.52 0.460002 31.11 0.830002 31.54C1.16 31.92 1.63 32.14 2.13 32.14C2.19 32.14 2.25 32.14 2.32 32.13L7.23 31.6C7.97 31.52 8.57 30.97 8.72 30.24L9.13 28.25L9.49 29.82C9.67 30.61 10.37 31.16 11.16 31.16C11.22 31.16 11.28 31.16 11.35 31.15L16.26 30.62C16.76 30.56 17.22 30.29 17.5 29.87C17.78 29.45 17.86 28.92 17.72 28.44C17.72 28.43 17.69 28.33 17.64 28.18C18.32 28.76 19.16 29.21 20.17 29.52C20.91 29.75 21.73 29.88 22.59 29.88C22.94 29.88 23.3 29.86 23.66 29.82C24.9 29.68 26.06 29.34 27.08 28.78C27.96 28.31 28.66 27.79 29.21 27.24C29.26 27.63 29.43 27.99 29.71 28.26C30.03 28.57 30.46 28.75 30.91 28.75C30.97 28.75 31.03 28.75 31.1 28.74L36.01 28.2C36.74 28.12 37.33 27.59 37.49 26.9C37.98 27.55 38.7 28.02 39.82 28.02C39.99 28.02 40.16 28.01 40.36 27.99C41.75 27.84 42.55 27.24 43.06 26.35C43.16 26.54 43.3 26.71 43.47 26.85C43.78 27.11 44.17 27.25 44.57 27.25C44.63 27.25 44.69 27.25 44.76 27.24L49.67 26.7C49.79 26.69 49.91 26.66 50.02 26.62C50.27 26.75 50.55 26.83 50.83 26.83C50.89 26.83 50.95 26.83 51.02 26.82L56.1 26.27C56.54 26.22 56.92 26.01 57.19 25.71C57.48 25.92 57.83 26.03 58.19 26.03C58.25 26.03 58.31 26.03 58.38 26.02L63.45 25.47C64.32 25.37 64.98 24.64 64.98 23.76L64.97 20.37C66.62 22.81 69.47 24.39 72.78 24.39C73.16 24.39 73.55 24.37 73.93 24.33C77.56 23.94 80.73 21.74 82.49 18.79L82.5 21.5C82.5 21.99 82.71 22.45 83.07 22.77C83.39 23.05 83.79 23.2 84.21 23.2C84.27 23.2 84.33 23.2 84.4 23.19L89.47 22.64C89.91 22.59 90.29 22.38 90.56 22.08C90.85 22.29 91.2 22.4 91.56 22.4C91.62 22.4 91.68 22.4 91.75 22.39L96.82 21.84C97.69 21.75 98.36 21.01 98.35 20.13L98.33 16.74C99.98 19.18 102.83 20.76 106.14 20.76C106.52 20.76 106.91 20.74 107.29 20.7C112.84 20.1 117.33 15.29 117.31 9.99001C117.32 5.00001 113.23 1.08001 108.03 1.08001Z" fill="#C02C23"/>
<path d="M73.37 15.99C72.67 15.99 72.18 15.54 72.18 14.91C72.18 14.07 72.98 13.24 73.89 13.14C73.95 13.13 74.01 13.13 74.07 13.13C74.77 13.13 75.26 13.58 75.26 14.22C75.26 15.06 74.46 15.89 73.54 15.99C73.49 15.99 73.43 15.99 73.37 15.99ZM106.75 12.36C106.05 12.36 105.57 11.91 105.56 11.28C105.56 10.44 106.36 9.61001 107.28 9.51001C107.34 9.50001 107.4 9.50001 107.46 9.50001C108.16 9.50001 108.65 9.95001 108.65 10.58C108.65 11.42 107.85 12.25 106.94 12.35C106.87 12.35 106.81 12.36 106.75 12.36ZM108.03 1.08001C107.65 1.08001 107.26 1.10001 106.88 1.14001C102.96 1.57001 99.56 4.10001 97.92 7.42001C97.27 5.50001 95.85 4.19001 93.68 3.52001C92.94 3.28001 92.12 3.16001 91.26 3.16001C90.91 3.16001 90.55 3.18001 90.19 3.22001C88.94 3.36001 87.79 3.70001 86.77 4.25001C84.13 5.65001 83.11 7.57001 82.72 9.14001C81.12 6.47001 78.14 4.71001 74.65 4.71001C74.27 4.71001 73.88 4.73001 73.5 4.77001C69.58 5.20001 66.18 7.73001 64.54 11.05C63.89 9.13001 62.48 7.83001 60.3 7.15001C59.56 6.91001 58.74 6.79001 57.88 6.79001C57.53 6.79001 57.17 6.81001 56.81 6.85001C55.56 6.99001 54.41 7.34001 53.39 7.89001C51.53 8.88001 50.47 10.13 49.87 11.33C49.11 8.23001 46.63 7.86001 45.51 7.86001C45.28 7.86001 45.04 7.87001 44.8 7.90001C41.69 8.24001 40.56 10.08 40.09 11.39C39.31 9.74001 37.93 8.90001 35.97 8.90001C35.7 8.90001 35.42 8.92001 35.14 8.95001C34.02 9.07001 32.35 9.54001 31.28 11.11C31.19 10.79 31.02 10.49 30.77 10.26C30.45 9.98001 30.05 9.83001 29.63 9.83001C29.57 9.83001 29.51 9.83001 29.44 9.84001L24.36 10.39C23.92 10.44 23.54 10.65 23.27 10.95C22.98 10.74 22.63 10.63 22.27 10.63C22.21 10.63 22.15 10.63 22.08 10.64L17 11.19C16.13 11.29 15.47 12.02 15.47 12.9L15.51 20.89C14.85 18.65 14.27 16.67 14.15 16.24C14.13 16.15 14.1 16.06 14.07 15.96C13.79 14.89 13.05 12.04 9.57 12.04C9.35 12.04 9.11 12.05 8.87 12.08C8.86 12.08 8.84 12.08 8.83 12.08C5 12.51 4.3 15.46 4 16.72C3.97 16.83 3.95 16.93 3.93 17.02C3.63 18.17 0.500003 29.86 0.470003 29.98C0.330003 30.52 0.460002 31.11 0.830002 31.54C1.16 31.92 1.63 32.14 2.13 32.14C2.19 32.14 2.25 32.14 2.32 32.13L7.23 31.6C7.97 31.52 8.57 30.97 8.72 30.24L9.13 28.25L9.49 29.82C9.67 30.61 10.37 31.16 11.16 31.16C11.22 31.16 11.28 31.16 11.35 31.15L16.26 30.62C16.76 30.56 17.22 30.29 17.5 29.87C17.78 29.45 17.86 28.92 17.72 28.44C17.72 28.43 17.69 28.33 17.64 28.18C18.32 28.76 19.16 29.21 20.17 29.52C20.91 29.75 21.73 29.88 22.59 29.88C22.94 29.88 23.3 29.86 23.66 29.82C24.9 29.68 26.06 29.34 27.08 28.78C27.96 28.31 28.66 27.79 29.21 27.24C29.26 27.63 29.43 27.99 29.71 28.26C30.03 28.57 30.46 28.75 30.91 28.75C30.97 28.75 31.03 28.75 31.1 28.74L36.01 28.2C36.74 28.12 37.33 27.59 37.49 26.9C37.98 27.55 38.7 28.02 39.82 28.02C39.99 28.02 40.16 28.01 40.36 27.99C41.75 27.84 42.55 27.24 43.06 26.35C43.16 26.54 43.3 26.71 43.47 26.85C43.78 27.11 44.17 27.25 44.57 27.25C44.63 27.25 44.69 27.25 44.76 27.24L49.67 26.7C49.79 26.69 49.91 26.66 50.02 26.62C50.27 26.75 50.55 26.83 50.83 26.83C50.89 26.83 50.95 26.83 51.02 26.82L56.1 26.27C56.54 26.22 56.92 26.01 57.19 25.71C57.48 25.92 57.83 26.03 58.19 26.03C58.25 26.03 58.31 26.03 58.38 26.02L63.45 25.47C64.32 25.37 64.98 24.64 64.98 23.76L64.97 20.37C66.62 22.81 69.47 24.39 72.78 24.39C73.16 24.39 73.55 24.37 73.93 24.33C77.56 23.94 80.73 21.74 82.49 18.79L82.5 21.5C82.5 21.99 82.71 22.45 83.07 22.77C83.39 23.05 83.79 23.2 84.21 23.2C84.27 23.2 84.33 23.2 84.4 23.19L89.47 22.64C89.91 22.59 90.29 22.38 90.56 22.08C90.85 22.29 91.2 22.4 91.56 22.4C91.62 22.4 91.68 22.4 91.75 22.39L96.82 21.84C97.69 21.75 98.36 21.01 98.35 20.13L98.33 16.74C99.98 19.18 102.83 20.76 106.14 20.76C106.52 20.76 106.91 20.74 107.29 20.7C112.84 20.1 117.33 15.29 117.31 9.99001C117.32 5.00001 113.23 1.08001 108.03 1.08001Z" stroke="#EED232" stroke-width="0.518"/>
<path d="M32.77 15.15C32.86 14.13 33.2 11.77 36.11 11.45C38.77 11.16 39.33 12.62 39.64 13.82L40.73 17.89C40.8 18.2 40.89 18.34 40.96 18.33C41.03 18.32 41.1 18.16 41.19 17.83L42.27 13.53C42.59 12.26 43.12 10.68 45.78 10.39C48.69 10.07 49.05 12.36 49.15 13.36L50.3 25.84L45.38 26.38L44.85 17.9C44.83 17.48 44.8 17.21 44.73 17.22C44.64 17.23 44.57 17.48 44.43 18.13L43.03 24.28C42.53 26.53 42.18 26.99 40.97 27.13C39.83 27.25 39.45 26.89 38.93 24.73L37.51 18.88C37.37 18.27 37.27 18.03 37.18 18.04C37.11 18.05 37.09 18.32 37.07 18.75L36.62 27.33L31.7 27.87L32.77 15.15Z" fill="black"/>
<path d="M59.02 25.16L58.97 14.91C58.97 14.19 58.48 13.8 57.82 13.87C57.17 13.94 56.68 14.44 56.68 15.16L56.72 25.41L51.64 25.96L51.6 15.91C51.59 14.05 52.02 11.77 55 10.19C55.88 9.71001 56.84 9.45001 57.79 9.35001C58.75 9.25001 59.7 9.3 60.59 9.58C63.58 10.51 64.03 12.7 64.04 14.56L64.09 24.61L59.02 25.16Z" fill="black"/>
<path d="M23.05 13.14L23.09 23.39C23.09 24.1 23.58 24.5 24.24 24.43C24.89 24.36 25.38 23.86 25.38 23.14L25.34 12.89L30.42 12.34L30.46 22.39C30.47 24.25 30.04 26.54 27.06 28.11C26.18 28.59 25.22 28.85 24.27 28.95C23.31 29.05 22.36 29 21.47 28.72C18.48 27.79 18.03 25.6 18.02 23.74L17.97 13.7L23.05 13.14Z" fill="black"/>
<path d="M74.56 18.49C76.35 18.29 77.82 16.72 77.81 15C77.8 13.28 76.33 12.03 74.53 12.22C72.74 12.42 71.27 13.99 71.28 15.71C71.29 17.44 72.77 18.69 74.56 18.49ZM66.02 16.29C66 11.86 69.83 7.77001 74.51 7.26001C79.19 6.75001 83.05 10 83.07 14.43C83.09 18.86 79.26 22.95 74.58 23.46C69.9 23.97 66.04 20.72 66.02 16.29Z" fill="black"/>
<path d="M92.43 21.52L92.38 11.27C92.38 10.56 91.89 10.16 91.23 10.23C90.58 10.3 90.09 10.8 90.09 11.52L90.13 21.77L85.05 22.32L85.01 12.27C85 10.41 85.43 8.12001 88.41 6.55001C89.29 6.07001 90.25 5.81001 91.2 5.71001C92.16 5.61001 93.11 5.66001 94 5.94001C96.99 6.87001 97.44 9.06001 97.45 10.92L97.5 20.97L92.43 21.52Z" fill="black"/>
<path d="M107.97 14.85C109.76 14.66 111.23 13.08 111.22 11.36C111.21 9.64001 109.74 8.39 107.95 8.58C106.16 8.78 104.69 10.35 104.7 12.07C104.7 13.79 106.17 15.04 107.97 14.85ZM99.43 12.64C99.41 8.21001 103.24 4.12001 107.92 3.61001C112.6 3.10001 116.46 6.35001 116.48 10.78C116.5 15.21 112.67 19.3 107.99 19.81C103.31 20.33 99.45 17.08 99.43 12.64Z" fill="black"/>
<path d="M16.85 29.76C16.85 29.76 13.59 18.62 13.27 17.52C12.95 16.42 12.7 14.28 9.8 14.58C9.8 14.58 9.80001 14.58 9.79001 14.58C6.90001 14.9 6.66001 17.1 6.35001 18.27C6.04001 19.44 2.88 31.28 2.88 31.28L7.8 30.74L9.82 20.96L11.93 30.29L16.85 29.76Z" fill="black"/>
<path d="M32.01 14.36C32.1 13.35 32.44 11 35.33 10.68C37.97 10.39 38.53 11.85 38.84 13.04L39.92 17.08C39.99 17.39 40.08 17.53 40.15 17.52C40.22 17.51 40.29 17.35 40.38 17.03L41.45 12.75C41.77 11.49 42.3 9.92001 44.94 9.63001C47.84 9.31001 48.19 11.59 48.29 12.58L49.43 24.99L44.54 25.52L44.03 17.1C44 16.68 43.98 16.42 43.91 16.42C43.82 16.43 43.75 16.68 43.61 17.32L42.22 23.44C41.72 25.67 41.37 26.14 40.17 26.27C39.04 26.39 38.66 26.03 38.14 23.89L36.72 18.08C36.58 17.47 36.49 17.24 36.39 17.25C36.32 17.26 36.3 17.53 36.28 17.95L35.83 26.48L30.94 27.01L32.01 14.36Z" fill="white"/>
<path d="M32.01 14.36C32.1 13.35 32.44 11 35.33 10.68C37.97 10.39 38.53 11.85 38.84 13.04L39.92 17.08C39.99 17.39 40.08 17.53 40.15 17.52C40.22 17.51 40.29 17.35 40.38 17.03L41.45 12.75C41.77 11.49 42.3 9.92001 44.94 9.63001C47.84 9.31001 48.19 11.59 48.29 12.58L49.43 24.99L44.54 25.52L44.03 17.1C44 16.68 43.98 16.42 43.91 16.42C43.82 16.43 43.75 16.68 43.61 17.32L42.22 23.44C41.72 25.67 41.37 26.14 40.17 26.27C39.04 26.39 38.66 26.03 38.14 23.89L36.72 18.08C36.58 17.47 36.49 17.24 36.39 17.25C36.32 17.26 36.3 17.53 36.28 17.95L35.83 26.48L30.94 27.01L32.01 14.36Z" stroke="#EED232" stroke-width="0.518"/>
<path d="M58.2 24.3L58.15 14.11C58.15 13.4 57.66 13.01 57.01 13.08C56.36 13.15 55.88 13.65 55.88 14.36L55.92 24.55L50.9 25.1L50.86 15.11C50.85 13.26 51.28 10.99 54.24 9.42C55.12 8.95 56.06 8.69 57.01 8.58C57.96 8.48 58.91 8.53 59.79 8.81C62.75 9.73 63.2 11.91 63.21 13.75L63.25 23.74L58.2 24.3Z" fill="white"/>
<path d="M58.2 24.3L58.15 14.11C58.15 13.4 57.66 13.01 57.01 13.08C56.36 13.15 55.88 13.65 55.88 14.36L55.92 24.55L50.9 25.1L50.86 15.11C50.85 13.26 51.28 10.99 54.24 9.42C55.12 8.95 56.06 8.69 57.01 8.58C57.96 8.48 58.91 8.53 59.79 8.81C62.75 9.73 63.2 11.91 63.21 13.75L63.25 23.74L58.2 24.3Z" stroke="#EED232" stroke-width="0.518"/>
<path d="M22.25 12.38L22.29 22.57C22.29 23.28 22.78 23.67 23.43 23.6C24.08 23.53 24.56 23.03 24.56 22.32L24.51 12.13L29.55 11.58L29.59 21.57C29.6 23.42 29.17 25.69 26.21 27.26C25.33 27.73 24.39 27.99 23.44 28.1C22.49 28.2 21.54 28.15 20.66 27.87C17.7 26.95 17.25 24.77 17.24 22.93L17.2 12.94L22.25 12.38Z" fill="white"/>
<path d="M22.25 12.38L22.29 22.57C22.29 23.28 22.78 23.67 23.43 23.6C24.08 23.53 24.56 23.03 24.56 22.32L24.51 12.13L29.55 11.58L29.59 21.57C29.6 23.42 29.17 25.69 26.21 27.26C25.33 27.73 24.39 27.99 23.44 28.1C22.49 28.2 21.54 28.15 20.66 27.87C17.7 26.95 17.25 24.77 17.24 22.93L17.2 12.94L22.25 12.38Z" stroke="#EED232" stroke-width="0.518"/>
<path d="M73.75 17.67C75.53 17.48 76.99 15.91 76.98 14.2C76.97 12.49 75.51 11.24 73.72 11.44C71.93 11.64 70.48 13.2 70.49 14.91C70.5 16.62 71.97 17.86 73.75 17.67ZM65.26 15.48C65.24 11.08 69.05 7.01001 73.7 6.50001C78.36 5.99001 82.19 9.22001 82.21 13.63C82.23 18.03 78.42 22.1 73.77 22.61C69.12 23.11 65.28 19.88 65.26 15.48Z" fill="white"/>
<path d="M73.75 17.67C75.53 17.48 76.99 15.91 76.98 14.2C76.97 12.49 75.51 11.24 73.72 11.44C71.93 11.64 70.48 13.2 70.49 14.91C70.5 16.62 71.97 17.86 73.75 17.67ZM65.26 15.48C65.24 11.08 69.05 7.01001 73.7 6.50001C78.36 5.99001 82.19 9.22001 82.21 13.63C82.23 18.03 78.42 22.1 73.77 22.61C69.12 23.11 65.28 19.88 65.26 15.48Z" stroke="#EED232" stroke-width="0.518"/>
<path d="M91.61 20.66L91.57 10.47C91.57 9.76001 91.08 9.37001 90.43 9.44001C89.78 9.51001 89.3 10.01 89.3 10.72L89.35 20.91L84.31 21.46L84.27 11.47C84.26 9.62001 84.69 7.35001 87.65 5.78001C88.53 5.31001 89.47 5.05001 90.42 4.94001C91.37 4.84001 92.32 4.89 93.2 5.17C96.16 6.09 96.61 8.27001 96.62 10.11L96.66 20.1L91.61 20.66Z" fill="white"/>
<path d="M91.61 20.66L91.57 10.47C91.57 9.76001 91.08 9.37001 90.43 9.44001C89.78 9.51001 89.3 10.01 89.3 10.72L89.35 20.91L84.31 21.46L84.27 11.47C84.26 9.62001 84.69 7.35001 87.65 5.78001C88.53 5.31001 89.47 5.05001 90.42 4.94001C91.37 4.84001 92.32 4.89 93.2 5.17C96.16 6.09 96.61 8.27001 96.62 10.11L96.66 20.1L91.61 20.66Z" stroke="#EED232" stroke-width="0.518"/>
<path d="M107.16 14.02C108.94 13.83 110.4 12.27 110.39 10.55C110.38 8.83001 108.92 7.59 107.13 7.79C105.35 7.98 103.89 9.55 103.9 11.26C103.91 12.97 105.38 14.22 107.16 14.02ZM98.67 11.83C98.65 7.43 102.46 3.36001 107.11 2.85001C111.77 2.34001 115.6 5.57 115.62 9.98C115.64 14.39 111.83 18.45 107.18 18.96C102.53 19.47 98.69 16.24 98.67 11.83Z" fill="white"/>
<path d="M107.16 14.02C108.94 13.83 110.4 12.27 110.39 10.55C110.38 8.83001 108.92 7.59 107.13 7.79C105.35 7.98 103.89 9.55 103.9 11.26C103.91 12.97 105.38 14.22 107.16 14.02ZM98.67 11.83C98.65 7.43 102.46 3.36001 107.11 2.85001C111.77 2.34001 115.6 5.57 115.62 9.98C115.64 14.39 111.83 18.45 107.18 18.96C102.53 19.47 98.69 16.24 98.67 11.83Z" stroke="#EED232" stroke-width="0.518"/>
<path d="M15.98 28.91C15.98 28.91 12.75 17.84 12.44 16.75C12.13 15.66 11.87 13.53 9.01 13.83C9.01 13.83 9.01 13.83 9 13.83C6.13 14.15 5.89 16.34 5.59 17.5C5.29 18.66 2.16 30.42 2.16 30.42L7.03 29.89L9.03 20.17L11.12 29.44L15.98 28.91Z" fill="white"/>
<path d="M15.98 28.91C15.98 28.91 12.75 17.84 12.44 16.75C12.13 15.66 11.87 13.53 9.01 13.83C9.01 13.83 9.01 13.83 9 13.83C6.13 14.15 5.89 16.34 5.59 17.5C5.29 18.66 2.16 30.42 2.16 30.42L7.03 29.89L9.03 20.17L11.12 29.44L15.98 28.91Z" stroke="#EED232" stroke-width="0.518"/>
</svg>
