<svg width="266" height="44" viewBox="0 0 266 44" fill="none" xmlns="http://www.w3.org/2000/svg">
<path d="M24.4717 5.46415C24.4717 4.31352 24.8826 3.34782 25.6839 2.54649C26.4853 1.74516 27.4715 1.35477 28.6222 1.35477C29.7728 1.35477 30.7385 1.74516 31.5193 2.54649C32.3 3.34782 32.6904 4.31352 32.6904 5.46415C32.6904 6.61477 32.3 7.58048 31.5193 8.38181C30.7385 9.18313 29.7728 9.57352 28.6222 9.57352C27.451 9.57352 26.4647 9.18313 25.6634 8.40235C24.8621 7.62157 24.4717 6.63532 24.4717 5.46415Z" fill="#C20E1A"/>
<path d="M126.241 5.46415C126.241 4.31352 126.652 3.34782 127.453 2.54649C128.275 1.74516 129.241 1.35477 130.392 1.35477C131.542 1.35477 132.508 1.74516 133.289 2.54649C134.07 3.34782 134.46 4.31352 134.46 5.46415C134.46 6.61477 134.07 7.58048 133.289 8.38181C132.508 9.18313 131.542 9.57352 130.392 9.57352C129.221 9.57352 128.234 9.18313 127.433 8.40235C126.652 7.62157 126.241 6.63532 126.241 5.46415Z" fill="#C20E1A"/>
<path d="M246.871 28.641V16.6211H245.741C244.035 16.6211 242.7 17.1759 241.755 18.306C240.81 19.436 240.337 20.8743 240.337 22.6413C240.337 24.4084 240.81 25.8467 241.734 26.9562C242.659 28.0657 244.015 28.6205 245.741 28.6205H246.871V28.641ZM253.035 33.901V38.5446C253.035 41.5856 251.987 43.1061 249.891 43.1061C247.795 43.1061 246.748 41.5856 246.748 38.5446V33.901C244.015 33.901 241.94 33.6339 240.563 33.0792C238.426 32.2367 236.741 30.8806 235.55 29.0109C234.358 27.1411 233.762 25.0248 233.762 22.6619C233.762 20.2374 234.337 18.121 235.508 16.2718C236.68 14.4226 238.364 13.0665 240.563 12.2035C241.94 11.6693 244.035 11.3817 246.768 11.3817V8.23798V7.70376C246.768 0.676723 261.706 1.74516 261.11 2.1561C260.144 2.8136 253.014 6.1422 253.014 6.53259V11.3817C255.727 11.3817 257.781 11.6488 259.158 12.2035C261.377 13.0665 263.082 14.4226 264.254 16.2718C265.425 18.121 266 20.2579 266 22.6619C266 25.0453 265.425 27.1617 264.254 28.9698C263.041 30.8601 261.336 32.2367 259.158 33.0792C257.781 33.6339 255.747 33.901 253.035 33.901ZM252.912 16.6417V28.6616H254.042C255.809 28.6616 257.165 28.0863 258.11 26.9562C258.994 25.8878 259.446 24.47 259.446 22.6824C259.446 20.8949 258.994 19.4566 258.11 18.4087C257.124 17.2375 255.768 16.6622 254.042 16.6622H252.912V16.6417ZM212.147 28.641V16.6211H211.017C209.311 16.6211 207.976 17.1759 207.03 18.306C206.085 19.436 205.613 20.8743 205.613 22.6413C205.613 24.4084 206.085 25.8467 207.01 26.9562C207.955 28.0657 209.291 28.6205 211.017 28.6205H212.147V28.641ZM218.29 33.901V38.5446C218.29 41.5856 217.242 43.1061 215.146 43.1061C213.051 43.1061 212.003 41.5856 212.003 38.5446V33.901C209.27 33.901 207.195 33.6339 205.818 33.0792C203.681 32.2367 201.996 30.8806 200.805 29.0109C199.613 27.1411 199.017 25.0248 199.017 22.6619C199.017 20.2374 199.592 18.121 200.764 16.2718C201.935 14.4226 203.62 13.0665 205.818 12.2035C207.195 11.6693 209.27 11.3817 212.003 11.3817V8.17634C212.003 0.224691 227.31 1.56024 226.55 2.1561C226.16 2.48485 218.331 5.60798 218.311 6.34766L218.29 11.3817C221.002 11.3817 223.057 11.6488 224.434 12.2035C226.653 13.0665 228.358 14.4226 229.529 16.2718C230.7 18.121 231.276 20.2579 231.276 22.6619C231.276 25.0453 230.7 27.1617 229.529 28.9698C228.296 30.8601 226.612 32.2367 224.434 33.0792C223.057 33.6339 221.002 33.901 218.29 33.901ZM218.167 16.6417V28.6616H219.297C221.064 28.6616 222.42 28.0863 223.365 26.9562C224.269 25.8878 224.701 24.47 224.701 22.6824C224.701 20.8949 224.249 19.4566 223.365 18.4087C222.379 17.2375 221.023 16.6622 219.297 16.6622H218.167V16.6417ZM181.45 22.703C181.45 24.2029 181.799 25.4974 182.477 26.6069C183.299 27.9013 184.408 28.5589 185.806 28.5589C187.223 28.5589 188.333 27.9013 189.134 26.6069C189.812 25.4974 190.141 24.1824 190.141 22.703C190.141 21.2442 189.792 19.9703 189.072 18.8813C188.251 17.6279 187.162 17.0115 185.785 17.0115C184.367 17.0115 183.258 17.6279 182.456 18.8813C181.778 19.9292 181.45 21.2031 181.45 22.703ZM174.649 22.7852C174.649 19.4566 175.676 16.6417 177.772 14.3815C179.847 12.1213 182.539 10.9913 185.806 10.9913C189.134 10.9913 191.826 12.1213 193.86 14.3609C195.894 16.6211 196.921 19.4155 196.921 22.7852C196.921 26.1138 195.915 28.9081 193.901 31.1272C191.805 33.4079 189.114 34.538 185.806 34.538C182.518 34.538 179.826 33.3874 177.71 31.0861C175.655 28.8671 174.649 26.0932 174.649 22.7852ZM157.738 24.8604V29.3807C157.738 32.586 156.67 34.1887 154.513 34.1887C152.294 34.1887 151.184 32.586 151.184 29.3807V16.1485C151.184 12.9638 152.294 11.3817 154.513 11.3817C156.649 11.3817 157.738 12.9638 157.738 16.1485V20.2168H164.95V16.1485C164.95 12.9638 166.039 11.3817 168.217 11.3817C170.395 11.3817 171.464 12.9638 171.464 16.1485V29.3807C171.464 32.586 170.375 34.1887 168.217 34.1887C166.06 34.1887 164.95 32.586 164.95 29.3807V24.8604H157.738ZM108.303 24.2851H108.529L112.042 14.6075C112.823 12.4706 114.385 11.3817 116.727 11.3817C118.864 11.3817 120.199 12.5117 120.713 14.813L124.042 29.3807C124.288 30.4492 124.411 31.3121 124.411 31.9902C124.411 32.7299 124.021 33.3257 123.24 33.8189C122.562 34.2298 121.843 34.4353 121.042 34.4353C119.357 34.4353 118.268 33.223 117.795 30.819L115.617 20.4428L111.59 31.271C110.809 33.3874 109.741 34.4558 108.405 34.4558C107.07 34.4558 106.022 33.3874 105.221 31.271L101.235 20.4634L99.036 30.819C98.5223 33.2435 97.4333 34.4353 95.7896 34.4353C95.0088 34.4353 94.2691 34.2298 93.5911 33.8189C92.8103 33.3257 92.4199 32.7093 92.4199 31.9902C92.4199 31.3121 92.5432 30.4492 92.7897 29.3807L96.1183 14.813C96.6526 12.5117 97.9676 11.3817 100.125 11.3817C102.447 11.3817 104.008 12.4501 104.789 14.6075L108.303 24.2851ZM83.893 31.908C82.5369 33.5723 80.6876 34.3942 78.3453 34.3942C75.3865 34.3942 72.9415 33.1614 71.0101 30.7368C69.243 28.4767 68.3595 25.8467 68.3595 22.8057C68.3595 19.7442 69.2841 17.0731 71.1333 14.7924C73.0853 12.3474 75.5715 11.1351 78.5919 11.1351C80.7904 11.1351 82.5574 11.9159 83.893 13.498C84.6532 12.1213 85.7011 11.4227 87.0366 11.4227C89.2146 11.4227 90.3036 13.0049 90.3036 16.1896V29.4218C90.3036 32.6271 89.2146 34.2298 87.0366 34.2298C85.5778 34.1887 84.5299 33.4285 83.893 31.908ZM75.1605 22.703C75.1605 24.1413 75.5098 25.3535 76.1879 26.3603C76.9687 27.4904 78.0576 28.0657 79.4343 28.0657C80.8109 28.0657 81.8999 27.4904 82.6601 26.3603C83.3176 25.3535 83.6464 24.1413 83.6464 22.703C83.6464 21.2647 83.3176 20.0524 82.6601 19.0867C81.8999 17.9772 80.8315 17.4224 79.4343 17.4224C78.0782 17.4224 77.0097 17.9772 76.2084 19.0867C75.5304 20.073 75.1605 21.2853 75.1605 22.703ZM54.2643 16.991H51.4494C48.7167 16.991 47.34 16.0458 47.34 14.176C47.34 12.3063 48.7167 11.3611 51.4494 11.3611H63.5926C66.3665 11.3611 67.7431 12.3063 67.7431 14.176C67.7431 16.0458 66.3665 16.991 63.5926 16.991H60.7777V29.3602C60.7777 32.5655 59.6887 34.1682 57.5313 34.1682C55.3533 34.1682 54.2643 32.5655 54.2643 29.3602V16.991ZM6.75993 9.96392V15.7787H9.69813C11.0337 15.7787 11.9583 15.6143 12.5131 15.2856C13.2733 14.8541 13.6431 14.0322 13.6431 12.8405C13.6431 10.9091 12.3281 9.94337 9.69813 9.94337H6.75993V9.96392ZM6.75993 21.0798V28.0863H10.1296C11.5679 28.0863 12.6363 27.9014 13.3555 27.511C14.2801 26.9973 14.7321 26.0727 14.7321 24.7371C14.7321 23.1961 14.2801 22.1482 13.3966 21.6345C12.7391 21.2647 11.609 21.0592 10.0269 21.0592H6.75993V21.0798ZM147.157 16.3129V29.5246C147.157 32.6888 146.047 34.2914 143.828 34.2914C142.534 34.2914 141.486 33.5928 140.705 32.2162C139.452 33.5928 137.541 34.2914 134.931 34.2914C129.589 34.2914 126.918 31.4354 126.918 25.7439V16.3129C126.918 13.1076 128.007 11.5255 130.206 11.5255C132.404 11.5255 133.493 13.1281 133.493 16.3129V23.7509C133.493 25.3741 133.678 26.5247 134.068 27.2028C134.582 28.1685 135.568 28.6616 137.048 28.6616C139.37 28.6616 140.541 27.0384 140.541 23.8125V16.3129C140.541 13.1076 141.63 11.5255 143.828 11.5255C146.047 11.5049 147.157 13.1076 147.157 16.3129ZM45.5114 16.3129V29.5246C45.5114 32.6888 44.4018 34.2914 42.1828 34.2914C40.8883 34.2914 39.8404 33.5928 39.0596 32.2162C37.8063 33.5928 35.8954 34.2914 33.286 34.2914C27.9438 34.2914 25.2727 31.4354 25.2727 25.7439V16.3129C25.2727 13.1076 26.3617 11.5255 28.5602 11.5255C30.7587 11.5255 31.8477 13.1281 31.8477 16.3129V23.7509C31.8477 25.3741 32.0326 26.5247 32.423 27.2028C32.9367 28.1685 33.9229 28.6616 35.4023 28.6616C37.7446 28.6616 38.8953 27.0384 38.8953 23.8331V16.3129C38.8953 13.1076 39.9842 11.5255 42.1828 11.5255C44.4018 11.5049 45.5114 13.1076 45.5114 16.3129ZM4.6025 33.901C2.89711 33.901 1.70539 33.6134 1.02734 33.0175C0.349297 32.4422 0 31.2916 0 29.6067V8.93657C0 7.16954 0.349297 5.93673 1.02734 5.23813C1.70539 4.53954 2.9382 4.16969 4.68469 4.16969H10.2324C12.924 4.16969 15.2047 4.72446 17.0745 5.83399C19.3552 7.16954 20.4852 9.0804 20.4852 11.5666C20.4852 14.7924 19.3141 16.991 16.9923 18.121V18.2443C18.7388 18.7785 19.9716 19.5799 20.7318 20.6278C21.492 21.6756 21.8619 23.1139 21.8619 24.9221C21.8619 27.9424 20.814 30.2231 18.7182 31.8053C16.869 33.1819 14.3828 33.8805 11.2597 33.8805H4.6025V33.901Z" fill="#0076BC"/>
<path d="M227.989 1.8068C226.448 0.758908 220.551 -1.1725 216.482 0.964377C212.393 3.1218 212.989 7.70376 212.989 7.70376C219.256 2.79305 225.359 2.32047 225.359 2.32047C218.64 3.4711 213.277 8.15579 213.277 8.15579C216.873 8.34071 218.681 10.5803 221.701 9.32696C225.256 7.86813 225.502 3.34782 227.989 1.8068Z" fill="#6AA842"/>
<path d="M262.671 1.8068C261.13 0.758908 255.233 -1.1725 251.165 0.964377C247.076 3.1218 247.672 7.70376 247.672 7.70376C253.939 2.79305 260.041 2.32047 260.041 2.32047C253.322 3.4711 247.96 8.15579 247.96 8.15579C251.555 8.34071 253.363 10.5803 256.384 9.32696C259.938 7.86813 260.185 3.34782 262.671 1.8068Z" fill="#6AA842"/>
</svg>
