<svg width="244" height="59" viewBox="0 0 244 59" fill="none" xmlns="http://www.w3.org/2000/svg">
<path d="M55.0549 0.414562C38.784 0.508182 25.6534 13.5962 25.6926 29.6832C25.7318 45.8638 39.0019 58.9784 55.2462 58.8894C71.5187 58.8005 84.6853 45.675 84.6085 29.6223C84.5301 13.3981 71.2992 0.320942 55.0549 0.414562ZM65.3179 44.6842L55.1505 32.0611L44.9816 44.6826C40.1213 41.4122 36.9136 35.8808 36.9198 29.6426C36.9292 19.6565 45.1588 11.4851 55.1772 11.5163C65.2223 11.5475 73.4032 19.7158 73.3828 29.6972C73.3703 35.912 70.1625 41.4247 65.3179 44.6842ZM24.8476 11.9626H11.7092V58.1358H0.623047V0.92947H24.8476V11.9626ZM102.392 37.7048V58.1358H91.3062V0.92947H108.14C118.321 0.92947 126.615 9.18361 126.615 19.3179C126.615 29.4507 118.321 37.7048 108.14 37.7048H102.392ZM102.392 11.9626V26.6733H108.14C112.246 26.6733 115.531 23.4044 115.531 19.3179C115.531 15.233 112.246 11.9626 108.14 11.9626H102.392ZM143.658 0.92947V28.307H154.331V0.92947H165.417V58.1358H154.331V39.3401H143.658V58.1358H132.571V0.92947H143.658ZM196.451 52.4156H182.08L180.439 58.1358H168.942L185.365 0.92947H193.085L209.673 58.1358H198.094L196.451 52.4156ZM189.306 27.5721L185.283 41.3825H193.248L189.305 27.5721H189.306ZM226.995 0.92947H243.829V58.1358H232.743V37.7048H229.048L219.605 58.1358H207.369L217.963 35.3347C212.38 32.2281 208.52 26.1818 208.52 19.3164C208.52 9.18361 216.814 0.92791 226.997 0.92791L226.995 0.92947ZM226.995 11.9626C222.889 11.9626 219.605 15.233 219.605 19.3179C219.605 23.4044 222.889 26.6733 226.995 26.6733H232.743V11.9626H226.995Z" fill="white"/>
</svg>
