<svg width="267" height="65" viewBox="0 0 267 65" fill="none" xmlns="http://www.w3.org/2000/svg">
<path d="M59.7571 0.000551058C41.8944 0.103824 27.4792 14.5414 27.5222 32.2871C27.5653 50.1361 42.1336 64.6029 59.9671 64.5048C77.8316 64.4067 92.2864 49.9278 92.202 32.22C92.116 14.3228 77.5906 -0.102722 59.7571 0.000551058ZM71.0242 48.8349L59.8621 34.9102L48.6983 48.8331C43.3626 45.2255 39.841 39.1238 39.8478 32.2424C39.8582 21.2266 48.8928 12.2126 59.8914 12.247C70.9192 12.2814 79.9005 21.292 79.8781 32.3026C79.8644 39.1582 76.3428 45.2393 71.0242 48.8349ZM26.5945 12.7393H12.1707V63.6735H0V0.568552H26.5945V12.7393ZM111.726 41.1359V63.6735H99.5551V0.568552H118.036C129.213 0.568552 138.319 9.67378 138.319 20.8531C138.319 32.0306 129.213 41.1359 118.036 41.1359H111.726ZM111.726 12.7393V28.9669H118.036C122.544 28.9669 126.15 25.3609 126.15 20.8531C126.15 16.3469 122.544 12.7393 118.036 12.7393H111.726ZM157.028 0.568552V30.769H168.746V0.568552H180.917V63.6735H168.746V42.9397H157.028V63.6735H144.857V0.568552H157.028ZM214.987 57.3635H199.21L197.408 63.6735H184.786L202.816 0.568552H211.291L229.502 63.6735H216.79L214.987 57.3635ZM207.143 29.9583L202.726 45.1928H211.47L207.141 29.9583H207.143ZM248.519 0.568552H267V63.6735H254.829V41.1359H250.772L240.406 63.6735H226.973L238.603 38.5213C232.474 35.0944 228.237 28.4247 228.237 20.8514C228.237 9.67378 237.342 0.566831 248.521 0.566831L248.519 0.568552ZM248.519 12.7393C244.011 12.7393 240.406 16.3469 240.406 20.8531C240.406 25.3609 244.011 28.9669 248.519 28.9669H254.829V12.7393H248.519Z" fill="#53B6E0"/>
</svg>
