<svg width="106" height="37" viewBox="0 0 106 37" fill="none" xmlns="http://www.w3.org/2000/svg">
<path d="M8.69999 34.23C8.33999 30.82 6.01999 28.91 3.56999 26.9C3.24999 26.63 2.91999 26.37 2.59999 26.09L2.34999 25.88L5.46999 26.16C7.40999 26.33 9.28999 26.5 11.18 26.65C16.9 27.08 22.56 27.3 27.98 27.3C32.29 27.3 36.6 27.16 40.77 26.89C44.86 26.62 48.83 26.49 52.58 26.49C63.01 26.49 72.4 27.51 81.31 29.6C83.35 30.08 85.4 30.32 87.38 30.32C89.06 30.32 90.75 30.14 92.39 29.8C94.63 29.32 95.9 28.29 96.48 26.45C96.97 24.9 97.5 23.35 98.02 21.86C98.21 21.31 98.4 20.76 98.58 20.23C98.29 20.38 98.01 20.54 97.72 20.7C96.92 21.15 96.09 21.62 95.21 21.81C95.01 21.85 94.82 21.87 94.64 21.87C93.5 21.87 92.59 21.1 92 19.65L91.85 19.77C91.68 19.91 91.54 20.03 91.38 20.13C91.17 20.27 90.96 20.41 90.75 20.56C90.22 20.92 89.68 21.3 89.08 21.55C88.5 21.8 88 21.92 87.54 21.92C86.47 21.92 85.71 21.27 85.15 19.87C84.83 20.06 84.51 20.26 84.18 20.47C83.37 20.99 82.53 21.54 81.61 21.79C81.35 21.86 81.1 21.9 80.86 21.9C79.74 21.9 78.79 21.11 78.19 19.67C78.12 19.74 78.06 19.8 78 19.86C77.81 20.05 77.63 20.23 77.42 20.35C77.17 20.49 76.92 20.63 76.67 20.78C75.94 21.2 75.19 21.64 74.39 21.83C74.17 21.88 73.94 21.91 73.73 21.91C73.05 21.91 72.43 21.64 71.99 21.15C71.45 20.55 71.22 19.68 71.32 18.71C71.41 17.92 71.55 17.15 71.71 16.33C71.77 16.01 71.83 15.69 71.89 15.36C71.65 15.4 71.42 15.43 71.19 15.47C70.47 15.58 69.79 15.68 69.12 15.85C68.95 15.89 68.74 16.24 68.67 16.49C68.52 17.09 68.39 17.69 68.26 18.29C68.12 18.96 67.97 19.63 67.8 20.3C67.55 21.29 66.72 21.92 65.7 21.92C65.54 21.92 65.38 21.91 65.21 21.87C64.86 21.8 64.64 21.69 64.52 21.5C64.4 21.32 64.38 21.06 64.46 20.71C65.1 17.9 65.71 15.04 66.3 12.27L66.33 12.11C66.39 11.83 66.41 11.55 66.45 11.18C66.46 11.04 66.48 10.88 66.5 10.71C66.36 10.79 66.24 10.87 66.12 10.93C65.82 11.11 65.6 11.24 65.41 11.4C64.03 12.64 62.95 13.75 62.7 15.68C62.35 18.37 60.35 20.1 58.74 21.08C57.82 21.64 56.94 21.92 56.13 21.92C54.8 21.92 53.59 21.16 52.54 19.66C52.45 19.73 52.37 19.81 52.29 19.88C52.04 20.1 51.78 20.33 51.48 20.5L51.04 20.76C50.38 21.15 49.71 21.55 48.98 21.76C48.65 21.86 48.32 21.9 48.02 21.9C47.35 21.9 46.77 21.67 46.35 21.24C45.87 20.76 45.63 20.06 45.64 19.22C45.65 18.18 45.8 17.12 45.95 16.1C46.02 15.65 46.08 15.19 46.13 14.74C46.16 14.48 46.19 14.26 46.14 14.01L46.12 14.04C46.02 14.2 45.92 14.36 45.84 14.52L45.07 16C44.2 17.66 43.33 19.33 42.49 21.01C42.18 21.62 41.79 21.91 41.26 21.91C41.13 21.91 41 21.89 40.85 21.86C40.1 21.68 39.72 21.19 39.72 20.38V13.87L39.52 13.84L39.46 13.99C39.39 14.16 39.33 14.33 39.25 14.5C39.05 14.95 38.84 15.4 38.64 15.85C38.09 17.08 37.52 18.35 36.9 19.57C36.6 20.17 36.06 20.68 35.57 21.1C34.93 21.65 34.38 21.92 33.88 21.92C33.34 21.92 32.85 21.62 32.35 20.96C31.99 21.06 31.63 21.17 31.28 21.27C30.44 21.53 29.65 21.77 28.84 21.79C27.29 21.79 26.85 20.51 26.74 19.63C26.46 19.83 26.18 20.04 25.9 20.25C25.15 20.82 24.37 21.4 23.51 21.76C23.22 21.88 22.95 21.94 22.69 21.94C21.87 21.94 21.16 21.34 20.26 19.89C20.18 19.96 20.09 20.02 20.01 20.09C19.76 20.29 19.51 20.49 19.24 20.67L19 20.82C18.55 21.11 18.08 21.41 17.57 21.61C17.04 21.81 16.54 21.92 16.06 21.92C15.26 21.92 14.6 21.63 14.15 21.1C13.61 20.46 13.42 19.51 13.61 18.41C13.86 16.97 14.17 15.53 14.48 14.13C14.61 13.53 14.74 12.93 14.87 12.33L16.64 3.91C16.68 3.72 16.71 3.52 16.73 3.33L16.75 3.16C16.25 3 15.87 2.89 15.62 2.89C15.22 2.89 15.1 3.14 14.79 4.15C13.6 8.13 12.26 12.64 10.14 16.73C9.55999 17.86 8.82999 18.88 7.99999 20C7.69999 20.41 7.25999 20.8 6.62999 21.21C5.91999 21.68 5.24999 21.92 4.64999 21.92C3.54999 21.92 2.72999 21.14 2.26999 19.66C2.24999 19.59 2.20999 19.52 2.15999 19.45L2.08999 19.34L2.07999 17.69C2.67999 16.65 3.40999 16.13 4.22999 16.13C4.69999 16.13 5.18999 16.3 5.68999 16.62L5.74999 16.66L5.62999 17.32C5.51999 17.9 5.41999 18.49 5.31999 19.07C5.30999 19.13 5.31999 19.2 5.34999 19.33C5.35999 19.38 5.36999 19.44 5.37999 19.51C5.53999 19.39 5.69999 19.29 5.84999 19.18C6.24999 18.91 6.59999 18.67 6.81999 18.36C7.00999 18.08 7.20999 17.79 7.40999 17.51C8.28999 16.25 9.19999 14.95 9.77999 13.55C10.78 11.14 11.66 8.62 12.5 6.19C12.84 5.2 13.19 4.21 13.54 3.22C13.57 3.15 13.57 3.07 13.58 2.99V2.96C13.39 2.93 13.2 2.91 13.01 2.91C12.25 2.91 11.62 3.19 11.19 3.73C10.61 4.45 10.44 5.54 10.71 6.8L10.73 6.88L10.7 6.89C10.3 7.07 9.90999 7.16 9.52999 7.16C8.39999 7.16 7.59999 6.34 7.47999 5.07C7.37999 3.95 7.64999 2.95 8.25999 2.26C8.82999 1.61 9.65999 1.24 10.66 1.19C10.95 1.18 11.24 1.17 11.54 1.17C12.62 1.17 13.73 1.26 14.8 1.34C15.45 1.39 16.1 1.44 16.75 1.47C17.22 1.49 17.69 1.51 18.15 1.52C18.81 1.54 19.48 1.57 20.14 1.61C20.33 1.62 21.01 1.74 21.04 2C21.08 2.34 20.94 2.71 20.77 3.05C20.67 3.26 20.54 3.46 20.42 3.66C20.22 3.98 20.03 4.28 19.96 4.61C19.11 8.39 18.3 12.25 17.52 15.98L17.26 17.23C17.18 17.61 17.11 18.02 17.17 18.38C17.21 18.65 17.42 18.97 17.63 19.09C17.74 19.15 17.88 19.18 18.06 19.18C18.94 19.18 20.18 18.45 20.31 17.86C20.79 15.71 21.25 13.56 21.7 11.41C21.72 11.29 21.72 11.16 21.71 11.06C21.71 11.04 21.71 11.02 21.71 11L20.6 10.52L20.66 10.42C20.74 10.29 20.81 10.15 20.88 10C21.04 9.66 21.2 9.32 21.49 9.14C22.28 8.66 23.08 8.34 23.81 8.22C23.95 8.2 24.07 8.19 24.19 8.19C24.6 8.19 24.92 8.32 25.12 8.57C25.36 8.87 25.43 9.33 25.31 9.91C25.13 10.75 24.95 11.6 24.77 12.44C24.48 13.76 24.18 15.12 23.92 16.47C23.89 16.63 23.84 16.81 23.78 16.98C23.57 17.67 23.37 18.31 24.34 18.63C24.45 18.67 24.58 18.69 24.71 18.69C25.64 18.69 26.8 17.74 27 16.81C27.24 15.7 27.48 14.58 27.71 13.47C27.95 12.33 28.19 11.19 28.44 10.06C28.7 8.88 29.54 8.18 30.69 8.18C30.81 8.18 30.93 8.19 31.05 8.2C31.47 8.25 31.72 8.37 31.86 8.57C32 8.77 32.03 9.05 31.94 9.45C31.43 11.66 30.96 13.93 30.51 16.11L30.33 16.98C30.24 17.42 30.15 17.89 30.18 18.34C30.2 18.64 30.38 19.01 30.53 19.06C30.59 19.08 30.66 19.09 30.75 19.09C30.97 19.09 31.25 19.01 31.44 18.89C31.65 18.75 31.81 18.51 31.97 18.27L32.1 18.08C32.51 17.47 33.05 17.15 33.65 17.15C34.05 17.15 34.48 17.29 34.92 17.57L34.98 17.61L34.9 18.02C34.82 18.42 34.75 18.82 34.67 19.23C34.67 19.24 34.73 19.39 34.74 19.43C36.85 17.6 37.59 15.15 38.31 12.78C38.53 12.05 38.76 11.3 39.02 10.58L38.89 10.38L36.02 11.49L35.97 11.44C35.48 10.88 35.32 10.12 35.55 9.44C35.77 8.82 36.29 8.39 36.99 8.27C37.52 8.18 38.11 8.13 38.78 8.13C39.47 8.13 40.18 8.18 40.87 8.22C41.23 8.24 41.6 8.27 41.96 8.29C42.22 8.3 42.46 8.98 42.47 9.25C42.55 10.85 42.61 12.45 42.67 14.05L42.74 16.05C42.75 16.29 42.77 16.54 42.92 16.83L43.02 16.66C43.15 16.44 43.27 16.22 43.4 16L44.64 13.74C45.38 12.39 46.12 11.03 46.87 9.68C47.23 9.02 47.86 8.15 49.03 8.15C49.14 8.15 49.25 8.16 49.36 8.17C49.66 8.21 49.99 8.28 50.18 8.52C50.32 8.71 50.36 8.99 50.3 9.39C49.96 11.49 49.68 13.63 49.41 15.71L49.2 17.32C49.08 18.19 49.12 18.7 49.33 18.95C49.45 19.1 49.64 19.18 49.92 19.2C49.98 19.21 50.03 19.21 50.09 19.21C50.68 19.21 51.29 18.95 51.72 18.53C52.07 18.18 52.26 17.76 52.25 17.34C52.24 14.44 53.2 11.94 55.12 9.89C56.26 8.68 57.54 8.06 58.93 8.06C59.31 8.06 59.7 8.11 60.1 8.2C60.68 8.34 61.19 8.72 61.69 9.09L61.98 9.3C62.17 9.44 62.23 9.93 62.12 10.13C62.02 10.32 61.69 10.5 61.45 10.5L61.35 10.49C60.83 10.36 60.28 10.23 59.75 10.23C59.04 10.23 58.47 10.45 57.95 10.91C56.77 11.98 56.07 13.45 55.89 15.27C55.79 16.28 55.87 17.35 56.12 18.29C56.31 19.02 56.77 19.44 57.38 19.44C57.73 19.44 58.11 19.3 58.46 19.02C59.83 17.98 60.44 16.53 60.26 14.71C60.24 14.51 59.96 14.17 59.78 14.14C58.67 13.91 58.76 13.04 58.82 12.41C58.9 11.59 59.41 11.08 60.27 10.95C60.41 10.93 60.54 10.92 60.67 10.92C61.34 10.92 61.89 11.21 62.75 12.03L63.01 11.82C63.27 11.62 63.54 11.41 63.8 11.2C64.09 10.97 64.38 10.73 64.66 10.48C65.28 9.96 65.93 9.42 66.6 8.94C67.16 8.54 67.83 8.34 68.29 8.25C68.52 8.2 68.73 8.18 68.91 8.18C69.35 8.18 69.69 8.31 69.9 8.57C70.16 8.89 70.22 9.39 70.08 10.06C69.9 10.92 69.72 11.78 69.52 12.72L69.28 13.86L69.97 13.81C70.73 13.76 71.44 13.71 72.15 13.62C72.23 13.61 72.39 13.31 72.47 13C72.64 12.32 72.78 11.64 72.93 10.96C73.01 10.6 73.08 10.24 73.16 9.88C73.35 9.01 73.9 8.46 74.77 8.26C75.03 8.2 75.26 8.17 75.46 8.17C75.83 8.17 76.1 8.28 76.27 8.49C76.49 8.76 76.54 9.2 76.41 9.82C76.25 10.59 76.09 11.36 75.92 12.12C75.54 13.9 75.15 15.74 74.81 17.56C74.72 18.06 74.81 18.77 75.07 18.98C75.18 19.07 75.38 19.12 75.64 19.12C75.99 19.12 76.36 19.03 76.56 18.98C77.52 18.73 77.93 18.19 77.92 17.16C77.91 14.29 78.88 11.83 80.81 9.82C81.91 8.67 83.17 8.09 84.54 8.09C85.3 8.09 86.11 8.27 86.95 8.63C87.01 8.66 87.09 8.67 87.18 8.67C87.35 8.67 87.53 8.63 87.67 8.59C87.82 8.55 87.97 8.48 88.11 8.42C88.3 8.34 88.49 8.25 88.7 8.21C88.92 8.17 89.12 8.16 89.29 8.16C89.67 8.16 89.93 8.25 90.08 8.45C90.28 8.7 90.31 9.11 90.17 9.77L89.75 11.74C89.35 13.63 88.94 15.58 88.57 17.51C88.47 18.04 88.54 18.78 88.78 18.95C88.93 19.05 89.15 19.1 89.44 19.1C89.72 19.1 90.05 19.05 90.36 18.96C91.32 18.68 91.72 18.13 91.72 17.12C91.71 14.47 92.57 12.13 94.29 10.16C95.5 8.78 96.8 8.11 98.28 8.11C99.06 8.11 99.87 8.29 100.78 8.66C100.84 8.68 100.91 8.7 100.99 8.7C101.15 8.7 101.34 8.65 101.48 8.58C101.97 8.32 102.43 8.19 102.88 8.19C103.34 8.19 103.8 8.33 104.23 8.6L104.28 8.63V8.89L104 10.02C103.81 10.78 103.62 11.53 103.44 12.29C103.13 13.63 102.83 14.97 102.54 16.31C101.91 19.19 101.26 22.16 100.41 25.03C98.77 30.49 96.32 32.43 91.05 32.43C90.73 32.43 90.4 32.42 90.05 32.41C86.35 32.25 82.61 31.81 78.99 31.38C78.19 31.29 75.99 31.03 75.99 31.03C68.28 30.14 60.31 29.23 52.44 29.23C49.16 29.23 46.12 29.38 43.18 29.7C36.3 30.44 29.33 31.41 22.59 32.35C19.9 32.73 17.2 33.1 14.5 33.46C13.22 33.63 11.93 33.85 10.67 34.07C10.07 34.17 9.45999 34.28 8.84999 34.37L8.73999 34.39L8.69999 34.23ZM85.53 10.17C84.38 10.17 83.43 10.71 82.71 11.76C81.61 13.37 81.36 15.21 81.26 16.81C81.25 17.67 81.42 18.29 81.77 18.64C81.99 18.86 82.28 18.97 82.63 18.97C83.73 18.94 85.06 17.85 85.28 16.85C85.45 16.06 85.61 15.27 85.78 14.47C86.02 13.3 86.26 12.14 86.52 10.97C86.58 10.7 86.57 10.51 86.49 10.4C86.41 10.28 86.24 10.22 85.95 10.19C85.8 10.18 85.67 10.17 85.53 10.17ZM99.33 10.17C98.12 10.17 97.18 10.73 96.43 11.88C95.4 13.48 95.16 15.29 95.06 17.01C95.07 17.05 95.07 17.13 95.07 17.23C95.07 17.48 95.08 17.83 95.24 18.05C95.53 18.44 96.06 18.88 96.51 18.93C96.55 18.93 96.59 18.94 96.63 18.94C97.58 18.94 98.86 17.85 99.07 16.86C99.23 16.12 99.38 15.38 99.53 14.64C99.77 13.44 100.02 12.21 100.3 11C100.37 10.71 100.36 10.52 100.27 10.4C100.18 10.28 100.01 10.22 99.67 10.19C99.57 10.18 99.45 10.17 99.33 10.17Z" fill="white"/>
<path d="M11.53 1.26C13.26 1.26 15 1.48 16.73 1.56C17.86 1.62 18.99 1.63 20.12 1.7C20.41 1.72 20.91 1.86 20.92 1.99C20.96 2.31 20.81 2.67 20.66 2.99C20.41 3.53 19.96 4.01 19.83 4.57C18.89 8.77 18.01 12.98 17.12 17.19C17.04 17.58 16.96 17.99 17.02 18.37C17.07 18.66 17.28 19.01 17.53 19.15C17.66 19.22 17.82 19.26 18.01 19.26C18.88 19.26 20.21 18.53 20.36 17.85C20.84 15.7 21.3 13.55 21.75 11.4C21.79 11.22 21.76 11.02 21.76 10.89C21.37 10.72 21.03 10.58 20.69 10.43C20.95 10.01 21.11 9.42 21.48 9.19C22.17 8.77 22.97 8.41 23.76 8.28C23.89 8.26 24.01 8.25 24.12 8.25C24.98 8.25 25.34 8.85 25.14 9.84C24.69 12.03 24.17 14.2 23.75 16.4C23.6 17.19 22.9 18.25 24.24 18.69C24.37 18.73 24.5 18.75 24.64 18.75C25.62 18.75 26.82 17.79 27.03 16.79C27.52 14.54 27.98 12.29 28.47 10.04C28.72 8.89 29.54 8.24 30.61 8.24C30.72 8.24 30.84 8.25 30.96 8.26C31.65 8.34 31.94 8.61 31.76 9.38C31.19 11.88 30.67 14.4 30.15 16.92C30.06 17.37 29.97 17.85 30 18.3C30.02 18.59 30.2 19.03 30.42 19.11C30.49 19.14 30.58 19.15 30.67 19.15C30.92 19.15 31.21 19.06 31.41 18.93C31.7 18.75 31.89 18.39 32.09 18.09C32.49 17.51 32.99 17.21 33.56 17.21C33.94 17.21 34.34 17.34 34.77 17.61C34.67 18.12 34.57 18.64 34.48 19.16C34.47 19.22 34.52 19.28 34.61 19.55C37.52 17.12 37.9 13.63 39.05 10.5C38.98 10.39 38.91 10.29 38.84 10.18C37.89 10.55 36.94 10.92 35.96 11.3C35.05 10.27 35.41 8.57 36.92 8.3C37.5 8.2 38.09 8.16 38.69 8.16C39.74 8.16 40.81 8.27 41.86 8.32C42.02 8.33 42.26 8.88 42.27 9.18C42.39 11.45 42.46 13.71 42.55 15.98C42.56 16.29 42.6 16.6 42.83 16.97C43.02 16.64 43.21 16.32 43.4 15.98C44.55 13.87 45.7 11.76 46.87 9.66C47.34 8.82 47.94 8.18 48.94 8.18C49.04 8.18 49.15 8.19 49.26 8.2C49.93 8.28 50.23 8.5 50.1 9.3C49.68 11.94 49.35 14.59 49 17.23C48.81 18.66 49.03 19.17 49.82 19.23C49.88 19.23 49.94 19.24 50 19.24C51.18 19.24 52.27 18.31 52.27 17.26C52.26 14.43 53.17 11.95 55.11 9.88C56.16 8.77 57.4 8.08 58.84 8.08C59.21 8.08 59.59 8.13 59.98 8.22C60.65 8.38 61.25 8.89 61.83 9.3C61.97 9.4 62.03 9.82 61.93 10C61.84 10.16 61.55 10.32 61.35 10.32C61.32 10.32 61.3 10.32 61.28 10.31C60.73 10.17 60.18 10.05 59.65 10.05C59 10.05 58.37 10.23 57.78 10.76C56.47 11.94 55.86 13.5 55.69 15.18C55.59 16.19 55.66 17.26 55.92 18.23C56.13 19.04 56.66 19.46 57.28 19.46C57.64 19.46 58.04 19.32 58.43 19.02C59.88 17.92 60.44 16.4 60.27 14.62C60.25 14.37 59.94 14 59.71 13.95C58.73 13.74 58.76 13.04 58.83 12.33C58.91 11.53 59.41 11.08 60.19 10.96C60.32 10.94 60.45 10.93 60.57 10.93C61.23 10.93 61.79 11.25 62.64 12.07C63.01 11.78 63.39 11.49 63.77 11.19C64.7 10.44 65.6 9.63 66.57 8.94C67.04 8.6 67.64 8.39 68.22 8.27C68.44 8.22 68.64 8.2 68.82 8.2C69.76 8.2 70.12 8.81 69.89 9.96C69.64 11.2 69.37 12.43 69.06 13.89C70.14 13.81 71.12 13.77 72.08 13.64C72.25 13.62 72.42 13.2 72.49 12.94C72.75 11.9 72.96 10.86 73.19 9.82C73.38 8.99 73.89 8.47 74.72 8.28C74.97 8.22 75.19 8.19 75.39 8.19C76.17 8.19 76.45 8.69 76.24 9.71C75.7 12.29 75.13 14.86 74.64 17.45C74.55 17.94 74.62 18.72 74.93 18.97C75.08 19.09 75.31 19.13 75.56 19.13C75.87 19.13 76.22 19.06 76.5 18.99C77.44 18.75 77.94 18.22 77.94 17.07C77.93 14.31 78.85 11.83 80.8 9.8C81.9 8.66 83.12 8.1 84.46 8.1C85.21 8.1 86 8.28 86.83 8.63C86.91 8.67 87.01 8.68 87.1 8.68C87.27 8.68 87.46 8.64 87.62 8.6C87.97 8.51 88.29 8.28 88.64 8.23C88.86 8.19 89.05 8.18 89.22 8.18C90.03 8.18 90.22 8.61 90.01 9.66C89.47 12.24 88.9 14.81 88.41 17.4C88.31 17.91 88.36 18.73 88.66 18.94C88.84 19.06 89.1 19.11 89.38 19.11C89.7 19.11 90.04 19.05 90.32 18.97C91.23 18.71 91.76 18.19 91.75 17.03C91.74 14.46 92.57 12.11 94.29 10.14C95.48 8.78 96.75 8.12 98.21 8.12C98.97 8.12 99.79 8.3 100.67 8.66C100.74 8.69 100.83 8.7 100.92 8.7C101.1 8.7 101.31 8.65 101.45 8.57C101.91 8.32 102.36 8.19 102.8 8.19C103.23 8.19 103.67 8.31 104.1 8.58V8.78C103.82 9.9 103.53 11.03 103.26 12.16C102.26 16.41 101.47 20.72 100.22 24.9C98.62 30.26 96.2 32.23 90.96 32.23C90.64 32.23 90.31 32.22 89.97 32.21C85.48 32.02 81 31.42 76.53 30.9C68.49 29.98 60.44 29.03 52.37 29.03C49.28 29.03 46.19 29.17 43.09 29.5C33.51 30.53 23.97 31.98 14.41 33.26C12.53 33.51 10.67 33.86 8.76 34.17C8.35 30.26 5.38 28.29 2.62 25.96C5.57 26.22 8.35 26.49 11.12 26.7C16.72 27.13 22.32 27.35 27.93 27.35C32.19 27.35 36.45 27.22 40.72 26.94C44.66 26.68 48.6 26.54 52.53 26.54C62.16 26.54 71.75 27.42 81.24 29.64C83.26 30.11 85.29 30.37 87.33 30.37C89 30.37 90.68 30.2 92.36 29.84C94.36 29.42 95.87 28.49 96.52 26.42C97.22 24.21 98 22.02 98.7 19.96C97.51 20.55 96.38 21.39 95.13 21.65C94.94 21.69 94.76 21.71 94.58 21.71C93.36 21.71 92.5 20.77 91.98 19.42C91.7 19.64 91.49 19.83 91.25 19.98C90.5 20.47 89.78 21.05 88.96 21.39C88.4 21.63 87.9 21.75 87.46 21.75C86.38 21.75 85.65 21.04 85.13 19.66C83.95 20.33 82.81 21.27 81.51 21.63C81.26 21.7 81.02 21.73 80.79 21.73C79.58 21.73 78.7 20.8 78.16 19.42C77.83 19.72 77.6 20.02 77.3 20.18C76.32 20.71 75.36 21.41 74.3 21.65C74.08 21.7 73.87 21.73 73.66 21.73C72.16 21.73 71.16 20.42 71.36 18.65C71.49 17.5 71.74 16.37 71.95 15.16C70.91 15.33 69.95 15.45 69.03 15.67C68.81 15.72 68.57 16.11 68.51 16.39C68.19 17.65 67.97 18.94 67.65 20.2C67.4 21.18 66.59 21.75 65.65 21.75C65.5 21.75 65.34 21.73 65.18 21.7C64.56 21.58 64.36 21.32 64.51 20.66C65.16 17.8 65.77 14.93 66.39 12.05C66.48 11.62 66.5 11.17 66.58 10.42C65.98 10.8 65.6 10.97 65.3 11.24C63.98 12.42 62.81 13.55 62.55 15.58C62.25 17.9 60.67 19.67 58.64 20.91C57.73 21.46 56.88 21.74 56.08 21.74C54.75 21.74 53.56 20.97 52.51 19.44C52.13 19.75 51.79 20.1 51.38 20.34C50.58 20.8 49.77 21.33 48.9 21.59C48.57 21.68 48.26 21.73 47.97 21.73C46.61 21.73 45.67 20.75 45.69 19.16C45.71 17.67 46.01 16.18 46.18 14.69C46.22 14.38 46.26 14.07 46.11 13.7C45.97 13.94 45.81 14.17 45.69 14.42C44.56 16.58 43.42 18.73 42.33 20.91C42.06 21.45 41.71 21.75 41.2 21.75C41.08 21.75 40.95 21.73 40.82 21.7C40.09 21.53 39.77 21.04 39.77 20.32C39.77 18.12 39.77 15.92 39.77 13.72C39.65 13.7 39.52 13.68 39.4 13.66C39.3 13.91 39.21 14.15 39.1 14.39C38.33 16.08 37.6 17.8 36.76 19.46C36.47 20.03 35.95 20.53 35.45 20.96C34.83 21.5 34.31 21.76 33.83 21.76C33.29 21.76 32.82 21.43 32.35 20.79C31.1 21.11 29.96 21.61 28.8 21.63H28.76C27.34 21.63 26.89 20.43 26.79 19.39C25.7 20.13 24.66 21.09 23.43 21.61C23.15 21.73 22.89 21.79 22.65 21.79C21.79 21.79 21.09 21.08 20.25 19.7C19.88 19.98 19.53 20.29 19.14 20.54C18.61 20.88 18.08 21.25 17.49 21.48C16.96 21.68 16.47 21.78 16.02 21.78C14.35 21.78 13.32 20.46 13.67 18.39C14.02 16.35 14.5 14.34 14.93 12.32C15.52 9.51 16.11 6.7 16.7 3.89C16.76 3.61 16.78 3.32 16.82 3.05C16.24 2.86 15.85 2.75 15.57 2.75C15.08 2.75 14.94 3.12 14.65 4.09C13.37 8.37 12.07 12.66 10.01 16.65C9.42 17.8 8.65 18.86 7.88 19.91C7.53 20.38 7.04 20.77 6.54 21.1C5.84 21.56 5.19 21.79 4.62 21.79C3.58 21.79 2.79 21.04 2.34 19.6C2.3 19.48 2.22 19.37 2.16 19.26V17.66C2.73 16.69 3.43 16.2 4.21 16.2C4.65 16.2 5.12 16.36 5.61 16.68C5.47 17.46 5.32 18.24 5.19 19.02C5.17 19.14 5.22 19.27 5.28 19.66C5.9 19.18 6.54 18.88 6.88 18.38C7.95 16.82 9.13 15.27 9.85 13.55C11.26 10.17 12.38 6.67 13.62 3.22C13.66 3.1 13.66 2.97 13.68 2.84C13.44 2.79 13.22 2.77 13 2.77C11.13 2.77 10.1 4.43 10.6 6.79C10.21 6.97 9.82 7.05 9.47 7.05C8.43 7.05 7.64 6.31 7.52 5.05C7.33 2.96 8.47 1.38 10.6 1.28C10.95 1.27 11.24 1.26 11.53 1.26ZM96.64 19.04C97.67 19.04 98.97 17.87 99.18 16.87C99.6 14.92 99.95 12.96 100.41 11.02C100.58 10.3 100.29 10.13 99.69 10.08C99.57 10.07 99.44 10.06 99.32 10.06C98.02 10.06 97.05 10.71 96.34 11.82C95.37 13.32 95.07 15.01 94.95 17C94.98 17.22 94.91 17.78 95.15 18.11C95.46 18.53 96.01 18.98 96.5 19.03C96.55 19.04 96.6 19.04 96.64 19.04ZM82.63 19.08C82.65 19.08 82.66 19.08 82.68 19.08C83.75 19.05 85.15 17.94 85.38 16.88C85.8 14.92 86.17 12.96 86.62 11.01C86.77 10.36 86.53 10.16 85.96 10.1C85.81 10.08 85.67 10.08 85.54 10.08C84.3 10.08 83.35 10.67 82.64 11.71C81.57 13.28 81.28 15.09 81.17 16.81C81.14 18.31 81.67 19.08 82.63 19.08ZM11.53 1.06C11.24 1.06 10.94 1.07 10.65 1.08C9.62 1.13 8.76 1.51 8.18 2.19C7.56 2.91 7.27 3.94 7.38 5.08C7.5 6.41 8.35 7.27 9.53 7.27C9.92 7.27 10.33 7.17 10.75 6.99L10.9 6.92L10.86 6.75C10.6 5.52 10.76 4.46 11.32 3.76C11.73 3.25 12.33 2.98 13.06 2.98C13.21 2.98 13.36 2.99 13.51 3.01C13.5 3.06 13.5 3.11 13.48 3.14C13.13 4.13 12.78 5.12 12.44 6.11C11.59 8.54 10.72 11.06 9.72 13.47C9.14 14.86 8.23 16.16 7.36 17.42C7.16 17.7 6.96 17.99 6.77 18.27C6.56 18.57 6.22 18.8 5.83 19.06C5.72 19.14 5.6 19.21 5.49 19.29C5.49 19.28 5.49 19.28 5.49 19.27C5.47 19.16 5.46 19.09 5.46 19.05C5.56 18.46 5.66 17.88 5.77 17.29L5.88 16.71L5.9 16.58L5.78 16.5C5.26 16.16 4.76 15.99 4.27 15.99C3.41 15.99 2.64 16.53 2.04 17.55L2 17.6V17.66V19.26V19.31L2.03 19.36C2.05 19.4 2.07 19.44 2.1 19.48C2.14 19.55 2.18 19.61 2.2 19.67C2.8 21.6 3.88 22.01 4.68 22.01C5.3 22.01 5.99 21.76 6.72 21.28C7.36 20.86 7.8 20.46 8.11 20.04C8.94 18.91 9.67 17.89 10.25 16.75C12.37 12.65 13.72 8.14 14.91 4.15C15.21 3.14 15.32 2.96 15.63 2.96C15.86 2.96 16.21 3.06 16.65 3.2C16.65 3.23 16.64 3.26 16.64 3.29C16.62 3.48 16.59 3.67 16.56 3.86C16.2 5.6 15.83 7.34 15.46 9.08L14.79 12.28C14.66 12.88 14.53 13.48 14.4 14.08C14.09 15.48 13.78 16.93 13.53 18.36C13.34 19.48 13.53 20.47 14.09 21.13C14.56 21.69 15.25 21.99 16.08 21.99C16.57 21.99 17.09 21.88 17.62 21.68C18.13 21.48 18.61 21.17 19.06 20.88L19.3 20.73C19.58 20.55 19.84 20.35 20.09 20.15C20.14 20.11 20.19 20.07 20.24 20.03C21.13 21.45 21.85 22.03 22.7 22.03C22.98 22.03 23.26 21.97 23.57 21.84C24.45 21.47 25.23 20.88 25.99 20.31C26.22 20.14 26.45 19.96 26.69 19.8C26.92 21.14 27.66 21.88 28.82 21.88H28.87C29.69 21.86 30.49 21.62 31.34 21.36C31.67 21.26 32 21.15 32.34 21.07C32.85 21.71 33.35 22.01 33.91 22.01C34.44 22.01 35 21.74 35.66 21.16C36.16 20.73 36.7 20.21 37.02 19.6C37.64 18.37 38.21 17.1 38.76 15.87C38.96 15.42 39.16 14.97 39.37 14.52C39.45 14.35 39.51 14.18 39.58 14.01L39.61 13.93H39.64V15.6C39.64 17.18 39.64 18.77 39.64 20.35C39.64 21.2 40.06 21.75 40.85 21.94C41 21.98 41.15 21.99 41.28 21.99C41.85 21.99 42.28 21.68 42.6 21.04C43.44 19.36 44.33 17.66 45.19 16.02L45.96 14.55C46 14.47 46.05 14.39 46.09 14.31C46.09 14.42 46.08 14.54 46.06 14.66C46 15.15 45.94 15.6 45.87 16.05C45.72 17.07 45.57 18.13 45.56 19.19C45.55 20.06 45.81 20.78 46.3 21.28C46.74 21.73 47.35 21.97 48.05 21.97C48.37 21.97 48.7 21.92 49.04 21.82C49.78 21.61 50.46 21.2 51.12 20.81C51.27 20.72 51.41 20.64 51.56 20.55C51.86 20.38 52.13 20.14 52.38 19.92C52.44 19.87 52.49 19.82 52.55 19.77C53.61 21.23 54.82 21.98 56.16 21.98C56.99 21.98 57.89 21.69 58.82 21.12C60.45 20.13 62.47 18.38 62.82 15.64C63.07 13.74 64.13 12.65 65.5 11.43C65.68 11.27 65.89 11.15 66.19 10.97C66.25 10.93 66.32 10.89 66.39 10.85C66.38 10.94 66.37 11.03 66.36 11.12C66.33 11.48 66.3 11.77 66.24 12.04C65.63 14.87 65.02 17.79 64.36 20.64C64.27 21.03 64.29 21.3 64.43 21.51C64.61 21.78 64.95 21.88 65.19 21.92C65.36 21.95 65.53 21.97 65.7 21.97C66.77 21.97 67.63 21.3 67.9 20.27C68.07 19.6 68.22 18.91 68.36 18.25C68.48 17.66 68.62 17.05 68.76 16.46C68.82 16.2 69.03 15.92 69.13 15.89C69.79 15.73 70.47 15.62 71.19 15.51C71.37 15.48 71.56 15.45 71.74 15.42C71.69 15.7 71.64 15.98 71.58 16.26C71.43 17.08 71.28 17.85 71.19 18.64C71.08 19.64 71.32 20.54 71.88 21.16C72.34 21.67 72.98 21.95 73.7 21.95C73.92 21.95 74.15 21.92 74.38 21.87C75.2 21.68 75.95 21.24 76.69 20.81C76.94 20.66 77.19 20.52 77.44 20.38C77.67 20.26 77.85 20.07 78.04 19.88C78.06 19.85 78.09 19.83 78.12 19.8C78.74 21.19 79.69 21.95 80.82 21.95C81.07 21.95 81.33 21.91 81.6 21.84C82.53 21.58 83.38 21.04 84.2 20.51C84.48 20.33 84.77 20.14 85.06 19.97C85.62 21.32 86.42 21.97 87.5 21.97C87.97 21.97 88.49 21.85 89.08 21.6C89.68 21.34 90.23 20.96 90.76 20.6C90.97 20.46 91.18 20.31 91.39 20.17C91.56 20.06 91.71 19.94 91.88 19.8C91.89 19.79 91.91 19.78 91.92 19.77C92.53 21.16 93.47 21.93 94.61 21.93C94.8 21.93 95 21.91 95.21 21.86C96.11 21.67 96.94 21.19 97.75 20.74C97.95 20.62 98.16 20.51 98.37 20.39C98.21 20.85 98.05 21.31 97.89 21.78C97.38 23.27 96.85 24.81 96.35 26.36C95.78 28.16 94.54 29.18 92.34 29.64C90.71 29.99 89.03 30.16 87.35 30.16C85.38 30.16 83.34 29.92 81.31 29.44C72.4 27.35 62.99 26.33 52.56 26.33C48.81 26.33 44.83 26.47 40.74 26.73C36.57 27 32.27 27.14 27.96 27.14C22.54 27.14 16.89 26.92 11.16 26.49C9.27 26.35 7.4 26.18 5.43 26C4.52 25.92 3.6 25.83 2.66 25.75L2.01 25.69L2.51 26.11C2.83 26.38 3.16 26.65 3.48 26.92C5.92 28.92 8.22 30.81 8.58 34.18L8.6 34.4L8.82 34.36C9.43 34.26 10.03 34.16 10.63 34.06C11.89 33.85 13.19 33.63 14.47 33.45C17.17 33.09 19.86 32.71 22.55 32.34C29.29 31.4 36.26 30.43 43.14 29.69C46.09 29.37 49.11 29.22 52.4 29.22C60.27 29.22 68.24 30.14 75.95 31.02L76.54 31.09C77.34 31.18 78.14 31.28 78.93 31.37C82.55 31.8 86.3 32.24 89.99 32.4C90.33 32.42 90.67 32.42 90.99 32.42C96.25 32.42 98.82 30.39 100.45 24.95C101.31 22.09 101.96 19.11 102.58 16.23C102.87 14.91 103.17 13.54 103.48 12.2C103.66 11.43 103.86 10.66 104.05 9.89L104.32 8.83L104.33 8.81V8.78V8.58V8.46L104.23 8.4C103.77 8.12 103.3 7.97 102.82 7.97C102.35 7.97 101.87 8.1 101.37 8.38C101.25 8.44 101.08 8.49 100.94 8.49C100.87 8.49 100.81 8.48 100.76 8.46C99.84 8.08 99.01 7.9 98.22 7.9C96.71 7.9 95.37 8.58 94.15 9.99C92.42 11.98 91.54 14.34 91.56 17.02C91.57 17.99 91.19 18.49 90.28 18.76C89.98 18.85 89.66 18.9 89.39 18.9C89.12 18.9 88.92 18.85 88.79 18.76C88.61 18.63 88.53 17.96 88.63 17.43C88.99 15.5 89.41 13.54 89.81 11.65C89.95 11 90.09 10.35 90.22 9.69C90.36 9 90.33 8.56 90.1 8.29C89.92 8.07 89.64 7.97 89.22 7.97C89.05 7.97 88.85 7.99 88.61 8.03C88.39 8.06 88.19 8.16 87.99 8.24C87.84 8.31 87.71 8.37 87.57 8.41C87.43 8.45 87.26 8.49 87.1 8.49C87.02 8.49 86.96 8.48 86.91 8.46C86.06 8.1 85.24 7.91 84.46 7.91C83.06 7.91 81.78 8.5 80.65 9.67C78.7 11.69 77.72 14.18 77.73 17.08C77.73 18.06 77.36 18.56 76.44 18.8C76.25 18.85 75.89 18.93 75.55 18.93C75.26 18.93 75.12 18.87 75.05 18.81C74.84 18.64 74.74 17.99 74.83 17.49C75.17 15.67 75.56 13.84 75.94 12.06C76.1 11.29 76.27 10.52 76.43 9.75C76.57 9.1 76.51 8.63 76.27 8.33C76.08 8.09 75.78 7.97 75.38 7.97C75.17 7.97 74.93 8 74.67 8.07C73.77 8.28 73.19 8.87 72.99 9.77C72.91 10.12 72.83 10.48 72.76 10.83C72.61 11.51 72.46 12.21 72.29 12.89C72.22 13.16 72.09 13.4 72.03 13.44C71.35 13.53 70.63 13.58 69.87 13.63C69.69 13.64 69.51 13.65 69.33 13.67L69.55 12.62C69.75 11.7 69.93 10.86 70.1 10.01C70.25 9.31 70.18 8.77 69.89 8.43C69.66 8.15 69.3 8 68.82 8C68.63 8 68.41 8.02 68.18 8.07C67.71 8.17 67.03 8.37 66.45 8.78C65.78 9.26 65.13 9.8 64.51 10.32C64.22 10.56 63.93 10.8 63.64 11.04C63.38 11.25 63.12 11.45 62.86 11.65L62.66 11.81C61.83 11.03 61.25 10.73 60.58 10.73C60.45 10.73 60.31 10.74 60.17 10.76C59.26 10.9 58.72 11.45 58.63 12.32C58.56 12.96 58.47 13.92 59.67 14.17C59.8 14.2 60.05 14.48 60.07 14.65C60.24 16.44 59.64 17.85 58.31 18.87C57.97 19.13 57.62 19.26 57.29 19.26C56.73 19.26 56.31 18.87 56.13 18.19C55.88 17.26 55.8 16.2 55.9 15.21C56.08 13.42 56.76 11.97 57.92 10.92C58.41 10.47 58.96 10.27 59.65 10.27C60.18 10.27 60.72 10.39 61.23 10.53C61.27 10.54 61.31 10.54 61.35 10.54C61.63 10.54 61.99 10.34 62.11 10.11C62.25 9.86 62.19 9.32 61.94 9.15C61.84 9.08 61.75 9.01 61.65 8.94C61.14 8.57 60.62 8.18 60.02 8.04C59.62 7.94 59.22 7.9 58.83 7.9C57.42 7.9 56.11 8.53 54.95 9.76C53.01 11.82 52.04 14.36 52.05 17.28C52.05 17.67 51.87 18.07 51.55 18.39C51.14 18.8 50.56 19.04 49.99 19.04C49.94 19.04 49.88 19.04 49.83 19.03C49.58 19.01 49.41 18.94 49.31 18.82C49.12 18.59 49.09 18.1 49.2 17.27L49.41 15.65C49.68 13.58 49.96 11.44 50.3 9.34C50.37 8.91 50.33 8.61 50.16 8.39C49.95 8.12 49.6 8.04 49.27 8C49.15 7.98 49.04 7.98 48.93 7.98C47.7 7.98 47.06 8.88 46.68 9.57C45.93 10.93 45.18 12.29 44.44 13.65L43.22 15.88C43.1 16.1 42.98 16.31 42.85 16.52C42.78 16.32 42.77 16.14 42.76 15.96C42.73 15.29 42.71 14.63 42.69 13.97C42.63 12.39 42.57 10.76 42.49 9.16C42.48 8.89 42.24 8.12 41.88 8.1C41.52 8.08 41.16 8.06 40.8 8.03C40.11 7.98 39.4 7.93 38.7 7.93C38.02 7.93 37.43 7.98 36.9 8.07C36.17 8.2 35.61 8.65 35.38 9.31C35.13 10.02 35.3 10.82 35.82 11.41L35.92 11.52L36.06 11.47L38.04 10.7L38.78 10.41L38.84 10.5C38.58 11.21 38.36 11.95 38.15 12.66C37.45 14.98 36.73 17.37 34.72 19.17C34.71 19.16 34.71 19.14 34.71 19.13C34.78 18.77 34.86 18.36 34.93 17.97L35 17.68L35.03 17.54L34.91 17.46C34.45 17.17 34.01 17.03 33.59 17.03C32.95 17.03 32.39 17.37 31.95 18C31.91 18.06 31.86 18.13 31.82 18.19C31.67 18.42 31.52 18.66 31.33 18.78C31.15 18.89 30.9 18.97 30.7 18.97C30.63 18.97 30.57 18.96 30.52 18.94C30.43 18.91 30.25 18.59 30.24 18.31C30.21 17.88 30.29 17.44 30.39 16.98L30.56 16.14C31.02 13.94 31.49 11.67 31.99 9.44C32.09 9.02 32.06 8.71 31.9 8.48C31.69 8.18 31.29 8.1 31.01 8.07C30.88 8.05 30.76 8.05 30.63 8.05C29.43 8.05 28.55 8.79 28.28 10.01C28.03 11.15 27.79 12.29 27.55 13.43C27.32 14.54 27.08 15.66 26.84 16.77C26.65 17.66 25.54 18.56 24.65 18.56C24.53 18.56 24.42 18.54 24.32 18.51C23.49 18.24 23.59 17.75 23.83 16.99C23.88 16.82 23.94 16.64 23.97 16.47C24.23 15.12 24.52 13.76 24.81 12.45C24.99 11.61 25.18 10.77 25.36 9.92C25.49 9.31 25.41 8.82 25.15 8.49C24.93 8.22 24.58 8.07 24.14 8.07C24.02 8.07 23.88 8.08 23.74 8.1C23 8.22 22.18 8.54 21.38 9.03C21.07 9.22 20.9 9.58 20.73 9.93C20.66 10.07 20.6 10.21 20.52 10.34L20.4 10.54L20.62 10.63L21.44 10.99L21.56 11.04C21.57 11.14 21.57 11.26 21.55 11.36C21.13 13.35 20.65 15.6 20.16 17.81C20.04 18.36 18.84 19.05 18.01 19.05C17.85 19.05 17.72 19.02 17.64 18.97C17.46 18.86 17.27 18.57 17.23 18.33C17.17 17.99 17.24 17.59 17.32 17.22L17.57 16.03C18.36 12.28 19.18 8.41 20.03 4.6C20.1 4.29 20.29 4 20.48 3.69C20.61 3.49 20.74 3.29 20.84 3.07C21.01 2.71 21.16 2.33 21.12 1.96C21.07 1.57 20.14 1.48 20.13 1.48C19.47 1.44 18.8 1.41 18.16 1.39C17.69 1.37 17.21 1.36 16.74 1.34C16.09 1.31 15.44 1.26 14.79 1.21C13.73 1.14 12.62 1.06 11.53 1.06ZM95.17 17C95.27 15.3 95.51 13.51 96.52 11.94C97.24 10.82 98.16 10.28 99.33 10.28C99.44 10.28 99.56 10.29 99.68 10.3C99.98 10.32 100.14 10.38 100.2 10.47C100.26 10.56 100.27 10.73 100.21 10.98C99.93 12.19 99.68 13.43 99.44 14.63C99.29 15.37 99.14 16.1 98.99 16.84C98.79 17.77 97.54 18.84 96.65 18.84C96.61 18.84 96.58 18.84 96.54 18.83C96.13 18.79 95.63 18.38 95.34 17.99C95.2 17.8 95.19 17.47 95.19 17.23C95.18 17.14 95.18 17.06 95.17 17ZM82.63 18.87C82.31 18.87 82.04 18.77 81.84 18.57C81.52 18.24 81.35 17.63 81.36 16.81C81.46 15.24 81.71 13.42 82.79 11.83C83.49 10.81 84.41 10.29 85.52 10.29C85.65 10.29 85.78 10.3 85.92 10.31C86.17 10.34 86.32 10.39 86.39 10.48C86.45 10.57 86.46 10.73 86.4 10.97C86.13 12.13 85.89 13.32 85.66 14.46C85.5 15.25 85.33 16.05 85.16 16.84C84.96 17.78 83.65 18.85 82.66 18.88L82.63 18.87Z" fill="white"/>
</svg>
