<svg width="81" height="67" viewBox="0 0 81 67" fill="none" xmlns="http://www.w3.org/2000/svg">
<path d="M68.63 24.41L76.38 23.04L76.76 20.14L72.63 20.87L73.43 14.81L77.16 14.15L77.55 11.22L73.82 11.88L74.56 6.28L78.7 5.55L79.08 2.65L71.33 4.02L68.63 24.41ZM63.02 20.97L62.96 20.98L63.55 5.38L59.91 6.03L59.88 25.96L64.94 25.06L70.29 4.18L66.65 4.83L63.02 20.97ZM73.59 48.11L21.34 57.92L73.4 49.28L73.59 48.11ZM44.98 11.51L47.61 11.04L45.3 28.54L48.91 27.9L51.22 10.4L53.88 9.93L54.26 7.03L45.36 8.61L44.98 11.51ZM55.22 6.86L52.53 27.26L56.14 26.62L58.83 6.22L55.22 6.86ZM28.42 14.87L28.39 17.49L28.16 25.19L25.76 25.62L27.58 17.64L28.25 14.91L28.42 14.87ZM20.82 36.21L14.98 66.73L22.55 41.62L28.47 46.14L35.78 20.77L34.05 30.18C34.54 30.41 35.15 30.48 35.86 30.35L38.52 29.88C40.54 29.52 42.18 27.83 42.44 25.82L43.06 21.08L39.45 21.72L38.88 26C38.8 26.63 38.4 27.07 37.77 27.18L37.34 27.26C36.73 27.37 36.44 27.06 36.52 26.42L38.22 13.54C38.3 12.91 38.7 12.47 39.31 12.36L39.74 12.28C40.38 12.17 40.67 12.48 40.59 13.11L40.1 16.85L43.71 16.21L44.26 12.01C44.52 9.99999 43.27 8.82 41.25 9.18L38.59 9.65C36.6 10 34.93 11.7 34.67 13.72L32.89 27.19L31.52 30.23L31.66 11.02L25.91 12.04L20.64 32.92L24.23 32.28L25.09 28.51L28.07 27.98L27.96 31.62L31.16 31.05L26.94 40.43L20.82 36.21ZM14.75 14.04L12.06 34.44L19.81 33.07L20.19 30.17L16.06 30.9L16.86 24.84L20.59 24.18L20.98 21.25L17.25 21.91L17.99 16.31L22.12 15.58L22.5 12.68L14.75 14.04ZM9.08999 18.83L8.52999 23.05C8.44999 23.65 8.02999 24.09 7.38999 24.21L5.99999 24.46L6.81999 18.28L8.20999 18.03C8.83999 17.92 9.16999 18.23 9.08999 18.83ZM9.71999 14.93L3.58999 16.02L0.899994 36.43L4.50999 35.79L5.61999 27.37L7.00999 27.12C7.64999 27.01 7.96999 27.31 7.88999 27.92L6.90999 35.36L10.52 34.72L11.42 27.91C11.63 26.33 10.98 25.43 9.64999 25.31C11.01 24.62 12.03 23.32 12.24 21.76L12.77 17.77C13.03 15.75 11.74 14.57 9.71999 14.93ZM3.67999 14.23L79.07 0.729996L3.96999 12.7L3.67999 14.23Z" fill="white"/>
<path d="M68.47 53.41C68.65 53.43 69.09 53.78 69.57 54.5L70.12 54.4C69.64 53.68 69.2 53.33 69.06 53.27C69.25 53.14 69.8 52.65 70.54 51.89L70 51.99C69.29 52.74 68.7 53.26 68.47 53.41ZM63.65 53.12L63.12 55.64L63.55 55.56L63.98 53.48C64.35 54.08 64.7 54.7 64.99 55.31L65.52 55.22L66.05 52.7L65.62 52.78L65.21 54.76C64.92 54.17 64.58 53.57 64.23 53.03L63.65 53.12ZM60.99 53.59L60.46 56.11L60.89 56.03L61.42 53.51L60.99 53.59ZM56.79 55.47L56.97 54.6L57.91 54.43C58.18 54.38 58.3 54.51 58.24 54.8C58.18 55.07 57.99 55.25 57.71 55.3L56.79 55.47ZM56.61 54.36L56.08 56.88L56.51 56.8L56.72 55.77L57.21 55.68C57.42 55.64 57.68 55.91 58.01 56.53L58.55 56.43C58.2 55.83 57.96 55.52 57.76 55.5C58.38 55.38 58.65 55.03 58.72 54.68C58.8 54.28 58.69 53.98 58.04 54.09L56.61 54.36ZM52.08 57.29L52.48 55.4L53.05 55.3C53.76 55.18 53.98 55.26 53.81 56.07C53.65 56.84 53.36 57.07 52.65 57.19L52.08 57.29ZM52.11 55.16L51.58 57.68L52.61 57.5C53.55 57.33 54.06 56.96 54.26 55.98C54.46 55 54.07 54.81 53.13 54.97L52.11 55.16ZM44.93 56.43C45.24 56.77 45.57 57.19 45.86 57.59L45.62 58.74L46.05 58.66L46.29 57.51C46.8 56.99 47.31 56.43 47.76 55.93L47.24 56.02C46.92 56.39 46.54 56.81 46.16 57.21C45.94 56.9 45.71 56.59 45.48 56.33L44.93 56.43ZM40.65 58.38C40.44 59.41 40.82 59.64 41.75 59.47C42.05 59.42 42.5 59.31 42.75 59.2L43.04 57.83L41.89 58.03L41.83 58.34L42.54 58.21L42.38 58.99C42.27 59.03 42.06 59.09 41.88 59.12C41.18 59.24 40.95 59.14 41.13 58.29C41.31 57.44 41.59 57.27 42.31 57.15C42.53 57.11 42.86 57.08 43.02 57.11L43.19 56.76C42.97 56.75 42.61 56.77 42.34 56.82C41.39 57 40.86 57.35 40.65 58.38ZM36.87 59L37.05 58.13L37.99 57.96C38.26 57.91 38.38 58.04 38.32 58.33C38.26 58.6 38.07 58.78 37.79 58.83L36.87 59ZM36.69 57.89L36.16 60.41L36.59 60.33L36.8 59.3L37.29 59.21C37.5 59.17 37.76 59.44 38.09 60.06L38.64 59.96C38.29 59.36 38.04 59.05 37.85 59.03C38.47 58.91 38.74 58.56 38.81 58.21C38.89 57.81 38.78 57.51 38.13 57.62L36.69 57.89ZM32.64 58.6L32.11 61.12L34.21 60.75L34.27 60.44L32.6 60.73L32.78 59.87L33.96 59.66L34.02 59.35L32.84 59.56L33 58.84L34.67 58.55L34.74 58.23L32.64 58.6ZM28 59.42L27.47 61.94L27.9 61.86L28.33 59.78C28.7 60.38 29.04 61 29.34 61.61L29.87 61.52L30.4 59L29.97 59.08L29.56 61.06C29.27 60.47 28.93 59.87 28.59 59.33L28 59.42ZM23.95 60.14L23.42 62.66L25.52 62.29L25.58 61.98L23.91 62.27L24.09 61.41L25.28 61.2L25.34 60.89L24.16 61.1L24.31 60.38L25.98 60.08L26.05 59.76L23.95 60.14ZM18.02 37.67L18.46 34.49L10.18 35.96L7.07999 58.24L15.36 56.77L15.8 53.59L11.38 54.37L12.3 47.74L16.28 47.04L16.72 43.86L12.74 44.57L13.59 38.45L18.02 37.67ZM30.09 51.74L35.78 20.78L28.47 46.15L22.55 41.62L14.98 66.73L24.16 47.01L30.09 51.74ZM43.15 33.22L43.59 30.04L35.31 31.51L32.21 53.79L40.49 52.32L40.93 49.14L36.51 49.92L37.43 43.29L41.41 42.59L41.85 39.41L37.87 40.12L38.72 34L43.15 33.22ZM51.22 32.59C51.22 32.66 51.21 32.74 51.2 32.83L50.57 37.45C50.48 38.11 50.03 38.58 49.35 38.7L47.88 38.96L48.82 32.22L50.3 31.96C50.89 31.85 51.22 32.08 51.22 32.59ZM55.15 31.66C55.18 31.46 55.19 31.26 55.19 31.07C55.19 29.25 53.9 28.22 51.94 28.56L45.38 29.72L42.28 52L46.15 51.31L47.43 42.12L48.92 41.86C49.53 41.75 49.84 42 49.84 42.52C49.84 42.58 49.83 42.65 49.82 42.73L48.69 50.86L52.56 50.18L53.59 42.76C53.63 42.52 53.64 42.3 53.64 42.09C53.64 40.77 52.96 40.04 51.71 39.92C53.19 39.16 54.3 37.71 54.53 36.03L55.15 31.66ZM67.37 29.34C67.4 29.14 67.41 28.94 67.41 28.76C67.41 26.95 66.1 25.91 64.13 26.25L61.28 26.75C59.14 27.13 57.36 28.99 57.07 31.16L54.97 46.25C54.94 46.45 54.93 46.65 54.93 46.83C54.93 48.64 56.21 49.69 58.16 49.35L59.48 49.12C61.04 48.84 62.02 48.04 62.6 46.83L62.78 48.38L64.77 48.03L66.44 35.91L61.15 36.85L60.73 40.02L62.35 39.73L61.68 44.57C61.58 45.26 61.15 45.72 60.49 45.84L59.79 45.96C59.22 46.06 58.89 45.83 58.89 45.31C58.89 45.23 58.9 45.15 58.91 45.07L60.86 30.99C60.97 30.3 61.4 29.84 62.06 29.72L62.51 29.64C63.11 29.54 63.43 29.77 63.43 30.29C63.43 30.37 63.42 30.45 63.41 30.54L62.95 33.83L66.82 33.17L67.37 29.34ZM68.19 54.74L68.72 52.22L68.29 52.3L67.76 54.82L68.19 54.74ZM80.44 23.52L76.51 24.22L73.42 34.79L73.34 34.8L73.13 24.82L69.2 25.52L70.74 40.18L69.77 47.15L73.64 46.47L74.61 39.5L80.44 23.52Z" fill="white"/>
</svg>
