<svg width="87" height="42" viewBox="0 0 87 42" fill="none" xmlns="http://www.w3.org/2000/svg">
<path d="M83.01 33.71V34.46C83.01 34.66 82.99 34.85 82.95 35.04C82.94 35.06 82.95 35.08 82.94 35.11C82.92 35.22 82.88 35.31 82.85 35.41C82.7 35.91 82.44 36.36 82.07 36.72C81.49 37.3 80.7 37.66 79.81 37.66C78.92 37.66 78.13 37.31 77.55 36.72C76.97 36.13 76.62 35.35 76.62 34.46V33.71V29.78V28.74V27.99C76.62 27.79 76.64 27.6 76.68 27.41C76.69 27.39 76.68 27.36 76.69 27.34C76.71 27.23 76.75 27.14 76.78 27.04C76.93 26.54 77.2 26.09 77.56 25.73C78.14 25.15 78.93 24.79 79.82 24.79C80.71 24.79 81.5 25.15 82.08 25.73C82.66 26.32 83.01 27.1 83.01 27.99V28.74V32.67V33.71ZM84.85 22.94C83.57 21.65 81.77 20.85 79.81 20.85C79.54 20.85 79.27 20.87 79.01 20.9C78.95 20.91 78.88 20.92 78.82 20.93C78.61 20.96 78.41 20.99 78.2 21.04C78.15 21.05 78.1 21.07 78.05 21.08C77.83 21.14 77.61 21.2 77.4 21.28C77.37 21.29 77.35 21.3 77.32 21.31C77.08 21.4 76.84 21.5 76.62 21.61C75.93 21.95 75.3 22.4 74.77 22.94C73.48 24.23 72.68 26.02 72.68 27.99V28.86V30.7V34.46C72.68 36.42 73.48 38.22 74.77 39.5C76.06 40.79 77.85 41.59 79.81 41.59C80.08 41.59 80.35 41.57 80.61 41.54C80.67 41.53 80.73 41.52 80.8 41.51C81.01 41.48 81.21 41.44 81.41 41.4C81.46 41.39 81.51 41.37 81.56 41.36C81.78 41.3 82 41.24 82.21 41.16C82.24 41.15 82.26 41.14 82.29 41.13C82.53 41.04 82.76 40.94 82.99 40.83C83.68 40.48 84.31 40.04 84.84 39.5C86.13 38.22 86.93 36.42 86.93 34.46V30.7V28.86V27.99C86.94 26.03 86.14 24.23 84.85 22.94Z" fill="white"/>
<path d="M48.92 15.78C44.13 15.78 41.83 19.45 41.6 23.06H40.27C39.14 23.06 38.22 23.98 38.22 25.11C38.22 26.25 39.14 27.17 40.27 27.17H41.58V39.76C41.58 40.89 42.5 41.81 43.64 41.81C44.77 41.81 45.69 40.89 45.69 39.76V27.17H47.07C48.21 27.17 49.13 26.25 49.13 25.11C49.13 23.98 48.21 23.06 47.07 23.06H45.72C45.84 21.89 46.42 19.89 48.92 19.89C50.05 19.89 50.97 18.97 50.97 17.84C50.97 16.7 50.05 15.78 48.92 15.78Z" fill="white"/>
<path d="M69.14 37.71C66.14 37.71 65.91 34.84 65.91 33.96V27.17H67.29C68.42 27.17 69.35 26.25 69.35 25.12C69.35 23.99 68.43 23.06 67.29 23.06H65.91V17.84C65.91 16.71 64.99 15.79 63.86 15.79C62.72 15.79 61.8 16.71 61.8 17.84V23.06H60.49C59.36 23.06 58.44 23.98 58.44 25.12C58.44 26.26 59.36 27.17 60.49 27.17H61.8V33.96C61.8 37.75 64.1 41.82 69.14 41.82C70.27 41.82 71.19 40.9 71.19 39.77C71.2 38.63 70.28 37.71 69.14 37.71Z" fill="white"/>
<path d="M53.92 23.32C52.78 23.32 51.86 24.24 51.86 25.37V39.76C51.86 40.89 52.78 41.81 53.92 41.81C55.05 41.81 55.97 40.89 55.97 39.76V25.38C55.98 24.24 55.06 23.32 53.92 23.32Z" fill="white"/>
<path d="M53.92 18.46C52.78 18.46 51.86 19.39 51.86 20.52C51.86 21.65 52.78 22.57 53.92 22.57C55.05 22.57 55.97 21.65 55.97 20.52V20.5C55.98 19.37 55.06 18.46 53.92 18.46Z" fill="white"/>
<path d="M17.28 34.46C17.28 35.35 16.92 36.14 16.34 36.72C15.76 37.3 14.97 37.65 14.08 37.66C13.19 37.66 12.4 37.3 11.82 36.72C11.24 36.14 10.89 35.35 10.89 34.46V27.99C10.89 27.1 11.24 26.31 11.82 25.73C12.41 25.15 13.19 24.79 14.08 24.79C14.97 24.79 15.76 25.15 16.34 25.73C16.92 26.31 17.28 27.1 17.28 27.99V34.46V34.46ZM19.25 15.8C18.16 15.8 17.28 16.68 17.28 17.77V21.62C16.32 21.14 15.23 20.86 14.08 20.86C12.12 20.86 10.32 21.66 9.04 22.95C7.75 24.23 6.95 26.03 6.95 27.99V34.46C6.95 36.42 7.75 38.22 9.04 39.5C10.33 40.79 12.12 41.59 14.08 41.59C16.04 41.59 17.84 40.79 19.12 39.5C20.41 38.22 21.21 36.42 21.21 34.46V27.99V17.77C21.22 16.68 20.34 15.8 19.25 15.8Z" fill="white"/>
<path d="M33.26 28.74H26.87V27.99C26.87 27.1 27.22 26.31 27.81 25.73C28.39 25.15 29.18 24.79 30.07 24.79C30.96 24.79 31.75 25.15 32.33 25.73C32.91 26.32 33.27 27.1 33.27 27.99V28.74H33.26ZM30.07 20.86C28.11 20.86 26.31 21.66 25.02 22.95C23.73 24.24 22.93 26.03 22.93 28V30.71C22.93 31.8 23.81 32.68 24.9 32.68H35.23C36.32 32.68 37.2 31.8 37.2 30.71V28C37.2 26.04 36.4 24.24 35.11 22.95C33.82 21.66 32.03 20.85 30.07 20.86Z" fill="white"/>
<path d="M35.59 34.64C34.59 34.22 33.44 34.69 33.02 35.69C32.78 36.26 32.37 36.76 31.86 37.1C31.35 37.45 30.74 37.65 30.07 37.65C29.4 37.65 28.79 37.45 28.28 37.1C27.77 36.75 27.36 36.26 27.12 35.69C26.7 34.69 25.55 34.22 24.54 34.64C23.54 35.06 23.07 36.21 23.49 37.21C24.03 38.5 24.93 39.59 26.07 40.36C27.21 41.13 28.6 41.59 30.07 41.59C31.54 41.59 32.93 41.14 34.07 40.36C35.21 39.59 36.11 38.5 36.65 37.21C37.06 36.22 36.59 35.06 35.59 34.64Z" fill="white"/>
<path d="M33.54 10.96H23.88C25.41 7.39003 28.96 4.88003 33.09 4.88003H42.75C41.22 8.45003 37.67 10.96 33.54 10.96ZM33.09 0.940033C25.38 0.940033 19.14 7.19003 19.14 14.89H33.54C41.25 14.89 47.49 8.64003 47.49 0.940033H33.09V0.940033Z" fill="white"/>
<path d="M9.92 5.68002H0.400002C0.400002 10.77 4.53 14.9 9.62 14.9H19.14C19.14 9.80002 15.01 5.68002 9.92 5.68002Z" fill="white"/>
</svg>
