<svg width="106" height="37" viewBox="0 0 106 37" fill="none" xmlns="http://www.w3.org/2000/svg">
<path d="M9.23 35.1C9.21 34.94 9.19 34.77 9.15 34.59L8.44 34.71L8.39 34.27C8.21 32.57 7.5 31.1 6.15 29.64C5.55 29.08 4.89 28.54 4.2 27.97C3.88 27.7 3.56 27.44 3.24 27.17L2.24 26.32L2.41 26.33L1.41 25.48L5.51 25.84C7.45 26.01 9.33 26.19 11.22 26.33C16.93 26.76 22.58 26.98 27.99 26.98C32.3 26.98 36.59 26.84 40.76 26.57C44.86 26.3 48.84 26.16 52.59 26.16C63.04 26.16 72.46 27.18 81.39 29.27C83.41 29.75 85.43 29.98 87.38 29.98C89.04 29.98 90.71 29.81 92.33 29.46C94.45 29.01 95.64 28.04 96.18 26.32C96.59 25.01 97.04 23.7 97.48 22.43C97.04 22.64 96.59 22.81 96.11 22.92C95.89 22.97 95.68 22.99 95.47 22.99C94.55 22.99 93.74 22.53 93.13 21.67C92.9 21.51 92.7 21.33 92.51 21.11C92.46 21.14 92.42 21.17 92.37 21.2C92.16 21.33 91.95 21.48 91.75 21.62C91.21 21.99 90.65 22.38 90.03 22.64C89.42 22.9 88.88 23.03 88.39 23.03C87.51 23.03 86.79 22.62 86.24 21.82C86.02 21.68 85.81 21.49 85.62 21.26C85.48 21.35 85.34 21.44 85.19 21.53C84.36 22.07 83.49 22.62 82.53 22.89C82.25 22.97 81.97 23.01 81.7 23.01C80.78 23.01 79.96 22.55 79.34 21.68C79.13 21.54 78.94 21.36 78.76 21.17C78.65 21.27 78.54 21.35 78.41 21.42C78.16 21.55 77.92 21.7 77.67 21.84C76.92 22.28 76.15 22.73 75.3 22.92C75.05 22.98 74.81 23 74.57 23C73.63 23 72.81 22.55 72.32 21.76C71.36 21.16 70.87 19.97 71.02 18.62C71.09 17.97 71.2 17.33 71.33 16.67C70.89 16.74 70.46 16.82 70.04 16.92C70 16.95 69.87 17.15 69.82 17.33C69.67 17.92 69.54 18.52 69.42 19.12C69.28 19.8 69.13 20.47 68.96 21.14C68.67 22.27 67.72 23 66.56 23C66.38 23 66.2 22.98 66.01 22.95C65.41 22.84 65.07 22.54 64.99 22.07C64.74 22 64.46 21.88 64.28 21.61C64.06 21.27 64.11 20.86 64.18 20.58C64.75 18.07 65.3 15.51 65.84 13.01C64.8 14.01 64.08 14.97 63.88 16.49C63.59 18.72 62.17 20.66 59.78 22.12C58.82 22.7 57.89 23 57.02 23C55.78 23 54.65 22.41 53.65 21.24C53.54 21.15 53.43 21.06 53.32 20.95C53.07 21.17 52.81 21.39 52.51 21.56L52.07 21.82C51.4 22.22 50.7 22.63 49.93 22.85C49.58 22.95 49.23 23 48.89 23C47.92 23 47.11 22.56 46.63 21.78C45.79 21.28 45.33 20.34 45.34 19.17C45.34 18.96 45.35 18.74 45.36 18.53C44.77 19.67 44.18 20.8 43.61 21.95C43.25 22.67 42.76 23.02 42.1 23.02C41.95 23.02 41.79 23 41.62 22.96C41.02 22.82 40.6 22.48 40.39 21.97C39.76 21.68 39.41 21.11 39.41 20.33V17.57C38.97 18.55 38.51 19.54 38.02 20.5C37.69 21.15 37.13 21.68 36.62 22.13C35.91 22.74 35.31 23.03 34.73 23.03C34.14 23.03 33.61 22.74 33.09 22.12C32.8 22.2 32.51 22.29 32.23 22.38C31.37 22.64 30.56 22.89 29.71 22.91C28.8 22.91 28.13 22.53 27.72 21.8C27.46 21.66 27.24 21.47 27.06 21.23L26.98 21.29C26.21 21.87 25.41 22.47 24.5 22.85C24.17 22.99 23.86 23.06 23.56 23.06C22.62 23.06 21.95 22.36 21.51 21.81C21.31 21.67 21.12 21.49 20.91 21.26C20.7 21.43 20.48 21.59 20.26 21.73L20.02 21.88C19.56 22.18 19.07 22.49 18.54 22.7C17.98 22.92 17.44 23.03 16.93 23.03C15.91 23.03 15.06 22.58 14.56 21.79C13.52 21.16 13.06 19.87 13.33 18.32C13.58 16.88 13.9 15.43 14.2 14.03C14.33 13.43 14.46 12.83 14.59 12.23L16.3 4.1C16.22 4.22 16.12 4.48 15.96 5.03C14.77 9.02 13.42 13.55 11.29 17.66C10.7 18.81 9.96 19.84 9.13 20.97C8.81 21.41 8.35 21.82 7.68 22.26C6.92 22.76 6.21 23.01 5.55 23.01C4.71 23.01 3.98 22.59 3.45 21.81C2.8 21.41 2.32 20.7 2.01 19.7C2 19.67 1.97 19.61 1.93 19.56L1.8 19.36V17.54L1.86 17.44C2.67 16.07 3.62 15.78 4.27 15.78C4.8 15.78 5.35 15.96 5.9 16.33L6.13 16.48L6.07 16.82C6.29 16.91 6.52 17.02 6.73 17.17L6.96 17.32L6.89 17.73C6.99 17.59 7.09 17.44 7.19 17.3C8.06 16.06 8.96 14.77 9.53 13.39C10.26 11.65 10.92 9.85 11.55 8.06C11.16 8.22 10.76 8.3 10.38 8.3C9.53 8.3 8.82 7.89 8.4 7.17C7.71 6.78 7.26 6.03 7.18 5.09C7.07 3.89 7.37 2.8 8.03 2.04C8.65 1.32 9.56 0.909997 10.65 0.859997C10.95 0.839997 11.25 0.839996 11.54 0.839996C12.64 0.839996 13.75 0.929996 14.83 1.01C15.48 1.06 16.12 1.11 16.77 1.14C17.24 1.16 17.7 1.18 18.17 1.19C18.84 1.21 19.5 1.24 20.17 1.28C20.21 1.28 21.29 1.36 21.36 1.94C21.37 2.01 21.37 2.09 21.37 2.17C21.7 2.24 22.15 2.41 22.2 2.78C22.25 3.2 22.09 3.61 21.9 4C21.8 4.22 21.66 4.43 21.53 4.65C21.34 4.94 21.17 5.22 21.1 5.5C20.25 9.28 19.44 13.14 18.66 16.86L18.4 18.11C18.35 18.35 18.3 18.6 18.29 18.83C19.01 18.72 19.91 18.14 19.99 17.77C20.45 15.73 20.88 13.68 21.32 11.63L20.96 11.47L21.19 11.09L20.19 10.66L20.38 10.22C20.45 10.1 20.52 9.96 20.58 9.83C20.75 9.47 20.95 9.06 21.31 8.84C22.14 8.33 22.98 8 23.74 7.88C23.89 7.86 24.03 7.84 24.17 7.84C24.88 7.84 25.38 8.18 25.58 8.77C25.85 8.86 26.08 9.03 26.24 9.25C26.5 9.62 26.57 10.15 26.44 10.77C26.26 11.62 26.08 12.46 25.89 13.3C25.6 14.62 25.3 15.98 25.05 17.32C25.02 17.49 24.96 17.68 24.9 17.86C24.85 18.02 24.8 18.18 24.77 18.33C25.55 18.28 26.51 17.47 26.68 16.71C26.92 15.6 27.16 14.49 27.39 13.37C27.63 12.23 27.87 11.09 28.12 9.95C28.41 8.64 29.38 7.82 30.67 7.82C30.8 7.82 30.93 7.83 31.07 7.84C31.87 7.94 32.16 8.33 32.24 8.74C32.49 8.81 32.76 8.93 32.93 9.18C33.12 9.46 33.16 9.83 33.05 10.3C32.54 12.51 32.08 14.77 31.62 16.96L31.44 17.83C31.39 18.06 31.35 18.29 31.32 18.51C31.44 18.4 31.56 18.22 31.67 18.05L31.8 17.85C32.27 17.16 32.9 16.79 33.61 16.79C34.07 16.79 34.55 16.95 35.04 17.25L35.28 17.4L35.21 17.76C35.35 17.81 35.49 17.87 35.62 17.94C36.84 16.36 37.41 14.46 37.97 12.62C38.02 12.44 38.08 12.26 38.13 12.08L36.71 12.63L36.52 12.41C36.34 12.21 36.2 11.97 36.1 11.71L35.88 11.79L35.69 11.57C35.12 10.93 34.94 10.05 35.21 9.26C35.47 8.53 36.08 8.02 36.89 7.88C37.44 7.78 38.04 7.74 38.73 7.74C39.43 7.74 40.15 7.79 40.84 7.83C41.2 7.85 41.56 7.88 41.92 7.9C42.3 7.92 42.53 8.38 42.64 8.73L42.76 8.74C43.32 8.77 43.56 9.74 43.57 10C43.65 11.51 43.71 13.03 43.76 14.54L44.32 13.53C45.06 12.18 45.8 10.82 46.55 9.47C46.95 8.74 47.64 7.78 48.98 7.78C49.1 7.78 49.22 7.79 49.35 7.8C49.66 7.84 50.41 7.93 50.56 8.71C50.8 8.78 51.05 8.89 51.21 9.12C51.47 9.47 51.43 9.91 51.38 10.22C51.05 12.31 50.77 14.46 50.49 16.53L50.28 18.14C50.24 18.41 50.22 18.64 50.22 18.83C50.67 18.78 51.11 18.57 51.43 18.25C51.72 17.96 51.87 17.62 51.87 17.29C51.86 14.31 52.85 11.73 54.83 9.62C56.03 8.34 57.39 7.69 58.86 7.69C59.26 7.69 59.68 7.74 60.1 7.84C60.74 7.99 61.28 8.39 61.8 8.78L62.09 8.99C62.24 9.1 62.32 9.26 62.36 9.42C62.46 9.49 62.92 9.82 62.92 9.82C63.25 10.06 63.33 10.72 63.15 11.06C63.06 11.23 62.86 11.39 62.64 11.49C62.66 11.51 62.68 11.53 62.7 11.55L62.76 11.51C63.02 11.31 63.29 11.1 63.55 10.9C63.84 10.66 64.12 10.43 64.41 10.19C65.04 9.66 65.69 9.12 66.37 8.64C66.98 8.21 67.69 8 68.18 7.9C68.42 7.85 68.65 7.82 68.86 7.82C69.6 7.82 70.12 8.15 70.32 8.75C70.6 8.85 70.83 9.01 70.99 9.24C71.26 9.63 71.33 10.2 71.18 10.92C71.01 11.73 70.84 12.54 70.65 13.41C71.1 13.38 71.54 13.34 71.96 13.28C72.01 13.2 72.08 13.04 72.12 12.88C72.29 12.21 72.43 11.53 72.58 10.85C72.66 10.49 72.73 10.13 72.82 9.77C73.04 8.79 73.68 8.14 74.66 7.91C74.94 7.84 75.19 7.81 75.42 7.81C76.1 7.81 76.55 8.13 76.7 8.7C76.97 8.77 77.18 8.9 77.33 9.1C77.6 9.45 77.66 9.96 77.52 10.66C77.36 11.43 77.2 12.2 77.03 12.97C76.65 14.75 76.26 16.59 75.92 18.4C75.9 18.5 75.89 18.61 75.89 18.73C76.07 18.71 76.26 18.68 76.44 18.63C77.26 18.41 77.57 18 77.57 17.11C77.56 14.16 78.56 11.62 80.55 9.56C81.72 8.35 83.05 7.73 84.51 7.73C85.32 7.73 86.17 7.92 87.04 8.3C87.05 8.3 87.08 8.31 87.15 8.31C87.28 8.31 87.45 8.27 87.57 8.24C87.7 8.21 87.83 8.15 87.96 8.09C88.16 8 88.38 7.9 88.63 7.86C88.87 7.82 89.08 7.8 89.26 7.8C89.69 7.8 90.01 7.91 90.23 8.13C90.37 8.27 90.47 8.46 90.51 8.68C90.78 8.74 90.99 8.86 91.14 9.05C91.48 9.47 91.4 10.11 91.29 10.61L90.87 12.58C90.47 14.47 90.06 16.42 89.69 18.34C89.67 18.45 89.66 18.58 89.65 18.71C89.85 18.69 90.05 18.66 90.24 18.6C91.07 18.36 91.38 17.94 91.37 17.06C91.36 14.33 92.25 11.92 94.01 9.89C95.28 8.44 96.66 7.73 98.24 7.73C99.06 7.73 99.91 7.92 100.86 8.3C100.86 8.3 100.89 8.31 100.96 8.31C101.07 8.31 101.21 8.28 101.3 8.23C101.83 7.94 102.35 7.8 102.85 7.8C103.37 7.8 103.88 7.95 104.37 8.26L104.57 8.38V8.79C104.79 8.87 105 8.97 105.21 9.09L105.41 9.21V9.69L105.12 10.84C104.93 11.6 104.74 12.35 104.56 13.11C104.25 14.45 103.95 15.79 103.66 17.13C103.03 20.01 102.38 23 101.52 25.87C99.86 31.42 97.24 33.49 91.86 33.49C91.53 33.49 91.2 33.48 90.85 33.47C87.14 33.31 83.39 32.87 79.77 32.44C78.97 32.35 76.78 32.09 76.78 32.09C69.08 31.2 61.12 30.29 53.27 30.29C50 30.29 46.98 30.44 44.04 30.76C37.17 31.5 30.2 32.47 23.46 33.41C20.77 33.79 18.07 34.16 15.37 34.52C14.1 34.69 12.8 34.91 11.55 35.12C10.95 35.22 10.34 35.33 9.73 35.42L9.29 35.49L9.23 35.1ZM57.32 19.1C57.6 19.1 57.91 18.98 58.21 18.75C59.4 17.85 59.97 16.59 59.91 15.03C59.63 14.86 59.44 14.63 59.34 14.32C58.36 13.95 58.39 13.02 58.44 12.45C57.61 13.41 57.11 14.64 56.96 16.11C56.86 17.08 56.94 18.11 57.18 19.02C57.19 19.04 57.19 19.07 57.2 19.09C57.25 19.09 57.28 19.1 57.32 19.1ZM82.52 18.65C82.56 18.66 82.6 18.66 82.64 18.66C83.56 18.63 84.79 17.64 84.97 16.79C85.14 16 85.3 15.21 85.46 14.41C85.67 13.38 85.88 12.36 86.11 11.33C85.17 11.4 84.41 11.87 83.8 12.77C82.74 14.32 82.5 16.11 82.4 17.66C82.41 18.04 82.44 18.37 82.52 18.65ZM96.28 18.52C96.39 18.58 96.48 18.61 96.56 18.62C96.59 18.62 96.62 18.62 96.65 18.62C97.45 18.62 98.61 17.62 98.79 16.79C98.95 16.05 99.1 15.31 99.25 14.58C99.46 13.51 99.68 12.42 99.93 11.34C98.96 11.41 98.17 11.92 97.55 12.89C96.56 14.42 96.33 16.17 96.23 17.83C96.24 17.89 96.24 17.96 96.24 18.05C96.23 18.19 96.24 18.37 96.28 18.52ZM12.85 4.28C12.61 4.41 12.4 4.6 12.23 4.83C11.82 5.41 11.68 6.24 11.83 7.2C11.97 6.8 12.65 4.85 12.85 4.28Z" fill="white"/>
<path d="M11.53 1.25999C13.26 1.25999 15 1.47999 16.74 1.55999C17.87 1.61999 19 1.62999 20.13 1.69999C20.42 1.71999 20.91 1.85999 20.93 1.98999C20.95 2.15999 20.92 2.33999 20.86 2.52999C20.9 2.52999 20.93 2.52999 20.97 2.52999C21.26 2.54999 21.75 2.68999 21.77 2.81999C21.81 3.13999 21.66 3.49999 21.51 3.80999C21.26 4.34999 20.81 4.82999 20.68 5.38999C19.74 9.58999 18.86 13.8 17.97 18.01C17.89 18.4 17.81 18.82 17.88 19.19C17.88 19.21 17.89 19.22 17.89 19.24C17.94 19.24 17.98 19.25 18.03 19.25C18.9 19.25 20.23 18.52 20.38 17.85C20.86 15.7 21.32 13.55 21.77 11.4C21.77 11.39 21.77 11.38 21.77 11.37C21.69 11.34 21.62 11.3 21.54 11.27C21.61 11.15 21.68 11.02 21.74 10.88C21.36 10.72 21.03 10.58 20.7 10.43C20.96 10.01 21.11 9.41999 21.49 9.18999C22.18 8.76999 22.98 8.40999 23.77 8.27999C23.9 8.25999 24.02 8.24999 24.13 8.24999C24.75 8.24999 25.11 8.55999 25.19 9.10999C25.88 9.20999 26.17 9.77999 25.98 10.68C25.52 12.87 25.01 15.04 24.59 17.24C24.5 17.7 24.24 18.24 24.28 18.7C24.4 18.73 24.52 18.75 24.65 18.75C25.62 18.75 26.82 17.8 27.04 16.8C27.53 14.55 27.99 12.3 28.48 10.05C28.73 8.89999 29.55 8.24999 30.62 8.24999C30.73 8.24999 30.85 8.25999 30.97 8.26999C31.56 8.33999 31.83 8.56999 31.8 9.09999H31.81C32.5 9.17999 32.79 9.44999 32.61 10.22C32.04 12.72 31.52 15.24 31 17.76C30.91 18.21 30.82 18.69 30.85 19.14C31.06 19.11 31.27 19.04 31.43 18.94C31.72 18.76 31.91 18.4 32.11 18.1C32.51 17.52 33.01 17.22 33.58 17.22C33.96 17.22 34.37 17.35 34.79 17.62C34.76 17.77 34.73 17.93 34.7 18.09C34.99 18.14 35.3 18.26 35.62 18.46C35.61 18.51 35.6 18.57 35.59 18.62C37.42 16.53 37.95 13.89 38.76 11.39C38.12 11.64 37.47 11.89 36.8 12.15C36.54 11.86 36.4 11.52 36.34 11.17C36.21 11.22 36.09 11.27 35.96 11.32C35.05 10.29 35.41 8.58999 36.92 8.31999C37.5 8.21999 38.09 8.17999 38.69 8.17999C39.74 8.17999 40.81 8.28999 41.86 8.33999C42.01 8.34999 42.23 8.82999 42.27 9.14999C42.41 9.15999 42.56 9.16999 42.7 9.17999C42.86 9.18999 43.1 9.73999 43.11 10.04C43.22 12.06 43.28 14.07 43.36 16.09C43.37 16.07 43.39 16.04 43.4 16.02C44.56 13.91 45.7 11.8 46.87 9.69999C47.34 8.85999 47.94 8.21999 48.94 8.21999C49.04 8.21999 49.15 8.22999 49.26 8.23999C49.85 8.30999 50.15 8.48999 50.13 9.07999C50.77 9.16999 51.06 9.37999 50.94 10.17C50.52 12.8 50.19 15.46 49.84 18.1C49.78 18.59 49.76 18.97 49.8 19.26C49.81 19.26 49.81 19.26 49.82 19.26C49.88 19.26 49.94 19.27 50 19.27C51.18 19.27 52.27 18.34 52.27 17.29C52.26 14.46 53.18 11.98 55.11 9.90999C56.15 8.79999 57.4 8.10999 58.84 8.10999C59.21 8.10999 59.59 8.15999 59.98 8.24999C60.65 8.40999 61.25 8.91999 61.83 9.32999C61.9 9.37999 61.95 9.51999 61.97 9.66999C62.21 9.82999 62.44 10.01 62.66 10.17C62.8 10.27 62.86 10.69 62.76 10.87C62.67 11.03 62.38 11.19 62.18 11.19C62.15 11.19 62.13 11.19 62.11 11.18C61.55 11.04 61.01 10.92 60.48 10.92C59.83 10.92 59.2 11.1 58.61 11.63C57.3 12.81 56.69 14.37 56.52 16.05C56.42 17.06 56.49 18.13 56.75 19.1C56.78 19.22 56.83 19.32 56.87 19.42C57 19.46 57.14 19.49 57.28 19.49C57.64 19.49 58.04 19.35 58.42 19.06C59.84 17.98 60.41 16.48 60.27 14.74C59.86 14.58 59.7 14.3 59.65 13.97C58.73 13.75 58.76 13.06 58.83 12.37C58.91 11.57 59.41 11.12 60.19 11C60.32 10.98 60.45 10.97 60.57 10.97C61.23 10.97 61.78 11.29 62.64 12.11C63.01 11.82 63.39 11.53 63.77 11.23C64.7 10.48 65.6 9.66999 66.57 8.97999C67.04 8.63999 67.64 8.42999 68.22 8.30999C68.44 8.26999 68.64 8.23999 68.82 8.23999C69.47 8.23999 69.84 8.52999 69.93 9.08999C70.66 9.19999 70.93 9.79999 70.72 10.83C70.52 11.8 70.31 12.78 70.08 13.85C70.76 13.81 71.43 13.76 72.07 13.67C72.24 13.65 72.42 13.23 72.48 12.97C72.74 11.93 72.95 10.89 73.18 9.84999C73.37 9.01999 73.88 8.49999 74.71 8.30999C74.96 8.24999 75.18 8.21999 75.37 8.21999C75.96 8.21999 76.26 8.49999 76.29 9.05999C77.01 9.08999 77.27 9.58999 77.07 10.57C76.53 13.15 75.96 15.72 75.47 18.31C75.43 18.55 75.42 18.86 75.46 19.15C75.5 19.15 75.54 19.15 75.58 19.15C75.89 19.15 76.23 19.09 76.5 19.02C77.43 18.78 77.94 18.25 77.94 17.1C77.93 14.34 78.85 11.86 80.8 9.83999C81.89 8.69999 83.12 8.13999 84.46 8.13999C85.21 8.13999 86 8.31999 86.83 8.66999C86.91 8.70999 87 8.71999 87.1 8.71999C87.27 8.71999 87.46 8.67999 87.62 8.63999C87.97 8.54999 88.29 8.31999 88.64 8.26999C88.85 8.22999 89.04 8.21999 89.21 8.21999C89.83 8.21999 90.09 8.47999 90.08 9.05999C90.86 9.06999 91.05 9.49999 90.84 10.53C90.3 13.11 89.73 15.68 89.24 18.27C89.19 18.52 89.18 18.84 89.21 19.13C89.27 19.14 89.33 19.14 89.4 19.14C89.71 19.14 90.04 19.09 90.32 19.01C91.23 18.75 91.76 18.23 91.75 17.07C91.74 14.5 92.57 12.15 94.29 10.18C95.47 8.81999 96.75 8.15999 98.21 8.15999C98.97 8.15999 99.79 8.33999 100.67 8.69999C100.74 8.72999 100.83 8.73999 100.92 8.73999C101.1 8.73999 101.31 8.68999 101.45 8.60999C101.91 8.35999 102.36 8.22999 102.8 8.22999C103.23 8.22999 103.67 8.34999 104.1 8.61999V8.81999C104.08 8.90999 104.05 9.00999 104.03 9.09999C104.33 9.14999 104.63 9.26999 104.93 9.44999V9.64999C104.65 10.78 104.36 11.9 104.09 13.03C103.09 17.28 102.3 21.59 101.06 25.77C99.45 31.13 97.03 33.1 91.8 33.1C91.48 33.1 91.15 33.09 90.81 33.08C86.32 32.89 81.84 32.29 77.37 31.77C69.33 30.85 61.28 29.9 53.21 29.9C50.12 29.9 47.03 30.04 43.93 30.37C34.35 31.4 24.81 32.85 15.25 34.13C13.37 34.38 11.51 34.73 9.6 35.04C9.57 34.71 9.51 34.4 9.44 34.09C9.22 34.13 9 34.17 8.77 34.2C8.55 32.15 7.64 30.64 6.42 29.33C5.53 28.49 4.5 27.69 3.5 26.85C3.56 26.86 3.63 26.86 3.69 26.87C3.35 26.59 3 26.31 2.66 26.02C5.61 26.28 8.39 26.55 11.16 26.76C16.76 27.19 22.36 27.41 27.97 27.41C32.23 27.41 36.49 27.28 40.76 27C44.7 26.74 48.64 26.6 52.57 26.6C62.2 26.6 71.79 27.48 81.28 29.7C83.3 30.17 85.33 30.43 87.37 30.43C89.04 30.43 90.72 30.26 92.4 29.9C94.4 29.48 95.91 28.55 96.57 26.48C97.09 24.83 97.66 23.19 98.21 21.6C97.5 22 96.78 22.37 96.02 22.54C95.83 22.58 95.65 22.6 95.47 22.6C94.61 22.6 93.93 22.14 93.43 21.39C93.11 21.18 92.83 20.9 92.58 20.54C92.43 20.66 92.29 20.77 92.14 20.87C91.39 21.36 90.67 21.93 89.85 22.28C89.29 22.52 88.8 22.63 88.37 22.63C87.59 22.63 86.99 22.25 86.52 21.53C86.21 21.35 85.94 21.08 85.7 20.73C84.63 21.38 83.58 22.19 82.4 22.51C82.15 22.58 81.91 22.61 81.68 22.61C80.83 22.61 80.14 22.15 79.62 21.39C79.31 21.18 79.03 20.91 78.79 20.56C78.59 20.76 78.41 20.95 78.2 21.06C77.22 21.59 76.26 22.29 75.2 22.53C74.98 22.58 74.77 22.6 74.56 22.6C73.7 22.6 73.01 22.17 72.61 21.48C71.76 21 71.28 19.97 71.42 18.69C71.51 17.86 71.67 17.04 71.83 16.19C71.18 16.29 70.54 16.39 69.93 16.54C69.71 16.59 69.47 16.98 69.41 17.26C69.1 18.52 68.87 19.81 68.55 21.07C68.3 22.05 67.49 22.62 66.55 22.62C66.4 22.62 66.24 22.6 66.08 22.57C65.54 22.47 65.34 22.24 65.39 21.75C65.34 21.74 65.3 21.74 65.25 21.74C64.63 21.62 64.43 21.36 64.58 20.7C65.23 17.84 65.84 14.97 66.46 12.09C66.47 12.03 66.48 11.97 66.49 11.91C66.39 11.98 66.29 12.05 66.21 12.12C64.89 13.3 63.72 14.43 63.46 16.46C63.16 18.78 61.58 20.55 59.55 21.79C58.65 22.34 57.8 22.61 57.01 22.61C55.88 22.61 54.86 22.06 53.93 20.96C53.72 20.8 53.53 20.6 53.33 20.39C52.99 20.68 52.67 20.99 52.29 21.21C51.49 21.67 50.69 22.2 49.81 22.46C49.49 22.55 49.18 22.6 48.89 22.6C48.02 22.6 47.32 22.19 46.94 21.49C46.21 21.1 45.75 20.3 45.76 19.2C45.77 18.26 45.9 17.32 46.03 16.38C45.09 18.17 44.15 19.97 43.24 21.78C42.97 22.33 42.62 22.62 42.11 22.62C41.99 22.62 41.86 22.6 41.73 22.57C41.18 22.44 40.86 22.13 40.74 21.67C40.13 21.47 39.85 21.01 39.85 20.35C39.85 18.78 39.85 17.21 39.85 15.64C39.14 17.21 38.45 18.8 37.67 20.33C37.38 20.9 36.86 21.4 36.36 21.83C35.74 22.37 35.21 22.63 34.74 22.63C34.2 22.63 33.73 22.3 33.26 21.66C32.01 21.98 30.87 22.48 29.71 22.5H29.67C28.82 22.5 28.32 22.07 28.03 21.5C27.64 21.32 27.36 21.01 27.18 20.64C26.27 21.31 25.37 22.05 24.34 22.48C24.06 22.6 23.81 22.65 23.56 22.65C22.93 22.65 22.38 22.27 21.8 21.51C21.52 21.33 21.25 21.05 20.97 20.69C20.66 20.93 20.36 21.18 20.04 21.39C19.51 21.73 18.98 22.1 18.39 22.33C17.87 22.53 17.37 22.63 16.93 22.63C16 22.63 15.27 22.22 14.87 21.5C13.96 21 13.49 19.9 13.75 18.41C14.1 16.37 14.58 14.36 15.01 12.33C15.6 9.51999 16.19 6.70999 16.78 3.90999C16.8 3.81999 16.81 3.72999 16.82 3.63999C16.69 3.60999 16.59 3.59999 16.49 3.59999C16 3.59999 15.85 3.95999 15.56 4.92999C14.28 9.21999 12.98 13.5 10.92 17.49C10.33 18.64 9.56 19.7 8.79 20.75C8.44 21.22 7.95 21.61 7.45 21.94C6.75 22.4 6.11 22.62 5.55 22.62C4.82 22.62 4.21 22.25 3.75 21.53C3.17 21.2 2.71 20.57 2.41 19.61C2.37 19.49 2.29 19.38 2.23 19.27V17.67C2.8 16.7 3.5 16.21 4.28 16.21C4.72 16.21 5.19 16.37 5.68 16.69C5.65 16.83 5.63 16.97 5.6 17.11C5.9 17.18 6.2 17.32 6.51 17.52C6.42 18.03 6.33 18.54 6.24 19.05C6.53 18.85 6.78 18.65 6.95 18.39C8.02 16.83 9.2 15.28 9.92 13.56C11.27 10.32 12.36 6.95999 13.54 3.63999C11.91 3.84999 11.03 5.42999 11.5 7.62999C11.11 7.80999 10.73 7.88999 10.38 7.88999C9.65 7.88999 9.04 7.51999 8.7 6.85999C8.09 6.56999 7.67 5.93999 7.59 5.05999C7.4 2.96999 8.54 1.38999 10.67 1.28999C10.95 1.26999 11.24 1.25999 11.53 1.25999ZM64.13 12.48C64.3 12.35 64.47 12.22 64.64 12.08C65.29 11.55 65.94 11.01 66.6 10.49C66.03 10.85 65.65 11.03 65.36 11.29C64.93 11.68 64.51 12.07 64.13 12.48ZM96.64 19.04C97.67 19.04 98.97 17.87 99.19 16.87C99.61 14.92 99.96 12.96 100.42 11.01C100.43 10.97 100.43 10.94 100.44 10.9C100.35 10.89 100.26 10.89 100.18 10.89C98.88 10.89 97.91 11.54 97.19 12.64C96.22 14.14 95.92 15.83 95.8 17.82C95.83 18.01 95.79 18.46 95.94 18.79C96.13 18.91 96.33 19 96.52 19.02C96.55 19.04 96.6 19.04 96.64 19.04ZM82.65 19.08H82.69C83.76 19.05 85.16 17.94 85.39 16.88C85.81 14.93 86.18 12.96 86.63 11.01C86.64 10.98 86.63 10.96 86.64 10.93C86.55 10.92 86.47 10.92 86.38 10.92C85.14 10.92 84.19 11.5 83.48 12.55C82.41 14.12 82.12 15.93 82.01 17.65C82 18.21 82.07 18.66 82.21 19.02C82.33 19.05 82.48 19.08 82.65 19.08ZM78.18 19.51C78.19 19.5 78.21 19.49 78.22 19.48V19.47C78.21 19.48 78.2 19.5 78.18 19.51ZM11.53 0.429993C11.22 0.429993 10.92 0.439992 10.62 0.449992C9.41 0.509992 8.4 0.959993 7.7 1.76999C6.96 2.61999 6.62 3.80999 6.75 5.12999C6.84 6.15999 7.33 6.99999 8.09 7.46999C8.59 8.26999 9.41 8.70999 10.37 8.70999C10.54 8.70999 10.7 8.69999 10.87 8.66999C10.32 10.2 9.75 11.73 9.13 13.22C8.61 14.47 7.8 15.67 6.99 16.83L6.96 16.81C6.82 16.72 6.68 16.64 6.53 16.56L6.58 16.28L6.12 15.98C5.5 15.57 4.87 15.37 4.26 15.37C3.5 15.37 2.4 15.69 1.49 17.24L1.38 17.44V17.67V19.27V19.48L1.48 19.67C1.51 19.72 1.54 19.77 1.57 19.82C1.59 19.84 1.6 19.87 1.61 19.9C1.93 20.93 2.45 21.7 3.14 22.16C3.9 23.24 4.85 23.47 5.53 23.47C6.27 23.47 7.07 23.19 7.89 22.65C8.6 22.19 9.09 21.74 9.44 21.26C10.28 20.11 11.03 19.06 11.63 17.89C12.67 15.89 13.52 13.8 14.25 11.72L14.15 12.18C14.02 12.78 13.89 13.38 13.76 13.98C13.45 15.39 13.14 16.84 12.88 18.29C12.59 19.98 13.09 21.39 14.22 22.13C14.8 22.99 15.76 23.48 16.89 23.48C17.45 23.48 18.05 23.36 18.65 23.13C19.23 22.91 19.72 22.58 20.21 22.27L20.45 22.12C20.58 22.04 20.71 21.95 20.83 21.86C20.94 21.97 21.06 22.07 21.18 22.15C21.67 22.76 22.42 23.51 23.52 23.51C23.88 23.51 24.24 23.43 24.62 23.27C25.49 22.9 26.24 22.37 26.97 21.82C27.1 21.94 27.23 22.05 27.38 22.14C27.87 22.93 28.66 23.36 29.63 23.36H29.69C30.6 23.34 31.48 23.07 32.33 22.81C32.53 22.75 32.73 22.69 32.93 22.63C33.48 23.21 34.06 23.49 34.71 23.49C35.4 23.49 36.09 23.17 36.87 22.49C37.41 22.02 38.02 21.44 38.37 20.74C38.57 20.34 38.77 19.93 38.97 19.52C38.97 19.81 38.97 20.09 38.97 20.38C38.97 21.26 39.36 21.95 40.05 22.32C40.33 22.87 40.83 23.25 41.5 23.41C41.7 23.46 41.89 23.48 42.07 23.48C42.88 23.48 43.52 23.04 43.95 22.18C44.29 21.51 44.63 20.83 44.98 20.15C45.17 21 45.62 21.68 46.29 22.12C46.85 22.97 47.77 23.45 48.85 23.45C49.22 23.45 49.61 23.39 50 23.28C50.82 23.05 51.54 22.62 52.23 22.21C52.37 22.12 52.52 22.04 52.66 21.96C52.88 21.83 53.07 21.69 53.25 21.54C53.27 21.55 53.28 21.57 53.3 21.58C54.38 22.83 55.61 23.46 56.96 23.46C57.9 23.46 58.9 23.14 59.93 22.52C62.44 21 63.92 18.95 64.23 16.59C64.34 15.76 64.62 15.11 65.04 14.52C64.61 16.52 64.17 18.54 63.72 20.53C63.67 20.73 63.53 21.35 63.88 21.89C64.07 22.19 64.35 22.35 64.6 22.45C64.74 22.85 65.09 23.26 65.88 23.41C66.09 23.45 66.3 23.47 66.51 23.47C67.87 23.47 68.98 22.62 69.32 21.3C69.5 20.62 69.64 19.92 69.79 19.25C69.91 18.67 70.04 18.06 70.19 17.48C70.2 17.44 70.23 17.38 70.26 17.34C70.43 17.3 70.6 17.27 70.78 17.23C70.7 17.69 70.63 18.15 70.58 18.62C70.42 20.1 70.95 21.41 71.99 22.11C72.57 22.97 73.49 23.46 74.55 23.46C74.82 23.46 75.09 23.43 75.37 23.36C76.28 23.15 77.08 22.68 77.85 22.23C78.09 22.09 78.33 21.94 78.58 21.81C78.62 21.79 78.65 21.77 78.69 21.75C78.79 21.84 78.9 21.93 79.01 22.01C79.71 22.96 80.63 23.46 81.67 23.46C81.98 23.46 82.29 23.41 82.61 23.33C83.64 23.05 84.52 22.47 85.38 21.92C85.42 21.89 85.47 21.86 85.51 21.83C85.64 21.95 85.77 22.06 85.91 22.15C86.54 23.03 87.36 23.47 88.35 23.47C88.9 23.47 89.5 23.33 90.16 23.05C90.82 22.77 91.4 22.37 91.95 21.99C92.11 21.88 92.26 21.78 92.42 21.67C92.54 21.79 92.67 21.89 92.8 21.99C93.49 22.93 94.4 23.43 95.44 23.43C95.68 23.43 95.92 23.4 96.16 23.35C96.36 23.31 96.56 23.25 96.75 23.19C96.41 24.19 96.07 25.2 95.75 26.22C95.25 27.8 94.19 28.66 92.21 29.08C90.62 29.42 88.98 29.59 87.35 29.59C85.43 29.59 83.44 29.35 81.45 28.89C72.49 26.79 63.04 25.76 52.55 25.76C48.78 25.76 44.79 25.9 40.69 26.17C36.54 26.44 32.25 26.58 27.95 26.58C22.54 26.58 16.91 26.36 11.2 25.93C9.31 25.79 7.45 25.62 5.48 25.44C4.57 25.36 3.65 25.27 2.71 25.19L0.0899963 24.96L1.09 25.81L0.949996 25.79L2.96 27.49C3.28 27.76 3.6 28.03 3.93 28.29C4.61 28.85 5.26 29.38 5.86 29.94C7.15 31.34 7.8 32.68 7.97 34.31L8.06 35.19L8.79 35.07C8.79 35.1 8.8 35.12 8.8 35.15L8.89 36.03L9.76 35.89C10.37 35.79 10.97 35.69 11.57 35.59C12.88 35.37 14.12 35.16 15.39 34.99C18.09 34.63 20.78 34.25 23.48 33.88C30.22 32.94 37.18 31.97 44.05 31.23C46.98 30.92 49.98 30.76 53.24 30.76C61.07 30.76 69.03 31.68 76.72 32.56L77.3 32.63C78.1 32.72 78.89 32.82 79.69 32.91C83.32 33.34 87.08 33.79 90.8 33.94C91.15 33.95 91.5 33.96 91.83 33.96C97.44 33.96 100.16 31.81 101.89 26.04C102.76 23.15 103.41 20.17 104.04 17.28C104.33 15.96 104.63 14.59 104.94 13.26C105.12 12.49 105.32 11.73 105.51 10.96L105.78 9.88999L105.8 9.78999V9.68999V9.48999V9.02999L105.4 8.78999C105.26 8.69999 105.11 8.61999 104.96 8.55999V8.19999L104.56 7.95999C104 7.61999 103.42 7.43999 102.82 7.43999C102.25 7.43999 101.66 7.59999 101.07 7.91999C101.05 7.92999 100.99 7.94999 100.95 7.94999C99.98 7.55999 99.08 7.36999 98.23 7.36999C96.52 7.36999 95.04 8.11999 93.69 9.66999C91.85 11.78 90.93 14.28 90.94 17.11C90.94 17.87 90.69 18.07 90.12 18.24C90.47 16.39 90.87 14.51 91.25 12.7C91.39 12.05 91.53 11.39 91.66 10.74C91.78 10.15 91.87 9.38999 91.42 8.82999C91.26 8.62999 91.05 8.47999 90.8 8.38999C90.73 8.19999 90.62 8.02999 90.48 7.87999C90.18 7.57999 89.75 7.41999 89.21 7.41999C89 7.41999 88.78 7.43999 88.51 7.47999C88.21 7.52999 87.95 7.64999 87.74 7.73999C87.62 7.78999 87.5 7.84999 87.42 7.86999C87.28 7.90999 87.18 7.91999 87.12 7.92999C86.21 7.53999 85.32 7.34999 84.47 7.34999C82.89 7.34999 81.46 8.00999 80.21 9.30999C78.15 11.45 77.11 14.09 77.12 17.16C77.12 17.91 76.88 18.11 76.35 18.26C76.68 16.54 77.05 14.8 77.41 13.11C77.57 12.34 77.74 11.57 77.9 10.79C78.07 9.95999 77.98 9.33999 77.63 8.88999C77.5 8.71999 77.3 8.53999 76.99 8.40999C76.74 7.78999 76.16 7.42999 75.38 7.42999C75.12 7.42999 74.85 7.46999 74.53 7.53999C73.4 7.80999 72.64 8.57999 72.38 9.70999C72.3 10.07 72.22 10.42 72.15 10.78C72 11.45 71.85 12.15 71.69 12.82C71.68 12.86 71.67 12.9 71.66 12.93C71.49 12.95 71.33 12.97 71.15 12.98C71.29 12.31 71.43 11.68 71.56 11.04C71.73 10.21 71.65 9.52999 71.3 9.03999C71.17 8.84999 70.95 8.61999 70.61 8.46999C70.31 7.81999 69.68 7.44999 68.83 7.44999C68.59 7.44999 68.34 7.47999 68.06 7.52999C67.53 7.63999 66.76 7.86999 66.1 8.33999C65.4 8.82999 64.75 9.37999 64.12 9.90999C63.95 10.05 63.78 10.2 63.61 10.34C63.55 10.02 63.4 9.71999 63.14 9.53999L62.88 9.34999C62.82 9.29999 62.76 9.25999 62.69 9.20999C62.62 9.01999 62.5 8.83999 62.31 8.69999C62.22 8.62999 62.12 8.55999 62.03 8.49999C61.5 8.10999 60.89 7.65999 60.17 7.48999C59.72 7.37999 59.27 7.32999 58.83 7.32999C57.24 7.32999 55.78 8.01999 54.49 9.38999C52.44 11.58 51.41 14.25 51.42 17.34C51.42 17.56 51.31 17.8 51.1 18.01C50.97 18.14 50.81 18.25 50.64 18.33C50.64 18.3 50.65 18.28 50.65 18.25L50.86 16.63C51.13 14.56 51.41 12.43 51.75 10.34C51.79 10.12 51.89 9.44999 51.5 8.91999C51.32 8.67999 51.09 8.52999 50.86 8.43999C50.69 7.96999 50.27 7.55999 49.36 7.43999C49.21 7.41999 49.07 7.40999 48.94 7.40999C47.2 7.40999 46.4 8.84999 46.14 9.31999C45.45 10.57 44.77 11.82 44.08 13.07C44.04 12.06 44 11.04 43.95 10.03C43.93 9.62999 43.64 8.56999 42.91 8.39999C42.74 7.99999 42.44 7.56999 41.91 7.53999C41.55 7.51999 41.19 7.49999 40.84 7.46999C40.14 7.41999 39.42 7.36999 38.7 7.36999C37.99 7.36999 37.36 7.41999 36.79 7.51999C35.83 7.68999 35.1 8.28999 34.79 9.16999C34.47 10.09 34.68 11.13 35.35 11.89L35.73 12.32L35.86 12.27C35.95 12.43 36.06 12.58 36.18 12.72L36.57 13.16L37.11 12.95L37.46 12.81C36.98 14.38 36.5 15.88 35.64 17.19L35.23 16.93C34.67 16.58 34.12 16.4 33.57 16.4C33.14 16.4 32.56 16.51 32.01 16.98C32.46 14.83 32.92 12.6 33.41 10.43C33.55 9.82999 33.48 9.34999 33.22 8.96999C33.03 8.69999 32.77 8.53999 32.52 8.43999C32.36 8.00999 31.97 7.56999 31.06 7.45999C30.91 7.43999 30.75 7.42999 30.61 7.42999C29.12 7.42999 27.98 8.36999 27.65 9.88999C27.4 11.03 27.16 12.17 26.92 13.31C26.69 14.42 26.45 15.53 26.21 16.64C26.13 17.02 25.75 17.45 25.33 17.7C25.36 17.61 25.38 17.51 25.4 17.41C25.65 16.07 25.95 14.72 26.24 13.4C26.43 12.56 26.61 11.71 26.79 10.86C26.98 9.92999 26.75 9.34999 26.53 9.01999C26.36 8.76999 26.13 8.58999 25.86 8.45999C25.57 7.80999 24.95 7.42999 24.13 7.42999C23.97 7.42999 23.81 7.43999 23.64 7.46999C22.82 7.59999 21.93 7.95999 21.06 8.48999C20.97 8.54999 20.88 8.60999 20.81 8.67999C21.04 7.63999 21.26 6.60999 21.49 5.57999C21.54 5.37999 21.69 5.12999 21.86 4.85999C22 4.63999 22.14 4.41999 22.26 4.16999C22.46 3.74999 22.65 3.23999 22.59 2.71999C22.53 2.22999 22.13 1.96999 21.75 1.83999C21.61 0.989992 20.42 0.879993 20.18 0.859993C19.51 0.819993 18.84 0.789993 18.19 0.769993C17.72 0.749993 17.25 0.739992 16.78 0.709992C16.14 0.679992 15.49 0.629992 14.85 0.579992C13.76 0.519992 12.64 0.429993 11.53 0.429993ZM18.77 18.24C18.77 18.23 18.77 18.22 18.78 18.2L19.03 17.01C19.44 15.08 19.85 13.13 20.27 11.16L20.37 11.2L20.55 11.28L20.32 11.66L20.8 11.87C20.41 13.69 19.99 15.7 19.55 17.67C19.49 17.83 19.15 18.07 18.77 18.24ZM96.63 17.83C96.76 15.65 97.13 14.28 97.88 13.12C98.3 12.46 98.79 12.05 99.37 11.87C99.18 12.76 99 13.64 98.82 14.51C98.67 15.25 98.52 15.98 98.37 16.71C98.23 17.35 97.26 18.2 96.65 18.21C96.64 18.15 96.64 18.08 96.64 18.04C96.64 17.96 96.64 17.89 96.63 17.83ZM82.83 17.67C82.93 16.18 83.16 14.47 84.16 13.01C84.56 12.42 85.03 12.05 85.58 11.87C85.4 12.69 85.23 13.52 85.07 14.33C84.91 15.12 84.75 15.91 84.57 16.71C84.44 17.32 83.56 18.08 82.86 18.23C82.84 18.05 82.83 17.87 82.83 17.67ZM57.53 18.65C57.35 17.86 57.3 16.98 57.39 16.16C57.49 15.21 57.73 14.36 58.13 13.64C58.26 14.03 58.52 14.4 59.02 14.64C59.13 14.88 59.29 15.09 59.5 15.25C59.51 16.59 59 17.63 57.96 18.41C57.81 18.53 57.66 18.61 57.53 18.65Z" fill="white"/>
<path d="M102.33 9.45999C102.11 9.57999 101.76 9.63999 101.54 9.54999C98.99 8.50999 96.98 8.94999 95.17 11.03C93.45 13 92.62 15.35 92.63 17.92C92.64 19.08 92.1 19.6 91.2 19.86C90.67 20.01 89.92 20.1 89.54 19.83C89.24 19.62 89.2 18.79 89.29 18.29C89.78 15.7 90.34 13.13 90.88 10.55C91.14 9.28999 90.8 8.91999 89.52 9.12999C89.17 9.18999 88.85 9.40999 88.5 9.49999C88.25 9.56999 87.93 9.62999 87.71 9.52999C85.44 8.54999 83.4 8.90999 81.69 10.7C79.74 12.72 78.82 15.2 78.83 17.96C78.83 19.11 78.32 19.64 77.39 19.88C76.88 20.01 76.14 20.12 75.81 19.86C75.5 19.61 75.42 18.83 75.52 18.34C76.01 15.75 76.58 13.18 77.12 10.6C77.38 9.32999 76.89 8.85999 75.6 9.16999C74.77 9.35999 74.26 9.87999 74.07 10.71C73.84 11.75 73.63 12.8 73.37 13.83C73.3 14.09 73.13 14.51 72.96 14.53C72 14.67 71.02 14.7 69.94 14.78C70.25 13.33 70.52 12.09 70.77 10.85C71.05 9.47999 70.48 8.87999 69.1 9.15999C68.52 9.27999 67.92 9.48999 67.45 9.82999C66.48 10.52 65.58 11.33 64.65 12.08C64.27 12.38 63.89 12.68 63.52 12.96C62.51 11.98 61.92 11.72 61.07 11.85C60.29 11.97 59.79 12.42 59.71 13.22C59.64 13.93 59.61 14.64 60.59 14.84C60.82 14.89 61.13 15.26 61.15 15.51C61.32 17.29 60.75 18.81 59.3 19.91C58.25 20.71 57.13 20.4 56.79 19.12C56.53 18.15 56.46 17.07 56.56 16.07C56.73 14.38 57.34 12.83 58.65 11.65C59.71 10.69 60.91 10.88 62.15 11.2C62.34 11.25 62.7 11.07 62.8 10.89C62.89 10.72 62.84 10.29 62.7 10.19C62.12 9.76999 61.52 9.26999 60.85 9.10999C58.92 8.64999 57.29 9.36999 55.98 10.77C54.04 12.83 53.12 15.32 53.14 18.15C53.15 19.25 51.94 20.22 50.69 20.12C49.9 20.05 49.68 19.55 49.87 18.12C50.22 15.47 50.55 12.82 50.97 10.19C51.1 9.38999 50.8 9.16999 50.13 9.08999C48.94 8.93999 48.26 9.61999 47.74 10.55C46.58 12.65 45.43 14.76 44.27 16.87C44.09 17.2 43.89 17.53 43.7 17.86C43.47 17.49 43.43 17.18 43.42 16.87C43.33 14.6 43.26 12.33 43.14 10.07C43.12 9.75999 42.88 9.20999 42.73 9.20999C41.08 9.12999 39.39 8.90999 37.79 9.17999C36.28 9.43999 35.91 11.14 36.83 12.18C37.82 11.8 38.76 11.43 39.71 11.06C39.78 11.17 39.85 11.27 39.92 11.38C38.77 14.5 38.39 18 35.48 20.43C35.39 20.16 35.34 20.09 35.35 20.04C35.44 19.52 35.54 19 35.64 18.49C34.58 17.82 33.63 18 32.96 18.97C32.75 19.27 32.57 19.63 32.28 19.81C32.01 19.98 31.57 20.09 31.29 19.99C31.07 19.91 30.89 19.47 30.87 19.18C30.84 18.72 30.93 18.25 31.02 17.8C31.54 15.28 32.06 12.77 32.63 10.26C32.81 9.48999 32.51 9.21999 31.83 9.13999C30.58 8.98999 29.62 9.64999 29.34 10.92C28.85 13.17 28.39 15.42 27.9 17.67C27.65 18.81 26.12 19.9 25.11 19.57C23.77 19.13 24.47 18.08 24.62 17.28C25.04 15.08 25.56 12.91 26.01 10.72C26.24 9.59999 25.75 8.97999 24.63 9.15999C23.84 9.28999 23.04 9.63999 22.35 10.07C21.97 10.3 21.82 10.88 21.56 11.31C21.9 11.45 22.23 11.6 22.62 11.77C22.62 11.89 22.65 12.09 22.62 12.28C22.16 14.43 21.71 16.58 21.23 18.73C21.05 19.55 19.12 20.45 18.4 20.03C18.15 19.89 17.94 19.53 17.89 19.25C17.83 18.87 17.9 18.45 17.98 18.07C18.87 13.86 19.75 9.64999 20.69 5.44999C20.81 4.88999 21.26 4.40999 21.52 3.86999C21.67 3.55999 21.82 3.18999 21.78 2.87999C21.76 2.74999 21.27 2.59999 20.98 2.58999C19.85 2.51999 18.72 2.49999 17.59 2.44999C15.56 2.34999 13.53 2.06999 11.51 2.16999C9.37999 2.26999 8.23999 3.84999 8.42999 5.93999C8.57999 7.61999 9.93999 8.37999 11.51 7.66999C10.94 5.03999 12.3 3.27999 14.59 3.71999C14.57 3.83999 14.57 3.97999 14.53 4.09999C13.29 7.54999 12.17 11.05 10.76 14.43C10.04 16.16 8.85999 17.7 7.78999 19.26C7.44999 19.76 6.80999 20.06 6.18999 20.54C6.12999 20.15 6.07999 20.02 6.09999 19.9C6.22999 19.12 6.37999 18.34 6.51999 17.56C5.17999 16.68 3.95999 17.02 3.06999 18.54V20.09C3.12999 20.2 3.21999 20.31 3.24999 20.43C3.94999 22.67 5.47999 23.23 7.45999 21.93C7.94999 21.6 8.44999 21.22 8.79999 20.74C9.56999 19.69 10.33 18.63 10.93 17.48C13 13.49 14.29 9.20999 15.57 4.91999C16.02 3.40999 16.11 3.35999 17.74 3.88999C17.7 4.15999 17.68 4.44999 17.62 4.73999C17.03 7.54999 16.44 10.36 15.85 13.16C15.43 15.18 14.95 17.2 14.59 19.24C14.14 21.86 15.92 23.29 18.41 22.33C18.99 22.1 19.52 21.73 20.06 21.39C20.45 21.14 20.8 20.84 21.17 20.55C22.26 22.34 23.11 22.99 24.36 22.47C25.59 21.95 26.63 20.99 27.72 20.25C27.82 21.3 28.28 22.51 29.74 22.49C30.9 22.47 32.04 21.96 33.29 21.65C34.18 22.85 35.07 22.97 36.39 21.82C36.89 21.39 37.4 20.9 37.7 20.32C38.54 18.66 39.27 16.94 40.04 15.25C40.15 15.01 40.24 14.76 40.34 14.52C40.46 14.54 40.59 14.56 40.71 14.58C40.71 16.78 40.71 18.98 40.71 21.17C40.71 21.89 41.03 22.38 41.76 22.55C42.49 22.72 42.94 22.43 43.28 21.76C44.37 19.58 45.51 17.43 46.64 15.27C46.77 15.02 46.92 14.79 47.07 14.55C47.22 14.92 47.17 15.23 47.14 15.54C46.96 17.03 46.66 18.52 46.64 20.01C46.61 21.94 48 22.98 49.86 22.44C50.74 22.19 51.54 21.65 52.34 21.19C52.75 20.95 53.1 20.6 53.47 20.29C55.15 22.75 57.18 23.23 59.59 21.77C61.62 20.54 63.2 18.76 63.5 16.44C63.76 14.41 64.93 13.28 66.25 12.1C66.55 11.83 66.93 11.66 67.53 11.28C67.45 12.02 67.43 12.47 67.34 12.9C66.73 15.77 66.12 18.64 65.46 21.51C65.31 22.16 65.51 22.43 66.13 22.55C67.27 22.77 68.3 22.19 68.6 21.05C68.93 19.79 69.15 18.51 69.46 17.24C69.53 16.97 69.76 16.58 69.98 16.52C70.91 16.3 71.86 16.18 72.9 16.01C72.69 17.23 72.43 18.36 72.31 19.51C72.09 21.52 73.4 22.94 75.25 22.52C76.31 22.28 77.27 21.58 78.25 21.05C78.55 20.89 78.77 20.59 79.1 20.29C79.74 21.92 80.86 22.93 82.45 22.49C83.75 22.13 84.88 21.19 86.07 20.52C86.81 22.47 87.96 23.08 89.9 22.26C90.72 21.91 91.43 21.34 92.19 20.85C92.42 20.7 92.64 20.51 92.92 20.29C93.51 21.83 94.55 22.84 96.07 22.51C97.32 22.24 98.45 21.41 99.64 20.82C98.94 22.88 98.16 25.07 97.46 27.28C96.81 29.35 95.3 30.28 93.29 30.7C89.56 31.49 85.84 31.36 82.17 30.5C68.81 27.36 55.26 26.91 41.66 27.8C31.77 28.45 21.92 28.31 12.06 27.56C9.27999 27.35 6.50999 27.08 3.54999 26.82C6.30999 29.15 9.27999 31.12 9.68999 35.03C11.6 34.72 13.47 34.37 15.34 34.12C24.9 32.84 34.44 31.39 44.02 30.36C55.21 29.16 66.34 30.48 77.46 31.76C81.93 32.27 86.41 32.88 90.9 33.07C96.83 33.32 99.45 31.45 101.15 25.77C102.4 21.6 103.19 17.28 104.19 13.03C104.45 11.9 104.75 10.78 105.03 9.64999V9.44999C104.1 8.92999 103.23 8.97999 102.33 9.45999ZM87.45 11.84C87 13.79 86.63 15.76 86.21 17.71C85.98 18.76 84.59 19.88 83.51 19.91C82.52 19.94 81.97 19.17 81.98 17.64C82.09 15.92 82.38 14.11 83.45 12.54C84.24 11.38 85.33 10.78 86.78 10.93C87.36 10.98 87.6 11.19 87.45 11.84ZM101.25 11.86C100.8 13.8 100.44 15.76 100.02 17.71C99.8 18.75 98.39 19.98 97.34 19.87C96.85 19.82 96.31 19.37 96 18.95C95.76 18.62 95.83 18.06 95.8 17.84C95.92 15.85 96.22 14.15 97.19 12.66C97.97 11.46 99.05 10.79 100.54 10.92C101.13 10.97 101.42 11.14 101.25 11.86Z" fill="#DC9129"/>
<path d="M8.69999 34.23C8.33999 30.82 6.01999 28.91 3.56999 26.9C3.24999 26.63 2.91999 26.37 2.59999 26.09L2.34999 25.88L5.46999 26.16C7.40999 26.33 9.28999 26.5 11.18 26.65C16.9 27.08 22.56 27.3 27.98 27.3C32.29 27.3 36.6 27.16 40.77 26.89C44.86 26.62 48.83 26.49 52.58 26.49C63.01 26.49 72.4 27.51 81.31 29.6C83.35 30.08 85.4 30.32 87.38 30.32C89.06 30.32 90.75 30.14 92.39 29.8C94.63 29.32 95.9 28.29 96.48 26.45C96.97 24.9 97.5 23.35 98.02 21.86C98.21 21.31 98.4 20.76 98.58 20.23C98.29 20.38 98.01 20.54 97.72 20.7C96.92 21.15 96.09 21.62 95.21 21.81C95.01 21.85 94.82 21.87 94.64 21.87C93.5 21.87 92.59 21.1 92 19.65L91.85 19.77C91.68 19.91 91.54 20.03 91.38 20.13C91.17 20.27 90.96 20.41 90.75 20.56C90.22 20.92 89.68 21.3 89.08 21.55C88.5 21.8 88 21.92 87.54 21.92C86.47 21.92 85.71 21.27 85.15 19.87C84.83 20.06 84.51 20.26 84.18 20.47C83.37 20.99 82.53 21.54 81.61 21.79C81.35 21.86 81.1 21.9 80.86 21.9C79.74 21.9 78.79 21.11 78.19 19.67C78.12 19.74 78.06 19.8 78 19.86C77.81 20.05 77.63 20.23 77.42 20.35C77.17 20.49 76.92 20.63 76.67 20.78C75.94 21.2 75.19 21.64 74.39 21.83C74.17 21.88 73.94 21.91 73.73 21.91C73.05 21.91 72.43 21.64 71.99 21.15C71.45 20.55 71.22 19.68 71.32 18.71C71.41 17.92 71.55 17.15 71.71 16.33C71.77 16.01 71.83 15.69 71.89 15.36C71.65 15.4 71.42 15.43 71.19 15.47C70.47 15.58 69.79 15.68 69.12 15.85C68.95 15.89 68.74 16.24 68.67 16.49C68.52 17.09 68.39 17.69 68.26 18.29C68.12 18.96 67.97 19.63 67.8 20.3C67.55 21.29 66.72 21.92 65.7 21.92C65.54 21.92 65.38 21.91 65.21 21.87C64.86 21.8 64.64 21.69 64.52 21.5C64.4 21.32 64.38 21.06 64.46 20.71C65.1 17.9 65.71 15.04 66.3 12.27L66.33 12.11C66.39 11.83 66.41 11.55 66.45 11.18C66.46 11.04 66.48 10.88 66.5 10.71C66.36 10.79 66.24 10.87 66.12 10.93C65.82 11.11 65.6 11.24 65.41 11.4C64.03 12.64 62.95 13.75 62.7 15.68C62.35 18.37 60.35 20.1 58.74 21.08C57.82 21.64 56.94 21.92 56.13 21.92C54.8 21.92 53.59 21.16 52.54 19.66C52.45 19.73 52.37 19.81 52.29 19.88C52.04 20.1 51.78 20.33 51.48 20.5L51.04 20.76C50.38 21.15 49.71 21.55 48.98 21.76C48.65 21.86 48.32 21.9 48.02 21.9C47.35 21.9 46.77 21.67 46.35 21.24C45.87 20.76 45.63 20.06 45.64 19.22C45.65 18.18 45.8 17.12 45.95 16.1C46.02 15.65 46.08 15.19 46.13 14.74C46.16 14.48 46.19 14.26 46.14 14.01L46.12 14.04C46.02 14.2 45.92 14.36 45.84 14.52L45.07 16C44.2 17.66 43.33 19.33 42.49 21.01C42.18 21.62 41.79 21.91 41.26 21.91C41.13 21.91 41 21.89 40.85 21.86C40.1 21.68 39.72 21.19 39.72 20.38V13.87L39.52 13.84L39.46 13.99C39.39 14.16 39.33 14.33 39.25 14.5C39.05 14.95 38.84 15.4 38.64 15.85C38.09 17.08 37.52 18.35 36.9 19.57C36.6 20.17 36.06 20.68 35.57 21.1C34.93 21.65 34.38 21.92 33.88 21.92C33.34 21.92 32.85 21.62 32.35 20.96C31.99 21.06 31.63 21.17 31.28 21.27C30.44 21.53 29.65 21.77 28.84 21.79C27.29 21.79 26.85 20.51 26.74 19.63C26.46 19.83 26.18 20.04 25.9 20.25C25.15 20.82 24.37 21.4 23.51 21.76C23.22 21.88 22.95 21.94 22.69 21.94C21.87 21.94 21.16 21.34 20.26 19.89C20.18 19.96 20.09 20.02 20.01 20.09C19.76 20.29 19.51 20.49 19.24 20.67L19 20.82C18.55 21.11 18.08 21.41 17.57 21.61C17.04 21.81 16.54 21.92 16.06 21.92C15.26 21.92 14.6 21.63 14.15 21.1C13.61 20.46 13.42 19.51 13.61 18.41C13.86 16.97 14.17 15.53 14.48 14.13C14.61 13.53 14.74 12.93 14.87 12.33L16.64 3.91C16.68 3.72 16.71 3.52 16.73 3.33L16.75 3.16C16.25 3 15.87 2.89 15.62 2.89C15.22 2.89 15.1 3.14 14.79 4.15C13.6 8.13 12.26 12.64 10.14 16.73C9.55999 17.86 8.82999 18.88 7.99999 20C7.69999 20.41 7.25999 20.8 6.62999 21.21C5.91999 21.68 5.24999 21.92 4.64999 21.92C3.54999 21.92 2.72999 21.14 2.26999 19.66C2.24999 19.59 2.20999 19.52 2.15999 19.45L2.08999 19.34L2.07999 17.69C2.67999 16.65 3.40999 16.13 4.22999 16.13C4.69999 16.13 5.18999 16.3 5.68999 16.62L5.74999 16.66L5.62999 17.32C5.51999 17.9 5.41999 18.49 5.31999 19.07C5.30999 19.13 5.31999 19.2 5.34999 19.33C5.35999 19.38 5.36999 19.44 5.37999 19.51C5.53999 19.39 5.69999 19.29 5.84999 19.18C6.24999 18.91 6.59999 18.67 6.81999 18.36C7.00999 18.08 7.20999 17.79 7.40999 17.51C8.28999 16.25 9.19999 14.95 9.77999 13.55C10.78 11.14 11.66 8.62 12.5 6.19C12.84 5.2 13.19 4.21 13.54 3.22C13.57 3.15 13.57 3.07 13.58 2.99V2.96C13.39 2.93 13.2 2.91 13.01 2.91C12.25 2.91 11.62 3.19 11.19 3.73C10.61 4.45 10.44 5.54 10.71 6.8L10.73 6.88L10.7 6.89C10.3 7.07 9.90999 7.16 9.52999 7.16C8.39999 7.16 7.59999 6.34 7.47999 5.07C7.37999 3.95 7.64999 2.95 8.25999 2.26C8.82999 1.61 9.65999 1.24 10.66 1.19C10.95 1.18 11.24 1.17 11.54 1.17C12.62 1.17 13.73 1.26 14.8 1.34C15.45 1.39 16.1 1.44 16.75 1.47C17.22 1.49 17.69 1.51 18.15 1.52C18.81 1.54 19.48 1.57 20.14 1.61C20.33 1.62 21.01 1.74 21.04 2C21.08 2.34 20.94 2.71 20.77 3.05C20.67 3.26 20.54 3.46 20.42 3.66C20.22 3.98 20.03 4.28 19.96 4.61C19.11 8.39 18.3 12.25 17.52 15.98L17.26 17.23C17.18 17.61 17.11 18.02 17.17 18.38C17.21 18.65 17.42 18.97 17.63 19.09C17.74 19.15 17.88 19.18 18.06 19.18C18.94 19.18 20.18 18.45 20.31 17.86C20.79 15.71 21.25 13.56 21.7 11.41C21.72 11.29 21.72 11.16 21.71 11.06C21.71 11.04 21.71 11.02 21.71 11L20.6 10.52L20.66 10.42C20.74 10.29 20.81 10.15 20.88 10C21.04 9.66 21.2 9.32 21.49 9.14C22.28 8.66 23.08 8.34 23.81 8.22C23.95 8.2 24.07 8.19 24.19 8.19C24.6 8.19 24.92 8.32 25.12 8.57C25.36 8.87 25.43 9.33 25.31 9.91C25.13 10.75 24.95 11.6 24.77 12.44C24.48 13.76 24.18 15.12 23.92 16.47C23.89 16.63 23.84 16.81 23.78 16.98C23.57 17.67 23.37 18.31 24.34 18.63C24.45 18.67 24.58 18.69 24.71 18.69C25.64 18.69 26.8 17.74 27 16.81C27.24 15.7 27.48 14.58 27.71 13.47C27.95 12.33 28.19 11.19 28.44 10.06C28.7 8.88 29.54 8.18 30.69 8.18C30.81 8.18 30.93 8.19 31.05 8.2C31.47 8.25 31.72 8.37 31.86 8.57C32 8.77 32.03 9.05 31.94 9.45C31.43 11.66 30.96 13.93 30.51 16.11L30.33 16.98C30.24 17.42 30.15 17.89 30.18 18.34C30.2 18.64 30.38 19.01 30.53 19.06C30.59 19.08 30.66 19.09 30.75 19.09C30.97 19.09 31.25 19.01 31.44 18.89C31.65 18.75 31.81 18.51 31.97 18.27L32.1 18.08C32.51 17.47 33.05 17.15 33.65 17.15C34.05 17.15 34.48 17.29 34.92 17.57L34.98 17.61L34.9 18.02C34.82 18.42 34.75 18.82 34.67 19.23C34.67 19.24 34.73 19.39 34.74 19.43C36.85 17.6 37.59 15.15 38.31 12.78C38.53 12.05 38.76 11.3 39.02 10.58L38.89 10.38L36.02 11.49L35.97 11.44C35.48 10.88 35.32 10.12 35.55 9.44C35.77 8.82 36.29 8.39 36.99 8.27C37.52 8.18 38.11 8.13 38.78 8.13C39.47 8.13 40.18 8.18 40.87 8.22C41.23 8.24 41.6 8.27 41.96 8.29C42.22 8.3 42.46 8.98 42.47 9.25C42.55 10.85 42.61 12.45 42.67 14.05L42.74 16.05C42.75 16.29 42.77 16.54 42.92 16.83L43.02 16.66C43.15 16.44 43.27 16.22 43.4 16L44.64 13.74C45.38 12.39 46.12 11.03 46.87 9.68C47.23 9.02 47.86 8.15 49.03 8.15C49.14 8.15 49.25 8.16 49.36 8.17C49.66 8.21 49.99 8.28 50.18 8.52C50.32 8.71 50.36 8.99 50.3 9.39C49.96 11.49 49.68 13.63 49.41 15.71L49.2 17.32C49.08 18.19 49.12 18.7 49.33 18.95C49.45 19.1 49.64 19.18 49.92 19.2C49.98 19.21 50.03 19.21 50.09 19.21C50.68 19.21 51.29 18.95 51.72 18.53C52.07 18.18 52.26 17.76 52.25 17.34C52.24 14.44 53.2 11.94 55.12 9.89C56.26 8.68 57.54 8.06 58.93 8.06C59.31 8.06 59.7 8.11 60.1 8.2C60.68 8.34 61.19 8.72 61.69 9.09L61.98 9.3C62.17 9.44 62.23 9.93 62.12 10.13C62.02 10.32 61.69 10.5 61.45 10.5L61.35 10.49C60.83 10.36 60.28 10.23 59.75 10.23C59.04 10.23 58.47 10.45 57.95 10.91C56.77 11.98 56.07 13.45 55.89 15.27C55.79 16.28 55.87 17.35 56.12 18.29C56.31 19.02 56.77 19.44 57.38 19.44C57.73 19.44 58.11 19.3 58.46 19.02C59.83 17.98 60.44 16.53 60.26 14.71C60.24 14.51 59.96 14.17 59.78 14.14C58.67 13.91 58.76 13.04 58.82 12.41C58.9 11.59 59.41 11.08 60.27 10.95C60.41 10.93 60.54 10.92 60.67 10.92C61.34 10.92 61.89 11.21 62.75 12.03L63.01 11.82C63.27 11.62 63.54 11.41 63.8 11.2C64.09 10.97 64.38 10.73 64.66 10.48C65.28 9.96 65.93 9.42 66.6 8.94C67.16 8.54 67.83 8.34 68.29 8.25C68.52 8.2 68.73 8.18 68.91 8.18C69.35 8.18 69.69 8.31 69.9 8.57C70.16 8.89 70.22 9.39 70.08 10.06C69.9 10.92 69.72 11.78 69.52 12.72L69.28 13.86L69.97 13.81C70.73 13.76 71.44 13.71 72.15 13.62C72.23 13.61 72.39 13.31 72.47 13C72.64 12.32 72.78 11.64 72.93 10.96C73.01 10.6 73.08 10.24 73.16 9.88C73.35 9.01 73.9 8.46 74.77 8.26C75.03 8.2 75.26 8.17 75.46 8.17C75.83 8.17 76.1 8.28 76.27 8.49C76.49 8.76 76.54 9.2 76.41 9.82C76.25 10.59 76.09 11.36 75.92 12.12C75.54 13.9 75.15 15.74 74.81 17.56C74.72 18.06 74.81 18.77 75.07 18.98C75.18 19.07 75.38 19.12 75.64 19.12C75.99 19.12 76.36 19.03 76.56 18.98C77.52 18.73 77.93 18.19 77.92 17.16C77.91 14.29 78.88 11.83 80.81 9.82C81.91 8.67 83.17 8.09 84.54 8.09C85.3 8.09 86.11 8.27 86.95 8.63C87.01 8.66 87.09 8.67 87.18 8.67C87.35 8.67 87.53 8.63 87.67 8.59C87.82 8.55 87.97 8.48 88.11 8.42C88.3 8.34 88.49 8.25 88.7 8.21C88.92 8.17 89.12 8.16 89.29 8.16C89.67 8.16 89.93 8.25 90.08 8.45C90.28 8.7 90.31 9.11 90.17 9.77L89.75 11.74C89.35 13.63 88.94 15.58 88.57 17.51C88.47 18.04 88.54 18.78 88.78 18.95C88.93 19.05 89.15 19.1 89.44 19.1C89.72 19.1 90.05 19.05 90.36 18.96C91.32 18.68 91.72 18.13 91.72 17.12C91.71 14.47 92.57 12.13 94.29 10.16C95.5 8.78 96.8 8.11 98.28 8.11C99.06 8.11 99.87 8.29 100.78 8.66C100.84 8.68 100.91 8.7 100.99 8.7C101.15 8.7 101.34 8.65 101.48 8.58C101.97 8.32 102.43 8.19 102.88 8.19C103.34 8.19 103.8 8.33 104.23 8.6L104.28 8.63V8.89L104 10.02C103.81 10.78 103.62 11.53 103.44 12.29C103.13 13.63 102.83 14.97 102.54 16.31C101.91 19.19 101.26 22.16 100.41 25.03C98.77 30.49 96.32 32.43 91.05 32.43C90.73 32.43 90.4 32.42 90.05 32.41C86.35 32.25 82.61 31.81 78.99 31.38C78.19 31.29 75.99 31.03 75.99 31.03C68.28 30.14 60.31 29.23 52.44 29.23C49.16 29.23 46.12 29.38 43.18 29.7C36.3 30.44 29.33 31.41 22.59 32.35C19.9 32.73 17.2 33.1 14.5 33.46C13.22 33.63 11.93 33.85 10.67 34.07C10.07 34.17 9.45999 34.28 8.84999 34.37L8.73999 34.39L8.69999 34.23ZM85.53 10.17C84.38 10.17 83.43 10.71 82.71 11.76C81.61 13.37 81.36 15.21 81.26 16.81C81.25 17.67 81.42 18.29 81.77 18.64C81.99 18.86 82.28 18.97 82.63 18.97C83.73 18.94 85.06 17.85 85.28 16.85C85.45 16.06 85.61 15.27 85.78 14.47C86.02 13.3 86.26 12.14 86.52 10.97C86.58 10.7 86.57 10.51 86.49 10.4C86.41 10.28 86.24 10.22 85.95 10.19C85.8 10.18 85.67 10.17 85.53 10.17ZM99.33 10.17C98.12 10.17 97.18 10.73 96.43 11.88C95.4 13.48 95.16 15.29 95.06 17.01C95.07 17.05 95.07 17.13 95.07 17.23C95.07 17.48 95.08 17.83 95.24 18.05C95.53 18.44 96.06 18.88 96.51 18.93C96.55 18.93 96.59 18.94 96.63 18.94C97.58 18.94 98.86 17.85 99.07 16.86C99.23 16.12 99.38 15.38 99.53 14.64C99.77 13.44 100.02 12.21 100.3 11C100.37 10.71 100.36 10.52 100.27 10.4C100.18 10.28 100.01 10.22 99.67 10.19C99.57 10.18 99.45 10.17 99.33 10.17Z" fill="#C20E1A"/>
<path d="M11.53 1.26C13.26 1.26 15 1.48 16.73 1.56C17.86 1.62 18.99 1.63 20.12 1.7C20.41 1.72 20.91 1.86 20.92 1.99C20.96 2.31 20.81 2.67 20.66 2.99C20.41 3.53 19.96 4.01 19.83 4.57C18.89 8.77 18.01 12.98 17.12 17.19C17.04 17.58 16.96 17.99 17.02 18.37C17.07 18.66 17.28 19.01 17.53 19.15C17.66 19.22 17.82 19.26 18.01 19.26C18.88 19.26 20.21 18.53 20.36 17.85C20.84 15.7 21.3 13.55 21.75 11.4C21.79 11.22 21.76 11.02 21.76 10.89C21.37 10.72 21.03 10.58 20.69 10.43C20.95 10.01 21.11 9.42 21.48 9.19C22.17 8.77 22.97 8.41 23.76 8.28C23.89 8.26 24.01 8.25 24.12 8.25C24.98 8.25 25.34 8.85 25.14 9.84C24.69 12.03 24.17 14.2 23.75 16.4C23.6 17.19 22.9 18.25 24.24 18.69C24.37 18.73 24.5 18.75 24.64 18.75C25.62 18.75 26.82 17.79 27.03 16.79C27.52 14.54 27.98 12.29 28.47 10.04C28.72 8.89 29.54 8.24 30.61 8.24C30.72 8.24 30.84 8.25 30.96 8.26C31.65 8.34 31.94 8.61 31.76 9.38C31.19 11.88 30.67 14.4 30.15 16.92C30.06 17.37 29.97 17.85 30 18.3C30.02 18.59 30.2 19.03 30.42 19.11C30.49 19.14 30.58 19.15 30.67 19.15C30.92 19.15 31.21 19.06 31.41 18.93C31.7 18.75 31.89 18.39 32.09 18.09C32.49 17.51 32.99 17.21 33.56 17.21C33.94 17.21 34.34 17.34 34.77 17.61C34.67 18.12 34.57 18.64 34.48 19.16C34.47 19.22 34.52 19.28 34.61 19.55C37.52 17.12 37.9 13.63 39.05 10.5C38.98 10.39 38.91 10.29 38.84 10.18C37.89 10.55 36.94 10.92 35.96 11.3C35.05 10.27 35.41 8.57 36.92 8.3C37.5 8.2 38.09 8.16 38.69 8.16C39.74 8.16 40.81 8.27 41.86 8.32C42.02 8.33 42.26 8.88 42.27 9.18C42.39 11.45 42.46 13.71 42.55 15.98C42.56 16.29 42.6 16.6 42.83 16.97C43.02 16.64 43.21 16.32 43.4 15.98C44.55 13.87 45.7 11.76 46.87 9.66C47.34 8.82 47.94 8.18 48.94 8.18C49.04 8.18 49.15 8.19 49.26 8.2C49.93 8.28 50.23 8.5 50.1 9.3C49.68 11.94 49.35 14.59 49 17.23C48.81 18.66 49.03 19.17 49.82 19.23C49.88 19.23 49.94 19.24 50 19.24C51.18 19.24 52.27 18.31 52.27 17.26C52.26 14.43 53.17 11.95 55.11 9.88C56.16 8.77 57.4 8.08 58.84 8.08C59.21 8.08 59.59 8.13 59.98 8.22C60.65 8.38 61.25 8.89 61.83 9.3C61.97 9.4 62.03 9.82 61.93 10C61.84 10.16 61.55 10.32 61.35 10.32C61.32 10.32 61.3 10.32 61.28 10.31C60.73 10.17 60.18 10.05 59.65 10.05C59 10.05 58.37 10.23 57.78 10.76C56.47 11.94 55.86 13.5 55.69 15.18C55.59 16.19 55.66 17.26 55.92 18.23C56.13 19.04 56.66 19.46 57.28 19.46C57.64 19.46 58.04 19.32 58.43 19.02C59.88 17.92 60.44 16.4 60.27 14.62C60.25 14.37 59.94 14 59.71 13.95C58.73 13.74 58.76 13.04 58.83 12.33C58.91 11.53 59.41 11.08 60.19 10.96C60.32 10.94 60.45 10.93 60.57 10.93C61.23 10.93 61.79 11.25 62.64 12.07C63.01 11.78 63.39 11.49 63.77 11.19C64.7 10.44 65.6 9.63 66.57 8.94C67.04 8.6 67.64 8.39 68.22 8.27C68.44 8.22 68.64 8.2 68.82 8.2C69.76 8.2 70.12 8.81 69.89 9.96C69.64 11.2 69.37 12.43 69.06 13.89C70.14 13.81 71.12 13.77 72.08 13.64C72.25 13.62 72.42 13.2 72.49 12.94C72.75 11.9 72.96 10.86 73.19 9.82C73.38 8.99 73.89 8.47 74.72 8.28C74.97 8.22 75.19 8.19 75.39 8.19C76.17 8.19 76.45 8.69 76.24 9.71C75.7 12.29 75.13 14.86 74.64 17.45C74.55 17.94 74.62 18.72 74.93 18.97C75.08 19.09 75.31 19.13 75.56 19.13C75.87 19.13 76.22 19.06 76.5 18.99C77.44 18.75 77.94 18.22 77.94 17.07C77.93 14.31 78.85 11.83 80.8 9.8C81.9 8.66 83.12 8.1 84.46 8.1C85.21 8.1 86 8.28 86.83 8.63C86.91 8.67 87.01 8.68 87.1 8.68C87.27 8.68 87.46 8.64 87.62 8.6C87.97 8.51 88.29 8.28 88.64 8.23C88.86 8.19 89.05 8.18 89.22 8.18C90.03 8.18 90.22 8.61 90.01 9.66C89.47 12.24 88.9 14.81 88.41 17.4C88.31 17.91 88.36 18.73 88.66 18.94C88.84 19.06 89.1 19.11 89.38 19.11C89.7 19.11 90.04 19.05 90.32 18.97C91.23 18.71 91.76 18.19 91.75 17.03C91.74 14.46 92.57 12.11 94.29 10.14C95.48 8.78 96.75 8.12 98.21 8.12C98.97 8.12 99.79 8.3 100.67 8.66C100.74 8.69 100.83 8.7 100.92 8.7C101.1 8.7 101.31 8.65 101.45 8.57C101.91 8.32 102.36 8.19 102.8 8.19C103.23 8.19 103.67 8.31 104.1 8.58V8.78C103.82 9.9 103.53 11.03 103.26 12.16C102.26 16.41 101.47 20.72 100.22 24.9C98.62 30.26 96.2 32.23 90.96 32.23C90.64 32.23 90.31 32.22 89.97 32.21C85.48 32.02 81 31.42 76.53 30.9C68.49 29.98 60.44 29.03 52.37 29.03C49.28 29.03 46.19 29.17 43.09 29.5C33.51 30.53 23.97 31.98 14.41 33.26C12.53 33.51 10.67 33.86 8.76 34.17C8.35 30.26 5.38 28.29 2.62 25.96C5.57 26.22 8.35 26.49 11.12 26.7C16.72 27.13 22.32 27.35 27.93 27.35C32.19 27.35 36.45 27.22 40.72 26.94C44.66 26.68 48.6 26.54 52.53 26.54C62.16 26.54 71.75 27.42 81.24 29.64C83.26 30.11 85.29 30.37 87.33 30.37C89 30.37 90.68 30.2 92.36 29.84C94.36 29.42 95.87 28.49 96.52 26.42C97.22 24.21 98 22.02 98.7 19.96C97.51 20.55 96.38 21.39 95.13 21.65C94.94 21.69 94.76 21.71 94.58 21.71C93.36 21.71 92.5 20.77 91.98 19.42C91.7 19.64 91.49 19.83 91.25 19.98C90.5 20.47 89.78 21.05 88.96 21.39C88.4 21.63 87.9 21.75 87.46 21.75C86.38 21.75 85.65 21.04 85.13 19.66C83.95 20.33 82.81 21.27 81.51 21.63C81.26 21.7 81.02 21.73 80.79 21.73C79.58 21.73 78.7 20.8 78.16 19.42C77.83 19.72 77.6 20.02 77.3 20.18C76.32 20.71 75.36 21.41 74.3 21.65C74.08 21.7 73.87 21.73 73.66 21.73C72.16 21.73 71.16 20.42 71.36 18.65C71.49 17.5 71.74 16.37 71.95 15.16C70.91 15.33 69.95 15.45 69.03 15.67C68.81 15.72 68.57 16.11 68.51 16.39C68.19 17.65 67.97 18.94 67.65 20.2C67.4 21.18 66.59 21.75 65.65 21.75C65.5 21.75 65.34 21.73 65.18 21.7C64.56 21.58 64.36 21.32 64.51 20.66C65.16 17.8 65.77 14.93 66.39 12.05C66.48 11.62 66.5 11.17 66.58 10.42C65.98 10.8 65.6 10.97 65.3 11.24C63.98 12.42 62.81 13.55 62.55 15.58C62.25 17.9 60.67 19.67 58.64 20.91C57.73 21.46 56.88 21.74 56.08 21.74C54.75 21.74 53.56 20.97 52.51 19.44C52.13 19.75 51.79 20.1 51.38 20.34C50.58 20.8 49.77 21.33 48.9 21.59C48.57 21.68 48.26 21.73 47.97 21.73C46.61 21.73 45.67 20.75 45.69 19.16C45.71 17.67 46.01 16.18 46.18 14.69C46.22 14.38 46.26 14.07 46.11 13.7C45.97 13.94 45.81 14.17 45.69 14.42C44.56 16.58 43.42 18.73 42.33 20.91C42.06 21.45 41.71 21.75 41.2 21.75C41.08 21.75 40.95 21.73 40.82 21.7C40.09 21.53 39.77 21.04 39.77 20.32C39.77 18.12 39.77 15.92 39.77 13.72C39.65 13.7 39.52 13.68 39.4 13.66C39.3 13.91 39.21 14.15 39.1 14.39C38.33 16.08 37.6 17.8 36.76 19.46C36.47 20.03 35.95 20.53 35.45 20.96C34.83 21.5 34.31 21.76 33.83 21.76C33.29 21.76 32.82 21.43 32.35 20.79C31.1 21.11 29.96 21.61 28.8 21.63H28.76C27.34 21.63 26.89 20.43 26.79 19.39C25.7 20.13 24.66 21.09 23.43 21.61C23.15 21.73 22.89 21.79 22.65 21.79C21.79 21.79 21.09 21.08 20.25 19.7C19.88 19.98 19.53 20.29 19.14 20.54C18.61 20.88 18.08 21.25 17.49 21.48C16.96 21.68 16.47 21.78 16.02 21.78C14.35 21.78 13.32 20.46 13.67 18.39C14.02 16.35 14.5 14.34 14.93 12.32C15.52 9.51 16.11 6.7 16.7 3.89C16.76 3.61 16.78 3.32 16.82 3.05C16.24 2.86 15.85 2.75 15.57 2.75C15.08 2.75 14.94 3.12 14.65 4.09C13.37 8.37 12.07 12.66 10.01 16.65C9.42 17.8 8.65 18.86 7.88 19.91C7.53 20.38 7.04 20.77 6.54 21.1C5.84 21.56 5.19 21.79 4.62 21.79C3.58 21.79 2.79 21.04 2.34 19.6C2.3 19.48 2.22 19.37 2.16 19.26V17.66C2.73 16.69 3.43 16.2 4.21 16.2C4.65 16.2 5.12 16.36 5.61 16.68C5.47 17.46 5.32 18.24 5.19 19.02C5.17 19.14 5.22 19.27 5.28 19.66C5.9 19.18 6.54 18.88 6.88 18.38C7.95 16.82 9.13 15.27 9.85 13.55C11.26 10.17 12.38 6.67 13.62 3.22C13.66 3.1 13.66 2.97 13.68 2.84C13.44 2.79 13.22 2.77 13 2.77C11.13 2.77 10.1 4.43 10.6 6.79C10.21 6.97 9.82 7.05 9.47 7.05C8.43 7.05 7.64 6.31 7.52 5.05C7.33 2.96 8.47 1.38 10.6 1.28C10.95 1.27 11.24 1.26 11.53 1.26ZM96.64 19.04C97.67 19.04 98.97 17.87 99.18 16.87C99.6 14.92 99.95 12.96 100.41 11.02C100.58 10.3 100.29 10.13 99.69 10.08C99.57 10.07 99.44 10.06 99.32 10.06C98.02 10.06 97.05 10.71 96.34 11.82C95.37 13.32 95.07 15.01 94.95 17C94.98 17.22 94.91 17.78 95.15 18.11C95.46 18.53 96.01 18.98 96.5 19.03C96.55 19.04 96.6 19.04 96.64 19.04ZM82.63 19.08C82.65 19.08 82.66 19.08 82.68 19.08C83.75 19.05 85.15 17.94 85.38 16.88C85.8 14.92 86.17 12.96 86.62 11.01C86.77 10.36 86.53 10.16 85.96 10.1C85.81 10.08 85.67 10.08 85.54 10.08C84.3 10.08 83.35 10.67 82.64 11.71C81.57 13.28 81.28 15.09 81.17 16.81C81.14 18.31 81.67 19.08 82.63 19.08ZM11.53 1.06C11.24 1.06 10.94 1.07 10.65 1.08C9.62 1.13 8.76 1.51 8.18 2.19C7.56 2.91 7.27 3.94 7.38 5.08C7.5 6.41 8.35 7.27 9.53 7.27C9.92 7.27 10.33 7.17 10.75 6.99L10.9 6.92L10.86 6.75C10.6 5.52 10.76 4.46 11.32 3.76C11.73 3.25 12.33 2.98 13.06 2.98C13.21 2.98 13.36 2.99 13.51 3.01C13.5 3.06 13.5 3.11 13.48 3.14C13.13 4.13 12.78 5.12 12.44 6.11C11.59 8.54 10.72 11.06 9.72 13.47C9.14 14.86 8.23 16.16 7.36 17.42C7.16 17.7 6.96 17.99 6.77 18.27C6.56 18.57 6.22 18.8 5.83 19.06C5.72 19.14 5.6 19.21 5.49 19.29C5.49 19.28 5.49 19.28 5.49 19.27C5.47 19.16 5.46 19.09 5.46 19.05C5.56 18.46 5.66 17.88 5.77 17.29L5.88 16.71L5.9 16.58L5.78 16.5C5.26 16.16 4.76 15.99 4.27 15.99C3.41 15.99 2.64 16.53 2.04 17.55L2 17.6V17.66V19.26V19.31L2.03 19.36C2.05 19.4 2.07 19.44 2.1 19.48C2.14 19.55 2.18 19.61 2.2 19.67C2.8 21.6 3.88 22.01 4.68 22.01C5.3 22.01 5.99 21.76 6.72 21.28C7.36 20.86 7.8 20.46 8.11 20.04C8.94 18.91 9.67 17.89 10.25 16.75C12.37 12.65 13.72 8.14 14.91 4.15C15.21 3.14 15.32 2.96 15.63 2.96C15.86 2.96 16.21 3.06 16.65 3.2C16.65 3.23 16.64 3.26 16.64 3.29C16.62 3.48 16.59 3.67 16.56 3.86C16.2 5.6 15.83 7.34 15.46 9.08L14.79 12.28C14.66 12.88 14.53 13.48 14.4 14.08C14.09 15.48 13.78 16.93 13.53 18.36C13.34 19.48 13.53 20.47 14.09 21.13C14.56 21.69 15.25 21.99 16.08 21.99C16.57 21.99 17.09 21.88 17.62 21.68C18.13 21.48 18.61 21.17 19.06 20.88L19.3 20.73C19.58 20.55 19.84 20.35 20.09 20.15C20.14 20.11 20.19 20.07 20.24 20.03C21.13 21.45 21.85 22.03 22.7 22.03C22.98 22.03 23.26 21.97 23.57 21.84C24.45 21.47 25.23 20.88 25.99 20.31C26.22 20.14 26.45 19.96 26.69 19.8C26.92 21.14 27.66 21.88 28.82 21.88H28.87C29.69 21.86 30.49 21.62 31.34 21.36C31.67 21.26 32 21.15 32.34 21.07C32.85 21.71 33.35 22.01 33.91 22.01C34.44 22.01 35 21.74 35.66 21.16C36.16 20.73 36.7 20.21 37.02 19.6C37.64 18.37 38.21 17.1 38.76 15.87C38.96 15.42 39.16 14.97 39.37 14.52C39.45 14.35 39.51 14.18 39.58 14.01L39.61 13.93H39.64V15.6C39.64 17.18 39.64 18.77 39.64 20.35C39.64 21.2 40.06 21.75 40.85 21.94C41 21.98 41.15 21.99 41.28 21.99C41.85 21.99 42.28 21.68 42.6 21.04C43.44 19.36 44.33 17.66 45.19 16.02L45.96 14.55C46 14.47 46.05 14.39 46.09 14.31C46.09 14.42 46.08 14.54 46.06 14.66C46 15.15 45.94 15.6 45.87 16.05C45.72 17.07 45.57 18.13 45.56 19.19C45.55 20.06 45.81 20.78 46.3 21.28C46.74 21.73 47.35 21.97 48.05 21.97C48.37 21.97 48.7 21.92 49.04 21.82C49.78 21.61 50.46 21.2 51.12 20.81C51.27 20.72 51.41 20.64 51.56 20.55C51.86 20.38 52.13 20.14 52.38 19.92C52.44 19.87 52.49 19.82 52.55 19.77C53.61 21.23 54.82 21.98 56.16 21.98C56.99 21.98 57.89 21.69 58.82 21.12C60.45 20.13 62.47 18.38 62.82 15.64C63.07 13.74 64.13 12.65 65.5 11.43C65.68 11.27 65.89 11.15 66.19 10.97C66.25 10.93 66.32 10.89 66.39 10.85C66.38 10.94 66.37 11.03 66.36 11.12C66.33 11.48 66.3 11.77 66.24 12.04C65.63 14.87 65.02 17.79 64.36 20.64C64.27 21.03 64.29 21.3 64.43 21.51C64.61 21.78 64.95 21.88 65.19 21.92C65.36 21.95 65.53 21.97 65.7 21.97C66.77 21.97 67.63 21.3 67.9 20.27C68.07 19.6 68.22 18.91 68.36 18.25C68.48 17.66 68.62 17.05 68.76 16.46C68.82 16.2 69.03 15.92 69.13 15.89C69.79 15.73 70.47 15.62 71.19 15.51C71.37 15.48 71.56 15.45 71.74 15.42C71.69 15.7 71.64 15.98 71.58 16.26C71.43 17.08 71.28 17.85 71.19 18.64C71.08 19.64 71.32 20.54 71.88 21.16C72.34 21.67 72.98 21.95 73.7 21.95C73.92 21.95 74.15 21.92 74.38 21.87C75.2 21.68 75.95 21.24 76.69 20.81C76.94 20.66 77.19 20.52 77.44 20.38C77.67 20.26 77.85 20.07 78.04 19.88C78.06 19.85 78.09 19.83 78.12 19.8C78.74 21.19 79.69 21.95 80.82 21.95C81.07 21.95 81.33 21.91 81.6 21.84C82.53 21.58 83.38 21.04 84.2 20.51C84.48 20.33 84.77 20.14 85.06 19.97C85.62 21.32 86.42 21.97 87.5 21.97C87.97 21.97 88.49 21.85 89.08 21.6C89.68 21.34 90.23 20.96 90.76 20.6C90.97 20.46 91.18 20.31 91.39 20.17C91.56 20.06 91.71 19.94 91.88 19.8C91.89 19.79 91.91 19.78 91.92 19.77C92.53 21.16 93.47 21.93 94.61 21.93C94.8 21.93 95 21.91 95.21 21.86C96.11 21.67 96.94 21.19 97.75 20.74C97.95 20.62 98.16 20.51 98.37 20.39C98.21 20.85 98.05 21.31 97.89 21.78C97.38 23.27 96.85 24.81 96.35 26.36C95.78 28.16 94.54 29.18 92.34 29.64C90.71 29.99 89.03 30.16 87.35 30.16C85.38 30.16 83.34 29.92 81.31 29.44C72.4 27.35 62.99 26.33 52.56 26.33C48.81 26.33 44.83 26.47 40.74 26.73C36.57 27 32.27 27.14 27.96 27.14C22.54 27.14 16.89 26.92 11.16 26.49C9.27 26.35 7.4 26.18 5.43 26C4.52 25.92 3.6 25.83 2.66 25.75L2.01 25.69L2.51 26.11C2.83 26.38 3.16 26.65 3.48 26.92C5.92 28.92 8.22 30.81 8.58 34.18L8.6 34.4L8.82 34.36C9.43 34.26 10.03 34.16 10.63 34.06C11.89 33.85 13.19 33.63 14.47 33.45C17.17 33.09 19.86 32.71 22.55 32.34C29.29 31.4 36.26 30.43 43.14 29.69C46.09 29.37 49.11 29.22 52.4 29.22C60.27 29.22 68.24 30.14 75.95 31.02L76.54 31.09C77.34 31.18 78.14 31.28 78.93 31.37C82.55 31.8 86.3 32.24 89.99 32.4C90.33 32.42 90.67 32.42 90.99 32.42C96.25 32.42 98.82 30.39 100.45 24.95C101.31 22.09 101.96 19.11 102.58 16.23C102.87 14.91 103.17 13.54 103.48 12.2C103.66 11.43 103.86 10.66 104.05 9.89L104.32 8.83L104.33 8.81V8.78V8.58V8.46L104.23 8.4C103.77 8.12 103.3 7.97 102.82 7.97C102.35 7.97 101.87 8.1 101.37 8.38C101.25 8.44 101.08 8.49 100.94 8.49C100.87 8.49 100.81 8.48 100.76 8.46C99.84 8.08 99.01 7.9 98.22 7.9C96.71 7.9 95.37 8.58 94.15 9.99C92.42 11.98 91.54 14.34 91.56 17.02C91.57 17.99 91.19 18.49 90.28 18.76C89.98 18.85 89.66 18.9 89.39 18.9C89.12 18.9 88.92 18.85 88.79 18.76C88.61 18.63 88.53 17.96 88.63 17.43C88.99 15.5 89.41 13.54 89.81 11.65C89.95 11 90.09 10.35 90.22 9.69C90.36 9 90.33 8.56 90.1 8.29C89.92 8.07 89.64 7.97 89.22 7.97C89.05 7.97 88.85 7.99 88.61 8.03C88.39 8.06 88.19 8.16 87.99 8.24C87.84 8.31 87.71 8.37 87.57 8.41C87.43 8.45 87.26 8.49 87.1 8.49C87.02 8.49 86.96 8.48 86.91 8.46C86.06 8.1 85.24 7.91 84.46 7.91C83.06 7.91 81.78 8.5 80.65 9.67C78.7 11.69 77.72 14.18 77.73 17.08C77.73 18.06 77.36 18.56 76.44 18.8C76.25 18.85 75.89 18.93 75.55 18.93C75.26 18.93 75.12 18.87 75.05 18.81C74.84 18.64 74.74 17.99 74.83 17.49C75.17 15.67 75.56 13.84 75.94 12.06C76.1 11.29 76.27 10.52 76.43 9.75C76.57 9.1 76.51 8.63 76.27 8.33C76.08 8.09 75.78 7.97 75.38 7.97C75.17 7.97 74.93 8 74.67 8.07C73.77 8.28 73.19 8.87 72.99 9.77C72.91 10.12 72.83 10.48 72.76 10.83C72.61 11.51 72.46 12.21 72.29 12.89C72.22 13.16 72.09 13.4 72.03 13.44C71.35 13.53 70.63 13.58 69.87 13.63C69.69 13.64 69.51 13.65 69.33 13.67L69.55 12.62C69.75 11.7 69.93 10.86 70.1 10.01C70.25 9.31 70.18 8.77 69.89 8.43C69.66 8.15 69.3 8 68.82 8C68.63 8 68.41 8.02 68.18 8.07C67.71 8.17 67.03 8.37 66.45 8.78C65.78 9.26 65.13 9.8 64.51 10.32C64.22 10.56 63.93 10.8 63.64 11.04C63.38 11.25 63.12 11.45 62.86 11.65L62.66 11.81C61.83 11.03 61.25 10.73 60.58 10.73C60.45 10.73 60.31 10.74 60.17 10.76C59.26 10.9 58.72 11.45 58.63 12.32C58.56 12.96 58.47 13.92 59.67 14.17C59.8 14.2 60.05 14.48 60.07 14.65C60.24 16.44 59.64 17.85 58.31 18.87C57.97 19.13 57.62 19.26 57.29 19.26C56.73 19.26 56.31 18.87 56.13 18.19C55.88 17.26 55.8 16.2 55.9 15.21C56.08 13.42 56.76 11.97 57.92 10.92C58.41 10.47 58.96 10.27 59.65 10.27C60.18 10.27 60.72 10.39 61.23 10.53C61.27 10.54 61.31 10.54 61.35 10.54C61.63 10.54 61.99 10.34 62.11 10.11C62.25 9.86 62.19 9.32 61.94 9.15C61.84 9.08 61.75 9.01 61.65 8.94C61.14 8.57 60.62 8.18 60.02 8.04C59.62 7.94 59.22 7.9 58.83 7.9C57.42 7.9 56.11 8.53 54.95 9.76C53.01 11.82 52.04 14.36 52.05 17.28C52.05 17.67 51.87 18.07 51.55 18.39C51.14 18.8 50.56 19.04 49.99 19.04C49.94 19.04 49.88 19.04 49.83 19.03C49.58 19.01 49.41 18.94 49.31 18.82C49.12 18.59 49.09 18.1 49.2 17.27L49.41 15.65C49.68 13.58 49.96 11.44 50.3 9.34C50.37 8.91 50.33 8.61 50.16 8.39C49.95 8.12 49.6 8.04 49.27 8C49.15 7.98 49.04 7.98 48.93 7.98C47.7 7.98 47.06 8.88 46.68 9.57C45.93 10.93 45.18 12.29 44.44 13.65L43.22 15.88C43.1 16.1 42.98 16.31 42.85 16.52C42.78 16.32 42.77 16.14 42.76 15.96C42.73 15.29 42.71 14.63 42.69 13.97C42.63 12.39 42.57 10.76 42.49 9.16C42.48 8.89 42.24 8.12 41.88 8.1C41.52 8.08 41.16 8.06 40.8 8.03C40.11 7.98 39.4 7.93 38.7 7.93C38.02 7.93 37.43 7.98 36.9 8.07C36.17 8.2 35.61 8.65 35.38 9.31C35.13 10.02 35.3 10.82 35.82 11.41L35.92 11.52L36.06 11.47L38.04 10.7L38.78 10.41L38.84 10.5C38.58 11.21 38.36 11.95 38.15 12.66C37.45 14.98 36.73 17.37 34.72 19.17C34.71 19.16 34.71 19.14 34.71 19.13C34.78 18.77 34.86 18.36 34.93 17.97L35 17.68L35.03 17.54L34.91 17.46C34.45 17.17 34.01 17.03 33.59 17.03C32.95 17.03 32.39 17.37 31.95 18C31.91 18.06 31.86 18.13 31.82 18.19C31.67 18.42 31.52 18.66 31.33 18.78C31.15 18.89 30.9 18.97 30.7 18.97C30.63 18.97 30.57 18.96 30.52 18.94C30.43 18.91 30.25 18.59 30.24 18.31C30.21 17.88 30.29 17.44 30.39 16.98L30.56 16.14C31.02 13.94 31.49 11.67 31.99 9.44C32.09 9.02 32.06 8.71 31.9 8.48C31.69 8.18 31.29 8.1 31.01 8.07C30.88 8.05 30.76 8.05 30.63 8.05C29.43 8.05 28.55 8.79 28.28 10.01C28.03 11.15 27.79 12.29 27.55 13.43C27.32 14.54 27.08 15.66 26.84 16.77C26.65 17.66 25.54 18.56 24.65 18.56C24.53 18.56 24.42 18.54 24.32 18.51C23.49 18.24 23.59 17.75 23.83 16.99C23.88 16.82 23.94 16.64 23.97 16.47C24.23 15.12 24.52 13.76 24.81 12.45C24.99 11.61 25.18 10.77 25.36 9.92C25.49 9.31 25.41 8.82 25.15 8.49C24.93 8.22 24.58 8.07 24.14 8.07C24.02 8.07 23.88 8.08 23.74 8.1C23 8.22 22.18 8.54 21.38 9.03C21.07 9.22 20.9 9.58 20.73 9.93C20.66 10.07 20.6 10.21 20.52 10.34L20.4 10.54L20.62 10.63L21.44 10.99L21.56 11.04C21.57 11.14 21.57 11.26 21.55 11.36C21.13 13.35 20.65 15.6 20.16 17.81C20.04 18.36 18.84 19.05 18.01 19.05C17.85 19.05 17.72 19.02 17.64 18.97C17.46 18.86 17.27 18.57 17.23 18.33C17.17 17.99 17.24 17.59 17.32 17.22L17.57 16.03C18.36 12.28 19.18 8.41 20.03 4.6C20.1 4.29 20.29 4 20.48 3.69C20.61 3.49 20.74 3.29 20.84 3.07C21.01 2.71 21.16 2.33 21.12 1.96C21.07 1.57 20.14 1.48 20.13 1.48C19.47 1.44 18.8 1.41 18.16 1.39C17.69 1.37 17.21 1.36 16.74 1.34C16.09 1.31 15.44 1.26 14.79 1.21C13.73 1.14 12.62 1.06 11.53 1.06ZM95.17 17C95.27 15.3 95.51 13.51 96.52 11.94C97.24 10.82 98.16 10.28 99.33 10.28C99.44 10.28 99.56 10.29 99.68 10.3C99.98 10.32 100.14 10.38 100.2 10.47C100.26 10.56 100.27 10.73 100.21 10.98C99.93 12.19 99.68 13.43 99.44 14.63C99.29 15.37 99.14 16.1 98.99 16.84C98.79 17.77 97.54 18.84 96.65 18.84C96.61 18.84 96.58 18.84 96.54 18.83C96.13 18.79 95.63 18.38 95.34 17.99C95.2 17.8 95.19 17.47 95.19 17.23C95.18 17.14 95.18 17.06 95.17 17ZM82.63 18.87C82.31 18.87 82.04 18.77 81.84 18.57C81.52 18.24 81.35 17.63 81.36 16.81C81.46 15.24 81.71 13.42 82.79 11.83C83.49 10.81 84.41 10.29 85.52 10.29C85.65 10.29 85.78 10.3 85.92 10.31C86.17 10.34 86.32 10.39 86.39 10.48C86.45 10.57 86.46 10.73 86.4 10.97C86.13 12.13 85.89 13.32 85.66 14.46C85.5 15.25 85.33 16.05 85.16 16.84C84.96 17.78 83.65 18.85 82.66 18.88L82.63 18.87Z" fill="white"/>
</svg>
