<svg width="33" height="32" viewBox="0 0 33 32" fill="none" xmlns="http://www.w3.org/2000/svg">
<path d="M13.5948 24.6612V24.6609C13.5948 23.3907 13.2181 22.149 12.5124 21.0928C11.8067 20.0367 10.8037 19.2135 9.63014 18.7274C8.4566 18.2413 7.16527 18.1141 5.91945 18.3619C4.67363 18.6097 3.52927 19.2214 2.63108 20.1196C1.73289 21.0178 1.12122 22.1622 0.873407 23.408C0.625598 24.6538 0.752783 25.9451 1.23888 27.1187C1.72497 28.2922 2.54815 29.2952 3.60431 30.0009C4.66046 30.7066 5.90217 31.0833 7.1724 31.0833V30.8335L7.17269 31.0833C8.87533 31.0813 10.5077 30.4041 11.7116 29.2001C12.9156 27.9962 13.5928 26.3639 13.5948 24.6612ZM5.02516 21.4474C5.66066 21.0227 6.40779 20.7961 7.17209 20.796C8.19683 20.7973 9.17921 21.2049 9.90381 21.9295C10.6284 22.6541 11.036 23.6365 11.0373 24.6612C11.0373 25.4255 10.8106 26.1727 10.386 26.8082C9.96128 27.4437 9.35766 27.9391 8.65144 28.2317C7.94522 28.5242 7.16811 28.6007 6.41839 28.4516C5.66866 28.3025 4.98 27.9344 4.43948 27.3938C3.89896 26.8533 3.53086 26.1647 3.38173 25.4149C3.2326 24.6652 3.30914 23.8881 3.60167 23.1819C3.89419 22.4757 4.38957 21.872 5.02516 21.4474ZM32.112 24.6612V24.6609C32.112 23.3907 31.7353 22.149 31.0296 21.0928C30.3239 20.0367 29.3209 19.2135 28.1473 18.7274C26.9738 18.2413 25.6824 18.1141 24.4366 18.3619C23.1908 18.6097 22.0464 19.2214 21.1483 20.1196C20.2501 21.0178 19.6384 22.1622 19.3906 23.408C19.1428 24.6538 19.27 25.9451 19.7561 27.1187C20.2422 28.2922 21.0653 29.2952 22.1215 30.0009C23.1776 30.7066 24.4193 31.0833 25.6896 31.0833V30.8341L25.6899 31.0833C27.3925 31.0813 29.0248 30.4041 30.2288 29.2001C31.4327 27.9962 32.11 26.3639 32.112 24.6612ZM23.5423 21.4474C24.1778 21.0227 24.925 20.7961 25.6893 20.796C26.714 20.7973 27.6964 21.2049 28.421 21.9295C29.1456 22.6541 29.5532 23.6365 29.5545 24.6612C29.5544 25.4255 29.3278 26.1727 28.9031 26.8082C28.4785 27.4437 27.8748 27.9391 27.1686 28.2317C26.4624 28.5242 25.6853 28.6007 24.9356 28.4516C24.1858 28.3025 23.4972 27.9344 22.9567 27.3938C22.4161 26.8533 22.048 26.1647 21.8989 25.4149C21.7498 24.6652 21.8263 23.8881 22.1188 23.1819C22.4114 22.4757 22.9068 21.872 23.5423 21.4474Z" fill="black" stroke="black" stroke-width="0.5"/>
<path d="M17.4597 27.997H17.7097V27.747V20.119V20.0154L17.6365 19.9422L11.6409 13.9466L16.004 9.58341L20.9709 14.5503L21.0441 14.6235H21.1477H27.747H27.997V14.3735V12.3161V12.0661H27.747H22.1041L17.6354 7.59743L17.6352 7.59722C17.2023 7.16525 16.6156 6.92266 16.004 6.92266C15.3924 6.92266 14.8058 7.16525 14.3728 7.59722L14.3726 7.59741L9.65488 12.3141L9.6547 12.3143C9.22233 12.7475 8.97949 13.3346 8.97949 13.9466C8.97949 14.5586 9.22233 15.1457 9.6547 15.5789L9.65488 15.579L15.1522 21.0754V27.747V27.997H15.4022H17.4597ZM22.089 8.45113L22.0893 8.45113C23.1101 8.44996 24.0887 8.04393 24.8105 7.32212C25.5324 6.60031 25.9384 5.62165 25.9395 4.60085V4.60056C25.9395 3.83899 25.7137 3.09453 25.2906 2.46131C24.8675 1.82808 24.2661 1.33455 23.5625 1.04311C22.8589 0.751668 22.0847 0.675414 21.3378 0.823989C20.5908 0.972564 19.9047 1.33929 19.3662 1.87781C18.8277 2.41632 18.461 3.10242 18.3124 3.84936C18.1638 4.59629 18.2401 5.37051 18.5315 6.07411C18.823 6.77771 19.3165 7.37908 19.9497 7.80219C20.5829 8.2253 21.3274 8.45113 22.089 8.45113Z" fill="black" stroke="black" stroke-width="0.5"/>
</svg>
