<svg width="39" height="48" viewBox="0 0 39 48" fill="none" xmlns="http://www.w3.org/2000/svg">
<path d="M19.6463 30.1248C18.1655 30.1248 17.3015 31.5336 17.3015 33.42C17.3015 35.3184 18.1919 36.66 19.6607 36.66C21.1415 36.66 21.9911 35.2488 21.9911 33.3624C21.9911 31.62 21.1559 30.1248 19.6463 30.1248Z" fill="#059C45"/>
<path d="M24 0H4.8C3.52696 0 2.30606 0.505713 1.40589 1.40589C0.505713 2.30606 0 3.52696 0 4.8V43.2C0 44.473 0.505713 45.6939 1.40589 46.5941C2.30606 47.4943 3.52696 48 4.8 48H33.6C34.873 48 36.0939 47.4943 36.9941 46.5941C37.8943 45.6939 38.4 44.473 38.4 43.2V14.4L24 0ZM12.372 37.0896C11.3496 37.9392 9.7968 38.34 7.8984 38.34C6.7584 38.34 5.9544 38.268 5.4072 38.196V28.6656C6.38873 28.5243 7.37958 28.4577 8.3712 28.4664C10.2144 28.4664 11.4096 28.7976 12.3432 29.5032C13.3512 30.252 13.9848 31.4472 13.9848 33.156C13.9848 35.016 13.308 36.2976 12.372 37.0896ZM19.548 38.4C16.668 38.4 14.9856 36.2256 14.9856 33.4608C14.9856 30.5544 16.8408 28.3824 19.7064 28.3824C22.6848 28.3824 24.312 30.612 24.312 33.2904C24.3096 36.4704 22.38 38.4 19.548 38.4ZM30.72 36.5712C31.38 36.5712 32.1144 36.4248 32.5488 36.2544L32.88 37.9656C32.4768 38.1672 31.5696 38.3832 30.3912 38.3832C27.0384 38.3832 25.3104 36.2976 25.3104 33.5328C25.3104 30.2232 27.6696 28.3824 30.6072 28.3824C31.7448 28.3824 32.6064 28.6128 32.9952 28.8144L32.5488 30.5568C31.9645 30.3153 31.3378 30.1929 30.7056 30.1968C28.9632 30.1968 27.6096 31.248 27.6096 33.408C27.6096 35.3496 28.7616 36.5712 30.72 36.5712ZM24 16.8H21.6V4.8L33.6 16.8H24Z" fill="#059C45"/>
<path d="M8.60131 30.1512C8.11411 30.1512 7.79731 30.1944 7.61011 30.2376V36.5856C7.79731 36.6288 8.09971 36.6288 8.37091 36.6288C10.3581 36.6432 11.6517 35.5512 11.6517 33.2328C11.6661 31.2168 10.4877 30.1512 8.60131 30.1512Z" fill="#059C45"/>
</svg>
