<svg width="34" height="31" viewBox="0 0 34 31" fill="none" xmlns="http://www.w3.org/2000/svg">
<path d="M23.3446 5.60922C24.8936 5.60922 26.1493 4.35355 26.1493 2.80461C26.1493 1.25567 24.8936 0 23.3446 0C21.7957 0 20.54 1.25567 20.54 2.80461C20.54 4.35355 21.7957 5.60922 23.3446 5.60922Z" fill="black"/>
<path d="M33.8618 14.7243V9.53575L26.8643 6.57689C25.4901 6.00194 23.8915 6.47873 23.0641 7.71276L21.6618 9.95644C20.7222 11.6112 18.9834 12.8452 16.8799 13.2098L16.9641 13.2939C17.9317 14.2615 19.0956 14.7944 20.4137 14.9346C21.5356 14.3457 22.5452 13.5604 23.3446 12.6348L24.1859 16.8418L22.5593 18.3843L21.2411 19.6324V28.7473C21.2411 29.5186 21.8721 30.1496 22.6434 30.1496C23.4147 30.1496 24.0457 29.5186 24.0457 28.7473V21.7358L26.9905 18.9312L29.2623 29.0138C29.4165 29.6729 30.0055 30.1496 30.6926 30.1496C31.6182 30.1496 32.3053 29.3083 32.123 28.4108L29.4025 14.7243L28.5331 10.3771L31.0572 11.3587V14.7243C31.0572 15.4956 31.6883 16.1266 32.4595 16.1266C33.2308 16.1266 33.8618 15.4956 33.8618 14.7243V14.7243ZM14.6362 10.8119C14.9447 11.0222 15.2953 11.1484 15.6459 11.2185C15.8282 11.2466 15.9965 11.2746 16.1788 11.2746C16.3611 11.2746 16.5434 11.2606 16.7116 11.2185C16.8939 11.1905 17.0622 11.1344 17.2305 11.0643C17.5671 10.924 17.8896 10.7277 18.156 10.4473C18.8432 9.76012 19.0956 8.80655 18.9273 7.9231C18.8291 7.40425 18.5767 6.8854 18.156 6.47873C17.8896 6.21229 17.5671 6.00194 17.2305 5.86171C17.0622 5.7916 16.8939 5.73551 16.7116 5.70746C16.5293 5.67941 16.3611 5.65137 16.1788 5.65137C16.0105 5.65137 15.8562 5.66539 15.688 5.69344C15.4916 5.72148 15.2953 5.77758 15.113 5.84769C14.7905 6.00194 14.468 6.21229 14.2015 6.47873C13.7808 6.8854 13.5284 7.40425 13.4303 7.9231C13.262 8.80655 13.5144 9.76012 14.2015 10.4473C14.3277 10.5875 14.482 10.6997 14.6362 10.8119V10.8119Z" fill="black"/>
<path d="M15.968 14.2757L13.1634 11.4711C13.0231 11.3308 12.8829 11.2186 12.7286 11.1065C12.422 10.9089 12.0786 10.7753 11.719 10.7138C11.5367 10.6717 11.3684 10.6577 11.1861 10.6577C10.4709 10.6577 9.75575 10.9382 9.20886 11.4851L4.52516 16.1688C3.95021 16.7437 3.65573 17.543 3.71182 18.3283C3.71182 18.5807 3.76791 18.8472 3.86607 19.0996L5.36654 23.2364L1.27181 27.3311C1.14198 27.461 1.03899 27.6151 0.968731 27.7847C0.898468 27.9543 0.862305 28.1361 0.862305 28.3198C0.862305 28.5034 0.898468 28.6852 0.968731 28.8548C1.03899 29.0244 1.14198 29.1785 1.27181 29.3084C1.53401 29.5706 1.88963 29.7179 2.26043 29.7179C2.44404 29.7179 2.62584 29.6817 2.79547 29.6115C2.9651 29.5412 3.11923 29.4382 3.24906 29.3084L8.21322 24.3442V21.2311L10.0222 22.9559V28.7475C10.0222 29.5187 10.6532 30.1498 11.4245 30.1498C12.1958 30.1498 12.8268 29.5187 12.8268 28.7475V21.7359L9.85392 18.763L13.1634 15.4536L14.159 16.4492C15.5893 17.8515 17.3563 18.8191 19.4737 19.1697C20.3712 19.324 21.1705 18.5387 21.1004 17.6272C21.0583 16.9541 20.5395 16.4072 19.8804 16.309C18.2958 16.0566 16.9917 15.2993 15.968 14.2757V14.2757Z" fill="black"/>
</svg>
