<svg width="27" height="34" viewBox="0 0 27 34" fill="none" xmlns="http://www.w3.org/2000/svg">
<path fill-rule="evenodd" clip-rule="evenodd" d="M25.5406 2.96536C25.3912 4.59646 24.9546 6.86758 24.5705 8.01254C23.7481 10.4633 21.4493 13.1153 20.1477 13.1153C19.6189 13.1153 19.2297 13.3933 19.2297 13.771C19.2297 15.7191 23.2388 13.3675 24.7936 10.5075C26.6691 7.05819 27.7451 0 26.3961 0C25.9884 0 25.7301 0.895772 25.5406 2.96536ZM9.95304 2.38479C9.37177 2.97498 8.89599 3.96736 8.89599 4.59034C8.89599 5.21331 9.37177 6.2057 9.95304 6.79589C10.5343 7.38607 11.5117 7.86915 12.1253 7.86915C13.5608 7.86915 15.3546 6.04788 15.3546 4.59034C15.3546 3.1328 13.5608 1.31153 12.1253 1.31153C11.5117 1.31153 10.5343 1.7946 9.95304 2.38479ZM19.7748 3.68582C18.3341 6.5585 15.6375 8.76973 12.2557 9.85218C10.1408 10.5289 9.51213 10.5587 7.3188 10.0839C5.01524 9.58506 4.68327 9.35904 3.33817 7.37165C2.257 5.77421 1.63482 5.23779 0.974328 5.33397C-0.455601 5.54251 -0.316096 6.75261 1.42255 9.20953C2.7513 11.0876 3.59522 11.753 6.14636 12.933L9.25207 14.3704L9.54055 17.1307C9.81956 19.8027 9.74981 20.0777 7.3765 25.6779C4.91793 31.4792 4.71083 32.7881 6.25228 32.7881C6.83312 32.7881 7.96165 31.3949 10.0331 28.1195C11.6577 25.552 13.1035 23.2752 13.2465 23.0605C13.3894 22.8455 14.2075 22.5093 15.0644 22.313L16.6226 21.9562L16.7423 27.883C16.828 32.1464 17.0127 33.8605 17.3998 33.9908C17.814 34.1307 17.938 32.7029 17.938 27.7969V21.4216H18.9839C20.0375 21.4216 20.4327 22.2889 21.6095 27.1827C21.9479 28.5908 23.0317 29.1154 23.8614 28.273C24.3789 27.7471 24.3634 26.9518 23.7503 22.6828C23.3572 19.9452 22.9059 17.5692 22.7471 17.4026C22.5886 17.2361 21.3951 17.0393 20.0952 16.9655L17.7309 16.8312L17.3989 14.4771C17.0687 12.1347 17.0773 12.1106 19.0631 9.66813C21.4278 6.7596 23.3425 3.00864 22.9684 2.018C22.3987 0.510621 21.0015 1.2407 19.7748 3.68582Z" fill="black"/>
</svg>
