<svg width="29" height="30" viewBox="0 0 29 30" fill="none" xmlns="http://www.w3.org/2000/svg">
<path d="M0.862305 0V30H3.40776V20H28.8623V0H0.862305ZM3.40776 2.5H7.22594V6.25H11.0441V2.5H14.8623V6.25H18.6805V2.5H22.4987V6.25H26.3168V10H22.4987V13.75H26.3168V17.5H22.4987V13.75H18.6805V17.5H14.8623V13.75H11.0441V17.5H7.22594V13.75H3.40776V10H7.22594V6.25H3.40776V2.5ZM7.22594 10V13.75H11.0441V10H7.22594ZM11.0441 10H14.8623V6.25H11.0441V10ZM14.8623 10V13.75H18.6805V10H14.8623ZM18.6805 10H22.4987V6.25H18.6805V10Z" fill="black"/>
</svg>
