<svg width="28" height="28" viewBox="0 0 28 28" fill="none" xmlns="http://www.w3.org/2000/svg">
<path d="M23.8712 4.10951C22.5766 2.80457 21.0359 1.76943 19.3384 1.06402C17.6409 0.358621 15.8204 -0.00302798 13.9821 1.90955e-05C12.1435 -0.00285754 10.3226 0.358858 8.6247 1.06424C6.92679 1.76962 5.38559 2.80467 4.09026 4.10951C-1.36342 9.5618 -1.36342 18.4368 4.09026 23.8905C5.38561 25.1957 6.92701 26.2309 8.62521 26.9363C10.3234 27.6418 12.1447 28.0033 13.9835 28C15.8217 28.0032 17.6422 27.6418 19.3396 26.9366C21.0371 26.2315 22.5778 25.1966 23.8726 23.8919C29.3263 18.4396 29.3263 9.5646 23.8712 4.10951ZM14.2339 2.81009H13.7318C13.8171 2.80869 13.8982 2.7975 13.9835 2.7975C14.0689 2.7975 14.1486 2.80869 14.2339 2.81009ZM22.7131 20.9937H19.5757L17.8161 24.5129C16.5886 24.9664 15.2907 25.1998 13.9821 25.2025C12.6711 25.2001 11.3709 24.9662 10.1412 24.5115L8.38579 21.0077H5.25961C4.10626 19.5738 3.32629 17.8764 2.98946 16.0673L5.58831 12.6013L3.88745 9.19813C4.43017 8.04359 5.16785 6.99125 6.06808 6.08733C7.32804 4.82296 8.8724 3.8786 10.572 3.33321L13.9807 5.60756L17.3909 3.33461C19.09 3.88038 20.6342 4.82415 21.8948 6.08733C22.7941 6.99018 23.5312 8.04105 24.074 9.19393L22.3732 12.6013L24.972 16.0673C24.6368 17.8706 23.8607 19.5629 22.7131 20.9937Z" fill="#A8E5F9"/>
<path d="M9.08514 12.6012L11.1833 18.1962H16.7782L18.8763 12.6012L13.9807 9.10437L9.08514 12.6012Z" fill="#A8E5F9"/>
</svg>
