<svg width="21" height="38" viewBox="0 0 21 38" fill="none" xmlns="http://www.w3.org/2000/svg">
<path d="M15.7751 12.5763C14.7469 11.4858 14.205 10.911 14.205 8.77078H6.24036C6.24036 10.9116 5.69851 11.4862 4.67003 12.5769C4.29492 12.9746 3.85507 13.4411 3.35316 14.0772L3.2536 14.2029C1.31022 16.666 0.266846 19.6123 0.266846 22.6341V24.6072C0.538989 24.4276 0.779248 24.2096 0.977637 23.9604C1.57915 23.2044 2.37559 22.5918 3.29817 22.1756C4.21102 21.7638 5.22022 21.5564 6.24037 21.5709C7.26051 21.5564 8.26971 21.7638 9.18256 22.1756C10.1053 22.5918 10.9018 23.2045 11.5033 23.9607C11.8064 24.3417 12.2078 24.6504 12.6728 24.8602C13.1377 25.0699 13.6523 25.1744 14.172 25.1646C14.194 25.1642 14.2161 25.1642 14.2381 25.1646C14.7578 25.1744 15.2724 25.0699 15.7373 24.8602C16.2023 24.6504 16.6037 24.3417 16.9068 23.9607C17.5795 23.1147 18.4948 22.4499 19.5545 22.0377C19.7518 21.961 19.9569 21.9234 20.1591 21.9212C20.0082 19.1505 18.9813 16.4709 17.1918 14.2029L17.0922 14.0772C16.5903 13.4408 16.1503 12.9742 15.7751 12.5763Z" fill="#A8E5F9"/>
<path d="M20.1785 24.9719C19.9066 25.1516 19.6665 25.3697 19.4683 25.619C18.8667 26.3752 18.0699 26.9881 17.1472 27.4044C16.2344 27.8162 15.2252 28.0235 14.205 28.009C13.1849 28.0235 12.1757 27.8162 11.2629 27.4044C10.3402 26.9881 9.54364 26.3755 8.9421 25.6193C8.63897 25.2383 8.2376 24.9296 7.77263 24.7198C7.30767 24.5101 6.79311 24.4056 6.27338 24.4154C6.25137 24.4158 6.22936 24.4158 6.20735 24.4154C5.68762 24.4056 5.17306 24.5101 4.7081 24.7198C4.24313 24.9296 3.84176 25.2383 3.53863 25.6193C2.86737 26.4627 1.95468 27.1261 0.898377 27.5381C0.692363 27.6185 0.477791 27.6561 0.266846 27.6552V33.7727C0.266846 34.7257 0.686412 35.6396 1.43325 36.3134C2.18008 36.9872 3.193 37.3658 4.24919 37.3658H16.1962C17.2524 37.3658 18.2653 36.9872 19.0121 36.3134C19.759 35.6396 20.1785 34.7257 20.1785 33.7727V24.9719Z" fill="#A8E5F9"/>
<path d="M6.24029 6.07597H14.0628V2.31904C14.0628 1.8066 13.8567 1.31516 13.49 0.952811C13.1232 0.590465 12.6258 0.386902 12.1071 0.386902H8.19591C7.67725 0.386902 7.17983 0.590465 6.81308 0.952811C6.44633 1.31516 6.24029 1.8066 6.24029 2.31904V6.07597Z" fill="#A8E5F9"/>
</svg>
