<svg width="35" height="31" viewBox="0 0 35 31" fill="none" xmlns="http://www.w3.org/2000/svg">
<path fill-rule="evenodd" clip-rule="evenodd" d="M23.6369 0.0193059C22.9083 0.0509484 22.879 0.0565058 22.6716 0.202151C22.554 0.284762 22.3855 0.40237 22.2973 0.463502C22.2091 0.524634 21.9988 0.601087 21.8299 0.63338C21.6017 0.676989 21.4493 0.747583 21.2361 0.908499C20.9554 1.12038 20.8508 1.16715 20.4112 1.27714C20.2211 1.32471 19.9438 1.57454 18.1518 3.31263C16.7291 4.69258 16.0445 5.32242 15.896 5.38796C15.6345 5.50337 15.0137 5.51718 14.7578 5.41324C14.6617 5.37419 14.469 5.25468 14.3297 5.14759C14.1614 5.01831 13.9795 4.93185 13.7882 4.89024C13.6297 4.8558 13.4288 4.77819 13.3418 4.71781C13.2548 4.65743 13.0884 4.54127 12.9721 4.45961C12.7644 4.31372 12.746 4.31056 11.9295 4.27972C11.0302 4.24578 10.8848 4.21013 10.5376 3.93867C10.1359 3.62444 9.74032 3.6292 9.31896 3.95328C9.19651 4.04746 9.00206 4.149 8.88678 4.17889C8.77154 4.20873 8.20965 4.25134 7.63808 4.27351L6.59888 4.31382L6.38944 4.46092C6.27421 4.54187 6.10782 4.65808 6.01958 4.71921C5.9314 4.78034 5.72025 4.85695 5.55036 4.88944C5.32181 4.93315 5.17253 5.00174 4.97616 5.15325C4.82616 5.26905 4.55016 5.41259 4.34092 5.48369C3.93501 5.62162 3.6929 5.80402 2.93754 6.54096C2.02552 7.43075 1.94228 7.53664 1.78125 8.01263C1.73464 8.15032 1.61523 8.3624 1.51582 8.48392C1.40208 8.62295 1.28793 8.85501 1.20793 9.11001C1.13674 9.33681 1.01574 9.59215 0.933012 9.69014C0.681275 9.98824 0.613022 10.1728 0.56661 10.6806C0.515613 11.2384 0.480997 11.3439 0.261351 11.611C0.0380999 11.8824 -0.00213066 12.0724 8.43436e-05 12.8441C0.00229935 13.5899 0.045363 13.7706 0.293546 14.0756C0.507217 14.3382 0.56357 14.5727 0.56388 15.2007C0.56424 15.8327 0.648565 16.1489 0.898242 16.4541C0.998638 16.5768 1.1372 16.8453 1.21133 17.0609C1.29401 17.3011 1.40527 17.5096 1.5052 17.6116C2.01805 18.135 2.31327 18.5321 2.44174 18.8716C2.57402 19.2211 2.60111 19.2516 3.90395 20.5154C5.17979 21.7531 5.245 21.8081 5.58184 21.9314C5.83404 22.0236 6.03282 22.1469 6.29079 22.371C6.55788 22.6029 10.8123 26.6674 11.0313 26.8998C11.3019 27.187 14.1396 29.9332 14.5888 30.3426C15.2817 30.9741 15.4736 31.0711 15.8118 30.9607C16.0782 30.8737 16.7394 30.2719 18.9654 28.09C19.9209 27.1535 20.7206 26.372 20.7425 26.3532C20.7645 26.3346 22.4829 24.674 24.561 22.6632L28.3395 19.0072L28.7489 18.8747L29.1582 18.7422L31.0823 16.872L33.0064 15.0019L33.1436 14.6016C33.2823 14.1966 33.4938 13.9126 34.0519 13.3819C34.2068 13.2346 34.278 13.1039 34.3793 12.7808C34.4526 12.5475 34.5732 12.2919 34.6567 12.193C35.0219 11.7605 34.9997 11.9785 34.9997 8.81371C34.9997 5.65001 35.0217 5.86665 34.658 5.43593C34.5774 5.3405 34.4516 5.08766 34.3784 4.87407C34.2953 4.6314 34.185 4.42412 34.0845 4.32158C33.6199 3.84754 33.2681 3.38938 33.19 3.15682C33.0574 2.76249 32.9889 2.65945 32.6281 2.31223C32.3381 2.03311 32.2346 1.96872 31.8999 1.85938C31.6068 1.76355 31.4435 1.67237 31.2431 1.49273C30.376 0.71514 30.2419 0.635383 29.7936 0.630526C29.4184 0.626471 29.0387 0.502104 28.7935 0.303037C28.6764 0.207959 28.4951 0.106974 28.3904 0.0786356C28.1606 0.016352 24.6993 -0.026806 23.6369 0.0193059ZM26.4982 5.55523C26.5943 5.59429 26.7926 5.7182 26.9389 5.8306C27.0853 5.94301 27.2335 6.03498 27.2683 6.03498C27.3031 6.03498 27.4566 6.07108 27.6094 6.11514C27.8304 6.17897 27.9641 6.26794 28.2641 6.55062C28.586 6.85403 28.6525 6.9465 28.7192 7.18392C28.8242 7.55782 28.9213 7.76135 29.0989 7.97984C29.2809 8.20374 29.3586 8.46844 29.3586 8.86378C29.3586 9.25485 29.2812 9.52326 29.1057 9.73995C28.9233 9.9653 28.8569 10.0888 28.739 10.4219C28.6159 10.7694 28.3585 11.0495 26.6354 12.7107C25.8881 13.4312 24.9029 14.3868 24.4462 14.8343C23.9894 15.2818 23.2818 15.969 22.8737 16.3614C22.1095 17.0963 19.2343 19.897 19.1702 19.9691C18.9603 20.205 16.1076 22.8921 15.9919 22.9629C15.8997 23.0193 15.744 23.0575 15.6056 23.0575C15.4672 23.0575 15.3115 23.0193 15.2193 22.9629C15.1036 22.8921 12.2509 20.205 12.041 19.9691C11.9665 19.8853 9.04883 17.0456 8.33745 16.3644C7.34632 15.4154 6.42946 14.4738 6.33391 14.3067C6.23449 14.1329 6.19199 12.3678 6.27967 12.0515C6.31547 11.9222 6.45527 11.7133 6.65694 11.4877C7.22619 10.8509 8.20718 9.93136 8.41972 9.83528C8.59841 9.75452 8.76103 9.742 9.64477 9.74105C10.4388 9.7402 10.7049 9.75662 10.8498 9.8155C11.0517 9.89751 11.6152 10.3853 12.6052 11.3352C13.3243 12.0251 13.3661 12.0559 13.7677 12.1902C14.0057 12.2697 14.1736 12.3886 14.6446 12.8108C15.124 13.2406 15.2642 13.3391 15.4363 13.3674C15.9159 13.4461 15.8349 13.5116 18.7792 10.6662C21.2659 8.26312 21.5195 8.03241 21.758 7.95671C22.1448 7.83389 22.2921 7.75048 22.5291 7.51997C23.4174 6.65601 24.5505 5.64476 24.7105 5.57316C24.9659 5.45891 26.2297 5.44624 26.4982 5.55523Z" fill="currentColor"/>
</svg>
