<svg width="28" height="28" viewBox="0 0 28 28" fill="none" xmlns="http://www.w3.org/2000/svg">
<path d="M10.5 1.3125C10.5 0.587891 11.0852 0 11.8125 0H16.1875C16.9148 0 17.5 0.587891 17.5 1.3125C17.5 2.03711 16.9148 2.625 16.1875 2.625H15.3125V4.46359C16.9914 4.69219 18.5281 5.35281 19.8133 6.32734L21.1148 5.02852L20.4969 4.41C19.9828 3.89703 19.9828 3.06633 20.4969 2.55391C21.0109 2.04094 21.8422 2.04094 22.3508 2.55391L25.4461 5.64922C25.9602 6.15781 25.9602 6.98906 25.4461 7.50312C24.932 8.01719 24.1008 8.01719 23.5922 7.50312L22.9688 6.88516L21.6727 8.18672C22.6461 9.47188 23.3078 11.0086 23.5375 12.6875H25.375V11.8125C25.375 11.0852 25.9602 10.5 26.6875 10.5C27.4148 10.5 28 11.0852 28 11.8125V16.1875C28 16.9148 27.4148 17.5 26.6875 17.5C25.9602 17.5 25.375 16.9148 25.375 16.1875V15.3125H23.5375C23.3078 16.9914 22.6461 18.5281 21.6727 19.8133L22.9688 21.1148L23.5922 20.4969C24.1008 19.9828 24.932 19.9828 25.4461 20.4969C25.9602 21.0109 25.9602 21.8422 25.4461 22.3508L22.3508 25.4461C21.8422 25.9602 21.0109 25.9602 20.4969 25.4461C19.9828 24.932 19.9828 24.1008 20.4969 23.5922L21.1148 22.9688L19.8133 21.6727C18.5281 22.6461 16.9914 23.3078 15.3125 23.5375V25.375H16.1875C16.9148 25.375 17.5 25.9602 17.5 26.6875C17.5 27.4148 16.9148 28 16.1875 28H11.8125C11.0852 28 10.5 27.4148 10.5 26.6875C10.5 25.9602 11.0852 25.375 11.8125 25.375H12.6875V23.5375C11.0086 23.3078 9.47188 22.6461 8.18672 21.6727L6.88516 22.9742L7.50312 23.5922C8.01719 24.1008 8.01719 24.932 7.50312 25.4461C6.98906 25.9602 6.15781 25.9602 5.64922 25.4461L2.55391 22.3508C2.04094 21.8422 2.04094 21.0109 2.55391 20.4969C3.06633 19.9828 3.89758 19.9828 4.41 20.4969L5.02852 21.1148L6.32734 19.8133C5.35281 18.5281 4.69219 16.9914 4.46359 15.3125H2.625V16.1875C2.625 16.9148 2.03711 17.5 1.3125 17.5C0.587891 17.5 0 16.9148 0 16.1875V11.8125C0 11.0852 0.587891 10.5 1.3125 10.5C2.03711 10.5 2.625 11.0852 2.625 11.8125V12.6875H4.46359C4.69219 11.0086 5.35281 9.47188 6.32734 8.18672L5.02852 6.88516L4.41 7.50312C3.89703 8.01719 3.06633 8.01719 2.55391 7.50312C2.04094 6.98906 2.04094 6.15781 2.55391 5.64922L5.64922 2.55391C6.15781 2.04148 6.98906 2.04148 7.50312 2.55391C8.01719 3.06633 8.01719 3.89758 7.50312 4.41L6.88516 5.02852L8.18672 6.32734C9.47188 5.35281 11.0086 4.69219 12.6875 4.46359V2.625H11.8125C11.0852 2.625 10.5 2.03766 10.5 1.3125ZM10.5 9.625C9.05078 9.625 7.875 10.8008 7.875 12.25C7.875 13.6992 9.05078 14.875 10.5 14.875C11.9492 14.875 13.125 13.6992 13.125 12.25C13.125 10.8008 11.9492 9.625 10.5 9.625ZM16.625 17.9375C17.3523 17.9375 17.9375 17.3523 17.9375 16.625C17.9375 15.8977 17.3523 15.3125 16.625 15.3125C15.8977 15.3125 15.3125 15.8977 15.3125 16.625C15.3125 17.3523 15.8977 17.9375 16.625 17.9375Z" fill="#A8E5F9"/>
</svg>
