<svg width="33" height="30" viewBox="0 0 33 30" fill="none" xmlns="http://www.w3.org/2000/svg">
<path fill-rule="evenodd" clip-rule="evenodd" d="M9.86196 1.50227C9.51363 2.32864 9.08875 3.55818 8.91779 4.23409C8.5085 5.85182 8.11296 6.04 6.21454 5.52C5.08842 5.21136 4.50175 5.23818 4.20292 5.61046C3.7015 6.23546 0.726458 19.5086 1.02208 19.8018C1.13437 19.9132 1.89704 19.7723 2.71654 19.4891C4.89042 18.7373 8.52683 19.3055 10.7094 20.7377C12.491 21.9073 12.6495 21.9314 14.6474 21.3373C16.9982 20.6386 20.3578 20.5023 21.8588 21.045C22.8067 21.3877 22.7407 21.045 20.6818 14.9364C19.4824 11.3768 18.2582 8.38409 17.9616 8.28636C17.6651 8.18818 17.22 8.63591 16.9725 9.28136C16.725 9.92636 16.4436 10.4545 16.3474 10.4545C16.2507 10.4545 15.1896 8.10227 13.9888 5.22727C12.6436 2.005 11.555 0 11.1508 0C10.7901 0 10.2098 0.675909 9.86196 1.50227ZM28.4167 0.909091C27.9125 1.40909 27.5 2.22727 27.5 2.72727C27.5 3.89818 29.0693 5.45455 30.25 5.45455C31.4307 5.45455 33 3.89818 33 2.72727C33 1.55636 31.4307 0 30.25 0C29.7458 0 28.9208 0.409091 28.4167 0.909091ZM26.9271 13.1355C25.427 15.7845 25.3646 16.3636 26.5792 16.3636C27.4244 16.3636 27.3882 16.5305 26.0874 18.6264C24.569 21.0741 24.6377 21.8182 26.3812 21.8182C27.032 21.8182 27.5 22.0832 27.5 22.4514C27.5 23.1014 28.4483 23.6364 29.6001 23.6364C29.9576 23.6364 30.25 23.2273 30.25 22.7273C30.25 22.0664 30.5557 21.8182 31.3688 21.8182C33.1123 21.8182 33.181 21.0741 31.6626 18.6264C30.3618 16.5305 30.3256 16.3636 31.1708 16.3636C31.6727 16.3636 32.0833 16.1382 32.0833 15.8623C32.0833 14.8391 29.5382 10.91 28.875 10.91C28.4969 10.91 27.6205 11.9114 26.9271 13.1355ZM2.44246 22.4809C0.537167 23.3027 0 24.4 0 27.47V30H16.5C25.575 30 33 29.8841 33 29.7427C33 29.6014 32.7878 29.0923 32.5279 28.6114C31.823 27.305 29.5125 26.2977 26.3212 25.905C24.4498 25.675 22.8727 25.1486 21.7145 24.3686C19.6868 23.0018 18.7445 22.9182 16.0417 23.8636C13.2564 24.8382 11.9909 24.7082 9.39583 23.1818C6.86996 21.6959 4.75567 21.4827 2.44246 22.4809Z" fill="black"/>
</svg>
