<svg width="24" height="33" viewBox="0 0 24 33" fill="none" xmlns="http://www.w3.org/2000/svg">
<path d="M17.2104 7.19583C18.1646 7.19583 19.0797 6.81676 19.7545 6.14202C20.4292 5.46728 20.8083 4.55214 20.8083 3.59791C20.8083 2.64369 20.4292 1.72854 19.7545 1.0538C19.0797 0.379065 18.1646 0 17.2104 0C16.2561 0 15.341 0.379065 14.6663 1.0538C13.9915 1.72854 13.6124 2.64369 13.6124 3.59791C13.6124 4.55214 13.9915 5.46728 14.6663 6.14202C15.341 6.81676 16.2561 7.19583 17.2104 7.19583ZM9.98255 10.6194C8.98553 10.8673 8.30512 11.2399 7.75584 11.702C6.93232 12.396 6.26711 13.397 5.36843 14.9705C5.15797 15.3387 4.80985 15.6083 4.40066 15.7198C3.99147 15.8314 3.55472 15.7758 3.18649 15.5654C2.81827 15.3549 2.54873 15.0068 2.43717 14.5976C2.32562 14.1884 2.38118 13.7517 2.59164 13.3834C3.48632 11.8187 4.3906 10.3548 5.69624 9.25623C7.05865 8.1081 8.72648 7.45887 10.9756 7.20862C11.9158 7.10468 12.9504 7.12547 13.9203 7.55802C14.9381 8.01295 15.6816 8.82768 16.1886 9.91665C16.8714 11.3822 17.3791 12.2545 17.7852 12.7598C17.9811 13.0029 18.1178 13.1156 18.1954 13.166C18.257 13.2059 18.2833 13.2091 18.2929 13.2107H18.2937C18.3633 13.2187 18.5888 13.2107 19.2508 12.9173C19.5394 12.7894 19.8544 12.6359 20.2398 12.448L20.3317 12.4032C20.8031 12.1706 21.2786 11.9467 21.7581 11.7316C22.1453 11.5616 22.584 11.5519 22.9782 11.7046C23.3725 11.8572 23.6903 12.1598 23.8621 12.5462C24.0338 12.9325 24.0456 13.3711 23.8948 13.7661C23.744 14.1611 23.4429 14.4803 23.0574 14.6539C22.613 14.8533 22.1724 15.061 21.7357 15.2767L21.631 15.3279C21.2624 15.5078 20.8914 15.6893 20.5436 15.8428C19.824 16.161 18.9046 16.5064 17.9076 16.3857C16.8554 16.2578 16.0446 15.6637 15.377 14.8666L13.1919 19.0825L16.2141 23.0146C16.394 23.2497 16.5052 23.5296 16.5363 23.8238L17.2016 30.2169C17.2269 30.4275 17.2101 30.6411 17.1521 30.8451C17.0941 31.0492 16.996 31.2397 16.8637 31.4055C16.7313 31.5713 16.5673 31.7091 16.3812 31.8109C16.195 31.9127 15.9905 31.9764 15.7795 31.9984C15.5685 32.0203 15.3552 32.0001 15.1521 31.9388C14.949 31.8775 14.7601 31.7765 14.5964 31.6415C14.4328 31.5065 14.2976 31.3402 14.1988 31.1525C14.1 30.9647 14.0396 30.7592 14.021 30.5479L13.4022 24.6049L11.5664 22.2159L11.5504 22.2455L11.4833 22.108L8.09165 17.6945C7.92492 17.4776 7.81664 17.2215 7.77717 16.9508C7.73769 16.6801 7.76834 16.4037 7.86618 16.1482L9.98255 10.6194Z" fill="black"/>
<path d="M7.56116 19.9941L6.38424 23.1603L1.74693 22.7925C1.5361 22.7729 1.32347 22.7954 1.1214 22.8587C0.91932 22.9219 0.731819 23.0247 0.569774 23.161C0.407728 23.2973 0.274366 23.4644 0.177426 23.6527C0.0804851 23.8409 0.0218973 24.0465 0.00506226 24.2576C-0.0117728 24.4687 0.01348 24.681 0.0793554 24.8822C0.145231 25.0835 0.250416 25.2696 0.388809 25.4299C0.527201 25.5901 0.696044 25.7213 0.885538 25.8158C1.07503 25.9103 1.28141 25.9662 1.49268 25.9803L7.33569 26.444C7.68246 26.4716 8.02877 26.3854 8.32211 26.1984C8.61544 26.0114 8.83979 25.7338 8.96115 25.4078L9.86063 22.9868L7.56116 19.9941Z" fill="black"/>
</svg>
