<svg width="128" height="90" viewBox="0 0 128 90" fill="none" xmlns="http://www.w3.org/2000/svg">
<path d="M125.175 14.0377C124.441 11.3245 123.009 8.85087 121.021 6.86326C119.034 4.87564 116.56 3.44336 113.847 2.70905C103.914 0 63.9362 0 63.9362 0C63.9362 0 23.9565 0.0820012 14.0233 2.79105C11.31 3.52541 8.83646 4.95776 6.84893 6.94547C4.8614 8.93318 3.42926 11.4069 2.69514 14.1202C-0.309409 31.7695 -1.47493 58.663 2.77764 75.6063C3.51184 78.3195 4.94401 80.7931 6.93154 82.7808C8.91906 84.7684 11.3926 86.2007 14.1058 86.935C24.039 89.644 64.0177 89.644 64.0177 89.644C64.0177 89.644 103.996 89.644 113.929 86.935C116.642 86.2007 119.115 84.7685 121.103 82.7809C123.091 80.7932 124.523 78.3196 125.257 75.6063C128.426 57.932 129.403 31.0555 125.175 14.0382V14.0377Z" fill="#FF0000"/>
<path d="M51.2114 64.0311L84.376 44.8218L51.2114 25.6124V64.0311Z" fill="white"/>
</svg>
