<svg width="27" height="33" viewBox="0 0 27 33" fill="none" xmlns="http://www.w3.org/2000/svg">
<path fill-rule="evenodd" clip-rule="evenodd" d="M11.9817 1.02366C9.90116 3.2441 11.4489 6.8448 14.4839 6.8448C16.2532 6.8448 17.8531 5.18004 17.8531 3.33908C17.8531 0.369317 14.0143 -1.14447 11.9817 1.02366ZM2.4326 7.87724C1.51248 8.89683 0 14.0416 0 16.151C0 17.4611 1.75693 19.2341 3.05517 19.2341C3.881 19.2341 4.11492 18.6247 5.03733 14.0719C5.61229 11.2329 6.18039 8.44531 6.29895 7.87724C6.4903 6.96456 6.33283 6.8448 4.93982 6.8448C3.88695 6.8448 3.05517 7.18711 2.4326 7.87724ZM9.2818 9.25383C8.70455 9.88247 8.04627 11.6973 7.59994 13.8916C6.40836 19.7503 6.41614 19.7788 10.0911 22.7885C12.9678 25.1438 13.3917 25.7013 14.0156 27.9525C15.3043 32.6012 15.3844 32.7674 16.4034 32.9174C17.003 33.006 17.5135 32.7664 17.686 32.3163C18.1864 31.0085 16.548 24.2476 15.1129 21.6982L13.74 19.2607L14.4235 16.0051C15.3578 11.5532 15.2933 10.3927 14.0472 9.21895C12.6519 7.90523 10.5068 7.92083 9.2818 9.25383ZM24.7115 9.25383C24.7064 9.88844 24.012 10.8612 22.9092 11.779L21.1152 13.2721L19.5016 12.3177L17.8879 11.3637L17.6545 12.431C17.08 15.0571 17.1344 15.2213 18.7687 15.8225C21.1752 16.7067 22.0257 16.6021 23.4357 15.248L24.7197 14.015V23.5075C24.7197 31.6395 24.8181 33 25.4064 33C25.9955 33 26.093 31.5973 26.093 23.128C26.093 16.0666 26.2546 12.9968 26.6611 12.3447C27.113 11.6193 27.113 11.2476 26.6611 10.5221C26.3485 10.0206 26.093 9.29788 26.093 8.9161C26.093 8.53387 25.784 8.22139 25.4064 8.22139C25.0017 8.22139 24.7165 8.64583 24.7115 9.25383ZM4.82126 27.2587C2.58733 31.623 2.41017 33 4.08333 33C4.70728 33 5.66402 31.9593 7.14263 29.6732C8.32597 27.8438 9.36145 26.0368 9.44339 25.6582C9.52579 25.2796 9.014 24.5184 8.30674 23.9664L7.0204 22.9628L4.82126 27.2587Z" fill="black"/>
</svg>
