<svg width="39" height="39" viewBox="0 0 39 39" fill="none" xmlns="http://www.w3.org/2000/svg">
<path d="M25.5158 0H13.5711C2.6709 0 0.0869141 2.58399 0.0869141 13.4842V25.4289C0.0869141 36.3291 2.6709 38.913 13.5711 38.913H25.5158C36.416 38.913 39 36.3291 39 25.4289V13.4842C39 2.58399 36.3904 0 25.5158 0ZM31.5009 27.7587H28.6762C27.6061 27.7587 27.2766 26.91 25.3516 24.9595C23.6796 23.3386 22.9391 23.1234 22.5269 23.1234C21.9444 23.1234 21.779 23.2875 21.779 24.0864V26.6388C21.779 27.3234 21.5638 27.7344 19.752 27.7344C16.7558 27.7344 13.4312 25.9226 11.1002 22.547C7.58474 17.6003 6.62289 13.8952 6.62289 13.1291C6.62289 12.7169 6.78704 12.3314 7.57866 12.3314H10.4095C11.1257 12.3314 11.3981 12.6609 11.6766 13.427C13.0762 17.4678 15.4072 21.0075 16.3691 21.0075C16.7242 21.0075 16.8883 20.8434 16.8883 19.9374V15.7642C16.7801 13.8392 15.7672 13.6739 15.7672 12.9905C15.7672 12.6609 16.0395 12.3314 16.4761 12.3314H20.9278C21.5298 12.3314 21.7511 12.6609 21.7511 13.3699V18.9999C21.7511 19.6079 22.0235 19.8231 22.1876 19.8231C22.5427 19.8231 22.8467 19.6079 23.5045 18.9488C25.5377 16.6689 26.9944 13.1534 26.9944 13.1534C27.1841 12.7412 27.5137 12.3557 28.2299 12.3557H31.0607C31.9095 12.3557 32.0992 12.7923 31.9095 13.4003C31.5544 15.0467 28.0901 19.9362 28.0901 19.9362C27.7921 20.4299 27.6778 20.6452 28.0901 21.196C28.3941 21.6082 29.3827 22.4631 30.0405 23.2291C31.2504 24.6032 32.1807 25.756 32.4287 26.5537C32.7072 27.3453 32.2962 27.7575 31.4973 27.7575L31.5009 27.7587Z" fill="#64ABFF"/>
</svg>
