<svg width="434" height="434" viewBox="0 0 434 434" fill="none" xmlns="http://www.w3.org/2000/svg">
<path d="M148.703 187.364L174.798 177.866C188.971 172.708 204.643 180.015 209.801 194.188L183.706 203.686C169.533 208.845 153.862 201.537 148.703 187.364Z" fill="currentColor"/>
<path fill-rule="evenodd" clip-rule="evenodd" d="M207.369 182.698C207.608 186.535 208.395 190.403 209.776 194.198L249.423 179.768C266.927 173.397 277.463 156.357 276.36 138.665C276.121 134.828 275.334 130.961 273.953 127.165L234.305 141.595C216.802 147.966 206.266 165.006 207.369 182.698ZM218.972 178.475C219.63 167.105 226.901 156.667 238.283 152.524L264.757 142.888C264.099 154.258 256.828 164.697 245.446 168.84L218.972 178.475Z" fill="currentColor"/>
<path fill-rule="evenodd" clip-rule="evenodd" d="M130.045 213.768C127.631 216.059 127.649 217.314 130.198 224.315C131.96 229.158 132.321 230.607 131.756 230.58C125.049 230.264 119.061 232.501 114.839 236.9C111.679 240.193 109.407 245.246 108.987 249.914L108.68 253.326L113.874 267.597L119.068 281.868L121.679 284.373C130.125 292.478 143.491 292.196 151.639 283.74C154.475 280.797 156.961 275.121 157.361 270.674L157.67 267.241L148.318 241.083C137.9 211.943 138.145 212.442 134.17 212.258C133.07 212.207 131.994 212.24 131.778 212.33C131.563 212.422 130.783 213.068 130.045 213.768ZM279.751 158.827C277.861 160.315 277.051 161.629 276.97 163.34C276.899 164.832 278.711 170.259 285.58 189.131C290.364 202.277 294.922 214.114 295.708 215.435C300.222 223.021 309.175 226.998 317.97 225.324C323.919 224.191 329.624 219.877 332.489 214.344C334.363 210.722 335.144 205.435 334.43 201.212C333.741 197.143 327.455 179.79 325.437 176.388C321.953 170.516 315.837 166.671 309.019 166.069C306.131 165.814 304.205 166.024 301.236 166.918C298.239 167.82 296.67 168.602 294.72 170.165C293.307 171.298 291.992 172.151 291.798 172.06C291.603 171.969 290.474 169.232 289.29 165.978C286.872 159.334 286.038 158.358 282.645 158.201C281.567 158.151 280.626 158.153 280.554 158.203C280.483 158.254 280.122 158.535 279.751 158.827ZM308.541 148.983C306.923 150.693 306.697 152.88 307.948 154.728C309.809 157.474 313.866 157.515 315.764 154.808C317.838 151.849 315.969 147.839 312.36 147.5C311.256 147.397 310.273 147.342 310.175 147.378C310.077 147.414 309.342 148.136 308.541 148.983ZM313.398 148.775C314.337 149.213 315.265 150.008 315.46 150.544C315.655 151.08 315.558 152.295 315.245 153.246C314.832 154.502 314.207 155.144 312.956 155.6C310.97 156.323 309.117 155.348 308.321 153.16C307.762 151.624 309.103 148.921 310.715 148.335C311.251 148.14 312.458 148.338 313.398 148.775ZM309.416 150.347C309.07 151.087 310.755 155.247 311.318 155.042C311.598 154.939 311.661 154.397 311.457 153.837C311.253 153.276 311.3 152.739 311.562 152.644C311.824 152.549 312.351 152.876 312.733 153.372C313.115 153.868 313.642 154.196 313.904 154.1C314.539 153.869 314.193 153.001 313.401 152.838C313.011 152.757 312.957 152.309 313.261 151.659C313.913 150.263 313.659 149.734 312.24 149.531C310.889 149.339 309.731 149.673 309.416 150.347ZM312.49 150.719C312.519 151.8 310.977 152.517 310.636 151.58C310.464 151.108 310.78 150.62 311.407 150.392C312.031 150.165 312.479 150.3 312.49 150.719ZM162.405 217.95C157.857 220.931 154.169 227.094 153.4 233C152.948 236.47 153.039 236.987 155.292 243.747C156.594 247.652 158.01 251.366 158.439 251.999C158.868 252.632 160.123 253.33 161.228 253.552C163.112 253.93 164.232 253.594 179.179 248.155L195.12 242.355L196.245 240.26L197.37 238.164L194.712 230.861C192.123 223.75 191.98 223.486 189.255 220.798C185.883 217.47 182.875 215.75 178.909 214.879C173.45 213.681 167.122 214.859 162.405 217.95ZM206.124 202.213C201.625 205.734 198.24 211.636 197.712 216.877C197.545 218.527 197.699 221.46 198.055 223.394C198.462 225.612 201.034 233.143 205.021 243.791L211.342 260.672L213.508 261.68C215.077 262.41 216.186 262.519 217.524 262.075C219.984 261.257 221.392 259.586 221.617 257.215C221.772 255.576 220.786 252.48 215.373 237.609C208.284 218.132 208.349 218.445 210.605 214.333C212.067 211.669 215.142 209.8 218.216 209.705C221.194 209.614 224.602 211.374 226.303 213.88C227.237 215.257 229.88 221.886 233.917 232.979C240.758 251.773 240.686 251.646 244.517 251.823C247.56 251.964 250.255 249.539 250.388 246.543C250.439 245.372 248.453 239.527 243.457 226.15L236.454 207.398L233.591 204.572C232.012 203.013 229.285 201.075 227.51 200.249C225.711 199.411 222.539 198.596 220.317 198.399C217.1 198.115 215.55 198.304 212.181 199.389C209.631 200.211 207.285 201.305 206.124 202.213ZM250.625 185.988C245.765 189.83 242.691 195.101 242.113 200.583C241.69 204.596 242.334 208.466 244.343 213.984C246.141 218.922 247.996 221.161 250.528 221.45C251.632 221.576 256.157 220.125 267.443 216.023C276.237 212.827 283.335 210.006 283.979 209.45C284.599 208.915 285.292 207.559 285.518 206.437C285.857 204.756 285.602 203.495 284.069 199.279C281.866 193.218 279.448 189.491 275.791 186.52C272.611 183.937 268.955 182.567 264.228 182.188C261.52 181.97 259.734 182.214 256.559 183.237C254.082 184.034 251.699 185.139 250.625 185.988ZM130.604 242.104C136.077 242.547 137.411 244.293 142.136 257.185C145.061 265.165 145.807 267.711 145.725 269.435C145.519 273.813 143.438 276.756 139.563 278.151C136.214 279.357 132.832 278.72 130.271 276.402C128.355 274.667 128.092 274.109 124.319 263.742C121.974 257.298 120.381 252.235 120.394 251.265C120.426 248.943 121.495 246.657 123.46 244.709C125.608 242.581 127.586 241.859 130.604 242.104ZM175.177 226.019C178.502 226.357 181.315 228.4 182.969 231.679L184.238 234.195L175.235 237.472L166.233 240.748L165.503 238.743C164.096 234.876 164.875 231.508 167.861 228.548C168.796 227.622 170.232 226.614 171.054 226.308C171.875 226.002 173.73 225.872 175.177 226.019ZM264.983 193.81C267.542 194.339 270.275 196.723 271.543 199.533L272.549 201.764L263.797 205.107L255.044 208.451L254.195 206.12C253.729 204.838 253.446 203.052 253.566 202.151C253.874 199.846 255.517 196.748 257.059 195.562C258.887 194.156 262.642 193.326 264.983 193.81ZM306.729 177.479C307.789 177.405 309.556 177.736 310.657 178.214C314.461 179.868 314.753 180.36 319.209 192.601C323.815 205.257 323.972 206.394 321.623 210.053C320.506 211.793 319.83 212.26 316.873 213.336C314.187 214.314 313.03 214.472 311.634 214.053C308.919 213.238 307.05 211.82 305.681 209.536C303.895 206.558 298.455 191.458 298.01 188.247C297.413 183.934 299.819 179.686 303.796 178.033C304.35 177.803 305.67 177.554 306.729 177.479ZM165.057 260.025C163.032 262.676 163.675 266.115 166.726 268.954C167.731 269.889 170.096 271.372 171.98 272.25C182.544 277.167 195.346 272.213 199.954 261.424C201.439 257.947 202.135 253.74 201.517 251.975C200.963 250.394 198.635 248.637 196.779 248.399C193.129 247.93 191.191 249.628 190.071 254.275C189.663 255.97 188.873 258.041 188.316 258.877C187.713 259.782 186.229 260.892 184.647 261.621C182.589 262.569 181.411 262.773 179.415 262.528C177.992 262.353 176.202 261.645 175.415 260.944C174.63 260.247 173.173 259.219 172.175 258.66C169.872 257.372 166.605 257.998 165.057 260.025ZM253.815 227.664C253.201 228.357 252.623 229.449 252.531 230.09C252.222 232.234 253.683 235.055 256.202 237.177C262.486 242.475 271.756 243.339 279.372 239.337C283.106 237.375 287.058 233.111 288.634 229.343C289.352 227.63 290.051 224.832 290.189 223.126C290.404 220.473 290.262 219.775 289.212 218.3C288.39 217.146 287.327 216.444 285.996 216.177C284.903 215.958 283.48 215.97 282.834 216.204C280.842 216.925 279.236 219.161 278.929 221.642C278.767 222.945 278.036 224.945 277.304 226.084C276.303 227.645 275.279 228.462 273.158 229.394C269.487 231.007 266.958 230.643 263.247 227.967C261.696 226.849 259.765 225.831 258.955 225.702C257.033 225.4 255.202 226.098 253.815 227.664Z" fill="currentColor"/>
<path d="M85.98 131.125L85.1609 130.695C81.1499 128.587 73.8325 126.94 66.9293 140.074L66.3651 141.147C59.6401 153.943 64.296 158.733 66.8947 160.099L67.2054 160.262L71.5552 151.986C70.8682 151.373 69.0553 149.266 72.1284 143.419C74.3404 139.211 76.5199 138.013 78.4877 138.11L72.8018 148.928L77.7449 151.526L83.4308 140.708C84.7395 142.333 85.23 144.898 83.0328 149.079C79.841 155.151 76.8118 154.605 76.0315 154.375L71.6817 162.651L72.1053 162.874C74.7605 164.269 81.4906 165.319 88.1711 152.608L88.7352 151.535C95.5345 138.598 89.9627 133.218 85.98 131.125Z" fill="currentColor"/>
<path d="M105.895 124.219L98.1417 116.953L113.816 115.767L121.889 107.152L102.682 108.701L104.26 91.2445L96.558 99.4637L95.4174 114.401L88.572 107.986L82.3752 114.598L99.6984 130.832L105.895 124.219Z" fill="currentColor"/>
<path d="M141.464 82.1743C141.639 82.7036 142.788 85.928 136.827 89.5751C131.383 92.9058 128.274 90.8805 126.942 88.7029L126.742 88.3763C125.36 86.1171 125.042 82.9074 130.622 79.4934C136.474 75.9129 138.736 78.0824 139.189 78.5163L147.219 73.6036L147.002 73.2497C145.393 70.6805 140.22 66.1391 127.89 73.6831L126.828 74.3326C114.198 82.0598 116.291 89.2711 118.656 93.1363L119.139 93.9257C121.487 97.7636 127.218 102.973 139.685 95.346L140.746 94.6965C152.968 87.2191 151.365 80.3812 149.733 77.7137L149.467 77.2782L141.464 82.1743Z" fill="currentColor"/>
<path d="M169.291 80.1269L164.541 63.3644L177.773 59.6142L182.523 76.3767L191.212 73.9143L184.738 51.0731L154.099 59.7567L160.573 82.598L169.291 80.1269Z" fill="currentColor"/>
<path d="M197.633 48.8923L198.313 72.6234L224.819 71.864L224.649 65.9312L207.074 66.4347L206.981 63.1813L223.95 62.6951L223.785 56.9218L206.816 57.408L206.731 54.4416L224.05 53.9453L223.884 48.1401L197.633 48.8923Z" fill="currentColor"/>
<path d="M252.595 68.7763C261.076 70.6215 264.375 67.6164 265.29 63.4071L265.399 62.9082C266.328 58.6365 264.605 54.7019 256.061 52.8431L236.729 48.6372L231.682 71.8354L240.537 73.762L242.118 66.4969L252.595 68.7763ZM244.323 56.3633L253.739 58.412C255.797 58.8598 256.494 59.8604 256.209 61.17L256.188 61.2635C255.91 62.5419 254.823 63.187 252.796 62.7461L243.38 60.6974L244.323 56.3633Z" fill="currentColor"/>
<path d="M285.007 88.772L292.743 73.3394L301.9 77.9298L304.803 72.139L278.388 58.8969L275.485 64.6876L284.642 69.2781L276.905 84.7107L285.007 88.772Z" fill="currentColor"/>
<path d="M337.865 97.4844L319.362 112.359L333.436 129.868C338.275 135.886 342.152 135.717 345.061 133.378L345.36 133.138C348.618 130.519 347.638 127.008 346.691 125.067C347.944 126.066 350.593 127.171 352.881 125.331L353.155 125.111C355.294 123.392 356.198 120.29 351.86 114.893L337.865 97.4844ZM339.34 107.926L345.937 116.133C347.117 117.601 346.935 118.443 346.189 119.043L346.139 119.083C345.442 119.643 344.506 119.7 343.326 118.233L336.728 110.025L339.34 107.926ZM332.575 113.364L339.533 122.019C340.992 123.835 340.546 124.807 339.775 125.427L339.7 125.487C338.979 126.067 337.829 126.419 336.349 124.578L329.392 115.923L332.575 113.364Z" fill="currentColor"/>
<path d="M370.608 143.772L359.552 160.041C359.286 160.439 359.057 160.654 358.756 160.76L358.726 160.771C358.425 160.877 358.151 160.77 357.939 160.168L356.552 156.225L350.562 158.331L352.139 162.817C353.886 167.784 355.48 168.373 360.233 169.577L381.565 174.929L378.505 166.229L366.686 163.688L374.091 153.676L370.608 143.772Z" fill="currentColor"/>
<path d="M362.177 206.154L379.367 204.567L380.309 214.767L386.759 214.171L384.043 184.748L377.592 185.343L378.534 195.543L361.344 197.13L362.177 206.154Z" fill="currentColor"/>
<path d="M384.555 244.404L384.801 242.989C387.435 227.836 380.6 224.672 376.167 223.902L375.224 223.738C370.854 222.979 363.164 223.618 360.53 238.771L360.285 240.186C357.657 255.308 364.68 258.504 369.05 259.264L369.993 259.428C374.426 260.198 381.933 259.494 384.555 244.404ZM378.393 242.588C377.186 249.536 373.863 250.578 371.379 250.146L370.939 250.07C368.456 249.638 365.527 247.478 366.729 240.561C367.931 233.645 371.511 232.615 373.963 233.041L374.341 233.107C376.824 233.538 379.617 235.546 378.393 242.588Z" fill="currentColor"/>
<path d="M346.713 283.171L342.808 291.349L364.232 301.579L375.919 277.102C364.804 271.795 362.523 270.352 361.9 269.065C361.5 268.273 361.672 267.542 362.222 266.39L362.429 265.958L356.324 263.043L355.059 265.692C353.175 269.637 353.258 271.834 354.624 273.936C355.945 275.981 358.333 277.793 366.872 281.906L362.637 290.775L346.713 283.171Z" fill="currentColor"/>
<path d="M357.34 312.998L339.076 297.831L322.135 318.231L326.702 322.023L337.934 308.496L340.438 310.576L329.593 323.636L334.036 327.326L344.881 314.265L347.164 316.161L336.095 329.491L340.563 333.202L357.34 312.998Z" fill="currentColor"/>
<path d="M310.878 328.62L316.167 335.94L304.14 344.63L298.851 337.311L291.532 342.6L305.437 361.843L312.756 356.554L307.841 349.751L319.868 341.061L324.783 347.863L332.128 342.555L318.223 323.312L310.878 328.62Z" fill="currentColor"/>
<path d="M262.649 355.042L254.133 358.142L262.253 380.451L270.769 377.351L279.664 358.221L284.772 372.254L293.288 369.155L285.168 346.846L276.652 349.945L267.746 369.045L262.649 355.042Z" fill="currentColor"/>
<path d="M223.615 362.13L214.577 362.795L216.32 386.472L225.357 385.807L239.123 369.819L240.219 384.713L249.257 384.048L247.515 360.371L238.477 361.036L224.709 376.992L223.615 362.13Z" fill="currentColor"/>
<path d="M174.534 355.794L166.018 352.694L162.558 362.199L156.722 349.311L145.628 345.273L153.591 361.924L137.927 367.735L148.512 371.587L160.921 366.697L157.898 375.003L166.414 378.103L169.437 369.797L175.799 381.519L186.444 385.393L178.13 370.822L194.864 363.193L183.829 359.177L171.074 365.299L174.534 355.794Z" fill="currentColor"/>
<path d="M122.756 327.051L115.003 320.856L109.879 347.151L119.402 354.761L143.396 343.545L136.217 337.808L132.406 339.664L121.811 331.198L122.756 327.051ZM126.532 342.567L118.391 346.519L120.374 337.647L126.532 342.567Z" fill="currentColor"/>
<path d="M99.0316 300.975L94.162 293.332L85.631 298.768L88.8465 284.99L82.5022 275.032L78.6847 293.091L62.7201 288.166L68.7729 297.666L81.5943 301.34L74.1399 306.089L79.0095 313.732L86.464 308.983L84.3765 322.155L90.4635 331.709L92.7376 315.088L110.657 319.221L104.347 309.318L90.5007 306.411L99.0316 300.975Z" fill="currentColor"/>
<path d="M74.6943 270.016L75.4364 273.054L85.6038 270.57L83.582 262.294L79.5522 263.278L75.0012 244.648L79.0309 243.664L77.0091 235.387L66.8417 237.871L67.7504 241.591L50.8253 245.725L57.3755 272.539C67.5739 270.048 71.7724 269.35 74.6943 270.016ZM72.7027 261.864C70.4531 261.395 66.2629 261.992 61.5746 263.104L59.1135 253.03L69.9009 250.394L72.7027 261.864Z" fill="currentColor"/>
<path d="M55.8435 210.56L55.1522 220.524L48.1807 220.04L47.5535 229.081L71.2374 230.724L72.5559 211.719C73.2207 202.138 69.6619 199.492 65.237 199.185L64.7277 199.149C60.3347 198.845 56.506 201.01 55.8435 210.56ZM74.1306 189.022L50.4467 187.379L49.8216 196.388L73.5056 198.031L74.1306 189.022ZM65.9755 221.275L61.0413 220.932L61.6531 212.115C61.8563 209.186 62.9642 208.431 64.3012 208.524L64.3967 208.53C65.7019 208.621 66.7905 209.528 66.5873 212.457L65.9755 221.275Z" fill="currentColor"/>
</svg>
