<svg width="207" height="62" viewBox="0 0 207 62" fill="none" xmlns="http://www.w3.org/2000/svg">
<path d="M70 6.63647L83.3757 6.63647C90.7057 6.63647 96.6477 12.5786 96.6477 19.9085H83.272C75.9421 19.9085 70 13.9664 70 6.63647Z" fill="white"/>
<path fill-rule="evenodd" clip-rule="evenodd" d="M97.4517 14.2667C96.9279 16.0553 96.6468 17.9486 96.6468 19.908L116.969 19.908C125.94 19.908 133.516 13.8887 135.931 5.64127C136.455 3.85274 136.736 1.95943 136.736 0L116.414 0C107.443 0 99.8669 6.01934 97.4517 14.2667ZM103.399 14.2667C105.57 9.19308 110.58 5.64127 116.414 5.64127L129.984 5.64127C127.813 10.7149 122.803 14.2667 116.969 14.2667H103.399Z" fill="white"/>
<path d="M6.86195 47.3944C3.17995 47.3944 0.519945 48.6684 0.519945 51.0344V51.2864H3.94995C3.94995 50.0264 5.57395 49.6904 7.35195 49.6904C9.59195 49.6904 10.3479 50.0264 10.3479 50.5864V50.6284C10.3479 51.1744 9.63395 51.3984 8.00995 51.3984H4.92995V53.6524H8.02395C9.73195 53.6524 10.6139 53.9184 10.6139 54.6044V54.6464C10.6139 55.3324 9.73195 55.7244 7.43595 55.7244C5.11195 55.7244 3.90795 55.1784 3.90795 53.9884H0.477945V54.1424C0.477945 56.9984 3.19395 58.0344 6.91795 58.0344H7.67395C12.7699 58.0344 13.9739 56.5364 13.9739 54.8284V54.6884C13.9739 53.5264 12.9659 52.5184 10.8939 52.3644C12.8819 52.2244 13.6939 51.2164 13.6939 50.2504V50.0964C13.6939 48.6264 12.3779 47.3944 7.56195 47.3944H6.86195ZM39.3963 57.9084H42.9103L37.3383 47.4924H33.1103L27.8463 57.9084H31.1643L32.1023 56.0044H38.4163L39.3963 57.9084ZM33.2643 53.6524L35.1963 49.7464L37.2123 53.6524H33.2643ZM57.4015 47.4924V57.9084H60.6635V50.0124H67.8595V47.4924H57.4015ZM90.7799 54.4364C94.5039 54.4364 95.6379 52.8824 95.6379 51.0204V50.8804C95.6379 48.9764 94.5179 47.4924 90.7799 47.4924H82.9679V57.9084H86.2299V54.4364H90.7799ZM86.2299 49.8584H90.7239C91.7599 49.8584 92.2359 50.2644 92.2359 50.9644V51.0064C92.2359 51.7064 91.7459 52.0984 90.7239 52.0984H86.2299V49.8584ZM108.988 47.4924L113.902 54.6604C114.028 54.8424 114.126 54.9824 114.126 55.1504V55.1644C114.126 55.2904 114.056 55.3884 113.762 55.3884H111.928V57.9084H113.972C115.974 57.9084 116.38 57.2504 117.43 55.5004L122.218 47.4924H118.942L116.002 52.5464L112.768 47.4924H108.988ZM142.296 47.3944C138.614 47.3944 135.954 48.6684 135.954 51.0344V51.2864H139.384C139.384 50.0264 141.008 49.6904 142.786 49.6904C145.026 49.6904 145.782 50.0264 145.782 50.5864V50.6284C145.782 51.1744 145.068 51.3984 143.444 51.3984H140.364V53.6524H143.458C145.166 53.6524 146.048 53.9184 146.048 54.6044V54.6464C146.048 55.3324 145.166 55.7244 142.87 55.7244C140.546 55.7244 139.342 55.1784 139.342 53.9884H135.912V54.1424C135.912 56.9984 138.628 58.0344 142.352 58.0344H143.108C148.204 58.0344 149.408 56.5364 149.408 54.8284V54.6884C149.408 53.5264 148.4 52.5184 146.328 52.3644C148.316 52.2244 149.128 51.2164 149.128 50.2504V50.0964C149.128 48.6264 147.812 47.3944 142.996 47.3944H142.296ZM167.769 57.9084V52.9944L173.271 57.9084H177.527L171.255 52.2524L177.247 47.4924H173.103L167.769 51.8324V47.4924H164.507V57.9084H167.769ZM202.707 57.9084H206.221L200.649 47.4924H196.421L191.157 57.9084H194.475L195.413 56.0044H201.727L202.707 57.9084ZM196.575 53.6524L198.507 49.7464L200.523 53.6524H196.575Z" fill="white"/>
</svg>
