<svg width="78" height="37" viewBox="0 0 78 37" fill="none" xmlns="http://www.w3.org/2000/svg">
<g clip-path="url(#clip0_591_744)">
<path d="M20.3809 4.65088H29.7868C34.8954 4.65088 39.0368 8.79225 39.0368 13.9009H29.6309C24.5222 13.9009 20.3809 9.75953 20.3809 4.65088Z" fill="#DE9048"/>
<path fill-rule="evenodd" clip-rule="evenodd" d="M39.593 9.96193C39.2246 11.2108 39.027 12.5328 39.027 13.901H53.3177C59.6269 13.901 64.9543 9.69794 66.6528 3.93909C67.0211 2.69022 67.2188 1.3682 67.2188 0H52.928C46.6189 0 41.2914 4.20308 39.593 9.96193ZM43.7752 9.96193C45.3019 6.41918 48.8253 3.93909 52.928 3.93909H62.4706C60.9438 7.48183 57.4204 9.96193 53.3177 9.96193H43.7752Z" fill="#DE9048"/>
<path fill-rule="evenodd" clip-rule="evenodd" d="M11.3828 10.893C10.3492 11.3424 10.2096 11.744 10.2096 14.2676C10.2096 16.013 10.1564 16.5162 9.97963 16.4422C7.88161 15.5644 5.71662 15.5828 3.86326 16.494C2.47605 17.1759 1.16757 18.521 0.493003 19.9582L0 21.0087V26.1526V31.2965L0.540831 32.3963C2.28989 35.9542 6.5768 37.4127 10.15 35.6655C11.3935 35.0574 12.8424 33.5386 13.4847 32.1696L13.9807 31.1127L14.0344 21.7036C14.0944 11.2222 14.1146 11.4092 12.8707 10.8901C12.5265 10.7466 12.1801 10.6323 12.101 10.6362C12.0219 10.6402 11.6987 10.7558 11.3828 10.893ZM65.3964 10.7488C64.6224 11.0036 64.2125 11.3279 63.9883 11.8632C63.7929 12.33 63.7408 14.267 63.7408 21.0695C63.7408 25.8079 63.8203 30.1033 63.9174 30.6147C64.4752 33.5522 66.8642 35.8552 69.8574 36.3411C71.8822 36.67 74.1976 35.9576 75.7504 34.5283C76.7664 33.5928 77.6277 32.0006 77.8895 30.5737C78.1417 29.1988 78.151 22.9474 77.9029 21.6307C77.4745 19.3584 75.973 17.4259 73.873 16.4446C72.9833 16.0288 72.3459 15.8727 71.2972 15.8132C70.2389 15.7531 69.649 15.8203 68.8473 16.0918C68.2663 16.2886 67.7489 16.4076 67.6976 16.3562C67.646 16.3049 67.6039 15.303 67.6039 14.1298C67.6039 11.7353 67.4516 11.328 66.39 10.8851C66.0524 10.7442 65.7528 10.6356 65.7243 10.6435C65.6957 10.6514 65.5482 10.6988 65.3964 10.7488ZM75.7 10.9509C74.987 11.3077 74.6618 11.9778 74.8459 12.7108C75.1198 13.8004 76.4066 14.2836 77.3243 13.6417C78.3271 12.9403 78.1969 11.4473 77.0872 10.9213C76.7478 10.7606 76.4414 10.6292 76.406 10.6294C76.3707 10.6294 76.053 10.7742 75.7 10.9509ZM77.2699 11.4475C77.5182 11.6955 77.7215 12.0563 77.7215 12.2494C77.7215 12.4424 77.5499 12.8181 77.3402 13.0843C77.0631 13.4363 76.7896 13.5684 76.3389 13.5684C75.6228 13.5684 75.1461 13.0435 75.1461 12.2549C75.1461 11.7013 75.886 10.9964 76.4669 10.9964C76.6603 10.9964 77.0216 11.1994 77.2699 11.4475ZM75.8207 11.4864C75.6248 11.6821 75.679 13.201 75.8819 13.201C75.9831 13.201 76.0659 13.0356 76.0659 12.8336C76.0659 12.6315 76.1432 12.4661 76.2375 12.4661C76.3319 12.4661 76.4616 12.6315 76.5258 12.8336C76.59 13.0356 76.7197 13.201 76.814 13.201C77.0429 13.201 77.0333 12.8846 76.8003 12.7408C76.6855 12.6699 76.7204 12.5211 76.8922 12.3495C77.2614 11.9808 77.2419 11.7829 76.8139 11.554C76.406 11.3361 75.9988 11.3084 75.8207 11.4864ZM76.7557 11.9609C76.6398 12.3085 76.0659 12.3579 76.0659 12.0203C76.0659 11.85 76.2232 11.7313 76.4491 11.7313C76.6739 11.7313 76.8008 11.8263 76.7557 11.9609ZM21.198 15.9728C19.4052 16.3946 17.5174 17.9291 16.5884 19.7198C16.0425 20.7719 16.0116 20.9468 15.9457 23.3594C15.9076 24.7532 15.9282 26.0993 15.9913 26.3504C16.0544 26.6015 16.3728 26.9693 16.699 27.1679C17.2549 27.5065 17.6502 27.5291 23.0376 27.5297L28.7833 27.5304L29.3841 26.9938L29.9849 26.4572V23.8248C29.9849 21.2615 29.97 21.1608 29.414 19.9896C28.7262 18.5398 27.9682 17.6438 26.8065 16.9073C25.2079 15.8936 23.0574 15.5354 21.198 15.9728ZM36.9358 16.0286C35.0963 16.6283 33.3351 18.1145 32.5597 19.7214C32.3156 20.2273 32.0249 21.1786 31.914 21.8354C31.7865 22.5886 31.7328 25.2834 31.7683 29.1345L31.8244 35.2396L32.3973 35.8115C32.8119 36.2254 33.1524 36.3885 33.6296 36.4021C34.5074 36.4269 35.1491 36.0582 35.4953 35.3296C35.7346 34.8259 35.7795 33.7264 35.7795 28.3661C35.7795 21.3456 35.7637 21.4527 36.9581 20.4054C37.732 19.7267 38.9273 19.4879 39.9168 19.814C40.8751 20.1298 41.756 21.0849 42.007 22.0795C42.1447 22.6261 42.218 25.0422 42.218 29.0405C42.218 35.815 42.2099 35.7661 43.4087 36.2664C44.3609 36.6637 45.4997 36.2041 45.889 35.2657C46.0409 34.8992 46.0858 32.8086 46.0455 27.9722L45.9891 21.1924L45.4052 19.9613C45.0831 19.2823 44.4396 18.3495 43.9703 17.8808C43.4948 17.4057 42.5798 16.7789 41.8953 16.4589C40.9043 15.9959 40.3889 15.8763 39.191 15.8315C38.2842 15.7975 37.4108 15.874 36.9358 16.0286ZM52.9794 16.0198C50.9877 16.6795 49.3987 18.001 48.5795 19.6788C47.98 20.9071 47.7366 22.2136 47.737 24.2027C47.7372 25.9826 48.0681 26.9102 48.8404 27.2954C49.1772 27.4635 50.7855 27.5256 54.853 27.5276C58.0222 27.5293 60.6082 27.4534 60.8774 27.3513C61.1369 27.2528 61.5146 26.9014 61.7166 26.5705C62.0192 26.0748 62.0839 25.6437 62.0845 24.1244C62.0854 21.9401 61.7475 20.4737 60.9278 19.1045C60.2149 17.9139 59.21 17.0543 57.7494 16.386C56.9126 16.0029 56.3158 15.8738 55.1869 15.8313C54.3061 15.7983 53.4198 15.874 52.9794 16.0198ZM8.27803 19.9764C9.96859 20.7517 10.1912 21.4619 10.2015 26.1125C10.2079 28.9911 10.1503 29.8881 9.92481 30.4271C9.35197 31.7967 8.34867 32.4924 6.95355 32.4876C5.74808 32.4834 4.74534 31.8889 4.1988 30.8543C3.79005 30.0803 3.7711 29.8721 3.7711 26.1357C3.7711 23.8126 3.85076 22.0169 3.96738 21.7095C4.24626 20.9741 4.85129 20.3705 5.70264 19.9781C6.63273 19.5495 7.34592 19.5489 8.27803 19.9764ZM24.3282 20.0205C25.3475 20.5134 26.0061 21.4894 26.1527 22.7249L26.2651 23.6725H23.0201H19.7753V22.9496C19.7753 21.5559 20.4134 20.5742 21.7068 19.9781C22.1115 19.7916 22.6855 19.6371 22.9824 19.6349C23.2793 19.6327 23.8849 19.8063 24.3282 20.0205ZM56.6434 20.1726C57.3964 20.6374 57.99 21.7128 58.0682 22.7539L58.1302 23.5806L54.9569 23.6309L51.7837 23.6811V22.841C51.7837 22.379 51.9005 21.7777 52.0432 21.5047C52.4082 20.807 53.2899 20.0111 53.9183 19.8122C54.663 19.5765 55.9543 19.7473 56.6434 20.1726ZM71.8222 19.8109C72.1681 19.9099 72.6923 20.22 72.9872 20.4998C74.0063 21.467 74.0424 21.6575 74.0424 26.0697C74.0424 30.6312 73.9607 31.0115 72.7891 31.9038C72.2319 32.3284 71.9628 32.3987 70.8969 32.3987C69.9289 32.3987 69.5423 32.3151 69.1464 32.0199C68.3767 31.446 67.9461 30.7782 67.7748 29.8925C67.5515 28.7379 67.5691 23.3016 67.7996 22.228C68.1092 20.786 69.3671 19.7128 70.8244 19.6474C71.0273 19.6384 71.4764 19.7119 71.8222 19.8109ZM17.1679 29.6717C16.2163 30.2811 16.0226 31.45 16.6648 32.7072C16.8763 33.1212 17.4571 33.8671 17.955 34.3646C20.7479 37.1535 25.3964 37.0598 28.1127 34.1598C28.9882 33.225 29.6972 31.9664 29.7049 31.3332C29.7119 30.7661 29.1744 29.937 28.6113 29.6462C27.5037 29.0741 26.6902 29.3899 25.7954 30.7394C25.4691 31.2316 24.9778 31.7993 24.7037 32.0008C24.4071 32.219 23.8061 32.4004 23.2182 32.4491C22.4531 32.5124 22.0547 32.441 21.4478 32.1318C21.0152 31.9113 20.5275 31.4783 20.3581 31.1642C20.1892 30.8513 19.8443 30.3553 19.5913 30.0619C19.0078 29.3851 17.8953 29.2058 17.1679 29.6717ZM49.1669 29.6539C48.8912 29.8033 48.5808 30.084 48.4771 30.2774C48.1305 30.9241 48.2688 31.9911 48.8246 32.9585C50.211 35.3726 53.0613 36.7214 55.949 36.3299C57.3645 36.1381 59.1164 35.2387 60.0547 34.222C60.4815 33.7598 61.0282 32.9504 61.2697 32.4235C61.6454 31.604 61.6813 31.3653 61.5179 30.7743C61.3901 30.3116 61.1329 29.9651 60.7403 29.7261C60.4177 29.5295 59.9633 29.3686 59.7306 29.3682C59.013 29.3669 58.2429 29.8925 57.8577 30.6467C57.6554 31.0427 57.1911 31.5944 56.8261 31.8724C56.3265 32.253 55.906 32.3945 55.1229 32.4454C53.7676 32.5336 53.005 32.1246 52.1338 30.8431C51.7697 30.3077 51.273 29.7597 51.03 29.6251C50.4535 29.3061 49.7898 29.3162 49.1669 29.6539Z" fill="#DE9048"/>
</g>
<defs>
<clipPath id="clip0_591_744">
<rect width="78" height="37" fill="white"/>
</clipPath>
</defs>
</svg>
