<svg width="434" height="434" fill="none" xmlns="http://www.w3.org/2000/svg"><path d="M148.703 187.364l26.095-9.498c14.173-5.158 29.845 2.149 35.003 16.322l-26.095 9.498c-14.173 5.159-29.844-2.149-35.003-16.322z" fill="#DDEEF8"/><path fill-rule="evenodd" clip-rule="evenodd" d="M207.369 182.698a41.057 41.057 0 002.407 11.5l39.647-14.43c17.504-6.371 28.04-23.411 26.937-41.103a41.064 41.064 0 00-2.407-11.5l-39.648 14.43c-17.503 6.371-28.039 23.411-26.936 41.103zm11.603-4.223c.658-11.37 7.929-21.808 19.311-25.951l26.474-9.636c-.658 11.37-7.929 21.809-19.311 25.952l-26.474 9.635zm-88.927 35.293c-2.414 2.291-2.396 3.546.153 10.547 1.762 4.843 2.123 6.292 1.558 6.265-6.707-.316-12.695 1.921-16.917 6.32-3.16 3.293-5.432 8.346-5.852 13.014l-.307 3.412 5.194 14.271 5.194 14.271 2.611 2.505c8.446 8.105 21.812 7.823 29.96-.633 2.836-2.943 5.322-8.619 5.722-13.066l.309-3.433-9.352-26.158c-10.418-29.14-10.173-28.641-14.148-28.825-1.1-.051-2.176-.018-2.392.072-.215.092-.995.738-1.733 1.438zm149.706-54.941c-1.89 1.488-2.7 2.802-2.781 4.513-.071 1.492 1.741 6.919 8.61 25.791 4.784 13.146 9.342 24.983 10.128 26.304 4.514 7.586 13.467 11.563 22.262 9.889 5.949-1.133 11.654-5.447 14.519-10.98 1.874-3.622 2.655-8.909 1.941-13.132-.689-4.069-6.975-21.422-8.993-24.824a21.27 21.27 0 00-16.418-10.319c-2.888-.255-4.814-.045-7.783.849-2.997.902-4.566 1.684-6.516 3.247-1.413 1.133-2.728 1.986-2.922 1.895-.195-.091-1.324-2.828-2.508-6.082-2.418-6.644-3.252-7.62-6.645-7.777-1.078-.05-2.019-.048-2.091.002a50.98 50.98 0 00-.803.624zm28.79-9.844c-1.618 1.71-1.844 3.897-.593 5.745 1.861 2.746 5.918 2.787 7.816.08 2.074-2.959.205-6.969-3.404-7.308-1.104-.103-2.087-.158-2.185-.122-.098.036-.833.758-1.634 1.605zm4.857-.208c.939.438 1.867 1.233 2.062 1.769.195.536.098 1.751-.215 2.702-.413 1.256-1.038 1.898-2.289 2.354-1.986.723-3.839-.252-4.635-2.44-.559-1.536.782-4.239 2.394-4.825.536-.195 1.743.003 2.683.44zm-3.982 1.572c-.346.74 1.339 4.9 1.902 4.695.28-.103.343-.645.139-1.205-.204-.561-.157-1.098.105-1.193.262-.095.789.232 1.171.728s.909.824 1.171.728c.635-.231.289-1.099-.503-1.262-.39-.081-.444-.529-.14-1.179.652-1.396.398-1.925-1.021-2.128-1.351-.192-2.509.142-2.824.816zm3.074.372c.029 1.081-1.513 1.798-1.854.861-.172-.472.144-.96.771-1.188.624-.227 1.072-.092 1.083.327zM162.405 217.95c-4.548 2.981-8.236 9.144-9.005 15.05-.452 3.47-.361 3.987 1.892 10.747 1.302 3.905 2.718 7.619 3.147 8.252.429.633 1.684 1.331 2.789 1.553 1.884.378 3.004.042 17.951-5.397l15.941-5.8 1.125-2.095 1.125-2.096-2.658-7.303c-2.589-7.111-2.732-7.375-5.457-10.063-3.372-3.328-6.38-5.048-10.346-5.919-5.459-1.198-11.787-.02-16.504 3.071zm43.719-15.737c-4.499 3.521-7.884 9.423-8.412 14.664-.167 1.65-.013 4.583.343 6.517.407 2.218 2.979 9.749 6.966 20.397l6.321 16.881 2.166 1.008c1.569.73 2.678.839 4.016.395 2.46-.818 3.868-2.489 4.093-4.86.155-1.639-.831-4.735-6.244-19.606-7.089-19.477-7.024-19.164-4.768-23.276 1.462-2.664 4.537-4.533 7.611-4.628 2.978-.091 6.386 1.669 8.087 4.175.934 1.377 3.577 8.006 7.614 19.099 6.841 18.794 6.769 18.667 10.6 18.844 3.043.141 5.738-2.284 5.871-5.28.051-1.171-1.935-7.016-6.931-20.393l-7.003-18.752-2.863-2.826c-1.579-1.559-4.306-3.497-6.081-4.323-1.799-.838-4.971-1.653-7.193-1.85-3.217-.284-4.767-.095-8.136.99-2.55.822-4.896 1.916-6.057 2.824zm44.501-16.225c-4.86 3.842-7.934 9.113-8.512 14.595-.423 4.013.221 7.883 2.23 13.401 1.798 4.938 3.653 7.177 6.185 7.466 1.104.126 5.629-1.325 16.915-5.427 8.794-3.196 15.892-6.017 16.536-6.573.62-.535 1.313-1.891 1.539-3.013.339-1.681.084-2.942-1.449-7.158-2.203-6.061-4.621-9.788-8.278-12.759-3.18-2.583-6.836-3.953-11.563-4.332-2.708-.218-4.494.026-7.669 1.049-2.477.797-4.86 1.902-5.934 2.751zm-120.021 56.116c5.473.443 6.807 2.189 11.532 15.081 2.925 7.98 3.671 10.526 3.589 12.25-.206 4.378-2.287 7.321-6.162 8.716-3.349 1.206-6.731.569-9.292-1.749-1.916-1.735-2.179-2.293-5.952-12.66-2.345-6.444-3.938-11.507-3.925-12.477.032-2.322 1.101-4.608 3.066-6.556 2.148-2.128 4.126-2.85 7.144-2.605zm44.573-16.085c3.325.338 6.138 2.381 7.792 5.66l1.269 2.516-9.003 3.277-9.002 3.276-.73-2.005c-1.407-3.867-.628-7.235 2.358-10.195.935-.926 2.371-1.934 3.193-2.24.821-.306 2.676-.436 4.123-.289zm89.806-32.209c2.559.529 5.292 2.913 6.56 5.723l1.006 2.231-8.752 3.343-8.753 3.344-.849-2.331c-.466-1.282-.749-3.068-.629-3.969.308-2.305 1.951-5.403 3.493-6.589 1.828-1.406 5.583-2.236 7.924-1.752zm41.746-16.331c1.06-.074 2.827.257 3.928.735 3.804 1.654 4.096 2.146 8.552 14.387 4.606 12.656 4.763 13.793 2.414 17.452-1.117 1.74-1.793 2.207-4.75 3.283-2.686.978-3.843 1.136-5.239.717-2.715-.815-4.584-2.233-5.953-4.517-1.786-2.978-7.226-18.078-7.671-21.289-.597-4.313 1.809-8.561 5.786-10.214.554-.23 1.874-.479 2.933-.554zm-141.672 82.546c-2.025 2.651-1.382 6.09 1.669 8.929 1.005.935 3.37 2.418 5.254 3.296 10.564 4.917 23.366-.037 27.974-10.826 1.485-3.477 2.181-7.684 1.563-9.449-.554-1.581-2.882-3.338-4.738-3.576-3.65-.469-5.588 1.229-6.708 5.876-.408 1.695-1.198 3.766-1.755 4.602-.603.905-2.087 2.015-3.669 2.744-2.058.948-3.236 1.152-5.232.907-1.423-.175-3.213-.883-4-1.584-.785-.697-2.242-1.725-3.24-2.284-2.303-1.288-5.57-.662-7.118 1.365zm88.758-32.361c-.614.693-1.192 1.785-1.284 2.426-.309 2.144 1.152 4.965 3.671 7.087 6.284 5.298 15.554 6.162 23.17 2.16 3.734-1.962 7.686-6.226 9.262-9.994.718-1.713 1.417-4.511 1.555-6.217.215-2.653.073-3.351-.977-4.826-.822-1.154-1.885-1.856-3.216-2.123-1.093-.219-2.516-.207-3.162.027-1.992.721-3.598 2.957-3.905 5.438-.162 1.303-.893 3.303-1.625 4.442-1.001 1.561-2.025 2.378-4.146 3.31-3.671 1.613-6.2 1.249-9.911-1.427-1.551-1.118-3.482-2.136-4.292-2.265-1.922-.302-3.753.396-5.14 1.962z" fill="#DDEEF8"/><path d="M85.98 131.125l-.82-.43c-4.01-2.108-11.328-3.755-18.23 9.379l-.565 1.073c-6.725 12.796-2.069 17.586.53 18.952l.31.163 4.35-8.276c-.687-.613-2.5-2.72.573-8.567 2.212-4.208 4.392-5.406 6.36-5.309l-5.686 10.818 4.943 2.598 5.686-10.818c1.309 1.625 1.799 4.19-.398 8.371-3.192 6.072-6.221 5.526-7.002 5.296l-4.35 8.276.424.223c2.655 1.395 9.386 2.445 16.066-10.266l.564-1.073c6.8-12.937 1.228-18.317-2.755-20.41zm19.915-6.906l-7.753-7.266 15.674-1.186 8.073-8.615-19.207 1.549 1.578-17.456-7.702 8.219-1.14 14.937-6.846-6.415-6.197 6.612 17.323 16.234 6.197-6.613zm35.569-42.045c.175.53 1.324 3.754-4.637 7.401-5.444 3.33-8.553 1.305-9.885-.872l-.2-.327c-1.382-2.259-1.7-5.469 3.88-8.883 5.852-3.58 8.114-1.41 8.567-.977l8.03-4.912-.217-.354c-1.609-2.57-6.782-7.11-19.112.433l-1.062.65c-12.63 7.727-10.537 14.938-8.172 18.803l.483.79c2.348 3.838 8.079 9.047 20.546 1.42l1.061-.65c12.222-7.477 10.619-14.315 8.987-16.982l-.266-.436-8.003 4.896zm27.827-2.047l-4.75-16.763 13.232-3.75 4.75 16.763 8.689-2.463-6.474-22.84-30.639 8.683 6.474 22.841 8.718-2.471zm28.342-31.235l.68 23.731 26.506-.759-.17-5.933-17.575.504-.093-3.254 16.969-.486-.165-5.773-16.969.486-.085-2.966 17.319-.497-.166-5.805-26.251.752zm54.962 19.884c8.481 1.846 11.78-1.16 12.695-5.369l.109-.499c.929-4.272-.794-8.206-9.338-10.065l-19.332-4.206-5.047 23.198 8.855 1.927 1.581-7.265 10.477 2.28zm-8.272-12.413l9.416 2.049c2.058.448 2.755 1.448 2.47 2.758l-.021.093c-.278 1.279-1.365 1.924-3.392 1.483l-9.416-2.049.943-4.334zm40.684 32.409l7.736-15.433 9.157 4.59 2.903-5.79-26.415-13.242-2.903 5.79 9.157 4.591-7.737 15.433 8.102 4.061zm52.858 8.712l-18.503 14.875 14.074 17.509c4.839 6.018 8.716 5.849 11.625 3.51l.299-.24c3.258-2.619 2.278-6.13 1.331-8.071 1.253.999 3.902 2.104 6.19.264l.274-.22c2.139-1.719 3.043-4.821-1.295-10.218l-13.995-17.409zm1.475 10.442l6.597 8.207c1.18 1.468.998 2.31.252 2.91l-.05.04c-.697.56-1.633.617-2.813-.85l-6.598-8.208 2.612-2.099zm-6.765 5.438l6.958 8.655c1.459 1.816 1.013 2.788.242 3.408l-.075.06c-.721.58-1.871.932-3.351-.909l-6.957-8.655 3.183-2.559zm38.033 30.408l-11.056 16.269c-.266.398-.495.613-.796.719l-.03.011c-.301.106-.575-.001-.787-.603l-1.387-3.943-5.99 2.106 1.577 4.486c1.747 4.967 3.341 5.556 8.094 6.76l21.332 5.352-3.06-8.7-11.819-2.541 7.405-10.012-3.483-9.904zm-8.431 62.382l17.19-1.587.942 10.2 6.45-.596-2.716-29.423-6.451.595.942 10.2-17.19 1.587.833 9.024zm22.378 38.25l.246-1.415c2.634-15.153-4.201-18.317-8.634-19.087l-.943-.164c-4.37-.759-12.06-.12-14.694 15.033l-.245 1.415c-2.628 15.122 4.395 18.318 8.765 19.078l.943.164c4.433.77 11.94.066 14.562-15.024zm-6.162-1.816c-1.207 6.948-4.53 7.99-7.014 7.558l-.44-.076c-2.483-.432-5.412-2.592-4.21-9.509 1.202-6.916 4.782-7.946 7.234-7.52l.378.066c2.483.431 5.276 2.439 4.052 9.481zm-31.68 40.583l-3.905 8.178 21.424 10.23 11.687-24.477c-11.115-5.307-13.396-6.75-14.019-8.037-.4-.792-.228-1.523.322-2.675l.207-.432-6.105-2.915-1.265 2.649c-1.884 3.945-1.801 6.142-.435 8.244 1.321 2.045 3.709 3.857 12.248 7.97l-4.235 8.869-15.924-7.604zm10.627 29.827l-18.264-15.167-16.941 20.4 4.567 3.792 11.232-13.527 2.504 2.08-10.845 13.06 4.443 3.69 10.845-13.061 2.283 1.896-11.069 13.33 4.468 3.711 16.777-20.204zm-46.462 15.622l5.289 7.32-12.027 8.69-5.289-7.319-7.319 5.289 13.905 19.243 7.319-5.289-4.915-6.803 12.027-8.69 4.915 6.802 7.345-5.308-13.905-19.243-7.345 5.308zm-48.229 26.422l-8.516 3.1 8.12 22.309 8.516-3.1 8.895-19.13 5.108 14.033 8.516-3.099-8.12-22.309-8.516 3.099-8.906 19.1-5.097-14.003zm-39.034 7.088l-9.038.665 1.743 23.677 9.037-.665 13.766-15.988 1.096 14.894 9.038-.665-1.742-23.677-9.038.665-13.768 15.956-1.094-14.862zm-49.081-6.336l-8.516-3.1-3.46 9.505-5.836-12.888-11.094-4.038 7.963 16.651-15.664 5.811 10.585 3.852 12.409-4.89-3.023 8.306 8.516 3.1 3.023-8.306 6.362 11.722 10.645 3.874-8.314-14.571 16.734-7.629-11.035-4.016-12.755 6.122 3.46-9.505zm-51.778-28.743l-7.753-6.195-5.124 26.295 9.523 7.61 23.994-11.216-7.179-5.737-3.811 1.856-10.595-8.466.945-4.147zm3.776 15.516l-8.141 3.952 1.983-8.872 6.158 4.92zm-27.5-41.592l-4.87-7.643-8.531 5.436 3.216-13.778-6.345-9.958-3.817 18.059-15.965-4.925 6.053 9.5 12.821 3.674-7.454 4.749 4.87 7.643 7.454-4.749-2.088 13.172 6.087 9.554 2.275-16.621 17.919 4.133-6.31-9.903-13.846-2.907 8.53-5.436zm-24.338-30.959l.742 3.038 10.168-2.484-2.022-8.276-4.03.984-4.55-18.63 4.029-.984-2.022-8.277-10.167 2.484.908 3.72-16.925 4.134 6.55 26.814c10.199-2.491 14.397-3.189 17.32-2.523zm-1.991-8.152c-2.25-.469-6.44.128-11.128 1.24l-2.462-10.074 10.788-2.636 2.802 11.47zm-16.86-51.304l-.69 9.964-6.972-.484-.627 9.041 23.683 1.643 1.319-19.005c.665-9.581-2.894-12.227-7.319-12.534l-.51-.036c-4.392-.304-8.221 1.861-8.884 11.411zm18.288-21.538l-23.684-1.643-.625 9.009 23.684 1.643.625-9.009zm-8.156 32.253l-4.934-.343.612-8.817c.203-2.929 1.311-3.684 2.648-3.591l.096.006c1.305.091 2.393.998 2.19 3.927l-.612 8.818z" fill="#DDEEF8"/></svg>