<svg width="27" height="22" viewBox="0 0 27 22" fill="none" xmlns="http://www.w3.org/2000/svg">
<path d="M18.8102 7.92408V10.0047L20.4349 8.70495L25.4136 4.72198V20.1309H1V1H5.6034V7.92408V10.0047L7.22809 8.70495L12.2068 4.72198V7.92408V10.0047L13.8315 8.70495L18.8102 4.72198V7.92408ZM9.24476 18.1688H10.2448V17.1688V13.2068V12.2068H9.24476H6.6034H5.6034V13.2068V17.1688V18.1688H6.6034H9.24476ZM15.8482 18.1688H16.8482V17.1688V13.2068V12.2068H15.8482H13.2068H12.2068V13.2068V17.1688V18.1688H13.2068H15.8482ZM22.4516 18.1688H23.4516V17.1688V13.2068V12.2068H22.4516H19.8102H18.8102V13.2068V17.1688V18.1688H19.8102H22.4516Z" fill="#A8E5F9" stroke="#A8E5F9" stroke-width="2"/>
</svg>
