<svg width="39" height="48" viewBox="0 0 39 48" fill="none" xmlns="http://www.w3.org/2000/svg">
<path d="M10.2408 30.432C9.79922 30.432 9.50162 30.4752 9.34802 30.5184V33.3456C9.53042 33.3888 9.75842 33.4008 10.0728 33.4008C11.2224 33.4008 11.9304 32.82 11.9304 31.8384C11.9304 30.96 11.3208 30.432 10.2408 30.432ZM18.6096 30.4608C18.1296 30.4608 17.8176 30.504 17.6328 30.5472V36.8112C17.8176 36.8544 18.1152 36.8544 18.384 36.8544C20.3448 36.8688 21.6216 35.7888 21.6216 33.504C21.636 31.512 20.472 30.4608 18.6096 30.4608Z" fill="#E7305C"/>
<path d="M24 0H4.8C3.52696 0 2.30606 0.505713 1.40589 1.40589C0.505713 2.30606 0 3.52696 0 4.8V43.2C0 44.473 0.505713 45.6939 1.40589 46.5941C2.30606 47.4943 3.52696 48 4.8 48H33.6C34.873 48 36.0939 47.4943 36.9941 46.5941C37.8943 45.6939 38.4 44.473 38.4 43.2V14.4L24 0ZM13.1952 34.056C12.4536 34.752 11.3592 35.064 10.0848 35.064C9.8377 35.0667 9.59071 35.0522 9.3456 35.0208V38.4432H7.2V28.9968C8.16829 28.8524 9.14669 28.7865 10.1256 28.8C11.4624 28.8 12.4128 29.0544 13.0536 29.5656C13.6632 30.0504 14.076 30.8448 14.076 31.7808C14.0736 32.7216 13.7616 33.516 13.1952 34.056ZM22.332 37.308C21.324 38.1456 19.7904 38.544 17.916 38.544C16.7928 38.544 15.9984 38.472 15.4584 38.4V28.9992C16.427 28.8578 17.4051 28.7912 18.384 28.8C20.2008 28.8 21.3816 29.1264 22.3032 29.8224C23.2992 30.5616 23.9232 31.74 23.9232 33.432C23.9232 35.2632 23.2536 36.528 22.332 37.308ZM31.2 30.648H27.5232V32.8344H30.96V34.596H27.5232V38.4456H25.3488V28.872H31.2V30.648ZM24 16.8H21.6V4.8L33.6 16.8H24Z" fill="#E7305C"/>
</svg>
