<svg width="38" height="48" viewBox="0 0 38 48" fill="none" xmlns="http://www.w3.org/2000/svg">
<path d="M23.75 0H4.75C3.49022 0 2.28204 0.505713 1.39124 1.40589C0.500445 2.30606 0 3.52696 0 4.8V43.2C0 44.473 0.500445 45.6939 1.39124 46.5941C2.28204 47.4943 3.49022 48 4.75 48H33.25C34.5098 48 35.718 47.4943 36.6088 46.5941C37.4996 45.6939 38 44.473 38 43.2V14.4L23.75 0ZM14.2453 30.6432H11.6256V38.5008H9.44775V30.6432H6.87088V28.8H14.2453V30.6432ZM20.7171 38.5008L19.8503 36.7464C19.494 36.0696 19.266 35.5656 18.9976 35.004H18.9668C18.7696 35.5632 18.5274 36.0672 18.2257 36.7464L17.4301 38.5008H14.9482L17.7294 33.5928L15.048 28.8H17.5417L18.3825 30.5712C18.6699 31.1592 18.8812 31.6344 19.1092 32.1816H19.1401C19.3681 31.5624 19.5534 31.1304 19.7956 30.5712L20.6055 28.8H23.0826L20.3775 33.5352L23.2227 38.5008H20.7171ZM31.1291 30.6432H28.5071V38.5008H26.3293V30.6432H23.7524V28.8H31.1268V30.6432H31.1291ZM23.75 16.8H21.375V4.8L33.25 16.8H23.75Z" fill="#4497F9"/>
</svg>
