<svg width="33" height="33" viewBox="0 0 33 33" fill="none" xmlns="http://www.w3.org/2000/svg">
<path fill-rule="evenodd" clip-rule="evenodd" d="M0.267537 0.645007C0.547809 0.240994 1.0083 0 1.50001 0H11.25C11.8689 0 12.4242 0.380084 12.6483 0.956986L15.2141 7.56409C15.6375 7.52166 16.0664 7.5 16.5 7.5C16.9336 7.5 17.3625 7.52166 17.7859 7.56409L20.3517 0.956986C20.5758 0.380084 21.1311 0 21.75 0H31.5C31.9917 0 32.4522 0.240994 32.7325 0.645007C33.0127 1.04902 33.0772 1.56474 32.905 2.02532L28.0845 14.9181C28.8537 16.5875 29.2525 18.4067 29.25 20.2503C29.2498 27.2916 23.5413 33 16.5 33C9.45858 33 3.75001 27.2914 3.75001 20.25C3.75001 18.3491 4.16672 16.542 4.9154 14.9179L0.0950023 2.02532C-0.0772001 1.56474 -0.0127361 1.04902 0.267537 0.645007ZM6.95198 11.7987C7.52251 11.1545 8.15843 10.5676 8.85111 10.0483C9.88898 9.27015 11.0366 8.6568 12.2531 8.22657L10.2234 3H3.66226L6.95198 11.7987ZM14.5498 10.6947C13.1365 10.9842 11.805 11.5832 10.6507 12.4486C9.49622 13.3142 8.54784 14.4248 7.87379 15.7007C7.15659 17.0572 6.75 18.604 6.75 20.25C6.75 25.6346 11.1154 30 16.5 30C21.8846 30 26.25 25.6346 26.25 20.25L26.25 20.2477C26.2524 18.663 25.8666 17.1019 25.1263 15.7008C24.4522 14.4249 23.5038 13.3142 22.3493 12.4486C21.195 11.5832 19.8635 10.9842 18.4502 10.6947C17.8211 10.567 17.1692 10.5 16.5 10.5C15.8308 10.5 15.1789 10.567 14.5498 10.6947ZM20.7469 8.22657C21.9634 8.6568 23.111 9.27015 24.1489 10.0483C24.8416 10.5676 25.4775 11.1545 26.048 11.7987L29.3377 3H22.7766L20.7469 8.22657ZM29.25 20.2503C29.25 20.251 29.25 20.2516 29.25 20.2523L27.75 20.25L29.25 20.2503C29.25 20.2502 29.25 20.2504 29.25 20.2503ZM17.3771 13.7831C17.7682 14.0651 18 14.5178 18 15V23.25H19.5C20.3284 23.25 21 23.9216 21 24.75C21 25.5784 20.3284 26.25 19.5 26.25H13.5C12.6716 26.25 12 25.5784 12 24.75C12 23.9216 12.6716 23.25 13.5 23.25H15V17.25H14.25C13.5143 17.25 12.8872 16.7165 12.7694 15.9903C12.6515 15.2641 13.0777 14.5596 13.7757 14.327L16.0257 13.577C16.4831 13.4245 16.9859 13.5012 17.3771 13.7831Z" fill="black"/>
</svg>
