<svg width="46" height="30" viewBox="0 0 46 30" fill="none" xmlns="http://www.w3.org/2000/svg">
<rect width="45.3" height="29.445" rx="10" fill="#BD4BE4"/>
<path d="M10.7602 11.0897V20.6499H9.0803V11.0897H10.7602ZM11.1188 8.08862C11.1188 8.2522 11.0842 8.40635 11.015 8.55105C10.9521 8.68947 10.864 8.8153 10.7507 8.92855C10.6438 9.03551 10.5148 9.12045 10.3638 9.18337C10.2191 9.24628 10.065 9.27774 9.90137 9.27774C9.73778 9.27774 9.58364 9.24628 9.43893 9.18337C9.30051 9.12045 9.17783 9.03551 9.07087 8.92855C8.96391 8.8153 8.87897 8.68947 8.81605 8.55105C8.75314 8.40635 8.72168 8.2522 8.72168 8.08862C8.72168 7.92503 8.75314 7.77089 8.81605 7.62618C8.87897 7.47518 8.96391 7.3462 9.07087 7.23924C9.17783 7.12599 9.30051 7.03791 9.43893 6.97499C9.58364 6.91207 9.73778 6.88062 9.90137 6.88062C10.065 6.88062 10.2191 6.91207 10.3638 6.97499C10.5148 7.03791 10.6438 7.12599 10.7507 7.23924C10.864 7.3462 10.9521 7.47518 11.015 7.62618C11.0842 7.77089 11.1188 7.92503 11.1188 8.08862Z" fill="white"/>
<path d="M15.1059 12.4771C15.3135 12.2443 15.5337 12.0335 15.7665 11.8447C15.9993 11.656 16.2446 11.4956 16.5026 11.3634C16.7669 11.225 17.0437 11.1212 17.3331 11.052C17.6288 10.9765 17.9465 10.9387 18.2863 10.9387C18.8085 10.9387 19.2678 11.0268 19.6642 11.203C20.0668 11.3729 20.4003 11.6182 20.6645 11.9391C20.9351 12.2537 21.1396 12.6343 21.278 13.0811C21.4164 13.5278 21.4856 14.0217 21.4856 14.5627V20.6499H19.7963V14.5627C19.7963 13.8392 19.6296 13.2792 19.2961 12.8829C18.9689 12.4802 18.4688 12.2789 17.7955 12.2789C17.2985 12.2789 16.8329 12.3984 16.3988 12.6375C15.971 12.8766 15.5746 13.2006 15.2097 13.6096V20.6499H13.5204V11.0897H14.5302C14.7693 11.0897 14.9171 11.2061 14.9737 11.4389L15.1059 12.4771Z" fill="white"/>
<path d="M29.6135 12.6658C29.538 12.8042 29.4216 12.8734 29.2643 12.8734C29.1699 12.8734 29.063 12.8388 28.9434 12.7696C28.8239 12.7004 28.676 12.6249 28.4999 12.5431C28.33 12.455 28.1255 12.3764 27.8864 12.3072C27.6474 12.2317 27.3642 12.1939 27.0371 12.1939C26.7539 12.1939 26.4991 12.2317 26.2726 12.3072C26.0461 12.3764 25.8511 12.4739 25.6875 12.5997C25.5302 12.7256 25.4075 12.8734 25.3194 13.0433C25.2377 13.2069 25.1968 13.3862 25.1968 13.5812C25.1968 13.8266 25.266 14.0311 25.4044 14.1947C25.5491 14.3583 25.7378 14.4998 25.9706 14.6194C26.2034 14.7389 26.4677 14.8459 26.7634 14.9402C27.0591 15.0283 27.3611 15.1258 27.6694 15.2328C27.984 15.3335 28.2891 15.4467 28.5848 15.5726C28.8805 15.6984 29.1448 15.8557 29.3776 16.0444C29.6104 16.2332 29.796 16.466 29.9344 16.7428C30.0791 17.0133 30.1514 17.3405 30.1514 17.7243C30.1514 18.1647 30.0728 18.5737 29.9155 18.9512C29.7582 19.3224 29.5254 19.6464 29.2171 19.9232C28.9088 20.1938 28.5313 20.4077 28.0846 20.565C27.6379 20.7223 27.122 20.8009 26.5369 20.8009C25.87 20.8009 25.266 20.694 24.7249 20.4801C24.1838 20.2598 23.7245 19.9799 23.347 19.6401L23.7434 18.9984C23.7937 18.9166 23.8535 18.8537 23.9227 18.8096C23.9919 18.7656 24.08 18.7436 24.1869 18.7436C24.3002 18.7436 24.4197 18.7876 24.5456 18.8757C24.6714 18.9638 24.8224 19.0613 24.9986 19.1682C25.181 19.2752 25.4012 19.3727 25.6592 19.4608C25.9172 19.5489 26.238 19.5929 26.6218 19.5929C26.949 19.5929 27.2353 19.552 27.4806 19.4702C27.726 19.3822 27.9305 19.2658 28.0941 19.1211C28.2577 18.9763 28.3772 18.8096 28.4527 18.6209C28.5345 18.4321 28.5754 18.2308 28.5754 18.0169C28.5754 17.7526 28.503 17.5356 28.3583 17.3657C28.2199 17.1895 28.0343 17.0417 27.8015 16.9221C27.5687 16.7963 27.3013 16.6893 26.9993 16.6012C26.7036 16.5069 26.3985 16.4093 26.0839 16.3087C25.7756 16.208 25.4704 16.0948 25.1684 15.9689C24.8727 15.8368 24.6085 15.6732 24.3757 15.4782C24.1429 15.2831 23.9542 15.0441 23.8094 14.7609C23.671 14.4715 23.6018 14.1223 23.6018 13.7134C23.6018 13.3485 23.6773 12.9993 23.8283 12.6658C23.9793 12.3261 24.1995 12.0303 24.4889 11.7787C24.7784 11.5207 25.1338 11.3162 25.5554 11.1652C25.9769 11.0142 26.4582 10.9387 26.9993 10.9387C27.6285 10.9387 28.1916 11.0394 28.6886 11.2407C29.192 11.4358 29.6261 11.7063 29.991 12.0524L29.6135 12.6658Z" fill="white"/>
<path d="M35.1461 20.8009C34.3911 20.8009 33.8091 20.5902 33.4002 20.1686C32.9975 19.7471 32.7962 19.1399 32.7962 18.3472V12.4959H31.6448C31.5441 12.4959 31.4592 12.4676 31.39 12.411C31.3208 12.3481 31.2862 12.2537 31.2862 12.1279V11.4578L32.8528 11.2596L33.2397 8.30568C33.2586 8.2113 33.2995 8.1358 33.3624 8.07918C33.4316 8.01626 33.5197 7.9848 33.6267 7.9848H34.476V11.2785H37.2412V12.4959H34.476V18.2339C34.476 18.6366 34.5736 18.9355 34.7686 19.1305C34.9636 19.3255 35.2153 19.4231 35.5236 19.4231C35.6998 19.4231 35.8508 19.401 35.9766 19.357C36.1087 19.3067 36.222 19.2532 36.3163 19.1966C36.4107 19.1399 36.4894 19.0896 36.5523 19.0456C36.6215 18.9952 36.6813 18.9701 36.7316 18.9701C36.8197 18.9701 36.8983 19.0235 36.9675 19.1305L37.4583 19.9327C37.1689 20.2032 36.8197 20.4171 36.4107 20.5744C36.0018 20.7254 35.5802 20.8009 35.1461 20.8009Z" fill="white"/>
</svg>
