<svg width="39" height="39" viewBox="0 0 39 39" fill="none" xmlns="http://www.w3.org/2000/svg">
<path fill-rule="evenodd" clip-rule="evenodd" d="M0.043457 19.4569C0.043457 8.71126 8.75435 0.000366211 19.5 0.000366211C30.2456 0.000366211 38.9565 8.71126 38.9565 19.4569C38.9565 30.2025 30.2456 38.9134 19.5 38.9134C8.75435 38.9134 0.043457 30.2025 0.043457 19.4569ZM7.61698 19.0005L27.397 11.373C28.2995 10.9647 29.1719 11.5905 28.8272 12.9728L25.4591 28.8459C25.2237 29.9749 24.5443 30.2426 23.5983 29.7216L18.4675 25.9319L16.0009 28.3305C15.9917 28.3393 15.9825 28.3482 15.9734 28.357C15.6983 28.6231 15.4702 28.8436 14.9734 28.8436L15.3237 23.6091L15.3215 23.608H15.3237L24.8433 15.0166C25.2606 14.6462 24.753 14.4644 24.1974 14.8024L12.4476 22.2157L7.36931 20.6315C6.27489 20.2957 6.26708 19.5427 7.61698 19.0005Z" fill="#05BFFA"/>
</svg>
