<svg width="207" height="62" fill="none" xmlns="http://www.w3.org/2000/svg"><path d="M70 6.636h13.376c7.33 0 13.272 5.943 13.272 13.273H83.272C75.942 19.909 70 13.966 70 6.636z" fill="#fff"/><path fill-rule="evenodd" clip-rule="evenodd" d="M97.452 14.267a20.044 20.044 0 00-.805 5.641h20.322c8.971 0 16.547-6.02 18.962-14.267.524-1.788.805-3.682.805-5.641h-20.322c-8.971 0-16.547 6.02-18.962 14.267zm5.947 0c2.171-5.074 7.181-8.626 13.015-8.626h13.57c-2.171 5.074-7.181 8.626-13.015 8.626h-13.57z" fill="#fff"/><path d="M6.862 47.394c-3.682 0-6.342 1.274-6.342 3.64v.252h3.43c0-1.26 1.624-1.596 3.402-1.596 2.24 0 2.996.336 2.996.896v.042c0 .546-.714.77-2.338.77H4.93v2.254h3.094c1.708 0 2.59.266 2.59.952v.042c0 .686-.882 1.078-3.178 1.078-2.324 0-3.528-.546-3.528-1.736H.478v.154c0 2.856 2.716 3.892 6.44 3.892h.756c5.096 0 6.3-1.498 6.3-3.206v-.14c0-1.162-1.008-2.17-3.08-2.324 1.988-.14 2.8-1.148 2.8-2.114v-.154c0-1.47-1.316-2.702-6.132-2.702h-.7zm32.534 10.514h3.514l-5.572-10.416H33.11l-5.264 10.416h3.318l.938-1.904h6.314l.98 1.904zm-6.132-4.256l1.932-3.906 2.016 3.906h-3.948zm24.137-6.16v10.416h3.262v-7.896h7.197v-2.52H57.4zm33.379 6.944c3.724 0 4.858-1.554 4.858-3.416v-.14c0-1.904-1.12-3.388-4.858-3.388h-7.812v10.416h3.262v-3.472h4.55zm-4.55-4.578h4.494c1.036 0 1.512.406 1.512 1.106v.042c0 .7-.49 1.092-1.512 1.092H86.23v-2.24zm22.758-2.366l4.914 7.168c.126.182.224.322.224.49v.014c0 .126-.07.224-.364.224h-1.834v2.52h2.044c2.002 0 2.408-.658 3.458-2.408l4.788-8.008h-3.276l-2.94 5.054-3.234-5.054h-3.78zm33.308-.098c-3.682 0-6.342 1.274-6.342 3.64v.252h3.43c0-1.26 1.624-1.596 3.402-1.596 2.24 0 2.996.336 2.996.896v.042c0 .546-.714.77-2.338.77h-3.08v2.254h3.094c1.708 0 2.59.266 2.59.952v.042c0 .686-.882 1.078-3.178 1.078-2.324 0-3.528-.546-3.528-1.736h-3.43v.154c0 2.856 2.716 3.892 6.44 3.892h.756c5.096 0 6.3-1.498 6.3-3.206v-.14c0-1.162-1.008-2.17-3.08-2.324 1.988-.14 2.8-1.148 2.8-2.114v-.154c0-1.47-1.316-2.702-6.132-2.702h-.7zm25.473 10.514v-4.914l5.502 4.914h4.256l-6.272-5.656 5.992-4.76h-4.144l-5.334 4.34v-4.34h-3.262v10.416h3.262zm34.938 0h3.514l-5.572-10.416h-4.228l-5.264 10.416h3.318l.938-1.904h6.314l.98 1.904zm-6.132-4.256l1.932-3.906 2.016 3.906h-3.948z" fill="#fff"/></svg>