<svg width="78" height="37" fill="none" xmlns="http://www.w3.org/2000/svg"><g clip-path="url(#clip0_591_762)" fill="#fff"><path d="M20.38 4.65h9.407a9.25 9.25 0 019.25 9.25H29.63a9.25 9.25 0 01-9.25-9.25z"/><path fill-rule="evenodd" clip-rule="evenodd" d="M39.593 9.962a13.902 13.902 0 00-.566 3.939h14.29c6.31 0 11.637-4.203 13.336-9.962.368-1.249.566-2.57.566-3.939H52.928c-6.31 0-11.637 4.203-13.335 9.962zm4.182 0a9.964 9.964 0 019.153-6.023h9.543a9.965 9.965 0 01-9.153 6.023h-9.543zm-32.392.931c-1.034.45-1.173.851-1.173 3.375 0 1.745-.054 2.248-.23 2.174-2.098-.878-4.263-.86-6.117.052-1.387.682-2.695 2.027-3.37 3.464L0 21.008v10.289l.54 1.1c1.75 3.557 6.037 5.016 9.61 3.269 1.243-.609 2.692-2.127 3.335-3.496l.496-1.057.053-9.41c.06-10.48.08-10.294-1.163-10.813-.345-.143-.69-.258-.77-.254-.08.004-.402.12-.718.257zm54.013-.144c-.774.255-1.183.579-1.408 1.114-.195.467-.247 2.404-.247 9.207 0 4.738.08 9.033.176 9.545.558 2.937 2.947 5.24 5.94 5.726 2.025.329 4.34-.383 5.893-1.813 1.016-.935 1.878-2.527 2.14-3.954.252-1.375.261-7.627.013-8.943a7.204 7.204 0 00-4.03-5.186c-.89-.416-1.527-.572-2.576-.632-1.058-.06-1.648.007-2.45.279-.58.197-1.098.316-1.15.264-.051-.051-.093-1.053-.093-2.226 0-2.395-.152-2.802-1.214-3.245-.338-.14-.637-.25-.666-.242l-.328.106zm10.304.202c-.713.357-1.038 1.027-.854 1.76.274 1.09 1.56 1.573 2.478.93a1.57 1.57 0 00-.237-2.72c-.34-.16-.646-.292-.681-.292-.035 0-.353.145-.706.322zm1.57.496c.248.248.452.61.452.802 0 .193-.172.57-.382.835-.277.352-.55.484-1.001.484-.716 0-1.193-.524-1.193-1.313 0-.554.74-1.259 1.32-1.259.194 0 .556.203.804.451zm-1.45.04c-.195.195-.141 1.714.062 1.714.101 0 .184-.165.184-.367 0-.202.077-.368.171-.368.095 0 .225.166.289.368.064.202.194.367.288.367.229 0 .22-.316-.014-.46-.114-.071-.08-.22.092-.391.37-.37.35-.567-.078-.796-.408-.218-.815-.246-.993-.068zm.936.474c-.116.348-.69.397-.69.06 0-.171.157-.29.383-.29.225 0 .352.095.307.23zm-55.558 4.012c-1.793.422-3.68 1.956-4.61 3.747-.546 1.052-.576 1.227-.642 3.64-.038 1.393-.018 2.74.045 2.99.063.252.382.62.708.818.556.338.951.361 6.339.362h5.745l.601-.536.6-.537v-2.632c0-2.563-.014-2.664-.57-3.835-.688-1.45-1.446-2.346-2.608-3.083-1.598-1.013-3.749-1.372-5.608-.934zm15.738.056c-1.84.6-3.6 2.085-4.376 3.692-.244.506-.535 1.458-.646 2.114-.128.754-.181 3.448-.146 7.3l.056 6.105.573.572c.415.413.755.577 1.233.59.877.025 1.52-.344 1.865-1.072.24-.504.285-1.604.285-6.964 0-7.02-.016-6.913 1.178-7.96.774-.68 1.97-.918 2.959-.592.958.316 1.839 1.27 2.09 2.265.138.547.211 2.963.211 6.962 0 6.774-.008 6.725 1.19 7.225.953.398 2.092-.062 2.481-1 .152-.367.197-2.457.156-7.294l-.056-6.78-.584-1.23c-.322-.68-.965-1.613-1.435-2.081-.475-.475-1.39-1.102-2.075-1.422-.99-.463-1.506-.583-2.704-.627-.907-.035-1.78.042-2.255.197zm16.043-.01c-1.991.66-3.58 1.982-4.4 3.66-.599 1.228-.842 2.535-.842 4.524 0 1.78.331 2.707 1.103 3.092.337.168 1.945.23 6.013.233 3.17.001 5.755-.075 6.024-.177.26-.098.638-.45.84-.78.302-.496.367-.927.367-2.447.001-2.184-.337-3.65-1.156-5.02-.713-1.19-1.718-2.05-3.179-2.718-.836-.383-1.433-.512-2.562-.555-.88-.033-1.767.043-2.208.189zM8.278 19.977c1.69.776 1.913 1.486 1.923 6.137.007 2.878-.05 3.775-.276 4.314-.573 1.37-1.576 2.065-2.971 2.06-1.206-.004-2.209-.598-2.755-1.633-.409-.774-.428-.982-.428-4.718 0-2.323.08-4.12.196-4.427.28-.735.884-1.338 1.736-1.73.93-.43 1.643-.43 2.575-.003zm16.05.044c1.02.493 1.678 1.47 1.825 2.705l.112.947h-6.49v-.722c0-1.394.638-2.376 1.932-2.972.404-.186.979-.34 1.275-.343.297-.002.903.171 1.346.385zm32.315.153c.753.464 1.347 1.54 1.425 2.58l.062.828-3.173.05-3.173.05v-.84c0-.462.117-1.063.26-1.336.364-.698 1.246-1.494 1.874-1.693.745-.236 2.036-.065 2.725.36zm15.18-.362c.345.099.87.409 1.164.689 1.02.967 1.055 1.157 1.055 5.57 0 4.561-.081 4.942-1.253 5.834-.557.424-.826.495-1.892.495-.968 0-1.355-.084-1.75-.38-.77-.573-1.2-1.24-1.372-2.127-.224-1.154-.206-6.59.025-7.664.31-1.442 1.567-2.515 3.024-2.58.203-.01.652.064.998.163zm-54.655 9.86c-.952.61-1.145 1.779-.503 3.036.211.414.792 1.16 1.29 1.658 2.793 2.788 7.441 2.695 10.158-.205.875-.935 1.584-2.194 1.592-2.827.007-.567-.53-1.396-1.094-1.687-1.107-.572-1.92-.256-2.816 1.093-.326.493-.817 1.06-1.091 1.262-.297.218-.898.4-1.486.448-.765.063-1.163-.008-1.77-.317-.433-.22-.92-.654-1.09-.968a7.509 7.509 0 00-.767-1.102c-.583-.677-1.696-.856-2.423-.39zm31.999-.017c-.276.15-.586.43-.69.623-.346.647-.208 1.714.348 2.681 1.386 2.415 4.236 3.763 7.124 3.372 1.416-.192 3.167-1.091 4.106-2.108.426-.462.973-1.272 1.215-1.799.375-.819.411-1.058.248-1.649a1.706 1.706 0 00-.778-1.048c-.322-.197-.777-.357-1.01-.358-.717-.001-1.487.524-1.872 1.279-.203.396-.667.947-1.032 1.225-.5.381-.92.523-1.703.573-1.355.089-2.118-.32-2.99-1.602-.363-.535-.86-1.083-1.103-1.218-.577-.319-1.24-.309-1.863.029z"/></g><defs><clipPath id="clip0_591_762"><path fill="#fff" d="M0 0h78v37H0z"/></clipPath></defs></svg>