<svg width="166" height="35" fill="none" xmlns="http://www.w3.org/2000/svg"><path fill-rule="evenodd" clip-rule="evenodd" d="M47.812.072a1.986 1.986 0 00-.417.25c-.25.194-.588.298-.97.298a1.15 1.15 0 00-.795.28c-.12.102-.37.23-.601.308a2.05 2.05 0 00-.637.335c-.234.196-.347.248-.773.36-.161.041-.345.192-.869.71-1.071 1.06-1.261 1.294-1.407 1.733a2.156 2.156 0 01-.35.657c-.16.2-.241.361-.287.57a1.55 1.55 0 01-.176.449l-.264.372-.152.214v5.472l.152.214.266.374c.062.088.14.3.173.472.047.241.112.376.286.593.149.185.27.414.355.67l.13.39 1.253 1.27 1.254 1.269.399.136c.261.089.482.207.64.342.17.146.337.232.564.29.443.114.543.175.864.526.198.217.297.376.338.54.04.163.06 1.24.063 3.519.003 1.806.02 3.819.038 4.472l.034 1.189.152.213.265.375c.062.088.14.298.173.467.044.228.116.38.279.593.215.28.262.385.374.824.046.182.194.358.922 1.096.948.962 1.093 1.078 1.538 1.234.182.063.394.19.54.323.884.808.97.857 1.617.911.543.045.68.087.9.274.382.322.364.32 2.106.338 1.76.018 1.875.004 2.21-.272.327-.268.43-.303.978-.34.465-.03.542-.05.724-.183.112-.082.273-.2.36-.262a1.48 1.48 0 01.443-.178 1.27 1.27 0 00.562-.291 2.11 2.11 0 01.655-.356c.365-.125.406-.156 1.03-.788.633-.641.652-.667.782-1.063.119-.361.171-.444.476-.746.406-.403.495-.454.784-.454.284 0 .42.09 1.011.676.846.837 1.036.985 1.437 1.127.363.127.572.283 1.256.934.135.129.323.23.594.322.218.073.475.2.572.28.3.249.49.32.98.361.497.043.604.082.924.341.298.242.475.283 1.228.283.757 0 .9.037 1.25.327.357.294.404.299 2.831.281 2.422-.018 2.324-.005 2.716-.337.245-.207.372-.236 1.197-.27.842-.036.948-.066 1.321-.367.105-.084.34-.187.573-.25.3-.08.46-.16.664-.328.158-.13.372-.25.52-.29.317-.087.509-.184.731-.369.097-.08.35-.205.563-.277.352-.118.431-.173.866-.594.537-.521.616-.574 1.024-.682.247-.065.36-.143.798-.545.438-.403.534-.468.687-.468.197 0 .272.06 1.247 1.021.406.4.582.538.736.579.465.12.57.184 1.1.667.5.455.596.518.95.638.216.073.472.199.57.279.299.249.49.32.978.361.498.043.605.082.925.341.298.242.475.283 1.22.283.727 0 .921.041 1.193.256.45.354.296.336 2.82.336 2.513 0 2.397.013 2.792-.321.245-.207.372-.236 1.197-.27.842-.036.949-.066 1.321-.366.1-.08.345-.19.555-.249.277-.077.442-.161.624-.316.176-.15.365-.248.649-.337.254-.079.476-.188.607-.3.121-.101.372-.23.601-.308.358-.121.438-.176.877-.598.544-.523.623-.576 1.028-.683.248-.065.361-.143.798-.545.438-.403.534-.468.688-.468.196 0 .271.06 1.246 1.021.407.4.582.538.737.579.465.12.569.184 1.1.667.5.455.595.518.949.638.216.073.473.199.569.279.298.247.492.32.98.364.521.047.659.09.876.274.327.277.459.312 1.293.347.825.035.952.064 1.197.27.395.335.28.322 2.792.322 2.512 0 2.396.013 2.792-.321.243-.206.37-.235 1.171-.27.814-.037.926-.068 1.296-.367.105-.084.34-.187.573-.25.3-.08.46-.16.664-.328.158-.13.372-.25.519-.29a1.74 1.74 0 00.732-.369c.097-.08.352-.206.568-.278.295-.1.458-.193.662-.381.762-.7.856-.771 1.116-.85.146-.043.295-.08.332-.08.036 0 .279-.195.541-.435.261-.24.537-.46.613-.489.211-.081.407.032.9.519.535.529.991.934 1.104.982.047.02.218.073.38.118.257.072.368.15.85.598.344.32.618.534.721.561l.378.1c.116.03.322.148.457.262.28.235.628.358 1.01.358.327 0 .556.075.786.256.376.296.484.326 1.296.362.8.036.928.065 1.171.27.083.07.23.171.328.224.171.094.416.098 6.732.113 4.837.012 6.608 0 6.758-.044.112-.032.3-.139.418-.236.302-.25.519-.327.915-.327.462 0 .644-.06.941-.314.153-.131.368-.251.553-.31.454-.143.55-.209 1.316-.909.151-.138.355-.259.548-.325.396-.135.52-.266.66-.698.102-.314.169-.411.621-.893.463-.494.518-.574.634-.926.071-.213.208-.488.305-.612a1.4 1.4 0 00.229-.438c.122-.502.163-.598.358-.847.114-.144.228-.338.254-.43.063-.22.063-3.928 0-4.148-.026-.093-.14-.286-.254-.43-.195-.25-.236-.346-.358-.848a1.4 1.4 0 00-.229-.437 2.452 2.452 0 01-.305-.614 2.088 2.088 0 00-.33-.635 1.81 1.81 0 01-.306-.587 1.819 1.819 0 00-.325-.612 1.344 1.344 0 01-.286-.544c-.073-.319-.169-.523-.34-.731a1.444 1.444 0 01-.181-.283c-.034-.08-.068-.698-.085-1.548-.031-1.553-.023-1.507-.381-1.983-.178-.236-.281-.59-.282-.966 0-.324-.082-.564-.279-.814-.11-.14-.225-.383-.303-.637-.087-.288-.187-.488-.33-.663a1.523 1.523 0 01-.284-.54 6.293 6.293 0 00-.114-.38c-.077-.192-2.18-2.37-4.153-4.3-.707-.69-.952-.9-1.102-.938l-.391-.103a1.46 1.46 0 01-.444-.259 1.473 1.473 0 00-.45-.26c-.427-.111-.538-.163-.773-.36a1.544 1.544 0 00-1.007-.356c-.326 0-.556-.075-.786-.256-.436-.344-.373-.333-2.235-.362-1.886-.028-1.659.012-2.264-.398-.23-.157-.275-.168-.681-.167-.531 0-.745.056-1 .263a1.906 1.906 0 01-.324.215c-.07.031-.612.07-1.219.087-1.173.032-1.243.047-1.598.347-.221.187-.357.229-.9.274-.515.043-.715.116-.991.359-.088.078-.34.202-.56.276a2.045 2.045 0 00-.646.34 1.517 1.517 0 01-.532.286c-.456.127-.391.082-1.309.909-.2.18-.361.27-.62.35-.206.063-.412.167-.497.25-.287.28-.915.816-1.022.874-.167.09-.528.071-.7-.038-.084-.053-.371-.314-.639-.579-.85-.843-1.673-1.613-1.764-1.65a5.274 5.274 0 00-.371-.115 1.66 1.66 0 01-.546-.29c-.144-.116-.336-.23-.427-.255l-.377-.1a1.478 1.478 0 01-.457-.262 1.544 1.544 0 00-1.01-.358c-.326 0-.556-.075-.786-.256-.425-.335-.413-.332-1.905-.363-.831-.017-1.422-.05-1.499-.085a1.972 1.972 0 01-.325-.217c-.245-.198-.617-.314-1.007-.314-.471 0-.617-.09-1.533-.94a1.197 1.197 0 00-.413-.248c-.425-.112-.535-.162-.783-.363-.282-.227-.481-.302-.802-.302-.382 0-.72-.104-.97-.298-.401-.31-.433-.315-2.221-.315s-1.82.004-2.221.315c-.25.194-.589.298-.97.298-.323 0-.52.075-.807.306a1.666 1.666 0 01-.545.29c-.404.112-.423.122-.748.408-.324.285-2.324 2.293-2.486 2.496-.056.07-.232.25-.39.399-.358.337-.51.353-.874.09-.138-.1-.276-.18-.308-.18-.191 0-.61-.185-.821-.362a1.547 1.547 0 00-1.02-.359c-.322 0-.551-.088-.842-.325-.328-.268-.459-.293-1.544-.293-1.087 0-1.181-.02-1.555-.325-.337-.274-.444-.292-1.763-.292-1.34 0-1.57.038-1.912.314a1.92 1.92 0 01-.325.216c-.07.031-.607.07-1.194.087-1.163.033-1.175.035-1.626.384-.123.095-.34.2-.491.235-.326.077-.517.17-.754.368-.1.083-.359.203-.592.276-.27.083-.488.19-.623.303-.12.103-.371.232-.601.31-.358.12-.438.175-.877.597-.545.524-.623.576-1.032.684-.256.068-.36.14-.812.563-.603.564-.667.604-.96.604-.285 0-.42-.09-1.01-.676-.85-.843-1.674-1.613-1.764-1.65a5.247 5.247 0 00-.372-.115 1.668 1.668 0 01-.546-.29c-.144-.116-.336-.23-.427-.255l-.376-.1a1.48 1.48 0 01-.458-.262 1.546 1.546 0 00-1.019-.358c-.327 0-.554-.09-.85-.335a1.407 1.407 0 00-.392-.233c-.093-.027-.599-.05-1.124-.05-1.055 0-1.154-.02-1.525-.327-.34-.281-.472-.3-1.941-.281-1.432.018-1.453.022-1.827.338-.256.216-.377.238-1.476.27-1.153.032-1.198.042-1.6.364-.252.201-.522.265-.81.192-.203-.05-.335-.162-1.042-.874-.663-.667-.847-.825-1.016-.869-.425-.11-.53-.16-.804-.375-.19-.15-.37-.24-.562-.284a1.463 1.463 0 01-.439-.177 79.553 79.553 0 01-.355-.258c-.171-.126-.269-.152-.706-.19-.562-.05-.752-.114-1.044-.352a1.305 1.305 0 00-.38-.212c-.296-.083-16.343-.067-16.572.017zm-24.496.54c-.719.033-.748.038-.952.188l-.37.269a1.446 1.446 0 01-.46.174 1.245 1.245 0 00-.586.283c-.277.218-.38.266-.814.38-.188.048-.461.305-2.229 2.092-1.403 1.418-2.078 2.066-2.225 2.133-.258.119-.87.133-1.123.026a2.35 2.35 0 01-.422-.273 1.32 1.32 0 00-.534-.264 1.47 1.47 0 01-.44-.178l-.365-.265c-.205-.15-.223-.153-1.028-.185-.888-.035-1.031-.072-1.373-.35-.397-.324-.787-.319-1.203.014-.12.097-.312.202-.426.232-.114.031-.668.075-1.232.098l-1.025.041-.206.151-.365.266a1.453 1.453 0 01-.463.175 1.177 1.177 0 00-.566.271c-.148.12-.42.267-.627.34-.4.142-.64.33-1.384 1.087-.9.914-.982 1.023-1.14 1.513a1.92 1.92 0 01-.263.484 2.07 2.07 0 00-.303.644c-.07.233-.19.496-.272.596-.248.307-.315.496-.361 1.019-.05.573-.085.681-.301.956-.22.28-.26.475-.258 1.268.002.766.045.952.29 1.266.21.27.266.511.266 1.156 0 .65.084.975.33 1.29.1.125.236.401.309.623.081.247.191.461.29.566.506.538.797.947.924 1.296.13.359.157.39 1.442 1.69 1.258 1.272 1.323 1.328 1.655 1.455.249.095.445.222.7.452.263.239 4.46 4.417 4.676 4.656.266.295 3.066 3.119 3.509 3.54.683.649.873.748 1.206.635.263-.09.915-.708 3.11-2.951a438.8 438.8 0 011.754-1.786c.022-.019 1.717-1.726 3.767-3.793l3.727-3.76.404-.135.403-.137 1.898-1.922 1.898-1.923.136-.411c.136-.417.345-.709.895-1.254.153-.152.224-.286.324-.618.072-.24.19-.503.273-.605.36-.444.339-.22.339-3.474 0-3.252.021-3.03-.338-3.472-.08-.098-.203-.358-.275-.578-.082-.25-.191-.463-.29-.568-.459-.487-.806-.958-.883-1.197-.13-.406-.198-.512-.554-.869-.286-.287-.388-.353-.718-.465a1.574 1.574 0 01-.648-.377c-.855-.8-.988-.882-1.43-.887-.37-.004-.745-.132-.986-.336a1.328 1.328 0 00-.398-.231c-.227-.064-3.641-.108-4.689-.061zm2.822 5.691c.095.04.29.168.435.283.145.116.29.21.325.21.034 0 .186.038.337.083.218.066.35.157.645.448.318.312.383.407.45.65.103.385.199.594.374.819.18.23.256.502.256.909 0 .402-.076.678-.25.9-.18.232-.245.36-.361.702-.122.357-.375.645-2.075 2.353-.737.74-1.71 1.723-2.16 2.183a312.7 312.7 0 01-1.55 1.57c-.755.755-3.59 3.635-3.654 3.709-.207.242-3.021 3.005-3.135 3.078a.775.775 0 01-.381.097.775.775 0 01-.381-.097c-.114-.073-2.928-2.836-3.136-3.078a546 546 0 00-3.653-3.706c-.977-.976-1.882-1.944-1.976-2.116-.098-.178-.14-1.993-.054-2.318.036-.133.174-.348.373-.58.561-.654 1.529-1.6 1.738-1.698.177-.084.337-.096 1.209-.097.783-.001 1.046.016 1.189.076.199.085.755.586 1.731 1.563.71.709.75.74 1.147.878.235.082.4.204.865.639.473.441.61.543.78.572.474.08.394.148 3.298-2.777 2.453-2.47 2.703-2.708 2.939-2.786.381-.126.526-.212.76-.449.876-.888 1.994-1.928 2.152-2.001.252-.118 1.499-.13 1.763-.019zm38.278.007c.104.043.344.235.534.424.29.291.36.396.443.668.116.378.17.49.36.733.221.281.26.543.24 1.652-.013.807-.032 1.028-.1 1.153-.127.235-1.265 1.367-1.457 1.45-.094.04-.394.093-.667.117-.518.046-.62.081-.917.314-.3.236-.438.255-1.787.255-1.384 0-1.531.025-1.702.29-.088.136-.094.465-.118 6.863-.023 6.055-.034 6.737-.108 6.9-.12.26-1.244 1.383-1.503 1.5-.18.082-.392.102-1.347.129-1.353.038-1.591.002-1.982-.295a2.997 2.997 0 00-.61-.335c-.398-.155-.502-.268-.647-.708a2.08 2.08 0 00-.306-.567 1.531 1.531 0 01-.254-.437c-.034-.123-.052-2.458-.052-6.777 0-6.17-.006-6.6-.09-6.769-.176-.358-.192-.36-2.537-.36-1.37 0-2.187-.02-2.363-.058-.234-.051-.321-.11-.664-.448-.346-.34-.407-.43-.494-.714-.118-.386-.16-.472-.382-.766-.202-.268-.279-.594-.279-1.18 0-.585.077-.911.279-1.18.215-.285.272-.394.36-.695.11-.376.235-.501.617-.62.194-.061.429-.183.554-.287.427-.354-.271-.327 8.672-.33 7.204-.001 8.14.007 8.307.078zm53.745.017c.118.055.468.364.828.731.585.596.631.658.725.973.126.419.225.574.53.83.294.245.467.257.845.059l.269-.142 1.959-.016c2.109-.017 2.231-.005 2.542.244.312.249.498.317.981.358.502.043.608.083.929.347.13.108.327.202.533.256.441.113.454.122 1.067.69.417.389.58.508.732.537.385.073.564.185.908.57.241.27.371.467.438.663.052.153.122.332.156.396.07.131.757.967.882 1.072.045.038.126.217.182.398.118.389.161.475.383.77.182.24.277.585.281 1.014.003.332.087.579.288.839.085.11.181.281.213.38.032.098.072.677.089 1.286.037 1.313-.001 1.582-.276 1.946-.23.305-.311.53-.314.871-.004.43-.099.773-.283 1.018a1.914 1.914 0 00-.381.768c-.037.139-.141.35-.231.47-.215.285-.26.374-.372.74-.111.36-.362.664-1.454 1.755-1.047 1.047-1.25 1.218-1.556 1.31-.146.044-.294.08-.328.08-.035 0-.174.089-.31.198-.371.297-.458.33-.966.374-.482.041-.668.109-.981.357-.343.272-.389.276-3.049.276-2.658 0-2.706-.005-3.048-.276a1.845 1.845 0 00-.732-.364 1.615 1.615 0 01-.464-.234c-.282-.218-.368-.263-.737-.379a1.416 1.416 0 01-.577-.347c-.882-.819-.879-.817-1.276-.943-.291-.092-.411-.226-.56-.622a2.035 2.035 0 00-.377-.623c-.722-.807-.758-.857-.865-1.206a1.893 1.893 0 00-.284-.567 1.506 1.506 0 01-.351-.778c-.024-.143-.114-.32-.261-.512-.124-.161-.252-.387-.284-.502-.09-.316-.092-13.096-.002-13.395.109-.362 1.168-1.523 1.539-1.686.14-.061.437-.077 1.496-.078 1.176 0 1.343.01 1.524.094zM79.203 8.835c.092.037.264.149.382.247.15.125.338.211.62.288.242.065.478.167.584.252.228.184.422.282.73.366.15.041.346.155.503.29.177.153.379.263.654.356.44.148.767.41 1.34 1.07.358.413.4.48.535.865.064.179.198.397.35.566.692.774.762.868.84 1.132.043.148.078.297.078.33 0 .035.104.197.23.362.126.164.25.381.274.482.025.1.059.616.075 1.145.032 1.048.073 1.245.323 1.565.186.238.266.509.266.896 0 .393-.08.656-.284.923-.248.325-.324.639-.327 1.338-.002.69-.048.855-.344 1.233-.117.15-.213.301-.213.336 0 .197-.18.62-.355.835-.13.158-.25.39-.333.645-.142.431-.262.59-1.09 1.439-.783.803-.979.957-1.36 1.075a1.398 1.398 0 00-.553.298c-.49.452-.865.77-.983.834-.07.038-.338.087-.594.11-.483.04-.668.108-.981.356-.344.272-.39.276-3.05.276-2.659 0-2.705-.004-3.048-.276-.313-.248-.498-.316-.98-.357-.258-.022-.525-.07-.595-.109-.12-.064-.509-.395-.985-.837a1.184 1.184 0 00-.413-.247c-.472-.121-.614-.207-.998-.6-.742-.763-.904-.966-1.004-1.263a3.795 3.795 0 00-.16-.403c-.069-.131-.756-.967-.881-1.072-.045-.037-.126-.216-.181-.397-.12-.39-.162-.475-.384-.77-.227-.302-.278-.592-.28-1.607-.003-.942-.036-1.104-.29-1.43-.314-.402-.314-.826 0-1.226.256-.328.287-.484.29-1.476.002-1.057.05-1.28.354-1.645.146-.176.23-.343.288-.573.045-.18.106-.372.136-.429.05-.097.389-.502.81-.97a1.43 1.43 0 00.294-.563c.088-.292.161-.413.42-.695.338-.368.943-.923 1.12-1.028a3.58 3.58 0 01.393-.167c.156-.056.4-.203.541-.326.158-.136.355-.25.505-.291a1.78 1.78 0 00.73-.367c.111-.09.326-.182.574-.245.28-.071.458-.152.61-.277.385-.318.386-.319 1.509-.35 1.637-.045 4.109.004 4.308.086zm23.475 0c.092.037.264.149.383.247.15.125.337.211.62.288.241.065.478.167.583.252.237.19.347.247.706.36.185.059.399.179.555.311.172.148.347.242.549.295.499.132.477.113 1.872 1.587.497.525.545.594.663.954.081.245.202.479.33.636.176.215.356.638.356.834 0 .035.095.186.213.336.271.348.341.55.343.998.003.47.06.655.288.937.305.377.32.466.32 1.868 0 1.402-.015 1.492-.32 1.869-.228.281-.285.466-.288.936-.002.448-.072.65-.343.998-.118.15-.213.301-.213.336 0 .197-.18.62-.355.834-.124.152-.25.392-.327.622-.098.297-.191.451-.445.742-.491.561-2.134 2.209-2.279 2.285a2.704 2.704 0 01-.422.145c-.18.048-.379.15-.517.264-.256.213-.465.31-.776.362-.139.023-.309.11-.474.242-.488.39-.31.37-3.399.372-2.992.002-3.004 0-3.354-.276-.313-.248-.498-.316-.98-.357-.258-.022-.524-.07-.593-.108-.121-.065-.735-.588-1.041-.886a.935.935 0 00-.356-.198c-.48-.123-.617-.206-1.027-.628-.742-.762-.878-.936-.985-1.26-.12-.357-.2-.476-.701-1.045-.421-.477-.502-.635-.543-1.063-.066-.695-.076-.73-.29-1.005a2.11 2.11 0 01-.275-.45c-.092-.263-.092-5.199 0-5.46.036-.101.16-.306.278-.456.117-.15.213-.301.213-.336 0-.2.18-.615.38-.876.126-.164.23-.327.23-.36 0-.238.182-.63.417-.894.756-.855 2.774-2.857 3-2.977.063-.034.247-.096.409-.139.181-.048.38-.149.518-.264.256-.212.465-.31.776-.362a1.07 1.07 0 00.458-.229c.426-.34.404-.335 1.56-.366 1.679-.045 4.084.003 4.283.085zm46.911-.02c.098.028.258.115.355.193.314.248.499.315.981.356.504.043.608.082.935.353.127.105.333.208.507.254.423.112.494.16 1.083.738l.806.79c.15.145.474.489.722.762.396.44.461.54.555.852.072.24.167.421.295.563.861.957.919 1.06.923 1.644.003.453.066.646.315.967.107.138.219.341.248.451.034.129.048.9.039 2.143l-.015 1.942-.166.32c-.09.175-.165.367-.165.427 0 .172.126.371.394.625.188.179.306.246.474.274.124.02.316.078.428.128.222.099 1.301 1.16 1.441 1.417.07.13.086.366.099 1.476.011.866-.004 1.395-.041 1.536-.039.145-.159.326-.37.555-.452.492-1.074 1.021-1.294 1.1-.276.1-13.615.101-13.891.002a2.241 2.241 0 01-.47-.291c-.187-.147-.362-.238-.502-.261a1.475 1.475 0 01-.774-.362 1.438 1.438 0 00-.518-.264 2.662 2.662 0 01-.421-.145c-.141-.073-2.37-2.315-2.892-2.907-.245-.28-.346-.442-.418-.675-.114-.37-.169-.481-.359-.716-.08-.099-.201-.365-.27-.592a2.29 2.29 0 00-.325-.681 1.497 1.497 0 01-.256-.53c-.075-.356-.075-4.687.001-5.043a1.41 1.41 0 01.225-.487c.223-.296.302-.46.377-.784.043-.184.14-.365.312-.582.137-.174.25-.345.25-.38 0-.254.182-.625.471-.962.399-.465 2.097-2.183 2.575-2.607.331-.293.697-.478.947-.478.035 0 .174-.089.31-.197.32-.257.385-.29.774-.39a1.44 1.44 0 00.534-.255c.378-.312.383-.314 1.502-.345 1.424-.039 4.051.001 4.269.065zm-74.533 6.842c-.257.075-1.508 1.36-1.58 1.622-.077.281-.067 2.722.012 2.937.118.323 1.227 1.48 1.526 1.594.224.084 2.74.085 2.969 0 .091-.033.462-.347.824-.697.483-.468.679-.695.74-.854.069-.185.079-.42.065-1.551l-.017-1.334-.137-.236c-.211-.363-1.289-1.426-1.51-1.488-.231-.065-2.665-.06-2.892.007zm23.594-.01c-.253.062-.441.188-.788.528-.47.46-.829.894-.9 1.086-.04.112-.06.587-.06 1.477 0 .89.02 1.366.06 1.478.13.35 1.266 1.523 1.56 1.61.233.067 2.663.067 2.905 0 .136-.04.362-.23.849-.721l.664-.669.129-.424c.081-.268.194-.508.306-.65.348-.443.341-.813-.024-1.26a1.504 1.504 0 01-.283-.54c-.126-.47-.214-.6-.853-1.246-.438-.442-.659-.628-.791-.666-.207-.058-2.54-.061-2.775-.004zm23.397.03c-.154.048-.333.171-.537.37-.37.358-.446.471-.577.858a2.067 2.067 0 01-.3.538c-.294.356-.323.51-.304 1.63.021 1.21.029 1.23.788 2.003.792.806.696.773 2.259.793.81.01 1.377-.004 1.501-.038.321-.087 2.045-1.848 2.186-2.233.074-.2.085-.873.019-1.106-.026-.093-.141-.287-.255-.433a1.821 1.821 0 01-.316-.643c-.107-.373-.12-.39-.76-1.038-.487-.494-.7-.674-.848-.72-.297-.09-2.555-.074-2.856.02zm23.966-.025c-.08.024-.258.14-.394.256-.14.12-.381.257-.55.315-.385.132-.522.275-.639.667a1.784 1.784 0 01-.316.588c-.121.15-.242.35-.269.444-.063.221-.064 1.46-.001 1.68.026.093.139.285.251.427.114.146.252.408.316.603.088.267.177.412.397.646.156.166.387.363.512.438l.229.136 1.296.017c1.462.02 1.571.002 1.931-.305.131-.112.374-.248.546-.308.396-.135.531-.275.651-.674a2.04 2.04 0 01.259-.538c.335-.445.348-.492.348-1.306 0-.636-.015-.773-.097-.926-.27-.503-1.764-2.01-2.128-2.146-.192-.072-2.113-.084-2.342-.014z" fill="#fff"/></svg>