<svg width="86" height="140" fill="none" xmlns="http://www.w3.org/2000/svg"><path fill-rule="evenodd" clip-rule="evenodd" d="M42.82.036c.022.036.013.074-.024.098-.034.02-.041.038-.017.038s.07-.016.1-.036c.046-.028.042-.05-.018-.098-.062-.05-.07-.05-.04-.002zm-.009.17c-.06.02-.186.238-.186.32 0 .027.02.036.045.021.024-.015.033-.046.02-.069-.015-.022-.005-.04.02-.04.06 0 .06.074.001.11-.025.016-.033.072-.017.124.027.091.025.092-.035.012-.063-.081-.065-.081-.097 0-.054.137-.075.29-.035.266.02-.013.036.049.036.137v.16l-.05-.125c-.032-.077-.063-.105-.082-.075-.017.028-.02.05-.005.05.014 0-.004.057-.04.127-.036.07-.053.139-.038.154.015.015.007.027-.019.027-.025 0-.058.031-.073.069-.014.038-.007.056.017.041.025-.015.032.003.017.042-.014.038-.041.068-.06.068-.067 0-.08.179-.018.24.044.045.047.072.013.093a.057.057 0 01-.08-.018c-.017-.028-.05.007-.079.083-.027.072-.031.12-.009.106.022-.014.04-.004.04.022 0 .025-.019.046-.043.046-.067 0-.18.25-.148.331.022.058.035.06.065.014.022-.035.037-.039.038-.009 0 .027-.033.077-.074.11-.042.034-.061.038-.043.008.017-.028.012-.063-.01-.077-.025-.015-.037.058-.03.177.01.186.006.194-.046.1-.045-.082-.058-.087-.059-.027 0 .043 0 .09.002.105.002.016-.022.045-.054.064-.035.022-.056.112-.054.225.004.135-.005.164-.03.101l-.035-.088-.008.088a1.056 1.056 0 000 .17c.005.049-.01.07-.039.052-.049-.03-.063.02-.05.174.005.073-.001.077-.039.022-.026-.038-.045-.044-.046-.014a.57.57 0 01-.026.132c-.022.067-.019.07.02.014.035-.047.049-.05.049-.01 0 .032-.029.068-.065.082-.036.014-.055.043-.041.065.013.021.006.04-.015.04-.053 0-.143.301-.1.328.02.012.046.062.058.11.013.05.006.078-.016.065-.022-.014-.04-.054-.04-.088 0-.078-.086-.086-.094-.009l-.016.149a.517.517 0 01-.082.197c-.106.15-.088.205.027.081a.538.538 0 00.1-.129c0-.012.017-.05.039-.083.031-.05.045-.048.08.014.023.041.03.086.016.1-.014.015-.026.004-.026-.025 0-.028-.02-.05-.046-.05-.031 0-.031.026 0 .084.067.125.056.21-.014.114-.057-.078-.064-.076-.143.046a1.58 1.58 0 01-.159.204c-.042.043-.064.107-.05.144.014.037.002.067-.027.067-.029 0-.044.025-.034.055.01.03-.008.08-.039.111-.04.041-.045.088-.014.168.023.061.026.101.007.09-.055-.035-.137.034-.154.128a1.586 1.586 0 01-.089.256c-.04.093-.06.19-.045.215.018.029.007.033-.028.012-.037-.023-.05-.015-.036.024.01.033-.025.138-.079.233l-.098.173-.674.02c-.39.01-.686.038-.702.064-.018.028-.141.034-.33.016a2.107 2.107 0 00-.5.013l-.198.04.176.01.175.01-.22.033a1.558 1.558 0 01-.417-.004l-.198-.035.23.018c.15.011.232 0 .232-.03 0-.034-.141-.038-.473-.016-.26.018-.64.041-.846.052l-.682.039c-.365.022-1.383.067-1.767.079-.149.004-.283.02-.298.035-.014.015-.163.017-.33.005a1.907 1.907 0 00-.42.008l-.117.03.112.088c.062.048.126.085.142.082.016-.003.042.01.056.031.052.07.225.204.225.174a.504.504 0 00-.12-.146c-.084-.08-.097-.106-.041-.086a.479.479 0 00.116.029c.035 0 .103.167.094.23-.003.019.01.029.028.023.018-.006.042.009.053.033.03.067.585.485.627.472.02-.006.049.019.063.055.014.037.042.067.062.067a.5.5 0 01.156.11c.122.113.223.149.167.059-.02-.032-.012-.039.02-.019.029.018.042.049.029.07-.036.057.247.259.326.23.038-.013.056-.01.04.008-.046.052.101.197.172.17.056-.022.055-.031-.005-.064-.061-.035-.06-.049.018-.126.106-.106.111-.106.111-.003 0 .056-.021.075-.067.057-.057-.02-.059-.014-.01.046.04.05.043.078.007.1-.032.02-.018.053.042.095.05.035.111.051.136.036.063-.039.207.015.235.089.013.035 0 .077-.029.093-.03.017-.04.015-.022-.003.035-.04-.067-.156-.138-.156-.095 0-.043.073.128.178.096.06.175.124.176.143 0 .02.024.022.051.005a.635.635 0 01.21-.041c.086-.006.123-.001.08.01-.042.01-.067.036-.055.056.027.044-.064.035-.142-.014-.03-.02-.054-.018-.053.001.002.044.374.322.431.322.023 0 .052.029.066.065.028.071.164.043.148-.031-.005-.025.016-.055.047-.066.03-.011.053-.004.05.017-.015.081.006.147.046.147.023 0 .03-.035.015-.077-.016-.045-.01-.062.012-.041.021.02.042.094.046.166l.006.13-.1-.116c-.057-.068-.11-.097-.127-.07-.034.056.22.243.28.206.026-.015.033.002.018.041-.03.081.032.09.106.016.078-.078.184-.083.154-.007a.069.069 0 01-.088.04c-.042-.016-.058 0-.049.05.008.04.044.08.08.09.059.016.059.013 0-.032-.058-.045-.058-.05 0-.033.036.01.066.042.066.07 0 .063.113.142.16.113.018-.01.046.003.064.032.021.034.011.04-.03.019-.034-.018-.012.008.048.058.111.092.2.123.159.056-.028-.045.108-.038.183.009.03.018.042.056.025.082-.019.031-.004.039.043.02.044-.016.069-.007.062.024-.006.028.02.053.056.054a.074.074 0 01.07.068c.01.154.02.18.06.155.023-.015.03-.055.017-.09-.028-.074.095-.092.138-.022.016.026-.003.032-.048.015-.058-.022-.067-.014-.037.033.022.034.04.091.04.127.002.073.276.146.298.079.008-.024.041-.01.074.029.052.062.05.068-.012.044-.04-.016-.073-.006-.073.02 0 .028.021.05.047.05s.035.018.021.04c-.014.023.02.048.075.056.054.009.094.041.087.073-.008.04.019.049.088.03.081-.023.086-.019.028.018-.057.036-.164.289-.122.289.006 0-.011.041-.038.092a.998.998 0 00-.078.242 8.879 8.879 0 01-.042.215 1.015 1.015 0 00-.018.146c-.002.049-.023.067-.054.048-.035-.021-.044-.002-.027.064.016.058.008.084-.02.067-.027-.017-.033.007-.014.066.019.06.01.093-.025.093-.03 0-.042.013-.027.028.016.015-.002.085-.038.155-.036.07-.054.147-.04.17.015.024.008.043-.015.043s-.057.075-.076.165c-.046.225-.05.241-.089.337-.023.06-.018.075.018.053.033-.02.041-.007.024.039-.015.039-.038.06-.052.046-.033-.034-.144.294-.12.358.01.03.001.059-.02.066-.022.008-.049.068-.06.135a.64.64 0 01-.054.171c-.019.03-.013.04.015.023.03-.018.038.004.024.059-.013.048-.044.074-.07.059-.045-.028-.034.04.036.227.032.088.032.088-.035.002-.064-.083-.07-.078-.107.11-.027.129-.025.222.005.272.035.058.028.095-.03.153-.047.047-.076.056-.076.022 0-.029.02-.053.044-.053.024 0 .044-.034.044-.075 0-.126-.122.029-.145.185a2.662 2.662 0 01-.095.352 4.67 4.67 0 00-.09.286c-.01.036-.045.16-.08.275-.036.115-.052.21-.037.21.016 0 .004.017-.027.036-.031.02-.063.11-.071.2a.47.47 0 01-.065.215c-.074.074-.06.14.016.076.037-.03.066-.035.066-.01 0 .066-.113.146-.154.108-.02-.017-.024.002-.009.044.015.041.011.085-.009.097-.033.021-.117.283-.155.487-.01.048-.038.144-.065.212-.032.084-.033.15-.004.206.067.124.053.16-.025.063-.038-.047-.057-.06-.042-.031.015.03.006.099-.02.154-.047.096-.047.096.019.014.038-.047.068-.07.068-.053 0 .018.041.01.092-.017.054-.03.081-.075.066-.114-.013-.035-.006-.053.017-.039.043.027.184-.04.325-.153.045-.036.09-.061.099-.055.043.027.096.004.195-.088a.54.54 0 01.14-.105 1.19 1.19 0 01.083-.01c.033-.004.03-.03-.01-.08-.047-.058-.048-.067-.003-.04.034.02.095.002.153-.047.087-.074.09-.074.034-.002-.059.076-.056.076.074.001.126-.072.151-.146.05-.146-.025 0-.032.02-.018.043.016.025-.002.033-.04.018-.109-.042-.027-.115.094-.085.122.03.248-.047.202-.124-.02-.032-.006-.03.036.004.074.06.17 0 .17-.107 0-.031.031-.057.069-.057.043 0 .056.02.035.055-.02.032.002.028.052-.011.172-.134.256-.22.213-.22-.024 0-.086.039-.136.086-.079.073-.097.076-.118.02-.015-.038-.007-.055.018-.04.024.015.043.008.043-.016 0-.023-.022-.05-.05-.06-.028-.009.022-.018.11-.02.088-.003.171.012.185.034.019.031.145-.024.28-.123.01-.008-.02-.044-.066-.082-.08-.064-.08-.065.018-.018.084.041.118.035.191-.03.05-.045.099-.074.11-.066.012.008.033.003.047-.011.014-.015-.026-.022-.089-.017-.062.005-.102.028-.088.051.015.024.001.027-.032.006-.038-.023-.047-.018-.027.015s.007.04-.04.022c-.054-.02-.058-.036-.018-.06.038-.024.03-.04-.03-.055-.045-.011.028-.016.163-.01.187.008.284-.013.4-.083.084-.051.145-.118.135-.148-.012-.035.007-.045.05-.029.041.016.157-.038.29-.136.232-.17.262-.288.044-.176-.159.082-.201.084-.135.004.04-.047.038-.067-.006-.085-.03-.012.013-.014.097-.003.121.015.135.01.066-.022-.078-.038-.075-.041.03-.036.065.004.11.02.1.036-.01.017.009.053.043.081.065.055.14-.007.095-.079-.013-.02.025-.032.083-.026.064.007.152-.03.218-.09a.684.684 0 01.2-.131.805.805 0 00.21-.13.96.96 0 01.165-.119.048.048 0 00.029-.06c-.044-.127-.04-.198.011-.198.032 0 .056.035.053.077-.008.123.052.117.286-.028.139-.086.208-.156.188-.188-.021-.035-.009-.043.039-.025.04.016.138-.019.229-.08a.927.927 0 01.185-.108.842.842 0 00.178-.115c.117-.09.138-.125.092-.156-.038-.025-.012-.03.073-.013.105.022.118.017.066-.023-.167-.128.172.022.402.178.137.092.26.156.275.141.015-.015.027-.001.027.03 0 .046.012.046.067.001.055-.046.062-.044.04.012-.014.038-.001.083.028.102.035.021.043.014.022-.02-.02-.03-.009-.046.026-.039.032.007.052-.016.045-.05-.01-.05 0-.052.049-.011.035.03.118.04.195.025.073-.015.145-.007.16.018.016.026-.008.035-.06.02-.05-.012-.089 0-.089.027s.029.05.064.05c.034 0 .075.019.09.043.017.027-.022.024-.096-.005-.152-.06-.322-.085-.32-.046.006.063.45.32.512.296.04-.015.058-.004.047.03-.025.074.277.256.376.226a.167.167 0 01.139.026c.041.034.069.035.088.003a.105.105 0 01.081-.045c.035 0 .032.014-.008.039-.048.03-.04.045.033.069.091.028.091.111 0 .111-.024 0-.03-.023-.012-.051.022-.035.008-.043-.043-.023-.05.02-.066.012-.045-.021.019-.03.012-.039-.016-.021-.027.016-.06.01-.076-.015-.015-.025-.057-.045-.093-.045-.037 0-.054.02-.039.045.016.024.043.035.06.024.019-.011.083.026.143.081.109.101.297.22.354.223.016 0 .044.016.062.034.051.051.115.039.082-.015-.022-.035-.006-.036.057-.002.048.026.096.039.106.028.01-.01.022.02.026.068.005.079 0 .08-.063.018-.037-.037-.08-.057-.093-.044-.036.037.138.152.185.123.022-.013.065.01.097.054.037.05.085.067.135.048.042-.016.063-.016.046.002-.045.045.054.15.139.146.055-.002.05-.012-.017-.041-.058-.025-.065-.039-.022-.04a.256.256 0 01.125.035c.046.029.042.043-.02.067-.068.026-.061.04.051.11a.456.456 0 00.23.07c.084-.008.09 0 .043.057-.047.058-.043.061.033.022.083-.043.227-.043.27 0 .01.011-.012.032-.05.047-.04.015-.06.01-.046-.013.028-.045-.094-.036-.129.01-.013.017-.01.022.005.01.015-.011.087.03.16.09.071.06.192.142.268.181.133.07.136.069.075-.012-.035-.046-.01-.03.056.037.131.132.183.148.231.07.022-.036.007-.042-.048-.021-.066.025-.07.02-.024-.037.03-.036.073-.055.094-.042.054.033.05.15-.005.15-.126 0 .094.217.243.239.03.004.121.058.203.119.205.154.278.195.242.137a.055.055 0 01.016-.076c.026-.016.041-.012.036.008-.02.069.096.228.188.257.051.016.13.067.177.114a.217.217 0 00.193.064c.06-.01.11.001.11.026 0 .026-.035.034-.077.02-.065-.023-.063-.016.008.039.101.078.175.087.13.015-.018-.03-.012-.039.017-.021.026.016.06.01.075-.015s.005-.045-.024-.045c-.032 0-.039-.03-.018-.077.018-.043.049-.146.07-.231.03-.129.033-.116.017.077-.01.139 0 .23.026.23.025 0 .032.022.016.048-.017.028.002.041.046.033.055-.01.08.02.09.11l.014.123-.088-.113c-.1-.127-.156-.143-.156-.046 0 .036.02.066.044.066.025 0 .08.032.123.071.044.04.108.06.142.047.055-.02.056-.05.006-.192-.031-.093-.084-.168-.116-.168-.033 0-.064-.05-.068-.11l-.01-.11.033.11c.018.06.046.088.062.063.028-.046-.041-.293-.112-.404-.02-.03-.026-.07-.014-.09.012-.02.003-.064-.019-.1-.027-.043-.04-.046-.04-.008-.001.03-.02.055-.042.055-.024 0-.027-.052-.009-.121.039-.144.017-.275-.046-.275-.025 0-.033-.034-.017-.075.019-.05-.006-.104-.072-.158-.066-.054-.076-.075-.028-.06.068.022.069.011.007-.137a1.405 1.405 0 01-.085-.303 1.25 1.25 0 00-.068-.265 1.277 1.277 0 01-.063-.19c-.044-.246-.227-.736-.292-.783-.08-.06-.109-.229-.038-.229.022 0 .029-.041.016-.092-.019-.07-.033-.078-.064-.033-.025.038-.03.018-.012-.057.027-.117-.138-.582-.194-.547-.015.009-.03-.03-.034-.089-.004-.058.01-.095.029-.083.019.012.014-.047-.012-.131-.026-.084-.065-.14-.088-.127-.025.015-.03-.011-.014-.064.016-.049.008-.102-.017-.118-.025-.015-.046-.066-.046-.113s-.019-.086-.042-.086c-.083 0-.136-.165-.09-.283.029-.078.027-.113-.006-.113-.026 0-.038-.04-.025-.088.013-.048.005-.088-.017-.088-.022 0-.041.035-.043.077-.002.049-.012.056-.026.02-.013-.03 0-.082.026-.115.034-.04.036-.094.005-.174-.053-.141-.106-.154-.068-.017.022.077.018.085-.017.033-.025-.036-.036-.122-.024-.192.013-.071-.021-.257-.078-.427-.085-.256-.114-.3-.19-.286-.066.012-.092-.009-.097-.074-.005-.067.006-.077.044-.04.083.085.14.058.061-.029-.082-.09-.093-.14-.03-.14.07 0 .529-.338.499-.367-.016-.016.005-.028.045-.028s.073-.02.073-.045c0-.024.024-.038.053-.032.03.006.054-.02.055-.055.001-.037.022-.067.046-.068.06-.003.33-.149.33-.178 0-.013-.018-.013-.04.001-.022.014-.037 0-.032-.03.014-.09.073-.166.13-.164.028 0 .017.028-.026.06-.062.048-.066.065-.018.084.034.012.092-.014.131-.06.065-.075.063-.083-.019-.11-.049-.015-.08-.036-.07-.047.011-.01.071 0 .135.025.1.038.139.023.313-.128a2.99 2.99 0 01.33-.25c.137-.08.21-.191.125-.191-.028 0-.018-.035.024-.08.04-.045.06-.095.043-.11-.016-.017-.006-.03.022-.03.065 0 .066.055.002.119-.072.073-.004.163.075.098.034-.028.051-.068.04-.087-.013-.02-.003-.049.022-.064.024-.015.044-.006.044.02 0 .032.022.029.062-.008.047-.043.05-.072.01-.122-.044-.058-.04-.059.03-.004.07.055.09.051.173-.032.106-.106.102-.117-.066-.157-.072-.017-.12-.01-.12.016 0 .024.029.045.065.045.036 0 .066.02.066.045 0 .031-.028.03-.088-.001-.11-.06-.112-.116-.003-.175.108-.057.18-.058.091-.001-.053.034-.044.044.044.048.06.003.126.003.146 0 .02-.004.024.014.009.038-.016.026 0 .034.041.018a.093.093 0 00.058-.097c-.007-.04.018-.072.054-.072.096-.002.246-.1.21-.136-.018-.018-.062-.007-.1.024-.036.03-.066.036-.066.013 0-.043.188-.144.268-.144.025 0 .032.02.017.044-.015.025-.049.032-.075.016-.029-.018-.035-.01-.017.02.051.083.34-.17.308-.27-.018-.058.002-.088.07-.105.064-.017.078-.036.044-.058-.038-.023-.04-.04-.004-.062.027-.017.049-.007.049.02 0 .03.03.04.072.024.06-.023.063-.017.015.04-.047.058-.045.064.016.041.04-.015.072-.046.072-.07 0-.023.017-.031.036-.02.02.013.086-.023.146-.079.06-.055.153-.124.206-.153.053-.028.096-.08.096-.114 0-.038.026-.053.066-.038.047.018.066-.004.066-.072 0-.069.02-.09.066-.072.036.014.066.006.066-.018 0-.023.029-.042.064-.042.111 0 .283-.224.267-.348-.011-.09.006-.116.08-.12.172-.013.27-.05.26-.097-.006-.027.02-.036.06-.021.063.024.063.015 0-.11-.07-.134-.036-.222.063-.16.031.019.03.046-.004.087-.04.049-.026.057.075.046a.48.48 0 00.124-.024c0-.005.046-.013.1-.02a.284.284 0 00.155-.068c.037-.04.037-.05.002-.03-.028.017-.058.012-.066-.008-.008-.021-.288-.051-.623-.068-.387-.019-.598-.014-.582.013.017.027-.026.026-.117-.001-.08-.024-.455-.051-.835-.06-.38-.01-.712-.029-.736-.044-.04-.024-.274-.037-1.717-.09-.87-.032-1.27-.057-1.31-.08-.021-.015-.393-.035-.826-.046-.605-.015-.79-.033-.801-.078-.011-.04 0-.038.031.007.04.055.054.056.086.006.032-.049.042-.05.058-.002.014.04.028.035.049-.02.019-.048.012-.066-.017-.048-.026.016-.043.002-.038-.03.016-.122-.004-.214-.047-.214-.025 0-.038.044-.029.099.01.054.008.071-.003.038-.017-.053-.026-.053-.058-.001-.027.044-.035.034-.03-.036.004-.054.033-.108.064-.12.031-.011.056-.043.056-.07 0-.026-.023-.033-.051-.015-.033.02-.043.009-.027-.032.014-.036-.003-.123-.037-.195-.034-.071-.053-.099-.043-.06.01.038-.009.07-.042.07s-.05-.016-.038-.036c.012-.019-.003-.073-.032-.12-.044-.07-.042-.102.01-.165.053-.066.053-.072 0-.04-.048.029-.055.018-.032-.047.022-.061.006-.055-.058.026a.422.422 0 00-.088.154c0 .024.02.014.043-.022.036-.057.042-.056.043.008.001.102-.072.14-.105.054a.484.484 0 01.044-.407c.039-.055.059-.113.044-.127-.014-.015-.026-.003-.026.025s-.02.051-.046.051c-.03 0-.03-.028.002-.088.026-.05.029-.088.006-.088-.022 0-.04-.025-.038-.055.006-.175-.013-.197-.155-.182-.094.01-.122.003-.082-.022.033-.022.047-.06.03-.087-.016-.026-.008-.088.018-.136.037-.07.026-.129-.05-.276a1.181 1.181 0 01-.1-.232c-.002-.024-.015-.044-.03-.044-.068 0-.17-.13-.168-.214.003-.092.003-.092.042.005.022.055.065.1.094.1.042 0 .043-.013.002-.054a.218.218 0 01-.053-.134c0-.045-.02-.07-.044-.055-.024.015-.04-.008-.037-.052.013-.148-.007-.234-.053-.234-.026 0-.033.023-.016.051.02.031.012.039-.02.02-.03-.02-.05-.003-.05.04 0 .038.02.058.044.043.024-.015.044-.006.044.02 0 .07-.087.055-.117-.021-.014-.038.01-.107.053-.154.052-.058.06-.087.022-.087-.03 0-.045-.027-.032-.06.013-.035-.014-.103-.061-.153-.09-.098-.113-.161-.04-.117.046.03-.034-.187-.097-.261a.215.215 0 01-.036-.12c0-.042-.044-.12-.099-.173-.054-.053-.07-.08-.036-.06.047.026.055.016.033-.043a1.955 1.955 0 01-.057-.183c-.014-.058-.059-.106-.098-.106-.063 0-.064-.007-.007-.044.054-.036.056-.05.008-.082-.033-.02-.058-.055-.056-.077.004-.063-.102-.28-.137-.28-.017 0-.021.027-.008.061.013.034.007.072-.014.085-.02.013-.039-.054-.04-.148-.001-.15.006-.162.056-.096.031.042.057.063.058.048.003-.057-.19-.46-.269-.561-.09-.116-.108-.203-.033-.157.034.021.034.002-.002-.063-.055-.105-.113-.128-.076-.031a.066.066 0 01-.037.086c-.065.025-.045-.078.036-.183.024-.03.03-.068.015-.084-.016-.015-.029 0-.029.034 0 .052-.007.052-.042-.002-.025-.041-.025-.075.002-.092.025-.015.003-.077-.05-.146-.053-.066-.083-.132-.068-.147.015-.015.027 0 .027.032s.01.048.023.035c.034-.034-.069-.247-.128-.269a.182.182 0 00-.105.002zm.078.095c0 .021-.03.05-.066.064-.067.026-.09-.02-.037-.074.042-.042.103-.036.103.01zm-.022.18c.015.025.006.045-.02.045a.045.045 0 01-.046-.044c0-.025.009-.044.02-.044.01 0 .03.02.046.044zm-.18.345c.012.02-.007.037-.042.037s-.064-.017-.064-.037c0-.02.019-.036.041-.036.023 0 .052.016.065.036zm.507.417c-.003.093-.005.093-.041.008-.036-.084-.038-.084-.041-.003-.002.046-.015.072-.03.058-.04-.04.028-.213.074-.185.022.014.04.069.038.122zm.135.074c0 .025-.02.044-.044.044a.044.044 0 010-.088c.024 0 .044.02.044.044zm-.091.121c.04.068.05.069.09.011.026-.04.043-.045.044-.013.001.1-.095.11-.18.018-.048-.05-.067-.093-.043-.093.024 0 .064.035.089.077zm-.143.108c-.014.035-.025.024-.027-.027-.002-.046.009-.072.023-.058.015.015.017.053.004.085zm-.747.212c-.008.117-.015.124-.064.058a.273.273 0 01-.054-.122c0-.026.02-.017.043.02.037.056.043.054.043-.012 0-.042.01-.077.021-.077.011 0 .016.06.011.133zm-.004.29c-.016.04-.039.064-.05.052-.013-.012-.01-.055.006-.096.015-.041.038-.064.05-.052.012.012.01.055-.006.096zm1.162.014a.364.364 0 00-.044.143c.001.032.029.01.062-.05l.06-.11-.007.115c-.006.114-.116.148-.15.047-.017-.05.063-.23.103-.23.012 0 .001.039-.024.085zm-1.257.135c.023.084.02.095-.016.044-.031-.044-.047-.048-.047-.01 0 .03-.022.054-.047.054-.027 0-.032-.024-.012-.055a.245.245 0 00.02-.143c-.018-.12.064-.032.102.11zm-.24.548c0 .01-.02.031-.044.046-.024.015-.044.007-.044-.02 0-.025.02-.046.044-.046.025 0 .044.009.044.02zm1.98.26c0 .037-.18.216-.198.197-.012-.012.018-.064.068-.117.082-.088.13-.118.13-.08zm.018.22c-.016.04-.046.072-.068.072-.022 0-.015-.038.014-.086.063-.1.094-.091.054.014zm-2.407.408c-.015.015-.007.07.018.121.043.09.042.09-.024.008-.081-.102-.087-.157-.017-.157.028 0 .039.013.023.028zm-.069.354c-.052.09-.064.06-.022-.05.015-.04.037-.062.048-.051.011.011 0 .057-.026.1zm2.686-.036c.033-.047.038-.048.026-.002-.018.071-.095.078-.107.01-.006-.03 0-.03.015.002.017.035.036.032.066-.01zm.105.39c-.035.036-.053.012-.09-.12l-.032-.11.075.102c.04.056.062.114.047.128zm.245.485a.228.228 0 00-.02.143c.017.057.013.057-.025.002-.04-.059.005-.222.063-.222.012 0 .004.035-.018.077zm.103.055c-.015.024-.009.076.013.115.028.05.05.057.071.023.017-.028.01-.05-.014-.05-.025 0-.034-.03-.02-.066.028-.074-.008-.09-.05-.022zm-3.554.184c-.014.035-.024.025-.027-.026-.002-.047.009-.073.023-.058.015.015.017.053.004.084zm-.2.18c-.044.043-.049.038-.025-.025.016-.043.04-.068.055-.054.013.013 0 .049-.03.079zm.019.175a3.24 3.24 0 01-.063.231c-.032.1-.043.11-.046.04-.004-.096.078-.37.111-.37.01 0 .01.045-.002.1zm3.985.175a.196.196 0 00-.052.119c0 .046.022.035.07-.034.077-.11.065-.168-.018-.085zm.124.293c0 .024.02.056.044.071.024.015.044.007.044-.017s-.02-.056-.044-.071c-.025-.015-.044-.007-.044.017zm-.083.237c-.043.043-.048.038-.024-.025.016-.043.04-.068.054-.054.014.013 0 .049-.03.079zm-4.388.188c-.014.037-.035.058-.047.047-.011-.012-.008-.042.008-.068.044-.07.07-.057.04.02zm.014.225c.005.08-.005.098-.03.056-.03-.048-.056-.039-.128.044-.05.057-.09.124-.09.149 0 .025-.013.032-.029.017-.03-.03.066-.195.182-.31.091-.092.087-.094.095.044zm.001.287c-.014.035-.024.025-.026-.026-.002-.047.008-.073.023-.058.014.014.016.052.003.084zm-1.822.199a.627.627 0 01-.198 0c-.054-.01-.01-.02.1-.02.108 0 .153.01.098.02zm8.905 0a.972.972 0 01-.242 0c-.066-.01-.012-.018.121-.018s.188.008.121.018zm.759.01c0 .05-.172.11-.209.073-.014-.014.007-.026.048-.026.04 0 .073-.02.073-.044 0-.024.02-.044.044-.044.024 0 .044.018.044.041zm-11.632.047a.514.514 0 01-.176.036c-.07 0-.066-.008.022-.036.15-.048.266-.048.154 0zm.33 0a.27.27 0 01-.132.04c-.043-.001-.036-.015.022-.04.121-.052.19-.052.11 0zm9.873 0c-.052.022-.063.039-.026.04.034.002.05.016.036.03-.04.04-.126-.026-.097-.073.014-.023.06-.04.1-.038.06.003.058.01-.014.04zm.197 0c0 .024-.008.044-.019.044-.01 0-.032-.02-.047-.044-.014-.024-.006-.044.02-.044.026 0 .046.02.046.044zm.913-.014a.36.36 0 01-.154 0c-.042-.01-.008-.02.077-.02.085 0 .12.01.077.02zm.999.01c.077.03.073.037-.038.065-.069.017-.136.02-.15.007-.012-.013.015-.026.061-.029.066-.003.06-.012-.026-.04-.088-.027-.092-.035-.022-.036.049 0 .127.014.175.033zm.331.004c.036.023.046.043.022.043a.265.265 0 01-.11-.043c-.036-.024-.046-.043-.022-.043s.074.02.11.043zm-13.203.03a.36.36 0 01-.154 0c-.043-.01-.008-.02.077-.02.084 0 .119.01.077.02zm1.297-.001a.17.17 0 01-.11 0c-.03-.012-.005-.022.055-.022s.085.01.055.022zm1.055.006c-.058.009-.088.035-.07.063.018.03.008.035-.026.013a1.174 1.174 0 00-.282-.066c-.205-.03-.193-.033.125-.029.194.002.307.011.253.02zm8.79.044a.113.113 0 01-.104-.028c-.033-.032-.015-.038.058-.019.06.016.08.036.046.047zm.336-.049a.48.48 0 01-.176.001c-.055-.01-.02-.02.076-.02.097 0 .142.008.1.02zm-12.203.043a.251.251 0 01-.132.001c-.043-.01-.019-.02.054-.022.073 0 .108.009.078.02zm.296.015c0 .024-.009.044-.02.044-.01 0-.031-.02-.046-.044-.015-.024-.006-.044.02-.044.025 0 .046.02.046.044zm2.099-.018c-.015.015-.053.017-.084.004-.036-.014-.025-.025.026-.027.046-.002.072.009.058.023zm.923 0c-.014.015-.052.017-.084.004-.035-.014-.025-.025.027-.027.046-.002.072.009.057.023zm9.742.003a.17.17 0 01-.11 0c-.03-.012-.006-.022.055-.022.06 0 .085.01.055.022zm1.572.016c.046.03.02.034-.088.015-.19-.035-.226-.06-.085-.06.059.001.136.02.173.045zm.23-.016a.17.17 0 01-.11 0c-.03-.012-.005-.022.056-.022.06 0 .085.01.055.022zm-16.49.044a.17.17 0 01-.11 0c-.03-.012-.005-.022.055-.022s.085.01.055.022zm3.518 0a.17.17 0 01-.11 0c-.03-.012-.005-.022.055-.022s.085.01.055.022zm-4.343.059c-.03.05.08.06.128.012.018-.018.09-.036.162-.04.106-.005.121.006.08.054-.034.042-.072.048-.128.018-.056-.03-.094-.024-.133.023-.041.05-.069.054-.114.016-.072-.06-.08-.127-.014-.127.026 0 .034.02.02.044zm19.477.007a.085.085 0 01-.064.037c-.023 0-.041-.017-.041-.037 0-.02.028-.036.063-.036.036 0 .054.016.042.036zm-19 .143c-.02.12-.01.153.057.17.075.02.075.022.004.027-.102.006-.168-.166-.103-.27.066-.105.07-.1.041.073zm19.003-.015c-.016.026-.056.036-.09.024-.033-.013-.071-.004-.086.019-.014.023 0 .043.032.044.032 0-.002.034-.075.075-.072.04-.151.068-.175.06-.025-.006-.019.015.012.046.037.037.069.042.088.014.017-.024.106-.093.196-.154.09-.06.165-.124.165-.142 0-.048-.034-.04-.067.014zm-18.791.291c-.043.018-.03.044.044.096.056.04.11.1.117.136.008.035-.04.01-.105-.055-.065-.066-.137-.12-.16-.12-.022 0-.028-.019-.013-.043.015-.024.06-.043.102-.04.052.002.056.01.015.026zM52.03 7.7a.503.503 0 000 .1c.004.02-.014.024-.039.008s-.034-.047-.02-.07c.014-.022.004-.04-.022-.04-.065 0-.058.068.014.127.083.07.2-.061.123-.138-.039-.038-.053-.035-.056.013zm-18.113.042c0 .024-.009.044-.02.044-.01 0-.031-.02-.046-.044-.015-.024-.006-.044.02-.044.025 0 .046.02.046.044zm17.936.209c-.054.07-.053.071.017.016.042-.033.077-.067.077-.077 0-.036-.036-.012-.094.06zm-17.697.015c-.01.017.011.054.047.084.036.03.065.077.064.104 0 .027-.027.015-.06-.027-.066-.088-.136-.105-.088-.022.019.032.015.04-.008.018a.146.146 0 01-.042-.088c-.001-.028-.027-.046-.058-.04-.031.008-.047-.003-.035-.023.013-.02.062-.035.11-.035.049 0 .08.013.07.03zm17.532.027c.01-.005.011 0 .005.01-.029.046-.171.026-.171-.025 0-.039.022-.043.074-.015.042.022.083.035.092.03zm-17.155.319c0-.031.011-.045.026-.03.014.014.014.046-.001.07-.033.054-.157.016-.157-.048 0-.026.028-.022.066.01.052.044.066.043.066-.002zm16.497-.003c-.036.022-.049.073-.033.124.018.056-.003.114-.061.166-.049.044-.09.062-.092.04a9.18 9.18 0 00-.015-.136c-.006-.054.007-.086.029-.073.022.014.028.054.014.09-.015.04-.004.058.03.046.03-.011.051-.057.046-.103-.014-.118.02-.193.085-.193.043.001.042.01-.003.039zm.157.009c-.043.025-.066.064-.052.086.013.022-.007.029-.045.014-.061-.024-.06-.033.009-.086a.288.288 0 01.122-.06c.024 0 .01.02-.034.046zm-16.292.025c-.063.026-.074.132-.015.154.057.02.08.163.026.163-.024 0-.038-.027-.031-.06.006-.033-.009-.072-.033-.088-.025-.015-.046.008-.046.052 0 .067-.007.07-.043.014-.026-.042-.026-.072 0-.08.073-.026.048-.096-.033-.1-.052-.004-.04-.017.033-.04.12-.039.23-.05.142-.015zm.232.358c-.013.014-.049 0-.078-.03-.043-.043-.038-.048.024-.024.044.016.068.04.054.054zm15.393.137a.05.05 0 00.083.051.049.049 0 00-.083-.051zm-.2.18c0 .024-.009.044-.02.044-.01 0-.031-.02-.046-.044-.015-.024-.007-.044.02-.044.025 0 .046.02.046.044zm-.308.012a.445.445 0 01-.085.085c-.074.063-.092.065-.138.009-.044-.053-.04-.06.019-.037.04.016.072.007.072-.02s.03-.05.066-.05c.036 0 .066.006.066.013zm-.234.304c-.014.035-.024.025-.027-.027-.001-.046.009-.072.023-.057.015.014.017.052.004.084zm-13.497.13c.071.072-.015.233-.09.168a3.056 3.056 0 00-.141-.11c-.082-.06-.08-.062.036-.02.169.06.2.053.098-.024-.064-.048-.069-.064-.02-.064.037 0 .089.023.117.05zm12.632.582c0 .01-.029.04-.063.068-.047.04-.07.04-.094-.001-.02-.032-.014-.042.015-.024.026.017.06.01.075-.015.027-.044.066-.06.066-.028zm-.268.1c.01.008-.015.016-.055.016-.084 0-.1.072-.021.098.034.01.018.05-.043.112-.057.057-.124.085-.166.069-.039-.015-.052-.04-.03-.054a.223.223 0 00.067-.093c.02-.053.025-.05.028.01.002.043.026.078.052.078.062 0 .01-.227-.063-.276-.028-.02.008-.022.08-.005a.69.69 0 01.151.045zm-11.078.28c0 .024-.021.044-.047.044-.025 0-.034-.02-.02-.044.016-.025.037-.044.047-.044.011 0 .02.02.02.044zm.187-.018c.015.014.016.054.003.089-.019.048-.039.05-.085.013-.033-.028-.05-.068-.036-.09.028-.044.08-.05.118-.012zm10.367.062c0 .019-.026.044-.057.056-.033.012-.056-.01-.056-.056s.023-.07.056-.057c.031.012.057.038.057.057zm-10.58.138c-.018.029.005.076.052.109a2 2 0 01.142.108c.045.039.072.038.11-.001.029-.03.032-.048.008-.042-.078.02-.292-.105-.239-.139.034-.02.035-.04.005-.059-.026-.015-.06-.005-.078.024zm9.514.508c-.043.01-.077.042-.077.068 0 .027-.012.036-.027.022-.044-.044.027-.12.106-.115.067.004.067.007-.002.025zm.271.127c-.028.035-.078.063-.11.063s-.076.032-.098.071c-.028.05-.05.056-.072.021-.019-.03.025-.075.115-.114.08-.034.13-.064.11-.065-.019 0-.022-.022-.007-.046a.052.052 0 01.07-.018c.028.017.024.05-.008.088zm-.129-.052c0 .01-.03.029-.066.042-.036.014-.066.007-.066-.017 0-.023.03-.043.066-.043.037 0 .066.008.066.018zm-8.355.379c0 .024-.009.043-.02.043-.01 0-.03-.02-.046-.043-.015-.025-.006-.045.02-.045.025 0 .046.02.046.045zm-.152.23a.568.568 0 01-.11.186c-.023.014-.014-.027.02-.093s.052-.135.04-.155c-.013-.02 0-.037.028-.037.031 0 .04-.03.022-.076-.02-.056-.015-.064.019-.03s.029.092-.02.206zm.114-.043c-.044.043-.049.038-.025-.024.017-.044.041-.068.055-.055.013.014 0 .05-.03.08zm8.248.173c-.014.035-.025.024-.027-.027-.002-.046.008-.072.023-.058.015.015.016.053.004.085zm-8.38.18c-.037.036-.05.031-.05-.018 0-.088.06-.147.081-.082.01.028-.005.073-.032.1zm-.213.56c.013.048.005.076-.017.063-.022-.014-.04-.053-.04-.088 0-.091.03-.078.057.024zm-.092.252c-.013.067-.032.096-.042.065-.019-.056.015-.186.048-.186.01 0 .007.055-.006.121zm-.11.196c-.015.035-.025.024-.027-.027-.002-.046.008-.072.023-.058.015.015.016.053.004.085zm.233.049c0 .031-.018.026-.044-.014-.028-.044-.042-.047-.043-.01 0 .03-.023.054-.05.054-.034 0-.033-.02.005-.065.058-.07.133-.05.132.035zm8.952.185c.03.084.038.153.019.153-.044 0-.088-.114-.088-.226 0-.054-.019-.075-.05-.056-.033.02-.04.013-.018-.022.043-.07.073-.037.137.151zm.088-.159c-.033.053.017.18.07.18.023 0 .022-.034-.004-.082-.024-.045-.031-.095-.016-.11s.016-.028.001-.028-.038.018-.051.04zm-.215.233c-.014.035-.024.024-.026-.027-.002-.046.008-.072.023-.058.014.015.016.053.003.085zm-9.322.64c-.011.042-.02.018-.022-.055 0-.072.008-.107.02-.078a.25.25 0 01.002.132zm9.737-.047c-.051.09-.064.06-.021-.05.015-.04.036-.062.048-.05.01.01 0 .056-.027.1zm-9.769.212c0 .024-.019.014-.042-.022a.264.264 0 01-.043-.11c0-.024.02-.014.043.022a.265.265 0 01.042.11zm9.831.195c-.016.05-.045.091-.066.091-.02 0-.014-.048.014-.107.06-.125.094-.115.052.016zm.122.091c.012.049.005.077-.017.064-.022-.014-.04-.053-.04-.088 0-.092.03-.079.057.024zm-5.41.117a.168.168 0 01-.11 0c-.031-.012-.006-.022.054-.022s.085.01.055.022zm.865.078c.042.05.032.073-.05.116-.056.03-.086.037-.067.016.019-.02-.01-.063-.066-.097-.08-.048-.082-.054-.012-.03.048.016.117.04.154.055.056.022.057.015.005-.049-.033-.04-.05-.074-.038-.074.012 0 .045.029.074.063zm-.901.132c-.047.034-.095.053-.107.041-.024-.024.09-.102.15-.103.023 0 .004.027-.043.062zm-.483.173c.11.046.118.06.053.085-.047.018-.067.013-.051-.013.038-.062-.082-.054-.146.009-.036.037-.053.038-.053.004 0-.027.025-.06.055-.072.037-.014.033-.023-.013-.025a.214.214 0 00-.13.051c-.052.047-.053.044-.003-.022.068-.09.111-.092.288-.017zm-4.258.06c.02-.013.04.024.044.082.004.06-.012.094-.038.078s-.033.01-.017.067l.048.17c.027.1-.041.217-.086.146-.023-.038-.05-.037-.104.006-.065.05-.067.049-.015-.017.032-.041.087-.064.121-.05.065.024.086-.036.032-.09-.017-.017-.034-.094-.039-.172a1.027 1.027 0 00-.04-.23c-.022-.064-.019-.071.013-.027.023.033.06.05.08.037zm10.35-.023c0 .04.02.086.044.101.056.034.056-.024 0-.11-.037-.057-.043-.056-.043.009zm-6.314.232a.318.318 0 01-.128.065c-.025 0 .005-.038.065-.084.06-.046.118-.075.129-.064.01.01-.02.048-.066.083zm6.388.119c-.016.04-.024.036-.027-.014a.12.12 0 00-.07-.098c-.035-.014-.065-.046-.065-.072 0-.026.042-.008.093.04.05.047.082.112.07.144zm-4.054-.13c.02-.017.023-.008.006.021-.035.06-.16.028-.16-.04 0-.03.022-.027.06.003.032.027.075.035.094.017zm.374.165c0 .023-.03.03-.066.017-.036-.014-.066-.033-.066-.043 0-.01.03-.017.066-.017.036 0 .066.02.066.043zm-3.21.02c0 .047-.085.066-.11.026-.015-.025.004-.045.041-.045.038 0 .069.009.069.02zm3.166.07c.036.023.046.042.022.042a.264.264 0 01-.11-.043c-.036-.023-.046-.043-.022-.043s.074.02.11.043zm3.745.097c-.032.033-.038.016-.019-.057.016-.06.035-.08.046-.047a.113.113 0 01-.027.104zm-7.07.014c.015.04.007.057-.018.042-.023-.015-.043-.046-.043-.069 0-.063.032-.049.06.027zm-.212.142c-.015.015-.061-.009-.103-.053-.073-.076-.071-.077.027-.026.056.029.09.064.076.079zm-.128.074c0 .033-.023.05-.05.04-.03-.01-.052-.047-.052-.08s.023-.05.051-.04c.028.011.051.047.051.08zm4.365.092c.018-.01.033.007.033.04 0 .046-.018.049-.078.011-.043-.027-.065-.068-.05-.093.017-.027.033-.024.044.01.01.029.033.043.051.032zm-7.693.256c0 .028-.022.02-.047-.016-.038-.052-.043-.043-.024.044.022.102.02.104-.037.029-.078-.105-.04-.23.048-.157.034.028.06.073.06.1zm2.837-.016a.103.103 0 01-.08.043c-.03 0-.025-.017.014-.043.085-.055.1-.055.066 0zm8.188.14c-.014.035-.025.025-.027-.026-.002-.047.009-.073.023-.058.015.015.016.053.004.084zm-8.43.038c-.104.065-.157.048-.063-.02.047-.035.095-.053.106-.042.011.012-.008.04-.044.062zm-2.633.31c.05.031.047.039-.01.04-.078 0-.129-.13-.121-.308.003-.075.015-.056.037.06.018.093.06.187.094.208zm8.752-.235c.056.071.053.072-.028.012a6.536 6.536 0 00-.106-.076c-.01-.007.002-.013.027-.013.026 0 .073.035.107.077zm2.347.011c.015.024.006.044-.02.044a.045.045 0 01-.046-.044c0-.024.008-.044.02-.044.01 0 .03.02.046.044zm-8.817.017c0 .01-.03.029-.066.043-.037.014-.066.006-.066-.017 0-.024.03-.043.066-.043.036 0 .066.008.066.017zm-2.477.167c-.014.035-.024.025-.026-.026-.002-.047.008-.073.023-.058.014.015.016.053.003.084zm2.477-.052a.264.264 0 01-.11.043c-.024 0-.015-.02.022-.043a.265.265 0 01.11-.043c.024 0 .014.02-.022.043zm6.517-.014c-.046.018-.046.035 0 .091.05.062.047.063-.04.009-.07-.043-.082-.07-.044-.095a.2.2 0 01.097-.03c.024 0 .018.012-.013.025zm2.357.213c-.013.014-.038-.01-.054-.054-.024-.063-.02-.068.024-.025.03.03.044.066.03.08zm-9.578-.05c0 .01-.03.03-.068.044-.04.015-.057.007-.041-.018.025-.041.11-.061.11-.026zm9.47.049c.015.036.007.066-.017.066-.023 0-.042-.03-.042-.066 0-.036.008-.066.017-.066.01 0 .029.03.043.066zm-1.58.133c.047.035.076.073.066.084-.011.01-.069-.019-.129-.065s-.09-.084-.065-.084c.024 0 .082.03.128.065zm-7.854.082a1.775 1.775 0 00-.084.06c-.055.043-.07.04-.07-.01 0-.035.017-.053.038-.04.02.012.036 0 .036-.027s.021-.036.047-.02c.026.016.04.032.033.037zm7.792.027c0 .024-.01.044-.02.044s-.031-.02-.046-.044c-.015-.024-.007-.044.02-.044.025 0 .046.02.046.044zm-9.763.396c0 .024-.008.044-.02.044-.01 0-.03-.02-.046-.044-.015-.024-.006-.044.02-.044.025 0 .046.02.046.044zm.99.044a.102.102 0 01-.08.043c-.031 0-.026-.018.014-.043.084-.055.1-.055.066 0zm9.476 0c0 .024-.008.044-.02.044-.01 0-.03-.02-.046-.044-.015-.024-.006-.044.02-.044.025 0 .046.02.046.044zm.22.005c-.05.035-.033.04.066.022.073-.013.106-.013.075.001-.046.02-.046.038 0 .097.05.065.049.066-.02.013-.041-.033-.104-.049-.14-.036-.034.014-.084 0-.11-.032-.057-.07-.036-.093.093-.103.082-.006.089.002.036.038zm-10.789.138c-.012.03-.022.005-.022-.055s.01-.085.022-.055a.17.17 0 010 .11zm11.904.013c-.015.037-.036.058-.047.047-.012-.012-.008-.042.008-.068.043-.07.068-.057.039.02zm-11.758.13c0 .024-.02.014-.043-.022a.264.264 0 01-.042-.11c0-.024.019-.014.042.022a.265.265 0 01.043.11zm.265.066a.271.271 0 01-.132.04c-.043-.002-.036-.015.022-.04.121-.052.19-.052.11 0zm.224.033c.032.042.041.062.02.044-.021-.018-.079.001-.127.044-.049.042-.074.052-.056.022.018-.03.01-.055-.016-.055-.031 0-.029-.023.008-.064.075-.085.1-.083.171.009zm10.61.02c-.017.028.011.033.077.013.081-.025.093-.02.054.021-.062.066-.22.022-.22-.061 0-.034.026-.052.058-.04.032.013.046.043.031.067zm-10.878.052c0 .01-.054.05-.12.09l-.122.074.104-.09c.101-.089.138-.108.138-.074zm11.42.08c-.014.034-.025.024-.027-.027-.002-.047.008-.073.023-.058.015.014.016.052.004.084z" fill="#DE5366"/><path d="M35.404 97.999l-2.549-2.55 5.099.284 3.115-2.832V96.3l3.399 1.133-3.682 1.416-.567 3.682-3.115-2.833-4.532 1.417 2.832-3.116z" fill="#DE5366"/><path d="M47.017 96.3l-.567-3.966 2.833 3.4 3.965-.284-1.982 1.983 2.265 3.682-3.398-1.417-1.983 2.549-1.133-3.682-3.399-1.132 3.399-1.133z" fill="#DE5366"/><path d="M55.514 100.831l-3.116-1.558 2.266 3.824-.85 4.532 3.116-2.832 3.116 3.115-.85-5.098-1.133-.567.283-.566-1.982-3.399-.85 2.549zm-11.613 3.966l-3.398-1.983.85 3.682-3.966 3.399 8.497.283h5.382l-4.249-3.399 1.133-4.532-4.249 2.55zm-13.595-3.682l-.566-2.55-.85 2.55h-.85l-.85 1.982.567.567-1.7 4.248 3.4-2.549 3.115 2.549-1.7-4.248 2.267-2.549h-2.833z" fill="#DE5366"/><path d="M31.156 107.629l-1.133 2.266h1.982l-.85-2.266z" fill="#DE5366"/><path fill-rule="evenodd" clip-rule="evenodd" d="M60.046 109.895v-.567c0-9.385-7.609-16.994-16.994-16.994-9.386 0-16.994 7.609-16.994 16.994v.567h33.988zm.566-.567c0-9.698-7.862-17.56-17.56-17.56-9.699 0-17.56 7.862-17.56 17.56v1.133h35.12v-1.133z" fill="#DE5366"/><path d="M55.797 107.062l-1.133 3.116h2.55l-1.417-3.116z" fill="#DE5366"/><path fill-rule="evenodd" clip-rule="evenodd" d="M45.778 40.925c-1.106.22-2.186 1.125-3.201 2.683-.605.928-1.43 2.726-1.892 4.12l-.14.423-.58.03c-4.488.23-8.645 1.375-11.485 3.165-2.722 1.714-4.346 4.103-4.747 6.978-.213 1.53.12 3.934.798 5.764a8.735 8.735 0 002.63 3.696c1.857 1.52 4.276 1.949 6.838 1.21.487-.14 1.56-.567 1.604-.636.011-.019-.085-.045-.214-.058-.28-.029-.821-.238-1.19-.46-1.47-.884-3.106-2.924-3.848-4.796-.39-.984-.647-2.172-.597-2.761a7.923 7.923 0 01.772-2.744c1.317-2.73 4.096-4.803 7.646-5.702.45-.115 1.72-.346 1.747-.319.008.008-.024.39-.07.848-.13 1.278-.177 2.149-.208 3.795l-.028 1.51-.465.274c-.256.15-1.114.65-1.906 1.108-.791.459-1.44.85-1.44.868 0 .025 1.27 1.96 1.344 2.05.017.02.553-.303 1.66-.996.48-.3.879-.54.886-.531.035.036.254.817.393 1.4.645 2.713.953 5.483.953 8.58.001 4.528-.597 8.555-1.67 11.26-.318.798-1.043 2.115-1.165 2.115-.08 0-1.225-.537-2.577-1.208-2.849-1.413-4.245-1.799-6.508-1.797-2.14.002-3.518.465-4.503 1.512-.58.617-.926 1.462-.98 2.399-.023.383-.013.49.071.77.434 1.434 1.618 2.766 3.04 3.42 1.138.523 2.142.695 3.823.654 2.19-.054 4.096-.468 5.695-1.236.923-.445 1.546-.86 2.088-1.394l.276-.271.335.178c1.24.66 3.407 1.317 5.458 1.654 2.126.35 4.418.488 5.65.341a17.567 17.567 0 009.064-3.89 23.97 23.97 0 002.066-2.017c2.503-2.873 4.052-6.614 4.526-10.928.162-1.48.192-3.682.066-4.994-.528-5.518-2.89-9.934-7.146-13.36-1.86-1.498-4.051-2.71-6.486-3.59-1.5-.541-2.062-.728-2.63-.873-.528-.134-.584-.158-.567-.237.01-.049.063-.276.116-.506.24-1.037.354-1.972.354-2.898 0-1.784-.468-3.063-1.459-3.984-.42-.39-.661-.525-1.1-.616a2.504 2.504 0 00-1.097-.003zm1.034 4.751c.005-.883-.056-1.213-.274-1.473-.501-.598-1.668.466-2.58 2.353-.331.685-.711 1.634-.671 1.674.013.013.377.053.81.089.742.061 1.708.163 2.11.221l.183.026.095-.41c.239-1.03.322-1.659.327-2.48zm-1.733 6.093c-.088-.055-.96-.21-1.603-.285a9.934 9.934 0 00-.796-.066h-.225l-.073.539c-.04.296-.093.717-.118.934-.065.559-.109 2.354-.058 2.354.085 0 .802-.6 1.176-.985.496-.51.979-1.152 1.413-1.88.261-.438.329-.584.284-.611zm8.006 4.209c-1.45-1.24-3.272-2.422-4.794-3.107-.23-.104-.502-.225-.604-.27l-.186-.08-.118.207c-1.265 2.235-2.666 3.962-4.224 5.208-.222.178-.405.34-.407.36-.004.06.413.741.824 1.349 1.487 2.197 2.92 3.33 5.308 4.197.54.196.663.256.674.331.038.245-.46 2.557-.92 4.282-1.186 4.439-2.582 8.335-3.873 10.81-1.026 1.964-2.16 3.629-3.422 5.018a2.01 2.01 0 00-.22.266c0 .035 1.426.374 1.957.466.607.104 1.986.104 2.592 0 .562-.097 1.162-.25 1.717-.44 5.268-1.79 10.344-8.018 11.319-13.887.194-1.17.224-2.027.113-3.215-.46-4.886-2.284-8.541-5.736-11.495zm-18.58 29.205c-1.75-.859-3.369-1.397-4.772-1.585-1.16-.155-2.024-.031-2.968.426-.669.323-1.08.765-1.077 1.158.004.493.542 1 1.592 1.496.676.32.983.384 1.947.41 1.185.03 2.375-.14 3.896-.559.61-.168 1.84-.574 2.216-.73.167-.07.17-.076.088-.14-.048-.036-.463-.25-.922-.476z" fill="#43319D"/><path fill-rule="evenodd" clip-rule="evenodd" d="M39.758 19.96l3.025-4.369c.217-.31.246-.335.295-.264a23786.672 23786.672 0 0012.68 18.316 164730.232 164730.232 0 0128.431 41.06c.985 1.421 1.8 2.609 1.81 2.64.012.03-.756 1.183-1.706 2.562l-2.074 3.014-.486.704-2.573 3.74a15126.001 15126.001 0 01-7.457 10.834 22725.494 22725.494 0 01-7.654 11.126c-.226.33-.411.612-.411.627 0 .014 2.315.026 5.145.026h5.145v15.531l-10.518.011-10.518.011-.399.582c-.219.321-1.09 1.588-1.936 2.816l-6.321 9.184c-.65.944-1.195 1.72-1.212 1.725-.018.005-.55-.747-1.184-1.671a7135.129 7135.129 0 00-7.526-10.942 597.64 597.64 0 01-.973-1.417l-.2-.296-10.499-.001-10.499-.002v-15.53l5.142-.012 5.143-.011-1.286-1.87a10822.74 10822.74 0 00-6.207-9.019 4628.94 4628.94 0 01-2.77-4.025c-3.027-4.402-5.702-8.29-6.963-10.12l-2.769-4.025a695.001 695.001 0 00-2.282-3.31L0 77.377l1.242-1.794a15603.271 15603.271 0 014.945-7.139c.746-1.077 1.596-2.304 1.888-2.728l3.67-5.301A30378.63 30378.63 0 0020.17 48.25a66146.136 66146.136 0 0115.11-21.822l4.478-6.467zm33.07 104.491v-13.463H13.2v13.463h59.63zm-57.299-1.452v-10.295h.66c.363 0 .66.009.66.021 0 .011.373 1.738.83 3.838.457 2.1.874 4.026.926 4.28.142.688.147.691.262.171.055-.251.456-2.031.89-3.955.436-1.923.834-3.69.887-3.926l.095-.429h1.167v10.295h-.836l-.003-4.279c-.002-2.376-.02-4.229-.04-4.168-.021.06-.178.733-.35 1.496l-.942 4.157-.629 2.772-.398.013c-.383.012-.399.008-.421-.088l-.605-2.741c-.32-1.452-.745-3.372-.946-4.267l-.364-1.628-.004 4.366-.003 4.367h-.836zm8.362-5.091c.7-2.802 1.28-5.119 1.29-5.149.014-.04.157-.055.505-.055.267 0 .485.011.485.024 0 .014.604 2.321 1.341 5.127.738 2.806 1.342 5.112 1.342 5.123 0 .012-.224.021-.497.021h-.497l-.345-1.419c-.19-.78-.363-1.483-.385-1.562l-.04-.143h-2.808l-.024.099c-.014.055-.178.753-.364 1.551l-.34 1.452-.467.012-.468.013 1.272-5.094zm6.474-2.667c-.617-1.335-1.132-2.452-1.145-2.482-.018-.042.098-.055.5-.055h.525l.079.165c.308.642 1.428 3.09 1.543 3.373l.142.348.261-.546.936-1.943.675-1.397h.477c.262 0 .476.007.476.016 0 .009-.14.311-.312.671-.172.36-.377.793-.457.963l-.83 1.756c-.379.797-.687 1.474-.687 1.504 0 .03.526 1.189 1.17 2.577a499.55 499.55 0 011.232 2.665l.061.143-.539-.001-.54-.002-.967-2.11c-.532-1.16-.98-2.11-.996-2.11-.017 0-.046.048-.066.108-.02.06-.462 1.01-.982 2.111l-.946 2.002-.517.001c-.284.001-.516-.014-.515-.032 0-.018.573-1.217 1.272-2.665l1.271-2.632-1.121-2.428zm6.052 2.594c.702-2.801 1.276-5.101 1.276-5.112 0-.01.216-.019.48-.019h.48l.046.143c.078.247 2.644 10.052 2.644 10.103 0 .033-.159.049-.483.049h-.483l-.03-.121c-.018-.067-.192-.765-.39-1.551l-.357-1.43-1.38-.011c-.758-.007-1.395.004-1.414.023-.028.028-.304 1.163-.7 2.881l-.05.209H35.6c-.252 0-.458-.016-.458-.036 0-.02.574-2.328 1.275-5.128zm5.038.483c-.315-.665-.376-1.273-.376-3.727v-1.887h.872l.019 2.057c.02 2.116.032 2.276.216 2.76.102.269.376.58.614.699.461.23 1.233.126 2.029-.275l.405-.204.012-2.518.011-2.519h.879v10.295h-.88v-2.068c0-1.137-.008-2.068-.017-2.068-.01 0-.173.08-.363.177-.503.259-1.11.442-1.554.47-.311.019-.422.007-.657-.073-.526-.179-.95-.57-1.21-1.119zm6.176 4.681v-10.295h.88v2.241c0 1.233.014 2.25.032 2.261.076.046.52-.063.676-.167.223-.147.46-.64.699-1.453.523-1.781.658-2.123.973-2.466.283-.306.55-.416 1.014-.416h.387v1.186l-.187-.026a1.136 1.136 0 00-.372.024c-.388.105-.543.354-.827 1.324-.508 1.74-.587 1.924-.968 2.285-.166.157-.232.246-.192.258.13.039.598.579.782.903.156.275 1.22 2.821 1.68 4.022.059.151.118.275.134.275.015 0 .585-2.232 1.266-4.961.681-2.728 1.259-5.034 1.283-5.125l.043-.165h.961l.043.165.031.119.341 1.3a5722.46 5722.46 0 012.252 8.591l.03.123-.5-.013-.499-.012-.378-1.54-.378-1.54-1.41-.011-1.412-.012-.153.65c-.085.357-.248 1.06-.364 1.562l-.21.913h-2.037l-.651-1.617c-.702-1.742-1.034-2.476-1.255-2.772a1.162 1.162 0 00-.67-.43l-.164-.03v4.849h-.88zm12.19-1.294c.185-.239.186-.621.2-4.691v-.098l.015-4.212h4.174v10.295h-.88v-9.063h-2.41l-.02 3.574c-.014 2.26-.04 3.713-.07 3.949-.175 1.321-.73 1.89-1.613 1.651-.263-.071-.283-.086-.283-.201 0-.117.062-.649.111-.95l.023-.137.16.081c.206.105.35.073.524-.118l.006-.006c.023-.026.044-.049.063-.074zm6.418-3.797c.7-2.802 1.28-5.119 1.29-5.149.014-.04.155-.055.498-.055h.478l.782 2.981c1.328 5.053 1.914 7.291 1.914 7.303 0 .006-.223.011-.496.011h-.497l-.368-1.507c-.202-.829-.377-1.532-.388-1.562-.015-.044-.324-.053-1.428-.044l-1.41.011-.356 1.54-.357 1.54-.467.012-.467.013 1.272-5.094zm-27.244-.529c-.179-.72-.407-1.666-.507-2.101l-.26-1.144-.078-.352-.057.352c-.119.731-.287 1.501-.667 3.053-.216.88-.393 1.608-.393 1.616 0 .009.515.016 1.143.016.98 0 1.144-.009 1.144-.065 0-.036-.147-.654-.325-1.375zm17.149-.326c-.228-.928-.468-1.935-.533-2.237l-.174-.792-.055-.242-.03.176c-.17.965-.237 1.3-.406 2.024-.108.459-.304 1.265-.435 1.791-.132.525-.24.976-.24 1.001 0 .03.386.045 1.144.045.638 0 1.143-.017 1.143-.039 0-.021-.186-.798-.414-1.727zm-29.313 1.745c0-.012-.16-.67-.355-1.463-.195-.793-.46-1.907-.588-2.475-.158-.701-.242-.999-.26-.924-.015.06-.067.343-.117.627-.129.73-.217 1.12-.616 2.722a41.669 41.669 0 00-.35 1.472c0 .052.19.062 1.142.062.63 0 1.144-.009 1.144-.021zm42.332-.078c-.015-.054-.224-.91-.466-1.903-.243-.992-.498-2.071-.568-2.397-.07-.327-.138-.565-.151-.528a3.861 3.861 0 00-.076.396c-.094.608-.302 1.551-.657 2.983-.194.782-.353 1.45-.353 1.485 0 .053.18.063 1.149.063h1.148l-.026-.099zm-19.32 8.535a90.344 90.344 0 001.174-1.727c0-.012-3.603-.021-8.006-.021-6.393 0-8 .011-7.973.055.019.03 1.062 1.549 2.32 3.376l3.932 5.72a464.092 464.092 0 001.69 2.452c.032.04.178-.139.537-.66.857-1.245 3.808-5.532 4.185-6.082l.665-.968 1.476-2.145zM54.8 34.952a30679.36 30679.36 0 01-10.587-15.288c-.64-.926-1.176-1.682-1.192-1.681-.016 0-.08.075-.142.165l-2.246 3.242a42288.736 42288.736 0 00-9.427 13.617l-1.54 2.222a54182.034 54182.034 0 00-14.378 20.766l-4.266 6.16-5.836 8.425c-2.448 3.53-3.289 4.758-3.289 4.8 0 .027.066.141.148.253.081.113.89 1.283 1.796 2.602l2.98 4.334c.734 1.064 2.505 3.638 3.937 5.719a25970.396 25970.396 0 0010.992 15.97 2443.64 2443.64 0 011.973 2.87l.58.847h2.552l5.119.001 4.981-.002 12.81-.009 4.344-.011 4 .021 2.584.001h1.04l.788-1.143a19736.996 19736.996 0 015.134-7.458l3.876-5.632a15546.674 15546.674 0 005.812-8.447 5485.638 5485.638 0 003.105-4.51l2.234-3.246 1.492-2.168-1.264-1.824-1.774-2.56a22834.609 22834.609 0 00-8.843-12.771 64841.567 64841.567 0 00-13.602-19.644l-3.891-5.62z" fill="#43319D"/></svg>