<svg width="809" height="488" fill="none" xmlns="http://www.w3.org/2000/svg"><path fill-rule="evenodd" clip-rule="evenodd" d="M347.358 53.185C302.133 56.422 23.23 285.707 2.174 377.93c-21.05 92.227 115.011 124.83 224.286 104.046 109.273-20.788 174.212-96.676 343.909-21.039 102.42 45.654 275.32-3.33 231.718-127.64C758.49 208.988 436.92 46.767 347.358 53.185z" fill="#5AA85A"/><path fill-rule="evenodd" clip-rule="evenodd" d="M527.532 166.789c-3.17-3.189-3.904-6.674-1.313-9.109 1.28-1.2 3.585-1.679 5.484-1.9 1.346-.157 3.03 2.703 2.974 4.348-.007.176-.207.341-.277.524-.982 2.605-.522 3.801 1.763 5.152 1.039.614 2.206 1.278 2.817 2.22.426.66.056 1.832-.03 2.771-.173 2.008-.395 4.014-.59 6.02-.027.292-.023.585-.031.877-.34-.063-.93-.047-.981-.203-.372-1.148-1.882-1.913-.647-3.628.766-1.06.539-2.784.663-4.215.029-.333-.332-.688-.512-1.034-.263.315-.69.602-.755.947a385.097 385.097 0 00-1.627 8.887c-.025.143.264.318.383.493 1.073 1.563 2.926 2.27 4.328 1.409 1.652-1.013 1.957-2.558 1.388-4.291-.497-1.51-1.125-3.042.133-4.567.161-.201.209-.489.31-.737.07.237.111.489.224.71 1.474 2.936 1.501 5.953.978 9.211-.565 3.517-2.595 5.867-5.215 8.06-.287.24-.322 1.075-.127 1.471 1.154 2.347 1.375 4.831 1.131 7.378-.409 4.335-.883 8.663-1.326 12.995-.111 1.058 1.608 2.473-.833 3.166-.26.073-.022 1.815-.043 2.783-.007.441-.081.88-.123 1.32-.167 1.575 1.366 1.119 2.116 1.599.327-.5.962-1.027.929-1.495-.081-1.136-.468-2.246-.733-3.366.829.751 1.547 1.687 2.513 2.222 3.212 1.777 6.511 3.408 9.656 5.19-.963.152-1.822.341-2.633.237-1.472-.191-2.902-.691-4.378-.819-3.319-.286-6.663-.323-9.972-.652-2.798-.277-5.547-.876-8.337-1.222-1.1-.136-2.287.197-3.378.022-3.32-.535-6.619-1.2-9.919-1.846-.886-.173-1.737-.498-2.618-.677-2.755-.562-5.515-1.119-8.284-1.614-1.078-.192-2.19-.216-3.287-.316.147.744.295 1.487.434 2.232.007.041-.076.095-.074.142.034 2.154.113 4.308.098 6.463-.015 1.411.745 2.009 2.1 1.983 3.832-.076 7.666-.255 11.5-.285 2.817-.023 5.655-.033 8.443.252 1.957.201 3.832.934 5.755 1.383 2.399.558 4.817 1.031 7.208 1.613 1.472.359 2.892.896 4.356 1.275 2.567.666 5.132 1.368 7.739 1.865 1.487.283 3.283.687 4.547.151 1.671-.71 1.998-2.503 1.356-4.257-.126-.355-.076-1.002.173-1.226 2.207-1.978.625-3.253-.734-4.588 4.536 1.03 8.448 5.277 8.96 9.699.019.183.364.44.32.497-2.005 2.575.81 2.735 1.966 3.187 3.326 1.297 6.768 2.379 10.239 3.304 2.315.616 4.762.825 7.154 1.201 2.776.437 5.538 1.012 8.339 1.236 2.457.195 4.968-.134 7.439-.009 2.773.141 5.519.568 8.289.791 1.116.089 2.267-.106 3.392-.047 3.53.182 7.05.491 10.579.612 1.74.06 3.514-.364 5.242-.242 1.996.141 3.937.712 5.923.969 3.181.412 5.595 3.208 8.783 3.9 7.102 4.567 12.777 12.486 11.355 9.105-6.424-1.61-13.947-10.321-20.552-11.263-2.195-.313-4.527.175-6.778.061-2.773-.14-5.52-.559-8.285-.786-.899-.074-1.823.12-2.732.121-2.949.003-5.902.042-8.839-.066-1.94-.07-3.86-.509-5.795-.541-5.032-.087-9.945-.647-14.807-1.903-3.321-.857-6.866-.951-10.242-1.67-2.452-.525-4.747-1.643-7.181-2.264-2.982-.759-6.057-1.195-9.047-1.925-2.093-.511-4.09-1.362-6.176-1.917-2.336-.623-4.73-1.084-7.097-1.615-1.086-.243-2.186-.442-3.256-.741-2.014-.565-3.963-1.473-6.019-1.734-6.185-.783-12.396-1.372-18.611-1.939-3.663-.335-7.342-.509-11.02-.707-1.271-.068-2.563.092-3.832.009-4.968-.33-9.95-.611-14.897-1.13-2.321-.244-4.565-1.008-6.856-1.504-2.772-.601-5.65-.916-8.305-1.813-3.269-1.106-6.353-2.679-9.513-4.057-12.958-5.655-25.91-11.325-38.875-16.962-6.178-2.685-12.39-5.304-18.584-7.959-.196-.085-.362-.231-.544-.348.208-.022.433-.105.62-.058 1.701.442 3.442.799 5.085 1.388 4.498 1.613 9.036 3.157 13.407 5.036 8.739 3.756 17.4 7.676 26.04 11.63 1.64.75 2.019.392 2.451-1.186.83-3.027 1.959-5.986 2.941-8.98.096-.309.012-.667.022-1.002.032-1.273.657-1.664 1.899-1.161 4.009 1.621 8.024 3.232 12.015 4.896.797.332 1.123.49 1.445-.588 1.511-5.055 3.083-10.098 4.796-15.098 1.113-3.269 2.604-6.429 3.735-9.694.87-2.494 1.34-5.105 2.166-7.614.781-2.367 1.849-4.653 2.71-7 1.251-3.419 2.861-6.796 3.522-10.309.726-3.857 1.375-8.02-2.175-11.166-.211-.187-.32-.498-.555-.644-.648-.405-1.332-.753-2.003-1.124.938-.206 1.87-.463 2.816-.604.966-.143 1.95-.267 2.917-.228 1.681.068 1.347-.744.709-1.455-.859-.955-1.911-1.745-2.839-2.643-.275-.266-.418-.66-.618-.996.351-.177.709-.507 1.056-.505 1.35.006 2.692.174 4.037.153.429-.005 1.051-.313 1.25-.655.744-1.264 1.352-2.601 2.009-3.912.84 1.096 1.535 2.336 2.555 3.25 1.226 1.1 2.718 1.932 4.115 2.859.217.143.517.17.783.252-.265.203-.526.414-.794.61-1.202.866-2.447 1.683-3.596 2.609-.753.61-.419 1.102.435.889 3.587-.885 6.186 1.463 9.255 2.261.185.049.346.177.521.268-.198.049-.399.115-.6.143-2.968.412-5.94.815-8.909 1.23-2.292.321-2.216.314-1.791 2.906.836 5.107 1.636 10.222 2.345 15.35.469 3.374.89 6.765 1.083 10.166.196 3.471.162 6.963.094 10.447-.045 2.369.037 4.825-.609 7.083-.671 2.36-.215 4.226.978 6.132 2.15 3.437 5.233 5.377 9.436 6.202 4.49.882 8.914.655 13.378.039 2.591-.358 2.952-1.231 2.171-4.279-1.184-4.595 1.515-11.254 6.152-13.099 2.426-.967 3.889-2.109 4.959-4.176.242-.461.867-.735 1.259-1.145.219-.228.504-.752.433-.818-.361-.328-.836-.792-1.255-.767-2.712.167-4.066 1.517-4.219 4.025-.014.267-.135.529-.203.793-.128-.231-.228-.477-.382-.687-2.186-2.979-2.125-6.34-1.482-9.761.047-.24 1.105-.603 1.518-.464 1.079.36 2.123.875 3.063 1.493 2.335 1.539 1.895-.506 1.969-1.467.257-3.4.408-6.805.51-10.209.015-.534-.406-1.07-.622-1.604-.212.408-.489.799-.619 1.227-.69 2.255-1.331 4.523-2.024 6.777-.091.3-.375.551-.572.824-.071-.236-.091-.51-.23-.705-.324-.463-.711-.889-.945-1.426.389-.402.739-.676.903-1.026 1.369-2.913 1.108-5.856.335-8.799-.066-.257-.143-.512-.215-.768-.324.116-.8.148-.933.366a6.46 6.46 0 00-.745 1.787c-.641 2.644-.81 5.28.178 7.857zm-41.761-10.897c-.248.7-.697 1.403-.699 2.098-.016 2.912-1.241 5.499-2.509 8.038-1.828 3.662-1.472 6.715 1.793 9.37 1.216.989 2.121 2.325 3.152 3.52.384.448.713.939 1.068 1.41.407-.628 1.12-1.242 1.169-1.884.094-1.405-.12-2.824-.253-4.234-.391-4.098-.886-8.185-1.165-12.293-.107-1.62.255-3.28.422-4.92.017-.184.17-.358.261-.536.062.171.145.338.175.514.565 3.262 1.305 6.504 1.633 9.794.285 2.891.167 5.833.126 8.755-.036 2.309-.225 4.619-.346 6.929-.011.215.024.604-.036.619-3.863.948-7.086 3.016-10.285 5.231-1.695 1.176-1.387 2.08-.357 3.28 2.096 2.439 4.438 4.507 7.776 5.372.715.187 1.595.88 1.746 1.501.113.45-.813 1.213-1.371 1.742-.4.373-.953.603-1.449.871-2.471 1.33-4.853 2.861-7.442 3.916-2.523 1.029-1.564 2.098-.483 3.255.478.513 1.174 1.03 1.853 1.146 3.321.571 6.695.91 10.002 1.533 1.666.314 1.741-.594 1.675-1.568-.301-4.297-.693-8.585-1.04-12.878-.183-2.337-.371-4.676-.476-7.018-.018-.359.387-.744.595-1.117.047.301.105.602.134.904.595 5.439 1.168 10.881 1.808 16.312.044.354.599.639.912.956.119-.215.336-.435.334-.645a190.618 190.618 0 00-.173-5.556c-.149-2.971-.38-5.938-.488-8.912-.133-3.733-.164-7.472-.27-11.207-.071-2.473-.149-4.947-.314-7.412-.265-3.947-.489-7.903-.962-11.825-.407-3.37-1.204-6.687-1.715-10.045-.677-4.446-2.14-8.93.775-13.302.151-.223-.336-1.157-.718-1.29-.779-.272-1.693-.339-2.541-.276-1.022.075-1.285 1.046-.737 1.505 1.744 1.456.232 2.565-.638 3.155-1.239.84-1.236 1.653-1.035 2.791.703 3.967.443 7.974.093 12.401zm18.932 58.57c.873.231 1.73.523 2.617.683 2.306.415 4.632.758 6.945 1.154 1.756.301 3.497.678 5.257.953 3.165.496 6.357.859 9.502 1.437 2.17.399 4.916-.465 5.438-2.254.454-1.545.443-3.221.51-4.84.043-1.126-.287-2.267-.17-3.38.301-2.865.808-5.713 1.126-8.577.218-1.94.371-3.898.33-5.839-.022-.911-.537-1.807-.874-2.693-.125-.327-.381-.606-.576-.907-.132.375-.339.744-.382 1.125-.454 4.24-.85 8.484-1.356 12.719-.052.441-.722 1.196-1.072 1.188a453.708 453.708 0 01-13.9-.53c-2.156-.114-4.296-.475-6.452-.628-2.765-.196-5.536-.306-8.306-.433-2.252-.104-4.506-.218-6.766-.216-.265.001-.806.731-.784 1.084.159 2.192.361 4.386.71 6.553.224 1.39.947 2.256 2.737 2.31 1.693.052 3.351.674 5.466 1.091zm-24.873 8.995c1.458.292 2.907.62 4.372.867 2.575.435 5.184.73 7.739 1.255 2.416.495 4.156-.39 4.18-2.736.022-2.078-1.265-4.335-.695-6.177.889-2.862-1.092-2.331-2.469-2.762-.206-.064-.391-.205-.601-.239-2.647-.434-5.295-.871-7.948-1.256-.289-.041-.636.241-.952.374.124.264.203.562.377.785.882 1.112 1.764 2.227 2.7 3.298a263.822 263.822 0 004.488 4.986c.264.286.643.476.968.711.099-.173.275-.343.286-.518.1-1.664.141-3.332.276-4.994.03-.351.393-.685.6-1.028.242.158.69.305.694.474.045 2.291.127 4.589-.036 6.874-.028.433-.664 1.592-1.855.684-1.202-.919-2.812-1.409-3.885-2.432-2.807-2.679-5.379-5.578-8.114-8.326-2.445-2.453-5.086-4.72-9.062-4.15-.869.126-2.013.823-2.398 1.551-1.443 2.738-2.515 5.645-3.953 8.386-.576 1.106.07 1.432.707 1.565 4.701.973 9.423 1.853 14.581 2.808zm46.842-35.812c-1.98.199-2.864 1.239-2.906 3.143-.051 2.155-.281 4.313-.422 6.469-.123 1.901-.245 3.801-.31 5.702-.01.202.345.575.557.587 2.08.113 4.197-.012 6.235.288 2.041.299 2.193-.776 2.275-2.146.121-2.017.237-4.034.389-6.05.063-.773.473-1.627.264-2.301-.693-2.195.301-3.786 1.826-5.25 1.428-1.364 2.91-2.673 4.31-4.06.221-.218.278-.987.149-1.052-.497-.253-1.118-.496-1.662-.435-1.314.147-2.752.223-3.851.826-.526.289-.404 1.702-.563 2.608-.047.247.046.575-.092.735-1.422 1.651-3.717 2.027-6.199.936zm-69.859 15.079c-.944-.497-1.836-1.177-2.85-1.421-.622-.15-1.979.248-2.078.61-.652 2.408-1.202 4.86-1.501 7.324-.333 2.744 1.116 4.991 3.067 5.562 1.384.405 2.684 1.036 4.037 1.542 1.188.445 2.728 1.504 3.508 1.123.999-.489 1.498-2.11 2.02-3.316.615-1.419.77-3.061 1.584-4.348 1.303-2.058 1.199-2.759-1.113-3.845-2.111-.995-4.16-2.119-6.674-3.231zm17.86-13.133c.578-1.511 1.268-2.995 1.712-4.539.755-2.637 1.307-5.321 2.027-7.966.413-1.51 1.086-2.964 1.441-4.481.127-.533-.333-1.178-.523-1.771-.45.381-.96.717-1.324 1.162-.242.298-.291.747-.402 1.135-.304 1.071-.546 2.158-.9 3.213-.697 2.08-1.5 4.131-2.167 6.219-.766 2.394-1.39 4.827-2.135 7.227-.862 2.768-1.823 5.51-2.676 8.28a163.152 163.152 0 00-1.827 6.479c-.144.558-.075 1.162-.106 1.746.472-.421 1.167-.765 1.371-1.277.71-1.799 1.192-3.677 1.874-5.488 1.23-3.25 2.543-6.472 3.635-9.939zm-2.27 10.026c-.404 1.319-.83 2.632-1.2 3.959-.086.311.007.665.019 1 .32-.086.659-.123.951-.263 2.818-1.361 5.564-2.907 8.472-4.046 1.621-.636 1.565-1.395.822-2.319-1.49-1.846-3.118-3.592-4.764-5.308-.192-.199-1.216-.082-1.299.104-.977 2.205-1.852 4.45-3.001 6.873zm6.838-22.168c-.267 1.938-.524 3.875-.803 5.811-.159 1.094.504 1.611 1.603 1.12 1.454-.653 2.882-1.376 4.298-2.109 1.412-.732 1.43-1.636.33-2.621-1.013-.904-2.146-1.715-2.999-2.742-.949-1.142-1.622-1.444-2.429.541zm75.74 49.209c-1.186-1.371-1.341-1.432-1.742-.537-1.114 2.496-1.633 5.134-.385 7.612.304.61 1.853.759 2.862.822.305.02.889-.924 1.025-1.491.562-2.308.207-4.435-1.76-6.406zm-88.656-15.267c.656-.998 1.342-1.979 1.931-3.01.106-.193-.123-.635-.324-.866-.065-.077-.554.083-.772.239-1.238.895-1.384 2.09-.835 3.637zm27.332-2.548l.487.481c.195-.45.386-.903.582-1.353-.339.15-.679.301-1.069.872zm1.081 2.676c-.056-.362-.113-.724-.164-1.085l-.649.094c.178.392.356.784.813.991z" fill="#00160A"/><path fill-rule="evenodd" clip-rule="evenodd" d="M634.181 404.588c14.99-3.277 39.35-8.477 54.301-11.013 22.791-3.869 18.599-20.081-4.683-23.103-23.283-3.023-96.771-4.451-136.713-5.115-11.189.35-19.79-1.294-44.955-2.522-23.134-1.128-49.859-20.736-70.839-53.983 0 0-40.94 7.252-91.47-3.162l-7.8-2.313s3.539 3.969 1.98 9.21c0 0-.951-10.533-6.348-7.633 0 0 1.059 12.431.437 15.643 0 0-2.577-16.692-5.303-15.178 0 0 .152 7.405-1.808 11.492 0 0-.282-8.159-4.438-11.18 0 0-3.039 11.629-2.171 18.25 0 0-4.092-12.531-3.724-15.593 0 0-2.483 5.827-2.319 11.63 0 0-1.376-1.473-3.099-9.529 0 0-1.693-.79-1.381 7.772.313 8.563-.994 10.467-1.795 3.868-.799-6.598-3.543-8.148-5.213-7.896-6.081 5.07-21.464 13.411-85.184 2.631 0 0-10.699-.663-42.599 7.972 0 0 2.517.638-34.661 4.636 0 0-17.201 3.175 7.065 10.482 0 0 18.175 3.701 44.154 4.053 25.976.349 46.439 3.326 57.039 19.706 10.602 16.382 10.194 31.674 44.528 37.502 0 0-40.086-1.424 6.171 33.956 0 0-19.41-9.167-27.983-10.774-8.577-1.607-27.22-12.826-32.731-28.114-5.51-15.289-12.444-37.845-28.93-43.94-16.482-6.097-51.937 9.146-100.261-18.028-4.172-1.605 43.258-12.854 71.021-15.578 0 0 23.797-3.251 34.213-7.475 0 0 10.194-4.273 31.736-2.782 0 0 4.338 1.587 3.384-6.782 0 0 1.448-5.92-6.275-5.819l-49.432-.409s-9.436.503-10.23-9.067l-.516-4.183s-1.581-3.886 4.045-10.701c5.628-6.815 73.894-59.914 73.894-59.914s8.001-4.543 13.768-2.484c5.765 2.06 5.274 4.095 3.761 12.34-1.51 8.248-6.317 50.358-6.317 50.358s-1.268 5.227 9.555 5.136c10.821-.092 15.521-.637 15.511 4.952-.006 5.587 3.261 14.927-7.082 15.469-10.342.542-17.872-3.772-16.435 4.939 0 0 2.749 6.313-2.511 9.721 0 0 19.739.076 32.582-1.359 0 0 16.316-12.644 28.568-11.369 0 0 10.943 4.103 10.608.797 0 0-2.238-3.339-2.53-6.389 0 0-4.288-39.992-4.122-51.204 0 0 .294-18.98 1.687-32.889 1.393-13.908 9.911-16.124 22.761-17.263 12.85-1.14 46.463-3.874 67.567.737 21.1 4.611 15.327 14.595 15.539 19.696.212 5.102 1.802 52.222-.01 74.932 0 0-.631 3.901-1.694 10.869-1.063 6.97 4.529 27.969 21.059 29.993 0 0 22.635-1.094 27.608-5.033 0 0 53.57-45.773 75.746-62.213 0 0 14.115-6.038 16.413-.207 0 0-1.678 20.054-2.479 30.739l-3.598 27.803s-2.902 6.939 10.141 7.534c0 0 15.218-4.137 15.556 6.243 0 0 .582 12.465-2.666 13.108-3.25.641-16.22-.136-16.22-.136s-5.421-1.392-5.234 2.379c.185 3.772-.258 11.551-.258 11.551s-6.468 1.732 30.572 1.276c37.044-.46 68.721 3.114 68.387 3.331-.334.217 55.497-1.299 59.203 14.94 3.711 16.239-23.122 14.313-24.798 27.533-1.677 13.222 3.018 13.056 39.317 26.173 0 0-43.508-.17-60.544-21.489-8.788-10.994-34.354-9.974-50.518-7.531-7.862 1.719-13.148 2.91-13.148 2.91 1.833-.755 6.756-1.943 13.148-2.91zm-87.216-107.286s-.422-5.966-5.119-.938c-4.696 5.029-22.116 24.188-22.116 24.188s-3.435 2.346.349 2.768c3.782.423 18.019 1.865 22.037.922 4.017-.942 2.634-2.15 3.589-4.782.956-2.632 1.26-22.158 1.26-22.158zm-138.246-73.247c0-3.814-4.221-6.907-9.424-6.907h-25.751c-5.204 0-9.425 3.093-9.425 6.907v52.263c0 3.814 4.221 6.907 9.425 6.907h25.751c5.203 0 9.424-3.093 9.424-6.907v-52.263zM238.35 245.067l-23.757 26.779c2.19 2.662 11.528 2.686 21.107 2.693 1.01 0 3.539-.474 4.507-.459l1.95-28.373c-1.007-1.147-2.253-1.444-3.807-.64z" fill="#fff"/><path fill-rule="evenodd" clip-rule="evenodd" d="M381.703 6.056c2.264-2.018 4.526-4.038 6.805-6.043.052-.047.398.043.425.118 1.457 4.094 5.823 3.736 9.281 4.696 1.999.554 4.158.669 6.137 1.262 4.559 1.366 9.134 2.74 13.54 4.44 2.309.892 4.153 2.697 6.43 3.69 2.393 1.046 4.888 1.577 7.833 1.186 3.387-.449 6.947.244 10.432.245 10.155.002 19.652 2.377 28.816 6.03 3.758 1.498 6.075 4.136 5.577 7.707-.217 1.554-2.335 3.071-3.913 4.272-4.229 3.22-9.632 4.283-14.796 5.576-5.004 1.252-10.226 1.69-15.459 1.671-.526-.002-1.065.045-1.57-.044-.246-.044-.433-.353-.646-.541.257-.072.51-.167.773-.211 6.368-1.074 12.737-2.135 19.104-3.215.923-.156 1.827-.404 2.744-.586 3.407-.674 4.009-4.227 2.348-6.26-1.401-1.716-3.341-2.799-6.041-2.97-3.005-.19-5.938-1.148-8.943-1.517-3.121-.384-6.297-.397-9.434-.696-3.322-.319-6.613-.9-9.939-1.138-1.799-.128-3.646.35-5.468.328-4.569-.055-9.136-.356-13.702-.333-2.91.016-5.811.514-8.725.65-2.826.133-5.662.052-8.492.127-.922.025-1.832.309-2.757.373-4.102.291-8.216.472-12.308.835-3.199.284-6.366.843-9.561 1.163-4.588.46-9.197.761-13.782 1.239-2.747.285-5.465.794-8.201 1.176-2.086.29-4.203.438-6.263.828-3.543.67-7.058 1.461-10.573 2.24-2.48.548-4.963 1.1-7.405 1.765-1.526.416-2.984 1.035-4.449 1.61-.081.032-.028.695.11.743 2.715.973 5.418 1.99 8.198 2.797 1.59.463 3.304.625 4.976.824 2.638.315 5.281.668 7.932.782 2.994.128 6 .024 9-.027.223-.003.653-.412.626-.589-.487-3.145-.029-4.075 3.721-4.912 6.181-1.38 12.445-2.48 18.687-3.641 2.979-.554 5.973-1.084 8.99-1.424 2.113-.24 4.279-.102 6.417-.2 2.942-.133 5.923-.113 8.808-.556 3.413-.526 6.574.128 9.75.93.441.112.699.792 1.04 1.209-.473.01-.947.027-1.422.027-4.781.002-9.563-.049-14.343.019-3.538.049-7.079.184-10.609.406-2.401.15-4.816.377-7.17.809-5.334.979-10.641 2.079-15.945 3.188-1.907.4-3.749 1.052-5.66 1.432-1.318.264-1.684.426-.537 1.438 5.776 5.098 12.747 8.194 20.694 9.47 2.534.407 5.227-.005 7.839.112.678.03 1.395.57 1.964 1.01.533.409.783 1.158 1.358 1.458.648.336 1.517.337 2.29.485.033-.637.208-1.3.066-1.905-.249-1.058.043-1.66 1.236-2.074 5.346-1.859 10.865-2.34 16.448-1.332 1.168.21 2.062 1.61 3.077 2.466.161.134.43.294.425.436-.045 1.1.491 1.589 1.887 1.398 8.431-1.153 16.206-3.657 22.511-8.957 2.09-1.757 3.947-3.729 5.919-5.595.238-.224.53-.403.798-.604.003.362.125.762-.008 1.079-1.754 4.211-5.248 7.013-9.468 9.303-4.667 2.533-9.727 4.09-15.009 5.19-3.002.626-5.966 1.61-9.003 1.837-4.462.335-8.98.258-13.467.128-4.175-.121-8.499-.012-12.474-.948-6.932-1.631-13.768-3.634-20.25-6.538-2.846-1.275-6.212-1.776-9.412-2.262-3.677-.556-7.447-1.057-11.153-.952-6.056.172-11.856-.665-17.211-2.98-2.602-1.127-5.145-2.965-6.798-5.05-2.125-2.678-1.07-4.254 2.737-6.4 2.129-1.2 4.731-1.843 7.213-2.438 4.453-1.066 8.963-1.965 13.476-2.82 2.776-.525 5.593-.898 8.408-1.23 1.941-.228 3.946-.11 5.852-.45 1.258-.224 2.587-.793 3.545-1.546 2.307-1.817 4.156-4.17 6.67-5.68 2.976-1.788 6.409-3.015 9.734-4.303 2.486-.961 5.115-1.634 7.793-2.335 1.074 1.642 2.675 1.097 4.073.978 1.408-.12 2.786-.568 4.193-.648 2.05-.115 4.115.02 6.171-.046a30.858 30.858 0 004.173-.418c.52-.088.957-.56 1.431-.856-.454-.104-.902-.235-1.363-.306-.987-.152-1.996-.441-2.971-.376-4.16.276-8.31.672-12.466.993-.429.034-.877-.143-1.315-.222zm41.893 16.023c1.145-.133 2.308-.45 3.433-.368 4.375.321 8.735.79 13.105 1.163 3.208.274 6.442.356 9.628.76 3.135.396 6.298.878 9.315 1.701 4.332 1.18 8.367 2.99 9.97 7.13.585 1.51 1.229 1.326 2.514.9 3.131-1.034 3.656-5.42 2.044-7.896-2.024-3.109-5.664-4.061-9.175-4.953-6.953-1.765-14.007-2.966-21.325-2.9-4.501.041-9.006-.602-13.515-.712-5.532-.134-11.071-.082-16.606-.016-4.191.051-8.384.189-12.569.406-3.153.163-6.293.515-9.44.78-3.827.32-7.663.582-11.481.969-4.016.406-8.016.935-12.024 1.402-1.233.144-2.469.278-3.706.387-2.629.23-5.277.339-7.885.689-2.353.315-4.646.97-6.995 1.32-3.129.465-6.306.689-9.429 1.179-4.785.75-9.566 1.552-14.307 2.495-3.341.664-6.562 1.645-8.986 4.031-1.244 1.225-1.453 2.393.018 3.43 1.197.842 2.478 2.084 4.1.241.771-.877 1.907-1.724 3.073-2.064 2.892-.847 5.889-1.417 8.856-2.055 2.549-.547 5.094-1.149 7.679-1.516 3.542-.505 7.131-.754 10.681-1.22 2.478-.324 4.91-.944 7.391-1.218 2.709-.3 5.471-.227 8.175-.548 3.008-.357 5.955-1.143 8.967-1.436 3.458-.334 6.966-.251 10.438-.498 4.401-.316 8.783-.827 13.182-1.16 1.966-.15 3.96.013 5.929-.112 2.458-.157 4.904-.65 7.358-.668 3.709-.03 7.422.224 11.587.357zM411.82 9.662c-2.674-.363-5.337-.924-8.025-1.043-4.552-.2-9.128-.283-13.679-.106-3.449.133-6.914.58-10.302 1.191-4.183.756-8.452 1.476-12.381 2.88-2.838 1.013-5.24 3.047-7.694 4.784-.524.37-.429 1.424-.618 2.164.669-.086 1.335-.21 2.008-.247.778-.043 1.574.075 2.339-.023 4.976-.642 9.93-1.424 14.921-1.957 4.006-.428 8.052-.545 12.077-.84 3.149-.232 6.291-.538 9.438-.787.699-.055 1.411.022 2.113-.015a77.777 77.777 0 003.282-.238c1.877-.173 3.747-.48 5.626-.532 3.192-.089 6.39-.01 9.584-.045.305-.003.606-.297.909-.457-.174-.235-.286-.582-.532-.69-2.935-1.3-5.89-2.565-9.066-4.04zm-16.983 37.855c-2.052.334-4.106.659-6.154 1.008-.375.065-.729.227-1.093.344.253.306.435.786.77.89 1.73.548 3.466 1.247 5.261 1.433 3.861.397 7.589-.268 11.053-1.886.336-.157.561-.502.837-.76-.384-.276-.751-.77-1.156-.795-3.093-.196-6.193-.301-9.518-.234z" fill="#8EF580"/><path fill-rule="evenodd" clip-rule="evenodd" d="M464.063 285.569c.282-1.347.711-2.69.811-4.044.195-2.613.273-5.236.226-7.853-.01-.471-.908-1.362-1.291-1.33-2.232.169-1.577-.617-1.479-1.638.144-1.472-.561-2.992-.384-4.46.163-1.335.993-2.634 1.592-3.932.101-.217.527-.504.787-.496.272.013.719.319.753.529.429 2.637.721 5.286 1.207 7.915.435 2.355 1.214 4.679 1.553 7.038.17 1.193-.402 2.432-.455 3.658-.13 2.992.277 5.952-.396 8.992-.614 2.776-.715 5.618-1.781 8.365-.168.431.058 1.085.442 1.436.213.193 1.171.056 1.727-.077 9.685-2.311 19.358-4.653 29.043-6.969.517-.125 1.116-.08 1.677-.117-.484.218-.962.44-1.452.646-4.971 2.068-9.944 4.129-14.91 6.202-.369.153-.683.375-1.024.565.55.165 1.147.528 1.638.459 3.056-.407 5.404.908 7.981 1.658.261.073.451.278.674.424-.344.124-.693.366-1.028.355-3.255-.105-6.508-.336-9.762-.355-2.244-.017-4.536.076-6.728.403-5.664.846-11.299 1.806-16.913 2.819-1.795.322-3.456 1.036-5.241 1.407-.952.198-1.832.271-3.108-.016-2.191-.488-4.924.322-7.423.617-.153.016-.401.371-.351.415.318.283.715.743 1.072.734 1.119-.024 2.228-.245 3.348-.346.322-.033.669.097 1.004.149-.28.096-.566.181-.839.286-2.332.903-4.678 1.782-6.971 2.735-.317.132-.629.721-.486.931 2.73 4.081 5.534 8.134 8.305 12.199.202.294.266.645.393.968-.377-.105-.803-.158-1.125-.319-5.492-2.799-9.898-6.194-11.317-11.203-.219-.77-.193-1.605-.619-2.303-.275-.447-1.149-.967-1.779-.983-1.412-.041-2.854.161-4.259.359-2.222.314-4.403.867-6.64 1.024-2.947.209-5.938.068-8.9.19-3.817.161-7.622.52-11.439.629-2.456.072-4.931-.117-7.391-.247-4.555-.246-9.105-.536-13.656-.799-4.973-.289-9.959-.483-14.916-.882-2.402-.194-4.743-.783-7.124-1.149-5.313-.823-10.645-1.585-15.94-2.465-1.037-.169-1.894-.928-2.93-1.101-.898-.145-2.178-.609-1.627 1.222.546 1.819-.716 3.933-1.2 5.912-.039.158-.204.299-.31.444-.076-.242-.286-.512-.212-.73.857-2.508.049-4.875-1.143-7.191-.536-1.044-1.342-2.012-2.005-3.02-.105-.161-.093-.363-.137-.544.26.072.515.157.778.214 6.341 1.427 12.675 2.871 19.029 4.262a26.98 26.98 0 004.164.561c.954.06 3.002 1.778 2.624-.751 1.542-.097 3.1-.342 4.622-.25 1.905.114 3.795.452 5.657.795.581.109 1.047.545 1.565.83-.426.206-.844.425-1.285.609-.262.109-.563.166-.848.247.313.096.617.25.941.277 2.954.243 5.906.553 8.871.675 7.846.318 15.696.625 23.55.778 2.129.04 4.268-.605 6.424-.718 2.613-.133 5.25.012 7.872-.06 2.155-.058 4.323-.174 6.451-.42 2.606-.307 5.189-.738 7.76-1.186 5.78-1 11.556-2.016 17.315-3.081 3.583-.665 7.107-1.512 10.706-2.122 2.077-.35 1.22-1.048.495-1.608-4.688-3.634-9.387-7.259-14.199-10.8-1.321-.976-1.875-1.561-.093-2.589 4.517-2.613 8.905-5.339 13.354-8.014.189-.116.51-.116.683-.237.921-.654 1.815-1.327 2.718-1.992-1.169.068-2.336.153-3.508.205-3.284.142-6.569.375-9.854.375-3.235 0-4.717 1.053-5.356 4.005-.238 1.097-.788 2.17-1.295 3.23-.277.581-.757 1.113-1.145 1.665-.277-.653-.84-1.322-.779-1.959.338-3.505 1.7-8.61 7.961-10.175.235-.06.4-.254.618-.363.731-.359 2.778.71 2.243-.778-.383-1.069-1.697-2.242-3.033-2.754-1.161-.44-3.317-.416-4.363.112-2.356 1.194-2.194-.56-2.285-1.028-.392-2.033-.5-4.093-.575-6.146-.008-.218.941-.71 1.319-.649 6.041.964 11.228-.537 16.031-2.993 1.393-.714 2.343-1.883 3.716-2.625 1.898-1.025 1.254-1.944.332-3.097-4.318-5.404-8.83-10.736-12.746-16.293-3.025-4.291-5.274-8.874-7.842-13.336-.136-.238-.038-.549-.049-.825.26.19.558.359.771.572 5.801 5.793 11.153 11.796 15.133 18.384 1.919 3.177 3.55 6.449 5.245 9.695.648 1.243 1.127 2.529 1.645 3.803.488 1.194-1.24 4.299-2.832 5.045-3.765 1.763-7.499 3.565-11.353 5.214-1.508.646-1.694 1.383-.699 2.162 2.585 2.02 5.278 3.993 9.126 4.726.441.085.887.162 1.328.243 1.484.27 4.036.318 4.245.859.578 1.484.175 3.174.158 4.782-3.437.512-4.548 3.211-7.528 4.263-2.467.871-4.614 2.25-6.831 3.472-1.079.597-1.188 1.387-.14 2.122 3.999 2.811 8.005 5.614 12.019 8.408.211.149.512.222.771.331.037-.19.103-.384.103-.573.008-1.948-.062-3.9.02-5.848.121-2.834.313-5.67.57-8.497.044-.496.561-.964.858-1.443.115.556.183 1.117.357 1.661.166.512.444 1.008.811 1.613.009.412-.12.722-.248 1.029.238.015.474.027.712.044l-.327-1.174zm13.194 14.72l.346-.956c-.499-.072-1.059-.278-1.478-.177-.428.105-.716.512-1.066.79.64.182 1.282.363 2.198.343z" fill="#E7EAEE"/><path fill-rule="evenodd" clip-rule="evenodd" d="M418.433 329.526c.903 3.461.902 3.267-3.921 3.291-3.82.021-7.674.436-11.437.968-5.292.742-8.227.593-10.888-2.775-.415-.52-.699-1.206-.655-1.798.279-3.808-2.57-7.626-7.39-9.271-4.674-1.598-9.559-1.674-14.477-.5-1.523.362-1.45.733-.49 1.629 4.814 4.497 9.427 9.106 14.264 13.586 1.636 1.517 3.726 2.771 5.603 4.15 2.028 1.488 4.785 1.008 7.115 1.101 3.468.137 6.365 1.536 6.919 4.113.14.649.726 1.251 1.107 1.871.583-.314 1.142-.653 1.753-.939 5.878-2.727 11.76-5.449 17.658-8.155.379-.173.889-.193 1.338-.281-.194.322-.326.677-.592.968-3.749 4.097-9.444 6.351-15.164 8.581-.555.214-1.103.439-1.655.665.63.178 1.264.359 1.893.545 5.495 1.621 11.07 3.121 16.432 4.956 1.359.468 2.928 2.065 2.793 3.025-.148 1.045-1.916 2.31-3.402 2.855-4.569 1.67-9.406 1.968-14.495 1.121-5.272-.879-10.705-1.23-15.985-2.089-4.223-.689-8.322-1.791-12.471-2.718-1.626-.363-3.322-.633-4.83-1.174-1.338-.483-3.301-.975-1.835-2.637.077-.084-.188-.435-.404-.544-2.271-1.158-4.59-2.267-6.836-3.449-.599-.318-.995-.838-1.485-1.265.655-.303 1.28-.65 1.97-.896.759-.27 1.677-.351 2.34-.702.764-.404 3.621-.206 1.224-1.799 1.037-.584 1.97-1.463 3.134-1.685 1.909-.363 3.968-.286 5.963-.412 1.084-.068 2.191-.093 3.24-.277.72-.13 1.358-.505 2.035-.767-.375-.286-.726-.589-1.129-.851a92.403 92.403 0 01-17.528-14.788c-5.363-5.8-13.305-7.936-22.705-7.235-1.46.104-2.926.621-4.323.508-.6-.045-1.444-1.213-1.43-1.867.013-.669.795-1.424 1.488-1.976 1.952-1.557 4.247-.513 6.316-.194 5.089.779 10.133 1.722 15.184 2.63 4.294.774 8.531 1.758 12.87 2.334 3.823.508 7.744.686 11.635.836 8.486.334 16.979.721 25.471.758 3.924.016 7.849-.754 11.784-1.117.443-.041.943.359 1.416.359.992-.004 1.985-.138 2.977-.218-1.451.35-2.916.665-4.347 1.052-2.57.694-5.176.747-7.852.448-.163-.016-.773.766-.684 1.109.764 2.916 1.643 5.815 2.488 8.92zm-43.98 15.124c-.344.201-.663.543-1.037.584-2.336.23-2.112 1.012-.612 1.783 1.229.632 2.712 1.012 4.109 1.46 1.618.516 3.951 1.593 2.868 2.528-2.701 2.335.171 1.371 1.301 1.509 1.204.14 2.456.491 3.611.367 5.661-.621 11.142-1.589 15.117-5.021.864-.746 2.153-1.255.306-2.19-.285-.145.022-.819-.156-1.19-.4-.835-.642-1.939-1.484-2.375-1.111-.573-2.74-.843-4.143-.839-4.26.016-8.519.214-12.778.363-2.667.097-5.341.21-6.112 2.674-.027.085-.467.101-.99.347zm41.231-18.148c-.184-.569-.258-1.178-.571-1.706-.867-1.472-1.339-3.476-2.896-4.211-1.615-.758-4.33-.411-6.541-.302-3.691.186-7.366.545-11.042.867-1.775.157-3.258.605-2.578 2.258 1.101 2.687 2.215 5.368 3.478 8.014.187.391 1.245.843 1.84.803 3.192-.223 6.359-.634 9.549-.888 1.845-.149 3.717-.129 5.576-.197 3.011-.114 3.866-.928 3.204-2.96-.131-.404-.019-.848-.019-1.678zm-15.118 29.641c1.705.27 3.396.613 5.118.79 3.04.319 6.088.674 9.148.771 3.701.116 7.633.52 10.41-1.977.362-.322.412-1.342.141-1.459-3.069-1.323-6.095-2.795-9.403-3.694-3.266-.888-7.133-.469-9.974-2.452-.253-.178-1.363.113-1.893.379a342.934 342.934 0 00-8.462 4.42c-.297.161-.61.726-.499.81 1.379 1.053 2.334 2.609 5.414 2.412zm-214.811-4.939c9.584-1.912 17.751-.318 24.817 4.666 6.922 4.888 11.178 10.908 14.34 17.426 2.588 5.331 5.278 10.646 7.544 16.05 2.573 6.146 5.606 12.119 9.466 17.898 6.671 9.993 17.007 16.66 31.574 19.921 6.326 1.42 12.653 3.042 18.003 6.041 1.81 1.017 3.191 2.448 4.741 3.707.135.109.068.351.096.536-.26-.084-.564-.129-.772-.258-7.244-4.484-15.878-7.041-24.485-9.698-9.342-2.884-18.376-6.231-25.031-12.115-5.814-5.142-9.524-11.127-12.308-17.426-3.015-6.815-5.775-13.696-8.847-20.499-2.908-6.444-7.176-12.373-13.257-17.543-1.553-1.322-3.699-.975-5.607-.907-4.042.149-8.07.5-12.104.77-1.97.133-3.94.283-5.914.395-.324.016-.663-.112-.995-.173.308-.073.61-.165.926-.218 5.14-.85 10.282-1.698 15.428-2.532.792-.134 1.608-.178 2.403-.299 1.252-.19 2.494-.407 3.74-.613-.971-.714-1.836-1.532-2.935-2.117-3.183-1.689-6.888-2.205-10.715-2.081-4.3.142-8.582.561-12.881.674a383.81 383.81 0 01-15.806.085c-4.385-.069-8.88.027-13.118-.65-7.011-1.117-13.988-2.52-20.734-4.303-9.711-2.565-18.638-6.315-26.723-11.065-1.375-.807-2.221-.964-4.059-.171-8.364 3.606-16.916 6.982-25.487 10.325-5.767 2.246-11.676 4.298-17.533 6.424-.32.117-.748.072-1.125.105.227-.19.413-.423.687-.565 6.737-3.476 13.22-7.271 20.3-10.324 7.588-3.266 15.708-5.883 23.663-8.679 2.97-1.044 6.127-1.802 9.217-2.657.444-.125.984-.061 1.481-.084-.332.233-.696.447-.991.701-1.461 1.266-2.94 2.521-4.297 3.843-.131.125.422.807.85 1.041 8.977 4.92 18.967 8.367 29.608 10.828 3.877.895 7.781 1.758 11.747 2.395 3.628.585 7.337.993 11.04 1.21 4.887.287 9.802.384 14.705.411 3.068.021 6.14-.238 9.348-.475z" fill="#00160A"/><path fill-rule="evenodd" clip-rule="evenodd" d="M311.237 307.346c-.367 2.666-.774 5.332-1.087 8.002-.247 2.113-.375 4.234-.571 6.348-.016.181-.142.359-.218.535-.108-.14-.275-.277-.316-.431-.927-3.573-1.839-7.15-2.763-10.719-.045-.173-.188-.33-.285-.496-.085.177-.23.347-.249.528-.198 1.892-.424 3.783-.548 5.679-.221 3.367-.375 6.739-.567 10.11-.011.185-.119.363-.182.548-.121-.189-.305-.375-.351-.573-.607-2.572-1.24-5.141-1.768-7.722-.404-1.981-.536-3.993-1.091-5.941-.125-.44-1.674-1.097-2.275-.964-4.473 1.013-9.141 1.061-13.65 1.682-4.629.642-9.114-.056-13.639.27-.995.073-1.498-.052-.444-.701.139-.085.347-.174.377-.283.822-3.04 3.175-2.766 6.744-2.395 4.715.492 9.644-.133 14.484-.25.631-.016 1.274.201 1.907.189 1.147-.015 2.999.972 2.809-1.101-.069-.745.343-1.306 2.043-1.193 2.572.173 5.796-2.734 5.565-4.695-.252-2.157-.555-4.326-1.137-6.444-.291-1.069-.941-2.355-3.208-1.298-.907.423-2.051.572-3.081.859-.636.173-1.262.371-1.893.56.2-.678.093-1.58.655-1.996 1.928-1.427 4.508-1.625 7.128-1.549.248.008.495.085.744.133-.08-.193-.193-.378-.233-.572-.568-2.779-2.279-5.271-4.955-7.118-2.237-1.541-2.34-3.493-3.324-5.279-.09-.166.026-.387.046-.585.259.085.576.129.768.262 3.995 2.835 7.097 6.126 9.044 9.945 1.395 2.738 2.268 5.582 2.222 8.533-.001.069-.002.134 0 .202l.127 3.484c1.46-.495 2.913-1.003 4.379-1.488 4.634-1.523 9.265-3.052 13.922-4.536.503-.162 1.466-.706 1.438.532-.019.891.344 1.98 1.088 2.65 1.707 1.544.87 3.008.602 4.657-.398 2.452-.181 4.961-.1 7.445.12 3.638.355 7.279.524 10.917.011.246-.127.496-.194.742-.115-.267-.266-.525-.341-.799a577.661 577.661 0 01-1.789-6.71c-.522-2.017-1.007-4.041-1.516-6.058a288.668 288.668 0 00-1.684-6.485c-.022-.084-.588-.144-.88-.112-.259.028-.698.193-.702.306-.045 1.702.034 3.404-.046 5.106-.128 2.791-.34 5.577-.552 8.368-.02.266-.285.528-.436.79-.216-.217-.558-.415-.627-.653-1.127-3.94-2.207-7.888-3.34-11.828-.082-.282-.485-.52-.739-.778-.112.269-.285.535-.328.81-.206 1.287-.48 2.573-.541 3.863-.23 4.848-.459 9.695-.534 14.547-.029 2.024.389 4.053.476 6.082.023.524-.44 1.059-.681 1.592.057-.459.201-.923.154-1.375-.135-1.246-.293-2.496-.545-3.73-.638-3.137-1.36-6.268-1.996-9.405-.472-2.326-.89-4.666-1.279-7.001-.166-1-.195-2.008-.424-3.113.045-.565.407-1.044.36-1.496-.042-.408-.534-.791-.827-1.186.021.928.041 1.855.073 2.782 0 .004.168 0 .257 0zm-8.521 2.823l2.433-2.246c-1.201.347-2.4.694-3.6 1.037-.551.157-1.13.27-1.649.472-.294.116-.492.366-.734.556.346.194.698.557 1.036.549.658-.013 1.309-.23 2.514-.368zm10.445-7.661c-.756.153-1.525.278-2.251.479-.116.033-.042.427-.055.654.734-.085 1.488-.126 2.192-.279.2-.045.262-.423.114-.854z" fill="#E7EAEE"/><path fill-rule="evenodd" clip-rule="evenodd" d="M584.46 363.402c-2.475 0-4.673.021-6.873-.012-.461-.007-.918-.197-1.374-.302.395-.299.78-.846 1.193-.855 3.14-.072 6.29 0 9.434-.049 7.251-.108 14.503-.355 21.753-.359 4.756-.004 9.506.32 14.256.509 1.418.061 2.831.197 4.249.258 3.529.149 7.053.339 10.583.391 4.365.068 8.736-.004 13.101.037.934.008 1.858.289 2.797.378 3.086.287 6.164.582 9.259.803 4.211.307 8.433.528 12.644.823 3.397.238 6.778.58 10.177.79 5.194.319 10.527.125 15.568.932 9.703 1.552 20.132 2.282 27.07 8.501 2.303 2.065 4.821 4.46 5.453 6.949.995 3.936-.637 7.936-4.755 10.787-4.695 3.246-9.978 6.034-14.838 9.159-4.052 2.613-7.356 5.948-7.476 9.868-.198 6.231-.077 6.117 7.355 9.804 5.559 2.754 11.529 5.13 17.582 7.275 9.653 3.42 19.774 5.997 30.269 7.69 1.743.283 3.579.254 5.355.456.451.053.83.444 1.242.677-.456.167-.929.501-1.364.473a85.87 85.87 0 01-5.557-.525c-3.81-.476-7.696-.798-11.403-1.564-4.386-.912-8.664-2.15-12.918-3.38-9.951-2.88-19.099-6.824-27.428-11.724-2.237-1.314-4.342-3.065-5.508-4.947-.852-1.375-.49-3.376.088-4.953 1.182-3.258 3.397-6.242 6.669-8.63 3.694-2.694 7.828-5.057 11.517-7.751 4.541-3.315 8.961-6.965 9.054-11.905.077-4.005-2.319-7.67-7.68-9.469-4.376-1.468-8.945-2.767-13.607-3.601-4.986-.891-10.17-1.194-15.283-1.682a610.39 610.39 0 00-14.436-1.205c-4.607-.331-9.235-.512-13.837-.832-5.063-.355-10.105-.891-15.174-1.165-3.343-.181-6.718.004-10.076-.053-1.397-.024-2.777-.282-4.174-.379-4.089-.286-8.179-.62-12.276-.793-5.079-.215-10.169-.368-15.255-.404-8.368-.065-16.735-.021-25.376-.021zm-571.878-8.973c-8.843 3.666 2.74-3.021 13.808-8.912 10.56-5.622 21.237-11.122 31.682-16.854 6.15-3.375 11.972-7.073 17.9-10.662a1937.163 1937.163 0 0019.806-12.119 281.846 281.846 0 0010.036-6.557 628.274 628.274 0 0012.213-8.545c9.662-6.921 19.374-13.801 28.892-20.826 6.255-4.614 12.028-9.582 18.339-14.147 8.678-6.283 17.983-12.019 29.386-15.558 5.221-1.621 10.502-3.135 15.774-4.665.343-.1.841.092 1.268.149-.348.142-.694.288-1.045.427-8.316 3.278-16.767 6.386-24.897 9.896-4.925 2.129-9.552 4.702-13.95 7.392-5.187 3.178-10.221 6.533-14.892 10.11-7.965 6.106-15.466 12.534-23.413 18.648-5.574 4.291-11.554 8.295-17.382 12.4-2.406 1.699-4.827 3.388-7.356 4.985a1485.916 1485.916 0 01-17.899 11.122c-6.113 3.74-12.224 7.482-18.462 11.107-7.075 4.109-14.254 8.127-21.455 12.119-6.26 3.472-12.584 6.879-18.932 10.263-6.395 3.408-12.854 6.755-19.421 10.227zm585.766-8.67c-.346 2.71-4.448 3.439-7.906 3.125-1.303-.121-2.59-.318-3.898-.391-2.941-.17-5.892-.23-8.834-.432-1.611-.112-2.057.17-2.111 1.461a101.148 101.148 0 01-1.095 11.15c-.274 1.746-1.698 2.872-4.54 2.763-3.589-.134-7.235.177-10.797-.101-2.557-.202-5.333-.714-7.422-1.734-1.61-.786-3.062-2.528-3.237-3.936-.337-2.633.17-5.348.61-8.001.192-1.134.296-1.557-1.6-1.621-9.302-.319-18.631-.513-27.879-1.255-7.404-.592-14.766-.048-22.138-.314-1.127-.041-2.303.133-3.375-.053-.881-.149-1.638-.685-2.448-1.052.985-.036 1.97-.101 2.959-.105 3.238-.016 6.476-.073 9.708.012 3.574.088 7.136.375 10.71.464 2.705.064 5.414-.134 8.113-.056 3.745.104 7.478.382 11.222.535 2.694.113 5.48.489 8.065.126 4.997-.694 7.861.588 7.894 4.142.011 1.31-.236 2.633-.538 3.927-1.072 4.642 3.583 8.147 10.252 7.804 2.826-.146 5.679-.033 8.521-.02 2.518.012 4.288-1.21 4.293-3.327.006-2.295-.445-4.594-.467-6.888-.016-1.69.226-3.397.605-5.062.066-.29 1.402-.624 2.133-.605 4.349.134 8.697.343 13.046.561 1.792.089 3.573.359 5.36.371 2.32.02 2.782-1.302 2.991-2.629.247-1.573.523-3.158.523-4.739.005-1.556-.485-3.114-.474-4.67.023-3.012-.555-5.214-3.595-6.477-2.337-.972-4.685-1.012-7.301-.464-3.133.658-6.399.823-9.653.142-2.887-.609-4.267-2.25-3.783-4.553.368-1.763-.412-3.638-.401-5.461.016-1.887.357-3.775.588-5.658.121-.959.38-1.915.451-2.879.083-1.029-.077-2.065.038-3.089.313-2.871.737-5.735 1.078-8.607.39-3.29.703-6.588 1.116-9.88.314-2.557.802-5.106 1.067-7.666.29-2.835.29-5.69.675-8.517.204-1.492 1.1-2.929 1.424-4.421.374-1.709.451-3.455.677-5.181.032-.243.175-.48.269-.718.093.242.187.479.275.722.369 1.032.5 2.145 1.138 3.076 2.144 3.134.066 6.049-.522 9.066-.253 1.291-2.524 1.779-1.858 3.481.395 1.004-.77 2.29-.929 3.468a545.397 545.397 0 00-1.666 13.808 105.365 105.365 0 00-.55 6.956c-.225 5.453-.313 10.91-.605 16.358-.077 1.516-.555 3.033-1.029 4.517-.587 1.835 2.155 3.843 5.509 3.867 4.398.032 8.791 0 13.189.017 1.072.004 2.678-.202 3.107.209 1.385 1.323 2.457 2.851 3.429 4.375 1.364 2.146.347 4.32-.615 6.32-.765 1.589-.428 2.9.626 4.154 1.084 1.286.71 2.363-.395 3.585z" fill="#00160A"/><path fill-rule="evenodd" clip-rule="evenodd" d="M229.181 300.088c-.327.536-1.34 1.23-1.153 1.573.668 1.23 4.385 2.283 5.787 1.581.676-.336.734-1.428.9-2.198.119-.549-.047-1.129-.086-1.698.468 1.085 3.237-.807 3.116 1.403-.066 1.189 1.007 2.085 2.779.65.717-.582 1.859-.879 2.808-1.307-.09.721-.333 1.452-.239 2.157.207 1.545-.078 2.198-2.699 1.953a57.416 57.416 0 00-10.513-.017c-4.642.42-9.215 1.266-13.803 1.98-.405.061-.705.48-1.054.734.399.149.79.411 1.2.432 1.955.089 3.94-.008 5.869.19 5.343.551 10.662 1.238 15.998 1.83.926.101 1.94-.113 2.819.065.458.097.707.734 1.053 1.125-.486.125-1.06.443-1.441.35-4.442-1.12-8.946-.838-13.22.146-6.649 1.528-13.142 3.42-19.688 5.19-5.879 1.589-11.736 3.219-17.74 4.831 3.518-1.209 7.192-2.391 10.828-3.633 3.837-1.314 7.642-2.682 11.453-4.033.258-.092.448-.286.671-.431-.766-.617-1.375-1.541-2.321-1.799-4.526-1.234-9.097-2.415-13.744-3.375-4.805-.997-9.699-1.787-14.592-2.529-3.435-.524-6.938-.802-10.403-1.234-.435-.053-.81-.359-1.214-.549.507-.137 1.047-.439 1.515-.387 4.006.444 7.983 1.061 12.003 1.403 3.641.315 7.348.219 10.984.549 3.651.335 7.241 1.009 10.875 1.464 1.594.202 3.228.254 4.848.319.117.004.45-.48.37-.666-.92-2.133-1.909-4.25-2.847-6.38-.057-.132.162-.467.268-.471a56.292 56.292 0 013.02-.02c1.2.02 2.935-.504 1.496 1.383-.553.726.478 2.121.927 3.178.027.064 1.433-.013 1.975-.271 2.467-1.178 4.844-2.456 7.281-3.665.332-.166.833-.235 1.239-.21 1.517.097 3.025.254 4.675.387zm-11.682 11.292l2.269-1.211c.2-.104.405-.205.607-.306-.424-.02-.985-.177-1.244-.036-.705.383-1.281.891-1.632 1.553z" fill="#E7EAEE"/><path fill-rule="evenodd" clip-rule="evenodd" d="M324.423 342.029c-5.561-.545-10.72-1.452-15.732-2.815-5.101-1.391-8.342-4.009-9.511-7.884-.463-1.537-.483-3.15-.581-4.735-.228-3.706-.388-7.416-.548-11.122-.012-.275.205-.549.316-.823.13.23.309.451.381.689.508 1.686 1.188 3.36 1.442 5.066.406 2.734.366 5.509.826 8.238.305 1.816.733 3.739 1.843 5.34 2.495 3.593 7.387 4.678 12.334 5.186 15.028 1.537 28.342 5.767 40.462 12.498 5.1 2.835 11.171 4.775 16.977 6.856 5.776 2.069 11.74 3.867 17.681 5.673 10.75 3.276 20.847 7.478 30.47 12.192 8.284 4.057 16.073 8.703 22.251 14.563 2.501 2.371 4.856 4.831 7.154 7.311.294.315-.15 1-.251 1.516-.454-.25-1.017-.439-1.345-.762-3.137-3.069-5.988-6.319-9.394-9.223-8.599-7.327-19.257-12.772-30.952-17.087-15.227-5.622-30.665-10.937-45.852-16.615-6.389-2.388-12.426-5.299-18.521-8.09-5.841-2.678-12.006-4.706-18.781-5.695-.15-.019-.264-.18-.669-.277zM253.92 213.685c3.126-2.465 7.071-3.595 11.118-4.489 3.711-.82 9.866 1.17 11.21 3.864.661 1.325.021 3.042-.239 4.563-.453 2.665-1.077 5.312-1.609 7.97-.925 4.625-1.904 9.246-2.711 13.882-.257 1.477.078 3.003-.065 4.497-.282 2.94-.809 5.866-1.041 8.806-.17 2.166-.014 4.347-.074 6.517-.004.161-.644.274-.895.476-.292.229-.681.532-.684.803-.043 4.456-.145 8.916.017 13.372.086 2.331 3.173 3.335 7.269 3.218 4.688-.133 9.451-.048 14.084.436 2.74.29 2.952 2.726 3.195 4.259.486 3.068.14 6.214.145 9.323.003 2.069.431 4.227-1.683 5.928-.732.59-1.776 1.098-2.806 1.323-1.411.307-2.942.339-4.429.423-.31.017-.651-.25-.979-.382.391-.186.777-.524 1.168-.528 4.05-.041 6.67-1.682 7.046-4.727.339-2.734.706-5.501.464-8.223-.138-1.56-1.075-3.275-2.341-4.549-2.228-2.243-7.715-2.928-11.461-1.803-3.952 1.182-9.043.085-11.259-2.508-.432-.508-.683-1.218-.618-1.806.27-2.449.752-4.885 1.041-7.333.266-2.246.474-4.496.545-6.751.092-2.935-.071-5.872.073-8.803.051-1.04.922-2.053.999-3.097.164-2.188-.093-4.396.092-6.583.169-2.003.704-3.989 1.053-5.984.38-2.152.714-4.307 1.097-6.458.853-4.803 1.764-9.599 2.569-14.405.366-2.178-3.146-4.492-6.652-4.793-3.638-.313-6.673.736-9.099 2.354-3.882 2.587-7.367 5.503-10.929 8.342-1.732 1.38-3.173 2.955-4.892 4.345-6.047 4.895-12.156 9.75-18.253 14.612-.267.214-.64.359-.964.536.093-.277.148-.565.285-.83 2.619-5.093 8.326-8.456 13.048-12.346 5.522-4.55 11.338-8.909 17.165-13.451z" fill="#00160A"/><path fill-rule="evenodd" clip-rule="evenodd" d="M541.445 355.235c-3.591-.435-7.12-.786-10.473-1.56-3.831-.884-6.745.202-9.539 1.807-.197.112.149 1.218.534 1.33 4.481 1.315 8.966 2.634 13.551 3.731 2.986.714 5.976 1.335 9.357.98 1.699-.177 3.678 1.093 5.531 1.697.506.166 1.038.287 1.555.432-.61.053-1.22.146-1.831.15-2.6.015-5.206-.101-7.784.035-2.43.126-4.827.521-7.246.763-.373.036-.791-.133-1.187-.21.33-.06.66-.125.995-.177.555-.089 1.11-.165 1.666-.25-.522-.053-1.066-.045-1.556-.165-10.127-2.501-20.259-4.997-30.368-7.53-5.371-1.347-10.71-2.763-16.055-4.17-.49-.129-.892-.44-1.337-.669.638-.017 1.313-.149 1.904-.041 4.746.887 9.473 1.811 14.201 2.743 3.326.657 6.635 1.335 9.945 2.016 1.05.218 2.172-1.181 1.881-2.403-.451-1.9-.946-3.791-1.359-5.694-.021-.085.594-.367.902-.355 2.952.104 5.899.233 8.84.395.846.044 2.54-.424 1.518 1.081.467.048.939.088 1.406.144 3.222.376 5.987 1.336 8.226 3.154.693.561 1.935 1.202 2.792 1.113 1.462-.145 2.15-.911 1.754-2.283-.215-.729-1.006-2.471 1.825-2.444 1.588.017 1.55.404 1.248 1.356-.182.568.396 1.262.632 1.899.82-.322 1.65-.633 2.452-.976.44-.186.841-.423 1.258-.636-.048.358-.197.725-.141 1.072.438 2.771-2.014 3.347-5.097 3.665zm-24.052-4.939c.374 1.084.752 2.165 1.126 3.25 1.255-.396 2.508-.786 3.75-1.186.693-.221 1.435-.403 2.035-.721.374-.198.769-.892.746-.904-1.632-.778-3.221-1.69-5.018-2.154-.594-.157-1.743.844-2.639 1.715z" fill="#E7EAEE"/><path fill-rule="evenodd" clip-rule="evenodd" d="M189.601 321.058c-3.798 1.21-7.71 2.464-11.675 3.622-5.035 1.467-10.143 2.803-15.148 4.322-1.003.303-1.735 1.146-2.495 1.8-.327.278-.412.709-.607 1.072-.058-.451-.21-.911-.158-1.355.167-1.399-.424-1.451-2.285-1.246-2.598.286-5.357-.282-7.994-.097-3.555.251-7.09.779-10.577 1.367-1.877.319-3.864.775-5.4 1.581-3.162 1.662-2.858 3.872.342 4.807a259.43 259.43 0 008.811 2.403c.269.07 1.102-.338 1.089-.499-.115-1.444-.482-2.88-.526-4.32-.027-.911.154-1.907.673-2.714.254-.395 1.492-.451 2.284-.661.044.533.211 1.073.111 1.585-.42 2.174-.929 4.331-1.372 6.501-.048.234.041.529.208.734.611.738 4.12 1.016 5.416.456 1.67-.723.868-1.815.385-2.57-1.346-2.097-.74-4 .599-5.883.243-.342.841-.553 1.276-.823.115.359.305.714.334 1.077.206 2.585-.018 5.239.741 7.734.343 1.125 2.587 1.965 4.086 2.824.114.064 1.637-.714 1.697-1.162.217-1.596.077-3.218.094-4.831.003-.25.123-.496.191-.746.116.262.275.52.344.79.956 3.755 7.361 7.578 12.83 7.715.664.021 1.312.359 1.967.553-.61.052-1.221.116-1.832.161-5.105.375-10.089-.351-15.133-.742-8.886-.694-17.016-2.638-24.376-6.388-2.241-1.142-4.188-2.198-3.709-4.513.476-2.294 2.575-3.718 5.188-4.331 2.846-.669 5.984-.694 9.002-.956 2.055-.177 4.134-.217 6.184-.423 3.54-.355 7.102-.669 10.584-1.23 3.884-.625 7.688-1.521 11.533-2.283 4.974-.984 9.954-1.952 14.933-2.924a63.618 63.618 0 012.385-.407z" fill="#00160A"/><path fill-rule="evenodd" clip-rule="evenodd" d="M583.777 295.752c-1.332-2.021-2.914-3.872-3.601-5.884-.687-2.001-.485-4.166-.644-6.259-.011-.133.204-.274.318-.415.254.262.584.496.754.782 2.216 3.759 4.564 7.481 6.559 11.3 1.682 3.214 3.222 6.492 4.321 9.832 1.099 3.335 1.831 6.767 2.248 10.191.368 3.02.023 6.085.105 9.13.027.884-.275 1.214-1.485 1.072-1.896-.225-3.787-.499-5.701-.58-1.093-.044-2.215.258-3.325.4-.517.064-1.051.213-1.545.157-2.067-.226-5.338-3.267-5.607-4.759-.633-3.509.219-6.295 5.459-7.521 1.022-.238 1.847-.972 2.699-1.533 1.687-1.117.274-1.996-.847-2.222-1.517-.302-3.25-.092-4.877.013-.592.035-1.149.394-1.72.604.049-.765-.082-1.572.209-2.282.154-.363 1.044-.778 1.622-.799 2.683-.08 5.414-.254 8.043.033 2.22.242 1.808-.811 1.556-1.42-1.37-3.267-2.92-6.497-4.541-9.84zm5.634 22.684c0-1.608-.066-3.222.016-4.827.077-1.395-.735-1.536-2.099-.887-3.256 1.545-6.499 3.101-9.681 4.722-1.43.73-1.441 1.682.043 2.392 3.304 1.577 6.663 3.089 10.039 4.585.215.093 1.061-.173 1.083-.315.259-1.75.413-3.508.599-5.67zm2.914 2.824c-.032-.69-.051-1.384-.14-2.073 0-.02-.673-.008-1.031-.012.281.762.563 1.524 1.171 2.085z" fill="#E7EAEE"/><path fill-rule="evenodd" clip-rule="evenodd" d="M521.381 293.736c3.44-2.929 7.224-5.529 9.923-8.639 3.187-3.678 8.218-5.988 11.644-9.336 4.947-4.827 11.286-8.59 16.8-12.969 2.578-2.044 5.712-3.537 9.472-4.13 3.172-.504 5.844.439 8.268 1.847.126.072.11.274.16.42-.247-.02-.517 0-.737-.065-5.646-1.649-10.797-.537-14.805 2.323-5.789 4.13-10.968 8.723-16.411 13.115-1.94 1.564-3.886 3.121-5.833 4.678-5.827 4.682-11.676 9.348-17.481 14.046-4.755 3.851-9.456 7.743-14.194 11.61-6.663 5.436-13.414 10.817-19.987 16.313-4.56 3.816-4.594 8.542-4.288 13.248.083 1.29.537 2.565.803 3.847.024.118-.091.25-.141.372-.238-.134-.53-.235-.708-.4-4.282-4-4.663-9.864-.472-13.917 4.116-3.98 8.566-7.78 12.989-11.583 5.959-5.133 12.006-10.206 18.065-15.276 2.199-1.843 4.524-3.605 6.933-5.504z" fill="#00160A"/><path fill-rule="evenodd" clip-rule="evenodd" d="M279.214 245.747c-1.56-2.489-2.98-4.876-4.409-7.262-.102-.171-.395-.328-.382-.482.097-1.083.25-2.164.385-3.245.687.804 1.373 1.611 2.063 2.415 5.038 5.865 7.881 12.403 10.363 18.993 1.096 2.916 1.087 6.062 1.439 9.11.297 2.557.466 5.123.552 7.687.093 2.706-2.149 3.694-5.662 2.598-1.012-.316-2.031-.626-3.079-.864-.826-.189-1.171.173-1.833.899-.234.258-1.565.327-1.96.089-2.086-1.246-4.461-2.415-5.872-4.021-.879-.999-.251-2.726-.256-4.125-.004-.944-.195-1.602 1.717-2.162 3.134-.915 5.843-2.617 8.674-4.053.066-.031-.469-1.104-.855-1.153-2.237-.298-4.513-.44-6.778-.622-.368-.027-.745-.004-1.116-.004.002-.669.006-1.342.012-2.012.344.069.69.202 1.035.202 2.745.016 5.494.068 8.237-.008 2.24-.064 2.863-1.701 1.764-3.798-1.397-2.667-2.61-5.385-4.039-8.182zm-4.811 24.7c2.847 1.282 5.694 2.569 8.544 3.847.563.254 1.143.484 1.715.726.062-.452.181-.904.178-1.351a759.03 759.03 0 00-.154-11.195c0-.056-.658-.226-.829-.141-3.388 1.637-6.792 3.262-10.097 4.984-2.066 1.076-1.914 1.77.643 3.13zm11.545.402c.326.473.65.945.975 1.412.226-.137.637-.27.642-.411.021-.642-.073-1.282-.126-1.924-.497.174-.995.347-1.491.923zm122.592-36.091c-.636.802-1.109 1.596-1.936 1.972-4.429 2.015-9.002 3.861-13.398 5.912-1.352.63-2.306 1.719-3.438 2.603-.12.094-.198.216-.297.325.431.004.955.126 1.279-.01 2.303-.961 4.559-1.982 6.843-2.97a897.527 897.527 0 019.292-3.978c.488-.206 1.101-.254 1.655-.374-.275.453-.381 1.11-.856 1.326-2.975 1.348-6.042 2.585-9.06 3.884-4.053 1.744-8.039 3.58-12.152 5.245-3.194 1.295-4.381 3.194-4.364 5.791.018 2.565-.55 5.135-.448 7.691.13 3.254.797 6.493 1.005 9.743.178 2.795.088 5.602-.007 8.4-.019.545-.602 1.082-.926 1.622-.96-.645-2.277-1.174-2.764-1.976-.385-.629.41-1.597.412-2.416.031-17.127.027-34.256.006-51.384 0-.467-.46-.967-.332-1.391.215-.716.729-1.385 1.117-2.073.293.689.778 1.369.848 2.07.267 2.672.335 5.356.601 8.028.29 2.915.817 5.82 1.035 8.736.095 1.278-.337 2.573-.49 3.863-.038.316.085.641.134.962.443-.127.927-.205 1.32-.389 5.716-2.697 11.393-5.434 17.134-8.101 2.533-1.175 5.188-2.213 7.787-3.111z" fill="#E7EAEE"/><path fill-rule="evenodd" clip-rule="evenodd" d="M650.431 368.545c-8.18.1-16.361.1-24.535.1-4.607 0-9.225-.092-13.826.024-7.906.194-15.806.654-23.711.73-4.24.041-8.478-.58-12.727-.726-4.058-.137-8.06-.149-12.112-.754-5.684-.854-11.522-1.125-17.278-1.734-1.226-.129-2.381-.633-3.563-1.069 2.298.037 4.601.202 6.905.299 3.98.157 7.96.282 11.941.407 4.711.145 9.423.262 14.134.407 3.887.122 7.773.275 11.665.4 4.618.145 9.243.262 13.86.407 3.981.125 7.96.303 11.94.388 2.771.064 5.559-.074 8.324.031 5.645.21 11.281.565 16.926.774 4.014.146 8.038.15 12.057.316zm-428.123-18.552c-5.109-1.193-10.022-2.479-15.074-3.311-3.33-.544-6.86-.427-10.299-.621-4.613-.262-9.225-.536-13.837-.81-.157-.008-.305-.105-.458-.158.195-.08.384-.217.586-.229 2.551-.149 5.105-.27 7.656-.415 3.667-.206 7.329-.508 11.001-.609a26.716 26.716 0 015.427.427c7.881 1.431 15.387 3.585 22.025 7.057 10.764 5.634 17.992 13.055 21.521 22.524 1.919 5.145 4.376 10.239 8.609 14.716.377.398.559.903.783 1.37.125.262.149.553.218.827-.304-.197-.679-.363-.901-.604-7.508-8.179-13.438-16.898-17.696-26.282-2.614-5.767-8.538-9.684-15.716-12.559-1.184-.475-2.469-.818-3.845-1.323zm323.675-43.856c.083-3.356.171-6.509.215-9.663 0-.04-.782-.19-.864-.105-1.829 1.783-3.832 3.5-5.359 5.42-5.042 6.323-9.924 12.72-16.24 18.438-.573.516-1.33.927-1.919 1.44-.424.371-.714.827-1.066 1.246.714.19 1.417.468 2.155.549 2.402.27 4.81.499 7.223.677 2.173.157 4.354.214 6.531.334.539.033 1.106.073 1.589.227 4.124 1.323 7.075-.15 7.202-3.537.099-2.811.335-5.622.55-8.433.027-.323.329-.629.501-.948.29.275.796.533.829.819.171 1.404.248 2.815.297 4.223.039 1.342-.017 2.685.005 4.029.077 4.028-3.793 6.072-8.598 5.5-3.43-.411-6.971-.295-10.451-.54-1.868-.133-3.699-.581-5.562-.811-.919-.112-1.942.105-2.799-.097-1.683-.395-2.105-1.827-1.045-2.936 5.508-5.783 11.089-11.529 16.471-17.373 2.188-2.38 3.93-4.977 5.861-7.481.934-1.217 1.852-2.278 4.172-2.311 2.49-.036 3.447 1.032 3.529 2.46.099 1.815-.297 3.646-.511 5.465-.22 1.831-.374 3.666-.764 5.476-.154.731-.842 1.404-1.325 2.089-.061.089-.369.085-.566.126-.017-.263-.055-.525-.061-.787-.005-1.097 0-2.194 0-3.496zM180.71 389.299c.604-1.367 1.307-2.602 1.791-3.856.774-2.009 1.355-4.035 2.115-6.043.43-1.142 1.195-2.263 1.543-3.41.247-.812.049-1.652.049-2.479 0-2.575.186-5.155-.045-7.725-.336-3.739-5.802-6.699-13.815-8-3.562-.578-6.89-1.46-10.228-2.28-.847-.21-1.556-.676-1.907-1.093-.36-.427-.2-.937-.268-1.413.584.298 1.16.595 1.75.889 2.979 1.483 7.006 2.245 11.008 2.923 6.998 1.189 12.451 3.022 14.259 6.382.878 1.635 1.125 3.344 1.408 5.028.335 1.996.674 4.002.507 5.997-.158 1.889-.905 3.773-1.511 5.649-.712 2.202-1.383 4.411-2.394 6.585-.64 1.376-1.863 2.699-2.845 4.042-.129.178-.38.336-.574.505-.282-.188-.723-.361-.807-.564-.136-.327-.036-.676-.036-1.137zm54.663-114.215c2.419-.681 5.054-.927 5.573-3.085.217-.911.406-1.831.455-2.75.075-1.408-.06-2.827.054-4.231.055-.673.476-1.327.731-1.988.454.572 1.436 1.246 1.275 1.702-1.141 3.238.573 6.662-1.416 9.868-.809 1.303-1.571 1.811-3.576 1.739-4.083-.146-8.212.173-12.268-.11a67.174 67.174 0 01-10.935-1.694c-1.655-.399-1.254-1.831-.287-2.83 3.674-3.791 7.554-7.485 11.02-11.378 3.835-4.306 7.263-8.807 10.961-13.182.651-.769 1.612-1.529 2.681-1.949 2.726-1.072 4.638-.224 4.498 2.001-.259 4.102-.682 8.203-1.105 12.3-.036.351-.572.669-.877 1.004.005-.362.034-.725.012-1.088-.149-2.436-.323-4.872-.459-7.308-.088-1.573-.132-3.146-.18-4.723-.009-.306.056-.619.085-.93-.487.109-1.114.115-1.435.348-.678.494-1.227 1.087-1.771 1.667-2.786 2.969-6.172 5.747-8.152 8.981-1.925 3.154-4.498 5.917-7.01 8.747-1.71 1.928-3.745 3.698-5.581 5.57-.404.411-.581.939-.862 1.416.544.004 1.099-.041 1.631.019 1.785.206 3.557.472 5.343.67 3.77.419 7.546.811 11.595 1.214zm415.06 93.661c4.893.037 9.802.376 14.683.251 5.833-.15 11.546.371 17.307.806 6.189.472 11.703 2.004 16.75 4.569 4.013 2.033 7.84 9.356 6.708 12.675-.968 2.856-7.642 6.933-12.145 7.397-.302.033-.648-.121-.972-.19.313-.097.659-.157.934-.29 2.798-1.367 6.394-2.327 8.214-4.207 4.116-4.254 2.71-8.896-3.694-12.211-6.603-3.415-14.317-4.855-22.09-6.073-3.535-.552-7.048-1.234-10.622-1.577-5.002-.484-10.049-.71-15.073-1.15zM332.596 203.456c-1.582 3.184-1.862 1.925-8.169 3.867-6.001 1.848-12.155 3.445-18.053 5.453-7.225 2.458-14.256 5.225-21.362 7.87-1.515.563-2.994 1.177-4.497 1.758-.747.288-1.786.92-2.206.75-.759-.308.19-3.055 1.006-3.318 9.982-3.227 19.974-6.435 29.942-9.685 10.663-3.477 11.467-3.511 22.12-7.007.462-.152.949-.263 1.424-.394a1.745 1.745 0 01-.205.706zm351.788 192.612c-3.381.806-6.883 1.642-10.413 2.416-5.514 1.21-11.016 2.44-16.575 3.54-4.678.928-9.455 1.601-14.128 2.533-6.839 1.367-13.628 2.864-20.44 4.299-.116.024-.259-.048-.39-.052a518.32 518.32 0 00-2.765-.045c.879-.383 1.786-.738 2.644-1.146 6.063-2.883 12.787-4.58 19.725-5.895 4.848-.92 9.675-1.944 14.579-2.682 4.464-.669 9.033-.956 13.53-1.516 4.337-.54 8.636-1.226 12.969-1.807.335-.044.747.23 1.264.355zm-541.512-70.674c-.518-.032-.897-.173-1.285-.299-.234-.072-.485-.113-.728-.169.198-.081.385-.194.597-.229 6.169-1.086 12.343-2.146 18.508-3.239 4.55-.802 9.076-1.682 13.635-2.456 4.165-.71 8.376-1.271 12.536-1.989 3.767-.652 7.479-1.48 11.243-2.141 2.466-.435 4.984-.714 7.47-1.089.399-.056.741-.343 1.139-.391 1.123-.137 2.262-.21 3.395-.307-.882.376-1.708.863-2.652 1.102-8.354 2.081-16.69 4.21-25.114 6.126-4.356.991-8.859 1.674-13.337 2.334-4.482.665-9.003 1.202-13.531 1.678-3.896.407-7.824.653-11.876 1.069zm509.833 95.327c5.475 2.004 10.814 3.903 16.151 5.802l12.815 4.561c.379.138.753.283 1.127.428-.495.036-1.066.214-1.473.092-5.646-1.689-11.298-3.354-16.877-5.149a2449.082 2449.082 0 01-28.291-9.276c-5.783-1.94-11.462-4.037-17.212-6.02-1.292-.452-2.271-.747-.611-1.767.896-.549 1.402-.738 2.551-.318 10.561 3.851 21.121 7.698 31.82 11.647zM177.092 282.342c1.288-7.771 6.4-13.913 13.712-19.058 7.056-4.969 14.499-9.639 21.789-14.426.285-.185.743-.23 1.119-.343-.182.239-.31.513-.555.706-5.884 4.734-11.841 9.421-17.653 14.199-4.567 3.751-9.187 7.494-13.34 11.486-2.404 2.311-3.007 5.19-2.402 8.219.411 2.061.083 4.202.068 6.307-.001.182-.14.359-.214.537-.13-.206-.312-.399-.381-.618a245.354 245.354 0 01-2.143-7.009zm21.445 15.326c-1.298-.133-2.317-.347-3.345-.383-1.83-.065-3.699.133-5.484-.076-1.104-.13-2.086-.815-3.123-1.251.855-.101 1.714-.307 2.564-.286 5.178.101 10.354.294 15.533.371 4.244.064 8.493-.041 12.737.028 4.597.073 9.19.29 13.789.375 3.237.065 6.476-.017 9.714.024 3.181.037 5.766 2.585 5.11 4.888a26.085 26.085 0 00-.752 3.67c-.45 3.347 1.414 5.731 5.649 7.077.308.101.62.194.931.287-.33.064-.657.181-.989.193-4.47.153-6.154-1.056-6.154-4.404v-6.855c0-2.521-1.287-3.263-4.711-3.283-8.567-.048-17.134-.242-25.701-.371-1.68-.024-3.361-.004-5.042-.004-.09 0-.206.028-.271-.004-3.396-1.617-6.787.883-10.455.004zm429.226-5.949c-7.312-2.133-14.421-4.308-21.683-6.142-3.496-.883-7.301-1.109-10.952-1.673-3.161-.489-6.282-1.118-9.461-1.525-1.539-.198-3.182-.141-4.744-.008-1.71.145-1.286-.646-1.429-1.331-.231-1.088.511-1.093 1.683-1.141 5.766-.246 11.297.847 16.795 1.746a116.785 116.785 0 0123.347 6.379c4.151 1.61 8.044 3.578 12.04 5.405.203.093.263.363.385.556-.308-.06-.655-.072-.929-.182a159.625 159.625 0 01-5.052-2.084zm-274.748 29.339a1905.755 1905.755 0 00-22.557 7.667c-2.68.927-5.291 1.963-8.019 2.806-.779.242-1.85-.028-2.785-.061.493-.512.83-1.234 1.504-1.507 5.8-2.34 11.61-4.675 17.521-6.86 3.693-1.364 7.495-2.613 11.387-3.626 1.858-.488 4.035-.323 6.072-.415.23-.009.483.241.725.371-.23.137-.441.302-.693.411a33.67 33.67 0 01-3.155 1.214z" fill="#00160A"/><path fill-rule="evenodd" clip-rule="evenodd" d="M603.841 332.653c3.007 3.073 5.756 6.065 7.157 9.646 1.21 3.077 2.019 6.134 1.512 9.34-.148.935-.137 1.887-.203 2.831-.484-.951-.994-1.896-1.457-2.856-2.936-6.085-5.866-12.171-8.796-18.26-.028-.06.022-.141-.005-.198-.352-.749-.709-1.496-1.067-2.237a212.16 212.16 0 012.859 1.734z" fill="#E7EAEE"/><path fill-rule="evenodd" clip-rule="evenodd" d="M267.25 302.91c-1.333-2.815.922-5.666 4.918-6.452 3.714-.734 7.054.213 10.387 1.214.205.06.391.157.586.237-.335.053-.67.153-1.005.158-2.958.012-5.918-.02-8.876.016-2.138.024-3.391.855-3.235 2.448.271 2.779 1.022 5.557.94 8.323-.041 1.375-1.387 2.768-2.308 4.089-1.237 1.775-3.28 1.292-5.383 1.009-2.486-.33-5.043-.379-7.569-.557-.342-.023-.678-.093-1.018-.14.355-.085.699-.219 1.062-.254 2.896-.283 5.787-.634 8.697-.791 3.165-.165 5.309-3.234 3.95-5.554-.644-1.096-.78-2.355-1.146-3.746z" fill="#00160A"/><path fill-rule="evenodd" clip-rule="evenodd" d="M397.687 278.815c-2.727 1.33-5.19 2.757-7.962 3.693-1.3.439-3.202-.081-4.829-.165.052-.238-.016-.593.173-.694 2.574-1.395 5.096-2.859 7.803-4.101 3.743-1.718 7.629-3.271 11.467-4.872.396-.165.892-.201 1.341-.298-.116.411-.038.968-.377 1.205-2.446 1.746-4.976 3.428-7.616 5.232zm-109.678 21.574c-2.014 1.953-1.055 4.093-1.29 6.11-.053.456-.106.916-.107 1.375-.008 1.791-1.176 1.327-2.442.682-3.757-1.911-7.436-3.912-11.299-5.698-1.973-.916-.905-2.15-1.217-3.239.343.073.755.081 1.02.226 2.5 1.403 4.916 2.891 7.5 4.206.733.371 1.939.242 2.927.343.111-.774.632-1.682.257-2.295-1.163-1.899-.15-2.254 2.166-2.017.871.093 1.748.142 2.485.307zm304.569 49.807c-.231.447-.875.774-.918 1.141-.276 2.145-.408 4.302-.6 6.452-.039.383-.143.762-.22 1.138-.44-.161-.907-.291-1.314-.489-3.513-1.697-6.926-3.528-10.561-5.069-1.996-.847-1.588-2.016-1.643-3.218.302.004.698-.085.896.025 2.381 1.298 4.667 2.693 7.102 3.927 1.21.613 3.013-.161 2.97-1.193-.034-.895-.276-1.787-.43-2.682 1.529-.044 3.052-.089 4.718-.032z" fill="#E7EAEE"/><path fill-rule="evenodd" clip-rule="evenodd" d="M172.284 356.648c3.817-.505 7.484-.976 11.177-1.291 4.833-.411 9.69-.685 14.532-1.04 1.504-.113 2.992-.379 4.497-.436.677-.027 1.378.279 2.068.432-.524.342-.997.924-1.579.988-4.212.472-8.448.842-12.677 1.25-1.592.149-3.185.294-4.771.467-4.656.509-9.302 1.061-13.967 1.513-.68.064-1.442-.326-2.167-.504.68-.359 1.352-.726 2.044-1.069.205-.105.469-.14.843-.31z" fill="#00160A"/><path fill-rule="evenodd" clip-rule="evenodd" d="M235.922 258.549c-.517-.713-.893-1.399-1.581-1.698-1.004-.439-1.032-.846-.459-1.431.413-.423.895-.806 1.347-1.209.231.467.317 1.02.722 1.379.86.77 1.837 1.996 2.852 2.044 2.343.109 1.801 1.481 1.412 1.867-.966.956-.513 1.803-.52 2.767-.009 1.338-.707 2.669-.793 4.013-.09 1.415.203 2.842.313 4.262.031.403.225.931-.039 1.182-.661.624-1.542 1.125-2.335 1.677-.123-.52-.35-1.036-.354-1.556-.029-4.017-.002-8.038-.04-12.054-.003-.347-.343-.694-.525-1.243zm307.864 61.703c-.187.75-.204 1.375-.594 1.827-.467.539-1.247.935-1.891 1.391-.088-.508-.253-1.017-.253-1.529-.032-4.117.072-8.239-.132-12.348-.043-.896-1.209-1.743-1.76-2.642-.202-.331-.313-.818-.125-1.117.587-.943 1.297-2.528 2.044-.012.122.387.716.782 1.226 1.017 2.86 1.31 2.101 3.133 1.655 5.069-.615 2.685-2.364 5.412-.17 8.344z" fill="#E7EAEE"/><path fill-rule="evenodd" clip-rule="evenodd" d="M454.173 314.606c3.3-1.279 6.548-2.347 9.266-3.916 1.569-.903 2.22-2.633 3.403-3.936.716-.79 1.657-1.468 2.496-2.194.79.94.126 1.743-.274 2.661-1.793 4.114-6.304 6.11-11.156 7.752-3.137 1.064-6.45 1.883-9.776 2.581-1.334.282-2.914-.057-4.379-.133-.167-.012-.321-.169-.482-.262.265-.178.491-.444.801-.52 2.336-.565 4.681-1.11 7.041-1.618.905-.198 1.856-.278 3.06-.415z" fill="#00160A"/><path fill-rule="evenodd" clip-rule="evenodd" d="M443.722 200.881c.182 1.107.413 2.008.529 2.917.061.469-.081.952-.131 1.428-.451-.405-1.19-.77-1.307-1.221-.694-2.664-1.261-5.345-1.832-8.026-.235-1.099-.327-2.215-.567-3.314-.708-3.242-1.461-6.479-2.178-9.72-.038-.17.108-.363.168-.546.464.467 1.201.893 1.345 1.408a354.137 354.137 0 013.062 11.785c.408 1.682.612 3.391.911 5.289z" fill="#000"/><path fill-rule="evenodd" clip-rule="evenodd" d="M381.051 94.012c1.658-4.854 3.392-9.484 7.522-13.374.208-.196.509-.34.767-.509-.015.295.067.614-.058.88a976.548 976.548 0 01-4.132 8.582 443.804 443.804 0 01-3.012 6.113c-.199.392-.555.742-.839 1.112-.193-.41-.509-.815-.544-1.232-.038-.451.185-.914.296-1.572z" fill="#00160A"/><path fill-rule="evenodd" clip-rule="evenodd" d="M329.79 219.029c-.394 2.339-1.001 4.671-1.438 7.019-.497 2.674-.721 5.377-1.29 8.041-.544 2.556-1.374 5.079-2.091 7.615-.031.111-.18.205-.274.307-.089-.174-.25-.347-.257-.522-.108-2.586.073-5.122.922-7.679 1.216-3.661 1.931-7.41 2.936-11.109.335-1.241.896-2.449 1.492-3.672z" fill="#E7EAEE"/><path fill-rule="evenodd" clip-rule="evenodd" d="M416.239 94.012v1.009c-.184-.146-.493-.275-.532-.438a907.973 907.973 0 01-2.248-9.669 713.336 713.336 0 01-1.924-8.684c-.037-.173.198-.377.306-.567.324.104.864.156.934.32.312.716.526 1.46.708 2.203.589 2.4 1.405 4.788 1.653 7.207.288 2.814 2.256 5.512 1.103 8.62zm-209.458 268.18c1.467.25 2.657.501 3.85.751-1.36.298-2.71.621-4.081.892-.656.124-1.348.192-2.029.209-2.923.072-5.848.141-8.772.133-.355-.004-.708-.488-1.061-.746.406-.145.799-.38 1.223-.415 3.528-.295 7.063-.553 10.87-.824zm263.886-33.472c-2.407.404-4.371 1.219-6.778.855-1.696-.254-3.521-.016-5.285-.072-.363-.012-.707-.344-1.061-.528.362-.085.716-.198 1.084-.247 4.13-.568 8.267-1.105 12.392-1.689 1.278-.182 2.509-.545 3.789-.694.39-.045.875.343 1.315.533-.35.14-.691.298-1.052.423a77.512 77.512 0 01-4.404 1.419zm50.986-44.058a776.883 776.883 0 019.577-4.194c.209-.089.49-.093.737-.134-.083.186-.099.408-.247.561-1.013 1.033-1.974 2.102-3.107 3.057-.605.508-1.452.984-2.314 1.185-3.233.747-6.51 1.389-9.787 2.029-.372.073-.841-.089-1.269-.145.34-.142.671-.299 1.022-.419 1.749-.617 3.497-1.226 5.388-1.94zM368.405 131.921c.322-.907.644-1.611.967-2.316.045.749.246 1.512.104 2.241-.552 2.838-1.104 5.683-1.878 8.492-.416 1.512-1.257 2.965-1.97 4.428-.092.19-.563.281-.857.417.112-.19.286-.374.326-.574.767-3.742 1.492-7.489 2.305-11.226.099-.448.658-.842 1.003-1.462zM203.624 368.948c-.161-.302-.214-.677-.201-.677 3.168-.295 6.34-.577 9.516-.828.723-.056 1.53-.14 2.178.029.754.198 1.377.665 2.057 1.012-.884.266-1.741.606-2.658.779-.854.157-1.772.209-2.653.177a171.114 171.114 0 01-8.239-.492zm147.326-206.68a9.496 9.496 0 00-.688 1.34c-.078.178-.148.357-.221.536-.109-.208-.346-.43-.309-.624.413-2.191.709-4.402 1.358-6.558.627-2.079 1.634-4.097 2.468-6.144.098-.239.166-.485.249-.728.101.223.309.452.286.668-.15 1.443-.172 2.91-.573 4.317-.679 2.385-1.609 4.73-2.57 7.193zm33.951-100.922a242.342 242.342 0 01-2.476 8.042c-.042.13-.489.19-.748.28-.092-.372-.343-.764-.254-1.11.758-2.961 1.58-5.914 2.374-8.869.051-.192-.061-.435.062-.583.508-.612 1.077-1.197 1.624-1.793-.011.663.046 1.33-.051 1.985-.093.623-.347 1.232-.531 2.048zM167.749 336.383a145.242 145.242 0 01-.069 3.065c-.001.016-.348.052-.355.041-.421-.945-1.098-1.884-1.171-2.844-.173-2.266-.081-4.549-.03-6.819.009-.372.358-.739.55-1.105.358.391 1.006.774 1.025 1.173.104 2.093.05 4.194.05 6.489zm258.249-206.781c.321 1.813.517 3.525.671 5.24.02.227-.176.465-.272.699-.088-.242-.183-.482-.26-.726-1.035-3.267-2.12-6.526-3.068-9.807-.333-1.158-.354-2.366-.46-3.553-.021-.231.225-.475.347-.712.143.216.349.421.421.649.84 2.701 1.659 5.406 2.621 8.21zm4.672 19.156c.545 2.147.955 4.195 1.361 6.242.084.419.317.866.194 1.25-.16.504-.606.959-.93 1.436-.071-.448-.101-.903-.22-1.344-.776-2.874-1.657-5.733-2.325-8.62-.333-1.436-.301-2.918-.404-4.38-.012-.171.162-.349.249-.523.129.222.309.438.381.67.53 1.72 1.041 3.445 1.694 5.269zm-10.589-41.034c.435 1.629.882 3.056 1.291 4.487.046.162-.214.368-.177.536.166.749.387 1.491.59 2.236-.698-1.048-1.704-2.047-2.024-3.153-.529-1.83-.596-3.731-.897-5.598-.301-1.867-.661-3.729-.969-5.595-.028-.17.132-.355.205-.535.11.073.3.136.32.221.563 2.398 1.11 4.798 1.661 7.401zm-58.812 48.797a292.506 292.506 0 012.209-7.639c.041-.133.234-.241.355-.359.062.182.153.363.18.547.563 3.786-1.327 7.252-2.643 10.79-.077.208-.371.372-.564.556-.212-.27-.66-.576-.597-.805.272-.975.693-1.928 1.06-3.09zm37.377-112.516c-.44-.551-.915-1.505-.718-1.587 1.084-.448 2.476-1.088 3.489-.893 1.4.269 2.556 1.222 3.815 1.882-1.542.334-3.067.725-4.636.968-.501.078-1.114-.235-1.95-.37zm38.483 133.486c-.551-.768-1.283-1.704-1.614-2.711a87.155 87.155 0 01-2.102-7.517c-.161-.698.249-1.471.427-2.205.038-.156.204-.293.31-.438.077.178.173.352.226.533.968 3.273 1.976 6.54 2.857 9.825.198.737-.058 1.539-.104 2.513zM174.343 332.752c-.264.666-.529 1.129-.794 1.593-.285-.233-.718-.431-.831-.701-.812-1.924-1.563-3.88-.545-5.884.207-.407.796-.706 1.207-1.057.32.42.888.823.919 1.25.112 1.529.044 3.065.044 4.799zM382.155 43.198c.992.61 3.49.934 1.749 1.958-1.277.751-3.594.58-5.461.715-.177.011-.646-.74-.624-1.127.016-.295.521-.703.94-.832.999-.31 2.075-.484 3.396-.714zm-18.696 81.059a111.071 111.071 0 01-2.149 5.394c-.08.184-.373.32-.567.478-.065-.238-.25-.499-.174-.709a978.375 978.375 0 013.444-9.43c.109-.295.277-.579.416-.868.194.459.657.962.532 1.367-.377 1.21-.984 2.381-1.502 3.768zm-5.498 16.938a54.928 54.928 0 01-1.658 3.722c-.098.204-.31.378-.469.566-.091-.237-.31-.493-.253-.709.458-1.711.922-3.424 1.476-5.119a36.997 36.997 0 011.476-3.776c.245-.544.735-1.028 1.114-1.54-.196.474-.462.938-.573 1.421-.4 1.741-.747 3.489-1.113 5.435zm19.381-33.774c-.46.537-.783.972-1.106 1.407-.001-.467-.104-.948.015-1.397.546-2.069 1.096-4.138 1.766-6.186.241-.728.816-1.399 1.257-2.089.074-.115.251-.193.381-.288.1.227.333.473.278.677-.466 1.687-.968 3.37-1.492 5.048a23.832 23.832 0 01-1.099 2.828zm-5.632 12.804a77.603 77.603 0 012.22-4.934c.133-.272.533-.473.811-.706-.015.275.026.559-.05.825-.984 3.458-1.983 6.915-2.988 10.371-.048.166-.193.317-.293.476-.082-.175-.252-.354-.236-.524.161-1.77.352-3.538.536-5.508zm-16.36 51.318a77.09 77.09 0 002.054-4.334c.139-.318.097-.685.275-.987.327-.554.755-1.076 1.14-1.611.081.711.443 1.481.189 2.121-.771 1.96-1.762 3.874-2.713 5.793-.166.335-.549.612-.833.915.091-.322.281-.653.242-.967-.034-.286-.317-.554-.354-.93zm-7.834-3.328c.366-.183.733-.164 1.1-.146-.602 2.305-1.197 4.61-1.812 6.913a3.18 3.18 0 01-.397.878c-.183.288-.441.551-.667.825-.012-.297-.093-.602-.024-.889.585-2.461 1.196-4.919 1.8-7.581zm-19.925 80.554c-.596 1.892-1.049 3.682-1.519 5.473-.058.221-.199.436-.302.653-.08-.242-.258-.492-.226-.721.342-2.44.707-4.881 1.112-7.315.025-.153.438-.272.671-.407.133.14.372.278.383.423a6.948 6.948 0 01-.119 1.894zm86.581-199.825c-1.027-.417-1.919-.936-2.81-1.455.702-.418 1.348-.911 2.128-1.225.428-.172 1.198-.193 1.616-.022 2.078.848 1.887 1.421-.934 2.702zm-3.985 18.049c.366 1.919.748 3.635 1.08 5.357.041.211-.179.448-.279.674-.128-.229-.226-.47-.39-.683-1.517-1.972-1.83-4.097-1.502-6.3.052-.346.212-.683.323-1.024.073.313.101.635.231.934.125.293.354.561.537 1.042zm-21.988 9.678c-.837.932-1.674 1.662-2.511 2.393.287-.935.602-1.865.853-2.804.223-.83.371-1.67.559-2.506.084-.371.185-.742.277-1.113.274.452.71.889.785 1.359.13.812.037 1.645.037 2.671zM138.612 334.367c-.075.928-.148 1.653-.221 2.379-.365-.121-.983-.186-1.058-.371-.385-.94-.781-1.907-.841-2.875-.025-.363.849-.754 1.313-1.134.626.512 1.781.9.807 2.001zm229.798-226.24c-.67 2.17-1.329 4.14-2.026 6.104-.04.117-.367.179-.561.266-.054-.185-.192-.382-.149-.554.287-1.162.546-2.332.945-3.476.316-.899.796-1.77 1.251-2.64.232-.441.572-.852.862-1.277a20.12 20.12 0 00-.322 1.577zm-15.529 73.699c-.329.498-.521.894-.714 1.292-.266-.388-.791-.791-.749-1.16.139-1.22.44-2.435.794-3.633.056-.192.707-.289 1.084-.43.09.173.28.353.258.517a27.675 27.675 0 01-.673 3.414zm55.253-125.42c.412 1.092.712 2.08.94 3.078.043.188-.194.41-.302.616-.075-.175-.141-.352-.227-.524-.542-1.087-1.088-2.173-1.634-3.26a5.515 5.515 0 011.223.09zM377.892 76.57c.122-.29.38-.48.639-.67.194.663.554 1.33.535 1.99-.015.524-.455 1.054-.773 1.56-.255.41-.607.786-.916 1.177.013-.498-.034-1 .056-1.491.153-.826.393-1.643.459-2.566zm156.129 272.819c.775-.367 1.379-.778 2.061-.871.841-.114 1.749.039 2.622.076-.648.133-1.363.186-1.934.423-.815.339-1.518.815-2.272 1.231-.207-.25-.411-.504-.477-.859zm-408.19-21.879c-.096.138-.302.343-.565.392-1.361.262-2.737.483-4.106.722.035-.097.046-.262.11-.274a190.99 190.99 0 014.561-.84zm.276.162c.007-.165.13-.452.298-.477 1.086-.159 2.182-.268 3.276-.383.019-.005.053.11.081.165-1.173.233-2.345.466-3.655.695zm178.689 1.049c.596.802.605 1.608.616 2.411-.4-.803-.801-1.609-.616-2.411zm-144.243 4.838a23.875 23.875 0 01-.268 1.525c-.321-.21-.981-.447-.896-.621.188-.387.752-.738 1.164-.904zm382.135 31.692c-.945.214-1.892.232-2.831.197-.154 0-.297-.24-.446-.37.215-.154.44-.463.65-.445.879.086 1.753.266 2.627.618zM427.924 139.684c.518.35.865.801 1.211 1.252-.22.026-.618.093-.635.07-.276-.4-.509-.812-.576-1.322zM372.26 95.221c.268-.516.535-.833.804-1.148.128.118.405.274.364.35-.289.52-.644 1.023-.976 1.533a3.552 3.552 0 01-.192-.735zM137.649 325.192c.375-.005.613.107.852.22-.723.217-1.445.427-2.168.638.157-.161.287-.358.478-.481.203-.122.465-.172.838-.377zm26.938-22.026c1.131-.044 2.124.12 3.118.283-1.086-.017-2.171-.043-3.118-.283zm286.289 25.555c.126-.242.306-.347.368-.32.622.295 1.224.609 1.832.92-.733-.133-1.466-.266-2.2-.6zm-268.151 31.68c.402-.215.673-.266.932-.198.548.13 1.091.318 1.636.482-.587.119-1.172.309-1.759.335-.313.017-.631-.258-.809-.619zm46.739-60.25c-.137-.069-.168-.196-.133-.209a41.515 41.515 0 011.847-.649c.047-.013.191.161.291.248-.622.204-1.244.409-2.005.61zm-48.532-8.696l.518 2.397c.08.366.292.827.579 1.291l.484.304c.286.174.332.165.491.132l.161-.013.14-.025.644-.156 1.496-.353-1.597-1.284-2.916-2.293zM684.66 396.428c.539-.228 1.215-.457 1.892-.687-.083.306-.16.857-.242.857-.506.017-1.006-.101-1.65-.17zM451.281 257.844c.399-.052.636-.008.63.037-.065.479-.167.96-.259 1.443-.316-.153-.859-.302-.898-.464-.073-.298.15-.609.527-1.016zm-61.565 180.48c.483.102.83.42 1.176.738l-2.029.077a6.87 6.87 0 00.853-.815zm384.276.317c-.402.214-.677.266-.934.206-.551-.129-1.09-.318-1.634-.49.583-.119 1.172-.309 1.759-.326.308-.017.627.258.809.61z" fill="#00160A"/></svg>