<svg width="67" height="20" fill="none" xmlns="http://www.w3.org/2000/svg"><path d="M0 6.636h13.376c7.33 0 13.272 5.943 13.272 13.273H13.272C5.942 19.909 0 13.966 0 6.636z" fill="#fff"/><path fill-rule="evenodd" clip-rule="evenodd" d="M27.452 14.267a20.044 20.044 0 00-.805 5.641h20.322c8.971 0 16.547-6.02 18.962-14.267.524-1.788.805-3.682.805-5.641H46.414c-8.971 0-16.547 6.02-18.962 14.267zm5.947 0c2.17-5.074 7.181-8.626 13.015-8.626h13.57c-2.17 5.074-7.181 8.626-13.015 8.626h-13.57z" fill="#fff"/></svg>