<svg width="316" height="86" viewBox="0 0 316 86" fill="none" xmlns="http://www.w3.org/2000/svg">
<path fill-rule="evenodd" clip-rule="evenodd" d="M287.128 0.69083C282.992 1.18562 279.826 2.10454 276.574 3.75376C270.573 6.79745 265.869 11.5406 262.943 17.4982C262.611 18.1735 262.301 18.7129 262.254 18.697C262.207 18.6813 261.968 18.0855 261.723 17.3732C260.865 14.8838 259.804 13.1243 258.153 11.4535C255.657 8.92683 251.95 7.15124 247.681 6.43741C246.115 6.17553 242.552 6.19949 240.734 6.48408C237.932 6.92247 235.681 7.62774 233.311 8.8097C229.899 10.5107 227.157 12.7334 225.218 15.3681C223.688 17.4465 222.717 19.6081 222.035 22.4543C221.918 22.944 221.789 23.3445 221.748 23.3445C221.707 23.3445 221.491 23.0305 221.267 22.6468C219.987 20.4566 218.774 18.89 217.076 17.2327C215.195 15.3972 213.354 14.1142 210.851 12.8949C203.721 9.42036 195.243 9.53643 187.393 13.2161C185.611 14.051 182.954 15.7147 181.445 16.941C177.888 19.8296 175.335 22.9881 173.205 27.1359C172.354 28.795 172.512 28.8055 171.915 27.0499C170.564 23.0768 168.011 20.1572 164.219 18.249C160.762 16.509 157.101 15.7726 153.205 16.0332C148.395 16.3549 144.337 17.729 140.497 20.3357C137.333 22.4832 135.246 24.8825 133.53 28.3443C133.209 28.9934 132.93 29.5089 132.911 29.4898C132.892 29.4709 132.765 29.0007 132.627 28.4451C131.694 24.6631 130.283 22.3067 128.026 20.7586C124.898 18.6126 120.281 18.2459 115.721 19.781C113.568 20.5059 111.928 21.5238 110.483 23.0334C109.093 24.4843 108.306 25.8059 107.41 28.1943C106.961 29.3917 106.884 29.538 106.81 29.3291C106.661 28.9053 105.668 26.9724 105.323 26.4362C103.745 23.9775 101.518 22.4838 98.5765 21.9096C95.2547 21.2613 91.2646 21.803 88.3099 23.3032C86.1981 24.3756 84.846 25.6152 83.3611 27.8404C83.0981 28.2347 82.8637 28.5379 82.8402 28.5141C82.8168 28.4904 82.688 28.0647 82.5542 27.568C82.1168 25.9452 81.5109 25.1042 80.3732 24.5414C79.3124 24.0165 79.3876 24.0137 71.4791 24.8763C67.5273 25.3074 64.0968 25.7252 63.8557 25.8047C63.2614 26.0008 62.6696 26.3966 62.1359 26.9549L61.6909 27.4205L61.3495 27.157C60.8639 26.7825 60.0559 26.4278 59.4684 26.3312C59.0702 26.2658 57.4199 26.4165 51.6009 27.0496L44.2372 27.8507L43.543 28.1977C42.7385 28.5998 42.1262 29.2263 41.7199 30.0631L41.4539 30.6109V41.884V53.1572L40.7416 53.2583C40.3498 53.3138 40.0225 53.3515 40.0143 53.3418C39.9901 53.3136 36.4159 41.0482 35.9847 39.5138C35.1185 36.4312 34.0938 34.4888 32.5124 32.9318C30.1811 30.6364 26.6488 29.68 22.5229 30.227C17.5552 30.8855 14.1064 33.2505 12.0907 37.3809C11.4601 38.6732 11.1279 39.6767 10.4296 42.4006C10.0971 43.6975 8.04148 51.4282 5.86149 59.58C3.68149 67.7318 1.66053 75.2892 1.37046 76.3743C0.777759 78.5908 0.748066 79.0944 1.14748 80.1553C1.43222 80.9115 2.22458 81.7675 2.99125 82.1471C4.13677 82.7142 3.90485 82.7206 11.3335 81.9161C15.0236 81.5164 18.298 81.1416 18.61 81.0829C19.7586 80.8673 20.8098 80.0998 21.3621 79.0736C21.5505 78.7235 21.7669 77.8799 22.1831 75.8743C22.4939 74.3761 22.7722 73.0511 22.8013 72.9297C22.8517 72.7204 22.8915 72.7107 23.5858 72.7372L24.3172 72.7653L24.8277 75.0251C25.1084 76.268 25.4425 77.5079 25.5701 77.7806C26.1107 78.9362 27.4216 79.8337 28.6805 79.9102C29.3927 79.9534 42.3633 78.5957 43.2145 78.3888C44.2351 78.1407 45.2886 77.2386 45.7633 76.2063C45.9568 75.7856 46.0264 75.4639 46.0531 74.8668C46.0854 74.1471 46.0467 73.938 45.594 72.3817C45.3221 71.447 45.1218 70.6599 45.1489 70.6326C45.1759 70.6052 45.7412 71.0453 46.405 71.6106C48.9335 73.764 51.3703 75.0327 54.536 75.8442C56.4272 76.329 57.1943 76.4139 59.7259 76.4183C62.7446 76.4236 64.4078 76.2011 67.0034 75.4445C70.7663 74.3478 74.3096 72.2739 77.1781 69.4895C78.2619 68.4376 78.1528 68.4055 78.3276 69.8269C78.5078 71.2927 79.2358 72.399 80.4172 73.0021C81.5356 73.573 81.3256 73.5797 89.1335 72.7256C93.402 72.2586 96.3439 71.8954 96.601 71.8037C98.0408 71.2899 98.8742 70.256 99.278 68.4823C99.3865 68.006 99.5059 67.6163 99.5435 67.6163C99.581 67.6163 99.8172 67.8993 100.068 68.2452C101.565 70.3059 102.971 71.1838 105.234 71.4685C106.903 71.6785 109.57 71.2257 111.003 70.4893C112.437 69.7515 113.595 68.5413 114.554 66.7756C114.704 66.4985 114.849 66.2717 114.875 66.2716C114.901 66.2716 115.111 66.6262 115.342 67.0596C116.11 68.5049 117.239 69.3291 118.572 69.418C119.315 69.4676 132.336 68.0822 133.134 67.8689C133.617 67.7396 133.67 67.7441 134.145 67.9565C135.213 68.4342 135.053 68.4407 142.759 67.6106C146.659 67.1907 150.042 66.8006 150.277 66.7437C151.033 66.5611 151.51 66.289 152.13 65.6869L152.736 65.0983L153.386 65.4944C154.158 65.9653 154.795 66.1727 155.471 66.1727C155.744 66.1727 159.134 65.8279 163.006 65.4067C168.611 64.7966 170.154 64.5992 170.582 64.4372C171.589 64.0559 172.429 63.1929 172.865 62.0914C173.054 61.6135 173.058 61.4483 173.031 55.5138C173.015 52.1657 173.039 49.4277 173.084 49.4295C173.128 49.4311 173.588 50.0592 174.104 50.8252C178.128 56.7934 183.707 60.3278 190.979 61.5161C192.448 61.7561 196.158 61.8043 197.861 61.6055C204.5 60.8302 210.623 57.8762 215.485 53.102C217.498 51.1259 219.055 49.1098 220.628 46.443C221.049 45.7283 221.452 45.0802 221.523 45.0027C221.632 44.8837 221.653 45.6358 221.653 49.8212C221.653 55.0794 221.686 55.5672 222.097 56.3889C222.392 56.9758 223.067 57.7174 223.59 58.0265C224.108 58.3331 224.914 58.5695 225.441 58.5695C226.254 58.5695 240.01 57.0247 240.383 56.8915C241.047 56.6547 241.386 56.4355 241.977 55.8612L242.556 55.2995L242.882 55.5499C243.061 55.6876 243.427 55.9039 243.694 56.0307C244.734 56.5239 244.587 56.5299 252.408 55.6809C256.351 55.253 259.748 54.8577 259.957 54.8024C260.579 54.6385 261.406 54.1445 261.822 53.6889C262.035 53.4545 262.346 52.9732 262.511 52.6197L262.812 51.9768V45.7932C262.812 42.3923 262.834 39.6096 262.86 39.6096C262.886 39.6097 263.293 40.1828 263.764 40.8833C264.925 42.6087 266.055 43.9882 267.27 45.1601C273.255 50.9339 281.776 53.2291 290.394 51.389C294.97 50.4119 299.412 48.2737 303.165 45.2423C304.438 44.214 306.792 41.8259 307.804 40.5372C310.98 36.49 312.957 31.9589 313.647 27.1461C313.88 25.5168 313.877 22.2671 313.64 20.6978C312.903 15.8242 310.844 11.5831 307.547 8.14842C303.716 4.1577 299.168 1.82284 293.361 0.865607C292.448 0.715083 287.973 0.589678 287.128 0.69083ZM293.028 3.95491C302.46 5.34505 309.541 12.391 310.579 21.4218C311.375 28.3375 308.748 35.3973 303.362 40.815C300.215 43.9818 296.671 46.1707 292.486 47.5335C289.845 48.3935 287.547 48.7527 284.685 48.7527C282.686 48.7527 281.257 48.6033 279.534 48.2141C273.455 46.8407 268.354 42.9192 265.714 37.5885C264.266 34.665 263.675 32.0677 263.677 28.6379C263.679 26.4067 263.821 25.2329 264.335 23.2002C264.959 20.7319 266.054 18.2538 267.51 16.0161C268.597 14.3452 269.3 13.4656 270.756 11.9529C275.059 7.48492 280.885 4.54642 286.699 3.9117C287.223 3.85453 287.801 3.78976 287.984 3.76782C288.711 3.68052 291.992 3.80237 293.028 3.95491ZM248.056 9.67204C250.033 10.0757 252.43 11.0081 253.83 11.9183C257.067 14.0232 258.84 17.0124 259.434 21.3715C259.53 22.0784 259.752 51.5277 259.662 51.63C259.599 51.7016 244.764 53.2935 244.706 53.2349C244.674 53.2028 244.617 46.7567 244.579 38.9102C244.534 29.3616 244.478 24.5371 244.411 24.3211C244.133 23.4305 243.41 22.9937 242.355 23.0794C241.229 23.1707 240.298 23.9359 240.014 25.0027C239.94 25.2806 239.93 29.4533 239.98 39.6001L240.049 53.8081L232.73 54.6038C228.705 55.0414 225.321 55.3981 225.211 55.3964L225.01 55.3935L224.941 40.8367C224.869 25.5776 224.874 25.2751 225.279 23.2483C226.294 18.1736 229.418 14.325 234.698 11.6473C237.012 10.4736 239.318 9.80717 242.304 9.44924C242.487 9.4272 243.622 9.42056 244.826 9.43432C246.637 9.45501 247.195 9.49601 248.056 9.67204ZM202.103 13.6312C206.317 14.0506 210.438 15.7046 213.563 18.2305C214.405 18.911 215.846 20.3528 216.53 21.1996C220.257 25.8124 221.645 31.8017 220.417 37.9735C218.957 45.3145 213.768 51.979 206.653 55.6533C203.894 57.0782 201.342 57.892 198.051 58.3972C196.765 58.5946 192.64 58.5633 191.342 58.3464C187.445 57.6952 184.104 56.269 181.302 54.06C173.695 48.0641 171.622 37.7233 176.169 28.4503C179.603 21.4467 186.058 16.2291 193.674 14.3008C196.404 13.6093 199.451 13.3673 202.103 13.6312ZM287.268 18.629C282.879 19.1042 279.233 22.9717 279.229 27.1548C279.228 29.0033 279.841 30.5099 281.13 31.822C281.807 32.5109 282.092 32.7226 282.845 33.0971C284.157 33.7488 284.74 33.8817 286.271 33.8789C287.302 33.877 287.714 33.8334 288.358 33.658C293.59 32.234 296.576 26.6399 294.418 22.3059C293.17 19.801 290.261 18.3049 287.268 18.629ZM157.082 19.3143C159.34 19.5722 162.219 20.5805 163.992 21.7347C167.286 23.8787 169.106 27.0419 169.597 31.4771C169.654 31.9938 169.718 38.212 169.755 46.8917L169.818 61.4402L169.398 61.4999C168.971 61.5604 154.977 63.0929 154.85 63.0929C154.812 63.0929 154.754 56.6723 154.72 48.8249C154.676 38.7082 154.626 34.4448 154.55 34.1719C154.312 33.3146 153.705 32.8786 152.745 32.8747C151.97 32.8716 151.359 33.1174 150.842 33.6402C149.99 34.5013 150.052 33.1894 150.096 49.3722L150.135 63.615L142.686 64.4264C138.589 64.8727 135.215 65.2163 135.189 65.19C135.163 65.1637 135.132 58.2821 135.12 49.8976L135.098 34.6531L135.314 33.5048C136.327 28.1035 139.48 24.128 144.9 21.4176C148.618 19.5589 152.839 18.83 157.082 19.3143ZM315.057 20.1204C315.091 20.3321 315.14 20.6186 315.165 20.7571C315.29 21.4384 315.358 24.038 315.285 25.3552C314.968 31.1446 312.778 36.7224 308.916 41.5806C303.964 47.8083 296.82 51.9513 288.888 53.1957C287.289 53.4465 283.468 53.5447 281.835 53.3772C276.85 52.8655 272.14 51.0418 268.479 48.2052C266.918 46.9964 266.883 46.9784 267.761 47.8369C271.122 51.1236 275.515 53.4736 280.079 54.426C281.837 54.7929 282.946 54.9186 284.945 54.978C287.883 55.0653 290.261 54.7962 293.171 54.0475C303.336 51.432 311.815 43.3631 314.775 33.4867C315.999 29.4017 316.188 24.8514 315.303 20.7506C315.105 19.8345 314.943 19.4192 315.057 20.1204ZM289.17 21.8559C291.168 22.3823 292.254 24.0883 291.893 26.1335C291.557 28.0367 290.118 29.7116 288.127 30.5182C287.569 30.7442 287.282 30.7949 286.366 30.8299C285.423 30.8659 285.187 30.8427 284.661 30.6627C283.148 30.1447 282.311 29.0677 282.205 27.5017C282.094 25.8481 282.912 24.1735 284.398 23.0142C285.793 21.9264 287.69 21.466 289.17 21.8559ZM123.524 22.2383C125.014 22.5881 126.181 23.241 127.162 24.2742C128.282 25.4522 128.905 26.7248 129.348 28.7341C129.511 29.4731 132.837 64.698 132.751 64.7724C132.699 64.8174 118.191 66.3823 118.156 66.3467C118.138 66.3287 117.841 61.6806 117.496 56.0175C117.15 50.3545 116.837 45.5532 116.799 45.348C116.742 45.0356 116.432 46.3012 114.887 53.1437C112.941 61.7622 112.427 63.7867 111.883 64.9766C111.474 65.8735 110.817 66.8198 110.361 67.1716C109.514 67.8254 108.299 68.2119 106.691 68.3399C104.081 68.5475 102.711 67.4092 101.649 64.1516C101.41 63.4161 98.8144 52.9907 97.5951 47.8655C97.4475 47.2452 97.3144 46.7502 97.2994 46.7653C97.2844 46.7805 97.0115 51.7267 96.693 57.7568C96.3746 63.7869 96.0984 68.7363 96.0795 68.7555C96.0291 68.8065 81.5263 70.3873 81.4803 70.3468C81.3942 70.2713 84.4437 34.416 84.611 33.5361C85.4822 28.9535 88.2439 26.0294 92.5502 25.1298C94.3152 24.7611 96.6654 24.7181 98.1214 25.0278C100.243 25.4792 101.823 26.5992 102.925 28.4336C103.606 29.5686 103.702 29.8846 106.129 39.0067C106.569 40.6602 106.952 42.0137 106.98 42.0143C107.008 42.0151 107.71 39.298 108.54 35.9764C109.37 32.6549 110.176 29.569 110.332 29.1191C111.782 24.9236 114.723 22.7034 119.634 22.0974C120.663 21.9704 122.696 22.044 123.524 22.2383ZM286.782 23.4207C284.633 24.192 283.225 26.3858 283.838 28.0089C284.083 28.6572 284.22 28.7148 284.361 28.2282C284.99 26.0558 287.755 24.2644 289.84 24.678C290.101 24.7298 290.333 24.7548 290.354 24.7335C290.375 24.7121 290.268 24.4907 290.115 24.2414C289.71 23.5788 289.134 23.3039 288.082 23.2709C287.487 23.2522 287.14 23.2923 286.782 23.4207ZM79.2217 29.7687C79.2545 31.1318 79.2888 37.8772 79.2981 44.7586C79.3163 58.306 79.3251 58.0305 78.8008 60.1267C77.6281 64.8151 74.689 68.3437 69.8352 70.8906C67.0649 72.3444 64.2272 73.1127 61.0107 73.2799C59.3256 73.3676 57.4093 73.2596 56.1096 73.0038C53.9147 72.5719 51.4313 71.5383 49.8432 70.3959C48.9145 69.7279 47.5297 68.3244 46.9581 67.472C45.7138 65.6161 44.9661 63.2871 44.7473 60.5856C44.6913 59.8943 44.6248 53.3961 44.59 45.223L44.5298 31.0583L44.9427 31.0005C45.843 30.8744 59.5134 29.4015 59.5395 29.4279C59.5547 29.4433 59.5952 35.8008 59.6293 43.5556C59.6686 52.4956 59.727 57.8435 59.7887 58.1699C59.905 58.7852 60.3717 59.3663 60.8876 59.5385C61.3668 59.6984 62.4009 59.6046 62.8786 59.3579C63.3933 59.0921 63.99 58.3975 64.1505 57.8774C64.2558 57.5362 64.2714 55.2544 64.2387 44.9992C64.2167 38.1443 64.1988 31.7143 64.1988 30.7104V28.8849L71.3363 28.0986C75.262 27.6661 78.6287 27.3073 78.8179 27.3014L79.1619 27.2905L79.2217 29.7687ZM197.177 28.4467C196.202 28.6027 195.448 28.8381 194.543 29.2699C191.189 30.8693 188.997 34.4566 189.398 37.6892C189.606 39.3722 190.123 40.4495 191.292 41.6388C192.315 42.6803 193.391 43.2614 194.863 43.5692C198.592 44.3487 202.725 42.1707 204.478 38.5028C205.009 37.3913 205.184 36.7133 205.254 35.5104C205.475 31.6757 202.595 28.6059 198.588 28.4039C198.109 28.3799 197.475 28.399 197.177 28.4467ZM199.978 31.8039C200.705 32.0911 201.49 32.8247 201.824 33.528C202.031 33.9657 202.092 34.2516 202.124 34.952C202.195 36.4708 201.715 37.6384 200.527 38.8407C198.081 41.3141 194.194 41.2649 192.827 38.7434C192.513 38.1656 192.485 38.0444 192.452 37.1554C192.423 36.3564 192.453 36.0867 192.626 35.5674C193.212 33.804 194.599 32.4433 196.477 31.787C197.176 31.5427 197.338 31.5223 198.337 31.5536C199.187 31.5801 199.553 31.636 199.978 31.8039ZM197.203 33.1159C196.009 33.4539 194.793 34.4715 194.254 35.5839C193.87 36.3768 193.799 36.9302 193.995 37.6094C194.221 38.3976 194.357 38.4539 194.569 37.8478C194.908 36.8781 195.755 35.8457 196.715 35.2333C197.717 34.5934 199.258 34.2643 200.131 34.5039C200.358 34.5665 200.568 34.5937 200.597 34.5645C200.626 34.5353 200.524 34.3057 200.37 34.0544C199.829 33.1682 198.455 32.7613 197.203 33.1159ZM25.9416 33.3617C27.7713 33.583 29.3701 34.3547 30.4734 35.549C31.493 36.6528 32.1088 37.8932 32.7043 40.0427C33.2765 42.1079 35.2979 49.0816 39.2198 62.5211C41.2623 69.5204 42.9217 75.2587 42.9074 75.273C42.8455 75.3349 28.363 76.8823 28.3136 76.8323C28.2835 76.8019 27.1497 71.8512 25.794 65.8309C24.4384 59.8106 23.3168 54.8724 23.3018 54.8571C23.2867 54.8419 22.2019 60.0343 20.8909 66.396L18.5076 77.9625L11.2001 78.7634C7.18088 79.204 3.87154 79.5433 3.84594 79.5174C3.82034 79.4915 4.98443 75.0166 6.43277 69.5732C11.5468 50.353 13.1331 44.3551 13.5572 42.6371C14.2208 39.9488 14.8519 38.4243 15.8378 37.1285C17.5737 34.8471 19.9492 33.6834 23.61 33.3213C24.3378 33.2493 25.1253 33.2629 25.9416 33.3617ZM264.311 48.079C264.334 51.8709 264.329 51.9952 264.124 52.6546C263.754 53.8449 262.776 55.0847 261.718 55.7053C260.779 56.2562 260.456 56.3085 253.008 57.119C249.082 57.5462 245.57 57.8953 245.205 57.8946C244.516 57.8935 243.75 57.7296 243.141 57.4533L242.789 57.2933L242.264 57.6459C241.536 58.1346 240.694 58.4329 239.687 58.5598C239.216 58.619 235.833 58.9928 232.169 59.39C226.362 60.0198 225.421 60.1005 224.841 60.019C224.113 59.9168 223.614 59.7599 222.988 59.4372L222.581 59.2274L222.902 59.683C223.73 60.8585 225.182 61.583 226.693 61.5741C227.46 61.5696 240.354 60.1868 241.296 60.008C242.043 59.8663 242.719 59.5517 243.326 59.0632L243.826 58.662L244.3 58.9053C244.929 59.2273 245.746 59.4357 246.381 59.4357C246.664 59.4357 250.092 59.0877 253.998 58.6625C259.183 58.0981 261.256 57.8376 261.681 57.6968C263.345 57.1452 264.527 55.6976 264.779 53.9017C264.855 53.3556 264.865 51.9139 264.814 48.9429L264.742 44.754L264.514 44.4676L264.286 44.1811L264.311 48.079ZM219.449 50.9411C217.223 53.903 214.005 56.7655 210.591 58.818C203.314 63.1938 194.693 64.4175 187.012 62.1647C183.326 61.0836 179.554 58.9741 176.975 56.552L176.408 56.019L176.975 56.6846C177.957 57.8355 179.802 59.4174 181.492 60.5573C183.665 62.0225 186.303 63.2094 188.948 63.9115C198.071 66.3342 208.213 63.8063 215.8 57.2188C216.863 56.2958 218.838 54.247 219.63 53.2464L220.225 52.4947L220.217 51.7546C220.212 51.3475 220.18 50.8082 220.145 50.5561L220.082 50.0979L219.449 50.9411ZM174.526 58.0401C174.497 62.0467 174.495 62.0875 174.269 62.6598C173.747 63.9821 172.848 64.9962 171.67 65.5931C171.267 65.7975 170.71 66.0104 170.433 66.0661C170.156 66.1219 166.696 66.5189 162.744 66.9483C154.809 67.8105 154.789 67.8113 153.525 67.2919L152.954 67.0574L152.639 67.2963C152.18 67.6438 151.533 67.963 150.939 68.1342C150.654 68.2166 147.208 68.6353 143.283 69.0646C135.602 69.9044 135.126 69.9292 134.051 69.5453C133.737 69.433 133.381 69.366 133.261 69.3963C132.653 69.5487 118.871 70.9876 118.492 70.9384C117.191 70.7693 116.171 70.3339 115.394 69.6166L114.903 69.1629L114.367 69.7762C113.046 71.2887 111.064 72.3505 108.738 72.7914C107.417 73.042 104.704 73.0113 103.693 72.7344C102.702 72.4629 101.56 71.89 100.752 71.2591C100.171 70.8059 100.096 70.7719 100.011 70.925C99.7446 71.4062 99.0512 72.1298 98.477 72.5258C97.2975 73.3389 97.3854 73.3226 89.6732 74.1669C85.8356 74.587 82.4079 74.9308 82.056 74.9308C81.2465 74.9308 80.4552 74.7298 79.6516 74.3199L79.0212 73.9985L79.22 74.3443C79.5627 74.9406 80.3797 75.668 81.1125 76.0294C82.4013 76.6649 82.1995 76.67 90.2076 75.7966C94.1177 75.3701 97.4872 74.9749 97.6952 74.9184C98.2592 74.765 99.0711 74.3216 99.545 73.9081C100.023 73.491 100.647 72.5645 100.802 72.043L100.906 71.691L101.636 72.4206C103.172 73.9565 104.728 74.5462 107.244 74.5454C111.058 74.5443 113.879 73.2371 115.58 70.6826L115.896 70.208L116.253 70.6814C116.957 71.6146 118.105 72.2854 119.29 72.4569C119.89 72.5436 120.747 72.4703 126.819 71.8131C130.587 71.4052 133.885 71.0301 134.147 70.9795C134.556 70.9003 134.715 70.9207 135.289 71.1267C135.784 71.3044 136.15 71.3661 136.716 71.3672C137.603 71.3689 151.284 69.8852 151.848 69.7261C152.414 69.5662 153.259 69.0877 153.597 68.7344L153.896 68.4227L154.537 68.7406C155.82 69.3767 155.675 69.38 163.421 68.5429C167.21 68.1334 170.654 67.7412 171.074 67.6712C172.813 67.3818 174.174 66.2201 174.73 64.5527C174.917 63.991 174.926 63.7572 174.924 59.2222C174.922 54.691 174.913 54.4684 174.738 54.2385C174.557 53.9998 174.555 54.0291 174.526 58.0401ZM76.9021 71.8048C76.7332 72.0105 74.8903 73.3679 74.1156 73.8572C72.2569 75.0311 70.4435 75.8975 68.4337 76.5718C62.9081 78.426 56.9007 78.4432 51.9222 76.6192C50.8477 76.2256 49.0825 75.389 48.2596 74.8835C47.9574 74.6978 47.6835 74.5458 47.651 74.5458C47.6187 74.5458 47.593 74.6865 47.594 74.8586C47.5957 75.1298 47.6751 75.2305 48.1904 75.6158C50.3112 77.2016 53.3212 78.5254 56.1569 79.1196C58.7426 79.6614 62.2108 79.6938 65.198 79.204C69.6059 78.4813 73.9317 76.506 77.353 73.6538L78.0402 73.0808L77.7707 72.6825C77.6226 72.4634 77.43 72.1434 77.3428 71.9713C77.1661 71.6229 77.0785 71.5898 76.9021 71.8048ZM47.5488 75.5564C46.9837 77.9327 45.4876 79.4609 43.3096 79.8863C42.9171 79.963 39.5029 80.3589 35.7226 80.7662L28.8495 81.5067L28.0617 81.3513C27.5767 81.2556 26.9921 81.0509 26.5403 80.8186L25.8066 80.4413L25.9574 80.7362C26.1747 81.1612 26.9864 82.0008 27.4993 82.3313C28.1998 82.7825 29.0142 83.0152 29.8932 83.0152C31.1516 83.0152 43.9204 81.5969 44.6619 81.3747C45.93 80.9948 47.1129 79.8845 47.5976 78.6192C47.8704 77.907 47.9478 76.4588 47.751 75.7489C47.6199 75.2765 47.6162 75.2729 47.5488 75.5564ZM23.305 77.8654C22.9714 79.4487 22.6203 80.1678 21.7474 81.055C20.9997 81.815 20.066 82.3405 19.1372 82.5239C18.8493 82.5807 15.5946 82.9563 11.9045 83.3585C4.4591 84.17 3.97547 84.1914 2.85192 83.7576C2.50523 83.6238 2.04015 83.3984 1.81841 83.2568L1.41519 82.9994L1.63978 83.4051C2.3404 84.6708 4.09205 85.71 5.5245 85.71C5.76213 85.71 9.10421 85.3656 12.9513 84.9446C20.4772 84.1211 20.5828 84.1028 21.565 83.4434C22.727 82.6634 23.2616 81.6805 23.7025 79.5144L23.9939 78.0828L23.8258 77.3735C23.7333 76.9835 23.6353 76.664 23.608 76.6637C23.5807 76.6635 23.4444 77.2042 23.305 77.8654Z" fill="white"/>
</svg>
