<svg width="155" height="220" viewBox="0 0 155 220" fill="none" xmlns="http://www.w3.org/2000/svg">
<path fill-rule="evenodd" clip-rule="evenodd" d="M112.195 3.179C111.379 4.88161 106.945 14.1627 102.341 23.8038C97.7373 33.4448 93.9286 41.3764 93.8772 41.4295C93.8259 41.4826 90.2355 36.5647 85.8987 30.5007C81.5618 24.4369 77.9759 19.5191 77.9302 19.5723C77.8844 19.6254 77.4332 20.7309 76.9275 22.0289C76.4217 23.3269 75.9681 24.4368 75.9196 24.4955C75.871 24.554 74.5357 22.9037 72.9521 20.828C71.3686 18.7523 70.0336 17.0539 69.9854 17.0539C69.9371 17.0539 69.7541 17.47 69.5787 17.9787C63.8185 34.6782 0.795439 219.168 0.821786 219.253C0.847658 219.337 72.4634 83.9868 77.1689 74.9619C77.2692 74.7695 78.4904 76.2737 85.0534 84.6738C89.3246 90.1406 92.8493 94.6111 92.8862 94.6083C92.923 94.6055 96.8468 88.1188 101.606 80.1934C106.364 72.2681 110.295 65.7837 110.34 65.7837C110.384 65.7837 120.397 81.7852 132.59 101.342C144.783 120.9 154.778 136.925 154.802 136.954C154.825 136.984 154.87 136.979 154.902 136.945C154.948 136.895 142.414 89.411 120.582 6.9289C119.983 4.66666 119.894 4.4197 119.748 4.63273C119.659 4.764 118.995 6.03378 118.272 7.4546C117.55 8.87542 116.925 10.0378 116.882 10.0378C116.84 10.0378 116.141 7.82402 115.329 5.11837C114.517 2.41272 113.814 0.173059 113.766 0.141168C113.718 0.109404 113.011 1.47639 112.195 3.179ZM129.2 61.881C137.953 90.991 145.096 114.829 145.073 114.854C145.05 114.879 137.153 100.651 127.524 83.2359C117.895 65.8209 109.97 51.5552 109.912 51.5344C109.771 51.4843 107.782 54.8146 107.808 55.0557C107.822 55.1809 90.9278 83.4828 90.2348 84.4961C90.2258 84.5092 87.0419 79.1591 83.1596 72.6069C79.2772 66.0546 76.064 60.6909 76.019 60.6873C75.9741 60.6839 75.5613 61.4671 75.1017 62.4278C74.3898 63.9156 74.2892 64.2041 74.4226 64.3732C75.4598 65.6887 78.1015 69.1809 77.8027 68.8416C77.5846 68.5939 76.7192 67.5117 75.8795 66.4364L74.3528 64.4814L73.6762 65.8661C73.3041 66.6275 59.6026 95.0343 43.2284 128.992C26.8542 162.95 13.4137 190.787 13.3608 190.853C13.2419 191 9.09345 202.465 43.4051 107.816C59.6067 63.124 72.9005 26.45 72.9468 26.3189C73.0137 26.129 75.0035 28.6625 82.6954 38.7319C88.0108 45.6903 92.3788 51.4756 92.4019 51.5883C92.4686 51.9129 94.5768 54.5869 94.6746 54.4711C94.7231 54.4136 98.8951 44.1087 103.946 31.5713C108.996 19.0338 113.164 8.81584 113.207 8.8647C113.25 8.91356 120.447 32.7709 129.2 61.881ZM78.5337 69.6744C78.687 69.8498 78.7858 69.9933 78.7532 69.9933C78.7205 69.9933 78.5684 69.8498 78.415 69.6744C78.2617 69.499 78.163 69.3555 78.1956 69.3555C78.2282 69.3555 78.3804 69.499 78.5337 69.6744ZM79.1271 70.4398C79.2804 70.6152 79.3792 70.7587 79.3465 70.7587C79.3139 70.7587 79.1618 70.6152 79.0084 70.4398C78.8551 70.2644 78.7564 70.1209 78.789 70.1209C78.8216 70.1209 78.9738 70.2644 79.1271 70.4398ZM79.7205 71.2052C79.8738 71.3806 79.9726 71.5241 79.9399 71.5241C79.9073 71.5241 79.7552 71.3806 79.6018 71.2052C79.4485 71.0298 79.3498 70.8863 79.3824 70.8863C79.415 70.8863 79.5672 71.0298 79.7205 71.2052ZM80.3139 71.9706C80.4672 72.146 80.566 72.2895 80.5333 72.2895C80.5007 72.2895 80.3485 72.146 80.1952 71.9706C80.0419 71.7952 79.9431 71.6517 79.9758 71.6517C80.0084 71.6517 80.1606 71.7952 80.3139 71.9706ZM80.9073 72.736C81.0606 72.9114 81.1594 73.0549 81.1267 73.0549C81.0941 73.0549 80.9419 72.9114 80.7886 72.736C80.6353 72.5606 80.5365 72.4171 80.5692 72.4171C80.6018 72.4171 80.754 72.5606 80.9073 72.736ZM81.56 73.5652C81.6781 73.7055 81.7481 73.8203 81.7155 73.8203C81.6829 73.8203 81.5594 73.7055 81.4413 73.5652C81.3233 73.4248 81.2532 73.31 81.2859 73.31C81.3185 73.31 81.4419 73.4248 81.56 73.5652ZM82.1534 74.3306C82.2715 74.4709 82.3415 74.5857 82.3089 74.5857C82.2762 74.5857 82.1528 74.4709 82.0347 74.3306C81.9166 74.1902 81.8466 74.0754 81.8793 74.0754C81.9119 74.0754 82.0353 74.1902 82.1534 74.3306ZM82.7468 75.0959C82.8649 75.2363 82.9349 75.3511 82.9023 75.3511C82.8696 75.3511 82.7462 75.2363 82.6281 75.0959C82.51 74.9556 82.44 74.8408 82.4727 74.8408C82.5053 74.8408 82.6287 74.9556 82.7468 75.0959ZM83.3402 75.8613C83.4583 76.0016 83.5283 76.1165 83.4957 76.1165C83.463 76.1165 83.3396 76.0016 83.2215 75.8613C83.1034 75.721 83.0334 75.6062 83.0661 75.6062C83.0987 75.6062 83.2221 75.721 83.3402 75.8613ZM84.0081 76.7224C84.1556 76.9247 84.1515 76.9292 83.9633 76.7706C83.7655 76.6039 83.7028 76.4992 83.8004 76.4992C83.825 76.4992 83.9185 76.5997 84.0081 76.7224ZM84.6015 77.4878C84.749 77.6901 84.7449 77.6946 84.5567 77.536C84.3589 77.3693 84.2962 77.2645 84.3938 77.2645C84.4184 77.2645 84.5119 77.3651 84.6015 77.4878ZM65.3346 114.876C58.4995 119.062 52.9067 122.515 52.9063 122.55C52.9059 122.585 53.6918 122.883 54.6529 123.211C55.6139 123.539 57.5083 124.19 58.8627 124.657L61.3253 125.507V139.611V153.714L62.4117 153.631C63.0091 153.586 66.7208 153.548 70.6599 153.548H77.8216V151.642V149.736L78.8007 150.53C80.722 152.087 83.4163 153.312 85.876 153.747C87.5198 154.037 90.9212 153.944 92.4191 153.567C94.7699 152.976 97.0937 151.839 98.8452 150.422C99.8051 149.646 101.177 148.208 101.822 147.303L102.137 146.861L102.405 147.239C103.015 148.097 104.722 149.869 105.577 150.531C107.405 151.945 109.593 152.959 112.001 153.507C113.417 153.829 116.984 153.83 118.41 153.509C125.406 151.933 130.097 146.508 131.631 138.221C132.147 135.435 132.301 132.315 132.052 129.675C131.201 120.629 126.109 113.454 119.165 111.514C114.925 110.33 110.236 111.146 106.723 113.678L105.925 114.253L97.9424 111.942L89.9601 109.631L88.371 110.789C84.9268 113.299 81.0264 117.477 78.5105 121.35L77.881 122.319L77.8216 114.793L77.7623 107.267L65.3346 114.876ZM94.6443 114.792C96.8799 115.439 98.7091 116.004 98.7091 116.048C98.7091 116.092 98.135 116.638 97.4333 117.262C95.1145 119.323 92.9836 121.747 91.1948 124.358L90.5243 125.337L91.3234 125.622C92.679 126.104 94.5172 126.974 95.538 127.615C96.7069 128.349 98.5692 130.284 99.1742 131.393C100.554 133.923 101.187 137.865 100.658 140.638C99.8248 145.003 96.5228 148.496 92.0037 149.792C90.4108 150.249 87.6659 150.368 86.0921 150.05C83.4354 149.512 81.1238 148.174 79.2785 146.107C77.0903 143.655 76.0205 140.608 76.2103 137.369C76.5883 130.918 80.136 123.7 85.9123 117.629C87.7209 115.729 90.0997 113.632 90.4609 113.621C90.5262 113.619 92.4088 114.146 94.6443 114.792ZM73.9053 131.799V149.849H69.2768H64.6483V136.21V122.571L63.1352 122.035C62.3029 121.739 61.5852 121.462 61.5404 121.418C61.4683 121.348 73.5916 113.783 73.8162 113.758C73.8653 113.753 73.9053 121.871 73.9053 131.799ZM118.35 115.015C121.189 115.844 123.816 117.967 125.65 120.914C126.864 122.865 127.638 124.84 128.217 127.466C128.542 128.939 128.554 129.107 128.552 132.309C128.551 135.218 128.517 135.814 128.281 137.156C126.914 144.916 122.43 149.648 116.057 150.054C110.935 150.38 106.446 147.724 104.069 142.961C102.767 140.352 102.142 137.749 101.906 133.953C101.704 130.717 101.986 128.175 102.861 125.341C104.569 119.811 108.203 115.954 112.713 114.884C114.126 114.548 116.98 114.615 118.35 115.015ZM101.669 119.244C100.96 120.367 99.9844 122.533 99.4782 124.108L99.0392 125.475L98.3698 124.99C98.0016 124.723 97.4423 124.344 97.127 124.147L96.5535 123.789L97.3643 122.902C98.1659 122.025 101.953 118.503 102.125 118.474C102.144 118.471 101.939 118.817 101.669 119.244ZM114.644 119.883C113.664 120.405 112.65 122.627 112.303 125.017C111.688 129.242 111.639 134.883 112.181 138.812C112.546 141.452 113.295 143.592 114.19 144.555C114.796 145.206 115.173 145.305 115.794 144.975C116.941 144.365 117.856 142.069 118.375 138.496C118.683 136.374 118.68 128.772 118.37 126.186C118.144 124.294 117.594 122.229 117.051 121.234C116.688 120.567 116.082 119.93 115.643 119.751C115.208 119.575 115.228 119.573 114.644 119.883ZM87.2243 130.608C85.6067 133.185 84.9408 135.54 84.9439 138.672C84.9472 141.96 85.8275 144.494 87.2419 145.287C88.291 145.876 89.5482 145.561 90.4546 144.482C91.959 142.692 92.6007 138.127 91.8293 134.702C91.3776 132.697 90.3765 131.074 89.0795 130.243C87.9523 129.522 87.899 129.533 87.2243 130.608Z" fill="white"/>
</svg>
