<svg width="303" height="51" viewBox="0 0 303 51" fill="none" xmlns="http://www.w3.org/2000/svg">
<path fill-rule="evenodd" clip-rule="evenodd" d="M62.6293 0.241278C61.2186 0.437162 60.2884 0.751472 56.8527 2.1931C55.6459 2.69944 54.3623 3.22577 54.0003 3.36262L53.3421 3.6114L49.4327 3.45894C37.3572 2.98822 29.7001 2.81611 27.29 2.96138C20.1651 3.39069 12.8293 5.16795 8.04239 7.62461C3.43425 9.98952 0.781208 13.0574 0.246444 16.6396C0.0806681 17.7498 0.179632 19.5545 0.465419 20.6326C1.58635 24.8616 5.61952 27.8012 11.3021 28.5309C12.6818 28.708 15.6329 28.7071 17.2933 28.529C21.9418 28.0304 26.7071 26.4251 30.1472 24.1988C33.722 21.8852 35.7069 19.2106 36.0801 16.2039C36.3163 14.3013 35.7283 12.6399 34.411 11.4876C33.7332 10.8946 32.6067 10.3311 32.1013 10.3323C31.5448 10.3336 30.8241 10.6954 30.645 11.0635C30.4296 11.5058 30.5405 11.7675 31.2026 12.38C31.8181 12.9493 31.9483 13.2263 31.9528 13.9755C31.9624 15.5582 30.4019 17.9745 28.0591 20.0048C22.4911 24.8297 14.668 27.2109 9.56456 25.634C7.06681 24.8622 5.34394 23.2985 5.12828 21.6074C4.99 20.5233 5.4678 18.8143 6.26283 17.5494C6.84703 16.6201 8.4507 15.007 9.54951 14.2435C15.6213 10.025 26.6621 7.05854 39.8363 6.10614C41.3492 5.99675 49.4257 5.97236 49.598 6.07666C49.6478 6.10684 49.2551 6.46238 48.7254 6.86678C43.9681 10.4991 39.8131 16.0385 37.0395 22.4463C36.2016 24.3818 35.7563 25.6222 34.7372 28.8568C33.7859 31.8769 32.8886 34.5172 32.1344 36.5166C31.8795 37.1921 31.4379 38.3961 31.1531 39.1922C29.769 43.0604 28.496 45.54 27.2226 46.8479C26.5947 47.4928 26.2175 47.7098 25.202 48.0104C24.2051 48.3054 23.984 48.4994 23.9845 49.0789C23.9851 49.8845 24.478 50.3329 25.3632 50.3329C26.176 50.3329 27.8766 50.0817 28.6187 49.8522C29.4467 49.5959 29.9543 49.3078 32.4923 47.6527C35.5867 45.6349 37.6218 43.9855 39.27 42.159C41.1443 40.0821 45.207 34.9453 52.5095 25.4197C57.7516 18.5816 59.6939 16.1114 61.2694 14.279C62.2233 13.1695 62.2159 13.1744 61.7983 13.9281C60.9022 15.5457 59.7482 18.3907 59.0587 20.6827C58.2894 23.2394 57.8231 25.3335 57.2102 28.983C56.0518 35.8797 54.7608 40.5304 53.0491 43.973C52.2474 45.5854 51.5304 46.6658 50.6245 47.6271C49.5578 48.759 49.4841 49.0493 50.0953 49.712C50.6717 50.337 51.3419 50.4854 52.1722 50.1719C52.7193 49.9653 56.4658 47.8611 58.0487 46.8713C61.3256 44.8222 62.8744 43.5754 66.2157 40.2971C70.4561 36.1366 73.6999 32.6956 76.6434 29.2357C78.5422 27.0036 79.0088 26.4246 81.6615 23.0074C84.8647 18.8811 86.9515 16.4081 89.1542 14.1282L89.7661 13.4948L90.6169 13.5885C91.6152 13.6985 93.5683 13.6305 94.862 13.4408C101.018 12.5379 105.126 9.30818 105.126 5.37111C105.126 4.39555 104.845 3.83746 104.147 3.42709C103.507 3.05033 102.874 2.9283 101.588 2.9333C98.8671 2.94392 96.7063 3.82667 93.2528 6.33808C92.422 6.94231 91.6982 7.43662 91.6444 7.43662C91.5907 7.43662 90.602 7.31513 89.4473 7.1667C86.672 6.80985 83.5793 6.723 81.749 6.95064C78.484 7.35671 76.0542 8.38385 73.3318 10.5088C72.2211 11.3757 68.7871 14.6662 68.3947 15.2394C68.1546 15.5902 68.1269 15.6932 68.1665 16.088C68.2747 17.1667 69.0811 17.8993 69.9465 17.705C70.109 17.6685 70.8062 17.235 71.4958 16.7419C74.5175 14.5806 77.0483 13.2241 79.0479 12.6939C79.9493 12.455 82.0679 12.3778 83.8669 12.5184C85.8346 12.6722 85.7512 12.5758 84.773 13.5656C82.9687 15.3911 76.321 23.2808 68.3911 33.0077C65.5171 36.5329 63.895 38.3287 61.4175 40.7273C60.1519 41.9526 60.078 42.01 60.344 41.5607C60.994 40.4629 62.4271 37.4699 62.9694 36.078C64.185 32.9573 65.4659 28.6092 66.3942 24.4521C66.5642 23.6909 66.966 21.5585 67.2872 19.7134C68.2146 14.3862 68.6437 12.6336 69.5923 10.2983C70.45 8.18683 71.5871 6.46413 73.2245 4.79548C74.3513 3.64719 74.4621 3.4206 74.1807 2.83979C73.9456 2.35451 73.3603 2.05266 72.6541 2.05266C72.1484 2.05266 72.0217 2.09354 71.3471 2.47434C70.3224 3.05296 67.7455 4.72872 66.6596 5.52278C64.6184 7.01529 61.7776 9.52442 59.7334 11.6402C55.4603 16.0631 52.8273 19.3029 45.7906 28.797C40.5165 35.913 38.5882 38.3363 35.9489 41.1659L35.5398 41.6045L36.0182 40.7643C38.4025 36.5769 40.6113 32.1224 44.584 23.4898C47.0103 18.2176 48.716 15.0272 50.5402 12.3491C52.1967 9.91733 53.9408 7.95392 55.6437 6.6044L56.4497 5.96552L58.4648 5.59805C62.4958 4.86294 63.5442 4.60082 64.6691 4.04677C65.8183 3.48069 66.3464 2.80593 66.3457 1.90432C66.3452 1.13789 65.9683 0.708663 65.0028 0.374967C64.5241 0.20961 63.3388 0.142766 62.6293 0.241278ZM101.886 5.84902C101.912 6.1157 101.856 6.20254 101.361 6.66353C100.754 7.22995 99.4231 7.9255 98.4534 8.18384C97.9471 8.31867 95.6323 8.47842 95.6323 8.3785C95.6323 8.32859 97.2992 7.10714 97.9609 6.67221C99.0682 5.94429 100.381 5.49848 101.319 5.53164L101.857 5.55059L101.886 5.84902ZM133.337 15.5117C131.244 15.6462 129.428 15.7595 129.303 15.7633C129.107 15.7693 128.682 16.3251 126.188 19.8427L123.3 23.915L119.474 27.5519C113.546 33.1883 109.679 37.0511 106.384 40.6287C102.268 45.0978 98.5675 47.7311 96.0135 48.0085C95.3303 48.0826 95.254 47.9812 95.4898 47.3132C95.7625 46.5412 96.5119 45.4054 102.279 37.0229C105.374 32.5248 107.93 28.7834 107.96 28.7084C108.004 28.5955 107.954 28.5803 107.666 28.6194C107.476 28.6452 105.668 28.8057 103.648 28.976C101.628 29.1463 99.855 29.3043 99.7073 29.3273C99.5048 29.3589 99.3536 29.4891 99.0936 29.8559L98.7485 30.3428L98.4405 29.9903C96.9043 28.2324 90.9456 28.1532 85.6226 29.8201C77.8772 32.2454 72.6579 37.99 73.0028 43.7099C73.1067 45.4334 73.5928 46.5747 74.6662 47.6158C75.8678 48.7813 77.3483 49.3294 79.5562 49.4263C81.3505 49.505 82.693 49.2011 84.6612 48.2706C86.1548 47.5646 87.8226 46.4831 89.0944 45.3961L89.4974 45.0517L89.5461 45.9693C89.5887 46.7725 89.6309 46.9591 89.8847 47.4638C90.6029 48.8929 92.1461 49.6013 94.7447 49.6948C96.6363 49.7628 97.7173 49.531 99.4339 48.6892C102.228 47.3189 104.969 45.0544 108.706 41.0297C109.582 40.0863 111.999 37.6388 114.078 35.5909L117.857 31.8673L117.161 32.8761C116.778 33.431 115.286 35.5477 113.846 37.58C110.76 41.9354 110.653 42.0959 110.318 42.8679C109.136 45.5883 110.081 47.9962 112.746 49.0571C114.318 49.6828 116.857 49.844 118.505 49.4229C120.813 48.8328 123.323 47.2273 126.091 44.5697C126.81 43.8797 127.424 43.3151 127.457 43.3151C127.489 43.3151 127.516 43.3845 127.516 43.4692C127.516 43.554 127.717 44.0257 127.964 44.5173C128.33 45.2496 128.551 45.5554 129.186 46.2083C131.154 48.2348 134.027 49.381 137.742 49.6226C140.468 49.8 142.723 49.3872 145.135 48.269C147.799 47.034 150.463 44.9989 152.937 42.3092C154.202 40.9344 155.41 39.6959 158.504 36.6043C159.662 35.4464 161.211 33.8955 161.944 33.1579L163.277 31.8168L164.29 32.2807C164.847 32.5358 165.305 32.7643 165.306 32.7884C165.308 32.8125 164.877 33.1539 164.347 33.5469C161.056 35.9905 158.264 39.215 157.114 41.8985C156.6 43.1 156.42 43.9775 156.457 45.1181C156.487 46.0322 156.508 46.1259 156.825 46.7536C158.018 49.1193 161.818 50.1867 165.165 49.0965C166.736 48.5845 168.695 47.4667 170.47 46.0683C172.318 44.6123 174.397 42.5773 175.793 40.8589C176.446 40.0547 179.602 36.8343 181.155 35.3879C184.428 32.339 186.778 30.9178 189.017 30.6331C189.274 30.6004 189.547 30.5976 189.625 30.6268C189.753 30.6749 189.752 30.7069 189.618 30.9666C189.537 31.1242 189.245 31.5493 188.968 31.9112C188.692 32.273 185.752 36.2798 182.434 40.815L176.402 49.0609L180.547 49.0837C183.789 49.1016 184.715 49.0825 184.799 48.996C184.857 48.9352 186.728 46.2999 188.956 43.1397C191.184 39.9795 193.231 37.1175 193.506 36.7798C194.22 35.9019 196.198 33.9403 197.188 33.1278C198.358 32.1672 199.471 31.4378 200.444 30.9936C202.215 30.1847 203.472 30.2111 203.317 31.0541C203.152 31.9529 201.146 34.9807 195.629 42.6572C193.83 45.1606 191.579 48.3441 191.24 48.8635L191.083 49.1048H195.147H199.212L201.912 45.2669C203.397 43.1561 205.094 40.7185 205.683 39.8501C206.951 37.9795 207.937 36.8365 209.922 34.9363C212.974 32.0134 215.679 30.4342 217.48 30.5246C218.006 30.551 218.017 30.5568 218.043 30.8196C218.1 31.3931 217.262 32.5845 214.838 35.3762C211.565 39.1451 210.086 41.4048 209.551 43.4545C208.607 47.0696 210.345 49.0331 214.869 49.4629C216.381 49.6064 217.813 49.5261 218.822 49.2413C220.912 48.6517 223.594 47.0044 226.036 44.8121L226.801 44.1248L226.951 44.8384C227.413 47.0344 229.017 48.5891 231.45 49.1981C232.345 49.4222 234.167 49.5149 235.04 49.3808C237.287 49.0354 240.14 47.6307 242.525 45.6948L243.362 45.0156L243.333 45.6503C243.243 47.5963 244.331 48.8969 246.527 49.4708C247.026 49.6009 247.604 49.6619 248.646 49.694C250.29 49.7447 251.033 49.6194 252.432 49.055C255.05 47.9993 258.356 45.469 261.45 42.1517C263.425 40.0348 268.952 34.6701 270.23 33.6298C272.208 32.0195 273.843 31.0387 275.063 30.7304C275.716 30.565 275.925 30.5614 276.135 30.7118C276.291 30.8238 276.29 30.8433 276.115 31.2311C275.859 31.7983 275.872 31.7806 269.113 40.9412C265.762 45.4828 263.02 49.2174 263.02 49.2403C263.02 49.2632 264.921 49.2717 267.244 49.2592L271.467 49.2364L275.617 43.359C277.899 40.1264 280.019 37.1894 280.327 36.8323C281.438 35.5455 283.73 33.6216 285.59 32.4148C287.341 31.2783 288.639 30.7513 289.724 30.7364C290.101 30.7312 290.438 30.7547 290.473 30.7886C290.713 31.0219 289.946 32.1087 287.916 34.4108C285.097 37.608 283.939 39.1759 282.99 41.0782C282.374 42.3139 282.039 43.3806 281.898 44.563C281.585 47.1774 282.812 48.7793 285.582 49.3711C286.718 49.6138 288.886 49.7377 289.978 49.6223C292.056 49.4025 294.428 48.2628 297.008 46.2444C298.829 44.8202 302.223 41.3348 302.653 40.4469C302.942 39.8502 302.591 39.1922 301.984 39.1922C301.516 39.1922 301.156 39.4211 300.536 40.1132C296.057 45.1074 293.257 47.177 290.387 47.615C289.336 47.7753 288.248 47.5686 287.826 47.1286C287.418 46.7029 287.642 45.5953 288.375 44.4103C288.792 43.7361 289.455 42.9363 290.773 41.5168C294.278 37.7428 295.327 35.9997 295.499 33.6655C295.634 31.8404 294.975 30.3755 293.642 29.538C292.643 28.9101 290.882 28.6145 289.47 28.8377C287.597 29.1336 285.005 30.4396 282.716 32.2414L281.948 32.8462L281.844 32.359C281.583 31.1409 280.634 30.0242 279.32 29.3897C278.259 28.8769 277.533 28.7197 276.23 28.7205C275.26 28.7211 275.076 28.748 274.331 28.9975C270.984 30.1188 267.14 33.1883 261.456 39.2799C255.907 45.2258 252.632 47.6877 249.852 48.0025C249.188 48.0776 249.096 48.0059 249.23 47.5169C249.468 46.6543 249.56 46.5135 256.159 36.9186C259.292 32.3633 261.846 28.6266 261.834 28.6148C261.806 28.5883 253.949 29.2644 253.558 29.3268C253.347 29.3605 253.183 29.4927 252.907 29.8505L252.538 30.329L252.21 29.9726C250.663 28.2953 245.284 28.1505 240.003 29.6441C233.798 31.3992 228.858 35.4957 227.317 40.1631C227.012 41.0861 226.606 41.6094 225.078 43.048C221.446 46.4655 218.499 47.969 216.53 47.4082C215.912 47.2324 215.636 46.9544 215.578 46.4509C215.443 45.2777 216.277 43.6802 218.084 41.6484C220.871 38.5151 221.504 37.7026 222.198 36.3624C223.429 33.9847 223.361 31.4744 222.025 30.062C221.222 29.212 220.383 28.8306 218.936 28.6584C216.593 28.3793 213.646 29.5571 210.406 32.0675L209.602 32.6903L209.496 32.1825C209.166 30.5969 207.79 29.3934 205.657 28.8241C205.05 28.6622 204.694 28.6321 203.328 28.6273C201.728 28.6216 201.71 28.6238 200.866 28.9116C199.185 29.4846 197.479 30.5707 195.433 32.3708L195.239 32.541L195.136 32.0534C194.877 30.8321 194.043 29.8093 192.816 29.2075C191.757 28.6885 191 28.5492 189.509 28.5993C188.05 28.6483 187.183 28.8682 185.766 29.5481C183.17 30.7932 180.442 33.0611 176.384 37.35C170.824 43.2261 169.349 44.6641 167.549 45.9643C165.988 47.0916 164.609 47.6873 163.378 47.7657C162.152 47.8438 162.029 47.6387 162.625 46.5019C163.096 45.6009 164.093 44.3135 166.541 41.4415C169.46 38.0174 170.377 36.7637 170.775 35.6554C171.103 34.7428 171.01 34.3386 170.305 33.6089C169.63 32.9096 168.465 32.1819 166.498 31.2314L164.776 30.3989L164.941 30.1681C165.581 29.2743 165.33 28.2895 164.343 27.8144C163.888 27.5958 163.739 27.5696 162.982 27.5753C162.062 27.5822 161.699 27.6895 161.198 28.1025C160.457 28.7134 160.406 29.7401 161.079 30.5103L161.397 30.8742L158.668 33.5638C155.563 36.6252 154.027 38.1906 153.218 39.1186C152.141 40.3541 149.507 42.988 148.479 43.8563C146.018 45.9351 143.497 47.2412 140.95 47.7566C139.903 47.9685 138.039 47.9749 137.36 47.7689C135.464 47.1937 134.995 45.2818 136.035 42.3708C136.186 41.9494 136.493 41.2649 136.718 40.8497L137.127 40.0948L138.165 40.0378C140.165 39.9281 143.041 39.4329 144.711 38.911C147.089 38.1678 149.787 36.5261 151.658 34.6846C153.413 32.9567 153.979 31.387 153.272 30.205C152.603 29.0879 151.051 28.6323 147.935 28.6387C145.336 28.6441 143.279 28.897 140.815 29.5143C135.094 30.9477 130.533 33.9045 128.32 37.6155C127.921 38.2849 127.467 39.5353 127.376 40.2153C127.317 40.6547 127.275 40.7093 125.96 42.0514C122.995 45.0778 120.693 46.8323 118.873 47.4541C118.106 47.7161 117.304 47.7767 116.913 47.6021C116.431 47.387 116.338 46.4629 116.689 45.3842C116.929 44.6498 116.656 45.0522 124.812 33.4025L130.8 24.8495L134.615 24.8057C138.315 24.7631 138.437 24.7563 138.682 24.5774C139.026 24.3264 139.126 24.0239 138.969 23.7044C138.741 23.2391 138.664 23.2294 135.196 23.228C133.435 23.2273 131.994 23.2034 131.994 23.175C131.994 23.1465 133.203 21.3895 134.681 19.2705C136.158 17.1514 137.367 15.3786 137.367 15.3308C137.367 15.283 137.317 15.2491 137.255 15.2555C137.194 15.2618 135.431 15.3771 133.337 15.5117ZM95.3156 31.0509C95.5246 31.1026 95.81 31.2751 96.0097 31.4706C96.2927 31.7478 96.3488 31.8628 96.3488 32.1653C96.3488 32.5585 96.5983 32.1725 92.7053 37.8015L91.1493 40.0513L89.3273 41.8024C86.1808 44.8266 84.1362 46.2959 82.1535 46.9578C81.6431 47.1282 80.1557 47.2264 79.9703 47.102C79.558 46.8252 80.935 44.115 83.2535 40.6396C85.3879 37.4402 86.7028 35.7414 88.2352 34.2038C90.9012 31.5286 93.1657 30.5202 95.3156 31.0509ZM249.343 31.1448C249.976 31.4055 250.317 31.9842 250.126 32.4757C250.078 32.5998 248.913 34.3296 247.538 36.3196L245.037 39.9378L243.035 41.8684C239.717 45.0681 237.612 46.5408 235.647 47.0362C235.05 47.1866 234.034 47.2194 233.833 47.0947C233.276 46.7493 235.159 43.2723 238.34 38.7704C240.971 35.0467 242.948 32.9903 245.035 31.8041C246.603 30.9129 248.189 30.6701 249.343 31.1448ZM150.171 31.1284C150.744 31.2577 150.811 31.332 150.682 31.695C150.188 33.0946 147.165 35.3624 144.323 36.4674C143.608 36.7454 141.696 37.2596 140.726 37.4352C140.43 37.4886 140.092 37.5528 139.973 37.5778C139.795 37.6153 139.858 37.5126 140.331 36.9888C144.198 32.7121 147.767 30.586 150.171 31.1284Z" fill="white"/>
</svg>
