<svg width="106" height="37" fill="none" xmlns="http://www.w3.org/2000/svg"><path d="M9.23 35.1c-.02-.16-.04-.33-.08-.51l-.71.12-.05-.44c-.18-1.7-.89-3.17-2.24-4.63-.6-.56-1.26-1.1-1.95-1.67-.32-.27-.64-.53-.96-.8l-1-.85.17.01-1-.85 4.1.36c1.94.17 3.82.35 5.71.49 5.71.43 11.36.65 16.77.65 4.31 0 8.6-.14 12.77-.41 4.1-.27 8.08-.41 11.83-.41 10.45 0 19.87 1.02 28.8 3.11 2.02.48 4.04.71 5.99.71 1.66 0 3.33-.17 4.95-.52 2.12-.45 3.31-1.42 3.85-3.14.41-1.31.86-2.62 1.3-3.89-.44.21-.89.38-1.37.49-.22.05-.43.07-.64.07-.92 0-1.73-.46-2.34-1.32-.23-.16-.43-.34-.62-.56-.05.03-.09.06-.14.09-.21.13-.42.28-.62.42-.54.37-1.1.76-1.72 1.02-.61.26-1.15.39-1.64.39-.88 0-1.6-.41-2.15-1.21a2.69 2.69 0 01-.62-.56c-.14.09-.28.18-.43.27-.83.54-1.7 1.09-2.66 1.36-.28.08-.56.12-.83.12-.92 0-1.74-.46-2.36-1.33-.21-.14-.4-.32-.58-.51-.11.1-.22.18-.35.25-.25.13-.49.28-.74.42-.75.44-1.52.89-2.37 1.08-.25.06-.49.08-.73.08-.94 0-1.76-.45-2.25-1.24-.96-.6-1.45-1.79-1.3-3.14.07-.65.18-1.29.31-1.95-.44.07-.87.15-1.29.25-.04.03-.17.23-.22.41-.15.59-.28 1.19-.4 1.79-.14.68-.29 1.35-.46 2.02-.29 1.13-1.24 1.86-2.4 1.86-.18 0-.36-.02-.55-.05-.6-.11-.94-.41-1.02-.88-.25-.07-.53-.19-.71-.46-.22-.34-.17-.75-.1-1.03.57-2.51 1.12-5.07 1.66-7.57-1.04 1-1.76 1.96-1.96 3.48-.29 2.23-1.71 4.17-4.1 5.63-.96.58-1.89.88-2.76.88-1.24 0-2.37-.59-3.37-1.76-.11-.09-.22-.18-.33-.29-.25.22-.51.44-.81.61l-.44.26c-.67.4-1.37.81-2.14 1.03-.35.1-.7.15-1.04.15-.97 0-1.78-.44-2.26-1.22-.84-.5-1.3-1.44-1.29-2.61 0-.21.01-.43.02-.64-.59 1.14-1.18 2.27-1.75 3.42-.36.72-.85 1.07-1.51 1.07a2.1 2.1 0 01-.48-.06c-.6-.14-1.02-.48-1.23-.99-.63-.29-.98-.86-.98-1.64v-2.76c-.44.98-.9 1.97-1.39 2.93-.33.65-.89 1.18-1.4 1.63-.71.61-1.31.9-1.89.9-.59 0-1.12-.29-1.64-.91-.29.08-.58.17-.86.26-.86.26-1.67.51-2.52.53-.91 0-1.58-.38-1.99-1.11-.26-.14-.48-.33-.66-.57l-.08.06c-.77.58-1.57 1.18-2.48 1.56-.33.14-.64.21-.94.21-.94 0-1.61-.7-2.05-1.25-.2-.14-.39-.32-.6-.55-.21.17-.43.33-.65.47l-.24.15c-.46.3-.95.61-1.48.82-.56.22-1.1.33-1.61.33-1.02 0-1.87-.45-2.37-1.24-1.04-.63-1.5-1.92-1.23-3.47.25-1.44.57-2.89.87-4.29l.39-1.8L16.3 4.1c-.08.12-.18.38-.34.93-1.19 3.99-2.54 8.52-4.67 12.63-.59 1.15-1.33 2.18-2.16 3.31-.32.44-.78.85-1.45 1.29-.76.5-1.47.75-2.13.75-.84 0-1.57-.42-2.1-1.2-.65-.4-1.13-1.11-1.44-2.11a.529.529 0 00-.08-.14l-.13-.2v-1.82l.06-.1c.81-1.37 1.76-1.66 2.41-1.66.53 0 1.08.18 1.63.55l.23.15-.06.34c.22.09.45.2.66.35l.23.15-.07.41c.1-.14.2-.29.3-.43.87-1.24 1.77-2.53 2.34-3.91.73-1.74 1.39-3.54 2.02-5.33a3.1 3.1 0 01-1.17.24c-.85 0-1.56-.41-1.98-1.13-.69-.39-1.14-1.14-1.22-2.08-.11-1.2.19-2.29.85-3.05.62-.72 1.53-1.13 2.62-1.18.3-.02.6-.02.89-.02 1.1 0 2.21.09 3.29.17.65.05 1.29.1 1.94.13.47.02.93.04 1.4.05.67.02 1.33.05 2 .09.04 0 1.12.08 1.19.66.01.07.01.15.01.23.33.07.78.24.83.61.05.42-.11.83-.3 1.22-.1.22-.24.43-.37.65-.19.29-.36.57-.43.85-.85 3.78-1.66 7.64-2.44 11.36l-.26 1.25c-.05.24-.1.49-.11.72.72-.11 1.62-.69 1.7-1.06.46-2.04.89-4.09 1.33-6.14l-.36-.16.23-.38-1-.43.19-.44c.07-.12.14-.26.2-.39.17-.36.37-.77.73-.99.83-.51 1.67-.84 2.43-.96.15-.02.29-.04.43-.04.71 0 1.21.34 1.41.93.27.09.5.26.66.48.26.37.33.9.2 1.52-.18.85-.36 1.69-.55 2.53-.29 1.32-.59 2.68-.84 4.02-.03.17-.09.36-.15.54-.05.16-.1.32-.13.47.78-.05 1.74-.86 1.91-1.62.24-1.11.48-2.22.71-3.34.24-1.14.48-2.28.73-3.42.29-1.31 1.26-2.13 2.55-2.13.13 0 .26.01.4.02.8.1 1.09.49 1.17.9.25.07.52.19.69.44.19.28.23.65.12 1.12-.51 2.21-.97 4.47-1.43 6.66l-.18.87c-.05.23-.09.46-.12.68.12-.11.24-.29.35-.46l.13-.2c.47-.69 1.1-1.06 1.81-1.06.46 0 .94.16 1.43.46l.24.15-.07.36c.14.05.28.11.41.18 1.22-1.58 1.79-3.48 2.35-5.32.05-.18.11-.36.16-.54l-1.42.55-.19-.22c-.18-.2-.32-.44-.42-.7l-.22.08-.19-.22c-.57-.64-.75-1.52-.48-2.31.26-.73.87-1.24 1.68-1.38.55-.1 1.15-.14 1.84-.14.7 0 1.42.05 2.11.09.36.02.72.05 1.08.07.38.02.61.48.72.83l.12.01c.56.03.8 1 .81 1.26.08 1.51.14 3.03.19 4.54l.56-1.01c.74-1.35 1.48-2.71 2.23-4.06.4-.73 1.09-1.69 2.43-1.69.12 0 .24.01.37.02.31.04 1.06.13 1.21.91.24.07.49.18.65.41.26.35.22.79.17 1.1-.33 2.09-.61 4.24-.89 6.31l-.21 1.61c-.04.27-.06.5-.06.69.45-.05.89-.26 1.21-.58.29-.29.44-.63.44-.96-.01-2.98.98-5.56 2.96-7.67 1.2-1.28 2.56-1.93 4.03-1.93.4 0 .82.05 1.24.15.64.15 1.18.55 1.7.94l.29.21c.15.11.23.27.27.43.1.07.56.4.56.4.33.24.41.9.23 1.24-.09.17-.29.33-.51.43l.06.06.06-.04.79-.61.86-.71c.63-.53 1.28-1.07 1.96-1.55.61-.43 1.32-.64 1.81-.74.24-.05.47-.08.68-.08.74 0 1.26.33 1.46.93.28.1.51.26.67.49.27.39.34.96.19 1.68-.17.81-.34 1.62-.53 2.49.45-.03.89-.07 1.31-.13.05-.08.12-.24.16-.4.17-.67.31-1.35.46-2.03.08-.36.15-.72.24-1.08.22-.98.86-1.63 1.84-1.86.28-.07.53-.1.76-.1.68 0 1.13.32 1.28.89.27.07.48.2.63.4.27.35.33.86.19 1.56-.16.77-.32 1.54-.49 2.31-.38 1.78-.77 3.62-1.11 5.43-.02.1-.03.21-.03.33.18-.02.37-.05.55-.1.82-.22 1.13-.63 1.13-1.52-.01-2.95.99-5.49 2.98-7.55 1.17-1.21 2.5-1.83 3.96-1.83.81 0 1.66.19 2.53.57.01 0 .04.01.11.01.13 0 .3-.04.42-.07.13-.03.26-.09.39-.15.2-.09.42-.19.67-.23.24-.04.45-.06.63-.06.43 0 .75.11.97.33.14.14.24.33.28.55.27.06.48.18.63.37.34.42.26 1.06.15 1.56l-.42 1.97c-.4 1.89-.81 3.84-1.18 5.76-.02.11-.03.24-.04.37.2-.02.4-.05.59-.11.83-.24 1.14-.66 1.13-1.54-.01-2.73.88-5.14 2.64-7.17 1.27-1.45 2.65-2.16 4.23-2.16.82 0 1.67.19 2.62.57 0 0 .03.01.1.01.11 0 .25-.03.34-.08.53-.29 1.05-.43 1.55-.43.52 0 1.03.15 1.52.46l.2.12v.41c.22.08.43.18.64.3l.2.12v.48l-.29 1.15c-.19.76-.38 1.51-.56 2.27-.31 1.34-.61 2.68-.9 4.02-.63 2.88-1.28 5.87-2.14 8.74-1.66 5.55-4.28 7.62-9.66 7.62-.33 0-.66-.01-1.01-.02-3.71-.16-7.46-.6-11.08-1.03-.8-.09-2.99-.35-2.99-.35-7.7-.89-15.66-1.8-23.51-1.8-3.27 0-6.29.15-9.23.47-6.87.74-13.84 1.71-20.58 2.65-2.69.38-5.39.75-8.09 1.11-1.27.17-2.57.39-3.82.6-.6.1-1.21.21-1.82.3l-.44.07-.06-.39zm48.09-16c.28 0 .59-.12.89-.35 1.19-.9 1.76-2.16 1.7-3.72-.28-.17-.47-.4-.57-.71-.98-.37-.95-1.3-.9-1.87-.83.96-1.33 2.19-1.48 3.66-.1.97-.02 2 .22 2.91.01.02.01.05.02.07.05 0 .08.01.12.01zm25.2-.45c.04.01.08.01.12.01.92-.03 2.15-1.02 2.33-1.87.17-.79.33-1.58.49-2.38.21-1.03.42-2.05.65-3.08-.94.07-1.7.54-2.31 1.44-1.06 1.55-1.3 3.34-1.4 4.89.01.38.04.71.12.99zm13.76-.13c.11.06.2.09.28.1h.09c.8 0 1.96-1 2.14-1.83.16-.74.31-1.48.46-2.21.21-1.07.43-2.16.68-3.24-.97.07-1.76.58-2.38 1.55-.99 1.53-1.22 3.28-1.32 4.94.01.06.01.13.01.22-.01.14 0 .32.04.47zM12.85 4.28c-.24.13-.45.32-.62.55-.41.58-.55 1.41-.4 2.37l1.02-2.92z" fill="#fff"/><path d="M11.53 1.26c1.73 0 3.47.22 5.21.3 1.13.06 2.26.07 3.39.14.29.02.78.16.8.29.02.17-.01.35-.07.54h.11c.29.02.78.16.8.29.04.32-.11.68-.26.99-.25.54-.7 1.02-.83 1.58-.94 4.2-1.82 8.41-2.71 12.62-.08.39-.16.81-.09 1.18 0 .02.01.03.01.05.05 0 .09.01.14.01.87 0 2.2-.73 2.35-1.4.48-2.15.94-4.3 1.39-6.45v-.03c-.08-.03-.15-.07-.23-.1.07-.12.14-.25.2-.39-.38-.16-.71-.3-1.04-.45.26-.42.41-1.01.79-1.24.69-.42 1.49-.78 2.28-.91.13-.02.25-.03.36-.03.62 0 .98.31 1.06.86.69.1.98.67.79 1.57-.46 2.19-.97 4.36-1.39 6.56-.09.46-.35 1-.31 1.46.12.03.24.05.37.05.97 0 2.17-.95 2.39-1.95.49-2.25.95-4.5 1.44-6.75.25-1.15 1.07-1.8 2.14-1.8.11 0 .23.01.35.02.59.07.86.3.83.83h.01c.69.08.98.35.8 1.12-.57 2.5-1.09 5.02-1.61 7.54-.09.45-.18.93-.15 1.38.21-.03.42-.1.58-.2.29-.18.48-.54.68-.84.4-.58.9-.88 1.47-.88.38 0 .79.13 1.21.4-.03.15-.06.31-.09.47.29.05.6.17.92.37l-.03.16c1.83-2.09 2.36-4.73 3.17-7.23-.64.25-1.29.5-1.96.76-.26-.29-.4-.63-.46-.98-.13.05-.25.1-.38.15-.91-1.03-.55-2.73.96-3 .58-.1 1.17-.14 1.77-.14 1.05 0 2.12.11 3.17.16.15.01.37.49.41.81l.43.03c.16.01.4.56.41.86.11 2.02.17 4.03.25 6.05.01-.02.03-.05.04-.07 1.16-2.11 2.3-4.22 3.47-6.32.47-.84 1.07-1.48 2.07-1.48.1 0 .21.01.32.02.59.07.89.25.87.84.64.09.93.3.81 1.09-.42 2.63-.75 5.29-1.1 7.93-.06.49-.08.87-.04 1.16h.02c.06 0 .12.01.18.01 1.18 0 2.27-.93 2.27-1.98-.01-2.83.91-5.31 2.84-7.38 1.04-1.11 2.29-1.8 3.73-1.8.37 0 .75.05 1.14.14.67.16 1.27.67 1.85 1.08.07.05.12.19.14.34.24.16.47.34.69.5.14.1.2.52.1.7-.09.16-.38.32-.58.32-.03 0-.05 0-.07-.01-.56-.14-1.1-.26-1.63-.26-.65 0-1.28.18-1.87.71-1.31 1.18-1.92 2.74-2.09 4.42-.1 1.01-.03 2.08.23 3.05.03.12.08.22.12.32.13.04.27.07.41.07.36 0 .76-.14 1.14-.43 1.42-1.08 1.99-2.58 1.85-4.32-.41-.16-.57-.44-.62-.77-.92-.22-.89-.91-.82-1.6.08-.8.58-1.25 1.36-1.37.13-.02.26-.03.38-.03.66 0 1.21.32 2.07 1.14.37-.29.75-.58 1.13-.88.93-.75 1.83-1.56 2.8-2.25.47-.34 1.07-.55 1.65-.67.22-.04.42-.07.6-.07.65 0 1.02.29 1.11.85.73.11 1 .71.79 1.74-.2.97-.41 1.95-.64 3.02.68-.04 1.35-.09 1.99-.18.17-.02.35-.44.41-.7.26-1.04.47-2.08.7-3.12.19-.83.7-1.35 1.53-1.54.25-.06.47-.09.66-.09.59 0 .89.28.92.84.72.03.98.53.78 1.51-.54 2.58-1.11 5.15-1.6 7.74-.04.24-.05.55-.01.84h.12c.31 0 .65-.06.92-.13.93-.24 1.44-.77 1.44-1.92-.01-2.76.91-5.24 2.86-7.26 1.09-1.14 2.32-1.7 3.66-1.7.75 0 1.54.18 2.37.53.08.04.17.05.27.05.17 0 .36-.04.52-.08.35-.09.67-.32 1.02-.37a3 3 0 01.57-.05c.62 0 .88.26.87.84.78.01.97.44.76 1.47-.54 2.58-1.11 5.15-1.6 7.74-.05.25-.06.57-.03.86.06.01.12.01.19.01.31 0 .64-.05.92-.13.91-.26 1.44-.78 1.43-1.94-.01-2.57.82-4.92 2.54-6.89 1.18-1.36 2.46-2.02 3.92-2.02.76 0 1.58.18 2.46.54.07.03.16.04.25.04.18 0 .39-.05.53-.13.46-.25.91-.38 1.35-.38.43 0 .87.12 1.3.39v.2c-.02.09-.05.19-.07.28.3.05.6.17.9.35v.2c-.28 1.13-.57 2.25-.84 3.38-1 4.25-1.79 8.56-3.03 12.74-1.61 5.36-4.03 7.33-9.26 7.33-.32 0-.65-.01-.99-.02-4.49-.19-8.97-.79-13.44-1.31-8.04-.92-16.09-1.87-24.16-1.87-3.09 0-6.18.14-9.28.47-9.58 1.03-19.12 2.48-28.68 3.76-1.88.25-3.74.6-5.65.91-.03-.33-.09-.64-.16-.95-.22.04-.44.08-.67.11-.22-2.05-1.13-3.56-2.35-4.87-.89-.84-1.92-1.64-2.92-2.48.06.01.13.01.19.02-.34-.28-.69-.56-1.03-.85 2.95.26 5.73.53 8.5.74 5.6.43 11.2.65 16.81.65 4.26 0 8.52-.13 12.79-.41 3.94-.26 7.88-.4 11.81-.4 9.63 0 19.22.88 28.71 3.1 2.02.47 4.05.73 6.09.73 1.67 0 3.35-.17 5.03-.53 2-.42 3.51-1.35 4.17-3.42.52-1.65 1.09-3.29 1.64-4.88-.71.4-1.43.77-2.19.94-.19.04-.37.06-.55.06-.86 0-1.54-.46-2.04-1.21-.32-.21-.6-.49-.85-.85-.15.12-.29.23-.44.33-.75.49-1.47 1.06-2.29 1.41-.56.24-1.05.35-1.48.35-.78 0-1.38-.38-1.85-1.1-.31-.18-.58-.45-.82-.8-1.07.65-2.12 1.46-3.3 1.78-.25.07-.49.1-.72.1-.85 0-1.54-.46-2.06-1.22-.31-.21-.59-.48-.83-.83-.2.2-.38.39-.59.5-.98.53-1.94 1.23-3 1.47-.22.05-.43.07-.64.07-.86 0-1.55-.43-1.95-1.12-.85-.48-1.33-1.51-1.19-2.79.09-.83.25-1.65.41-2.5-.65.1-1.29.2-1.9.35-.22.05-.46.44-.52.72-.31 1.26-.54 2.55-.86 3.81-.25.98-1.06 1.55-2 1.55-.15 0-.31-.02-.47-.05-.54-.1-.74-.33-.69-.82-.05-.01-.09-.01-.14-.01-.62-.12-.82-.38-.67-1.04.65-2.86 1.26-5.73 1.88-8.61l.03-.18c-.1.07-.2.14-.28.21-1.32 1.18-2.49 2.31-2.75 4.34-.3 2.32-1.88 4.09-3.91 5.33-.9.55-1.75.82-2.54.82-1.13 0-2.15-.55-3.08-1.65-.21-.16-.4-.36-.6-.57-.34.29-.66.6-1.04.82-.8.46-1.6.99-2.48 1.25-.32.09-.63.14-.92.14-.87 0-1.57-.41-1.95-1.11-.73-.39-1.19-1.19-1.18-2.29.01-.94.14-1.88.27-2.82-.94 1.79-1.88 3.59-2.79 5.4-.27.55-.62.84-1.13.84-.12 0-.25-.02-.38-.05-.55-.13-.87-.44-.99-.9-.61-.2-.89-.66-.89-1.32v-4.71c-.71 1.57-1.4 3.16-2.18 4.69-.29.57-.81 1.07-1.31 1.5-.62.54-1.15.8-1.62.8-.54 0-1.01-.33-1.48-.97-1.25.32-2.39.82-3.55.84h-.04c-.85 0-1.35-.43-1.64-1-.39-.18-.67-.49-.85-.86-.91.67-1.81 1.41-2.84 1.84-.28.12-.53.17-.78.17-.63 0-1.18-.38-1.76-1.14-.28-.18-.55-.46-.83-.82-.31.24-.61.49-.93.7-.53.34-1.06.71-1.65.94-.52.2-1.02.3-1.46.3-.93 0-1.66-.41-2.06-1.13-.91-.5-1.38-1.6-1.12-3.09.35-2.04.83-4.05 1.26-6.08.59-2.81 1.18-5.62 1.77-8.42.02-.09.03-.18.04-.27-.13-.03-.23-.04-.33-.04-.49 0-.64.36-.93 1.33-1.28 4.29-2.58 8.57-4.64 12.56-.59 1.15-1.36 2.21-2.13 3.26-.35.47-.84.86-1.34 1.19-.7.46-1.34.68-1.9.68-.73 0-1.34-.37-1.8-1.09-.58-.33-1.04-.96-1.34-1.92-.04-.12-.12-.23-.18-.34v-1.6c.57-.97 1.27-1.46 2.05-1.46.44 0 .91.16 1.4.48-.03.14-.05.28-.08.42.3.07.6.21.91.41l-.27 1.53c.29-.2.54-.4.71-.66 1.07-1.56 2.25-3.11 2.97-4.83 1.35-3.24 2.44-6.6 3.62-9.92-1.63.21-2.51 1.79-2.04 3.99-.39.18-.77.26-1.12.26-.73 0-1.34-.37-1.68-1.03-.61-.29-1.03-.92-1.11-1.8-.19-2.09.95-3.67 3.08-3.77.28-.02.57-.03.86-.03zm52.6 11.22c.17-.13.34-.26.51-.4.65-.53 1.3-1.07 1.96-1.59-.57.36-.95.54-1.24.8-.43.39-.85.78-1.23 1.19zm32.51 6.56c1.03 0 2.33-1.17 2.55-2.17.42-1.95.77-3.91 1.23-5.86.01-.04.01-.07.02-.11-.09-.01-.18-.01-.26-.01-1.3 0-2.27.65-2.99 1.75-.97 1.5-1.27 3.19-1.39 5.18.03.19-.01.64.14.97.19.12.39.21.58.23.03.02.08.02.12.02zm-13.99.04h.04c1.07-.03 2.47-1.14 2.7-2.2.42-1.95.79-3.92 1.24-5.87.01-.03 0-.05.01-.08-.09-.01-.17-.01-.26-.01-1.24 0-2.19.58-2.9 1.63-1.07 1.57-1.36 3.38-1.47 5.1-.01.56.06 1.01.2 1.37.12.03.27.06.44.06zm-4.47.43c.01-.01.03-.02.04-.03v-.01c-.01.01-.02.03-.04.04zM11.53.43c-.31 0-.61.01-.91.02C9.41.51 8.4.96 7.7 1.77c-.74.85-1.08 2.04-.95 3.36.09 1.03.58 1.87 1.34 2.34.5.8 1.32 1.24 2.28 1.24.17 0 .33-.01.5-.04a99.3 99.3 0 01-1.74 4.55c-.52 1.25-1.33 2.45-2.14 3.61l-.03-.02c-.14-.09-.28-.17-.43-.25l.05-.28-.46-.3c-.62-.41-1.25-.61-1.86-.61-.76 0-1.86.32-2.77 1.87l-.11.2v2.04l.1.19.09.15c.02.02.03.05.04.08.32 1.03.84 1.8 1.53 2.26.76 1.08 1.71 1.31 2.39 1.31.74 0 1.54-.28 2.36-.82.71-.46 1.2-.91 1.55-1.39.84-1.15 1.59-2.2 2.19-3.37 1.04-2 1.89-4.09 2.62-6.17l-.1.46-.39 1.8c-.31 1.41-.62 2.86-.88 4.31-.29 1.69.21 3.1 1.34 3.84.58.86 1.54 1.35 2.67 1.35.56 0 1.16-.12 1.76-.35.58-.22 1.07-.55 1.56-.86l.24-.15c.13-.08.26-.17.38-.26.11.11.23.21.35.29.49.61 1.24 1.36 2.34 1.36.36 0 .72-.08 1.1-.24.87-.37 1.62-.9 2.35-1.45.13.12.26.23.41.32.49.79 1.28 1.22 2.25 1.22h.06c.91-.02 1.79-.29 2.64-.55l.6-.18c.55.58 1.13.86 1.78.86.69 0 1.38-.32 2.16-1 .54-.47 1.15-1.05 1.5-1.75.2-.4.4-.81.6-1.22v.86c0 .88.39 1.57 1.08 1.94.28.55.78.93 1.45 1.09.2.05.39.07.57.07.81 0 1.45-.44 1.88-1.3.34-.67.68-1.35 1.03-2.03.19.85.64 1.53 1.31 1.97.56.85 1.48 1.33 2.56 1.33.37 0 .76-.06 1.15-.17.82-.23 1.54-.66 2.23-1.07.14-.09.29-.17.43-.25.22-.13.41-.27.59-.42.02.01.03.03.05.04 1.08 1.25 2.31 1.88 3.66 1.88.94 0 1.94-.32 2.97-.94 2.51-1.52 3.99-3.57 4.3-5.93.11-.83.39-1.48.81-2.07-.43 2-.87 4.02-1.32 6.01-.05.2-.19.82.16 1.36.19.3.47.46.72.56.14.4.49.81 1.28.96.21.04.42.06.63.06 1.36 0 2.47-.85 2.81-2.17.18-.68.32-1.38.47-2.05.12-.58.25-1.19.4-1.77.01-.04.04-.1.07-.14.17-.04.34-.07.52-.11-.08.46-.15.92-.2 1.39-.16 1.48.37 2.79 1.41 3.49.58.86 1.5 1.35 2.56 1.35.27 0 .54-.03.82-.1.91-.21 1.71-.68 2.48-1.13.24-.14.48-.29.73-.42.04-.02.07-.04.11-.06.1.09.21.18.32.26.7.95 1.62 1.45 2.66 1.45.31 0 .62-.05.94-.13 1.03-.28 1.91-.86 2.77-1.41.04-.03.09-.06.13-.09.13.12.26.23.4.32.63.88 1.45 1.32 2.44 1.32.55 0 1.15-.14 1.81-.42.66-.28 1.24-.68 1.79-1.06l.47-.32c.12.12.25.22.38.32.69.94 1.6 1.44 2.64 1.44.24 0 .48-.03.72-.08.2-.04.4-.1.59-.16-.34 1-.68 2.01-1 3.03-.5 1.58-1.56 2.44-3.54 2.86-1.59.34-3.23.51-4.86.51-1.92 0-3.91-.24-5.9-.7-8.96-2.1-18.41-3.13-28.9-3.13-3.77 0-7.76.14-11.86.41-4.15.27-8.44.41-12.74.41-5.41 0-11.04-.22-16.75-.65-1.89-.14-3.75-.31-5.72-.49-.91-.08-1.83-.17-2.77-.25l-2.62-.23 1 .85-.14-.02 2.01 1.7c.32.27.64.54.97.8.68.56 1.33 1.09 1.93 1.65 1.29 1.4 1.94 2.74 2.11 4.37l.09.88.73-.12c0 .03.01.05.01.08l.09.88.87-.14c.61-.1 1.21-.2 1.81-.3 1.31-.22 2.55-.43 3.82-.6 2.7-.36 5.39-.74 8.09-1.11 6.74-.94 13.7-1.91 20.57-2.65 2.93-.31 5.93-.47 9.19-.47 7.83 0 15.79.92 23.48 1.8l.58.07c.8.09 1.59.19 2.39.28 3.63.43 7.39.88 11.11 1.03.35.01.7.02 1.03.02 5.61 0 8.33-2.15 10.06-7.92.87-2.89 1.52-5.87 2.15-8.76.29-1.32.59-2.69.9-4.02.18-.77.38-1.53.57-2.3l.27-1.07.02-.1v-.76l-.4-.24c-.14-.09-.29-.17-.44-.23V8.2l-.4-.24c-.56-.34-1.14-.52-1.74-.52-.57 0-1.16.16-1.75.48a.35.35 0 01-.12.03c-.97-.39-1.87-.58-2.72-.58-1.71 0-3.19.75-4.54 2.3-1.84 2.11-2.76 4.61-2.75 7.44 0 .76-.25.96-.82 1.13.35-1.85.75-3.73 1.13-5.54.14-.65.28-1.31.41-1.96.12-.59.21-1.35-.24-1.91-.16-.2-.37-.35-.62-.44-.07-.19-.18-.36-.32-.51-.3-.3-.73-.46-1.27-.46-.21 0-.43.02-.7.06-.3.05-.56.17-.77.26-.12.05-.24.11-.32.13-.14.04-.24.05-.3.06-.91-.39-1.8-.58-2.65-.58-1.58 0-3.01.66-4.26 1.96-2.06 2.14-3.1 4.78-3.09 7.85 0 .75-.24.95-.77 1.1.33-1.72.7-3.46 1.06-5.15.16-.77.33-1.54.49-2.32.17-.83.08-1.45-.27-1.9-.13-.17-.33-.35-.64-.48-.25-.62-.83-.98-1.61-.98-.26 0-.53.04-.85.11-1.13.27-1.89 1.04-2.15 2.17-.08.36-.16.71-.23 1.07-.15.67-.3 1.37-.46 2.04-.01.04-.02.08-.03.11-.17.02-.33.04-.51.05.14-.67.28-1.3.41-1.94.17-.83.09-1.51-.26-2-.13-.19-.35-.42-.69-.57-.3-.65-.93-1.02-1.78-1.02-.24 0-.49.03-.77.08-.53.11-1.3.34-1.96.81-.7.49-1.35 1.04-1.98 1.57-.17.14-.34.29-.51.43-.06-.32-.21-.62-.47-.8l-.26-.19c-.06-.05-.12-.09-.19-.14-.07-.19-.19-.37-.38-.51a4.85 4.85 0 00-.28-.2c-.53-.39-1.14-.84-1.86-1.01-.45-.11-.9-.16-1.34-.16-1.59 0-3.05.69-4.34 2.06-2.05 2.19-3.08 4.86-3.07 7.95 0 .22-.11.46-.32.67-.13.13-.29.24-.46.32 0-.03.01-.05.01-.08l.21-1.62c.27-2.07.55-4.2.89-6.29.04-.22.14-.89-.25-1.42-.18-.24-.41-.39-.64-.48-.17-.47-.59-.88-1.5-1a3.19 3.19 0 00-.42-.03c-1.74 0-2.54 1.44-2.8 1.91-.69 1.25-1.37 2.5-2.06 3.75-.04-1.01-.08-2.03-.13-3.04-.02-.4-.31-1.46-1.04-1.63-.17-.4-.47-.83-1-.86-.36-.02-.72-.04-1.07-.07-.7-.05-1.42-.1-2.14-.1-.71 0-1.34.05-1.91.15-.96.17-1.69.77-2 1.65-.32.92-.11 1.96.56 2.72l.38.43.13-.05c.09.16.2.31.32.45l.39.44.54-.21.35-.14c-.48 1.57-.96 3.07-1.82 4.38l-.41-.26c-.56-.35-1.11-.53-1.66-.53-.43 0-1.01.11-1.56.58.45-2.15.91-4.38 1.4-6.55.14-.6.07-1.08-.19-1.46-.19-.27-.45-.43-.7-.53-.16-.43-.55-.87-1.46-.98-.15-.02-.31-.03-.45-.03-1.49 0-2.63.94-2.96 2.46-.25 1.14-.49 2.28-.73 3.42-.23 1.11-.47 2.22-.71 3.33-.08.38-.46.81-.88 1.06.03-.09.05-.19.07-.29.25-1.34.55-2.69.84-4.01.19-.84.37-1.69.55-2.54.19-.93-.04-1.51-.26-1.84-.17-.25-.4-.43-.67-.56-.29-.65-.91-1.03-1.73-1.03-.16 0-.32.01-.49.04-.82.13-1.71.49-2.58 1.02-.09.06-.18.12-.25.19.23-1.04.45-2.07.68-3.1.05-.2.2-.45.37-.72.14-.22.28-.44.4-.69.2-.42.39-.93.33-1.45-.06-.49-.46-.75-.84-.88-.14-.85-1.33-.96-1.57-.98-.67-.04-1.34-.07-1.99-.09-.47-.02-.94-.03-1.41-.06-.64-.03-1.29-.08-1.93-.13-1.09-.06-2.21-.15-3.32-.15zm7.24 17.81c0-.01 0-.02.01-.04l.25-1.19c.41-1.93.82-3.88 1.24-5.85l.1.04.18.08-.23.38.48.21c-.39 1.82-.81 3.83-1.25 5.8-.06.16-.4.4-.78.57zm77.86-.41c.13-2.18.5-3.55 1.25-4.71.42-.66.91-1.07 1.49-1.25-.19.89-.37 1.77-.55 2.64-.15.74-.3 1.47-.45 2.2-.14.64-1.11 1.49-1.72 1.5-.01-.06-.01-.13-.01-.17 0-.08 0-.15-.01-.21zm-13.8-.16c.1-1.49.33-3.2 1.33-4.66.4-.59.87-.96 1.42-1.14-.18.82-.35 1.65-.51 2.46-.16.79-.32 1.58-.5 2.38-.13.61-1.01 1.37-1.71 1.52-.02-.18-.03-.36-.03-.56zm-25.3.98c-.18-.79-.23-1.67-.14-2.49.1-.95.34-1.8.74-2.52.13.39.39.76.89 1 .11.24.27.45.48.61.01 1.34-.5 2.38-1.54 3.16-.15.12-.3.2-.43.24z" fill="#fff"/><path d="M102.33 9.46c-.22.12-.57.18-.79.09-2.55-1.04-4.56-.6-6.37 1.48-1.72 1.97-2.55 4.32-2.54 6.89.01 1.16-.53 1.68-1.43 1.94-.53.15-1.28.24-1.66-.03-.3-.21-.34-1.04-.25-1.54.49-2.59 1.05-5.16 1.59-7.74.26-1.26-.08-1.63-1.36-1.42-.35.06-.67.28-1.02.37-.25.07-.57.13-.79.03-2.27-.98-4.31-.62-6.02 1.17-1.95 2.02-2.87 4.5-2.86 7.26 0 1.15-.51 1.68-1.44 1.92-.51.13-1.25.24-1.58-.02-.31-.25-.39-1.03-.29-1.52.49-2.59 1.06-5.16 1.6-7.74.26-1.27-.23-1.74-1.52-1.43-.83.19-1.34.71-1.53 1.54-.23 1.04-.44 2.09-.7 3.12-.07.26-.24.68-.41.7-.96.14-1.94.17-3.02.25.31-1.45.58-2.69.83-3.93.28-1.37-.29-1.97-1.67-1.69-.58.12-1.18.33-1.65.67-.97.69-1.87 1.5-2.8 2.25-.38.3-.76.6-1.13.88-1.01-.98-1.6-1.24-2.45-1.11-.78.12-1.28.57-1.36 1.37-.07.71-.1 1.42.88 1.62.23.05.54.42.56.67.17 1.78-.4 3.3-1.85 4.4-1.05.8-2.17.49-2.51-.79a8.7 8.7 0 01-.23-3.05c.17-1.69.78-3.24 2.09-4.42 1.06-.96 2.26-.77 3.5-.45.19.05.55-.13.65-.31.09-.17.04-.6-.1-.7-.58-.42-1.18-.92-1.85-1.08-1.93-.46-3.56.26-4.87 1.66-1.94 2.06-2.86 4.55-2.84 7.38.01 1.1-1.2 2.07-2.45 1.97-.79-.07-1.01-.57-.82-2 .35-2.65.68-5.3 1.1-7.93.13-.8-.17-1.02-.84-1.1-1.19-.15-1.87.53-2.39 1.46-1.16 2.1-2.31 4.21-3.47 6.32-.18.33-.38.66-.57.99-.23-.37-.27-.68-.28-.99-.09-2.27-.16-4.54-.28-6.8-.02-.31-.26-.86-.41-.86-1.65-.08-3.34-.3-4.94-.03-1.51.26-1.88 1.96-.96 3 .99-.38 1.93-.75 2.88-1.12.07.11.14.21.21.32-1.15 3.12-1.53 6.62-4.44 9.05-.09-.27-.14-.34-.13-.39.09-.52.19-1.04.29-1.55-1.06-.67-2.01-.49-2.68.48-.21.3-.39.66-.68.84-.27.17-.71.28-.99.18-.22-.08-.4-.52-.42-.81-.03-.46.06-.93.15-1.38.52-2.52 1.04-5.03 1.61-7.54.18-.77-.12-1.04-.8-1.12-1.25-.15-2.21.51-2.49 1.78-.49 2.25-.95 4.5-1.44 6.75-.25 1.14-1.78 2.23-2.79 1.9-1.34-.44-.64-1.49-.49-2.29.42-2.2.94-4.37 1.39-6.56.23-1.12-.26-1.74-1.38-1.56-.79.13-1.59.48-2.28.91-.38.23-.53.81-.79 1.24.34.14.67.29 1.06.46 0 .12.03.32 0 .51-.46 2.15-.91 4.3-1.39 6.45-.18.82-2.11 1.72-2.83 1.3-.25-.14-.46-.5-.51-.78-.06-.38.01-.8.09-1.18.89-4.21 1.77-8.42 2.71-12.62.12-.56.57-1.04.83-1.58.15-.31.3-.68.26-.99-.02-.13-.51-.28-.8-.29-1.13-.07-2.26-.09-3.39-.14-2.03-.1-4.06-.38-6.08-.28-2.13.1-3.27 1.68-3.08 3.77.15 1.68 1.51 2.44 3.08 1.73-.57-2.63.79-4.39 3.08-3.95-.02.12-.02.26-.06.38-1.24 3.45-2.36 6.95-3.77 10.33-.72 1.73-1.9 3.27-2.97 4.83-.34.5-.98.8-1.6 1.28-.06-.39-.11-.52-.09-.64.13-.78.28-1.56.42-2.34-1.34-.88-2.56-.54-3.45.98v1.55c.06.11.15.22.18.34.7 2.24 2.23 2.8 4.21 1.5.49-.33.99-.71 1.34-1.19.77-1.05 1.53-2.11 2.13-3.26 2.07-3.99 3.36-8.27 4.64-12.56.45-1.51.54-1.56 2.17-1.03-.04.27-.06.56-.12.85-.59 2.81-1.18 5.62-1.77 8.42-.42 2.02-.9 4.04-1.26 6.08-.45 2.62 1.33 4.05 3.82 3.09.58-.23 1.11-.6 1.65-.94.39-.25.74-.55 1.11-.84 1.09 1.79 1.94 2.44 3.19 1.92 1.23-.52 2.27-1.48 3.36-2.22.1 1.05.56 2.26 2.02 2.24 1.16-.02 2.3-.53 3.55-.84.89 1.2 1.78 1.32 3.1.17.5-.43 1.01-.92 1.31-1.5.84-1.66 1.57-3.38 2.34-5.07.11-.24.2-.49.3-.73l.37.06v6.59c0 .72.32 1.21 1.05 1.38.73.17 1.18-.12 1.52-.79 1.09-2.18 2.23-4.33 3.36-6.49.13-.25.28-.48.43-.72.15.37.1.68.07.99-.18 1.49-.48 2.98-.5 4.47-.03 1.93 1.36 2.97 3.22 2.43.88-.25 1.68-.79 2.48-1.25.41-.24.76-.59 1.13-.9 1.68 2.46 3.71 2.94 6.12 1.48 2.03-1.23 3.61-3.01 3.91-5.33.26-2.03 1.43-3.16 2.75-4.34.3-.27.68-.44 1.28-.82-.08.74-.1 1.19-.19 1.62-.61 2.87-1.22 5.74-1.88 8.61-.15.65.05.92.67 1.04 1.14.22 2.17-.36 2.47-1.5.33-1.26.55-2.54.86-3.81.07-.27.3-.66.52-.72.93-.22 1.88-.34 2.92-.51-.21 1.22-.47 2.35-.59 3.5-.22 2.01 1.09 3.43 2.94 3.01 1.06-.24 2.02-.94 3-1.47.3-.16.52-.46.85-.76.64 1.63 1.76 2.64 3.35 2.2 1.3-.36 2.43-1.3 3.62-1.97.74 1.95 1.89 2.56 3.83 1.74.82-.35 1.53-.92 2.29-1.41.23-.15.45-.34.73-.56.59 1.54 1.63 2.55 3.15 2.22 1.25-.27 2.38-1.1 3.57-1.69-.7 2.06-1.48 4.25-2.18 6.46-.65 2.07-2.16 3-4.17 3.42-3.73.79-7.45.66-11.12-.2-13.36-3.14-26.91-3.59-40.51-2.7-9.89.65-19.74.51-29.6-.24-2.78-.21-5.55-.48-8.51-.74 2.76 2.33 5.73 4.3 6.14 8.21 1.91-.31 3.78-.66 5.65-.91 9.56-1.28 19.1-2.73 28.68-3.76 11.19-1.2 22.32.12 33.44 1.4 4.47.51 8.95 1.12 13.44 1.31 5.93.25 8.55-1.62 10.25-7.3 1.25-4.17 2.04-8.49 3.04-12.74.26-1.13.56-2.25.84-3.38v-.2c-.93-.52-1.8-.47-2.7.01zm-14.88 2.38c-.45 1.95-.82 3.92-1.24 5.87-.23 1.05-1.62 2.17-2.7 2.2-.99.03-1.54-.74-1.53-2.27.11-1.72.4-3.53 1.47-5.1.79-1.16 1.88-1.76 3.33-1.61.58.05.82.26.67.91zm13.8.02c-.45 1.94-.81 3.9-1.23 5.85-.22 1.04-1.63 2.27-2.68 2.16-.49-.05-1.03-.5-1.34-.92-.24-.33-.17-.89-.2-1.11.12-1.99.42-3.69 1.39-5.18.78-1.2 1.86-1.87 3.35-1.74.59.05.88.22.71.94z" fill="#DC9129"/><path d="M8.7 34.23c-.36-3.41-2.68-5.32-5.13-7.33-.32-.27-.65-.53-.97-.81l-.25-.21 3.12.28c1.94.17 3.82.34 5.71.49 5.72.43 11.38.65 16.8.65a199 199 0 0012.79-.41c4.09-.27 8.06-.4 11.81-.4 10.43 0 19.82 1.02 28.73 3.11 2.04.48 4.09.72 6.07.72 1.68 0 3.37-.18 5.01-.52 2.24-.48 3.51-1.51 4.09-3.35.49-1.55 1.02-3.1 1.54-4.59.19-.55.38-1.1.56-1.63-.29.15-.57.31-.86.47-.8.45-1.63.92-2.51 1.11-.2.04-.39.06-.57.06-1.14 0-2.05-.77-2.64-2.22l-.15.12c-.17.14-.31.26-.47.36-.21.14-.42.28-.63.43-.53.36-1.07.74-1.67.99-.58.25-1.08.37-1.54.37-1.07 0-1.83-.65-2.39-2.05-.32.19-.64.39-.97.6-.81.52-1.65 1.07-2.57 1.32-.26.07-.51.11-.75.11-1.12 0-2.07-.79-2.67-2.23l-.19.19c-.19.19-.37.37-.58.49-.25.14-.5.28-.75.43-.73.42-1.48.86-2.28 1.05-.22.05-.45.08-.66.08-.68 0-1.3-.27-1.74-.76-.54-.6-.77-1.47-.67-2.44.09-.79.23-1.56.39-2.38.06-.32.12-.64.18-.97-.24.04-.47.07-.7.11-.72.11-1.4.21-2.07.38-.17.04-.38.39-.45.64-.15.6-.28 1.2-.41 1.8-.14.67-.29 1.34-.46 2.01-.25.99-1.08 1.62-2.1 1.62-.16 0-.32-.01-.49-.05-.35-.07-.57-.18-.69-.37-.12-.18-.14-.44-.06-.79a616.7 616.7 0 001.84-8.44l.03-.16c.06-.28.08-.56.12-.93.01-.14.03-.3.05-.47-.14.08-.26.16-.38.22-.3.18-.52.31-.71.47-1.38 1.24-2.46 2.35-2.71 4.28-.35 2.69-2.35 4.42-3.96 5.4-.92.56-1.8.84-2.61.84-1.33 0-2.54-.76-3.59-2.26-.09.07-.17.15-.25.22-.25.22-.51.45-.81.62l-.44.26c-.66.39-1.33.79-2.06 1-.33.1-.66.14-.96.14-.67 0-1.25-.23-1.67-.66-.48-.48-.72-1.18-.71-2.02.01-1.04.16-2.1.31-3.12.07-.45.13-.91.18-1.36.03-.26.06-.48.01-.73l-.02.03c-.1.16-.2.32-.28.48L45.07 16c-.87 1.66-1.74 3.33-2.58 5.01-.31.61-.7.9-1.23.9-.13 0-.26-.02-.41-.05-.75-.18-1.13-.67-1.13-1.48v-6.51l-.2-.03-.06.15c-.07.17-.13.34-.21.51-.2.45-.41.9-.61 1.35-.55 1.23-1.12 2.5-1.74 3.72-.3.6-.84 1.11-1.33 1.53-.64.55-1.19.82-1.69.82-.54 0-1.03-.3-1.53-.96-.36.1-.72.21-1.07.31-.84.26-1.63.5-2.44.52-1.55 0-1.99-1.28-2.1-2.16-.28.2-.56.41-.84.62-.75.57-1.53 1.15-2.39 1.51-.29.12-.56.18-.82.18-.82 0-1.53-.6-2.43-2.05-.08.07-.17.13-.25.2-.25.2-.5.4-.77.58l-.24.15c-.45.29-.92.59-1.43.79-.53.2-1.03.31-1.51.31-.8 0-1.46-.29-1.91-.82-.54-.64-.73-1.59-.54-2.69.25-1.44.56-2.88.87-4.28l.39-1.8 1.77-8.42c.04-.19.07-.39.09-.58l.02-.17c-.5-.16-.88-.27-1.13-.27-.4 0-.52.25-.83 1.26-1.19 3.98-2.53 8.49-4.65 12.58C9.56 17.86 8.83 18.88 8 20c-.3.41-.74.8-1.37 1.21-.71.47-1.38.71-1.98.71-1.1 0-1.92-.78-2.38-2.26a.709.709 0 00-.11-.21l-.07-.11-.01-1.65c.6-1.04 1.33-1.56 2.15-1.56.47 0 .96.17 1.46.49l.06.04-.12.66c-.11.58-.21 1.17-.31 1.75-.01.06 0 .13.03.26.01.05.02.11.03.18.16-.12.32-.22.47-.33.4-.27.75-.51.97-.82.19-.28.39-.57.59-.85.88-1.26 1.79-2.56 2.37-3.96 1-2.41 1.88-4.93 2.72-7.36.34-.99.69-1.98 1.04-2.97.03-.07.03-.15.04-.23v-.03c-.19-.03-.38-.05-.57-.05-.76 0-1.39.28-1.82.82-.58.72-.75 1.81-.48 3.07l.02.08-.03.01c-.4.18-.79.27-1.17.27-1.13 0-1.93-.82-2.05-2.09-.1-1.12.17-2.12.78-2.81.57-.65 1.4-1.02 2.4-1.07.29-.01.58-.02.88-.02 1.08 0 2.19.09 3.26.17.65.05 1.3.1 1.95.13.47.02.94.04 1.4.05.66.02 1.33.05 1.99.09.19.01.87.13.9.39.04.34-.1.71-.27 1.05-.1.21-.23.41-.35.61-.2.32-.39.62-.46.95-.85 3.78-1.66 7.64-2.44 11.37l-.26 1.25c-.08.38-.15.79-.09 1.15.04.27.25.59.46.71.11.06.25.09.43.09.88 0 2.12-.73 2.25-1.32.48-2.15.94-4.3 1.39-6.45.02-.12.02-.25.01-.35V11l-1.11-.48.06-.1c.08-.13.15-.27.22-.42.16-.34.32-.68.61-.86.79-.48 1.59-.8 2.32-.92.14-.02.26-.03.38-.03.41 0 .73.13.93.38.24.3.31.76.19 1.34l-.54 2.53c-.29 1.32-.59 2.68-.85 4.03-.03.16-.08.34-.14.51-.21.69-.41 1.33.56 1.65.11.04.24.06.37.06.93 0 2.09-.95 2.29-1.88.24-1.11.48-2.23.71-3.34.24-1.14.48-2.28.73-3.41.26-1.18 1.1-1.88 2.25-1.88.12 0 .24.01.36.02.42.05.67.17.81.37.14.2.17.48.08.88-.51 2.21-.98 4.48-1.43 6.66l-.18.87c-.09.44-.18.91-.15 1.36.02.3.2.67.35.72.06.02.13.03.22.03.22 0 .5-.08.69-.2.21-.14.37-.38.53-.62l.13-.19c.41-.61.95-.93 1.55-.93.4 0 .83.14 1.27.42l.06.04-.08.41c-.08.4-.15.8-.23 1.21 0 .01.06.16.07.2 2.11-1.83 2.85-4.28 3.57-6.65.22-.73.45-1.48.71-2.2l-.13-.2-2.87 1.11-.05-.05c-.49-.56-.65-1.32-.42-2 .22-.62.74-1.05 1.44-1.17.53-.09 1.12-.14 1.79-.14.69 0 1.4.05 2.09.09.36.02.73.05 1.09.07.26.01.5.69.51.96.08 1.6.14 3.2.2 4.8l.07 2c.01.24.03.49.18.78l.1-.17c.13-.22.25-.44.38-.66l1.24-2.26c.74-1.35 1.48-2.71 2.23-4.06.36-.66.99-1.53 2.16-1.53.11 0 .22.01.33.02.3.04.63.11.82.35.14.19.18.47.12.87-.34 2.1-.62 4.24-.89 6.32l-.21 1.61c-.12.87-.08 1.38.13 1.63.12.15.31.23.59.25.06.01.11.01.17.01.59 0 1.2-.26 1.63-.68.35-.35.54-.77.53-1.19-.01-2.9.95-5.4 2.87-7.45 1.14-1.21 2.42-1.83 3.81-1.83.38 0 .77.05 1.17.14.58.14 1.09.52 1.59.89l.29.21c.19.14.25.63.14.83-.1.19-.43.37-.67.37l-.1-.01c-.52-.13-1.07-.26-1.6-.26-.71 0-1.28.22-1.8.68-1.18 1.07-1.88 2.54-2.06 4.36-.1 1.01-.02 2.08.23 3.02.19.73.65 1.15 1.26 1.15.35 0 .73-.14 1.08-.42 1.37-1.04 1.98-2.49 1.8-4.31-.02-.2-.3-.54-.48-.57-1.11-.23-1.02-1.1-.96-1.73.08-.82.59-1.33 1.45-1.46.14-.02.27-.03.4-.03.67 0 1.22.29 2.08 1.11l.26-.21c.26-.2.53-.41.79-.62.29-.23.58-.47.86-.72.62-.52 1.27-1.06 1.94-1.54.56-.4 1.23-.6 1.69-.69.23-.05.44-.07.62-.07.44 0 .78.13.99.39.26.32.32.82.18 1.49-.18.86-.36 1.72-.56 2.66l-.24 1.14.69-.05c.76-.05 1.47-.1 2.18-.19.08-.01.24-.31.32-.62.17-.68.31-1.36.46-2.04.08-.36.15-.72.23-1.08.19-.87.74-1.42 1.61-1.62.26-.06.49-.09.69-.09.37 0 .64.11.81.32.22.27.27.71.14 1.33-.16.77-.32 1.54-.49 2.3-.38 1.78-.77 3.62-1.11 5.44-.09.5 0 1.21.26 1.42.11.09.31.14.57.14.35 0 .72-.09.92-.14.96-.25 1.37-.79 1.36-1.82-.01-2.87.96-5.33 2.89-7.34 1.1-1.15 2.36-1.73 3.73-1.73.76 0 1.57.18 2.41.54.06.03.14.04.23.04.17 0 .35-.04.49-.08.15-.04.3-.11.44-.17.19-.08.38-.17.59-.21.22-.04.42-.05.59-.05.38 0 .64.09.79.29.2.25.23.66.09 1.32l-.42 1.97c-.4 1.89-.81 3.84-1.18 5.77-.1.53-.03 1.27.21 1.44.15.1.37.15.66.15.28 0 .61-.05.92-.14.96-.28 1.36-.83 1.36-1.84-.01-2.65.85-4.99 2.57-6.96 1.21-1.38 2.51-2.05 3.99-2.05.78 0 1.59.18 2.5.55.06.02.13.04.21.04.16 0 .35-.05.49-.12.49-.26.95-.39 1.4-.39.46 0 .92.14 1.35.41l.05.03v.26l-.28 1.13c-.19.76-.38 1.51-.56 2.27-.31 1.34-.61 2.68-.9 4.02-.63 2.88-1.28 5.85-2.13 8.72-1.64 5.46-4.09 7.4-9.36 7.4-.32 0-.65-.01-1-.02-3.7-.16-7.44-.6-11.06-1.03-.8-.09-3-.35-3-.35-7.71-.89-15.68-1.8-23.55-1.8-3.28 0-6.32.15-9.26.47-6.88.74-13.85 1.71-20.59 2.65-2.69.38-5.39.75-8.09 1.11-1.28.17-2.57.39-3.83.61-.6.1-1.21.21-1.82.3l-.11.02-.04-.16zm76.83-24.06c-1.15 0-2.1.54-2.82 1.59-1.1 1.61-1.35 3.45-1.45 5.05-.01.86.16 1.48.51 1.83.22.22.51.33.86.33 1.1-.03 2.43-1.12 2.65-2.12.17-.79.33-1.58.5-2.38.24-1.17.48-2.33.74-3.5.06-.27.05-.46-.03-.57-.08-.12-.25-.18-.54-.21-.15-.01-.28-.02-.42-.02zm13.8 0c-1.21 0-2.15.56-2.9 1.71-1.03 1.6-1.27 3.41-1.37 5.13.01.04.01.12.01.22 0 .25.01.6.17.82.29.39.82.83 1.27.88.04 0 .08.01.12.01.95 0 2.23-1.09 2.44-2.08.16-.74.31-1.48.46-2.22.24-1.2.49-2.43.77-3.64.07-.29.06-.48-.03-.6s-.26-.18-.6-.21c-.1-.01-.22-.02-.34-.02z" fill="#C20E1A"/><path d="M11.53 1.26c1.73 0 3.47.22 5.2.3 1.13.06 2.26.07 3.39.14.29.02.79.16.8.29.04.32-.11.68-.26 1-.25.54-.7 1.02-.83 1.58-.94 4.2-1.82 8.41-2.71 12.62-.08.39-.16.8-.1 1.18.05.29.26.64.51.78.13.07.29.11.48.11.87 0 2.2-.73 2.35-1.41.48-2.15.94-4.3 1.39-6.45.04-.18.01-.38.01-.51-.39-.17-.73-.31-1.07-.46.26-.42.42-1.01.79-1.24.69-.42 1.49-.78 2.28-.91.13-.02.25-.03.36-.03.86 0 1.22.6 1.02 1.59-.45 2.19-.97 4.36-1.39 6.56-.15.79-.85 1.85.49 2.29.13.04.26.06.4.06.98 0 2.18-.96 2.39-1.96.49-2.25.95-4.5 1.44-6.75.25-1.15 1.07-1.8 2.14-1.8.11 0 .23.01.35.02.69.08.98.35.8 1.12-.57 2.5-1.09 5.02-1.61 7.54-.09.45-.18.93-.15 1.38.02.29.2.73.42.81.07.03.16.04.25.04.25 0 .54-.09.74-.22.29-.18.48-.54.68-.84.4-.58.9-.88 1.47-.88.38 0 .78.13 1.21.4-.1.51-.2 1.03-.29 1.55-.01.06.04.12.13.39 2.91-2.43 3.29-5.92 4.44-9.05-.07-.11-.14-.21-.21-.32-.95.37-1.9.74-2.88 1.12-.91-1.03-.55-2.73.96-3 .58-.1 1.17-.14 1.77-.14 1.05 0 2.12.11 3.17.16.16.01.4.56.41.86.12 2.27.19 4.53.28 6.8.01.31.05.62.28.99.19-.33.38-.65.57-.99a775.5 775.5 0 013.47-6.32c.47-.84 1.07-1.48 2.07-1.48.1 0 .21.01.32.02.67.08.97.3.84 1.1-.42 2.64-.75 5.29-1.1 7.93-.19 1.43.03 1.94.82 2 .06 0 .12.01.18.01 1.18 0 2.27-.93 2.27-1.98-.01-2.83.9-5.31 2.84-7.38 1.05-1.11 2.29-1.8 3.73-1.8.37 0 .75.05 1.14.14.67.16 1.27.67 1.85 1.08.14.1.2.52.1.7-.09.16-.38.32-.58.32-.03 0-.05 0-.07-.01-.55-.14-1.1-.26-1.63-.26-.65 0-1.28.18-1.87.71-1.31 1.18-1.92 2.74-2.09 4.42-.1 1.01-.03 2.08.23 3.05.21.81.74 1.23 1.36 1.23.36 0 .76-.14 1.15-.44 1.45-1.1 2.01-2.62 1.84-4.4-.02-.25-.33-.62-.56-.67-.98-.21-.95-.91-.88-1.62.08-.8.58-1.25 1.36-1.37.13-.02.26-.03.38-.03.66 0 1.22.32 2.07 1.14.37-.29.75-.58 1.13-.88.93-.75 1.83-1.56 2.8-2.25.47-.34 1.07-.55 1.65-.67.22-.05.42-.07.6-.07.94 0 1.3.61 1.07 1.76-.25 1.24-.52 2.47-.83 3.93 1.08-.08 2.06-.12 3.02-.25.17-.02.34-.44.41-.7.26-1.04.47-2.08.7-3.12.19-.83.7-1.35 1.53-1.54.25-.06.47-.09.67-.09.78 0 1.06.5.85 1.52-.54 2.58-1.11 5.15-1.6 7.74-.09.49-.02 1.27.29 1.52.15.12.38.16.63.16.31 0 .66-.07.94-.14.94-.24 1.44-.77 1.44-1.92-.01-2.76.91-5.24 2.86-7.27 1.1-1.14 2.32-1.7 3.66-1.7.75 0 1.54.18 2.37.53.08.04.18.05.27.05.17 0 .36-.04.52-.08.35-.09.67-.32 1.02-.37.22-.04.41-.05.58-.05.81 0 1 .43.79 1.48-.54 2.58-1.11 5.15-1.6 7.74-.1.51-.05 1.33.25 1.54.18.12.44.17.72.17.32 0 .66-.06.94-.14.91-.26 1.44-.78 1.43-1.94-.01-2.57.82-4.92 2.54-6.89 1.19-1.36 2.46-2.02 3.92-2.02.76 0 1.58.18 2.46.54.07.03.16.04.25.04.18 0 .39-.05.53-.13.46-.25.91-.38 1.35-.38.43 0 .87.12 1.3.39v.2c-.28 1.12-.57 2.25-.84 3.38-1 4.25-1.79 8.56-3.04 12.74-1.6 5.36-4.02 7.33-9.26 7.33-.32 0-.65-.01-.99-.02-4.49-.19-8.97-.79-13.44-1.31-8.04-.92-16.09-1.87-24.16-1.87-3.09 0-6.18.14-9.28.47-9.58 1.03-19.12 2.48-28.68 3.76-1.88.25-3.74.6-5.65.91-.41-3.91-3.38-5.88-6.14-8.21 2.95.26 5.73.53 8.5.74 5.6.43 11.2.65 16.81.65 4.26 0 8.52-.13 12.79-.41 3.94-.26 7.88-.4 11.81-.4 9.63 0 19.22.88 28.71 3.1 2.02.47 4.05.73 6.09.73 1.67 0 3.35-.17 5.03-.53 2-.42 3.51-1.35 4.16-3.42.7-2.21 1.48-4.4 2.18-6.46-1.19.59-2.32 1.43-3.57 1.69-.19.04-.37.06-.55.06-1.22 0-2.08-.94-2.6-2.29-.28.22-.49.41-.73.56-.75.49-1.47 1.07-2.29 1.41-.56.24-1.06.36-1.5.36-1.08 0-1.81-.71-2.33-2.09-1.18.67-2.32 1.61-3.62 1.97-.25.07-.49.1-.72.1-1.21 0-2.09-.93-2.63-2.31-.33.3-.56.6-.86.76-.98.53-1.94 1.23-3 1.47-.22.05-.43.08-.64.08-1.5 0-2.5-1.31-2.3-3.08.13-1.15.38-2.28.59-3.49-1.04.17-2 .29-2.92.51-.22.05-.46.44-.52.72-.32 1.26-.54 2.55-.86 3.81-.25.98-1.06 1.55-2 1.55-.15 0-.31-.02-.47-.05-.62-.12-.82-.38-.67-1.04.65-2.86 1.26-5.73 1.88-8.61.09-.43.11-.88.19-1.63-.6.38-.98.55-1.28.82-1.32 1.18-2.49 2.31-2.75 4.34-.3 2.32-1.88 4.09-3.91 5.33-.91.55-1.76.83-2.56.83-1.33 0-2.52-.77-3.57-2.3-.38.31-.72.66-1.13.9-.8.46-1.61.99-2.48 1.25-.33.09-.64.14-.93.14-1.36 0-2.3-.98-2.28-2.57.02-1.49.32-2.98.49-4.47.04-.31.08-.62-.07-.99-.14.24-.3.47-.42.72-1.13 2.16-2.27 4.31-3.36 6.49-.27.54-.62.84-1.13.84-.12 0-.25-.02-.38-.05-.73-.17-1.05-.66-1.05-1.38v-6.6l-.37-.06c-.1.25-.19.49-.3.73-.77 1.69-1.5 3.41-2.34 5.07-.29.57-.81 1.07-1.31 1.5-.62.54-1.14.8-1.62.8-.54 0-1.01-.33-1.48-.97-1.25.32-2.39.82-3.55.84h-.04c-1.42 0-1.87-1.2-1.97-2.24-1.09.74-2.13 1.7-3.36 2.22-.28.12-.54.18-.78.18-.86 0-1.56-.71-2.4-2.09-.37.28-.72.59-1.11.84-.53.34-1.06.71-1.65.94-.53.2-1.02.3-1.47.3-1.67 0-2.7-1.32-2.35-3.39.35-2.04.83-4.05 1.26-6.07l1.77-8.43c.06-.28.08-.57.12-.84-.58-.19-.97-.3-1.25-.3-.49 0-.63.37-.92 1.34-1.28 4.28-2.58 8.57-4.64 12.56-.59 1.15-1.36 2.21-2.13 3.26-.35.47-.84.86-1.34 1.19-.7.46-1.35.69-1.92.69-1.04 0-1.83-.75-2.28-2.19-.04-.12-.12-.23-.18-.34v-1.6c.57-.97 1.27-1.46 2.05-1.46.44 0 .91.16 1.4.48-.14.78-.29 1.56-.42 2.34-.02.12.03.25.09.64.62-.48 1.26-.78 1.6-1.28 1.07-1.56 2.25-3.11 2.97-4.83 1.41-3.38 2.53-6.88 3.77-10.33.04-.12.04-.25.06-.38-.24-.05-.46-.07-.68-.07-1.87 0-2.9 1.66-2.4 4.02-.39.18-.78.26-1.13.26-1.04 0-1.83-.74-1.95-2-.19-2.09.95-3.67 3.08-3.77.35-.01.64-.02.93-.02zm85.11 17.78c1.03 0 2.33-1.17 2.54-2.17.42-1.95.77-3.91 1.23-5.85.17-.72-.12-.89-.72-.94-.12-.01-.25-.02-.37-.02-1.3 0-2.27.65-2.98 1.76-.97 1.5-1.27 3.19-1.39 5.18.03.22-.04.78.2 1.11.31.42.86.87 1.35.92.05.01.1.01.14.01zm-14.01.04h.05c1.07-.03 2.47-1.14 2.7-2.2.42-1.96.79-3.92 1.24-5.87.15-.65-.09-.85-.66-.91-.15-.02-.29-.02-.42-.02-1.24 0-2.19.59-2.9 1.63-1.07 1.57-1.36 3.38-1.47 5.1-.03 1.5.5 2.27 1.46 2.27zM11.53 1.06c-.29 0-.59.01-.88.02-1.03.05-1.89.43-2.47 1.11-.62.72-.91 1.75-.8 2.89.12 1.33.97 2.19 2.15 2.19.39 0 .8-.1 1.22-.28l.15-.07-.04-.17c-.26-1.23-.1-2.29.46-2.99.41-.51 1.01-.78 1.74-.78.15 0 .3.01.45.03-.01.05-.01.1-.03.13-.35.99-.7 1.98-1.04 2.97-.85 2.43-1.72 4.95-2.72 7.36-.58 1.39-1.49 2.69-2.36 3.95-.2.28-.4.57-.59.85-.21.3-.55.53-.94.79-.11.08-.23.15-.34.23v-.02c-.02-.11-.03-.18-.03-.22.1-.59.2-1.17.31-1.76l.11-.58.02-.13-.12-.08c-.52-.34-1.02-.51-1.51-.51-.86 0-1.63.54-2.23 1.56L2 17.6v1.71l.03.05c.02.04.04.08.07.12.04.07.08.13.1.19.6 1.93 1.68 2.34 2.48 2.34.62 0 1.31-.25 2.04-.73.64-.42 1.08-.82 1.39-1.24.83-1.13 1.56-2.15 2.14-3.29 2.12-4.1 3.47-8.61 4.66-12.6.3-1.01.41-1.19.72-1.19.23 0 .58.1 1.02.24 0 .03-.01.06-.01.09-.02.19-.05.38-.08.57-.36 1.74-.73 3.48-1.1 5.22l-.67 3.2-.39 1.8c-.31 1.4-.62 2.85-.87 4.28-.19 1.12 0 2.11.56 2.77.47.56 1.16.86 1.99.86.49 0 1.01-.11 1.54-.31.51-.2.99-.51 1.44-.8l.24-.15c.28-.18.54-.38.79-.58l.15-.12c.89 1.42 1.61 2 2.46 2 .28 0 .56-.06.87-.19.88-.37 1.66-.96 2.42-1.53.23-.17.46-.35.7-.51.23 1.34.97 2.08 2.13 2.08h.05c.82-.02 1.62-.26 2.47-.52.33-.1.66-.21 1-.29.51.64 1.01.94 1.57.94.53 0 1.09-.27 1.75-.85.5-.43 1.04-.95 1.36-1.56.62-1.23 1.19-2.5 1.74-3.73.2-.45.4-.9.61-1.35.08-.17.14-.34.21-.51l.03-.08h.03v6.42c0 .85.42 1.4 1.21 1.59.15.04.3.05.43.05.57 0 1-.31 1.32-.95.84-1.68 1.73-3.38 2.59-5.02l.77-1.47c.04-.08.09-.16.13-.24 0 .11-.01.23-.03.35-.06.49-.12.94-.19 1.39-.15 1.02-.3 2.08-.31 3.14-.01.87.25 1.59.74 2.09.44.45 1.05.69 1.75.69.32 0 .65-.05.99-.15.74-.21 1.42-.62 2.08-1.01.15-.09.29-.17.44-.26.3-.17.57-.41.82-.63.06-.05.11-.1.17-.15 1.06 1.46 2.27 2.21 3.61 2.21.83 0 1.73-.29 2.66-.86 1.63-.99 3.65-2.74 4-5.48.25-1.9 1.31-2.99 2.68-4.21.18-.16.39-.28.69-.46.06-.04.13-.08.2-.12l-.03.27c-.03.36-.06.65-.12.92-.61 2.83-1.22 5.75-1.88 8.6-.09.39-.07.66.07.87.18.27.52.37.76.41.17.03.34.05.51.05 1.07 0 1.93-.67 2.2-1.7.17-.67.32-1.36.46-2.02.12-.59.26-1.2.4-1.79.06-.26.27-.54.37-.57.66-.16 1.34-.27 2.06-.38l.55-.09c-.05.28-.1.56-.16.84-.15.82-.3 1.59-.39 2.38-.11 1 .13 1.9.69 2.52.46.51 1.1.79 1.82.79.22 0 .45-.03.68-.08.82-.19 1.57-.63 2.31-1.06.25-.15.5-.29.75-.43.23-.12.41-.31.6-.5.02-.03.05-.05.08-.08.62 1.39 1.57 2.15 2.7 2.15.25 0 .51-.04.78-.11.93-.26 1.78-.8 2.6-1.33.28-.18.57-.37.86-.54.56 1.35 1.36 2 2.44 2 .47 0 .99-.12 1.58-.37.6-.26 1.15-.64 1.68-1 .21-.14.42-.29.63-.43.17-.11.32-.23.49-.37.01-.01.03-.02.04-.03.61 1.39 1.55 2.16 2.69 2.16.19 0 .39-.02.6-.07.9-.19 1.73-.67 2.54-1.12.2-.12.41-.23.62-.35-.16.46-.32.92-.48 1.39-.51 1.49-1.04 3.03-1.54 4.58-.57 1.8-1.81 2.82-4.01 3.28-1.63.35-3.31.52-4.99.52-1.97 0-4.01-.24-6.04-.72-8.91-2.09-18.32-3.11-28.75-3.11-3.75 0-7.73.14-11.82.4-4.17.27-8.47.41-12.78.41-5.42 0-11.07-.22-16.8-.65-1.89-.14-3.76-.31-5.73-.49-.91-.08-1.83-.17-2.77-.25l-.65-.06.5.42c.32.27.65.54.97.81 2.44 2 4.74 3.89 5.1 7.26l.02.22.22-.04c.61-.1 1.21-.2 1.81-.3 1.26-.21 2.56-.43 3.84-.61 2.7-.36 5.39-.74 8.08-1.11 6.74-.94 13.71-1.91 20.59-2.65 2.95-.32 5.97-.47 9.26-.47 7.87 0 15.84.92 23.55 1.8l.59.07c.8.09 1.6.19 2.39.28 3.62.43 7.37.87 11.06 1.03.34.02.68.02 1 .02 5.26 0 7.83-2.03 9.46-7.47.86-2.86 1.51-5.84 2.13-8.72.29-1.32.59-2.69.9-4.03.18-.77.38-1.54.57-2.31l.27-1.06.01-.02v-.35l-.1-.06c-.46-.28-.93-.43-1.41-.43-.47 0-.95.13-1.45.41-.12.06-.29.11-.43.11-.07 0-.13-.01-.18-.03-.92-.38-1.75-.56-2.54-.56-1.51 0-2.85.68-4.07 2.09-1.73 1.99-2.61 4.35-2.59 7.03.01.97-.37 1.47-1.28 1.74-.3.09-.62.14-.89.14s-.47-.05-.6-.14c-.18-.13-.26-.8-.16-1.33.36-1.93.78-3.89 1.18-5.78.14-.65.28-1.3.41-1.96.14-.69.11-1.13-.12-1.4-.18-.22-.46-.32-.88-.32-.17 0-.37.02-.61.06-.22.03-.42.13-.62.21-.15.07-.28.13-.42.17-.14.04-.31.08-.47.08-.08 0-.14-.01-.19-.03-.85-.36-1.67-.55-2.45-.55-1.4 0-2.68.59-3.81 1.76-1.95 2.02-2.93 4.51-2.92 7.41 0 .98-.37 1.48-1.29 1.72-.19.05-.55.13-.89.13-.29 0-.43-.06-.5-.12-.21-.17-.31-.82-.22-1.32.34-1.82.73-3.65 1.11-5.43.16-.77.33-1.54.49-2.31.14-.65.08-1.12-.16-1.42-.19-.24-.49-.36-.89-.36-.21 0-.45.03-.71.1-.9.21-1.48.8-1.68 1.7-.08.35-.16.71-.23 1.06-.15.68-.3 1.38-.47 2.06-.07.27-.2.51-.26.55-.68.09-1.4.14-2.16.19-.18.01-.36.02-.54.04l.22-1.05c.2-.92.38-1.76.55-2.61.15-.7.08-1.24-.21-1.58-.23-.28-.59-.43-1.07-.43-.19 0-.41.02-.64.07-.47.1-1.15.3-1.73.71-.67.48-1.32 1.02-1.94 1.54l-.87.72c-.26.21-.52.41-.78.61l-.2.16c-.83-.78-1.41-1.08-2.08-1.08-.13 0-.27.01-.41.03-.91.14-1.45.69-1.54 1.56-.07.64-.16 1.6 1.04 1.85.13.03.38.31.4.48.17 1.79-.43 3.2-1.76 4.22-.34.26-.69.39-1.02.39-.56 0-.98-.39-1.16-1.07-.25-.93-.33-1.99-.23-2.98.18-1.79.86-3.24 2.02-4.29.49-.45 1.04-.65 1.73-.65.53 0 1.07.12 1.58.26.04.01.08.01.12.01.28 0 .64-.2.76-.43.14-.25.08-.79-.17-.96-.1-.07-.19-.14-.29-.21-.51-.37-1.03-.76-1.63-.9-.4-.1-.8-.14-1.19-.14-1.41 0-2.72.63-3.88 1.86-1.94 2.06-2.91 4.6-2.9 7.52 0 .39-.18.79-.5 1.11-.41.41-.99.65-1.56.65-.05 0-.11 0-.16-.01-.25-.02-.42-.09-.52-.21-.19-.23-.22-.72-.11-1.55l.21-1.62c.27-2.07.55-4.21.89-6.31.07-.43.03-.73-.14-.95-.21-.27-.56-.35-.89-.39-.12-.02-.23-.02-.34-.02-1.23 0-1.87.9-2.25 1.59-.75 1.36-1.5 2.72-2.24 4.08l-1.22 2.23c-.12.22-.24.43-.37.64-.07-.2-.08-.38-.09-.56-.03-.67-.05-1.33-.07-1.99-.06-1.58-.12-3.21-.2-4.81-.01-.27-.25-1.04-.61-1.06-.36-.02-.72-.04-1.08-.07-.69-.05-1.4-.1-2.1-.1-.68 0-1.27.05-1.8.14-.73.13-1.29.58-1.52 1.24-.25.71-.08 1.51.44 2.1l.1.11.14-.05 1.98-.77.74-.29.06.09c-.26.71-.48 1.45-.69 2.16-.7 2.32-1.42 4.71-3.43 6.51-.01-.01-.01-.03-.01-.04.07-.36.15-.77.22-1.16l.07-.29.03-.14-.12-.08c-.46-.29-.9-.43-1.32-.43-.64 0-1.2.34-1.64.97l-.13.19c-.15.23-.3.47-.49.59-.18.11-.43.19-.63.19-.07 0-.13-.01-.18-.03-.09-.03-.27-.35-.28-.63-.03-.43.05-.87.15-1.33l.17-.84c.46-2.2.93-4.47 1.43-6.7.1-.42.07-.73-.09-.96-.21-.3-.61-.38-.89-.41-.13-.02-.25-.02-.38-.02-1.2 0-2.08.74-2.35 1.96-.25 1.14-.49 2.28-.73 3.42-.23 1.11-.47 2.23-.71 3.34-.19.89-1.3 1.79-2.19 1.79-.12 0-.23-.02-.33-.05-.83-.27-.73-.76-.49-1.52.05-.17.11-.35.14-.52.26-1.35.55-2.71.84-4.02.18-.84.37-1.68.55-2.53.13-.61.05-1.1-.21-1.43-.22-.27-.57-.42-1.01-.42-.12 0-.26.01-.4.03-.74.12-1.56.44-2.36.93-.31.19-.48.55-.65.9-.07.14-.13.28-.21.41l-.12.2.22.09.82.36.12.05c.01.1.01.22-.01.32-.42 1.99-.9 4.24-1.39 6.45-.12.55-1.32 1.24-2.15 1.24-.16 0-.29-.03-.37-.08-.18-.11-.37-.4-.41-.64-.06-.34.01-.74.09-1.11l.25-1.19c.79-3.75 1.61-7.62 2.46-11.43.07-.31.26-.6.45-.91.13-.2.26-.4.36-.62.17-.36.32-.74.28-1.11-.05-.39-.98-.48-.99-.48-.66-.04-1.33-.07-1.97-.09-.47-.02-.95-.03-1.42-.05-.65-.03-1.3-.08-1.95-.13-1.06-.07-2.17-.15-3.26-.15zM95.17 17c.1-1.7.34-3.49 1.35-5.06.72-1.12 1.64-1.66 2.81-1.66.11 0 .23.01.35.02.3.02.46.08.52.17.06.09.07.26.01.51-.28 1.21-.53 2.45-.77 3.65l-.45 2.21c-.2.93-1.45 2-2.34 2-.04 0-.07 0-.11-.01-.41-.04-.91-.45-1.2-.84-.14-.19-.15-.52-.15-.76-.01-.09-.01-.17-.02-.23zm-12.54 1.87c-.32 0-.59-.1-.79-.3-.32-.33-.49-.94-.48-1.76.1-1.57.35-3.39 1.43-4.98.7-1.02 1.62-1.54 2.73-1.54.13 0 .26.01.4.02.25.03.4.08.47.17.06.09.07.25.01.49-.27 1.16-.51 2.35-.74 3.49-.16.79-.33 1.59-.5 2.38-.2.94-1.51 2.01-2.5 2.04l-.03-.01z" fill="#fff"/></svg>