<svg width="285" height="89" viewBox="0 0 285 89" fill="none" xmlns="http://www.w3.org/2000/svg">
<path fill-rule="evenodd" clip-rule="evenodd" d="M22.3633 0.649222C19.1448 1.38456 16.9122 3.67559 16.1728 7.00305C15.1333 11.6807 17.3288 15.3879 21.1331 15.3788C24.0422 15.3718 24.2355 15.2094 23.9956 12.9746C23.4567 7.95551 26.4906 4.16183 31.0545 4.14778C32.5705 4.14321 32.9659 4.25915 32.9659 4.7071C32.9659 5.42979 26.605 22.8108 23.9792 29.2623C22.8782 31.9676 21.408 35.1742 20.7119 36.3877C19.1426 39.1242 14.988 45.0803 13.7105 46.4249C12.7882 47.3956 9.92796 49.4639 9.5078 49.4639C9.13934 49.4639 9.31338 46.5447 9.8322 44.0183C10.406 41.2252 10.224 40.8795 7.96261 40.4702C5.77736 40.0746 4.1448 40.6188 2.47364 42.2988C1.00418 43.7769 0.92627 43.961 0.92627 45.9646C0.92627 49.8535 3.79673 54.2835 6.71853 54.9025C8.40025 55.2591 11.4812 54.2357 13.8991 52.5177C15.3194 51.5083 16.8296 49.9175 18.4024 47.7733C24.0815 40.0331 28.3242 30.3982 34.2897 11.6958C35.3991 8.2176 36.5791 5.0781 36.9119 4.71904C37.4009 4.19169 37.8509 4.10421 39.2552 4.26407C41.3978 4.5086 41.7044 4.68286 41.7026 5.65604C41.7018 6.0794 40.2193 13.145 38.4079 21.3574C32.3128 48.9942 32.363 48.6759 33.6562 51.424C35.9565 56.311 42.1366 56.077 49.3149 50.8309C50.9711 49.6202 51.3323 49.4794 51.5988 49.9389C53.2798 52.8374 56.0421 55.0852 57.9226 55.0852C59.4147 55.0852 62.6041 53.4796 65.9861 51.0259C67.4268 49.9807 68.7844 49.0834 69.0033 49.0314C69.2224 48.9794 69.7114 49.8047 70.0897 50.8654C71.6123 55.1316 74.3047 55.5374 83.2347 52.8476L84.8982 52.3466L86.0855 53.5186C86.7387 54.1629 87.7435 54.7901 88.3184 54.912C89.8527 55.237 92.2062 54.0927 94.5451 51.8842C96.6404 49.9055 97.8779 47.69 102.524 37.5994C105.474 31.1926 105.562 31.3471 105.783 43.3546C105.985 54.2624 105.951 54.1152 108.368 54.7433C111.049 55.4397 111.322 55.1151 117.011 44.4694C119.828 39.1973 122.376 34.5674 122.671 34.181C123.67 32.8733 123.723 34.4336 122.882 40.344C121.936 46.9937 122.02 50.7392 123.149 52.2099C124.542 54.0252 126.07 54.7339 128.589 54.7339C130.649 54.7339 131.275 54.5452 134.375 52.9895C136.287 52.0304 138.542 50.6992 139.386 50.0316L140.921 48.8178L142.779 50.8144C145.438 53.6721 147.819 54.8372 150.999 54.8372C153.204 54.8372 153.868 54.6625 156.561 53.3749C158.718 52.3438 160.471 51.139 162.507 49.2917C166.037 46.0869 167.689 43.2682 168.727 38.6784C169.665 34.5306 170.79 32.4517 173.712 29.4623C175.777 27.3508 179.073 24.8707 179.816 24.8707C180.559 24.8707 179.053 32.762 175.297 48.5515C174.703 51.0449 174.313 53.3732 174.429 53.7259C174.898 55.1512 178.716 55.2468 180.866 53.8872C182.226 53.0274 182.759 51.7022 184.097 45.8515C185.644 39.0908 185.851 38.7725 189.037 38.2364C193.803 37.4343 194.985 37.3732 194.985 37.929C194.985 38.2083 194.657 40.1582 194.256 42.2616C193.288 47.3464 193.311 49.6062 194.348 51.5649C195.816 54.3379 198.497 55.4421 201.773 54.6221C203.896 54.0906 209.471 51.222 211.158 49.7917L212.357 48.7763L213.014 50.1817C213.896 52.0683 216.416 54.248 218.274 54.7307C220.729 55.3684 223.029 54.508 230.373 50.2048L231.72 49.4158L232.644 51.1749C235.425 56.4708 240.601 56.1406 248.811 50.1441L250.646 48.8044L251.747 50.6876C252.353 51.7237 253.456 53.0183 254.199 53.5646C255.394 54.4447 255.851 54.5582 258.199 54.5582C260.719 54.5582 261.048 54.4581 264.911 52.5177C267.146 51.3955 269.057 50.5572 269.158 50.6549C269.399 50.8878 263.191 68.596 262.309 70.1924C259.441 75.3809 252.928 77.7422 240.313 78.1666C232.86 78.4175 228.623 77.9685 218.104 75.8127C199.555 72.0116 186.969 70.2873 167.678 68.9045C156.02 68.0686 125.641 68.0641 112.519 68.896C94.0929 70.0646 85.5048 70.2852 66.2799 70.0835C44.3316 69.8534 36.4568 69.4708 13.701 67.5304C8.21165 67.0621 3.4949 66.6791 3.21965 66.6791C2.9444 66.6791 4.24092 67.8905 6.10067 69.3714C10.6004 72.9539 14.6553 77.0272 16.2139 79.5301C17.6324 81.8085 19.107 85.67 19.1212 87.1442C19.1324 88.2955 18.9602 88.2867 24.2278 87.4049C34.4547 85.6925 91.8009 78.2291 109.06 76.3639C139.477 73.0772 157.664 73.8003 218.65 80.7204C250.843 84.3736 259.42 83.7141 266.18 77.0652C271.154 72.1736 273.902 64.6077 279.268 41.0319C280.389 36.1045 281.975 29.398 282.792 26.1281C284.179 20.5809 284.236 20.1537 283.652 19.7416C282.51 18.9357 280.42 18.8176 278.7 19.4616C276.697 20.2113 274.76 20.2142 272.183 19.4718C266.412 17.8089 261.101 19.6211 256.719 24.7474C252.844 29.2806 250.88 34.123 250.344 40.4638C250.149 42.7735 249.765 44.9475 249.446 45.542C248.222 47.827 242.578 49.0574 241.147 47.3513C240.774 46.9073 240.496 45.9987 240.496 45.2275C240.496 43.9673 242.135 35.7363 244.292 26.1601C245.38 21.3328 245.441 20.2071 244.657 19.45C243.874 18.695 242.574 18.7498 239.676 19.6598L237.219 20.4316L234.658 19.6215C231.125 18.5039 226.998 18.6932 224.142 20.1035C220.59 21.8573 216.948 25.7476 214.519 30.3834C213.118 33.0553 212.162 36.8356 211.796 41.1437C211.437 45.3846 210.95 46.4031 208.796 47.4188C208.109 47.7434 206.777 48.1155 205.838 48.2462C204.318 48.4573 204.027 48.3846 203.198 47.5843C201.795 46.2302 201.96 44.4883 204.645 32.3302C207.103 21.2 207.218 19.9264 205.836 19.2125C204.87 18.7133 202.375 19.085 200.907 19.9464C199.304 20.8873 198.84 21.9269 197.526 27.5313C196.85 30.4119 196.118 32.6829 195.748 33.0529C195.26 33.5398 194.221 33.7439 191.137 33.9596C188.948 34.1125 187.08 34.1778 186.987 34.1044C186.894 34.031 187.346 31.4884 187.992 28.4546C189.311 22.2572 189.394 21.135 188.613 20.0582C187.839 18.9919 186.401 18.8008 183.901 19.4321C181.124 20.1334 180.352 20.6105 174.181 25.437L169.057 29.4454L167.757 28.3436C166.377 27.1744 164.484 26.2746 163.412 26.2781C160.394 26.2873 158.58 28.033 158.577 30.9312C158.576 32.6341 159.44 34.0053 160.515 34.0053C160.78 34.0053 161.375 34.3932 161.837 34.8675C162.602 35.6534 162.661 35.9724 162.508 38.4686C162.3 41.86 161.4 43.9125 159.057 46.3406C155.436 50.0917 151.979 50.0439 150.392 46.2208C149.557 44.2083 149.27 39.0132 149.82 35.867C150.645 31.1448 153.908 26.1004 157.18 24.4899C158.695 23.7436 162.269 23.5778 164.359 24.1564C165.908 24.5851 166.95 24.0971 166.95 22.9429C166.95 22.0218 164.822 20.3793 162.322 19.3713C160.495 18.6349 156.248 18.6817 154.186 19.4609C146.897 22.2164 140.379 32.444 140.369 41.1426C140.367 43.7477 139.822 45.295 138.464 46.5594C137.014 47.9082 135.715 48.4099 133.669 48.4099C131.522 48.4099 130.803 47.5885 130.831 45.1692C130.852 43.3314 132.085 33.8149 133.435 25.0699C133.903 22.0379 134.022 20.3192 133.791 19.9029C133.313 19.0418 131.145 18.7175 129.345 19.2378C126.955 19.9289 126.214 20.8887 121.607 29.2623C118.647 34.643 114.47 41.8941 114.137 42.231C113.435 42.9421 113.112 40.37 112.725 30.9895C112.503 25.5951 112.147 20.7619 111.935 20.2482C111.557 19.3362 111.453 19.3095 107.33 19.0607C101.933 18.7354 97.5069 19.001 96.0273 19.7395C94.4042 20.5493 93.6472 22.1247 93.8591 24.2524C94.1376 27.049 94.466 27.1371 98.6836 25.546C102.561 24.083 103.067 23.9724 103.411 24.5095C103.792 25.105 99.2225 38.1925 97.4942 41.456C95.5037 45.2131 91.4907 49.6396 90.871 48.7612C90.6668 48.4714 90.5736 48.0385 90.6643 47.7993C90.7553 47.56 90.934 46.6048 91.0615 45.6762C91.2792 44.0941 91.2329 43.961 90.3293 43.564C87.9787 42.5304 85.677 43.3363 83.9126 45.8104C82.4377 47.879 80.6358 48.7047 79.3583 47.897C77.5542 46.7565 77.5939 46.3265 80.8539 31.6602C82.1646 25.7641 83.1393 20.6421 83.0195 20.2781C82.5014 18.7027 78.3013 18.7031 76.2249 20.2792C74.7995 21.3609 74.2337 23.0891 72.0816 32.9299C70.9642 38.039 69.8246 42.64 69.549 43.1543C68.9381 44.2941 66.7066 46.2295 65.4876 46.6768C63.7844 47.3014 61.7648 47.071 60.8022 46.1421C59.7675 45.1439 59.7005 44.2533 60.4505 41.4658C61.5559 37.3577 64.643 22.9008 64.6422 21.8356C64.6411 20.1102 63.6166 19.1609 61.782 19.1851C58.5066 19.229 54.3808 21.1736 53.3242 23.172C52.9405 23.8975 52.6266 24.5594 52.6266 24.643C52.6266 24.7263 53.282 25.0474 54.083 25.3566C54.884 25.6661 55.5393 26.1492 55.5393 26.4306C55.5393 26.712 54.6255 31.0215 53.5084 36.0072C51.2642 46.0258 51.1462 46.2777 48.0253 47.6932C44.5468 49.271 42.0666 48.1963 42.0696 45.1127C42.0703 44.3176 43.2878 38.1335 44.7751 31.3703C49.4725 10.0115 49.9167 8.2703 51.1674 6.30917C52.7031 3.90044 53.0861 2.54817 52.3903 1.9906C52.043 1.7127 49.5636 1.45869 45.4126 1.27565C41.8711 1.11965 36.8518 0.831211 34.2584 0.634817C28.7611 0.218138 24.2264 0.22376 22.3633 0.649222ZM235.307 24.2425C235.558 24.4421 235.762 24.9476 235.762 25.3657C235.762 26.7753 232.139 42.8712 231.692 43.4473C228.595 47.4395 224.352 49.0374 222.149 47.0408C220.701 45.7282 220.342 44.1563 220.581 40.175C220.804 36.445 221.727 32.9566 223.265 30.0212C224.319 28.012 226.742 25.3812 228.217 24.6452C230.447 23.5318 234.152 23.3217 235.307 24.2425ZM273.948 24.3304C274.375 24.7393 274.192 26.016 272.73 32.834C270.548 43.0085 270.484 43.2151 268.979 44.9113C267.414 46.675 265.367 47.7072 263.433 47.7072C262.207 47.7072 261.681 47.4662 260.415 46.324L258.882 44.9405L258.936 41.6689C259.061 34.1462 261.978 27.3669 266.165 24.8697C268.467 23.497 272.766 23.1991 273.948 24.3304Z" fill="white"/>
</svg>
