<svg width="259" height="258" fill="none" xmlns="http://www.w3.org/2000/svg"><path d="M76.901 106.426l19.835-7.223c10.781-3.926 22.7 1.632 26.623 12.414l-19.835 7.223c-10.78 3.926-22.7-1.632-26.623-12.414z" fill="#248C2D"/><path fill-rule="evenodd" clip-rule="evenodd" d="M121.508 102.877c.182 2.919.78 5.861 1.831 8.748l30.146-10.978c13.31-4.846 21.321-17.81 20.482-31.269a31.264 31.264 0 00-1.83-8.748L141.99 71.608c-13.309 4.846-21.32 17.81-20.482 31.269zm8.823-3.213c.5-8.65 6.029-16.59 14.684-19.743l20.13-7.33c-.501 8.65-6.029 16.591-14.684 19.743l-20.13 7.33zm-67.617 26.849c-1.836 1.742-1.822 2.697.116 8.023 1.34 3.684 1.614 4.787 1.184 4.766-5.1-.241-9.652 1.461-12.862 4.808-2.403 2.505-4.13 6.349-4.45 9.901l-.234 2.595 3.95 10.857 3.95 10.856 1.985 1.906c6.421 6.166 16.584 5.951 22.78-.482 2.157-2.238 4.047-6.557 4.35-9.939l.236-2.612-7.111-19.9c-7.922-22.168-7.735-21.788-10.758-21.929-.836-.038-1.655-.013-1.819.056-.163.069-.756.561-1.317 1.094zm113.832-41.797c-1.438 1.132-2.053 2.132-2.115 3.434-.054 1.135 1.323 5.263 6.546 19.62 3.638 10.001 7.104 19.005 7.702 20.01 3.432 5.772 10.24 8.797 16.927 7.523 4.524-.861 8.861-4.143 11.039-8.353 1.425-2.754 2.02-6.777 1.476-9.989-.523-3.096-5.303-16.297-6.838-18.885a16.17 16.17 0 00-12.483-7.85c-2.196-.194-3.66-.034-5.918.646-2.279.686-3.472 1.281-4.954 2.47-1.075.861-2.075 1.51-2.223 1.441-.148-.069-1.006-2.15-1.907-4.627-1.838-5.054-2.472-5.796-5.052-5.916-.82-.038-1.536-.037-1.59.002a32.59 32.59 0 00-.61.474zm21.89-7.488c-1.23 1.3-1.401 2.965-.45 4.37 1.414 2.09 4.5 2.12 5.943.06 1.577-2.25.156-5.3-2.589-5.559-.839-.078-1.587-.12-1.661-.092-.075.027-.634.576-1.243 1.22zm3.693-.158c.715.332 1.42.938 1.569 1.345.148.408.074 1.332-.164 2.055-.314.956-.79 1.445-1.74 1.791-1.511.55-2.919-.191-3.525-1.856-.425-1.168.595-3.224 1.82-3.67.408-.149 1.326.002 2.04.335zm-3.027 1.195c-.263.563 1.018 3.728 1.446 3.572.213-.078.261-.49.106-.917-.156-.427-.119-.835.08-.907.199-.073.599.176.89.554.29.377.691.626.89.554.483-.176.22-.837-.382-.961-.297-.061-.338-.402-.107-.897.496-1.061.303-1.464-.776-1.618-1.028-.147-1.908.108-2.147.62zm2.337.283c.022.823-1.151 1.368-1.41.655-.131-.359.11-.73.587-.904.474-.173.815-.07.823.25zm-114.12 51.146c-3.458 2.267-6.262 6.956-6.847 11.449-.344 2.64-.275 3.033 1.439 8.176.99 2.971 2.067 5.796 2.393 6.277.325.482 1.28 1.013 2.12 1.182 1.433.288 2.284.032 13.649-4.106l12.121-4.412.856-1.594.855-1.594-2.021-5.556c-1.968-5.41-2.077-5.611-4.149-7.656-2.564-2.531-4.851-3.84-7.867-4.502-4.15-.912-8.962-.016-12.549 2.336zm33.242-11.972c-3.42 2.679-5.994 7.169-6.396 11.156-.126 1.255-.009 3.486.261 4.957.31 1.688 2.265 7.417 5.297 15.518l4.806 12.842 1.647.767c1.193.555 2.037.637 3.054.3 1.87-.622 2.941-1.893 3.112-3.697.118-1.247-.632-3.602-4.747-14.915-5.391-14.818-5.342-14.579-3.626-17.707 1.111-2.027 3.449-3.45 5.787-3.521 2.264-.07 4.856 1.269 6.149 3.175.71 1.048 2.72 6.091 5.79 14.53 5.201 14.298 5.146 14.201 8.06 14.336 2.313.107 4.363-1.738 4.463-4.017.04-.891-1.471-5.337-5.269-15.514l-5.325-14.266-2.177-2.15c-1.201-1.185-3.274-2.66-4.624-3.288-1.368-.638-3.78-1.258-5.469-1.407-2.446-.216-3.625-.073-6.187.753-1.939.625-3.722 1.457-4.606 2.148zm33.838-12.343c-3.695 2.923-6.033 6.932-6.473 11.103-.321 3.053.169 5.997 1.697 10.195 1.367 3.756 2.777 5.46 4.702 5.68.839.096 4.28-1.009 12.862-4.129 6.687-2.431 12.084-4.578 12.573-5 .472-.407.999-1.439 1.171-2.293.258-1.278.063-2.238-1.102-5.445-1.675-4.611-3.514-7.446-6.295-9.706-2.418-1.965-5.197-3.008-8.792-3.296-2.059-.166-3.417.02-5.831.798-1.884.607-3.695 1.447-4.512 2.093zm-91.26 42.69c4.16.337 5.176 1.665 8.768 11.473 2.224 6.07 2.791 8.008 2.73 9.319-.157 3.33-1.74 5.569-4.686 6.631-2.547.917-5.118.432-7.066-1.331-1.456-1.32-1.656-1.745-4.525-9.631-1.784-4.903-2.994-8.754-2.984-9.492.023-1.766.836-3.505 2.33-4.988 1.634-1.619 3.138-2.168 5.432-1.981zm33.891-12.237c2.529.258 4.668 1.812 5.926 4.307l.964 1.913-6.845 2.493-6.845 2.492-.555-1.525c-1.07-2.942-.478-5.504 1.793-7.756.71-.704 1.802-1.471 2.427-1.704.625-.233 2.036-.331 3.135-.22zm68.287-24.503c1.945.403 4.023 2.217 4.987 4.354l.766 1.697-6.656 2.544-6.655 2.543-.645-1.773c-.355-.975-.57-2.334-.479-3.019.234-1.753 1.483-4.11 2.656-5.013 1.39-1.069 4.245-1.701 6.026-1.333zm31.742-12.423c.805-.057 2.149.195 2.986.559 2.893 1.258 3.115 1.633 6.503 10.945 3.502 9.627 3.622 10.493 1.835 13.276-.849 1.324-1.363 1.679-3.611 2.498-2.042.744-2.922.864-3.984.545-2.064-.62-3.485-1.698-4.527-3.436-1.357-2.265-5.494-13.753-5.832-16.196-.454-3.281 1.375-6.512 4.399-7.77.421-.175 1.425-.364 2.231-.421zM89.336 161.702c-1.54 2.017-1.05 4.633 1.269 6.793.764.712 2.562 1.84 3.995 2.507 8.032 3.741 17.767-.028 21.27-8.235 1.129-2.645 1.658-5.846 1.188-7.189-.42-1.202-2.191-2.539-3.602-2.72-2.776-.357-4.249.935-5.101 4.47-.31 1.29-.911 2.865-1.334 3.501-.458.688-1.587 1.533-2.79 2.087-1.565.722-2.46.877-3.978.691-1.082-.133-2.443-.673-3.042-1.206-.596-.53-1.704-1.312-2.463-1.737-1.75-.98-4.236-.504-5.412 1.038zm67.488-24.618c-.467.527-.906 1.357-.976 1.845-.235 1.631.876 3.777 2.792 5.392 4.778 4.03 11.826 4.687 17.617 1.643 2.839-1.492 5.844-4.736 7.043-7.603.545-1.303 1.077-3.432 1.182-4.729.163-2.018.056-2.55-.743-3.671-.625-.879-1.433-1.413-2.445-1.616-.831-.167-1.913-.157-2.405.021-1.514.548-2.735 2.249-2.969 4.137-.123.991-.678 2.512-1.235 3.379-.762 1.187-1.54 1.809-3.153 2.518-2.791 1.227-4.714.95-7.536-1.086-1.179-.85-2.647-1.625-3.263-1.723-1.461-.23-2.854.301-3.909 1.493z" fill="#248C2D"/><path d="M36.614 54.36l-.65-.41c-3.025-1.91-9.082-3.886-15.3 5.95l-.58.919c-6.12 9.678-2.424 14.05-.489 15.303l.247.156 3.47-5.49c-.363-.417-2.396-2.359 1.102-7.893 2.337-3.697 4.42-4.513 6.192-4.24l-5.835 9.23 3.81 2.406 5.835-9.23c1.097 1.538 1.444 4.015-.865 7.667-3.555 5.623-6.373 4.377-6.825 4.248l-3.47 5.49.247.155c2.106 1.33 7.801 2.638 13.835-6.907l.58-.918c6.105-9.657 1.676-14.554-1.304-16.436zm13.577-.266l-6.413-6.737 13.962-.442 5.84-5.554-15.987.43 2.01-14.346-5.686 5.408-1.655 12.91-5.663-5.95-4.476 4.257 13.592 14.28 4.476-4.257zM77.963 23.85c.106.458 1.024 3.438-4.543 6.573-5.013 2.823-7.898.889-9.03-1.12l-.155-.277c-1.21-2.147-1.332-5.12 3.82-8.02 5.475-3.082 7.497-1.058 7.896-.675l5.706-3.212-.143-.254c-1.155-1.996-5.335-5.906-15.315-.288l-.947.534c-10.141 5.71-8.474 11.856-6.719 14.973l.377.67c1.73 3.07 6.398 7.74 16.355 2.134l.947-.533c9.841-5.541 8.823-11.293 7.6-13.463l-.143-.254-5.706 3.213zm16.907 1.595L91.002 11.01l11.754-3.15 3.868 14.435 5.966-1.6-5.102-19.042-23.687 6.349 5.102 19.042 5.967-1.599zM114.891.643l.603 19.706 21.039-.651-.14-4.582-14.945.462-.099-3.231 14.335-.444-.138-4.503-14.335.444-.089-2.914 14.68-.454L135.665 0l-20.774.643zm39.444 15.414c6.919 1.361 9.595-1.11 10.276-4.568l.052-.26c.697-3.537-.84-6.702-7.785-8.068L142.365.306 138.55 19.65l6.061 1.192 1.271-6.448 8.453 1.663zm-6.776-10.165l8.349 1.642c1.925.379 2.66 1.307 2.404 2.607l-.016.078c-.256 1.3-1.31 1.849-3.209 1.476l-8.348-1.643.82-4.16zm28.85 24.679l6.154-13.739 7.767 3.474 1.907-4.257-21.195-9.48-1.907 4.256 7.743 3.464-6.155 13.739 5.686 2.543zm26.019 17.146l10.678-10.465 8.517 8.684L210.945 56.4l4.323 4.408 14.087-13.805-17.164-17.5-14.087 13.804 4.324 4.409zm39.198 17.571l-.559-.993c-6.125-10.874-12.243-9.04-15.315-7.311l-.693.39c-3.027 1.704-7.905 6.062-1.78 16.937l.559.992c6.099 10.828 12.369 8.94 15.395 7.237l.693-.39c3.073-1.73 7.786-6.057 1.7-16.862zm-4.444 1.834c3.264 5.794 1.396 8.367-.591 9.485l-.323.182c-1.987 1.119-5.283 1.424-8.535-4.348-3.264-5.795-1.211-8.47.753-9.577l.277-.156c1.987-1.118 5.103-1.474 8.419 4.413zm17.862 31.366l-12.21 11.032c-.31.283-.548.502-.863.545l-.026.003c-.237.032-.438-.074-.513-.626l-.463-3.44-4.729.638.516 3.834c.506 3.755 1.844 4.35 5.393 5.877l16.238 6.954-.828-6.145-10.227-4.236 8.667-7.346-.955-7.09zm-17.47 42.361l14.998 1.33-.754 8.473 4.647.412 2.06-23.123-4.648-.412-.752 8.447-14.998-1.33-.553 6.203zm-7.166 28.731l-2.123 6.305 22.059-3.713 2.554-7.586-15.512-15.728-2.005 5.953 2.851 2.832-3.815 11.328-4.009.609zm11.342-8.434l5.843 5.823-8.228 1.26 2.385-7.083zm-23.489 30.406l-3.34 5.195 16.591 10.656 11.397-17.725c-8.719-5.6-10.917-7.327-11.313-8.526-.224-.679-.02-1.242.496-2.044l.215-.335-4.126-2.649-.931 1.449c-1.721 2.675-1.76 4.256-1.02 5.898.763 1.655 1.767 3.182 9.906 8.41l-5.075 7.892-12.8-8.221zm8.767 21.354l-13.753-14.128-15.088 14.676 3.198 3.285 10.717-10.425 2.256 2.317-10.281 10 3.143 3.228 10.28-10 2.033 2.089-10.527 10.24 3.124 3.209 14.898-14.491zm-35.552 5.314l3.958 6.679-11.405 6.755-3.958-6.679-5.315 3.148 10.05 16.96 5.315-3.148-3.661-6.177 11.405-6.755 3.661 6.177 5.314-3.147-10.049-16.961-5.315 3.148zm-37.298 16.371l-5.936 1.707 5.447 18.947 5.937-1.708 9.104-16.211 3.61 12.555 5.936-1.707-5.448-18.947-5.936 1.707-9.119 16.161-3.595-12.504zm-14.714 2.913l-.137 7.763-2.624-.046c-.495-3.533-3.011-8.162-12.553-8.328l-1.14-.02c-11.212-.194-12.915 6.163-12.977 9.634l-.014.795c-.062 3.524 1.445 9.779 12.63 9.973l1.14.02c9.144.158 11.973-3.901 12.75-7.306l2.703.047-.127 7.18 6.176.107.349-19.712-6.176-.107zm-22.974 9.725l.007-.371c.04-2.279 1.525-5.274 7.011-5.179 5.514.096 6.863 3.22 6.824 5.472l-.006.318c-.04 2.279-1.417 5.144-7.01 5.047-5.513-.096-6.866-3.008-6.826-5.287zm-35.52-21.284l-5.425-2.949-4.18 7.683-3.575-11.897-7.079-3.848 4.466 14.584-13.426 2.991 6.894 3.746 11.136-2.666-3.661 6.729 5.425 2.948 3.662-6.728 3.814 10.791 6.892 3.746-4.785-12.888 14.676-4.181-7.079-3.847-11.935 3.469 4.18-7.683z" fill="#248C2D"/><path d="M46.907 199.641l-4.64-4.766-6.78 21.309 5.582 5.735 21.088-6.612-4.38-4.5-3.824 1.241-8.336-8.564 1.29-3.843zm2.32 13.936l-7.853 2.537 2.64-7.892 5.213 5.355z" fill="#248C2D"/><path d="M34.566 181.715l-2.811-5.497-7.79 3.983 3.772-11.839-3.668-7.171-4.554 14.56-12.767-5.109 3.572 6.983 10.695 4.085-6.822 3.488 2.812 5.497 6.822-3.488-2.949 11.06 3.572 6.983 3.331-13.339 14.472 4.831-3.668-7.171-11.808-3.873 7.79-3.983z" fill="#248C2D"/><path d="M19.774 160.042l.427 2.481 7.968-1.374-1.003-5.823-3.265.563-2.77-16.086 3.265-.563-1.003-5.824-7.968 1.374.54 3.134-14.735 2.54 3.616 20.995c8.386-1.445 12.745-2.063 14.928-1.417zm-.945-5.484c-2.02-.485-6.21.022-10.207.711l-1.642-9.531 10.033-1.73 1.816 10.55zM7.597 117.44l-.883 7.634-6.004-.692-.71 6.134 19.593 2.258 1.59-13.741c.944-8.161-1.866-10.405-5.526-10.827l-.263-.031c-3.635-.419-6.862 1.183-7.797 9.265zm15.647-16.229L3.652 98.952l-.71 6.134 19.593 2.259.71-6.134zm-7.366 24.92l-4.766-.55.862-7.45c.347-3.001 1.442-3.701 2.759-3.55l.079.009c1.29.149 2.275 1.09 1.928 4.091l-.862 7.45z" fill="#248C2D"/></svg>