<svg width="241" height="241" fill="none" xmlns="http://www.w3.org/2000/svg"><path d="M82.575 104.043l14.491-5.274c7.87-2.865 16.573 1.193 19.437 9.064l-14.49 5.274c-7.87 2.864-16.573-1.193-19.438-9.064z" fill="#248C2D"/><path fill-rule="evenodd" clip-rule="evenodd" d="M115.152 101.452c.133 2.131.57 4.278 1.337 6.386l22.016-8.013c9.72-3.538 15.57-13 14.958-22.825a22.81 22.81 0 00-1.337-6.385l-22.016 8.013c-9.72 3.537-15.57 13-14.958 22.824zm6.443-2.345c.366-6.314 4.403-12.11 10.724-14.41l14.701-5.352c-.366 6.314-4.403 12.11-10.724 14.411l-14.701 5.351zm-49.381 19.599c-1.34 1.271-1.33 1.968.085 5.856.979 2.689 1.179 3.494.865 3.479-3.724-.175-7.05 1.067-9.394 3.51-1.754 1.828-3.016 4.634-3.25 7.227l-.17 1.894 2.885 7.925 2.884 7.924 1.45 1.392c4.69 4.5 12.112 4.343 16.637-.352 1.574-1.634 2.955-4.786 3.177-7.256l.171-1.906-5.193-14.525c-5.785-16.182-5.649-15.905-7.856-16.007-.61-.028-1.209-.01-1.328.04-.12.051-.553.41-.963.799zm83.132-30.51c-1.05.827-1.499 1.557-1.544 2.507-.04.829.966 3.842 4.781 14.322 2.657 7.3 5.188 13.873 5.624 14.606 2.506 4.213 7.478 6.421 12.362 5.491 3.304-.628 6.471-3.024 8.062-6.097 1.041-2.011 1.475-4.947 1.078-7.292-.382-2.259-3.873-11.895-4.994-13.785a11.81 11.81 0 00-9.116-5.73c-1.604-.141-2.674-.024-4.323.472-1.664.5-2.535.935-3.618 1.803-.784.629-1.515 1.103-1.623 1.052-.108-.05-.734-1.57-1.392-3.377-1.343-3.69-1.806-4.231-3.69-4.319-.599-.027-1.121-.026-1.161.002-.039.028-.24.184-.446.346zm15.987-5.465c-.898.949-1.024 2.164-.329 3.19 1.033 1.525 3.286 1.548 4.34.044 1.152-1.643.114-3.87-1.891-4.058-.613-.057-1.158-.088-1.213-.068-.054.02-.462.421-.907.892zm2.697-.116c.522.243 1.037.685 1.145.982.109.298.055.973-.119 1.5-.229.698-.577 1.055-1.271 1.308-1.103.401-2.132-.14-2.574-1.355-.311-.853.434-2.354 1.329-2.68.298-.108.968.002 1.49.245zm-2.211.873c-.192.411.743 2.72 1.056 2.607.156-.057.191-.358.077-.67-.113-.31-.087-.609.059-.662.145-.053.438.13.65.405.212.275.505.457.65.404.352-.128.16-.61-.279-.701-.217-.045-.247-.294-.078-.654.362-.775.221-1.07-.567-1.182-.75-.107-1.393.079-1.568.453zm1.707.207c.016.6-.84.998-1.03.478-.095-.263.081-.534.429-.66.346-.126.595-.051.601.182zm-83.342 37.333c-2.526 1.655-4.573 5.078-5 8.357-.252 1.927-.201 2.214 1.05 5.968.723 2.168 1.51 4.23 1.748 4.582.237.351.934.74 1.548.863 1.046.209 1.668.023 9.968-2.997l8.852-3.221.625-1.164.625-1.163-1.476-4.056c-1.438-3.949-1.517-4.095-3.03-5.588-1.873-1.848-3.543-2.803-5.746-3.286-3.031-.666-6.545-.012-9.164 1.705zm24.277-8.739c-2.498 1.956-4.378 5.233-4.672 8.143-.092.916-.006 2.545.191 3.619.226 1.232 1.654 5.413 3.868 11.327l3.51 9.373 1.203.56c.871.405 1.487.466 2.23.219 1.366-.454 2.148-1.382 2.273-2.698.086-.91-.461-2.629-3.467-10.887-3.936-10.816-3.901-10.642-2.648-12.926.812-1.479 2.519-2.517 4.227-2.57 1.653-.05 3.546.927 4.49 2.319.519.764 1.986 4.446 4.228 10.605 3.799 10.437 3.759 10.366 5.887 10.465 1.689.078 3.186-1.269 3.259-2.933.029-.65-1.074-3.895-3.848-11.324l-3.889-10.413-1.589-1.569c-.877-.866-2.392-1.942-3.378-2.401-.999-.465-2.76-.918-3.994-1.027-1.786-.157-2.647-.053-4.518.55-1.416.456-2.718 1.064-3.363 1.568zm24.711-9.009c-2.698 2.133-4.405 5.06-4.727 8.104-.234 2.228.123 4.377 1.239 7.442.999 2.742 2.028 3.985 3.434 4.146.613.07 3.126-.737 9.393-3.014 4.884-1.775 8.825-3.342 9.183-3.65.344-.297.729-1.05.855-1.673.188-.934.046-1.634-.805-3.975-1.224-3.366-2.566-5.435-4.597-7.085-1.766-1.435-3.796-2.195-6.421-2.406-1.504-.121-2.496.015-4.259.582-1.375.443-2.698 1.057-3.295 1.529zm-66.648 31.16c3.04.247 3.78 1.216 6.404 8.375 1.624 4.431 2.039 5.845 1.993 6.802-.114 2.431-1.27 4.066-3.422 4.841-1.86.669-3.737.315-5.16-.972-1.063-.963-1.21-1.273-3.304-7.03-1.303-3.579-2.187-6.39-2.18-6.929.018-1.289.611-2.558 1.703-3.64 1.192-1.182 2.29-1.583 3.966-1.447zm24.752-8.932c1.847.188 3.408 1.323 4.327 3.144l.705 1.397-5 1.819-4.999 1.82-.405-1.114c-.781-2.147-.349-4.017 1.31-5.661.519-.514 1.316-1.074 1.772-1.244.456-.17 1.487-.242 2.29-.161zm49.87-17.885c1.42.294 2.938 1.618 3.642 3.178l.559 1.239-4.861 1.856-4.86 1.857-.471-1.294c-.259-.712-.416-1.704-.35-2.205.171-1.279 1.084-3 1.94-3.658 1.015-.781 3.1-1.242 4.401-.973zm23.181-9.069c.588-.041 1.57.143 2.181.409 2.112.918 2.275 1.191 4.749 7.989 2.558 7.027 2.645 7.659 1.34 9.69-.62.967-.995 1.226-2.637 1.824-1.491.543-2.134.631-2.909.398-1.508-.453-2.546-1.24-3.306-2.508-.992-1.654-4.013-10.039-4.26-11.822-.331-2.395 1.005-4.754 3.213-5.672.308-.128 1.041-.266 1.629-.308zm-78.67 45.838c-1.125 1.472-.768 3.382.926 4.958.558.52 1.871 1.343 2.918 1.83 5.866 2.731 12.975-.02 15.534-6.011.824-1.931 1.211-4.267.867-5.247-.307-.878-1.6-1.854-2.63-1.986-2.027-.26-3.104.682-3.725 3.263-.227.941-.666 2.091-.975 2.556-.334.502-1.159 1.118-2.037 1.523-1.143.527-1.797.64-2.906.504-.79-.097-1.784-.491-2.22-.88a12.325 12.325 0 00-1.8-1.268c-1.279-.715-3.093-.368-3.953.758zm49.287-17.97c-.341.385-.662.991-.713 1.347-.172 1.191.64 2.757 2.038 3.936 3.49 2.942 8.637 3.421 12.867 1.199 2.073-1.089 4.267-3.457 5.143-5.55.398-.951.787-2.505.863-3.452.119-1.473.041-1.861-.542-2.68-.457-.641-1.047-1.03-1.786-1.178-.607-.122-1.397-.116-1.756.014-1.106.401-1.998 1.642-2.169 3.02-.089.724-.495 1.834-.902 2.467-.556.866-1.124 1.32-2.302 1.838-2.039.895-3.443.693-5.504-.793-.861-.62-1.933-1.186-2.383-1.257-1.067-.168-2.084.219-2.854 1.089z" fill="#248C2D"/><path d="M47.745 72.814l-.455-.24c-2.227-1.17-6.29-2.085-10.124 5.209l-.313.596c-3.735 7.105-1.15 9.765.294 10.524l.172.09 2.416-4.595c-.382-.34-1.389-1.51.318-4.757 1.228-2.337 2.439-3.002 3.531-2.949L40.427 82.7l2.745 1.442 3.157-6.007c.727.902 1 2.327-.22 4.648-1.773 3.373-3.455 3.069-3.889 2.941l-2.415 4.596.235.124c1.474.775 5.212 1.358 8.921-5.7l.314-.597c3.775-7.184.681-10.17-1.53-11.333zm11.059-3.835l-4.306-4.035 8.704-.659 4.483-4.783-10.666.86.877-9.694-4.277 4.564-.634 8.294-3.801-3.562-3.441 3.672 9.62 9.015 3.44-3.672zm19.751-23.348c.097.294.735 2.085-2.575 4.11-3.023 1.85-4.75.725-5.49-.484l-.11-.182c-.768-1.254-.944-3.037 2.154-4.932 3.25-1.989 4.506-.784 4.758-.543l4.459-2.728-.12-.197c-.894-1.426-3.767-3.948-10.614.241l-.59.36c-7.013 4.292-5.85 8.296-4.537 10.442l.268.439c1.304 2.131 4.486 5.024 11.409.789l.59-.361c6.786-4.152 5.896-7.95 4.99-9.43l-.148-.243-4.444 2.72zm15.452-1.137l-2.638-9.308 7.348-2.082 2.638 9.308 4.825-1.367-3.595-12.684-17.014 4.822 3.595 12.684 4.841-1.373zm15.739-17.344l.377 13.178 14.719-.422-.094-3.294-9.76.28-.052-1.808 9.423-.27-.092-3.206-9.422.27-.048-1.647 9.618-.275-.092-3.224-14.577.418zm30.52 11.041c4.709 1.025 6.541-.644 7.05-2.981l.06-.277c.516-2.372-.441-4.557-5.185-5.59l-10.735-2.335-2.803 12.882 4.917 1.07.878-4.034 5.818 1.265zm-4.594-6.893l5.229 1.138c1.143.249 1.53.804 1.372 1.532l-.012.051c-.154.71-.758 1.069-1.883.824l-5.229-1.138.523-2.407zm22.592 17.997l4.296-8.57 5.085 2.55 1.612-3.216-14.668-7.354-1.612 3.216 5.084 2.549-4.296 8.57 4.499 2.255zm29.352 4.838l-10.275 8.26 7.816 9.722c2.687 3.342 4.84 3.249 6.455 1.95l.166-.133c1.809-1.455 1.265-3.404.739-4.483.696.555 2.167 1.169 3.438.147l.152-.122c1.187-.955 1.69-2.677-.719-5.674l-7.772-9.667zm.819 5.798l3.664 4.558c.655.814.554 1.282.139 1.615l-.027.023c-.387.31-.907.342-1.562-.473l-3.664-4.557 1.45-1.166zm-3.756 3.02l3.863 4.806c.811 1.008.563 1.548.135 1.893l-.042.033c-.4.322-1.039.517-1.86-.505l-3.864-4.806 1.768-1.42zm21.119 16.886l-6.139 9.034c-.148.22-.275.34-.442.399l-.017.006c-.167.059-.319 0-.437-.335l-.77-2.19-3.326 1.17.876 2.49c.97 2.76 1.855 3.086 4.494 3.755l11.846 2.972-1.699-4.831-6.563-1.411 4.112-5.56-1.935-5.5zm-4.681 34.64l9.545-.881.523 5.664 3.582-.331-1.508-16.339-3.582.331.523 5.664-9.546.881.463 5.011zm12.426 21.24l.137-.785c1.462-8.415-2.333-10.172-4.795-10.599l-.523-.091c-2.427-.422-6.697-.067-8.16 8.348l-.136.785c-1.459 8.397 2.441 10.172 4.867 10.594l.524.091c2.462.428 6.63.037 8.086-8.343zm-3.421-1.008c-.671 3.858-2.516 4.437-3.895 4.197l-.245-.042c-1.379-.24-3.005-1.44-2.337-5.281.667-3.84 2.655-4.412 4.017-4.175l.209.036c1.379.24 2.93 1.354 2.251 5.265zm-17.592 22.536l-2.169 4.541 11.897 5.68 6.49-13.591c-6.172-2.947-7.439-3.749-7.785-4.464-.222-.439-.126-.845.179-1.485l.114-.24-3.389-1.618-.703 1.471c-1.046 2.19-1 3.41-.242 4.577.734 1.136 2.06 2.142 6.802 4.426l-2.352 4.925-8.842-4.222zm5.901 16.562l-10.142-8.422-9.407 11.328 2.535 2.106 6.238-7.511 1.39 1.154-6.022 7.253 2.467 2.049 6.023-7.253 1.267 1.053-6.147 7.402 2.481 2.061 9.317-11.22zm-25.801 8.676l2.937 4.064-6.678 4.826-2.937-4.064-4.064 2.937 7.721 10.685 4.064-2.937-2.729-3.777 6.678-4.826 2.73 3.777 4.079-2.947-7.722-10.686-4.079 2.948zm-26.781 14.672l-4.729 1.721 4.509 12.388 4.729-1.721 4.939-10.623 2.837 7.793 4.729-1.722-4.509-12.388-4.729 1.721-4.946 10.607-2.83-7.776zm-21.676 3.935l-5.018.37.967 13.148 5.019-.37 7.644-8.877.609 8.27 5.018-.369-.967-13.148-5.019.369-7.645 8.86-.608-8.253zm-27.255-3.518l-4.729-1.721-1.92 5.278-3.241-7.157-6.161-2.242 4.422 9.246-8.698 3.227 5.878 2.139 6.89-2.715-1.678 4.612 4.728 1.721 1.68-4.612 3.532 6.509 5.911 2.152-4.616-8.092 9.292-4.236-6.128-2.23-7.083 3.399 1.921-5.278zm-28.752-15.961l-4.305-3.44-2.845 14.602 5.288 4.225 13.324-6.228-3.987-3.186-2.116 1.031-5.883-4.701.524-2.303zm2.097 8.616l-4.52 2.195 1.1-4.927 3.42 2.732zm-15.271-23.096l-2.704-4.244-4.737 3.018 1.785-7.65-3.523-5.53-2.12 10.028-8.864-2.734 3.36 5.275 7.12 2.04-4.14 2.637 2.705 4.244 4.14-2.637-1.16 7.315 3.38 5.305 1.263-9.23 9.95 2.295-3.503-5.499-7.689-1.614 4.737-3.019zM41.478 149.94l.412 1.687 5.646-1.38-1.123-4.595-2.238.546-2.527-10.345 2.238-.547-1.123-4.596-5.646 1.38.505 2.065-9.399 2.296 3.638 14.89c5.663-1.384 7.994-1.771 9.617-1.401zm-1.106-4.527c-1.25-.261-3.576.071-6.18.688l-1.366-5.594 5.99-1.463 1.556 6.369zm-9.362-28.489l-.384 5.533-3.871-.269-.349 5.02 13.152.913.732-10.553c.37-5.321-1.607-6.79-4.064-6.961l-.283-.02c-2.44-.169-4.565 1.034-4.933 6.337zm10.155-11.96l-13.152-.913-.347 5.003 13.152.913.347-5.003zm-4.529 17.91l-2.74-.19.34-4.897c.113-1.626.728-2.045 1.47-1.994l.053.004c.725.05 1.33.554 1.217 2.18l-.34 4.897z" fill="#248C2D"/></svg>