<svg width="122" height="15" fill="none" xmlns="http://www.w3.org/2000/svg"><path d="M83.88 14.77H62.44v-14h3.23v10.78h18.22c1.7 0 3.16-1.15 3.62-2.71h3.3c-.52 3.34-3.44 5.93-6.93 5.93zm29.03-3.23H96.44V3.99h18.16c.75 0 1.46.23 2.05.61.08.05.15.1.22.16.91.69 1.51 1.79 1.51 3.01 0 1.22-.59 2.32-1.51 3.01l-.22.16c-.59.39-1.29.61-2.05.61h-1.69v-.01zm7.51.11c.03-.04.06-.09.09-.14a7 7 0 000-7.5c-.03-.05-.06-.09-.09-.14A7.004 7.004 0 00114.6.75H93.16v14.02h21.44a6.99 6.99 0 005.82-3.12zm-97.98 3.12H.99V7.76c0-3.85 3.15-7 7.01-7h21.44v3.23H8c-2.07 0-3.78 1.71-3.78 3.78v3.78h18.54c.03 0 .05 0 .08-.01.03 0 .05-.01.08-.01s.05-.01.08-.01.05-.01.08-.01.05-.01.08-.02c.02 0 .05-.01.07-.02.03 0 .05-.01.08-.01.02-.01.05-.01.07-.02.03 0 .05-.01.07-.02.03-.01.05-.01.07-.02.03-.01.05-.02.07-.02.02-.01.05-.02.07-.02.02-.01.05-.02.07-.03.02-.01.05-.02.07-.03.02-.01.05-.02.07-.03.02-.01.05-.02.07-.03.02-.01.05-.02.07-.03.02-.01.04-.02.07-.04.02-.01.04-.02.07-.03.02-.01.04-.02.07-.03.02-.01.04-.02.07-.04.02-.01.04-.03.06-.04a.21.21 0 00.06-.04.21.21 0 00.06-.04c.02-.01.04-.03.06-.04.02-.02.04-.03.06-.04.02-.02.04-.03.06-.04.02-.02.04-.03.06-.04.02-.01.04-.03.06-.04.02-.02.04-.03.06-.05.02-.01.04-.03.06-.05.02-.02.04-.03.06-.05.02-.02.04-.03.05-.05.02-.02.04-.03.06-.05l.05-.05c.02-.02.04-.03.05-.05.01-.02.04-.04.05-.05.02-.02.03-.04.05-.06a.12.12 0 01.05-.05c.01-.02.03-.04.05-.06.01-.02.03-.03.05-.06.01-.02.03-.04.04-.06.01-.02.03-.04.04-.06.01-.02.03-.04.04-.06.01-.02.03-.04.04-.06.01-.02.03-.04.04-.06.01-.02.03-.04.04-.06.01-.02.02-.04.04-.07.01-.02.03-.04.04-.07.01-.02.03-.04.04-.06.01-.02.02-.04.04-.07.01-.02.02-.04.03-.07.01-.02.02-.05.03-.07.01-.02.02-.04.03-.07.01-.02.02-.05.03-.07.01-.02.02-.05.03-.07.01-.02.02-.05.03-.07.01-.02.02-.05.02-.07.01-.02.02-.05.03-.07 0-.02.01-.05.02-.07h-5.28V5.6h8.67v2.16c-.01 3.86-3.16 7.01-7.01 7.01zm19.33-3.23H38.8c-2.07 0-3.78-1.71-3.78-3.78s1.71-3.78 3.78-3.78h14.56c.03 0 .07 0 .1.01.03 0 .06 0 .1.01.03 0 .06.01.1.01.03 0 .06.01.09.01.03.01.06.01.09.02s.06.01.09.02.06.01.09.02.06.01.09.02.06.01.09.02l.09.03.09.03.09.03.09.03c.03.01.06.02.09.04.03.01.06.03.08.04.03.01.06.03.08.04.03.01.05.03.08.04.03.01.05.03.08.04.03.01.05.03.08.05.02.02.05.03.08.05.03.02.05.03.08.05.02.02.05.03.07.05.03.02.05.03.07.05.02.02.05.04.07.05.03.02.05.04.07.06.02.02.05.04.07.06.02.02.05.04.07.06.02.02.04.04.07.06.02.02.04.04.07.06l.07.07.06.06.06.06c.02.02.04.05.06.07.02.02.04.05.06.07.02.02.04.04.06.07.02.03.04.05.06.07.02.02.04.05.05.07.02.02.04.05.05.08.01.02.03.05.05.07.02.03.03.05.05.08.02.03.03.05.05.08a.3.3 0 01.04.08c.01.03.03.05.04.08.01.03.03.06.04.08.01.03.03.05.04.08.01.03.03.06.04.08.01.03.02.06.04.09.01.03.02.05.03.09l.03.09.03.09.03.09c.01.03.02.06.02.09.01.03.02.06.02.09.01.03.01.06.02.09s.01.06.02.09.01.06.02.09c0 .03.01.06.01.09s.01.06.01.1c0 .03.01.06.01.09s0 .07.01.1v.39c0 .03 0 .06-.01.1 0 .03 0 .06-.01.09s-.01.06-.01.1c0 .03-.01.06-.01.09s-.01.06-.02.09-.01.06-.02.1c0 .03-.01.06-.02.09s-.01.06-.02.09-.01.06-.02.09l-.03.09-.03.09-.03.09-.03.09c-.01.03-.02.06-.04.09s-.02.05-.04.08c-.01.03-.03.06-.04.08-.01.03-.03.05-.04.08-.01.03-.03.05-.04.08-.01.03-.03.05-.04.08-.01.03-.03.05-.05.08-.01.03-.03.05-.05.08-.02.03-.03.05-.05.08-.02.03-.04.05-.05.07-.02.03-.03.05-.05.08-.02.02-.04.05-.06.07-.02.02-.04.05-.06.07-.02.02-.04.05-.06.07-.02.02-.04.05-.06.07-.02.02-.04.05-.06.07-.02.02-.04.05-.06.07-.02.02-.04.04-.07.06-.02.02-.05.04-.07.06-.02.02-.04.04-.07.06-.02.02-.05.04-.07.06-.02.02-.05.04-.07.06-.02.02-.05.03-.07.05-.02.02-.05.04-.07.05-.02.02-.05.04-.07.05-.03.02-.05.03-.07.05-.03.02-.05.03-.08.05-.03.02-.05.03-.08.05a.3.3 0 01-.08.04.3.3 0 01-.08.04c-.03.01-.05.03-.08.04-.03.01-.05.03-.08.04a.3.3 0 01-.08.04l-.09.03-.09.03-.09.03-.09.03-.09.03c-.03.01-.06.02-.09.02-.03.01-.06.02-.09.02-.03.01-.06.01-.09.02s-.06.01-.09.02-.06.01-.09.02c-.03 0-.06.01-.09.01-.03.01-.07.01-.1.01s-.06.01-.1.01c-.03 0-.06.01-.1.01H41.77v-.01zm18.4-3.77c0-3.85-3.15-7-7.01-7H38.8c-3.85 0-7 3.15-7 7s3.15 7.01 7 7.01h14.36c3.85-.01 7.01-3.16 7.01-7.01z" fill="#DC9129"/></svg>