<svg width="94" height="115" fill="none" xmlns="http://www.w3.org/2000/svg"><path fill-rule="evenodd" clip-rule="evenodd" d="M36.103 2.422c.07-.212.167-.417.293-.61C37.17.355 39.526-.094 41.15.015c2.229.15 4.35.666 6.373 1.623.6.283 1.163.606 1.742.925.794.439 1.586.656 2.36.631 1.289-.04 2.524-.695 3.626-1.684-.62 2.052-.97 3.955-2.817 5.331 1.053 1.67 1.454 4.017 1.852 5.747.258 1.125.547 2.325 1.024 3.38.56 1.236 1.442 2.694 2.939 2.883 1.384.174 2.354-.708 2.638-2.003l.205-.928h31.966l-.085 1.256c-.147 2.174-.617 4.498-1.707 6.415a8.77 8.77 0 01-.694 1.045l2.09-.002-.155 1.316c-.4 3.373-1.537 6.365-3.642 8.832l2.595-.015-.116 1.29c-.293 3.27-1.08 8.101-3.401 11.14l1.527.013-.116 1.272c-.41 4.52-1.905 9.45-4.673 13.245l1.677.001-.497 1.536c-6.294 19.449-17.916 43.912-38.941 51.1l-.39.133-.392-.133c-21.023-7.181-32.649-31.656-38.94-51.1L6.7 61.729l1.677-.001c-2.768-3.796-4.264-8.725-4.674-13.245l-.115-1.272 1.527-.014c-2.32-3.038-3.108-7.869-3.401-11.139l-.116-1.29 2.594.015C2.087 32.316.951 29.323.551 25.951l-.156-1.316 2.091.002a8.803 8.803 0 01-.694-1.045C.702 21.675.232 19.35.085 17.177L0 15.921h31.934l.207.925c.276 1.24 1.08 1.99 2.376 2.02.835.02 1.536-.44 2.086-1.027 1.05-1.12 1.896-3.058 1.715-4.6-.12-1.014-.924-1.678-1.884-1.916-.493-.122-1.05.048-1.457.37-.565.446-.849 1.015-.876 2.087-.717-.636-1.484-1.46-1.925-2.148-1.21-1.887-1.409-4.213-.273-6.233.896-1.594 2.436-2.64 4.2-2.977z" fill="#000"/><path fill-rule="evenodd" clip-rule="evenodd" d="M1.276 17.099h29.699c.572 2.564 2.631 2.925 3.514 2.945 1.076.025 2.1-.454 2.99-1.404 1.302-1.389 2.246-3.663 2.025-5.537-.183-1.555-1.389-2.578-2.78-2.923-.783-.194-1.59-.001-2.232.408-.252.16-.449.355-.618.6.26-.9.502-1.354 1.026-1.722 1.974-1.389 4.913 1.351 6.89.52-1.789-.254-4.396-2.255-6.153-2.094-1.393.127-2.1 1.21-2.113 3.597a6.72 6.72 0 01-.735-1.209c-1.436-3.179.773-6.673 4.382-6.795-.19-1.815 2.2-2.34 3.898-2.226 2.415.162 4.11.53 5.308 1.14 2.487 1.27 2.132 2.323 3.7 2.661.806.174 2.022-.29 3.272-1.255-.207.788-1.747 2.674-2.851 2.772a3.66 3.66 0 01-1.166-.078c-1.228-.278-2.717-1.052-4.452-1.582-1.735-.53-3.939-.7-5.88-.278-.203-.24-1.086-.836-1.597-.703.39.353.674.708 1.076 1.425.626 1.119.832 2.424 1.961 2.721-.343-.362-.455-.584-.547-.923-.093-.338-.133-.844-.212-1.35.4-.074 1.054-.226 1.482-.086.3.512.57 1.513.775 2.034.14.358.27.439.599.164.393-.33.79-1.125 1.18-2.3 2.569.113 4.517 2.426 7.446 1.468 1.633 2.075 1.718 6.404 3.058 9.36.956 2.111 2.194 3.36 3.877 3.572 1.389.174 3.412-.448 3.956-2.922h29.727c-.328 4.877-2.203 7.992-4.856 8.72l4.396-.005c-.592 4.994-2.773 8.096-5.417 10.165l4.25-.024c-.559 6.242-2.304 10.942-5.37 12.394l3.381.029c-.544 6-2.86 11.292-6.025 14.526l2.583.002c-6.053 18.706-17.442 43.25-38.194 50.345-20.75-7.088-32.144-31.646-38.195-50.345l2.584-.002c-3.165-3.234-5.481-8.526-6.026-14.526l3.381-.029c-3.066-1.452-4.81-6.152-5.37-12.394l4.25.024C4.51 33.91 2.33 30.81 1.737 25.814l4.396.004c-2.653-.727-4.528-3.842-4.857-8.719z" fill="#FEE301"/><path fill-rule="evenodd" clip-rule="evenodd" d="M68.29 69.13a23.835 23.835 0 01-3.025 4.718H27.68a23.862 23.862 0 01-3.025-4.717H68.29z" fill="#2A8347"/><path fill-rule="evenodd" clip-rule="evenodd" d="M65.424 73.651a24.195 24.195 0 01-4.811 4.54l-28.35-.05a24.187 24.187 0 01-4.741-4.49h37.902z" fill="#024797"/><path fill-rule="evenodd" clip-rule="evenodd" d="M60.918 77.97a24.278 24.278 0 01-14.445 4.727 24.276 24.276 0 01-14.444-4.727h28.889z" fill="#D82721"/><path fill-rule="evenodd" clip-rule="evenodd" d="M75.734 62.569c.177-.685-.214-1.471-.624-1.81.614-.71.716-1.438.602-2.022-.456.933-1.316 1.466-2.283 1.81-1.12.398-1.827 1.182-1.69 2.224.088.678.71 1.182 1.307 1.704-.342.34-.504.773-.146 1.28.146-.572.327-.768.543-.918.42.407.752.848.754 1.406.005.97-.819 1.443-1.365 1.399-.75-.06-1.332-.624-1.332-2.006-.54.923-.39 1.85.038 2.362-.687.29-1.094.692-1.213 1.19a1.842 1.842 0 00-1.027 1.335c-.139.687.296 1.379.683 2.079-.45.213-.762.573-.583 1.179.332-.506.57-.63.831-.702.237.497.379 1 .208 1.508-.309.92-1.174 1.11-1.764.896-.705-.256-1.214-1.01-.767-2.32-.81.704-.882 1.713-.641 2.334-.77.06-1.296.262-1.563.71-.622.102-1.157.436-1.476.983-.347.594-.176 1.342-.038 2.087-.466.038-.858.257-.933.85.49-.323.758-.353 1.018-.323.066.543.044 1.064-.29 1.5-.591.774-1.537.659-1.945.297-.559-.496-.677-1.293.171-2.392a1.97 1.97 0 00-1.52 1.969c-.773-.191-1.543-.092-1.975.29-.526-.053-1.031.06-1.42.385-.505.42-.622 1.162-.754 1.903-.445-.13-.881-.062-1.151.46.559-.122.82-.059 1.05.059-.13.585-.33 1.119-.817 1.43-.813.518-1.67.08-1.938-.4-.366-.66-.183-1.447.98-2.18-1.093-.013-1.858.605-2.05 1.236-.68-.456-1.315-.51-1.831-.324-.469-.175-.98-.158-1.501.057-.673.277-1.293 1.102-1.668 1.84l-.57.006-.506-1.507-.49 1.507-.57-.005c-.376-.74-.995-1.564-1.668-1.841-.52-.215-1.033-.232-1.501-.057-.516-.185-1.152-.132-1.831.324-.193-.631-.957-1.249-2.051-1.237 1.163.735 1.347 1.522.98 2.18-.267.48-1.124.92-1.937.4-.487-.31-.688-.844-.818-1.429.23-.118.492-.181 1.05-.06-.27-.521-.705-.588-1.151-.46-.131-.74-.249-1.481-.754-1.902-.389-.324-.893-.438-1.42-.386-.432-.381-1.201-.48-1.974-.29a1.97 1.97 0 00-1.52-1.968c.847 1.1.73 1.896.17 2.392-.408.362-1.354.477-1.945-.297-.334-.436-.356-.957-.29-1.5.26-.03.528 0 1.018.324-.075-.594-.466-.813-.933-.85.138-.746.31-1.494-.038-2.088-.319-.547-.853-.88-1.476-.984-.267-.447-.792-.648-1.562-.71.24-.62.168-1.63-.641-2.333.446 1.31-.063 2.064-.768 2.32-.59.214-1.455.024-1.764-.896-.17-.508-.028-1.01.208-1.508.262.073.5.196.832.702.178-.606-.133-.966-.583-1.18.387-.7.821-1.391.683-2.078a1.842 1.842 0 00-1.027-1.335c-.12-.498-.527-.9-1.214-1.19.429-.513.578-1.44.039-2.362 0 1.382-.583 1.945-1.332 2.006-.547.044-1.37-.43-1.366-1.399.003-.558.335-1 .754-1.406.217.15.397.346.544.917.358-.506.195-.938-.147-1.28.597-.52 1.22-1.025 1.308-1.703.136-1.042-.57-1.826-1.69-2.224-.967-.344-1.828-.877-2.283-1.81-.115.584-.013 1.312.601 2.021-.41.34-.8 1.126-.624 1.81.433-.734 1.095-1.086 1.725-1.096.988-.014 1.419.455 1.485.996.08.648-.403 1.149-.963 1.666-.278-.167-.688-.385-.813-.975-.343.706.07 1.13.39 1.367-.598.564-1.146 1.193-1.078 2.08.039.514.271.954.6 1.28.18.781.417 1.34 1.21 1.808-.278.45-.48 1.301-.091 1.895.172-.832.96-1.375 1.554-1.582.93-.326 1.337-.016 1.575.475.294.608-.015 1.254-.378 1.943-.315-.07-.751-.16-1.049-.659-.094.76.409 1.036.787 1.164-.354.705-.63 1.454-.29 2.25.221.515.65.876 1.133 1.075a2.649 2.649 0 001.742 1.299c-.117.515-.048 1.34.512 1.78-.107-.844.402-1.586.922-1.938.64-.434 1.34-.369 1.724.022.47.476.395 1.155.279 1.89-.321.057-.788.186-1.297-.182.222.746.808.793 1.207.76-.105.757-.122 1.534.458 2.18.323.36.794.574 1.285.66.634.7 1.368.962 2.275.829.057.523.5 1.267 1.175 1.484-.378-.752-.305-1.494.038-2.026.538-.835 1.139-.896 1.63-.664.584.275.761.923.91 1.644-.283.17-.677.46-1.281.301.465.62 1.035.447 1.397.27.17.791.417 1.579 1.204 1.995a2.108 2.108 0 001.532.153c.554.236 1.41.425 2.19.061.224.48.89.958 1.605.97-.604-.605-.876-1.396-.72-1.998.247-.945.886-1.192 1.433-1.118 1.118.151 1.814 1.87 2.483 2.882l.488-1.274.437.001.452 1.273c.67-1.012 1.365-2.73 2.483-2.882.547-.074 1.187.174 1.433 1.118.157.602-.115 1.393-.72 1.999.716-.013 1.381-.49 1.605-.97.781.363 1.636.174 2.19-.062a2.106 2.106 0 001.532-.153c.787-.416 1.035-1.204 1.205-1.995.362.177.932.35 1.397-.27-.605.16-1-.131-1.281-.3.148-.722.326-1.37.908-1.645.493-.232 1.094-.17 1.631.663.343.533.416 1.275.038 2.027.675-.216 1.118-.96 1.176-1.484.906.133 1.64-.128 2.275-.83.49-.085.961-.3 1.284-.66.58-.645.564-1.422.458-2.18.399.034.986-.013 1.208-.759-.51.368-.976.239-1.297.181-.117-.734-.19-1.413.278-1.889.385-.39 1.084-.456 1.724-.022.52.352 1.03 1.094.922 1.938.56-.44.63-1.265.512-1.78a2.65 2.65 0 001.743-1.299c.482-.199.911-.56 1.132-1.075.34-.796.065-1.545-.29-2.25.379-.128.882-.403.787-1.164-.297.5-.734.59-1.05.659-.361-.69-.67-1.335-.377-1.943.238-.491.644-.8 1.576-.475.594.207 1.381.75 1.553 1.582.39-.594.188-1.445-.091-1.895.793-.468 1.03-1.027 1.211-1.807.328-.327.56-.767.6-1.281.067-.887-.48-1.516-1.078-2.08.32-.237.733-.66.389-1.367-.125.59-.535.808-.813.976-.56-.518-1.042-1.019-.963-1.667.066-.541.497-1.01 1.485-.996.63.01 1.293.362 1.725 1.097zM41.666 84.422c-.67.38-1.18.903-1.584 1.481a1.86 1.86 0 01-.37.389c.59-.319 1.09-.798 1.478-1.344.147-.206.306-.382.476-.526zm-7.979-2.797a4.32 4.32 0 00-1.94.8c-.218.155-.506.26-.824.31.665-.008 1.262-.175 1.822-.598.291-.22.613-.395.942-.512zm-6.978-5.441c-.739-.125-1.423-.033-2.097.174a2.027 2.027 0 01-.843.06c.753.196 1.546.129 2.3-.105.216-.067.43-.11.64-.129zm-4.654-7.221c-.633-.318-1.283-.436-1.959-.452a1.972 1.972 0 01-.881-.243c.68.45 1.503.628 2.309.645.185.004.363.02.531.05zm29.37 15.459c.671.38 1.18.903 1.585 1.481.1.143.225.274.37.389-.59-.319-1.09-.798-1.479-1.344a2.909 2.909 0 00-.475-.526zm7.98-2.797c.743.107 1.37.39 1.94.8.217.155.505.26.824.31-.666-.008-1.263-.175-1.823-.598a3.545 3.545 0 00-.942-.512zm6.977-5.441c.74-.125 1.423-.033 2.098.174.255.079.547.098.842.06-.752.196-1.546.129-2.3-.105a3.105 3.105 0 00-.64-.129zm4.654-7.221c.634-.318 1.284-.436 1.96-.452.295-.007.6-.092.88-.243-.68.45-1.502.628-2.308.645-.186.004-.363.02-.532.05z" fill="#000"/><path fill-rule="evenodd" clip-rule="evenodd" d="M33.07 47.737v14.377h-2.924V57.58h-3.187c.106 1.594.379 3.216.94 4.533h-2.984c-1.642-4.664-1.244-8.627.375-11.163 1.915-3 4.314-3.214 7.78-3.214zm-2.924 6.709v-3.314c-1.812.177-2.77 1.644-3.083 3.314h3.083zm9.544-2.729h2.934V61.76h-2.933v-4.276h-2.876v4.276H33.88V51.716h2.934v3.232h2.876v-3.232zm9.02-.037h3.048v3.086c1.398-.437 1.947-1.655 2.344-3.087h3.18c-.2 1.438-.953 2.911-2.227 3.864 1.68 1.075 2.413 2.532 2.212 6.24h-3.152c-.112-2.338.192-3.14-1.332-4.51-.16.087-.797.32-1.025.378v4.131H48.71v-4.13c-.228-.058-.798-.258-.957-.345-1.388 1.1-1.39 2.172-1.4 4.475H43.2c-.201-3.707.531-5.164 2.211-6.24-1.307-.85-2.027-2.425-2.227-3.863h3.18c.398 1.432.946 2.65 2.345 3.087v-3.087zm9.34-4.002h2.985v4.745c.425-1.665 1.463-3.626 3.619-4.745h2.686v14.436h-2.925V51.72c-2.512 2.185-3.38 6.719-3.38 8.855v1.538H58.05V47.678z" fill="#000"/><path fill-rule="evenodd" clip-rule="evenodd" d="M69.43 47.81l-11.005-7.422-1.811 1.45-10.042-7.527-10.041 7.528-1.812-1.451-11.006 7.422 11.724-9.067 1.538 1.215 9.597-6.457 9.598 6.457 1.537-1.215 11.724 9.067z" fill="#fff"/><path fill-rule="evenodd" clip-rule="evenodd" d="M17.084 52.454c.347-1.46 1.115-2.116 2.305-1.968 1.215.152 1.796.976 1.742 2.473l.512.064-.176 1.37-.525-.066c-.317 1.462-1.083 2.116-2.298 1.965-1.191-.15-1.77-.972-1.736-2.47l-.377-.046.176-1.37.377.048zm3.013.376a1.014 1.014 0 00-.3-.598 1.068 1.068 0 00-.618-.276c-.237-.03-.46.01-.667.12-.207.11-.362.277-.469.497l2.054.257zm-.162 1.37l-2.04-.254c.036.232.142.43.316.59a1.1 1.1 0 00.629.288c.228.028.443-.014.642-.128.199-.113.35-.279.453-.495zm-2.719-5.07l.544-1.56 2.162.017-1.717-1.292.51-1.46 3.1 2.757c.25.225.431.408.543.55.111.142.183.32.212.534.03.214-.012.48-.123.8a9.031 9.031 0 01-.378.846l-.972-.33c.11-.235.185-.408.224-.52.115-.331.06-.575-.164-.732l-3.941.39zM19.14 44l2.337-3.995 1.065.607-.785 1.34 3.245 1.849-.769 1.314-3.244-1.849-.784 1.34-1.064-.607zm5.784-5.101l.539-.612c.494-.56.96-.89 1.401-.99.439-.099.87.033 1.293.396.347.298.503.65.468 1.056-.036.406-.258.84-.667 1.306l-1.733 1.967-3.755-3.221 2.748-3.12.76.652-1.74 1.977.686.589zm1.5 1.288l.517-.586c.316-.36.343-.651.08-.877-.23-.198-.505-.118-.82.242l-.517.585.74.636zm1.736-3.877c-.466-.657-.642-1.297-.531-1.918.11-.623.497-1.162 1.159-1.62.678-.468 1.329-.65 1.951-.544.62.106 1.162.482 1.622 1.13.333.47.526.911.58 1.323.052.411-.013.805-.197 1.182-.185.378-.502.721-.955 1.034-.46.318-.891.508-1.295.573-.404.063-.81.002-1.22-.18-.409-.184-.78-.51-1.114-.98zm1.264-.866c.289.406.571.645.85.718.279.071.55.016.813-.166.27-.187.419-.419.444-.694.024-.277-.122-.64-.44-1.09-.27-.38-.544-.602-.823-.67-.278-.068-.55-.01-.815.174-.254.175-.395.404-.423.688-.028.283.104.63.394 1.04zm9.222-2.153l-1.404.618-1.526-3.385-1.099.483.622 1.38c.256.567.415.997.473 1.29a.925.925 0 01-.163.774c-.168.223-.502.444-1.002.664a3.638 3.638 0 01-.55.183l-.41-.909.211-.092c.19-.084.306-.185.347-.302.041-.116.012-.285-.087-.506l-1.34-2.968 3.905-1.716 2.023 4.486zm1.94-3.489l.809-.14c.741-.13 1.314-.096 1.72.1.404.196.655.566.752 1.112.08.447-.023.816-.31 1.11-.286.294-.736.494-1.35.6l-2.602.454-.863-4.837 1.511-.263.333 1.864zm.345 1.933l.775-.135c.475-.082.682-.292.621-.631-.053-.298-.317-.405-.791-.323l-.775.136.17.953zm4.079-4.401l1.537.026-.03 1.718 1.68.03.03-1.72 1.545.027-.087 4.91-1.544-.026.035-1.986-1.68-.029-.036 1.986-1.537-.027.087-4.91zm7.89 2.646l.794.21c.727.192 1.232.462 1.515.809.283.346.352.787.206 1.321-.119.438-.37.73-.756.877-.385.147-.879.14-1.482-.019l-2.55-.674 1.287-4.744 1.483.392-.497 1.828zm-.514 1.896l.76.201c.465.123.742.02.833-.313.079-.292-.114-.5-.58-.622l-.76-.201-.254.935zm4.313-2.85l1.489.393-1.288 4.744-1.488-.394 1.288-4.743zm7.708 4.064l-2.636 4.165-1.226-.756 1.447-2.286-3.028 1.311-1.229-.758 2.637-4.164 1.229.758-1.459 2.303 3.048-1.323 1.217.75zm-.306-1.615a1.07 1.07 0 01-.716.363 1.305 1.305 0 01-.828-.204 1.274 1.274 0 01-.548-.647c-.1-.267-.095-.53.017-.791l.501.309c-.07.287.03.512.298.678.288.178.546.172.775-.017l.5.31zm3.001 11.172l-1.135-1.289.578-1.277c.136-.303.206-.51.211-.617a.447.447 0 00-.13-.318l-1.485 1.274-1.007-1.143 3.755-3.222 1.007 1.144-1.442 1.236a.41.41 0 00.312.14c.116 0 .382-.078.803-.231.31-.114.553-.172.732-.17.18-.002.377.079.596.238.218.159.512.45.883.87l-.793.682-.051-.058c-.173-.196-.338-.309-.496-.338-.159-.03-.348-.003-.57.08a1.657 1.657 0 01-.55.127.976.976 0 01-.45-.116c.09.212.123.437.097.675-.025.237-.119.548-.28.929l-.585 1.384z" fill="#000"/><path fill-rule="evenodd" clip-rule="evenodd" d="M69.598 46.808l-.769-1.314 3.25-1.852-.601-1.028-1.325.755c-.545.31-.961.511-1.25.6a.957.957 0 01-.797-.08c-.243-.142-.501-.446-.775-.914a3.506 3.506 0 01-.241-.52l.873-.498.115.197c.104.179.218.281.34.31.122.028.289-.018.5-.14L71.77 40.7l2.136 3.653-4.308 2.455zm4.895-.998l.501 1.572-1.75 1.255 2.16.033.469 1.473-4.154-.4a5.012 5.012 0 01-.768-.124 1.12 1.12 0 01-.492-.305c-.152-.155-.28-.394-.382-.715a8.945 8.945 0 01-.206-.903l.982-.304c.051.254.096.436.132.549.107.334.297.498.572.493l2.936-2.624zm-.163 7.41l.03.81c.03.742-.083 1.298-.335 1.668-.252.369-.658.564-1.218.585-.46.017-.817-.134-1.072-.454-.256-.32-.396-.788-.42-1.404l-.1-2.604 4.972-.187.159 4.132-1.007.037-.1-2.617-.91.034zm-1.988.074l.03.776c.018.475.2.707.55.694.305-.012.448-.255.43-.73l-.03-.776-.98.036zm-30.836 48.391l-.001-7.51h1.29v7.51h-1.29zm8.956 0l-.002-7.51h1.291v7.51h-1.29zm-5.903-2.096v.383c0 .16.026.278.078.357.051.079.128.118.232.118.105 0 .183-.038.233-.115.05-.077.076-.196.076-.36v-1.185c-.11.115-.231.2-.363.258-.13.058-.271.088-.42.088-.369 0-.648-.14-.838-.421-.19-.281-.285-.693-.285-1.237v-1.436c0-.65.132-1.136.396-1.457.265-.32.666-.48 1.2-.48.535 0 .935.16 1.2.48.265.32.397.806.397 1.457v3.757c0 .652-.132 1.138-.397 1.459-.265.32-.665.48-1.2.48-.518 0-.913-.155-1.186-.466-.273-.313-.41-.763-.41-1.352v-.328h1.287zm0-3.725v1.575c0 .157.026.274.078.352a.258.258 0 00.232.118c.105 0 .183-.038.233-.115.05-.077.076-.195.076-.355v-1.575c0-.16-.025-.276-.076-.352-.05-.075-.128-.113-.233-.113-.107 0-.185.036-.235.11-.05.074-.075.192-.075.355zm3.522 3.725v.383c0 .16.027.278.078.357a.258.258 0 00.233.118c.105 0 .183-.038.233-.115.05-.077.075-.196.075-.36v-1.185c-.11.115-.23.2-.363.258a1.02 1.02 0 01-.42.088c-.368 0-.647-.14-.838-.421-.19-.281-.285-.693-.285-1.237v-1.436c0-.65.132-1.136.397-1.457.265-.32.666-.48 1.2-.48.534 0 .935.16 1.2.48.264.32.396.806.396 1.457v3.757c0 .652-.132 1.138-.396 1.459-.265.32-.666.48-1.2.48-.518 0-.914-.155-1.186-.466-.274-.313-.41-.763-.41-1.352v-.328h1.286zm0-3.725v1.575c0 .157.027.274.078.352a.258.258 0 00.233.118c.105 0 .183-.038.233-.115.05-.077.075-.195.075-.355v-1.575c0-.16-.025-.276-.075-.352-.05-.075-.128-.113-.233-.113-.107 0-.185.036-.235.11-.05.074-.076.192-.076.355zM30.3 63.347v3.772h-1.614v-2.547l-.645 2.547h-1.144l-.68-2.488v2.488h-1.613v-3.772h2.39c.07.227.143.494.223.801l.254.96.42-1.761H30.3zm3.928 0l1.056 3.772h-1.89l-.091-.678h-.663l-.11.678h-1.91l.938-3.772h2.67zm-.977 2.426a24.226 24.226 0 01-.282-1.583c-.187.721-.304 1.249-.35 1.583h.632z" fill="#000"/><path fill-rule="evenodd" clip-rule="evenodd" d="M39.34 63.347l-.646 1.668.975 2.104h-1.71a7.92 7.92 0 01-.562-1.372c-.046.237-.11.49-.193.758l-.175.614h-1.797l.666-2.104-.666-1.668h1.784c.032.104.097.277.193.52.076.185.139.353.188.508l.395-1.028h1.547z" fill="#000"/><path fill-rule="evenodd" clip-rule="evenodd" d="M43.12 63.347l1.056 3.772h-1.89l-.092-.678h-.662l-.11.678h-1.91l.938-3.772h2.67zm-.978 2.426a24.226 24.226 0 01-.281-1.583c-.187.721-.304 1.249-.35 1.583h.631zm4.871-.1c-.15.083-.344.15-.583.2-.24.052-.482.076-.728.076-.441 0-.763-.065-.962-.195-.2-.13-.3-.333-.3-.606v-1.804h1.849v1.7c0 .147.024.248.073.303.048.055.127.083.238.083.276 0 .413-.126.413-.378v-1.708h1.85v3.775h-1.85v-1.446zm2.587-2.329h1.849l.009 1.594c.348-.004.528-.107.54-.308l.034-.736c.012-.271.111-.455.298-.55h1.706c-.166.092-.248.281-.245.569l.008.648c.007.39-.41.614-1.245.669.836.054 1.252.28 1.245.678l-.008.6c-.003.287.079.49.245.611H52.33c-.199-.094-.298-.278-.298-.55v-.736c0-.093-.054-.168-.16-.225a.9.9 0 00-.414-.087l-.01 1.598H49.6v-3.775z" fill="#000"/><path fill-rule="evenodd" clip-rule="evenodd" d="M57.6 63.347l1.057 3.772h-1.89l-.091-.678h-.663l-.11.678h-1.91l.938-3.772h2.67zm-.977 2.426a24.286 24.286 0 01-.281-1.583c-.187.721-.304 1.249-.35 1.583h.631z" fill="#000"/><path fill-rule="evenodd" clip-rule="evenodd" d="M63.48 67.12h-1.85V64.1h-.539v2.137c0 .28-.067.482-.203.605s-.343.2-.621.23c-.277.032-.72.047-1.328.047h-.29v-.65c.226 0 .38-.014.465-.044.084-.03.128-.13.128-.303v-2.778h4.24v3.775zm3.924-3.773l1.056 3.772h-1.89l-.091-.678h-.663l-.11.678h-1.91l.938-3.772h2.67zm-.977 2.426a24.362 24.362 0 01-.282-1.583c-.187.721-.303 1.249-.35 1.583h.632zM46.553 37.761c3.46 0 6.267 2.77 6.267 6.185 0 3.416-2.807 6.185-6.267 6.185-3.46 0-6.267-2.77-6.267-6.185 0-3.415 2.807-6.185 6.267-6.185zm4.26 4.943l-1.754.563-.883 2.683 1.083 1.472c.438-.076.974-.256 1.647-.576a5.11 5.11 0 00.897-2.767 5.732 5.732 0 00-.99-1.375zm-1.895.36l1.82-.584c.062-.434.055-.993-.046-1.723a5.26 5.26 0 00-2.387-1.698 5.86 5.86 0 00-1.633.506v1.888l2.246 1.61zm.148 4.496l-1.058-1.436h-2.91L44.04 47.56c.209.387.548.836 1.066 1.369a5.321 5.321 0 002.94-.013c.411-.39.785-.92 1.02-1.357zm-5.219-.138l1.083-1.472-.883-2.684-1.754-.562c-.307.316-.635.772-.988 1.421a5.114 5.114 0 00.922 2.76 5.853 5.853 0 001.62.537zm-1.48-4.942l1.82.584 2.247-1.61v-1.89c-.4-.192-.942-.358-1.678-.49a5.262 5.262 0 00-2.371 1.72 5.651 5.651 0 00-.017 1.686zm9.666 1.805l.547-.392v.053c0 1.326-.44 2.55-1.183 3.54l-.209-.635a5.34 5.34 0 00.845-2.566zm-.572-3.792h-.678a5.502 5.502 0 00-2.21-1.587l-.21-.636a6.038 6.038 0 013.098 2.223zm-3.54 8.703l.548.393a6.09 6.09 0 01-1.916.307 6.09 6.09 0 01-1.916-.307l.549-.393a5.568 5.568 0 002.735 0zm-6.003-2.345l-.21.636a5.872 5.872 0 01-1.183-3.54v-.055l.549.394c.058.94.36 1.815.844 2.565zm.404-6.358h-.677a6.037 6.037 0 013.098-2.223l-.21.636a5.502 5.502 0 00-2.21 1.587z" fill="#000"/></svg>