<?xml version="1.0" encoding="utf-8"?><svg viewBox="0 0 166 98" xmlns="http://www.w3.org/2000/svg" xmlns:xlink="http://www.w3.org/1999/xlink"><style>:root>svg{display:none}:root>svg:target{display:block}</style><svg fill="none" viewBox="0 0 33 30" id="icon-abilities-01" xmlns="http://www.w3.org/2000/svg"><path fill-rule="evenodd" clip-rule="evenodd" d="M9.862 1.502c-.348.827-.773 2.056-.944 2.732-.41 1.618-.805 1.806-2.703 1.286-1.127-.309-1.713-.282-2.012.09C3.7 6.235.726 19.51 1.023 19.802c.111.111.874-.03 1.694-.313 2.173-.752 5.81-.184 7.992 1.249 1.782 1.17 1.94 1.193 3.938.6 2.351-.7 5.71-.836 7.212-.293.948.343.882 0-1.177-6.109-1.2-3.56-2.424-6.552-2.72-6.65-.297-.098-.742.35-.99.995-.247.645-.528 1.173-.625 1.173-.096 0-1.157-2.352-2.358-5.227C12.644 2.005 11.555 0 11.15 0c-.36 0-.941.676-1.289 1.502zM28.417.91c-.505.5-.917 1.318-.917 1.818 0 1.171 1.57 2.728 2.75 2.728S33 3.898 33 2.727C33 1.557 31.43 0 30.25 0c-.504 0-1.33.41-1.833.91zm-1.49 12.226c-1.5 2.65-1.562 3.229-.348 3.229.845 0 .81.166-.492 2.262-1.518 2.448-1.45 3.192.294 3.192.651 0 1.119.265 1.119.633 0 .65.948 1.185 2.1 1.185.358 0 .65-.409.65-.909 0-.66.306-.909 1.119-.909 1.743 0 1.812-.744.294-3.192-1.301-2.096-1.337-2.262-.492-2.262.502 0 .912-.226.912-.502 0-1.023-2.545-4.952-3.208-4.952-.378 0-1.255 1.001-1.948 2.226zM2.442 22.482C.537 23.303 0 24.4 0 27.47V30h16.5c9.075 0 16.5-.116 16.5-.257 0-.142-.212-.65-.472-1.132-.705-1.306-3.015-2.313-6.207-2.706-1.871-.23-3.448-.756-4.607-1.536-2.027-1.367-2.97-1.45-5.672-.505-2.786.974-4.051.844-6.646-.682-2.526-1.486-4.64-1.7-6.954-.701z" fill="#000"/></svg><svg fill="none" viewBox="0 0 27 33" id="icon-abilities-02" xmlns="http://www.w3.org/2000/svg"><path fill-rule="evenodd" clip-rule="evenodd" d="M11.982 1.024c-2.08 2.22-.533 5.82 2.502 5.82 1.77 0 3.37-1.664 3.37-3.505 0-2.97-3.84-4.483-5.872-2.315zm-9.55 6.853C1.513 8.897 0 14.042 0 16.151c0 1.31 1.757 3.083 3.055 3.083.826 0 1.06-.61 1.982-5.162A2059.32 2059.32 0 016.3 7.877c.191-.912.034-1.032-1.36-1.032-1.052 0-1.884.342-2.506 1.032zm6.85 1.377c-.577.628-1.236 2.443-1.682 4.638-1.192 5.858-1.184 5.887 2.491 8.896 2.877 2.356 3.3 2.913 3.925 5.165 1.288 4.648 1.368 4.814 2.387 4.964.6.089 1.11-.15 1.283-.6.5-1.308-1.138-8.07-2.573-10.619l-1.373-2.437.684-3.256c.934-4.452.87-5.612-.377-6.786-1.395-1.314-3.54-1.298-4.765.035zm15.43 0c-.006.634-.7 1.607-1.803 2.525l-1.794 1.493-1.613-.954-1.614-.954-.234 1.067c-.574 2.626-.52 2.79 1.115 3.392 2.406.884 3.257.78 4.667-.575l1.284-1.233v9.492c0 8.133.098 9.493.686 9.493.59 0 .687-1.403.687-9.872 0-7.061.162-10.131.568-10.783.452-.726.452-1.097 0-1.823-.313-.501-.568-1.224-.568-1.606a.693.693 0 00-.687-.695c-.404 0-.69.425-.694 1.033zM4.822 27.259C2.586 31.623 2.41 33 4.082 33c.624 0 1.581-1.04 3.06-3.327 1.183-1.83 2.218-3.636 2.3-4.015.083-.378-.429-1.14-1.136-1.692L7.02 22.963l-2.199 4.296z" fill="#000"/></svg><svg fill="none" viewBox="0 0 27 34" id="icon-abilities-03" xmlns="http://www.w3.org/2000/svg"><path fill-rule="evenodd" clip-rule="evenodd" d="M25.54 2.965c-.149 1.631-.585 3.903-.97 5.048-.822 2.45-3.12 5.102-4.422 5.102-.53 0-.918.278-.918.656 0 1.948 4.009-.404 5.564-3.264C26.669 7.059 27.745 0 26.396 0c-.408 0-.666.896-.855 2.965zm-15.587-.58c-.581.59-1.057 1.582-1.057 2.205s.476 1.616 1.057 2.206c.581.59 1.559 1.073 2.172 1.073 1.436 0 3.23-1.821 3.23-3.279 0-1.457-1.794-3.278-3.23-3.278-.613 0-1.59.483-2.172 1.073zm9.822 1.3c-1.44 2.874-4.137 5.085-7.52 6.167-2.114.677-2.743.707-4.936.232-2.304-.499-2.636-.725-3.98-2.712C2.256 5.774 1.634 5.238.973 5.334c-1.43.209-1.29 1.419.449 3.876 1.328 1.878 2.172 2.543 4.723 3.723l3.106 1.437.289 2.76c.279 2.673.209 2.948-2.165 8.548-2.458 5.801-2.665 7.11-1.124 7.11.581 0 1.71-1.393 3.781-4.668a969.237 969.237 0 013.213-5.06c.143-.214.961-.55 1.818-.747l1.559-.357.12 5.927c.085 4.263.27 5.978.657 6.108.414.14.538-1.288.538-6.194v-6.375h1.046c1.053 0 1.449.867 2.625 5.76.339 1.409 1.423 1.933 2.252 1.091.518-.526.502-1.321-.11-5.59-.394-2.738-.845-5.114-1.004-5.28-.158-.167-1.352-.364-2.652-.438l-2.364-.134-.332-2.354c-.33-2.342-.322-2.366 1.664-4.809 2.365-2.908 4.28-6.66 3.905-7.65-.57-1.507-1.966-.777-3.193 1.668z" fill="#000"/></svg><svg fill="none" viewBox="0 0 33 32" id="icon-abilities-04" xmlns="http://www.w3.org/2000/svg"><path d="M13.595 24.661v0a6.423 6.423 0 10-6.423 6.422v-.25.25a6.43 6.43 0 006.423-6.422zm-8.57-3.214a3.865 3.865 0 114.295 6.427 3.865 3.865 0 01-4.295-6.427zm27.087 3.214v0a6.423 6.423 0 10-6.422 6.422v-.249.25a6.43 6.43 0 006.422-6.423zm-8.57-3.214a3.865 3.865 0 114.295 6.427 3.865 3.865 0 01-4.295-6.427z" fill="#000" stroke="#000" stroke-width=".5"/><path d="M17.46 27.997h.25v-7.982l-.073-.073-5.996-5.995 4.363-4.364 4.967 4.967.073.073h6.953v-2.557h-5.893l-4.469-4.469h0a2.31 2.31 0 00-3.262 0h0l-4.718 4.717h0a2.31 2.31 0 000 3.265h0l5.497 5.496v6.922h2.308zm4.629-19.546h0a3.855 3.855 0 003.85-3.85v0a3.85 3.85 0 10-3.85 3.85z" fill="#000" stroke="#000" stroke-width=".5"/></svg><svg fill="none" viewBox="0 0 29 30" id="icon-abilities-05" xmlns="http://www.w3.org/2000/svg"><path d="M.862 0v30h2.546V20h25.454V0h-28zm2.546 2.5h3.818v3.75h3.818V2.5h3.818v3.75h3.818V2.5H22.5v3.75h3.818V10h-3.818v3.75h3.818v3.75h-3.818v-3.75H18.68v3.75h-3.818v-3.75h-3.818v3.75H7.226v-3.75H3.408V10h3.818V6.25H3.408V2.5zM7.226 10v3.75h3.818V10H7.226zm3.818 0h3.818V6.25h-3.818V10zm3.818 0v3.75h3.818V10h-3.818zm3.818 0H22.5V6.25H18.68V10z" fill="#000"/></svg><svg fill="none" viewBox="0 0 34 31" id="icon-abilities-06" xmlns="http://www.w3.org/2000/svg"><path d="M23.345 5.61a2.805 2.805 0 100-5.61 2.805 2.805 0 000 5.61zM33.862 14.724V9.536l-6.998-2.96a3.13 3.13 0 00-3.8 1.137l-1.402 2.243c-.94 1.655-2.679 2.89-4.782 3.254l.084.084a5.586 5.586 0 003.45 1.64 10.058 10.058 0 002.93-2.3l.842 4.208-1.627 1.542-1.318 1.248v9.115c0 .772.631 1.403 1.402 1.403.772 0 1.403-.631 1.403-1.403v-7.011l2.945-2.805 2.271 10.083a1.47 1.47 0 001.43 1.136c.926 0 1.613-.842 1.431-1.74l-2.72-13.686-.87-4.347 2.524.982v3.365c0 .772.631 1.403 1.402 1.403.772 0 1.403-.631 1.403-1.403zm-19.226-3.912c.309.21.66.336 1.01.407.182.028.35.056.533.056.182 0 .364-.014.533-.056.182-.028.35-.085.518-.155.337-.14.66-.336.926-.617.687-.687.94-1.64.771-2.524a2.711 2.711 0 00-.771-1.444 2.892 2.892 0 00-.925-.617 2.213 2.213 0 00-.52-.155c-.182-.028-.35-.056-.532-.056-.168 0-.323.014-.491.042a2.676 2.676 0 00-.575.155 3.324 3.324 0 00-.912.63 2.71 2.71 0 00-.77 1.445 2.816 2.816 0 00.77 2.524c.127.14.281.253.435.365z" fill="#000"/><path d="M15.968 14.276l-2.805-2.805c-.14-.14-.28-.252-.434-.364a2.706 2.706 0 00-1.01-.393 2.294 2.294 0 00-.533-.056c-.715 0-1.43.28-1.977.827L4.525 16.17a2.795 2.795 0 00-.813 2.16c0 .252.056.518.154.77l1.5 4.137-4.094 4.095a1.4 1.4 0 001.977 1.977l4.964-4.964v-3.113l1.81 1.725v5.791c0 .772.63 1.403 1.402 1.403.77 0 1.402-.631 1.402-1.402v-7.012l-2.973-2.973 3.31-3.31.995.996c1.43 1.402 3.197 2.37 5.315 2.72.897.155 1.697-.63 1.626-1.542a1.433 1.433 0 00-1.22-1.318c-1.584-.252-2.888-1.01-3.912-2.033z" fill="#000"/></svg><svg fill="none" viewBox="0 0 24 33" id="icon-abilities-07" xmlns="http://www.w3.org/2000/svg"><path d="M17.21 7.196a3.598 3.598 0 100-7.196 3.598 3.598 0 000 7.196zm-7.227 3.423c-.997.248-1.678.62-2.227 1.083-.824.694-1.489 1.695-2.388 3.268a1.599 1.599 0 11-2.776-1.587c.894-1.564 1.799-3.028 3.104-4.127 1.363-1.148 3.03-1.797 5.28-2.047.94-.104 1.974-.084 2.944.349 1.018.455 1.762 1.27 2.269 2.359.682 1.465 1.19 2.338 1.596 2.843.196.243.333.356.41.406.062.04.088.043.098.045.07.008.296 0 .958-.294.288-.128.603-.281.989-.469l.092-.045c.471-.232.947-.456 1.426-.671a1.599 1.599 0 011.3 2.922c-.445.2-.886.407-1.322.623l-.105.05c-.369.18-.74.362-1.087.516-.72.318-1.64.663-2.636.543-1.053-.128-1.863-.722-2.531-1.52l-2.185 4.216 3.022 3.933c.18.235.291.515.322.809l.666 6.393a1.6 1.6 0 11-3.181.33l-.619-5.942-1.836-2.39-.016.03-.067-.137-3.391-4.413a1.599 1.599 0 01-.226-1.547l2.117-5.529z" fill="#000"/><path d="M7.561 19.994L6.384 23.16l-4.637-.367a1.598 1.598 0 00-.861 3.023c.189.094.395.15.607.164l5.843.464a1.599 1.599 0 001.625-1.036l.9-2.421-2.3-2.993z" fill="#000"/></svg><svg fill="none" viewBox="0 0 33 33" id="icon-abilities-08" xmlns="http://www.w3.org/2000/svg"><path fill-rule="evenodd" clip-rule="evenodd" d="M.268.645A1.5 1.5 0 011.5 0h9.75a1.5 1.5 0 011.398.957l2.566 6.607a12.892 12.892 0 012.572 0L20.352.957A1.5 1.5 0 0121.75 0h9.75a1.5 1.5 0 011.405 2.025l-4.82 12.893a12.7 12.7 0 011.165 5.332C29.25 27.292 23.541 33 16.5 33S3.75 27.291 3.75 20.25c0-1.9.417-3.708 1.165-5.332L.095 2.025A1.5 1.5 0 01.268.645zm6.684 11.154a12.766 12.766 0 015.301-3.572L10.223 3h-6.56l3.289 8.799zm7.598-1.104A9.768 9.768 0 007.874 15.7 9.7 9.7 0 006.75 20.25c0 5.385 4.365 9.75 9.75 9.75s9.75-4.365 9.75-9.75v-.002a9.701 9.701 0 00-1.124-4.547 9.768 9.768 0 00-6.676-5.006 9.794 9.794 0 00-1.95-.195c-.67 0-1.321.067-1.95.195zm6.197-2.468a12.768 12.768 0 015.301 3.572L29.338 3h-6.561l-2.03 5.227zM29.25 20.25v.002l-1.5-.002h1.5zm-11.873-6.467A1.5 1.5 0 0118 15v8.25h1.5a1.5 1.5 0 010 3h-6a1.5 1.5 0 010-3H15v-6h-.75a1.5 1.5 0 01-.474-2.923l2.25-.75a1.5 1.5 0 011.351.206z" fill="#000"/></svg><svg fill="none" viewBox="0 0 36 13" id="icon-arrow-dropdown" xmlns="http://www.w3.org/2000/svg"><path d="M1 1l17 10L35 1" stroke="#404445" stroke-width="2"/></svg><svg fill="none" viewBox="0 0 55 98" id="icon-arrow-next" xmlns="http://www.w3.org/2000/svg"><path fill-rule="evenodd" clip-rule="evenodd" d="M2.95 83.984a7 7 0 000 9.9l3.557 3.556L55 48.947 6.507.454 2.95 4.011a7 7 0 000 9.9l35.036 35.036L2.95 83.984zM4.364 5.425a5 5 0 000 7.071l36.45 36.451-36.45 36.451a5 5 0 000 7.071l2.143 2.143 45.665-45.665L6.507 3.283 4.364 5.425z" fill="currentColor"/></svg><svg fill="none" viewBox="0 0 55 98" id="icon-arrow-prev" xmlns="http://www.w3.org/2000/svg"><path fill-rule="evenodd" clip-rule="evenodd" d="M52.05 13.91a7 7 0 000-9.899L48.493.454 0 48.947 48.493 97.44l3.557-3.557a7 7 0 000-9.9L17.014 48.948 52.05 13.911zm-1.414 78.56a5 5 0 000-7.072l-36.45-36.45 36.45-36.452a5 5 0 000-7.07l-2.143-2.143L2.828 48.947l45.665 45.665 2.143-2.143z" fill="currentColor"/></svg><svg fill="none" viewBox="0 0 39 48" id="icon-doc" xmlns="http://www.w3.org/2000/svg"><path d="M19.646 30.125c-1.48 0-2.345 1.409-2.345 3.295 0 1.898.89 3.24 2.36 3.24 1.48 0 2.33-1.411 2.33-3.298 0-1.742-.835-3.237-2.345-3.237z" fill="#27AE60"/><path d="M24 0H4.8A4.8 4.8 0 000 4.8v38.4A4.8 4.8 0 004.8 48h28.8a4.8 4.8 0 004.8-4.8V14.4L24 0zM12.372 37.09c-1.022.85-2.575 1.25-4.474 1.25-1.14 0-1.944-.072-2.49-.144v-9.53a19.595 19.595 0 012.963-.2c1.843 0 3.039.332 3.972 1.037 1.008.749 1.642 1.944 1.642 3.653 0 1.86-.677 3.142-1.613 3.934zm7.176 1.31c-2.88 0-4.562-2.174-4.562-4.94 0-2.906 1.855-5.078 4.72-5.078 2.979 0 4.606 2.23 4.606 4.908-.002 3.18-1.932 5.11-4.764 5.11zm11.172-1.829c.66 0 1.394-.146 1.829-.317l.331 1.712c-.403.201-1.31.417-2.489.417-3.353 0-5.08-2.085-5.08-4.85 0-3.31 2.359-5.15 5.296-5.15 1.138 0 2 .23 2.388.431l-.446 1.743a4.749 4.749 0 00-1.843-.36c-1.743 0-3.096 1.051-3.096 3.211 0 1.942 1.152 3.163 3.11 3.163zM24 16.8h-2.4v-12l12 12H24z" fill="#27AE60"/><path d="M8.601 30.151c-.487 0-.804.043-.99.087v6.348c.186.043.489.043.76.043 1.987.014 3.28-1.078 3.28-3.396.015-2.016-1.163-3.082-3.05-3.082z" fill="#27AE60"/></svg><svg fill="none" viewBox="0 0 39 39" id="icon-instagram" xmlns="http://www.w3.org/2000/svg"><path d="M19.451 12.969c-3.572 0-6.488 2.915-6.488 6.488 0 3.573 2.916 6.488 6.488 6.488 3.573 0 6.488-2.915 6.488-6.488 0-3.573-2.915-6.488-6.488-6.488zm19.46 6.488c0-2.687.024-5.35-.127-8.031-.15-3.116-.861-5.88-3.14-8.158C33.363.985 30.603.279 27.488.128c-2.686-.15-5.349-.126-8.03-.126-2.688 0-5.35-.025-8.032.126C8.31.28 5.545.99 3.267 3.268.985 5.55.28 8.31.128 11.426c-.15 2.687-.127 5.349-.127 8.03 0 2.683-.024 5.35.127 8.032.15 3.115.862 5.88 3.14 8.158 2.282 2.283 5.042 2.989 8.157 3.14 2.687.15 5.35.126 8.031.126 2.687 0 5.35.024 8.031-.127 3.115-.15 5.88-.861 8.158-3.14 2.283-2.282 2.988-5.042 3.14-8.157.155-2.682.126-5.344.126-8.031zM19.45 29.44a9.969 9.969 0 01-9.983-9.983 9.969 9.969 0 019.983-9.983 9.969 9.969 0 019.983 9.983 9.969 9.969 0 01-9.983 9.983zm10.392-18.044a2.329 2.329 0 01-2.331-2.331 2.329 2.329 0 012.331-2.332 2.329 2.329 0 012.155 3.225 2.327 2.327 0 01-2.155 1.438z" fill="#BD4BE4"/></svg><svg fill="none" viewBox="0 0 35 31" id="icon-like" xmlns="http://www.w3.org/2000/svg"><path fill-rule="evenodd" clip-rule="evenodd" d="M23.637.02c-.729.03-.758.037-.965.182l-.375.262a1.503 1.503 0 01-.467.17c-.228.043-.38.114-.594.274-.28.212-.385.26-.825.37-.19.047-.467.297-2.26 2.035-1.422 1.38-2.107 2.01-2.255 2.075-.262.115-.882.13-1.138.025a2.394 2.394 0 01-.428-.265 1.362 1.362 0 00-.542-.258 1.525 1.525 0 01-.446-.172l-.37-.258c-.208-.146-.226-.15-1.042-.18-.9-.034-1.045-.07-1.392-.341-.402-.315-.798-.31-1.219.014a1.482 1.482 0 01-.432.226c-.115.03-.677.072-1.249.095l-1.04.04-.209.147a84.89 84.89 0 01-.37.258 1.51 1.51 0 01-.469.17 1.215 1.215 0 00-.574.264 2.56 2.56 0 01-.635.33c-.406.139-.648.321-1.403 1.058-.912.89-.996.996-1.157 1.472-.046.137-.166.35-.265.47a1.99 1.99 0 00-.308.627c-.071.227-.192.482-.275.58-.252.298-.32.483-.366.99-.051.558-.086.664-.306.931-.223.271-.263.461-.26 1.233.001.746.044.927.293 1.232.213.262.27.497.27 1.125 0 .632.085.948.334 1.253.1.123.24.391.313.607.083.24.194.449.294.55.513.524.808.921.937 1.26.132.35.16.38 1.462 1.644 1.276 1.238 1.341 1.293 1.678 1.416.252.093.45.216.709.44.267.232 4.521 4.296 4.74 4.529.27.287 3.109 3.033 3.558 3.443.693.631.885.728 1.223.618.266-.087.927-.69 3.153-2.871.956-.936 1.756-1.718 1.777-1.737.023-.018 1.74-1.679 3.819-3.69l3.779-3.656.409-.132.41-.133 1.923-1.87 1.924-1.87.138-.4c.138-.405.35-.69.908-1.22.155-.147.226-.278.327-.601.074-.234.194-.49.278-.588.365-.432.343-.214.343-3.38 0-3.163.022-2.946-.342-3.377-.08-.096-.206-.348-.28-.562-.083-.243-.193-.45-.294-.552-.464-.474-.816-.933-.894-1.165-.133-.395-.201-.498-.562-.845-.29-.279-.393-.343-.728-.453a1.613 1.613 0 01-.657-.366c-.867-.778-1.001-.858-1.45-.862-.375-.005-.754-.129-1-.328a1.36 1.36 0 00-.403-.224c-.23-.063-3.69-.106-4.753-.06zm2.861 5.535a2.5 2.5 0 01.44.276c.147.112.296.204.33.204.035 0 .189.036.341.08.221.064.355.153.655.436.322.303.389.396.455.633.105.374.202.577.38.796.182.224.26.488.26.884 0 .39-.078.66-.253.876-.183.225-.25.349-.367.682-.123.347-.38.627-2.104 2.289a481.15 481.15 0 00-2.189 2.123c-.457.448-1.164 1.135-1.572 1.527-.764.735-3.64 3.536-3.704 3.608-.21.236-3.062 2.923-3.178 2.994a.811.811 0 01-.386.095.811.811 0 01-.387-.095c-.115-.07-2.968-2.758-3.178-2.994a543.786 543.786 0 00-3.704-3.605c-.99-.949-1.908-1.89-2.003-2.057-.1-.174-.142-1.94-.054-2.255.035-.13.175-.339.377-.564.57-.637 1.55-1.557 1.763-1.653.178-.08.341-.093 1.225-.094.794 0 1.06.016 1.205.075.202.082.765.57 1.755 1.52.72.69.761.72 1.163.854.238.08.406.199.877.62.479.43.62.53.791.557.48.08.399.145 3.343-2.7 2.487-2.404 2.74-2.635 2.979-2.71.387-.123.534-.207.771-.437.888-.864 2.021-1.875 2.181-1.947.256-.114 1.52-.127 1.788-.018z" fill="#fff"/></svg><svg fill="none" viewBox="0 0 27 22" id="icon-list-01" xmlns="http://www.w3.org/2000/svg"><path d="M18.81 7.924v2.08l1.625-1.299 4.979-3.983v15.409H1V1h4.603V10.004l1.625-1.299 4.979-3.983v5.282l1.624-1.299 4.98-3.983v3.202zM9.245 18.17h1v-5.962H5.603v5.962h3.642zm6.603 0h1v-5.962h-4.641v5.962h3.641zm6.604 0h1v-5.962H18.81v5.962h3.642z" fill="#A8E5F9" stroke="#A8E5F9" stroke-width="2"/></svg><svg fill="none" viewBox="0 0 28 28" id="icon-list-02" xmlns="http://www.w3.org/2000/svg"><path d="M23.871 4.11A13.897 13.897 0 0013.982 0 13.907 13.907 0 004.09 4.11c-5.453 5.452-5.453 14.327 0 19.78A13.903 13.903 0 0013.983 28a13.897 13.897 0 009.89-4.108c5.453-5.452 5.453-14.327-.002-19.782zm-9.637-1.3h-.502c.085-.001.166-.013.252-.013.085 0 .165.012.25.013zm8.48 18.184h-3.138l-1.76 3.519a11.13 11.13 0 01-3.834.69 11.133 11.133 0 01-3.84-.691l-1.756-3.504H5.26a11.134 11.134 0 01-2.27-4.94L5.587 12.6l-1.7-3.403a11.1 11.1 0 012.18-3.11 11.182 11.182 0 014.504-2.755l3.409 2.275 3.41-2.273c1.699.545 3.243 1.49 4.504 2.752.9.903 1.636 1.954 2.179 3.107l-1.7 3.407 2.598 3.466a11.122 11.122 0 01-2.259 4.927z" fill="#A8E5F9"/><path d="M9.085 12.601l2.098 5.595h5.595l2.098-5.595-4.895-3.497-4.896 3.497z" fill="#A8E5F9"/></svg><svg fill="none" viewBox="0 0 20 23" id="icon-list-03" xmlns="http://www.w3.org/2000/svg"><path d="M16.364 21.23v-1.768H20v-1.77h-6.364v-1.769H20v-1.77h-3.636v-1.768H20v-1.77h-3.636V8.846H20v-1.77h-6.364V5.309H20v-1.77h-3.636V1.77H20V0h-9.09v23H20v-1.77h-3.636zm-9.091-3.538H0V0h7.273v17.692zm0 1.77L3.636 23 0 19.462h7.273z" fill="#A8E5F9"/></svg><svg fill="none" viewBox="0 0 28 28" id="icon-list-04" xmlns="http://www.w3.org/2000/svg"><path d="M10.5 1.313C10.5.588 11.085 0 11.813 0h4.374c.728 0 1.313.588 1.313 1.313 0 .724-.585 1.312-1.313 1.312h-.875v1.839a9.575 9.575 0 014.501 1.863l1.302-1.298-.618-.619a1.31 1.31 0 010-1.856 1.309 1.309 0 011.854 0l3.095 3.095c.514.509.514 1.34 0 1.854a1.307 1.307 0 01-1.854 0l-.623-.618-1.296 1.302a9.6 9.6 0 011.865 4.5h1.837v-.874a1.31 1.31 0 011.313-1.313A1.31 1.31 0 0128 11.813v4.374a1.31 1.31 0 01-1.313 1.313 1.31 1.31 0 01-1.312-1.313v-.875h-1.837a9.6 9.6 0 01-1.865 4.501l1.296 1.302.623-.618a1.307 1.307 0 011.854 0 1.307 1.307 0 010 1.854l-3.095 3.095a1.307 1.307 0 01-1.854 0 1.307 1.307 0 010-1.854l.618-.623-1.302-1.296a9.6 9.6 0 01-4.5 1.865v1.837h.874a1.31 1.31 0 011.313 1.313A1.31 1.31 0 0116.187 28h-4.375a1.31 1.31 0 01-1.312-1.313 1.31 1.31 0 011.313-1.312h.874v-1.837a9.6 9.6 0 01-4.5-1.865l-1.302 1.301.618.618c.514.509.514 1.34 0 1.854a1.307 1.307 0 01-1.854 0l-3.095-3.095a1.309 1.309 0 010-1.854 1.31 1.31 0 011.856 0l.619.618 1.298-1.302a9.575 9.575 0 01-1.863-4.5H2.625v.874c0 .728-.588 1.313-1.313 1.313A1.311 1.311 0 010 16.187v-4.375c0-.727.588-1.312 1.313-1.312.724 0 1.312.585 1.312 1.313v.874h1.839a9.575 9.575 0 011.863-4.5L5.03 6.885l-.619.618a1.31 1.31 0 01-1.856 0 1.309 1.309 0 010-1.854l3.095-3.095a1.31 1.31 0 011.854 0 1.31 1.31 0 010 1.856l-.618.619 1.302 1.298a9.575 9.575 0 014.5-1.863V2.625h-.874A1.31 1.31 0 0110.5 1.312zm0 8.312a2.626 2.626 0 10.001 5.251 2.626 2.626 0 00-.001-5.251zm6.125 8.313a1.31 1.31 0 001.313-1.313 1.31 1.31 0 00-1.313-1.313 1.31 1.31 0 00-1.313 1.313 1.31 1.31 0 001.313 1.313z" fill="#A8E5F9"/></svg><svg fill="none" viewBox="0 0 21 38" id="icon-list-05" xmlns="http://www.w3.org/2000/svg"><path d="M15.775 12.576c-1.028-1.09-1.57-1.665-1.57-3.805H6.24c0 2.14-.541 2.715-1.57 3.806-.375.398-.815.864-1.317 1.5l-.1.126C1.31 16.666.268 19.613.268 22.634v1.973c.272-.18.512-.397.71-.647a6.229 6.229 0 012.321-1.784 6.93 6.93 0 012.942-.605 6.93 6.93 0 012.943.605 6.227 6.227 0 012.32 1.785c.303.38.705.69 1.17.9a3.494 3.494 0 001.565.304c.52.01 1.034-.095 1.5-.305.464-.21.866-.518 1.169-.9a6.278 6.278 0 012.648-1.922 1.72 1.72 0 01.604-.117c-.15-2.77-1.178-5.45-2.967-7.718l-.1-.126c-.502-.636-.942-1.103-1.317-1.5z" fill="#A8E5F9"/><path d="M20.178 24.972c-.271.18-.512.398-.71.647a6.23 6.23 0 01-2.32 1.785 6.93 6.93 0 01-2.943.605 6.93 6.93 0 01-2.942-.605 6.229 6.229 0 01-2.32-1.785 3.14 3.14 0 00-1.17-.9 3.494 3.494 0 00-1.566-.304 3.494 3.494 0 00-1.499.305 3.14 3.14 0 00-1.17.9 6.279 6.279 0 01-2.64 1.918c-.206.08-.42.118-.631.117v6.118c0 .953.42 1.867 1.166 2.54.747.674 1.76 1.053 2.816 1.053h11.947c1.056 0 2.07-.379 2.816-1.053.747-.673 1.166-1.587 1.166-2.54v-8.801zM6.24 6.076h7.823V2.319A1.92 1.92 0 0013.49.953a1.968 1.968 0 00-1.383-.566H8.196c-.519 0-1.016.203-1.383.566a1.92 1.92 0 00-.573 1.366v3.757z" fill="#A8E5F9"/></svg><svg fill="none" viewBox="0 0 29 29" id="icon-list-06" xmlns="http://www.w3.org/2000/svg"><path fill-rule="evenodd" clip-rule="evenodd" d="M14.176 0C6.321.046-.019 6.412 0 14.238c.019 7.87 6.426 14.25 14.269 14.207 7.856-.043 14.213-6.428 14.176-14.237C28.407 6.316 22.02-.045 14.176 0zm.047 15.395l4.908 6.14c2.34-1.586 3.888-4.267 3.894-7.29.01-4.856-3.94-8.83-8.79-8.844-4.837-.016-8.81 3.96-8.814 8.817-.003 3.035 1.545 5.725 3.892 7.316l4.91-6.14z" fill="#A8E5F9"/></svg><svg fill="none" viewBox="0 0 39 48" id="icon-pdf" xmlns="http://www.w3.org/2000/svg"><path d="M10.24 30.432c-.44 0-.738.043-.892.086v2.828c.182.043.41.055.725.055 1.15 0 1.857-.581 1.857-1.563 0-.878-.61-1.406-1.69-1.406zm8.37.029c-.48 0-.792.043-.977.086v6.264c.185.043.482.043.751.043 1.96.015 3.238-1.065 3.238-3.35.014-1.992-1.15-3.043-3.012-3.043z" fill="#FF4672"/><path d="M24 0H4.8A4.8 4.8 0 000 4.8v38.4A4.8 4.8 0 004.8 48h28.8a4.8 4.8 0 004.8-4.8V14.4L24 0zM13.195 34.056c-.741.696-1.836 1.008-3.11 1.008a5.357 5.357 0 01-.74-.043v3.422H7.2v-9.446a18.14 18.14 0 012.926-.197c1.336 0 2.287.254 2.928.766.61.484 1.022 1.279 1.022 2.215-.002.94-.314 1.735-.88 2.275zm9.137 3.252c-1.008.838-2.542 1.236-4.416 1.236a18.49 18.49 0 01-2.458-.144V29a19.067 19.067 0 012.926-.2c1.817 0 2.998.326 3.92 1.022.995.74 1.62 1.918 1.62 3.61 0 1.831-.67 3.096-1.592 3.876zm8.868-6.66h-3.677v2.186h3.437v1.762h-3.437v3.85H25.35v-9.574H31.2v1.776zM24 16.8h-2.4v-12l12 12H24z" fill="#FF4672"/></svg><svg fill="none" viewBox="0 0 39 39" id="icon-telegram" xmlns="http://www.w3.org/2000/svg"><path fill-rule="evenodd" clip-rule="evenodd" d="M.043 19.457C.043 8.71 8.754 0 19.5 0s19.456 8.711 19.456 19.457c0 10.745-8.71 19.456-19.456 19.456-10.746 0-19.457-8.71-19.457-19.456zM7.617 19l19.78-7.627c.902-.408 1.775.218 1.43 1.6L25.46 28.846c-.235 1.129-.915 1.397-1.86.876l-5.131-3.79L16 28.33l-.028.026c-.275.266-.503.487-1 .487l.35-5.235-.002-.001h.003l9.52-8.591c.417-.37-.091-.553-.647-.215l-11.75 7.414L7.37 20.63c-1.094-.335-1.102-1.088.248-1.63z" fill="#05BFFA"/></svg><svg fill="none" viewBox="0 0 166 35" id="icon-tooba" xmlns="http://www.w3.org/2000/svg"><path fill-rule="evenodd" clip-rule="evenodd" d="M47.812.072a1.986 1.986 0 00-.417.25c-.25.194-.588.298-.97.298a1.15 1.15 0 00-.795.28c-.12.102-.37.23-.601.308a2.05 2.05 0 00-.637.335c-.234.196-.347.248-.773.36-.161.041-.345.192-.869.71-1.071 1.06-1.261 1.294-1.407 1.733a2.156 2.156 0 01-.35.657c-.16.2-.241.361-.287.57-.036.16-.115.362-.176.449l-.264.372-.152.214V12.08l.152.214.266.374c.062.088.14.3.173.472.047.241.112.376.286.593.149.185.27.414.355.67l.13.39 1.253 1.27 1.254 1.269.399.136c.261.089.482.207.64.342.17.146.337.232.564.29.443.114.543.175.864.526.198.217.297.376.338.54.04.163.06 1.24.063 3.519.003 1.806.02 3.819.038 4.472l.034 1.189.152.213.265.375c.062.088.14.298.173.467.044.228.116.38.279.593.215.28.262.385.374.824.046.182.194.358.922 1.096.948.962 1.093 1.078 1.538 1.234.182.063.394.19.54.323.884.808.97.857 1.617.911.543.045.68.087.9.274.382.322.364.32 2.106.338 1.76.018 1.875.004 2.21-.272.327-.268.43-.303.978-.34.465-.03.542-.05.724-.183.112-.082.273-.2.36-.262a1.48 1.48 0 01.443-.178 1.27 1.27 0 00.562-.291 2.11 2.11 0 01.655-.356c.365-.125.406-.156 1.03-.788.633-.641.652-.667.782-1.063.119-.361.171-.444.476-.746.406-.403.495-.454.784-.454.284 0 .42.09 1.011.676.846.837 1.036.985 1.437 1.127.363.127.572.283 1.256.934.135.129.323.23.594.322.218.073.475.2.572.28.3.249.49.32.98.361.497.043.604.082.924.341.298.242.475.283 1.228.283.757 0 .9.037 1.25.327.357.294.404.299 2.831.281 2.422-.018 2.324-.005 2.716-.337.245-.207.372-.236 1.197-.27.842-.036.948-.066 1.321-.367.105-.084.34-.187.573-.25.3-.08.46-.16.664-.328.158-.13.372-.25.52-.29.317-.087.509-.184.731-.369.097-.08.35-.205.563-.277.352-.118.431-.173.866-.594.537-.521.616-.574 1.024-.682.247-.065.36-.143.798-.545.438-.403.534-.468.687-.468.197 0 .272.06 1.247 1.021.406.4.582.538.736.579.465.12.57.184 1.1.667.5.455.596.518.95.638.216.073.472.199.57.279.299.249.49.32.978.361.498.043.605.082.925.341.298.242.475.283 1.22.283.727 0 .921.041 1.193.256.45.354.296.336 2.82.336 2.513 0 2.397.013 2.792-.321.245-.207.372-.236 1.197-.27.842-.036.949-.066 1.321-.366.1-.08.345-.19.555-.249.277-.077.442-.161.624-.316.176-.15.365-.248.649-.337.254-.079.476-.188.607-.3.121-.101.372-.23.601-.308.358-.121.438-.176.877-.598.544-.523.623-.576 1.028-.683.248-.065.361-.143.798-.545.438-.403.534-.468.688-.468.196 0 .271.06 1.246 1.021.407.4.582.538.737.579.465.12.569.184 1.1.667.5.455.595.518.949.638.216.073.473.199.569.279.298.247.492.32.98.364.521.047.659.09.876.274.327.277.459.312 1.293.347.825.035.952.064 1.197.27.395.335.28.322 2.792.322 2.512 0 2.396.013 2.792-.321.243-.206.37-.235 1.171-.27.814-.037.926-.068 1.296-.367.105-.084.34-.187.573-.25.3-.08.46-.16.664-.328.158-.13.372-.25.519-.29a1.74 1.74 0 00.732-.369c.097-.08.352-.206.568-.278.295-.1.458-.193.662-.381.762-.7.856-.771 1.116-.85.146-.043.295-.08.332-.08.036 0 .279-.195.541-.435.261-.24.537-.46.613-.489.211-.081.407.032.9.519.535.529.991.934 1.104.982.047.02.218.073.38.118.257.072.368.15.85.598.344.32.618.534.721.561l.378.1c.116.03.322.148.457.262.28.235.628.358 1.01.358.327 0 .556.075.786.256.376.296.484.326 1.296.362.8.036.928.065 1.171.27.083.07.23.171.328.224.171.094.416.098 6.732.113 4.837.012 6.608 0 6.758-.044.112-.032.3-.139.418-.236.302-.25.519-.327.915-.327.462 0 .644-.06.941-.314.153-.131.368-.251.553-.31.454-.143.55-.209 1.316-.909.151-.138.355-.259.548-.325.396-.135.52-.266.66-.698.102-.314.169-.411.621-.893.463-.494.518-.574.634-.926.071-.213.208-.488.305-.612a1.4 1.4 0 00.229-.438c.122-.502.163-.598.358-.847.114-.144.228-.338.254-.43.063-.22.063-3.928 0-4.148-.026-.093-.14-.286-.254-.43-.195-.25-.236-.346-.358-.848a1.4 1.4 0 00-.229-.437 2.452 2.452 0 01-.305-.614 2.088 2.088 0 00-.33-.635 1.81 1.81 0 01-.306-.587 1.819 1.819 0 00-.325-.612 1.344 1.344 0 01-.286-.544c-.073-.319-.169-.523-.34-.731a1.444 1.444 0 01-.181-.283c-.034-.08-.068-.698-.085-1.548-.031-1.553-.023-1.507-.381-1.983-.178-.236-.281-.59-.282-.966 0-.324-.082-.564-.279-.814-.11-.14-.225-.383-.303-.637-.087-.288-.187-.488-.33-.663a1.523 1.523 0 01-.284-.54 6.293 6.293 0 00-.114-.38c-.077-.192-2.18-2.37-4.153-4.3-.707-.69-.952-.9-1.102-.938l-.391-.103a1.46 1.46 0 01-.444-.259 1.473 1.473 0 00-.45-.26c-.427-.111-.538-.163-.773-.36a1.544 1.544 0 00-1.007-.356c-.326 0-.556-.075-.786-.256-.436-.344-.373-.333-2.235-.362-1.886-.028-1.659.012-2.264-.398-.23-.157-.275-.168-.681-.167-.531 0-.745.056-1 .263a1.906 1.906 0 01-.324.215c-.07.031-.612.07-1.219.087-1.173.032-1.243.047-1.598.347-.221.187-.357.229-.9.274-.515.043-.715.116-.991.359-.088.078-.34.202-.56.276a2.045 2.045 0 00-.646.34 1.517 1.517 0 01-.532.286c-.456.127-.391.082-1.309.909-.2.18-.361.27-.62.35-.206.063-.412.167-.497.25-.287.28-.915.816-1.022.874-.167.09-.528.071-.7-.038-.084-.053-.371-.314-.639-.579-.85-.843-1.673-1.613-1.764-1.65a5.274 5.274 0 00-.371-.115 1.66 1.66 0 01-.546-.29c-.144-.116-.336-.23-.427-.255l-.377-.1a1.478 1.478 0 01-.457-.262 1.544 1.544 0 00-1.01-.358c-.326 0-.556-.075-.786-.256-.425-.335-.413-.332-1.905-.363-.831-.017-1.422-.05-1.499-.085a1.972 1.972 0 01-.325-.217c-.245-.198-.617-.314-1.007-.314-.471 0-.617-.09-1.533-.94a1.197 1.197 0 00-.413-.248c-.425-.112-.535-.162-.783-.363-.282-.227-.481-.302-.802-.302-.382 0-.72-.104-.97-.298-.401-.31-.433-.315-2.221-.315s-1.82.004-2.221.315c-.25.194-.589.298-.97.298-.323 0-.52.075-.807.306a1.666 1.666 0 01-.545.29c-.404.112-.423.122-.748.408-.324.285-2.324 2.293-2.486 2.496-.056.07-.232.25-.39.399-.358.337-.51.353-.874.09-.138-.1-.276-.18-.308-.18-.191 0-.61-.185-.821-.362a1.547 1.547 0 00-1.02-.359c-.322 0-.551-.088-.842-.325-.328-.268-.459-.293-1.544-.293-1.087 0-1.181-.02-1.555-.325-.337-.274-.444-.292-1.763-.292-1.34 0-1.57.038-1.912.314a1.92 1.92 0 01-.325.216c-.07.031-.607.07-1.194.087-1.163.033-1.175.035-1.626.384-.123.095-.34.2-.491.235-.326.077-.517.17-.754.368-.1.083-.359.203-.592.276-.27.083-.488.19-.623.303-.12.103-.371.232-.601.31-.358.12-.438.175-.877.597-.545.524-.623.576-1.032.684-.256.068-.36.14-.812.563-.603.564-.667.604-.96.604-.285 0-.42-.09-1.01-.676-.85-.843-1.674-1.613-1.764-1.65a5.247 5.247 0 00-.372-.115 1.668 1.668 0 01-.546-.29c-.144-.116-.336-.23-.427-.255l-.376-.1a1.48 1.48 0 01-.458-.262 1.546 1.546 0 00-1.019-.358c-.327 0-.554-.09-.85-.335a1.407 1.407 0 00-.392-.233c-.093-.027-.599-.05-1.124-.05-1.055 0-1.154-.02-1.525-.327-.34-.281-.472-.3-1.941-.281-1.432.018-1.453.022-1.827.338-.256.216-.377.238-1.476.27-1.153.032-1.198.042-1.6.364-.252.201-.522.265-.81.192-.203-.05-.335-.162-1.042-.874-.663-.667-.847-.825-1.016-.869-.425-.11-.53-.16-.804-.375-.19-.15-.37-.24-.562-.284a1.463 1.463 0 01-.439-.177 79.553 79.553 0 01-.355-.258c-.171-.126-.269-.152-.706-.19-.562-.05-.752-.114-1.044-.352a1.305 1.305 0 00-.38-.212c-.296-.083-16.343-.067-16.572.017zm-24.496.54c-.719.033-.748.038-.952.188l-.37.269a1.446 1.446 0 01-.46.174 1.245 1.245 0 00-.586.283c-.277.218-.38.266-.814.38-.188.048-.461.305-2.229 2.092-1.403 1.418-2.078 2.066-2.225 2.133-.258.119-.87.133-1.123.026a2.35 2.35 0 01-.422-.273 1.32 1.32 0 00-.534-.264 1.47 1.47 0 01-.44-.178l-.365-.265c-.205-.15-.223-.153-1.028-.185-.888-.035-1.031-.072-1.373-.35-.397-.324-.787-.319-1.203.014-.12.097-.312.202-.426.232-.114.031-.668.075-1.232.098l-1.025.041-.206.151-.365.266a1.453 1.453 0 01-.463.175 1.177 1.177 0 00-.566.271c-.148.12-.42.267-.627.34-.4.142-.64.33-1.384 1.087-.9.914-.982 1.023-1.14 1.513-.047.141-.165.36-.263.484-.112.143-.225.382-.303.644-.07.233-.19.496-.272.596-.248.307-.315.496-.361 1.019-.05.573-.085.681-.301.956-.22.28-.26.475-.258 1.268.002.766.045.952.29 1.266.21.27.266.511.266 1.156 0 .65.084.975.33 1.29.1.125.236.401.309.623.081.247.191.461.29.566.506.538.797.947.924 1.296.13.359.157.39 1.442 1.69 1.258 1.272 1.323 1.328 1.655 1.455.249.095.445.222.7.452.263.239 4.46 4.417 4.676 4.656.266.295 3.066 3.119 3.509 3.54.683.649.873.748 1.206.635.263-.09.915-.708 3.11-2.951a438.8 438.8 0 011.754-1.786c.022-.019 1.717-1.726 3.767-3.793l3.727-3.76.404-.135.403-.137 1.898-1.922 1.898-1.923.136-.411c.136-.417.345-.709.895-1.254.153-.152.224-.286.324-.618.072-.24.19-.503.273-.605.36-.444.339-.22.339-3.474 0-3.252.021-3.03-.338-3.472-.08-.098-.203-.358-.275-.578-.082-.25-.191-.463-.29-.568-.459-.487-.806-.958-.883-1.197-.13-.406-.198-.512-.554-.869-.286-.287-.388-.353-.718-.465a1.574 1.574 0 01-.648-.377c-.855-.8-.988-.882-1.43-.887-.37-.004-.745-.132-.986-.336a1.328 1.328 0 00-.398-.231c-.227-.064-3.641-.108-4.689-.061zm2.822 5.691c.095.04.29.168.435.283.145.116.29.21.325.21.034 0 .186.038.337.083.218.066.35.157.645.448.318.312.383.407.45.65.103.385.199.594.374.819.18.23.256.502.256.909 0 .402-.076.678-.25.9-.18.232-.245.36-.361.702-.122.357-.375.645-2.075 2.353-.737.74-1.71 1.723-2.16 2.183-.45.46-1.148 1.166-1.55 1.57-.755.755-3.59 3.635-3.654 3.709-.207.242-3.021 3.005-3.135 3.078a.775.775 0 01-.381.097.775.775 0 01-.381-.097c-.114-.073-2.928-2.836-3.136-3.078a546 546 0 00-3.653-3.706c-.977-.976-1.882-1.944-1.976-2.116-.098-.178-.14-1.993-.054-2.318.036-.133.174-.348.373-.58.561-.654 1.529-1.6 1.738-1.698.177-.084.337-.096 1.209-.097.783-.001 1.046.016 1.189.076.199.085.755.586 1.731 1.563.71.709.75.74 1.147.878.235.082.4.204.865.639.473.441.61.543.78.572.474.08.394.148 3.298-2.777 2.453-2.47 2.703-2.708 2.939-2.786.381-.126.526-.212.76-.449.876-.888 1.994-1.928 2.152-2.001.252-.118 1.499-.13 1.763-.019zm38.278.007c.104.043.344.235.534.424.29.291.36.396.443.668.116.378.17.49.36.733.221.281.26.543.24 1.652-.013.807-.032 1.028-.1 1.153-.127.235-1.265 1.367-1.457 1.45-.094.04-.394.093-.667.117-.518.046-.62.081-.917.314-.3.236-.438.255-1.787.255-1.384 0-1.531.025-1.702.29-.088.136-.094.465-.118 6.863-.023 6.055-.034 6.737-.108 6.9-.12.26-1.244 1.383-1.503 1.5-.18.082-.392.102-1.347.129-1.353.038-1.591.002-1.982-.295a2.997 2.997 0 00-.61-.335c-.398-.155-.502-.268-.647-.708a2.08 2.08 0 00-.306-.567 1.531 1.531 0 01-.254-.437c-.034-.123-.052-2.458-.052-6.777 0-6.17-.006-6.6-.09-6.769-.176-.358-.192-.36-2.537-.36-1.37 0-2.187-.02-2.363-.058-.234-.051-.321-.11-.664-.448-.346-.34-.407-.43-.494-.714-.118-.386-.16-.472-.382-.766-.202-.268-.279-.594-.279-1.18 0-.585.077-.911.279-1.18.215-.285.272-.394.36-.695.11-.376.235-.501.617-.62.194-.061.429-.183.554-.287.427-.354-.271-.327 8.672-.33 7.204-.001 8.14.007 8.307.078zm53.745.017c.118.055.468.364.828.731.585.596.631.658.725.973.126.419.225.574.53.83.294.245.467.257.845.059l.269-.142 1.959-.016c2.109-.017 2.231-.005 2.542.244.312.249.498.317.981.358.502.043.608.083.929.347.13.108.327.202.533.256.441.113.454.122 1.067.69.417.389.58.508.732.537.385.073.564.185.908.57.241.27.371.467.438.663.052.153.122.332.156.396.07.131.757.967.882 1.072.045.038.126.217.182.398.118.389.161.475.383.77.182.24.277.585.281 1.014.003.332.087.579.288.839.085.11.181.281.213.38.032.098.072.677.089 1.286.037 1.313-.001 1.582-.276 1.946-.23.305-.311.53-.314.871-.004.43-.099.773-.283 1.018a1.914 1.914 0 00-.381.768c-.037.139-.141.35-.231.47-.215.285-.26.374-.372.74-.111.36-.362.664-1.454 1.755-1.047 1.047-1.25 1.218-1.556 1.31-.146.044-.294.08-.328.08-.035 0-.174.089-.31.198-.371.297-.458.33-.966.374-.482.041-.668.109-.981.357-.343.272-.389.276-3.049.276-2.658 0-2.706-.005-3.048-.276a1.845 1.845 0 00-.732-.364 1.615 1.615 0 01-.464-.234c-.282-.218-.368-.263-.737-.379a1.416 1.416 0 01-.577-.347c-.882-.819-.879-.817-1.276-.943-.291-.092-.411-.226-.56-.622a2.035 2.035 0 00-.377-.623c-.722-.807-.758-.857-.865-1.206a1.893 1.893 0 00-.284-.567 1.506 1.506 0 01-.351-.778c-.024-.143-.114-.32-.261-.512-.124-.161-.252-.387-.284-.502-.09-.316-.092-13.096-.002-13.395.109-.362 1.168-1.523 1.539-1.686.14-.061.437-.077 1.496-.078 1.176 0 1.343.01 1.524.094zM79.203 8.835c.092.037.264.149.382.247.15.125.338.211.62.288.242.065.478.167.584.252.228.184.422.282.73.366.15.041.346.155.503.29.177.153.379.263.654.356.44.148.767.41 1.34 1.07.358.413.4.48.535.865.064.179.198.397.35.566.692.774.762.868.84 1.132.043.148.078.297.078.33 0 .035.104.197.23.362.126.164.25.381.274.482.025.1.059.616.075 1.145.032 1.048.073 1.245.323 1.565.186.238.266.509.266.896 0 .393-.08.656-.284.923-.248.325-.324.639-.327 1.338-.002.69-.048.855-.344 1.233-.117.15-.213.301-.213.336 0 .197-.18.62-.355.835-.13.158-.25.39-.333.645-.142.431-.262.59-1.09 1.439-.783.803-.979.957-1.36 1.075a1.398 1.398 0 00-.553.298c-.49.452-.865.77-.983.834-.07.038-.338.087-.594.11-.483.04-.668.108-.981.356-.344.272-.39.276-3.05.276-2.659 0-2.705-.004-3.048-.276-.313-.248-.498-.316-.98-.357-.258-.022-.525-.07-.595-.109-.12-.064-.509-.395-.985-.837a1.184 1.184 0 00-.413-.247c-.472-.121-.614-.207-.998-.6-.742-.763-.904-.966-1.004-1.263a3.795 3.795 0 00-.16-.403c-.069-.131-.756-.967-.881-1.072-.045-.037-.126-.216-.181-.397-.12-.39-.162-.475-.384-.77-.227-.302-.278-.592-.28-1.607-.003-.942-.036-1.104-.29-1.43-.314-.402-.314-.826 0-1.226.256-.328.287-.484.29-1.476.002-1.057.05-1.28.354-1.645.146-.176.23-.343.288-.573.045-.18.106-.372.136-.429.05-.097.389-.502.81-.97a1.43 1.43 0 00.294-.563c.088-.292.161-.413.42-.695.338-.368.943-.923 1.12-1.028.061-.035.238-.11.393-.167.156-.056.4-.203.541-.326.158-.136.355-.25.505-.291.31-.085.503-.182.73-.367.111-.09.326-.182.574-.245.28-.071.458-.152.61-.277.385-.318.386-.319 1.509-.35 1.637-.045 4.109.004 4.308.086zm23.475 0c.092.037.264.149.383.247.15.125.337.211.62.288.241.065.478.167.583.252.237.19.347.247.706.36.185.059.399.179.555.311.172.148.347.242.549.295.499.132.477.113 1.872 1.587.497.525.545.594.663.954.081.245.202.479.33.636.176.215.356.638.356.834 0 .035.095.186.213.336.271.348.341.55.343.998.003.47.06.655.288.937.305.377.32.466.32 1.868 0 1.402-.015 1.492-.32 1.869-.228.281-.285.466-.288.936-.002.448-.072.65-.343.998-.118.15-.213.301-.213.336 0 .197-.18.62-.355.834-.124.152-.25.392-.327.622-.098.297-.191.451-.445.742-.491.561-2.134 2.209-2.279 2.285a2.704 2.704 0 01-.422.145c-.18.048-.379.15-.517.264-.256.213-.465.31-.776.362-.139.023-.309.11-.474.242-.488.39-.31.37-3.399.372-2.992.002-3.004 0-3.354-.276-.313-.248-.498-.316-.98-.357-.258-.022-.524-.07-.593-.108-.121-.065-.735-.588-1.041-.886a.935.935 0 00-.356-.198c-.48-.123-.617-.206-1.027-.628-.742-.762-.878-.936-.985-1.26-.12-.357-.2-.476-.701-1.045-.421-.477-.502-.635-.543-1.063-.066-.695-.076-.73-.29-1.005a2.11 2.11 0 01-.275-.45c-.092-.263-.092-5.199 0-5.46.036-.101.16-.306.278-.456.117-.15.213-.301.213-.336 0-.2.18-.615.38-.876.126-.164.23-.327.23-.36 0-.238.182-.63.417-.894.756-.855 2.774-2.857 3-2.977.063-.034.247-.096.409-.139.181-.048.38-.149.518-.264.256-.212.465-.31.776-.362.136-.022.308-.108.458-.229.426-.34.404-.335 1.56-.366 1.679-.045 4.084.003 4.283.085zm46.911-.02c.098.028.258.115.355.193.314.248.499.315.981.356.504.043.608.082.935.353.127.105.333.208.507.254.423.112.494.16 1.083.738l.806.79c.15.145.474.489.722.762.396.44.461.54.555.852.072.24.167.421.295.563.861.957.919 1.06.923 1.644.003.453.066.646.315.967.107.138.219.341.248.451.034.129.048.9.039 2.143l-.015 1.942-.166.32c-.09.175-.165.367-.165.427 0 .172.126.371.394.625.188.179.306.246.474.274.124.02.316.078.428.128.222.099 1.301 1.16 1.441 1.417.07.13.086.366.099 1.476.011.866-.004 1.395-.041 1.536-.039.145-.159.326-.37.555-.452.492-1.074 1.021-1.294 1.1-.276.1-13.615.101-13.891.002a2.241 2.241 0 01-.47-.291c-.187-.147-.362-.238-.502-.261a1.475 1.475 0 01-.774-.362 1.438 1.438 0 00-.518-.264 2.662 2.662 0 01-.421-.145c-.141-.073-2.37-2.315-2.892-2.907-.245-.28-.346-.442-.418-.675-.114-.37-.169-.481-.359-.716-.08-.099-.201-.365-.27-.592a2.29 2.29 0 00-.325-.681 1.497 1.497 0 01-.256-.53c-.075-.356-.075-4.687.001-5.043a1.41 1.41 0 01.225-.487c.223-.296.302-.46.377-.784.043-.184.14-.365.312-.582.137-.174.25-.345.25-.38 0-.254.182-.625.471-.962.399-.465 2.097-2.183 2.575-2.607.331-.293.697-.478.947-.478.035 0 .174-.089.31-.197.32-.257.385-.29.774-.39a1.44 1.44 0 00.534-.255c.378-.312.383-.314 1.502-.345 1.424-.039 4.051.001 4.269.065zm-74.533 6.842c-.257.075-1.508 1.36-1.58 1.622-.077.281-.067 2.722.012 2.937.118.323 1.227 1.48 1.526 1.594.224.084 2.74.085 2.969 0 .091-.033.462-.347.824-.697.483-.468.679-.695.74-.854.069-.185.079-.42.065-1.551l-.017-1.334-.137-.236c-.211-.363-1.289-1.426-1.51-1.488-.231-.065-2.665-.06-2.892.007zm23.594-.01c-.253.062-.441.188-.788.528-.47.46-.829.894-.9 1.086-.04.112-.06.587-.06 1.477 0 .89.02 1.366.06 1.478.13.35 1.266 1.523 1.56 1.61.233.067 2.663.067 2.905 0 .136-.04.362-.23.849-.721l.664-.669.129-.424c.081-.268.194-.508.306-.65.348-.443.341-.813-.024-1.26a1.504 1.504 0 01-.283-.54c-.126-.47-.214-.6-.853-1.246-.438-.442-.659-.628-.791-.666-.207-.058-2.54-.061-2.775-.004zm23.397.03c-.154.048-.333.171-.537.37-.37.358-.446.471-.577.858a2.067 2.067 0 01-.3.538c-.294.356-.323.51-.304 1.63.021 1.21.029 1.23.788 2.003.792.806.696.773 2.259.793.81.01 1.377-.004 1.501-.038.321-.087 2.045-1.848 2.186-2.233.074-.2.085-.873.019-1.106-.026-.093-.141-.287-.255-.433a1.821 1.821 0 01-.316-.643c-.107-.373-.12-.39-.76-1.038-.487-.494-.7-.674-.848-.72-.297-.09-2.555-.074-2.856.02zm23.966-.025c-.08.024-.258.14-.394.256-.14.12-.381.257-.55.315-.385.132-.522.275-.639.667a1.784 1.784 0 01-.316.588c-.121.15-.242.35-.269.444-.063.221-.064 1.46-.001 1.68.026.093.139.285.251.427.114.146.252.408.316.603.088.267.177.412.397.646.156.166.387.363.512.438l.229.136 1.296.017c1.462.02 1.571.002 1.931-.305.131-.112.374-.248.546-.308.396-.135.531-.275.651-.674a2.04 2.04 0 01.259-.538c.335-.445.348-.492.348-1.306 0-.636-.015-.773-.097-.926-.27-.503-1.764-2.01-2.128-2.146-.192-.072-2.113-.084-2.342-.014z" fill="#fff"/></svg><svg fill="none" viewBox="0 0 38 48" id="icon-txt" xmlns="http://www.w3.org/2000/svg"><path d="M23.75 0h-19C3.49 0 2.282.506 1.391 1.406A4.826 4.826 0 000 4.8v38.4c0 1.273.5 2.494 1.391 3.394.891.9 2.1 1.406 3.359 1.406h28.5c1.26 0 2.468-.506 3.359-1.406A4.826 4.826 0 0038 43.2V14.4L23.75 0zm-9.505 30.643h-2.62v7.858H9.449v-7.858H6.87V28.8h7.374v1.843zm6.472 7.858l-.867-1.755c-.356-.676-.584-1.18-.852-1.742h-.031c-.197.56-.44 1.063-.741 1.742l-.796 1.755h-2.482l2.781-4.908-2.681-4.793h2.494l.84 1.771c.288.588.5 1.063.727 1.61h.031c.228-.619.413-1.05.656-1.61l.81-1.771h2.477l-2.705 4.735 2.845 4.966h-2.506zm10.412-7.858h-2.622v7.858H26.33v-7.858h-2.577V28.8h7.375v1.843h.002zM23.75 16.8h-2.375v-12l11.875 12h-9.5z" fill="#64ABFF"/></svg><svg fill="none" viewBox="0 0 39 39" id="icon-vk" xmlns="http://www.w3.org/2000/svg"><path d="M25.516 0H13.57C2.671 0 .087 2.584.087 13.484V25.43c0 10.9 2.584 13.484 13.484 13.484h11.945c10.9 0 13.484-2.584 13.484-13.484V13.484C39 2.584 36.39 0 25.516 0zM31.5 27.759h-2.825c-1.07 0-1.4-.849-3.324-2.8-1.672-1.62-2.413-1.836-2.825-1.836-.583 0-.748.165-.748.963v2.553c0 .684-.215 1.095-2.027 1.095-2.996 0-6.32-1.811-8.652-5.187-3.515-4.947-4.477-8.652-4.477-9.418 0-.412.164-.798.956-.798h2.83c.717 0 .99.33 1.268 1.096 1.4 4.04 3.73 7.58 4.692 7.58.355 0 .52-.164.52-1.07v-4.173c-.109-1.925-1.122-2.09-1.122-2.773 0-.33.273-.66.71-.66h4.45c.603 0 .824.33.824 1.039V19c0 .608.272.823.437.823.355 0 .659-.215 1.317-.874 2.033-2.28 3.49-5.796 3.49-5.796.19-.412.519-.797 1.235-.797h2.83c.85 0 1.04.436.85 1.044-.356 1.647-3.82 6.536-3.82 6.536-.298.494-.412.71 0 1.26.304.412 1.293 1.267 1.95 2.033 1.21 1.374 2.14 2.527 2.389 3.325.278.791-.133 1.204-.932 1.204h.004z" fill="#64ABFF"/></svg><svg fill="none" viewBox="0 0 128 90" id="icon-youtube" xmlns="http://www.w3.org/2000/svg"><path d="M125.175 14.038a16.084 16.084 0 00-11.328-11.329C103.914 0 63.937 0 63.937 0s-39.98.082-49.914 2.791a16.09 16.09 0 00-11.328 11.33c-3.004 17.648-4.17 44.542.083 61.485a16.091 16.091 0 0011.328 11.329c9.933 2.709 49.912 2.709 49.912 2.709s39.978 0 49.911-2.709a16.093 16.093 0 0011.328-11.329c3.169-17.674 4.146-44.55-.082-61.568z" fill="red"/><path d="M51.211 64.031l33.165-19.21-33.165-19.209v38.42z" fill="#fff"/></svg></svg>