<?xml version="1.0" encoding="utf-8"?><svg viewBox="0 0 55 98" xmlns="http://www.w3.org/2000/svg" xmlns:xlink="http://www.w3.org/1999/xlink"><style>:root>svg{display:none}:root>svg:target{display:block}</style><svg fill="none" viewBox="0 0 55 98" id="icon-arrow-next" xmlns="http://www.w3.org/2000/svg"><path fill-rule="evenodd" clip-rule="evenodd" d="M2.95 83.984a7 7 0 000 9.9l3.557 3.556L55 48.947 6.507.454 2.95 4.011a7 7 0 000 9.9l35.036 35.036L2.95 83.984zM4.364 5.425a5 5 0 000 7.071l36.45 36.451-36.45 36.451a5 5 0 000 7.071l2.143 2.143 45.665-45.665L6.507 3.283 4.364 5.425z" fill="#fff"/></svg><svg fill="none" viewBox="0 0 55 98" id="icon-arrow-prev" xmlns="http://www.w3.org/2000/svg"><path fill-rule="evenodd" clip-rule="evenodd" d="M52.05 13.91a7 7 0 000-9.899L48.493.454 0 48.947 48.493 97.44l3.557-3.557a7 7 0 000-9.9L17.014 48.948 52.05 13.911zm-1.414 78.56a5 5 0 000-7.072l-36.45-36.45 36.45-36.452a5 5 0 000-7.07l-2.143-2.143L2.828 48.947l45.665 45.665 2.143-2.143z" fill="#fff"/></svg><svg fill="none" viewBox="0 0 39 48" id="icon-doc" xmlns="http://www.w3.org/2000/svg"><path d="M19.646 30.125c-1.48 0-2.345 1.409-2.345 3.295 0 1.898.89 3.24 2.36 3.24 1.48 0 2.33-1.411 2.33-3.298 0-1.742-.835-3.237-2.345-3.237z" fill="#27AE60"/><path d="M24 0H4.8A4.8 4.8 0 000 4.8v38.4A4.8 4.8 0 004.8 48h28.8a4.8 4.8 0 004.8-4.8V14.4L24 0zM12.372 37.09c-1.022.85-2.575 1.25-4.474 1.25-1.14 0-1.944-.072-2.49-.144v-9.53a19.595 19.595 0 012.963-.2c1.843 0 3.039.332 3.972 1.037 1.008.749 1.642 1.944 1.642 3.653 0 1.86-.677 3.142-1.613 3.934zm7.176 1.31c-2.88 0-4.562-2.174-4.562-4.94 0-2.906 1.855-5.078 4.72-5.078 2.979 0 4.606 2.23 4.606 4.908-.002 3.18-1.932 5.11-4.764 5.11zm11.172-1.829c.66 0 1.394-.146 1.829-.317l.331 1.712c-.403.201-1.31.417-2.489.417-3.353 0-5.08-2.085-5.08-4.85 0-3.31 2.359-5.15 5.296-5.15 1.138 0 2 .23 2.388.431l-.446 1.743a4.749 4.749 0 00-1.843-.36c-1.743 0-3.096 1.051-3.096 3.211 0 1.942 1.152 3.163 3.11 3.163zM24 16.8h-2.4v-12l12 12H24z" fill="#27AE60"/><path d="M8.601 30.151c-.487 0-.804.043-.99.087v6.348c.186.043.489.043.76.043 1.987.014 3.28-1.078 3.28-3.396.015-2.016-1.163-3.082-3.05-3.082z" fill="#27AE60"/></svg><svg fill="none" viewBox="0 0 39 39" id="icon-instagram" xmlns="http://www.w3.org/2000/svg"><path d="M19.451 12.969c-3.572 0-6.488 2.915-6.488 6.488 0 3.573 2.916 6.488 6.488 6.488 3.573 0 6.488-2.915 6.488-6.488 0-3.573-2.915-6.488-6.488-6.488zm19.46 6.488c0-2.687.024-5.35-.127-8.031-.15-3.116-.861-5.88-3.14-8.158C33.363.985 30.603.279 27.488.128c-2.686-.15-5.349-.126-8.03-.126-2.688 0-5.35-.025-8.032.126C8.31.28 5.545.99 3.267 3.268.985 5.55.28 8.31.128 11.426c-.15 2.687-.127 5.349-.127 8.03 0 2.683-.024 5.35.127 8.032.15 3.115.862 5.88 3.14 8.158 2.282 2.283 5.042 2.989 8.157 3.14 2.687.15 5.35.126 8.031.126 2.687 0 5.35.024 8.031-.127 3.115-.15 5.88-.861 8.158-3.14 2.283-2.282 2.988-5.042 3.14-8.157.155-2.682.126-5.344.126-8.031zM19.45 29.44a9.969 9.969 0 01-9.983-9.983 9.969 9.969 0 019.983-9.983 9.969 9.969 0 019.983 9.983 9.969 9.969 0 01-9.983 9.983zm10.392-18.044a2.329 2.329 0 01-2.331-2.331 2.329 2.329 0 012.331-2.332 2.329 2.329 0 012.155 3.225 2.327 2.327 0 01-2.155 1.438z" fill="#BD4BE4"/></svg><svg fill="none" viewBox="0 0 39 48" id="icon-pdf" xmlns="http://www.w3.org/2000/svg"><path d="M10.24 30.432c-.44 0-.738.043-.892.086v2.828c.182.043.41.055.725.055 1.15 0 1.857-.581 1.857-1.563 0-.878-.61-1.406-1.69-1.406zm8.37.029c-.48 0-.792.043-.977.086v6.264c.185.043.482.043.751.043 1.96.015 3.238-1.065 3.238-3.35.014-1.992-1.15-3.043-3.012-3.043z" fill="#FF4672"/><path d="M24 0H4.8A4.8 4.8 0 000 4.8v38.4A4.8 4.8 0 004.8 48h28.8a4.8 4.8 0 004.8-4.8V14.4L24 0zM13.195 34.056c-.741.696-1.836 1.008-3.11 1.008a5.357 5.357 0 01-.74-.043v3.422H7.2v-9.446a18.14 18.14 0 012.926-.197c1.336 0 2.287.254 2.928.766.61.484 1.022 1.279 1.022 2.215-.002.94-.314 1.735-.88 2.275zm9.137 3.252c-1.008.838-2.542 1.236-4.416 1.236a18.49 18.49 0 01-2.458-.144V29a19.067 19.067 0 012.926-.2c1.817 0 2.998.326 3.92 1.022.995.74 1.62 1.918 1.62 3.61 0 1.831-.67 3.096-1.592 3.876zm8.868-6.66h-3.677v2.186h3.437v1.762h-3.437v3.85H25.35v-9.574H31.2v1.776zM24 16.8h-2.4v-12l12 12H24z" fill="#FF4672"/></svg><svg fill="none" viewBox="0 0 39 39" id="icon-telegram" xmlns="http://www.w3.org/2000/svg"><path fill-rule="evenodd" clip-rule="evenodd" d="M.043 19.457C.043 8.71 8.754 0 19.5 0s19.456 8.711 19.456 19.457c0 10.745-8.71 19.456-19.456 19.456-10.746 0-19.457-8.71-19.457-19.456zM7.617 19l19.78-7.627c.902-.408 1.775.218 1.43 1.6L25.46 28.846c-.235 1.129-.915 1.397-1.86.876l-5.131-3.79L16 28.33l-.028.026c-.275.266-.503.487-1 .487l.35-5.235-.002-.001h.003l9.52-8.591c.417-.37-.091-.553-.647-.215l-11.75 7.414L7.37 20.63c-1.094-.335-1.102-1.088.248-1.63z" fill="#05BFFA"/></svg><svg fill="none" viewBox="0 0 38 48" id="icon-txt" xmlns="http://www.w3.org/2000/svg"><path d="M23.75 0h-19C3.49 0 2.282.506 1.391 1.406A4.826 4.826 0 000 4.8v38.4c0 1.273.5 2.494 1.391 3.394.891.9 2.1 1.406 3.359 1.406h28.5c1.26 0 2.468-.506 3.359-1.406A4.826 4.826 0 0038 43.2V14.4L23.75 0zm-9.505 30.643h-2.62v7.858H9.449v-7.858H6.87V28.8h7.374v1.843zm6.472 7.858l-.867-1.755c-.356-.676-.584-1.18-.852-1.742h-.031c-.197.56-.44 1.063-.741 1.742l-.796 1.755h-2.482l2.781-4.908-2.681-4.793h2.494l.84 1.771c.288.588.5 1.063.727 1.61h.031c.228-.619.413-1.05.656-1.61l.81-1.771h2.477l-2.705 4.735 2.845 4.966h-2.506zm10.412-7.858h-2.622v7.858H26.33v-7.858h-2.577V28.8h7.375v1.843h.002zM23.75 16.8h-2.375v-12l11.875 12h-9.5z" fill="#64ABFF"/></svg><svg fill="none" viewBox="0 0 39 39" id="icon-vk" xmlns="http://www.w3.org/2000/svg"><path d="M25.516 0H13.57C2.671 0 .087 2.584.087 13.484V25.43c0 10.9 2.584 13.484 13.484 13.484h11.945c10.9 0 13.484-2.584 13.484-13.484V13.484C39 2.584 36.39 0 25.516 0zM31.5 27.759h-2.825c-1.07 0-1.4-.849-3.324-2.8-1.672-1.62-2.413-1.836-2.825-1.836-.583 0-.748.165-.748.963v2.553c0 .684-.215 1.095-2.027 1.095-2.996 0-6.32-1.811-8.652-5.187-3.515-4.947-4.477-8.652-4.477-9.418 0-.412.164-.798.956-.798h2.83c.717 0 .99.33 1.268 1.096 1.4 4.04 3.73 7.58 4.692 7.58.355 0 .52-.164.52-1.07v-4.173c-.109-1.925-1.122-2.09-1.122-2.773 0-.33.273-.66.71-.66h4.45c.603 0 .824.33.824 1.039V19c0 .608.272.823.437.823.355 0 .659-.215 1.317-.874 2.033-2.28 3.49-5.796 3.49-5.796.19-.412.519-.797 1.235-.797h2.83c.85 0 1.04.436.85 1.044-.356 1.647-3.82 6.536-3.82 6.536-.298.494-.412.71 0 1.26.304.412 1.293 1.267 1.95 2.033 1.21 1.374 2.14 2.527 2.389 3.325.278.791-.133 1.204-.932 1.204h.004z" fill="#64ABFF"/></svg></svg>