<?xml version="1.0" encoding="utf-8"?><svg viewBox="0 0 434 434" xmlns="http://www.w3.org/2000/svg" xmlns:xlink="http://www.w3.org/1999/xlink"><style>:root>svg{display:none}:root>svg:target{display:block}</style><svg fill="none" viewBox="0 0 33 30" id="icon-abilities-01" xmlns="http://www.w3.org/2000/svg"><path fill-rule="evenodd" clip-rule="evenodd" d="M9.862 1.502c-.348.827-.773 2.056-.944 2.732-.41 1.618-.805 1.806-2.703 1.286-1.127-.309-1.713-.282-2.012.09C3.7 6.235.726 19.51 1.023 19.802c.111.111.874-.03 1.694-.313 2.173-.752 5.81-.184 7.992 1.249 1.782 1.17 1.94 1.193 3.938.6 2.351-.7 5.71-.836 7.212-.293.948.343.882 0-1.177-6.109-1.2-3.56-2.424-6.552-2.72-6.65-.297-.098-.742.35-.99.995-.247.645-.528 1.173-.625 1.173-.096 0-1.157-2.352-2.358-5.227C12.644 2.005 11.555 0 11.15 0c-.36 0-.941.676-1.289 1.502zM28.417.91c-.505.5-.917 1.318-.917 1.818 0 1.171 1.57 2.728 2.75 2.728S33 3.898 33 2.727C33 1.557 31.43 0 30.25 0c-.504 0-1.33.41-1.833.91zm-1.49 12.226c-1.5 2.65-1.562 3.229-.348 3.229.845 0 .81.166-.492 2.262-1.518 2.448-1.45 3.192.294 3.192.651 0 1.119.265 1.119.633 0 .65.948 1.185 2.1 1.185.358 0 .65-.409.65-.909 0-.66.306-.909 1.119-.909 1.743 0 1.812-.744.294-3.192-1.301-2.096-1.337-2.262-.492-2.262.502 0 .912-.226.912-.502 0-1.023-2.545-4.952-3.208-4.952-.378 0-1.255 1.001-1.948 2.226zM2.442 22.482C.537 23.303 0 24.4 0 27.47V30h16.5c9.075 0 16.5-.116 16.5-.257 0-.142-.212-.65-.472-1.132-.705-1.306-3.015-2.313-6.207-2.706-1.871-.23-3.448-.756-4.607-1.536-2.027-1.367-2.97-1.45-5.672-.505-2.786.974-4.051.844-6.646-.682-2.526-1.486-4.64-1.7-6.954-.701z" fill="#000"/></svg><svg fill="none" viewBox="0 0 27 33" id="icon-abilities-02" xmlns="http://www.w3.org/2000/svg"><path fill-rule="evenodd" clip-rule="evenodd" d="M11.982 1.024c-2.08 2.22-.533 5.82 2.502 5.82 1.77 0 3.37-1.664 3.37-3.505 0-2.97-3.84-4.483-5.872-2.315zm-9.55 6.853C1.513 8.897 0 14.042 0 16.151c0 1.31 1.757 3.083 3.055 3.083.826 0 1.06-.61 1.982-5.162A2059.32 2059.32 0 016.3 7.877c.191-.912.034-1.032-1.36-1.032-1.052 0-1.884.342-2.506 1.032zm6.85 1.377c-.577.628-1.236 2.443-1.682 4.638-1.192 5.858-1.184 5.887 2.491 8.896 2.877 2.356 3.3 2.913 3.925 5.165 1.288 4.648 1.368 4.814 2.387 4.964.6.089 1.11-.15 1.283-.6.5-1.308-1.138-8.07-2.573-10.619l-1.373-2.437.684-3.256c.934-4.452.87-5.612-.377-6.786-1.395-1.314-3.54-1.298-4.765.035zm15.43 0c-.006.634-.7 1.607-1.803 2.525l-1.794 1.493-1.613-.954-1.614-.954-.234 1.067c-.574 2.626-.52 2.79 1.115 3.392 2.406.884 3.257.78 4.667-.575l1.284-1.233v9.492c0 8.133.098 9.493.686 9.493.59 0 .687-1.403.687-9.872 0-7.061.162-10.131.568-10.783.452-.726.452-1.097 0-1.823-.313-.501-.568-1.224-.568-1.606a.693.693 0 00-.687-.695c-.404 0-.69.425-.694 1.033zM4.822 27.259C2.586 31.623 2.41 33 4.082 33c.624 0 1.581-1.04 3.06-3.327 1.183-1.83 2.218-3.636 2.3-4.015.083-.378-.429-1.14-1.136-1.692L7.02 22.963l-2.199 4.296z" fill="#000"/></svg><svg fill="none" viewBox="0 0 27 34" id="icon-abilities-03" xmlns="http://www.w3.org/2000/svg"><path fill-rule="evenodd" clip-rule="evenodd" d="M25.54 2.965c-.149 1.631-.585 3.903-.97 5.048-.822 2.45-3.12 5.102-4.422 5.102-.53 0-.918.278-.918.656 0 1.948 4.009-.404 5.564-3.264C26.669 7.059 27.745 0 26.396 0c-.408 0-.666.896-.855 2.965zm-15.587-.58c-.581.59-1.057 1.582-1.057 2.205s.476 1.616 1.057 2.206c.581.59 1.559 1.073 2.172 1.073 1.436 0 3.23-1.821 3.23-3.279 0-1.457-1.794-3.278-3.23-3.278-.613 0-1.59.483-2.172 1.073zm9.822 1.3c-1.44 2.874-4.137 5.085-7.52 6.167-2.114.677-2.743.707-4.936.232-2.304-.499-2.636-.725-3.98-2.712C2.256 5.774 1.634 5.238.973 5.334c-1.43.209-1.29 1.419.449 3.876 1.328 1.878 2.172 2.543 4.723 3.723l3.106 1.437.289 2.76c.279 2.673.209 2.948-2.165 8.548-2.458 5.801-2.665 7.11-1.124 7.11.581 0 1.71-1.393 3.781-4.668a969.237 969.237 0 013.213-5.06c.143-.214.961-.55 1.818-.747l1.559-.357.12 5.927c.085 4.263.27 5.978.657 6.108.414.14.538-1.288.538-6.194v-6.375h1.046c1.053 0 1.449.867 2.625 5.76.339 1.409 1.423 1.933 2.252 1.091.518-.526.502-1.321-.11-5.59-.394-2.738-.845-5.114-1.004-5.28-.158-.167-1.352-.364-2.652-.438l-2.364-.134-.332-2.354c-.33-2.342-.322-2.366 1.664-4.809 2.365-2.908 4.28-6.66 3.905-7.65-.57-1.507-1.966-.777-3.193 1.668z" fill="#000"/></svg><svg fill="none" viewBox="0 0 33 32" id="icon-abilities-04" xmlns="http://www.w3.org/2000/svg"><path d="M13.595 24.661v0a6.423 6.423 0 10-6.423 6.422v-.25.25a6.43 6.43 0 006.423-6.422zm-8.57-3.214a3.865 3.865 0 114.295 6.427 3.865 3.865 0 01-4.295-6.427zm27.087 3.214v0a6.423 6.423 0 10-6.422 6.422v-.249.25a6.43 6.43 0 006.422-6.423zm-8.57-3.214a3.865 3.865 0 114.295 6.427 3.865 3.865 0 01-4.295-6.427z" fill="#000" stroke="#000" stroke-width=".5"/><path d="M17.46 27.997h.25v-7.982l-.073-.073-5.996-5.995 4.363-4.364 4.967 4.967.073.073h6.953v-2.557h-5.893l-4.469-4.469h0a2.31 2.31 0 00-3.262 0h0l-4.718 4.717h0a2.31 2.31 0 000 3.265h0l5.497 5.496v6.922h2.308zm4.629-19.546h0a3.855 3.855 0 003.85-3.85v0a3.85 3.85 0 10-3.85 3.85z" fill="#000" stroke="#000" stroke-width=".5"/></svg><svg fill="none" viewBox="0 0 29 30" id="icon-abilities-05" xmlns="http://www.w3.org/2000/svg"><path d="M.862 0v30h2.546V20h25.454V0h-28zm2.546 2.5h3.818v3.75h3.818V2.5h3.818v3.75h3.818V2.5H22.5v3.75h3.818V10h-3.818v3.75h3.818v3.75h-3.818v-3.75H18.68v3.75h-3.818v-3.75h-3.818v3.75H7.226v-3.75H3.408V10h3.818V6.25H3.408V2.5zM7.226 10v3.75h3.818V10H7.226zm3.818 0h3.818V6.25h-3.818V10zm3.818 0v3.75h3.818V10h-3.818zm3.818 0H22.5V6.25H18.68V10z" fill="#000"/></svg><svg fill="none" viewBox="0 0 34 31" id="icon-abilities-06" xmlns="http://www.w3.org/2000/svg"><path d="M23.345 5.61a2.805 2.805 0 100-5.61 2.805 2.805 0 000 5.61zM33.862 14.724V9.536l-6.998-2.96a3.13 3.13 0 00-3.8 1.137l-1.402 2.243c-.94 1.655-2.679 2.89-4.782 3.254l.084.084a5.586 5.586 0 003.45 1.64 10.058 10.058 0 002.93-2.3l.842 4.208-1.627 1.542-1.318 1.248v9.115c0 .772.631 1.403 1.402 1.403.772 0 1.403-.631 1.403-1.403v-7.011l2.945-2.805 2.271 10.083a1.47 1.47 0 001.43 1.136c.926 0 1.613-.842 1.431-1.74l-2.72-13.686-.87-4.347 2.524.982v3.365c0 .772.631 1.403 1.402 1.403.772 0 1.403-.631 1.403-1.403zm-19.226-3.912c.309.21.66.336 1.01.407.182.028.35.056.533.056.182 0 .364-.014.533-.056.182-.028.35-.085.518-.155.337-.14.66-.336.926-.617.687-.687.94-1.64.771-2.524a2.711 2.711 0 00-.771-1.444 2.892 2.892 0 00-.925-.617 2.213 2.213 0 00-.52-.155c-.182-.028-.35-.056-.532-.056-.168 0-.323.014-.491.042a2.676 2.676 0 00-.575.155 3.324 3.324 0 00-.912.63 2.71 2.71 0 00-.77 1.445 2.816 2.816 0 00.77 2.524c.127.14.281.253.435.365z" fill="#000"/><path d="M15.968 14.276l-2.805-2.805c-.14-.14-.28-.252-.434-.364a2.706 2.706 0 00-1.01-.393 2.294 2.294 0 00-.533-.056c-.715 0-1.43.28-1.977.827L4.525 16.17a2.795 2.795 0 00-.813 2.16c0 .252.056.518.154.77l1.5 4.137-4.094 4.095a1.4 1.4 0 001.977 1.977l4.964-4.964v-3.113l1.81 1.725v5.791c0 .772.63 1.403 1.402 1.403.77 0 1.402-.631 1.402-1.402v-7.012l-2.973-2.973 3.31-3.31.995.996c1.43 1.402 3.197 2.37 5.315 2.72.897.155 1.697-.63 1.626-1.542a1.433 1.433 0 00-1.22-1.318c-1.584-.252-2.888-1.01-3.912-2.033z" fill="#000"/></svg><svg fill="none" viewBox="0 0 24 33" id="icon-abilities-07" xmlns="http://www.w3.org/2000/svg"><path d="M17.21 7.196a3.598 3.598 0 100-7.196 3.598 3.598 0 000 7.196zm-7.227 3.423c-.997.248-1.678.62-2.227 1.083-.824.694-1.489 1.695-2.388 3.268a1.599 1.599 0 11-2.776-1.587c.894-1.564 1.799-3.028 3.104-4.127 1.363-1.148 3.03-1.797 5.28-2.047.94-.104 1.974-.084 2.944.349 1.018.455 1.762 1.27 2.269 2.359.682 1.465 1.19 2.338 1.596 2.843.196.243.333.356.41.406.062.04.088.043.098.045.07.008.296 0 .958-.294.288-.128.603-.281.989-.469l.092-.045c.471-.232.947-.456 1.426-.671a1.599 1.599 0 011.3 2.922c-.445.2-.886.407-1.322.623l-.105.05c-.369.18-.74.362-1.087.516-.72.318-1.64.663-2.636.543-1.053-.128-1.863-.722-2.531-1.52l-2.185 4.216 3.022 3.933c.18.235.291.515.322.809l.666 6.393a1.6 1.6 0 11-3.181.33l-.619-5.942-1.836-2.39-.016.03-.067-.137-3.391-4.413a1.599 1.599 0 01-.226-1.547l2.117-5.529z" fill="#000"/><path d="M7.561 19.994L6.384 23.16l-4.637-.367a1.598 1.598 0 00-.861 3.023c.189.094.395.15.607.164l5.843.464a1.599 1.599 0 001.625-1.036l.9-2.421-2.3-2.993z" fill="#000"/></svg><svg fill="none" viewBox="0 0 33 33" id="icon-abilities-08" xmlns="http://www.w3.org/2000/svg"><path fill-rule="evenodd" clip-rule="evenodd" d="M.268.645A1.5 1.5 0 011.5 0h9.75a1.5 1.5 0 011.398.957l2.566 6.607a12.892 12.892 0 012.572 0L20.352.957A1.5 1.5 0 0121.75 0h9.75a1.5 1.5 0 011.405 2.025l-4.82 12.893a12.7 12.7 0 011.165 5.332C29.25 27.292 23.541 33 16.5 33S3.75 27.291 3.75 20.25c0-1.9.417-3.708 1.165-5.332L.095 2.025A1.5 1.5 0 01.268.645zm6.684 11.154a12.766 12.766 0 015.301-3.572L10.223 3h-6.56l3.289 8.799zm7.598-1.104A9.768 9.768 0 007.874 15.7 9.7 9.7 0 006.75 20.25c0 5.385 4.365 9.75 9.75 9.75s9.75-4.365 9.75-9.75v-.002a9.701 9.701 0 00-1.124-4.547 9.768 9.768 0 00-6.676-5.006 9.794 9.794 0 00-1.95-.195c-.67 0-1.321.067-1.95.195zm6.197-2.468a12.768 12.768 0 015.301 3.572L29.338 3h-6.561l-2.03 5.227zM29.25 20.25v.002l-1.5-.002h1.5zm-11.873-6.467A1.5 1.5 0 0118 15v8.25h1.5a1.5 1.5 0 010 3h-6a1.5 1.5 0 010-3H15v-6h-.75a1.5 1.5 0 01-.474-2.923l2.25-.75a1.5 1.5 0 011.351.206z" fill="#000"/></svg><svg fill="none" viewBox="0 0 36 13" id="icon-arrow-dropdown" xmlns="http://www.w3.org/2000/svg"><path d="M1 1l17 10L35 1" stroke="#404445" stroke-width="2"/></svg><svg fill="none" viewBox="0 0 12 14" id="icon-arrow-more" xmlns="http://www.w3.org/2000/svg"><path d="M6.296 13.229L10 7.114 6.296 1M9.999 7.093H0" stroke="currentColor" stroke-width="2"/></svg><svg fill="none" viewBox="0 0 53 84" id="icon-arrow-next-black" xmlns="http://www.w3.org/2000/svg"><path d="M32.591 41.265L1.404 10.08 10.776.707 51.688 41.62 10.776 82.53l-9.372-9.372 31.187-31.187.354-.353-.354-.354z" fill="currentColor" stroke="#000"/></svg><svg fill="none" viewBox="0 0 53 84" id="icon-arrow-next-white" xmlns="http://www.w3.org/2000/svg"><path d="M32.591 41.265L1.404 10.08 10.776.707 51.688 41.62 10.776 82.53l-9.372-9.372 31.187-31.187.354-.353-.354-.354z" fill="currentColor" stroke="#fff"/></svg><svg fill="none" viewBox="0 0 52 84" id="icon-arrow-prev-black" xmlns="http://www.w3.org/2000/svg"><path d="M19.803 41.972L50.99 73.16 41.62 82.53.707 41.62 41.619.707l9.371 9.372-31.187 31.186-.353.354.354.353z" fill="currentColor" stroke="#000"/></svg><svg fill="none" viewBox="0 0 52 84" id="icon-arrow-prev-white" xmlns="http://www.w3.org/2000/svg"><path d="M19.803 41.972L50.99 73.16 41.62 82.53.707 41.62 41.619.707l9.371 9.372-31.187 31.186-.353.354.354.353z" fill="currentColor" stroke="#fff"/></svg><svg fill="none" viewBox="0 0 39 48" id="icon-doc" xmlns="http://www.w3.org/2000/svg"><path d="M19.646 30.125c-1.48 0-2.345 1.409-2.345 3.295 0 1.898.89 3.24 2.36 3.24 1.48 0 2.33-1.411 2.33-3.298 0-1.742-.835-3.237-2.345-3.237z" fill="#059C45"/><path d="M24 0H4.8A4.8 4.8 0 000 4.8v38.4A4.8 4.8 0 004.8 48h28.8a4.8 4.8 0 004.8-4.8V14.4L24 0zM12.372 37.09c-1.022.85-2.575 1.25-4.474 1.25-1.14 0-1.944-.072-2.49-.144v-9.53a19.595 19.595 0 012.963-.2c1.843 0 3.039.332 3.972 1.037 1.008.749 1.642 1.944 1.642 3.653 0 1.86-.677 3.142-1.613 3.934zm7.176 1.31c-2.88 0-4.562-2.174-4.562-4.94 0-2.906 1.855-5.078 4.72-5.078 2.979 0 4.606 2.23 4.606 4.908-.002 3.18-1.932 5.11-4.764 5.11zm11.172-1.829c.66 0 1.394-.146 1.829-.317l.331 1.712c-.403.201-1.31.417-2.489.417-3.353 0-5.08-2.085-5.08-4.85 0-3.31 2.359-5.15 5.296-5.15 1.138 0 2 .23 2.388.431l-.446 1.743a4.749 4.749 0 00-1.843-.36c-1.743 0-3.096 1.051-3.096 3.211 0 1.942 1.152 3.163 3.11 3.163zM24 16.8h-2.4v-12l12 12H24z" fill="#059C45"/><path d="M8.601 30.151c-.487 0-.804.043-.99.087v6.348c.186.043.489.043.76.043 1.987.014 3.28-1.078 3.28-3.396.015-2.016-1.163-3.082-3.05-3.082z" fill="#059C45"/></svg><svg fill="none" viewBox="0 0 46 30" id="icon-instagram" xmlns="http://www.w3.org/2000/svg"><rect width="45.3" height="29.445" rx="10" fill="#BD4BE4"/><path d="M10.76 11.09v9.56H9.08v-9.56h1.68zm.359-3.001c0 .163-.035.317-.104.462a1.28 1.28 0 01-.264.378 1.183 1.183 0 01-.387.254 1.147 1.147 0 01-.463.095 1.147 1.147 0 01-.83-.35 1.376 1.376 0 01-.255-.377 1.147 1.147 0 01-.094-.462c0-.164.031-.318.094-.463.063-.15.148-.28.255-.387.107-.113.23-.201.368-.264.145-.063.299-.094.462-.094.164 0 .318.031.463.094.15.063.28.151.387.264.113.107.201.236.264.387.07.145.104.299.104.463zM15.106 12.477c.207-.233.428-.444.66-.632.233-.189.479-.35.737-.482a3.843 3.843 0 011.784-.425c.521 0 .98.089 1.377.265.403.17.736.415 1 .736.271.315.476.695.614 1.142.138.447.208.94.208 1.482v6.087h-1.69v-6.087c0-.724-.166-1.284-.5-1.68-.327-.403-.827-.604-1.5-.604-.497 0-.963.12-1.397.358-.428.24-.824.564-1.19.973v7.04H13.52v-9.56h1.01c.24 0 .387.116.444.349l.132 1.038zM29.613 12.666a.372.372 0 01-.349.207.657.657 0 01-.32-.103 5.654 5.654 0 00-.444-.227 3.384 3.384 0 00-.614-.236 2.833 2.833 0 00-.849-.113 2.41 2.41 0 00-.764.113c-.227.07-.422.167-.585.293-.158.126-.28.273-.369.443a1.187 1.187 0 00-.122.538c0 .246.069.45.207.614.145.163.334.305.567.424.232.12.497.227.792.321.296.088.598.186.906.293.315.1.62.214.916.34.296.125.56.283.793.471.232.19.418.422.556.699.145.27.217.598.217.981 0 .44-.078.85-.235 1.227a2.72 2.72 0 01-.699.972c-.308.27-.686.485-1.132.642-.447.157-.963.236-1.548.236-.667 0-1.271-.107-1.812-.32-.541-.221-1-.501-1.378-.84l.396-.643a.576.576 0 01.18-.188.484.484 0 01.264-.066c.113 0 .233.044.359.132.125.088.276.185.453.292.182.107.402.205.66.293s.579.132.963.132c.327 0 .613-.041.859-.123.245-.088.45-.204.613-.349.164-.145.283-.311.359-.5.082-.189.122-.39.122-.604 0-.264-.072-.481-.217-.651a1.655 1.655 0 00-.556-.444 4.103 4.103 0 00-.803-.32l-.915-.293c-.308-.101-.614-.214-.916-.34a3.361 3.361 0 01-.792-.49 2.274 2.274 0 01-.567-.718c-.138-.29-.207-.639-.207-1.048 0-.364.075-.714.226-1.047.151-.34.372-.636.66-.887.29-.258.646-.463 1.067-.614A4.267 4.267 0 0127 10.94c.63 0 1.193.1 1.69.302.503.195.937.465 1.302.811l-.378.614zM35.146 20.8c-.755 0-1.337-.21-1.746-.631-.402-.422-.604-1.03-.604-1.822v-5.851h-1.151a.39.39 0 01-.255-.085c-.07-.063-.104-.157-.104-.283v-.67l1.567-.198.387-2.954a.4.4 0 01.122-.227.378.378 0 01.265-.094h.849v3.293h2.765v1.218h-2.765v5.738c0 .403.098.701.293.896.195.196.446.293.755.293.176 0 .327-.022.453-.066a2.15 2.15 0 00.34-.16c.094-.057.172-.107.235-.151.07-.05.13-.076.18-.076.088 0 .166.053.236.16l.49.803c-.29.27-.638.484-1.047.641-.41.151-.83.227-1.265.227z" fill="#fff"/></svg><svg fill="none" viewBox="0 0 35 31" id="icon-like" xmlns="http://www.w3.org/2000/svg"><path fill-rule="evenodd" clip-rule="evenodd" d="M23.637.02c-.729.03-.758.037-.965.182l-.375.262a1.503 1.503 0 01-.467.17c-.228.043-.38.114-.594.274-.28.212-.385.26-.825.37-.19.047-.467.297-2.26 2.035-1.422 1.38-2.107 2.01-2.255 2.075-.262.115-.882.13-1.138.025a2.394 2.394 0 01-.428-.265 1.362 1.362 0 00-.542-.258 1.525 1.525 0 01-.446-.172l-.37-.258c-.208-.146-.226-.15-1.042-.18-.9-.034-1.045-.07-1.392-.341-.402-.315-.798-.31-1.219.014a1.482 1.482 0 01-.432.226c-.115.03-.677.072-1.249.095l-1.04.04-.209.147a84.89 84.89 0 01-.37.258 1.51 1.51 0 01-.469.17 1.215 1.215 0 00-.574.264 2.56 2.56 0 01-.635.33c-.406.139-.648.321-1.403 1.058-.912.89-.996.996-1.157 1.472-.046.137-.166.35-.265.47a1.99 1.99 0 00-.308.627c-.071.227-.192.482-.275.58-.252.298-.32.483-.366.99-.051.558-.086.664-.306.931-.223.271-.263.461-.26 1.233.001.746.044.927.293 1.232.213.262.27.497.27 1.125 0 .632.085.948.334 1.253.1.123.24.391.313.607.083.24.194.449.294.55.513.524.808.921.937 1.26.132.35.16.38 1.462 1.644 1.276 1.238 1.341 1.293 1.678 1.416.252.093.45.216.709.44.267.232 4.521 4.296 4.74 4.529.27.287 3.109 3.033 3.558 3.443.693.631.885.728 1.223.618.266-.087.927-.69 3.153-2.871.956-.936 1.756-1.718 1.777-1.737.023-.018 1.74-1.679 3.819-3.69l3.779-3.656.409-.132.41-.133 1.923-1.87 1.924-1.87.138-.4c.138-.405.35-.69.908-1.22.155-.147.226-.278.327-.601.074-.234.194-.49.278-.588.365-.432.343-.214.343-3.38 0-3.163.022-2.946-.342-3.377-.08-.096-.206-.348-.28-.562-.083-.243-.193-.45-.294-.552-.464-.474-.816-.933-.894-1.165-.133-.395-.201-.498-.562-.845-.29-.279-.393-.343-.728-.453a1.613 1.613 0 01-.657-.366c-.867-.778-1.001-.858-1.45-.862-.375-.005-.754-.129-1-.328a1.36 1.36 0 00-.403-.224c-.23-.063-3.69-.106-4.753-.06zm2.861 5.535a2.5 2.5 0 01.44.276c.147.112.296.204.33.204.035 0 .189.036.341.08.221.064.355.153.655.436.322.303.389.396.455.633.105.374.202.577.38.796.182.224.26.488.26.884 0 .39-.078.66-.253.876-.183.225-.25.349-.367.682-.123.347-.38.627-2.104 2.289a481.15 481.15 0 00-2.189 2.123c-.457.448-1.164 1.135-1.572 1.527-.764.735-3.64 3.536-3.704 3.608-.21.236-3.062 2.923-3.178 2.994a.811.811 0 01-.386.095.811.811 0 01-.387-.095c-.115-.07-2.968-2.758-3.178-2.994a543.786 543.786 0 00-3.704-3.605c-.99-.949-1.908-1.89-2.003-2.057-.1-.174-.142-1.94-.054-2.255.035-.13.175-.339.377-.564.57-.637 1.55-1.557 1.763-1.653.178-.08.341-.093 1.225-.094.794 0 1.06.016 1.205.075.202.082.765.57 1.755 1.52.72.69.761.72 1.163.854.238.08.406.199.877.62.479.43.62.53.791.557.48.08.399.145 3.343-2.7 2.487-2.404 2.74-2.635 2.979-2.71.387-.123.534-.207.771-.437.888-.864 2.021-1.875 2.181-1.947.256-.114 1.52-.127 1.788-.018z" fill="currentColor"/></svg><svg fill="none" viewBox="0 0 27 22" id="icon-list-01" xmlns="http://www.w3.org/2000/svg"><path d="M18.81 7.924v2.08l1.625-1.299 4.979-3.983v15.409H1V1h4.603V10.004l1.625-1.299 4.979-3.983v5.282l1.624-1.299 4.98-3.983v3.202zM9.245 18.17h1v-5.962H5.603v5.962h3.642zm6.603 0h1v-5.962h-4.641v5.962h3.641zm6.604 0h1v-5.962H18.81v5.962h3.642z" fill="#A8E5F9" stroke="#A8E5F9" stroke-width="2"/></svg><svg fill="none" viewBox="0 0 28 28" id="icon-list-02" xmlns="http://www.w3.org/2000/svg"><path d="M23.871 4.11A13.897 13.897 0 0013.982 0 13.907 13.907 0 004.09 4.11c-5.453 5.452-5.453 14.327 0 19.78A13.903 13.903 0 0013.983 28a13.897 13.897 0 009.89-4.108c5.453-5.452 5.453-14.327-.002-19.782zm-9.637-1.3h-.502c.085-.001.166-.013.252-.013.085 0 .165.012.25.013zm8.48 18.184h-3.138l-1.76 3.519a11.13 11.13 0 01-3.834.69 11.133 11.133 0 01-3.84-.691l-1.756-3.504H5.26a11.134 11.134 0 01-2.27-4.94L5.587 12.6l-1.7-3.403a11.1 11.1 0 012.18-3.11 11.182 11.182 0 014.504-2.755l3.409 2.275 3.41-2.273c1.699.545 3.243 1.49 4.504 2.752.9.903 1.636 1.954 2.179 3.107l-1.7 3.407 2.598 3.466a11.122 11.122 0 01-2.259 4.927z" fill="#A8E5F9"/><path d="M9.085 12.601l2.098 5.595h5.595l2.098-5.595-4.895-3.497-4.896 3.497z" fill="#A8E5F9"/></svg><svg fill="none" viewBox="0 0 20 23" id="icon-list-03" xmlns="http://www.w3.org/2000/svg"><path d="M16.364 21.23v-1.768H20v-1.77h-6.364v-1.769H20v-1.77h-3.636v-1.768H20v-1.77h-3.636V8.846H20v-1.77h-6.364V5.309H20v-1.77h-3.636V1.77H20V0h-9.09v23H20v-1.77h-3.636zm-9.091-3.538H0V0h7.273v17.692zm0 1.77L3.636 23 0 19.462h7.273z" fill="#A8E5F9"/></svg><svg fill="none" viewBox="0 0 28 28" id="icon-list-04" xmlns="http://www.w3.org/2000/svg"><path d="M10.5 1.313C10.5.588 11.085 0 11.813 0h4.374c.728 0 1.313.588 1.313 1.313 0 .724-.585 1.312-1.313 1.312h-.875v1.839a9.575 9.575 0 014.501 1.863l1.302-1.298-.618-.619a1.31 1.31 0 010-1.856 1.309 1.309 0 011.854 0l3.095 3.095c.514.509.514 1.34 0 1.854a1.307 1.307 0 01-1.854 0l-.623-.618-1.296 1.302a9.6 9.6 0 011.865 4.5h1.837v-.874a1.31 1.31 0 011.313-1.313A1.31 1.31 0 0128 11.813v4.374a1.31 1.31 0 01-1.313 1.313 1.31 1.31 0 01-1.312-1.313v-.875h-1.837a9.6 9.6 0 01-1.865 4.501l1.296 1.302.623-.618a1.307 1.307 0 011.854 0 1.307 1.307 0 010 1.854l-3.095 3.095a1.307 1.307 0 01-1.854 0 1.307 1.307 0 010-1.854l.618-.623-1.302-1.296a9.6 9.6 0 01-4.5 1.865v1.837h.874a1.31 1.31 0 011.313 1.313A1.31 1.31 0 0116.187 28h-4.375a1.31 1.31 0 01-1.312-1.313 1.31 1.31 0 011.313-1.312h.874v-1.837a9.6 9.6 0 01-4.5-1.865l-1.302 1.301.618.618c.514.509.514 1.34 0 1.854a1.307 1.307 0 01-1.854 0l-3.095-3.095a1.309 1.309 0 010-1.854 1.31 1.31 0 011.856 0l.619.618 1.298-1.302a9.575 9.575 0 01-1.863-4.5H2.625v.874c0 .728-.588 1.313-1.313 1.313A1.311 1.311 0 010 16.187v-4.375c0-.727.588-1.312 1.313-1.312.724 0 1.312.585 1.312 1.313v.874h1.839a9.575 9.575 0 011.863-4.5L5.03 6.885l-.619.618a1.31 1.31 0 01-1.856 0 1.309 1.309 0 010-1.854l3.095-3.095a1.31 1.31 0 011.854 0 1.31 1.31 0 010 1.856l-.618.619 1.302 1.298a9.575 9.575 0 014.5-1.863V2.625h-.874A1.31 1.31 0 0110.5 1.312zm0 8.312a2.626 2.626 0 10.001 5.251 2.626 2.626 0 00-.001-5.251zm6.125 8.313a1.31 1.31 0 001.313-1.313 1.31 1.31 0 00-1.313-1.313 1.31 1.31 0 00-1.313 1.313 1.31 1.31 0 001.313 1.313z" fill="#A8E5F9"/></svg><svg fill="none" viewBox="0 0 21 38" id="icon-list-05" xmlns="http://www.w3.org/2000/svg"><path d="M15.775 12.576c-1.028-1.09-1.57-1.665-1.57-3.805H6.24c0 2.14-.541 2.715-1.57 3.806-.375.398-.815.864-1.317 1.5l-.1.126C1.31 16.666.268 19.613.268 22.634v1.973c.272-.18.512-.397.71-.647a6.229 6.229 0 012.321-1.784 6.93 6.93 0 012.942-.605 6.93 6.93 0 012.943.605 6.227 6.227 0 012.32 1.785c.303.38.705.69 1.17.9a3.494 3.494 0 001.565.304c.52.01 1.034-.095 1.5-.305.464-.21.866-.518 1.169-.9a6.278 6.278 0 012.648-1.922 1.72 1.72 0 01.604-.117c-.15-2.77-1.178-5.45-2.967-7.718l-.1-.126c-.502-.636-.942-1.103-1.317-1.5z" fill="#A8E5F9"/><path d="M20.178 24.972c-.271.18-.512.398-.71.647a6.23 6.23 0 01-2.32 1.785 6.93 6.93 0 01-2.943.605 6.93 6.93 0 01-2.942-.605 6.229 6.229 0 01-2.32-1.785 3.14 3.14 0 00-1.17-.9 3.494 3.494 0 00-1.566-.304 3.494 3.494 0 00-1.499.305 3.14 3.14 0 00-1.17.9 6.279 6.279 0 01-2.64 1.918c-.206.08-.42.118-.631.117v6.118c0 .953.42 1.867 1.166 2.54.747.674 1.76 1.053 2.816 1.053h11.947c1.056 0 2.07-.379 2.816-1.053.747-.673 1.166-1.587 1.166-2.54v-8.801zM6.24 6.076h7.823V2.319A1.92 1.92 0 0013.49.953a1.968 1.968 0 00-1.383-.566H8.196c-.519 0-1.016.203-1.383.566a1.92 1.92 0 00-.573 1.366v3.757z" fill="#A8E5F9"/></svg><svg fill="none" viewBox="0 0 29 29" id="icon-list-06" xmlns="http://www.w3.org/2000/svg"><path fill-rule="evenodd" clip-rule="evenodd" d="M14.176 0C6.321.046-.019 6.412 0 14.238c.019 7.87 6.426 14.25 14.269 14.207 7.856-.043 14.213-6.428 14.176-14.237C28.407 6.316 22.02-.045 14.176 0zm.047 15.395l4.908 6.14c2.34-1.586 3.888-4.267 3.894-7.29.01-4.856-3.94-8.83-8.79-8.844-4.837-.016-8.81 3.96-8.814 8.817-.003 3.035 1.545 5.725 3.892 7.316l4.91-6.14z" fill="#A8E5F9"/></svg><svg fill="none" viewBox="0 0 39 48" id="icon-pdf" xmlns="http://www.w3.org/2000/svg"><path d="M10.24 30.432c-.44 0-.738.043-.892.086v2.828c.182.043.41.055.725.055 1.15 0 1.857-.581 1.857-1.563 0-.878-.61-1.406-1.69-1.406zm8.37.029c-.48 0-.792.043-.977.086v6.264c.185.043.482.043.751.043 1.96.015 3.238-1.065 3.238-3.35.014-1.992-1.15-3.043-3.012-3.043z" fill="#E7305C"/><path d="M24 0H4.8A4.8 4.8 0 000 4.8v38.4A4.8 4.8 0 004.8 48h28.8a4.8 4.8 0 004.8-4.8V14.4L24 0zM13.195 34.056c-.741.696-1.836 1.008-3.11 1.008a5.357 5.357 0 01-.74-.043v3.422H7.2v-9.446a18.14 18.14 0 012.926-.197c1.336 0 2.287.254 2.928.766.61.484 1.022 1.279 1.022 2.215-.002.94-.314 1.735-.88 2.275zm9.137 3.252c-1.008.838-2.542 1.236-4.416 1.236a18.49 18.49 0 01-2.458-.144V29a19.067 19.067 0 012.926-.2c1.817 0 2.998.326 3.92 1.022.995.74 1.62 1.918 1.62 3.61 0 1.831-.67 3.096-1.592 3.876zm8.868-6.66h-3.677v2.186h3.437v1.762h-3.437v3.85H25.35v-9.574H31.2v1.776zM24 16.8h-2.4v-12l12 12H24z" fill="#E7305C"/></svg><svg fill="none" viewBox="0 0 39 39" id="icon-telegram" xmlns="http://www.w3.org/2000/svg"><path fill-rule="evenodd" clip-rule="evenodd" d="M.043 19.457C.043 8.71 8.754 0 19.5 0s19.456 8.711 19.456 19.457c0 10.745-8.71 19.456-19.456 19.456-10.746 0-19.457-8.71-19.457-19.456zM7.617 19l19.78-7.627c.902-.408 1.775.218 1.43 1.6L25.46 28.846c-.235 1.129-.915 1.397-1.86.876l-5.131-3.79L16 28.33l-.028.026c-.275.266-.503.487-1 .487l.35-5.235-.002-.001h.003l9.52-8.591c.417-.37-.091-.553-.647-.215l-11.75 7.414L7.37 20.63c-1.094-.335-1.102-1.088.248-1.63z" fill="#05BFFA"/></svg><svg fill="none" viewBox="0 0 38 48" id="icon-txt" xmlns="http://www.w3.org/2000/svg"><path d="M23.75 0h-19C3.49 0 2.282.506 1.391 1.406A4.826 4.826 0 000 4.8v38.4c0 1.273.5 2.494 1.391 3.394.891.9 2.1 1.406 3.359 1.406h28.5c1.26 0 2.468-.506 3.359-1.406A4.826 4.826 0 0038 43.2V14.4L23.75 0zm-9.505 30.643h-2.62v7.858H9.449v-7.858H6.87V28.8h7.374v1.843zm6.472 7.858l-.867-1.755c-.356-.676-.584-1.18-.852-1.742h-.031c-.197.56-.44 1.063-.741 1.742l-.796 1.755h-2.482l2.781-4.908-2.681-4.793h2.494l.84 1.771c.288.588.5 1.063.727 1.61h.031c.228-.619.413-1.05.656-1.61l.81-1.771h2.477l-2.705 4.735 2.845 4.966h-2.506zm10.412-7.858h-2.622v7.858H26.33v-7.858h-2.577V28.8h7.375v1.843h.002zM23.75 16.8h-2.375v-12l11.875 12h-9.5z" fill="#4497F9"/></svg><svg fill="none" viewBox="0 0 39 39" id="icon-vk" xmlns="http://www.w3.org/2000/svg"><path d="M25.516 0H13.57C2.671 0 .087 2.584.087 13.484V25.43c0 10.9 2.584 13.484 13.484 13.484h11.945c10.9 0 13.484-2.584 13.484-13.484V13.484C39 2.584 36.39 0 25.516 0zM31.5 27.759h-2.825c-1.07 0-1.4-.849-3.324-2.8-1.672-1.62-2.413-1.836-2.825-1.836-.583 0-.748.165-.748.963v2.553c0 .684-.215 1.095-2.027 1.095-2.996 0-6.32-1.811-8.652-5.187-3.515-4.947-4.477-8.652-4.477-9.418 0-.412.164-.798.956-.798h2.83c.717 0 .99.33 1.268 1.096 1.4 4.04 3.73 7.58 4.692 7.58.355 0 .52-.164.52-1.07v-4.173c-.109-1.925-1.122-2.09-1.122-2.773 0-.33.273-.66.71-.66h4.45c.603 0 .824.33.824 1.039V19c0 .608.272.823.437.823.355 0 .659-.215 1.317-.874 2.033-2.28 3.49-5.796 3.49-5.796.19-.412.519-.797 1.235-.797h2.83c.85 0 1.04.436.85 1.044-.356 1.647-3.82 6.536-3.82 6.536-.298.494-.412.71 0 1.26.304.412 1.293 1.267 1.95 2.033 1.21 1.374 2.14 2.527 2.389 3.325.278.791-.133 1.204-.932 1.204h.004z" fill="#64ABFF"/></svg><svg fill="none" viewBox="0 0 128 90" id="icon-youtube" xmlns="http://www.w3.org/2000/svg"><path d="M125.175 14.038a16.084 16.084 0 00-11.328-11.329C103.914 0 63.937 0 63.937 0s-39.98.082-49.914 2.791a16.09 16.09 0 00-11.328 11.33c-3.004 17.648-4.17 44.542.083 61.485a16.091 16.091 0 0011.328 11.329c9.933 2.709 49.912 2.709 49.912 2.709s39.978 0 49.911-2.709a16.093 16.093 0 0011.328-11.329c3.169-17.674 4.146-44.55-.082-61.568z" fill="red"/><path d="M51.211 64.031l33.165-19.21-33.165-19.209v38.42z" fill="#fff"/></svg><svg fill="none" viewBox="0 0 434 434" id="logotype-circle" xmlns="http://www.w3.org/2000/svg"><path d="M148.703 187.364l26.095-9.498c14.173-5.158 29.845 2.149 35.003 16.322l-26.095 9.498c-14.173 5.159-29.844-2.149-35.003-16.322z" fill="currentColor"/><path fill-rule="evenodd" clip-rule="evenodd" d="M207.369 182.698a41.057 41.057 0 002.407 11.5l39.647-14.43c17.504-6.371 28.04-23.411 26.937-41.103a41.064 41.064 0 00-2.407-11.5l-39.648 14.43c-17.503 6.371-28.039 23.411-26.936 41.103zm11.603-4.223c.658-11.37 7.929-21.808 19.311-25.951l26.474-9.636c-.658 11.37-7.929 21.809-19.311 25.952l-26.474 9.635zM130.045 213.768c-2.414 2.291-2.396 3.546.153 10.547 1.762 4.843 2.123 6.292 1.558 6.265-6.707-.316-12.695 1.921-16.917 6.32-3.16 3.293-5.432 8.346-5.852 13.014l-.307 3.412 5.194 14.271 5.194 14.271 2.611 2.505c8.446 8.105 21.812 7.823 29.96-.633 2.836-2.943 5.322-8.619 5.722-13.066l.309-3.433-9.352-26.158c-10.418-29.14-10.173-28.641-14.148-28.825-1.1-.051-2.176-.018-2.392.072-.215.092-.995.738-1.733 1.438zm149.706-54.941c-1.89 1.488-2.7 2.802-2.781 4.513-.071 1.492 1.741 6.919 8.61 25.791 4.784 13.146 9.342 24.983 10.128 26.304 4.514 7.586 13.467 11.563 22.262 9.889 5.949-1.133 11.654-5.447 14.519-10.98 1.874-3.622 2.655-8.909 1.941-13.132-.689-4.069-6.975-21.422-8.993-24.824a21.27 21.27 0 00-16.418-10.319c-2.888-.255-4.814-.045-7.783.849-2.997.902-4.566 1.684-6.516 3.247-1.413 1.133-2.728 1.986-2.922 1.895-.195-.091-1.324-2.828-2.508-6.082-2.418-6.644-3.252-7.62-6.645-7.777-1.078-.05-2.019-.048-2.091.002a50.98 50.98 0 00-.803.624zm28.79-9.844c-1.618 1.71-1.844 3.897-.593 5.745 1.861 2.746 5.918 2.787 7.816.08 2.074-2.959.205-6.969-3.404-7.308-1.104-.103-2.087-.158-2.185-.122-.098.036-.833.758-1.634 1.605zm4.857-.208c.939.438 1.867 1.233 2.062 1.769.195.536.098 1.751-.215 2.702-.413 1.256-1.038 1.898-2.289 2.354-1.986.723-3.839-.252-4.635-2.44-.559-1.536.782-4.239 2.394-4.825.536-.195 1.743.003 2.683.44zm-3.982 1.572c-.346.74 1.339 4.9 1.902 4.695.28-.103.343-.645.139-1.205-.204-.561-.157-1.098.105-1.193.262-.095.789.232 1.171.728s.909.824 1.171.728c.635-.231.289-1.099-.503-1.262-.39-.081-.444-.529-.14-1.179.652-1.396.398-1.925-1.021-2.128-1.351-.192-2.509.142-2.824.816zm3.074.372c.029 1.081-1.513 1.798-1.854.861-.172-.472.144-.96.771-1.188.624-.227 1.072-.092 1.083.327zM162.405 217.95c-4.548 2.981-8.236 9.144-9.005 15.05-.452 3.47-.361 3.987 1.892 10.747 1.302 3.905 2.718 7.619 3.147 8.252.429.633 1.684 1.331 2.789 1.553 1.884.378 3.004.042 17.951-5.397l15.941-5.8 1.125-2.095 1.125-2.096-2.658-7.303c-2.589-7.111-2.732-7.375-5.457-10.063-3.372-3.328-6.38-5.048-10.346-5.919-5.459-1.198-11.787-.02-16.504 3.071zm43.719-15.737c-4.499 3.521-7.884 9.423-8.412 14.664-.167 1.65-.013 4.583.343 6.517.407 2.218 2.979 9.749 6.966 20.397l6.321 16.881 2.166 1.008c1.569.73 2.678.839 4.016.395 2.46-.818 3.868-2.489 4.093-4.86.155-1.639-.831-4.735-6.244-19.606-7.089-19.477-7.024-19.164-4.768-23.276 1.462-2.664 4.537-4.533 7.611-4.628 2.978-.091 6.386 1.669 8.087 4.175.934 1.377 3.577 8.006 7.614 19.099 6.841 18.794 6.769 18.667 10.6 18.844 3.043.141 5.738-2.284 5.871-5.28.051-1.171-1.935-7.016-6.931-20.393l-7.003-18.752-2.863-2.826c-1.579-1.559-4.306-3.497-6.081-4.323-1.799-.838-4.971-1.653-7.193-1.85-3.217-.284-4.767-.095-8.136.99-2.55.822-4.896 1.916-6.057 2.824zm44.501-16.225c-4.86 3.842-7.934 9.113-8.512 14.595-.423 4.013.221 7.883 2.23 13.401 1.798 4.938 3.653 7.177 6.185 7.466 1.104.126 5.629-1.325 16.915-5.427 8.794-3.196 15.892-6.017 16.536-6.573.62-.535 1.313-1.891 1.539-3.013.339-1.681.084-2.942-1.449-7.158-2.203-6.061-4.621-9.788-8.278-12.759-3.18-2.583-6.836-3.953-11.563-4.332-2.708-.218-4.494.026-7.669 1.049-2.477.797-4.86 1.902-5.934 2.751zm-120.021 56.116c5.473.443 6.807 2.189 11.532 15.081 2.925 7.98 3.671 10.526 3.589 12.25-.206 4.378-2.287 7.321-6.162 8.716-3.349 1.206-6.731.569-9.292-1.749-1.916-1.735-2.179-2.293-5.952-12.66-2.345-6.444-3.938-11.507-3.925-12.477.032-2.322 1.101-4.608 3.066-6.556 2.148-2.128 4.126-2.85 7.144-2.605zm44.573-16.085c3.325.338 6.138 2.381 7.792 5.66l1.269 2.516-9.003 3.277-9.002 3.276-.73-2.005c-1.407-3.867-.628-7.235 2.358-10.195.935-.926 2.371-1.934 3.193-2.24.821-.306 2.676-.436 4.123-.289zm89.806-32.209c2.559.529 5.292 2.913 6.56 5.723l1.006 2.231-8.752 3.343-8.753 3.344-.849-2.331c-.466-1.282-.749-3.068-.629-3.969.308-2.305 1.951-5.403 3.493-6.589 1.828-1.406 5.583-2.236 7.924-1.752zm41.746-16.331c1.06-.074 2.827.257 3.928.735 3.804 1.654 4.096 2.146 8.552 14.387 4.606 12.656 4.763 13.793 2.414 17.452-1.117 1.74-1.793 2.207-4.75 3.283-2.686.978-3.843 1.136-5.239.717-2.715-.815-4.584-2.233-5.953-4.517-1.786-2.978-7.226-18.078-7.671-21.289-.597-4.313 1.809-8.561 5.786-10.214.554-.23 1.874-.479 2.933-.554zm-141.672 82.546c-2.025 2.651-1.382 6.09 1.669 8.929 1.005.935 3.37 2.418 5.254 3.296 10.564 4.917 23.366-.037 27.974-10.826 1.485-3.477 2.181-7.684 1.563-9.449-.554-1.581-2.882-3.338-4.738-3.576-3.65-.469-5.588 1.229-6.708 5.876-.408 1.695-1.198 3.766-1.755 4.602-.603.905-2.087 2.015-3.669 2.744-2.058.948-3.236 1.152-5.232.907-1.423-.175-3.213-.883-4-1.584-.785-.697-2.242-1.725-3.24-2.284-2.303-1.288-5.57-.662-7.118 1.365zm88.758-32.361c-.614.693-1.192 1.785-1.284 2.426-.309 2.144 1.152 4.965 3.671 7.087 6.284 5.298 15.554 6.162 23.17 2.16 3.734-1.962 7.686-6.226 9.262-9.994.718-1.713 1.417-4.511 1.555-6.217.215-2.653.073-3.351-.977-4.826-.822-1.154-1.885-1.856-3.216-2.123-1.093-.219-2.516-.207-3.162.027-1.992.721-3.598 2.957-3.905 5.438-.162 1.303-.893 3.303-1.625 4.442-1.001 1.561-2.025 2.378-4.146 3.31-3.671 1.613-6.2 1.249-9.911-1.427-1.551-1.118-3.482-2.136-4.292-2.265-1.922-.302-3.753.396-5.14 1.962z" fill="currentColor"/><path d="M85.98 131.125l-.82-.43c-4.01-2.108-11.328-3.755-18.23 9.379l-.565 1.073c-6.725 12.796-2.069 17.586.53 18.952l.31.163 4.35-8.276c-.687-.613-2.5-2.72.573-8.567 2.212-4.208 4.392-5.406 6.36-5.309l-5.686 10.818 4.943 2.598 5.686-10.818c1.309 1.625 1.799 4.19-.398 8.371-3.192 6.072-6.221 5.526-7.002 5.296l-4.35 8.276.424.223c2.655 1.395 9.386 2.445 16.066-10.266l.564-1.073c6.8-12.937 1.228-18.317-2.755-20.41zM105.895 124.219l-7.753-7.266 15.674-1.186 8.073-8.615-19.207 1.549 1.578-17.456-7.702 8.219-1.14 14.937-6.846-6.415-6.197 6.612 17.323 16.234 6.197-6.613zM141.464 82.174c.175.53 1.324 3.754-4.637 7.401-5.444 3.33-8.553 1.305-9.885-.872l-.2-.327c-1.382-2.259-1.7-5.469 3.88-8.883 5.852-3.58 8.114-1.41 8.567-.977l8.03-4.912-.217-.354c-1.609-2.57-6.782-7.11-19.112.433l-1.062.65c-12.63 7.727-10.537 14.938-8.172 18.803l.483.79c2.348 3.838 8.079 9.047 20.546 1.42l1.061-.65c12.222-7.477 10.619-14.315 8.987-16.982l-.266-.436-8.003 4.896zM169.291 80.127l-4.75-16.763 13.232-3.75 4.75 16.763 8.689-2.463-6.474-22.84-30.639 8.683 6.474 22.841 8.718-2.471zM197.633 48.892l.68 23.731 26.506-.759-.17-5.933-17.575.504-.093-3.254 16.969-.486-.165-5.773-16.969.486-.085-2.966 17.319-.497-.166-5.805-26.251.752zM252.595 68.776c8.481 1.846 11.78-1.16 12.695-5.369l.109-.499c.929-4.272-.794-8.206-9.338-10.065l-19.332-4.206-5.047 23.198 8.855 1.927 1.581-7.265 10.477 2.28zm-8.272-12.413l9.416 2.049c2.058.448 2.755 1.448 2.47 2.758l-.021.093c-.278 1.279-1.365 1.924-3.392 1.483l-9.416-2.049.943-4.334zM285.007 88.772l7.736-15.433 9.157 4.59 2.903-5.79-26.415-13.242-2.903 5.79 9.157 4.591-7.737 15.433 8.102 4.061zM337.865 97.484l-18.503 14.875 14.074 17.509c4.839 6.018 8.716 5.849 11.625 3.51l.299-.24c3.258-2.619 2.278-6.13 1.331-8.071 1.253.999 3.902 2.104 6.19.264l.274-.22c2.139-1.719 3.043-4.821-1.295-10.218l-13.995-17.409zm1.475 10.442l6.597 8.207c1.18 1.468.998 2.31.252 2.91l-.05.04c-.697.56-1.633.617-2.813-.85l-6.598-8.208 2.612-2.099zm-6.765 5.438l6.958 8.655c1.459 1.816 1.013 2.788.242 3.408l-.075.06c-.721.58-1.871.932-3.351-.909l-6.957-8.655 3.183-2.559zM370.608 143.772l-11.056 16.269c-.266.398-.495.613-.796.719l-.03.011c-.301.106-.575-.001-.787-.603l-1.387-3.943-5.99 2.106 1.577 4.486c1.747 4.967 3.341 5.556 8.094 6.76l21.332 5.352-3.06-8.7-11.819-2.541 7.405-10.012-3.483-9.904zM362.177 206.154l17.19-1.587.942 10.2 6.45-.596-2.716-29.423-6.451.595.942 10.2-17.19 1.587.833 9.024zM384.555 244.404l.246-1.415c2.634-15.153-4.201-18.317-8.634-19.087l-.943-.164c-4.37-.759-12.06-.12-14.694 15.033l-.245 1.415c-2.628 15.122 4.395 18.318 8.765 19.078l.943.164c4.433.77 11.94.066 14.562-15.024zm-6.162-1.816c-1.207 6.948-4.53 7.99-7.014 7.558l-.44-.076c-2.483-.432-5.412-2.592-4.21-9.509 1.202-6.916 4.782-7.946 7.234-7.52l.378.066c2.483.431 5.276 2.439 4.052 9.481zM346.713 283.171l-3.905 8.178 21.424 10.23 11.687-24.477c-11.115-5.307-13.396-6.75-14.019-8.037-.4-.792-.228-1.523.322-2.675l.207-.432-6.105-2.915-1.265 2.649c-1.884 3.945-1.801 6.142-.435 8.244 1.321 2.045 3.709 3.857 12.248 7.97l-4.235 8.869-15.924-7.604zM357.34 312.998l-18.264-15.167-16.941 20.4 4.567 3.792 11.232-13.527 2.504 2.08-10.845 13.06 4.443 3.69 10.845-13.061 2.283 1.896-11.069 13.33 4.468 3.711 16.777-20.204zM310.878 328.62l5.289 7.32-12.027 8.69-5.289-7.319-7.319 5.289 13.905 19.243 7.319-5.289-4.915-6.803 12.027-8.69 4.915 6.802 7.345-5.308-13.905-19.243-7.345 5.308zM262.649 355.042l-8.516 3.1 8.12 22.309 8.516-3.1 8.895-19.13 5.108 14.033 8.516-3.099-8.12-22.309-8.516 3.099-8.906 19.1-5.097-14.003zM223.615 362.13l-9.038.665 1.743 23.677 9.037-.665 13.766-15.988 1.096 14.894 9.038-.665-1.742-23.677-9.038.665-13.768 15.956-1.094-14.862zM174.534 355.794l-8.516-3.1-3.46 9.505-5.836-12.888-11.094-4.038 7.963 16.651-15.664 5.811 10.585 3.852 12.409-4.89-3.023 8.306 8.516 3.1 3.023-8.306 6.362 11.722 10.645 3.874-8.314-14.571 16.734-7.629-11.035-4.016-12.755 6.122 3.46-9.505zM122.756 327.051l-7.753-6.195-5.124 26.295 9.523 7.61 23.994-11.216-7.179-5.737-3.811 1.856-10.595-8.466.945-4.147zm3.776 15.516l-8.141 3.952 1.983-8.872 6.158 4.92zM99.032 300.975l-4.87-7.643-8.531 5.436 3.216-13.778-6.345-9.958-3.817 18.059-15.965-4.925 6.053 9.5 12.821 3.674-7.454 4.749 4.87 7.643 7.454-4.749-2.088 13.172 6.087 9.554 2.275-16.621 17.919 4.133-6.31-9.903-13.846-2.907 8.53-5.436zM74.694 270.016l.742 3.038 10.168-2.484-2.022-8.276-4.03.984-4.55-18.63 4.029-.984-2.022-8.277-10.167 2.484.908 3.72-16.925 4.134 6.55 26.814c10.199-2.491 14.397-3.189 17.32-2.523zm-1.991-8.152c-2.25-.469-6.44.128-11.128 1.24l-2.462-10.074 10.788-2.636 2.802 11.47zM55.843 210.56l-.69 9.964-6.972-.484-.627 9.041 23.683 1.643 1.319-19.005c.665-9.581-2.894-12.227-7.319-12.534l-.51-.036c-4.392-.304-8.221 1.861-8.884 11.411zm18.288-21.538l-23.684-1.643-.625 9.009 23.684 1.643.625-9.009zm-8.156 32.253l-4.934-.343.612-8.817c.203-2.929 1.311-3.684 2.648-3.591l.096.006c1.305.091 2.393.998 2.19 3.927l-.612 8.818z" fill="currentColor"/></svg></svg>