<svg width="286" height="78" viewBox="0 0 286 78" fill="none" xmlns="http://www.w3.org/2000/svg">
<path fill-rule="evenodd" clip-rule="evenodd" d="M261.353 0.210228C259.765 0.614305 258.879 1.45979 258.365 3.05953C258.218 3.51971 258.197 4.50248 258.197 11.0823C258.197 15.2065 258.185 21.0562 258.171 24.0817L258.144 29.5826L257.749 29.208C257.065 28.5592 255.25 27.1749 254.014 26.3584C250.629 24.1228 247.283 22.7846 243.32 22.0814C241.732 21.7995 237.901 21.693 236.057 21.8793C230.506 22.44 225.718 24.3458 221.637 27.619C220.301 28.6914 218.074 30.9744 217.071 32.3011C214.041 36.3092 212.141 40.9887 211.417 46.2275C211.183 47.9209 211.099 51.3293 211.251 52.9267C211.82 58.8865 214.529 64.3811 219.164 68.9723C223.636 73.4032 229.263 76.2144 235.212 76.9907C236.8 77.1979 240.077 77.2014 241.826 76.9977C246.964 76.3995 252.022 74.3037 256.037 71.1101C257.146 70.2284 259.246 68.1482 260.144 67.0431C262.701 63.8958 264.804 59.5566 265.673 55.6328C266.123 53.6016 266.258 52.3809 266.361 49.4134C266.484 45.8753 266.491 6.28805 266.369 4.39865C266.29 3.18475 266.239 2.92718 265.963 2.34073C265.303 0.93637 264.213 0.190617 262.712 0.116052C262.238 0.0925608 261.658 0.132727 261.353 0.210228ZM280.515 0.477655C279.356 0.904908 278.597 1.65349 278.217 2.74491C278.06 3.19576 278.027 3.84272 277.982 7.35932C277.917 12.3679 278.026 14.267 278.43 15.1625C278.775 15.9285 279.4 16.5444 280.217 16.9232C280.788 17.1882 280.961 17.2165 282.008 17.2169C283.037 17.2173 283.232 17.187 283.747 16.945C284.829 16.4361 285.579 15.4673 285.849 14.2285C285.939 13.8122 285.965 12.1781 285.94 8.35562C285.907 3.12203 285.904 3.0525 285.666 2.46731C285.341 1.66723 284.714 0.984821 283.98 0.631818C283.455 0.379494 283.229 0.338174 282.219 0.309648C281.279 0.283115 280.957 0.314892 280.515 0.477655ZM280.796 20.4092C279.556 20.7863 278.484 21.927 277.934 23.4573L277.688 24.139L277.66 48.1025C277.63 74.2551 277.602 72.9679 278.227 74.2852C278.584 75.0377 279.422 75.9397 280.065 76.2642C281.565 77.0209 283.655 76.6938 284.649 75.5467C285.161 74.9555 285.406 74.4561 285.65 73.509C285.849 72.7338 285.854 72.1168 285.852 48.479C285.85 22.1171 285.883 23.6052 285.275 22.4105C284.758 21.3941 284.041 20.7831 283.006 20.4773C282.424 20.3053 281.257 20.2693 280.796 20.4092ZM21.425 21.6848C18.4478 21.8982 14.7173 22.9087 12.0778 24.2166C8.78254 25.8495 5.77201 28.538 3.93212 31.4907C2.12605 34.3893 1.07562 37.5988 0.586013 41.7142C0.373609 43.4991 0.240962 51.9222 0.235799 63.9384C0.231796 73.5219 0.240962 73.6788 0.872274 74.858C1.44438 75.9263 2.26418 76.3967 3.57779 76.4103C4.48726 76.4197 5.63578 76.0778 6.54534 75.5269C7.67205 74.8446 7.95442 74.3402 8.12815 72.6994C8.18621 72.1511 8.2294 66.0255 8.23056 58.1704C8.23267 44.6327 8.2766 42.6203 8.60438 41.0502C9.18744 38.258 10.5797 35.7939 12.7527 33.7081C17.2138 29.426 23.3521 28.3717 28.8106 30.95C31.593 32.2643 34.275 34.9465 35.615 37.7547C36.1166 38.8062 36.6036 40.3042 36.8494 41.5527C37.0185 42.4117 37.04 43.7939 37.1006 57.7509C37.1501 69.1472 37.199 73.1243 37.2937 73.4617C37.5289 74.2998 38.0786 75.273 38.5504 75.6864C39.0888 76.158 39.7273 76.3971 40.6793 76.4835C42.595 76.6574 43.831 75.891 44.6445 74.025L44.9498 73.3245L45.0102 58.1179C45.0648 44.3656 45.0881 42.8078 45.2528 41.8288C45.7949 38.6099 47.0187 36.2351 49.3191 33.9375C51.4996 31.7597 53.9256 30.4367 56.9326 29.7854C58.1586 29.5199 60.9344 29.5219 62.1705 29.7893C67.5335 30.9493 71.5681 34.5808 73.1772 39.6964C73.8312 41.776 73.7954 40.8365 73.8663 57.7509C73.9185 70.1975 73.9585 73.3016 74.0711 73.6391C74.3607 74.5072 74.8168 75.2414 75.3903 75.7632C76.1351 76.4407 76.7818 76.6677 77.9545 76.6627C78.7407 76.6594 78.9003 76.6218 79.6082 76.2736C80.4737 75.8478 80.9871 75.3359 81.4083 74.4789C81.9491 73.3789 81.9577 73.2129 82.0271 62.575C82.0981 51.7033 81.9768 43.0904 81.7273 41.2858C81.2222 37.6329 80.1028 34.6192 78.1438 31.6375C74.654 26.3259 69.1248 22.8 62.7556 21.8244C61.1886 21.5843 58.1089 21.5841 56.5394 21.8238C50.6795 22.719 45.6138 25.5659 42.0629 29.9595C41.62 30.5074 41.2113 30.9567 41.1546 30.958C41.0979 30.9591 40.6916 30.5344 40.2518 30.0141C38.6711 28.1443 36.2532 26.049 34.236 24.8009C32.1328 23.4996 29.4462 22.4347 27.1621 21.9969C26.1307 21.7992 23.5377 21.5502 22.8771 21.5856C22.7322 21.5932 22.0788 21.6379 21.425 21.6848ZM178.914 21.6383C176.452 21.8732 174.514 22.3158 172.525 23.0973C167.51 25.0678 163.404 28.346 160.872 32.4009C159.302 34.9153 158.234 38.119 157.823 41.548C157.714 42.45 157.684 45.9837 157.684 57.7509C157.684 72.078 157.694 72.8404 157.881 73.6391C158.405 75.8708 159.265 76.5589 161.53 76.5589C162.693 76.5589 163.469 76.3647 164.181 75.8954C164.7 75.5537 165.345 74.7146 165.556 74.11C165.652 73.8338 165.699 69.9107 165.748 58.1179C165.82 40.7407 165.778 41.7182 166.543 39.4148C168.322 34.0625 172.934 30.4672 178.809 29.8527C185.283 29.1757 191.497 33.2867 193.61 39.6444C194.38 41.9649 194.34 40.9775 194.355 57.8033C194.371 74.4136 194.342 73.6572 195.006 74.8723C195.749 76.231 197.381 76.9166 199.187 76.6294C200.92 76.3538 201.984 75.2432 202.302 73.377C202.385 72.8942 202.408 68.1797 202.382 57.2265C202.349 42.9408 202.331 41.6735 202.157 40.6565C201.596 37.3804 200.479 34.4543 198.856 32.0045C196.36 28.2375 192.136 24.835 187.817 23.1107C184.88 21.9385 181.547 21.3873 178.914 21.6383ZM118.122 21.8907C108.619 23.0395 100.102 29.2879 96.1519 38.0095C94.4378 41.7939 93.6856 45.6044 93.818 49.8329C93.9528 54.1406 94.8906 57.958 96.7293 61.6836C100.751 69.8335 108.079 75.1181 117.332 76.5427C119.312 76.8475 123.419 76.8724 125.339 76.591C130.316 75.8616 134.243 74.1744 138.14 71.092C140.321 69.3669 143.497 65.8836 144.185 64.4627C144.49 63.8321 144.514 63.6985 144.514 62.6799C144.514 61.6904 144.485 61.5191 144.224 60.9905C143.861 60.2543 142.968 59.402 142.17 59.0299C141.645 58.785 141.43 58.7472 140.563 58.7472C139.696 58.7472 139.481 58.785 138.956 59.0299C138.221 59.3727 137.432 60.0964 136.349 61.4214C133.737 64.6149 130.458 66.8448 126.722 67.9684C124.733 68.5669 123.712 68.7056 121.283 68.708C118.962 68.7103 118.315 68.6334 116.355 68.1236C109.818 66.4229 104.673 61.3557 102.795 54.7685C102.532 53.8491 102.318 53.035 102.318 52.9594C102.318 52.8465 105.596 52.8203 120.624 52.8129C130.693 52.8081 140.471 52.7672 142.354 52.7221C146.139 52.6316 146.503 52.575 147.327 51.9495C148.366 51.1609 148.627 50.3683 148.614 48.0501C148.569 40.3784 144.855 32.8058 138.76 27.9597C137.147 26.6773 135.672 25.754 133.662 24.7681C131.017 23.4705 127.986 22.5098 125.023 22.0306C123.79 21.8311 119.358 21.7412 118.122 21.8907ZM124.961 30.2681C132.352 31.8539 138.593 37.8157 139.76 44.4058L139.821 44.7466H121.227C106.423 44.7466 102.634 44.7199 102.634 44.6155C102.635 44.2979 103.178 42.5181 103.526 41.6937C105.915 36.0314 111.703 31.4249 117.858 30.2857C119.558 29.9711 119.476 29.9771 121.757 30.006C123.471 30.0279 124.068 30.0767 124.961 30.2681ZM241.57 30.1152C248.966 31.1619 254.911 36.1521 257.192 43.2283C257.949 45.5762 258.196 47.4604 258.113 50.2465C258.066 51.8122 257.995 52.5183 257.787 53.507C256.293 60.5699 251.309 66.0153 244.388 68.143C242.083 68.8516 239.126 69.127 236.673 68.8616C229.934 68.1326 224.109 64.0612 221.156 58.0162C217.82 51.1862 218.778 42.932 223.591 37.0384C224.466 35.9671 226.239 34.3116 227.384 33.4986C229.239 32.1807 232.351 30.8126 234.491 30.3746C236.579 29.9472 239.6 29.8365 241.57 30.1152Z" fill="white"/>
</svg>
