<svg width="111" height="110" viewBox="0 0 111 110" fill="none" xmlns="http://www.w3.org/2000/svg">
<path fill-rule="evenodd" clip-rule="evenodd" d="M46.4538 0.477178C45.7676 0.72914 44.8881 1.16305 44.4998 1.44121C43.8581 1.90084 43.7596 1.91274 43.4219 1.57314C42.9623 1.11113 41.7032 1.09922 40.0499 1.54194C38.6956 1.90441 37.8818 2.35142 36.8922 3.27591C36.3622 3.77103 36.1861 3.81937 35.756 3.58789C34.5422 2.93441 30.5562 4.6829 29.4745 6.34328C29.1579 6.8291 28.95 6.92556 28.4769 6.80624C27.0156 6.43735 23.8757 8.39923 22.8439 10.3261C22.4556 11.0513 22.2993 11.153 21.7461 11.0417C21.261 10.9441 20.7708 11.1325 19.7679 11.8019C18.2498 12.8152 17.5148 13.6911 16.8262 15.3065C16.4921 16.0905 16.2411 16.3934 16.0019 16.301C14.7573 15.8207 11.9183 19.0817 11.4649 21.5129C11.3273 22.2512 11.2039 22.3948 10.7076 22.3948C9.46085 22.3948 7.4907 25.4191 7.19044 27.7939C7.06233 28.8065 6.9399 29.0494 6.50112 29.1602C5.39551 29.4393 4.25178 31.6383 3.889 34.1832C3.79547 34.8381 3.51415 35.6002 3.26362 35.8765C2.53263 36.6828 1.82744 38.8262 1.76469 40.432C1.73272 41.2491 1.60012 42.0529 1.46964 42.2181C0.936137 42.894 0.661925 44.4294 0.703838 46.5089C0.734385 48.0323 0.633983 49.0037 0.377768 49.6629C-0.190783 51.1261 -0.112877 53.1418 0.579756 54.8827C1.1476 56.3099 1.15636 56.4064 0.78506 57.1549C0.219114 58.2956 0.483853 60.6993 1.36592 62.427C1.97142 63.6133 2.00907 63.8097 1.70833 64.2132C1.01191 65.1474 2.04956 68.7054 3.48432 70.3027C4.23804 71.1416 4.29085 71.2876 4.02279 71.7913C3.61526 72.5572 4.20371 74.5598 5.31287 76.1814C5.76965 76.8494 6.14355 77.4419 6.14355 77.4983C6.14355 77.5545 5.64865 77.7703 5.0441 77.9775C3.40452 78.5393 1.43957 80.132 0.915299 81.3237C0.492615 82.2849 0.484564 82.7743 0.732491 92.5494C0.933769 100.481 1.06519 102.889 1.31951 103.3C1.74717 103.991 3.50468 104.496 6.50325 104.789C7.80327 104.917 8.99341 105.023 9.14828 105.027C9.32256 105.03 9.49234 105.668 9.59346 106.7L9.75661 108.367H10.8056C11.4447 108.367 11.7973 108.46 11.7083 108.605C11.6278 108.736 11.1421 108.843 10.6287 108.843C9.79118 108.843 9.69552 108.904 9.69552 109.438C9.69552 110.12 9.59748 110.107 12.4187 109.793C15.2025 109.483 17.1786 108.885 18.0147 108.099L18.6889 107.466L18.5366 103.069L18.3846 98.6722L19.072 98.5248C20.1383 98.2962 28.3476 98.5672 32.4281 98.9659C36.4563 99.3593 44.46 100.694 48.1751 101.591C49.4775 101.906 51.9817 102.497 53.7399 102.905C55.4981 103.313 58.7481 104.067 60.9622 104.581C65.7602 105.694 72.9335 107.043 76.7092 107.543C82.5896 108.321 95.2342 108.38 99.8195 107.652C103.351 107.09 108.404 105.156 109.832 103.818C111.168 102.566 111.127 103.034 110.829 92.4677C110.679 87.1317 110.496 82.0858 110.424 81.2547L110.292 79.7439L108.833 79.0644C107.905 78.6322 106.557 78.2709 105.129 78.0713L102.882 77.7579L102.715 76.8087C102.623 76.2866 102.541 75.1933 102.534 74.3793C102.523 73.1514 102.439 72.8559 102.047 72.6444C101.42 72.3074 101.446 71.9811 102.106 71.8871C102.472 71.8347 102.861 71.4008 103.349 70.501C104.007 69.2869 104.059 69.0126 104.059 66.7502C104.059 64.9 104.134 64.3091 104.369 64.3091C104.811 64.3091 105.559 62.4711 105.734 60.9562C105.834 60.0908 105.756 59.1763 105.499 58.182C105.129 56.7553 105.132 56.681 105.574 56.2368C106.542 55.2633 106.451 51.682 105.407 49.6344C104.972 48.7813 104.972 48.7456 105.398 48.3172C106.3 47.4091 105.791 44.0557 104.445 42.05C103.893 41.2284 103.754 40.8488 103.957 40.7226C104.343 40.4827 104.273 38.4456 103.837 37.2025C103.433 36.0484 102.151 34.0894 101.683 33.9086C101.449 33.8186 101.399 33.4804 101.497 32.65C101.605 31.7329 101.505 31.2328 100.978 30.0511C100.358 28.662 98.6121 26.6815 98.0075 26.6815C97.8418 26.6815 97.8025 26.4252 97.9 25.9787C98.2282 24.4762 96.0637 21.341 94.0869 20.456C93.2559 20.0838 93.1293 19.9333 93.2244 19.4315C93.4665 18.1591 91.0066 15.4499 88.9836 14.7602C87.8598 14.377 87.7286 14.2632 87.7952 13.7278C87.9503 12.4833 84.681 9.99411 82.412 9.62927C81.7111 9.51662 81.4452 9.36016 81.4452 9.06009C81.4452 7.7667 77.9936 5.72433 75.8077 5.72433C74.8878 5.72433 74.5781 5.63669 74.5781 5.37663C74.5781 4.12849 71.0434 2.70697 68.5267 2.94346C67.1154 3.07587 67.0266 3.0542 66.9565 2.55956C66.786 1.35762 62.0287 0.428596 60.2402 1.24807C59.7027 1.49455 59.5807 1.47455 59.3761 1.10685C58.7368 -0.0422263 55.2146 -0.381113 53.0072 0.493848C51.8379 0.957288 51.7633 0.960384 51.3236 0.560054C50.6378 -0.0638981 48.0473 -0.108194 46.4538 0.477178ZM58.239 0.977292C58.5334 1.13495 58.513 1.19448 58.1206 1.32475C56.7628 1.77628 56.3347 2.01229 55.6468 2.6884C55.2334 3.09516 54.7576 3.75697 54.59 4.15921C53.7207 6.2454 51.935 7.3778 49.5017 7.38614L47.9866 7.39138L48.7626 6.85554C49.5663 6.30065 50.3191 5.10133 50.5277 4.04323C50.7072 3.13278 51.6295 1.87893 52.4927 1.37191C53.804 0.60173 57.1123 0.374535 58.239 0.977292ZM50.4247 0.93252C50.4247 1.04755 50.1008 1.27665 49.7048 1.44168C48.6703 1.8725 47.4403 3.42976 47.1183 4.71672C46.5971 6.79767 43.8162 8.84766 41.5609 8.81265C41.1226 8.80599 41.1115 8.77431 41.4553 8.51116C42.1401 7.98675 43.084 6.38853 43.0854 5.75053C43.0916 2.80295 45.4728 0.764625 48.9447 0.73557C49.7588 0.728664 50.4247 0.817256 50.4247 0.93252ZM65.5516 2.07445L66.4085 2.45358L65.0332 2.80819C63.6039 3.1766 62.795 3.80508 61.4649 5.58001C60.4988 6.86935 59.2357 7.37971 56.9958 7.38614C55.9267 7.38923 55.1607 7.29207 55.1607 7.15323C55.1607 7.02224 55.3122 6.91508 55.4976 6.91508C56.1183 6.91508 57.262 5.7148 57.8668 4.42903C58.5234 3.033 59.5826 1.99133 60.566 1.7739C60.9141 1.69698 61.3056 1.59219 61.4358 1.54075C61.9267 1.34714 64.7285 1.71055 65.5516 2.07445ZM42.6104 1.78986C42.6104 1.85273 42.1311 2.34832 41.5455 2.8913C40.4998 3.86057 40.1903 4.52882 39.8938 6.45616C39.5907 8.42685 37.5486 10.4776 35.4901 10.8781C34.7058 11.0308 34.6914 11.0205 35.0755 10.5828C35.7324 9.83432 36.0404 8.77741 36.0137 7.36613C35.9945 6.34685 36.1416 5.72933 36.6355 4.75625C37.1986 3.64671 37.4799 3.38141 38.8053 2.70959C40.1664 2.01967 40.7565 1.8463 42.196 1.71389C42.424 1.69293 42.6104 1.72723 42.6104 1.78986ZM71.2641 3.72244C72.5167 4.09658 73.6088 4.72005 73.6235 5.06942C73.6276 5.16777 73.1582 5.24803 72.5807 5.24803C71.0974 5.24803 70.4332 5.56358 68.8871 7.00319C67.2949 8.48591 65.9728 8.96578 64.1504 8.72263C63.4938 8.63499 62.6681 8.45305 62.3157 8.31825C61.6825 8.07606 61.6903 8.06725 62.9674 7.55379C63.8116 7.21443 64.436 6.771 64.7675 6.27541C66.651 3.46072 68.2648 2.82676 71.2641 3.72244ZM34.3483 4.98583C33.4072 5.86984 33.1146 6.67645 33.0341 8.60713C32.9422 10.8193 32.0795 12.3663 30.3215 13.4723C28.8295 14.4108 28.0684 14.5875 28.7421 13.8388C29.3627 13.1491 29.5894 11.7714 29.3111 10.3785C28.8323 7.98008 29.924 6.06345 32.4849 4.80674C34.8787 3.63195 35.7047 3.71125 34.3483 4.98583ZM77.8703 6.81124C78.6077 7.03153 79.4717 7.52141 79.9851 8.01057L80.8532 8.83742L79.7708 8.68905C78.3685 8.49711 76.9977 8.88005 75.8741 9.77787C75.3796 10.173 74.4005 10.6643 73.6981 10.8698C72.329 11.2701 70.9868 11.0991 69.1317 10.288L68.3029 9.92553L69.1317 9.77264C70.2961 9.55806 71.2468 9.00389 72.2101 7.97889C73.6782 6.41687 75.3765 6.06631 77.8703 6.81124ZM27.4527 8.1094C26.5898 9.32825 26.2853 10.6878 26.561 12.0901C26.8972 13.8 26.2822 15.7302 24.9784 17.0583C23.9481 18.1076 22.9562 18.7504 22.9562 18.3686C22.9562 18.2408 23.0488 18.0786 23.162 18.0083C23.6427 17.7094 23.6573 15.9976 23.1916 14.5313C22.9318 13.7138 22.7194 12.8119 22.7194 12.5273C22.7194 11.4964 23.9074 9.57235 25.0769 8.70882C26.1887 7.88816 27.7255 7.10845 27.8955 7.27873C27.9424 7.32565 27.743 7.6993 27.4527 8.1094ZM83.6512 10.6283C84.6907 10.9846 87.1283 12.9005 87.1283 13.3613C87.1283 13.4768 86.8352 13.4594 86.4771 13.3223C85.1878 12.829 83.494 13.0189 82.0052 13.8238C80.7753 14.4887 80.4405 14.5647 79.0772 14.4897C77.8444 14.4218 77.2553 14.2401 76.1172 13.5773C74.7545 12.7836 74.7253 12.7471 75.4069 12.6869C77.0839 12.5385 77.7123 12.3287 78.4611 11.6674C80.1409 10.1842 81.5385 9.90433 83.6512 10.6283ZM21.2986 11.7605C21.2986 11.806 21.1122 12.2077 20.8844 12.6535C20.4535 13.4966 20.422 14.5171 20.7139 18.1419C20.8816 20.2224 20.5671 21.0871 19.0502 22.7196C18.1712 23.6653 17.7478 23.7589 18.2011 22.9071C18.624 22.1121 18.4952 21.1667 17.7464 19.5751C16.6723 17.2917 16.8537 15.6309 18.3715 13.8474C19.3701 12.674 21.2986 11.2992 21.2986 11.7605ZM52.1815 13.087C52.7257 13.658 52.8777 14.0915 53.0378 15.528C53.191 16.9047 53.1595 17.3882 52.8886 17.8104C52.6996 18.105 52.4676 18.3579 52.3728 18.3725C49.2805 18.8414 47.9061 17.743 48.1062 14.9629C48.1936 13.7476 48.3158 13.4204 48.8571 12.9519C49.8256 12.1141 51.3125 12.1746 52.1815 13.087ZM58.3894 12.8502C59.2817 13.2577 59.3787 13.3894 59.4801 14.3334C59.594 15.3942 59.1263 16.3725 58.7633 15.8324C58.6702 15.694 58.0614 15.5868 57.4102 15.5942L56.2262 15.6075L56.2189 16.9643C56.2149 17.7106 56.1476 18.3856 56.0693 18.4644C55.9911 18.5432 55.6416 18.5356 55.2928 18.4475C54.8299 18.3305 54.7001 18.1831 54.8114 17.9002C55.2038 16.905 55.1988 16.0372 54.7988 15.6349C54.4093 15.2432 54.4152 15.2148 54.913 15.0841C55.3859 14.9598 55.4297 14.8202 55.3584 13.669L55.2791 12.3918L56.3446 12.3975C56.9307 12.4004 57.8509 12.6042 58.3894 12.8502ZM49.5187 13.1817C48.483 14.2908 49.0285 17.6878 50.2938 18.0071C51.0806 18.2058 51.5424 17.8116 51.8443 16.6837C52.0586 15.8828 52.034 15.2982 51.7171 13.6835C51.6321 13.2508 50.7494 12.6307 50.218 12.6307C50.1166 12.6307 49.8019 12.8788 49.5187 13.1817ZM45.3769 13.1987C45.214 13.6257 46.2616 17.7735 46.6518 18.2465C46.9016 18.5492 46.8663 18.6306 46.438 18.7433C46.1562 18.8176 45.9256 18.9695 45.9256 19.081C45.9256 19.1926 45.7882 19.231 45.6203 19.1662C45.4527 19.1014 45.2995 18.6492 45.2798 18.1615C45.2604 17.6737 45.138 17.0067 45.008 16.6792L44.7716 16.0838L44.7179 16.7983C44.6852 17.2343 44.608 17.0024 44.5197 16.2029C44.3759 14.9 44.3741 14.9045 44.178 17.096C44.0695 18.3077 43.8926 19.2989 43.7847 19.2989C43.6767 19.2989 43.2883 18.8602 42.9218 18.3241C42.5552 17.788 42.0172 17.0645 41.7264 16.7166L41.1974 16.0838L41.3367 16.9174C41.4131 17.3758 41.6731 18.1705 41.9144 18.6835C42.4013 19.7187 42.339 20.0133 41.6334 20.0133C41.2756 20.0133 41.1927 19.9023 41.299 19.5653C41.443 19.1091 40.6686 15.8064 40.1896 14.834C39.877 14.1989 39.9002 14.1708 40.8936 13.9807C41.5209 13.8605 41.6634 13.9093 41.6644 14.2441C41.6656 14.6776 43.3144 17.3937 43.576 17.3937C43.6601 17.3937 43.8029 16.5732 43.8934 15.5704C44.0167 14.2015 43.9822 13.7 43.7551 13.5587C43.434 13.3592 43.6023 13.2565 44.6232 13.0296C45.4434 12.8469 45.5057 12.861 45.3769 13.1987ZM50.1394 13.2856C49.9421 13.5149 49.6625 13.9167 49.5178 14.1786C49.289 14.5933 49.2542 14.6011 49.2478 14.2382C49.244 14.0088 49.4538 13.6071 49.7143 13.3451C50.2971 12.759 50.6331 12.7119 50.1394 13.2856ZM56.4339 13.2165C56.3664 13.3932 56.3454 13.8964 56.3873 14.3346C56.45 14.9934 56.5706 15.1439 57.0844 15.2036C58.0655 15.3182 58.7616 14.4049 58.2779 13.6385C57.9688 13.1486 56.581 12.8312 56.4339 13.2165ZM45.9256 13.4501C45.9256 13.508 45.819 13.6214 45.6888 13.7023C45.5585 13.7833 45.452 13.7359 45.452 13.5973C45.452 13.4587 45.5585 13.3451 45.6888 13.3451C45.819 13.3451 45.9256 13.3923 45.9256 13.4501ZM64.9944 14.1455C66.0297 14.7 66.038 14.7142 65.5741 15.1365C65.315 15.372 65.0773 15.5209 65.0455 15.4673C65.0138 15.4134 64.8731 15.1605 64.7327 14.9052C64.4093 14.3165 63.2378 13.9795 62.796 14.3484C61.8291 15.1553 61.3169 18.0776 61.9975 18.9042C62.4817 19.4922 63.4528 19.3839 64.2063 18.6578L64.8715 18.0169L64.8282 18.7173C64.7704 19.6461 64.2274 20.2546 63.4711 20.2381C62.9106 20.2257 62.9281 20.1995 63.6676 19.9404C64.1137 19.784 64.5288 19.4953 64.5902 19.2989C64.678 19.0178 64.6018 19.0307 64.234 19.3584C63.9648 19.5985 63.388 19.7752 62.8736 19.7752C61.5786 19.7752 60.607 18.6885 60.607 17.2398C60.607 15.3072 61.8999 13.6192 63.4003 13.5928C63.6991 13.5876 64.4166 13.8364 64.9944 14.1455ZM63.4486 14.3754C63.4486 14.418 63.1649 14.7126 62.8185 15.0303C62.2435 15.5568 62.2362 15.3339 62.804 14.5954C63.0093 14.3284 63.4486 14.1784 63.4486 14.3754ZM66.2901 15.0898C66.2901 15.1324 66.0065 15.427 65.66 15.7447C65.0851 16.2713 65.0777 16.0484 65.6456 15.3099C65.8509 15.0429 66.2901 14.8929 66.2901 15.0898ZM88.8167 15.2551C89.313 15.3937 90.2219 16.0224 90.9675 16.7428C92.3133 18.0431 93.1506 19.2374 92.5384 18.9833C92.363 18.9107 91.6438 18.6716 90.9403 18.452C89.7063 18.0674 89.5948 18.0714 87.7883 18.5694C85.035 19.3281 82.8889 18.8497 81.282 17.1186L80.7635 16.5601L82.2292 16.5489C83.4658 16.5394 83.8778 16.4184 84.866 15.775C86.126 14.9543 87.2233 14.8097 88.8167 15.2551ZM37.5211 15.4856C37.3566 15.7533 38.9765 19.326 39.3835 19.593C39.5304 19.6892 39.55 19.7694 39.4276 19.7716C39.3049 19.7735 39.4011 19.9197 39.6414 20.0962C40.1138 20.4436 39.9604 20.9659 39.3857 20.9659C39.1903 20.9659 39.0902 21.0631 39.1631 21.1819C39.2363 21.3005 39.0899 21.3436 38.8384 21.2774C38.5851 21.211 38.4338 21.0185 38.4991 20.8468C38.5642 20.6761 38.3542 20.0169 38.0324 19.3817L37.4473 18.2272L37.2628 19.1798C37.1614 19.7037 37.071 20.6146 37.062 21.2041C37.0442 22.3655 36.859 22.6237 36.0393 22.6294C35.6824 22.6318 35.5065 22.4913 35.5065 22.2036C35.5065 21.6746 33.7537 17.9862 33.3971 17.7645C32.9846 17.508 33.0935 17.2527 33.7416 16.9557C34.5048 16.6059 34.5593 16.609 34.5593 17.004C34.5593 17.1827 34.8678 18.0126 35.245 18.8483L35.9308 20.3674L36.173 19.4165C36.7096 17.3113 36.7485 16.4973 36.3236 16.2582C35.9618 16.0545 35.977 15.9941 36.4776 15.6414C37.0871 15.212 37.7499 15.1129 37.5211 15.4856ZM69.3015 15.6109L69.8132 15.9714L69.2949 16.5361C69.0098 16.8466 68.6569 17.4232 68.5106 17.8173L68.2447 18.5339L68.9842 18.3227C70.7569 17.8169 71.1599 17.5315 71.054 16.8578C71.0107 16.5813 71.5563 16.6616 72.2101 17.0276C72.8525 17.3875 72.8944 17.351 71.1445 17.9509L70.1973 18.2755V20.5734C70.1973 22.2531 70.1177 22.8713 69.9013 22.8711C69.7386 22.8711 69.6053 22.7711 69.6053 22.6489C69.6053 22.5267 69.3815 22.3555 69.1078 22.2681C68.746 22.1526 68.6813 22.0381 68.871 21.8473C69.0145 21.703 69.1317 21.1221 69.1317 20.5565C69.1317 19.5587 69.1123 19.5322 68.4805 19.6704L67.8293 19.8128L68.4213 19.3112L69.0133 18.8095L68.3666 19.0902C67.7469 19.3593 67.3714 19.9692 67.3602 20.7247C67.3527 21.2257 66.7206 21.2862 66.1672 20.8387C65.8447 20.5782 65.7886 20.4217 65.987 20.3381C66.414 20.1583 68.4741 15.97 68.3261 15.5825C68.1592 15.1446 68.6603 15.1593 69.3015 15.6109ZM58.4117 16.1086C58.333 16.1877 58.1287 16.1962 57.9579 16.1274C57.769 16.0515 57.8251 15.995 58.101 15.9836C58.3506 15.9733 58.4903 16.0295 58.4117 16.1086ZM70.0789 16.5347C70.0789 16.5861 69.9136 16.6921 69.7114 16.7702C69.5006 16.8514 69.4057 16.8114 69.4886 16.6766C69.6276 16.4501 70.0789 16.3418 70.0789 16.5347ZM52.7927 16.9281C52.7927 17.065 52.531 17.4401 52.2113 17.7616C51.6051 18.3715 51.6868 18.5432 52.3437 18.04C52.7231 17.7497 53.1817 16.6792 52.9269 16.6792C52.8531 16.6792 52.7927 16.7911 52.7927 16.9281ZM15.2498 17.9C14.7587 19.2996 14.8203 20.3017 15.4971 21.9185C16.5248 24.3743 16.2063 26.6324 14.5513 28.6241L14.0256 29.2568V27.9906C14.0256 26.9025 13.8875 26.5165 13.0445 25.2469C12.1809 23.9463 12.0642 23.6087 12.0687 22.4272C12.0718 21.6118 12.2503 20.7111 12.5236 20.1324C12.991 19.1424 14.955 16.9174 15.3616 16.9174C15.4961 16.9174 15.4488 17.3327 15.2498 17.9ZM36.6904 19.4179C36.5313 20.5458 36.4489 21.5167 36.5074 21.5756C36.5659 21.6346 36.7496 20.7654 36.9154 19.6442C37.0812 18.523 37.1636 17.552 37.0984 17.4865C37.0333 17.4208 36.8496 18.2901 36.6904 19.4179ZM44.2504 19.6268C44.0288 19.8318 43.9973 19.7925 44.1148 19.4579C44.1991 19.2181 44.285 18.7359 44.3059 18.3863C44.3366 17.8697 44.362 17.9014 44.4415 18.5551C44.4965 19.0066 44.4127 19.4768 44.2504 19.6268ZM71.7365 18.2396C71.1504 18.4253 70.5643 18.5706 70.4341 18.5627C70.0197 18.5373 71.8345 17.9064 72.3285 17.904C72.589 17.9028 72.3226 18.0538 71.7365 18.2396ZM75.9988 19.4179C76.4495 19.9002 76.4814 20.0133 76.1674 20.0133C75.9541 20.0133 75.3472 20.6539 74.8186 21.4367C74.2899 22.2195 73.9929 22.8173 74.1585 22.7651C77.3263 21.7663 77.6306 21.6289 77.7009 21.1657L77.7748 20.6801L78.3988 21.176L79.0228 21.6718L78.2034 22.5456C77.1987 23.617 75.762 25.7337 75.762 26.1426C75.762 26.5622 75.2889 26.5177 74.7744 26.0492C74.2714 25.5915 74.215 25.2583 74.6373 25.2395C74.9456 25.2257 75.897 24.1297 76.1293 23.5205C76.239 23.2331 75.9924 23.2569 74.7696 23.6518C73.9479 23.9173 73.2094 24.2362 73.1282 24.3607C73.0365 24.5017 72.8021 24.4912 72.5082 24.3329C72.2482 24.1931 71.9906 24.1238 71.9356 24.179C71.8807 24.2343 71.8201 24.0697 71.8009 23.8135C71.7817 23.5572 71.861 23.3474 71.9773 23.3474C72.2946 23.3474 75.0517 19.6223 75.0517 19.1938C75.0517 18.6616 75.3607 18.7347 75.9988 19.4179ZM32.0009 19.8064C32.2218 20.0626 32.4882 20.2619 32.5929 20.2493C32.6976 20.2367 32.8188 20.3979 32.8621 20.6077C32.958 21.0724 32.2486 22.2205 31.972 22.0483C31.7532 21.9125 30.5337 22.7956 30.5337 23.09C30.5337 23.1914 30.9263 23.681 31.4063 24.1781L32.2789 25.0816L31.7352 25.5243C31.0357 26.094 30.7705 26.0842 30.7705 25.4886C30.7705 24.8866 29.5759 23.6184 29.1492 23.7675C28.8965 23.8556 28.8846 23.7765 29.0918 23.3869C29.3163 22.9652 29.2245 22.7587 28.4454 21.9349L27.537 20.9747L28.5027 20.331C30.5886 18.9402 31.1783 18.8516 32.0009 19.8064ZM29.5273 20.29C29.1693 20.4217 28.8761 20.6339 28.8761 20.7616C28.8761 20.8895 28.9993 20.9176 29.1496 20.8242C29.3249 20.7151 29.3582 20.7592 29.2432 20.9469C29.0767 21.2174 29.9308 22.3948 30.2936 22.3948C30.5898 22.3948 31.4809 21.4177 31.4809 21.0926C31.4809 20.6801 30.8314 20.0069 30.4577 20.0321C30.304 20.0424 29.8854 20.1586 29.5273 20.29ZM93.2105 20.7411C94.4863 21.2224 95.6649 22.2345 96.4852 23.5532C97.5526 25.2695 97.5453 25.6365 96.4579 24.8944C95.3149 24.1142 94.1643 23.9316 92.5318 24.2707C90.3729 24.7191 88.9578 24.2621 87.1875 22.5451C86.5039 21.8821 85.9443 21.2679 85.9443 21.1805C85.9443 21.0931 86.3895 21.176 86.9339 21.3646C87.8139 21.6694 88.0563 21.6637 89.1243 21.3136C89.7847 21.0971 90.4849 20.8263 90.6803 20.712C91.1705 20.4251 92.4106 20.4394 93.2105 20.7411ZM32.0966 21.3469C32.0123 21.5677 31.9966 21.802 32.0618 21.8675C32.1269 21.933 32.2491 21.8059 32.3334 21.5851C32.4177 21.3643 32.4333 21.13 32.3682 21.0645C32.3031 20.999 32.1809 21.1262 32.0966 21.3469ZM54.4569 21.8121C54.6714 22.2152 54.9696 22.3948 55.4235 22.3948C56.432 22.3948 56.4538 22.7892 55.4927 23.6382C54.1008 24.867 53.4735 27.1557 54.3319 27.8722C54.832 28.2897 54.7752 28.6586 54.1152 29.2821L53.5433 29.8225L53.1337 29.1937C52.778 28.6479 52.7664 28.4857 53.0449 27.9625C53.7678 26.6036 53.1865 24.5882 51.7356 23.4238C50.8649 22.7251 50.9724 22.4067 52.0823 22.3969C52.4886 22.3934 52.8003 22.169 53.0761 21.6815C53.5308 20.8778 53.9826 20.9204 54.4569 21.8121ZM79.0772 22.2502C79.0772 22.3017 78.9119 22.4077 78.7097 22.4858C78.499 22.567 78.404 22.527 78.4869 22.3922C78.6259 22.1657 79.0772 22.0573 79.0772 22.2502ZM74.8764 23.0476C73.9335 23.3898 73.2091 23.7172 73.2667 23.7751C73.3773 23.8861 76.946 22.6318 76.946 22.482C76.946 22.326 76.6176 22.4158 74.8764 23.0476ZM26.5299 24.3262C27.0319 24.7992 27.516 25.1207 27.6055 25.0406C27.6947 24.9609 27.6988 25.0173 27.614 25.1666C27.4579 25.4412 28.8659 26.6815 29.3339 26.6815C29.6855 26.6815 29.6495 26.9616 29.2178 27.581C28.806 28.1723 28.4025 28.2769 28.4025 27.7922C28.4025 27.4345 25.2612 24.3 24.9027 24.3C24.5953 24.3 24.1134 24.8975 24.2607 25.0959C24.3246 25.1821 24.3104 25.2035 24.2292 25.1438C24.148 25.0838 23.8892 25.2712 23.6543 25.5605C23.2377 26.0728 23.2425 26.1026 23.8383 26.7325C24.1743 27.088 24.5562 27.3126 24.6867 27.2316C24.8169 27.1507 24.8586 27.1902 24.7791 27.3197C24.6157 27.5855 26.1511 29.1237 26.8363 29.3814C27.2661 29.5429 27.2671 29.5669 26.8588 30.0206C26.4317 30.4955 25.7978 30.6598 25.7978 30.2957C25.7978 29.9018 22.4869 26.6815 22.0819 26.6815C21.8061 26.6815 22.3036 26.0354 23.5524 24.772C24.6199 23.6922 25.4783 22.9938 25.5285 23.1645C25.5773 23.3307 26.0279 23.8535 26.5299 24.3262ZM83.1463 23.526C83.202 24.0142 83.452 24.2943 84.1281 24.6263C84.7104 24.9125 84.9531 25.154 84.8065 25.3014C84.5096 25.6001 83.202 24.9316 82.8731 24.3131C82.5688 23.7415 82.5551 22.8711 82.8503 22.8711C82.9718 22.8711 83.1051 23.1657 83.1463 23.526ZM10.2885 24.2931C10.1038 25.6439 10.6148 27.5574 11.3353 28.2133C11.9468 28.7696 12.3813 30.5133 12.2503 31.8836C12.1341 33.1008 11.2356 35.2549 10.8445 35.2549C10.718 35.2549 10.6792 35.1501 10.7578 35.0222C11.0486 34.549 10.3491 32.8003 9.485 31.8396C7.98773 30.1749 7.80114 29.7815 7.80114 28.2876C7.80114 27.2921 7.96358 26.5815 8.38011 25.7549C8.93114 24.6613 10.0753 23.1093 10.3308 23.1093C10.3964 23.1093 10.3775 23.642 10.2885 24.2931ZM81.682 24.1809L82.2382 24.7763H81.7159C81.4286 24.7763 81.1352 24.9294 81.0637 25.1164C80.9924 25.3036 80.4431 25.8413 79.843 26.3114L78.7519 27.1664L79.6841 27.0516C82.4731 26.7089 82.8809 26.6124 83.0841 26.2474C83.2816 25.8925 83.3445 25.8977 83.7937 26.3067C84.3524 26.8149 84.4298 27.1578 83.9863 27.1578C83.821 27.1578 82.9204 27.908 81.9848 28.8248C81.0495 29.7417 80.3536 30.4919 80.4383 30.4919C80.5233 30.4919 80.4675 30.6179 80.3142 30.772C80.1007 30.9868 79.9238 30.9503 79.5565 30.616C79.0076 30.1166 78.938 29.7774 79.3843 29.7774C79.5532 29.7774 80.1087 29.3476 80.6188 28.8225L81.5458 27.8675L80.3708 28.0204C79.7244 28.1047 78.8172 28.3002 78.3547 28.455C77.5878 28.7117 77.4786 28.6893 77.1116 28.1999C76.6318 27.5603 76.6107 27.399 77.0052 27.3869C77.3915 27.3752 80.7348 24.2112 80.7348 23.8573C80.7348 23.4215 81.0841 23.5408 81.682 24.1809ZM52.0075 25.1142C52.7074 25.9328 52.881 26.6551 52.5732 27.4691C52.2826 28.2376 51.3243 28.6662 50.3683 28.4552C49.1974 28.1966 48.8273 26.4433 49.9438 26.4433C50.2083 26.4433 50.4247 26.5505 50.4247 26.6815C50.4247 26.8125 50.5313 26.9196 50.6615 26.9196C51.0918 26.9196 50.9073 26.2402 50.4363 26.0899C49.8128 25.8908 48.3146 26.3131 46.0937 27.3143C45.0792 27.7715 43.3338 28.3728 42.2149 28.6508C40.2836 29.1302 40.1136 29.1366 38.85 28.7765C36.5275 28.1147 35.815 27.7763 35.9377 27.3931C36.1787 26.6401 36.9272 26.456 36.9272 27.1495C36.9272 28.1452 39.0028 28.5734 41.1491 28.0204C41.9519 27.8137 43.4882 27.1395 44.5633 26.5227C47.6433 24.7546 48.9395 24.27 50.2923 24.381C51.1976 24.4553 51.5857 24.6213 52.0075 25.1142ZM58.7837 24.631C59.3851 24.813 61.0271 25.6027 62.4325 26.386C65.5059 28.0985 66.3619 28.3962 68.2151 28.3962C69.6636 28.3962 70.5525 27.9563 70.5525 27.24C70.5525 26.8775 70.6018 26.8623 71.1251 27.0642C71.5904 27.2438 71.6226 28.1104 71.1639 28.1104C70.9792 28.1104 70.2977 28.3783 69.6496 28.7058C69.0012 29.0332 68.0716 29.3011 67.5838 29.3011C66.3754 29.3011 63.7647 28.4919 61.199 27.3219C58.8758 26.2626 56.854 25.979 56.634 26.6815C56.5438 26.9699 56.5829 26.9813 56.836 26.741C57.3049 26.2962 57.9508 26.3817 58.1178 26.9106C58.3072 27.5107 57.9006 28.2733 57.2869 28.4693C56.6913 28.6593 55.509 28.4133 55.1959 28.0342C54.3513 27.0104 54.8722 25.2216 56.1824 24.6487C57.1429 24.2283 57.4469 24.2264 58.7837 24.631ZM81.978 25.1721C81.8153 25.2383 81.5489 25.2383 81.386 25.1721C81.2233 25.1061 81.3564 25.0521 81.682 25.0521C82.0076 25.0521 82.1409 25.1061 81.978 25.1721ZM84.5236 25.7289C84.7189 25.8558 84.7722 25.9597 84.642 25.9597C84.5117 25.9597 84.2453 25.8558 84.05 25.7289C83.8546 25.602 83.8013 25.4981 83.9316 25.4981C84.0618 25.4981 84.3282 25.602 84.5236 25.7289ZM92.9206 27.1564C93.3166 27.1557 94.0566 27.039 94.5652 26.8968C96.2178 26.4355 97.4001 26.7946 98.8055 28.1852C100.038 29.4052 100.663 30.4293 100.998 31.7808L101.17 32.474L99.7937 31.4831C98.4574 30.5207 98.3632 30.4919 96.5465 30.4919C94.075 30.4919 92.7213 29.9208 91.577 28.3957C91.1153 27.7803 90.667 27.0452 90.5811 26.762L90.4248 26.2469L91.313 26.7025C91.8015 26.9527 92.5249 27.1571 92.9206 27.1564ZM29.8527 27.4595C29.6187 27.6929 29.5917 27.6655 29.7201 27.3262C29.8091 27.0914 29.9415 26.9592 30.0144 27.0325C30.0873 27.1056 30.0146 27.2978 29.8527 27.4595ZM79.4684 27.6458C78.8371 27.7522 78.251 27.9103 78.166 27.9973C78.0019 28.1647 79.8245 27.9461 81.2084 27.632C82.009 27.4502 82.013 27.4438 81.3268 27.4479C80.9361 27.4502 80.0999 27.5391 79.4684 27.6458ZM25.5913 28.0509C25.8856 28.4286 25.8773 28.4369 25.5018 28.1409C25.1073 27.8296 24.982 27.6341 25.1769 27.6341C25.2259 27.6341 25.4125 27.8215 25.5913 28.0509ZM6.85371 33.1175C7.02444 33.4416 7.57357 34.1773 8.0744 34.7524C8.57499 35.3273 9.10329 36.2382 9.24821 36.7767C9.54823 37.8919 9.41041 40.2679 8.98418 41.3277L8.69671 42.0421L8.36566 40.9295C8.10542 40.0553 7.71044 39.5309 6.52338 38.4825C5.69222 37.7488 4.87953 36.8262 4.71732 36.4323C4.29866 35.4156 4.54304 32.9732 5.19352 31.6757C6.11798 29.8315 6.24514 29.7851 6.40261 31.2337C6.48004 31.9456 6.68298 32.7931 6.85371 33.1175ZM95.7077 33.3261C96.0634 33.4616 97.129 33.5578 98.0757 33.54C99.9857 33.5038 100.788 33.8046 101.889 34.9703C102.622 35.7459 103.709 38.4656 103.696 39.4928L103.688 40.137L102.954 39.2322C102.044 38.1124 100.879 37.5078 99.2803 37.3261C97.0535 37.0727 95.4089 35.8715 94.4882 33.826C93.8321 32.368 93.8458 31.9351 94.5283 32.5778C94.8214 32.8539 95.3521 33.1906 95.7077 33.3261ZM46.9329 35.1084C49.6411 35.7495 51.1351 37.3942 51.1351 39.7345C51.1351 41.236 50.16 42.6909 48.8656 43.1205C48.1363 43.3624 48.0541 43.4506 48.384 43.6363C48.9649 43.9633 50.4186 43.1719 51.0934 42.1612C51.5665 41.4527 51.6364 41.101 51.5575 39.8176C51.4794 38.5397 51.5121 38.372 51.7707 38.7278C52.2068 39.3277 52.3984 40.589 52.2083 41.6085C52.0487 42.4651 50.9253 43.8576 50.1879 44.1129C49.9255 44.2038 50.096 44.4779 50.8412 45.1633C51.8031 46.0478 51.8559 46.1679 51.9838 47.7577C52.16 49.9499 51.5564 51.2302 49.8521 52.2797L48.6873 52.997L42.8074 53.0716C39.1579 53.118 36.9272 53.0597 36.9272 52.9177C36.9272 52.792 37.3002 52.3597 37.756 51.9573L38.5848 51.2254V48.2414C38.5848 45.416 38.5597 45.2572 38.1112 45.2572C37.8508 45.2572 37.6376 45.15 37.6376 45.019C37.6376 44.888 37.8508 44.7809 38.1112 44.7809C38.3743 44.7809 38.5848 44.622 38.5848 44.4236C38.5848 44.1591 38.3085 44.0664 37.5192 44.0664C36.3691 44.0664 36.3291 44.0309 36.6987 43.3363C36.8688 43.0169 37.1955 42.8757 37.7643 42.8757H38.5848L38.5834 40.3156L38.5817 37.7555L37.8138 37.3142L37.0456 36.8729L38.4439 36.1606C40.9684 34.8743 44.2334 34.4697 46.9329 35.1084ZM22.9323 35.8274L22.0793 36.6252L21.9541 40.8221C21.8851 43.1305 21.9207 45.019 22.0327 45.019C22.3779 45.019 22.4838 44.0824 22.5434 40.5032L22.601 37.0591L23.3997 36.5183C24.5529 35.7371 24.8004 36.1144 23.8065 37.1379L22.9562 38.0136V40.8019C22.9562 42.3353 23.054 43.5901 23.1733 43.5901C23.2927 43.5901 23.4258 43.4927 23.4693 43.3736C23.5465 43.1619 24.6791 41.7942 26.681 39.4958C27.2318 38.8633 27.8532 38.0138 28.0618 37.6083C28.4321 36.8881 28.4236 36.8493 27.7002 35.9439L26.9595 35.0167H30.1814C32.269 35.0167 33.3516 35.1006 33.2569 35.2549C33.1764 35.3859 33.0047 35.493 32.8752 35.493C32.1536 35.493 27.6592 39.5783 26.9832 40.8488C26.7151 41.3527 26.9159 41.8626 29.111 46.2486C30.4444 48.9123 31.6405 51.199 31.7693 51.33C32.0021 51.5667 30.7847 48.9992 29.192 45.8945C28.7336 45.0009 28.3999 44.2276 28.4508 44.1767C28.5017 44.1255 29.3751 45.7675 30.3916 47.8258C31.5718 50.215 32.5095 51.8027 32.9853 52.2166L33.7305 52.8651L30.4745 52.8715C28.6838 52.8751 27.2185 52.8129 27.2185 52.7336C27.2185 52.6543 27.4849 52.3786 27.8105 52.1209C28.1361 51.8634 28.4025 51.5619 28.4025 51.4512C28.4025 51.3405 27.7509 49.8756 26.9545 48.1957L25.5063 45.1417L24.2242 46.5689L22.9422 47.9959L23.0085 50.4372L23.0746 52.8784L20.2922 52.8782C18.7618 52.8782 17.5098 52.7975 17.5098 52.6993C17.5098 52.6012 17.8828 52.2214 18.3386 51.8556L19.1674 51.1907V43.889V36.5873L18.4106 35.8022L17.6538 35.0167L20.7194 35.0232L23.785 35.0296L22.9323 35.8274ZM86.9846 35.7386C88.0123 36.0591 88.8989 36.1944 89.3782 36.1041L90.1395 35.9605L88.9559 38.2687L87.7724 40.5771L87.3277 39.3777C86.6941 37.6695 86.1875 37.287 84.5579 37.287C82.9429 37.287 81.9164 37.9076 81.202 39.316C79.9924 41.7006 79.6751 45.9759 80.4793 49.0564C80.8203 50.3626 80.8527 50.7165 80.6088 50.4693C79.6143 49.461 79.1814 43.4491 79.9029 40.6635C80.7265 37.4835 82.7694 36.0248 85.1331 36.9286C86.0365 37.2742 86.1309 37.0312 85.2678 36.5823C84.367 36.1139 82.5795 36.0979 81.709 36.5507C79.0663 37.925 78.0786 44.0736 79.6924 49.1059C80.1459 50.52 81.965 52.2995 83.1942 52.5314C85.646 52.9939 87.745 51.3767 88.1994 48.6749C88.4459 47.2098 88.5607 46.9242 88.9043 46.9242C89.8529 46.9242 89.4085 49.9509 88.2318 51.5022C87.148 52.9313 86.1977 53.4095 84.1823 53.5395C80.8215 53.7565 78.1835 52.2864 76.8523 49.4548C75.6238 46.8418 75.5485 42.446 76.6889 39.9119C78.6441 35.5671 82.0317 34.1939 86.9846 35.7386ZM67.2373 35.4204C67.2373 35.5116 66.97 35.8667 66.643 36.2099L66.0486 36.8338L66.507 38.1282C67.2982 40.3615 68.4412 43.0262 68.2932 42.292C68.2153 41.9054 67.7974 40.678 67.3645 39.5644C66.6186 37.6461 66.5977 37.5113 66.9664 37.0003C67.1805 36.7033 67.6018 36.4573 67.9025 36.453C68.499 36.4449 68.4469 36.6688 67.6441 37.5666C67.1751 38.091 67.1751 38.0948 67.6624 39.3527C67.9309 40.046 68.2863 41.0152 68.4519 41.5063C68.7938 42.5196 68.8307 42.5373 69.553 42.0283C70.2009 41.572 70.4703 41.7187 70.6709 42.6375C70.7561 43.0274 70.924 43.4077 71.0443 43.4825C71.1646 43.557 71.2629 43.7725 71.2629 43.9614C71.2629 44.2 70.9887 44.3046 70.3631 44.3046C69.8682 44.3046 69.3512 44.4172 69.2144 44.5549C69.0401 44.7301 69.3122 45.7842 70.1187 48.0604C70.7531 49.8506 71.3806 51.4245 71.5132 51.5579C71.6458 51.6913 71.2454 50.3362 70.6233 48.5463C70.001 46.7563 69.5752 45.2079 69.6773 45.1055C69.9491 44.8321 72.0716 44.8595 72.2101 45.1381C72.2766 45.2717 71.861 45.4284 71.2629 45.4953C70.3787 45.5942 70.2032 45.6956 70.2319 46.0907C70.3005 47.039 72.4073 52.4395 72.8362 52.766C73.2207 53.0589 72.8625 53.1018 69.9733 53.1085L66.6709 53.1161L67.4682 52.2888L68.2655 51.4614L67.8161 50.1316C67.127 48.0921 67.1161 48.0888 65.8483 49.4848C64.7836 50.6572 64.3958 50.8265 64.3958 50.1188C64.3958 49.9547 64.9444 49.2166 65.6148 48.4791C66.4999 47.5048 66.7626 47.0659 66.5738 46.8761C66.3025 46.6032 65.3235 47.4684 64.2246 48.9521C63.7879 49.5417 63.6598 49.602 63.4744 49.3057C63.3512 49.1092 62.9077 48.4739 62.4884 47.8935L61.7263 46.8387L61.1412 48.3698C60.7955 49.2748 60.544 50.4534 60.5263 51.2512C60.5002 52.4362 60.5757 52.6751 61.1438 53.2045C61.4997 53.5364 61.791 53.9201 61.791 54.0573C61.791 54.219 60.6558 54.3069 58.5653 54.3069C55.7247 54.3069 55.3747 54.2642 55.6343 53.9496C55.8635 53.6719 56.5057 53.5924 58.5187 53.5924C60.185 53.5924 61.0564 53.5074 60.9622 53.3543C60.8765 53.2147 59.4995 53.1161 57.6331 53.1161C55.6691 53.1161 54.4503 53.0249 54.4503 52.878C54.4503 52.747 54.5424 52.6398 54.6549 52.6398C54.7676 52.6398 55.3882 52.1164 56.0344 51.4767C57.1796 50.3431 57.984 48.9482 58.8436 46.6058C59.2042 45.6232 59.217 45.4222 58.9302 45.2364C58.6421 45.05 58.6442 44.9866 58.9456 44.7921C59.2243 44.6118 59.1166 44.4891 58.4237 44.1979L57.5504 43.8311L57.9764 42.8742C58.5703 41.5404 58.6297 41.5158 59.423 42.2803C59.8111 42.6542 60.1618 42.9143 60.2028 42.8583C60.325 42.6911 60.998 40.9802 61.7799 38.8493C62.5014 36.8822 62.5066 36.8386 62.0695 36.3487C61.0986 35.2608 61.1104 35.2549 64.2634 35.2549C65.899 35.2549 67.2373 35.3294 67.2373 35.4204ZM42.196 36.312L41.4264 36.6607V39.7683C41.4264 43.6913 41.8588 43.9614 41.9516 40.0962L42.0184 37.317L42.7288 36.8986C43.5517 36.4142 45.9166 36.3032 46.7108 36.7116C47.2085 36.9674 47.2121 36.961 46.8095 36.5373C46.2504 35.9496 43.3125 35.806 42.196 36.312ZM33.7305 36.7236C32.3504 37.4449 31.0315 38.5816 29.2434 40.5909L27.6632 42.3667L28.0523 43.1236C28.2666 43.5401 28.3393 43.8171 28.214 43.7392C28.089 43.6616 27.8049 43.2127 27.5827 42.7418C27.2339 42.0029 27.2242 41.8314 27.511 41.4877C31.0705 37.2239 32.2706 36.2025 33.7023 36.218L34.6777 36.2284L33.7305 36.7236ZM3.77558 37.0729C3.77558 38.5287 4.32495 39.5806 5.73152 40.8178C7.47601 42.3525 8.04599 43.5315 8.01425 45.5418C8.00123 46.3677 7.91433 47.3112 7.82079 47.6387C7.65527 48.2188 7.64367 48.2121 7.36543 47.3803C7.02373 46.3588 6.09738 45.4291 4.94844 44.9545C3.19187 44.2288 2.19045 42.1905 2.43104 39.8302C2.65268 37.6542 3.77558 35.3516 3.77558 37.0729ZM44.5048 37.1589C42.6686 37.4937 42.3814 38.096 42.3757 41.6254L42.3736 42.8757L43.6168 42.8742C45.2952 42.8726 46.3662 42.5413 47.3416 41.7226C48.1055 41.0812 48.1578 40.945 48.1664 39.5823C48.1732 38.4299 48.0766 38.0322 47.7015 37.6719C47.1692 37.1603 45.7487 36.9324 44.5048 37.1589ZM90.0795 39.4035C89.0661 41.4161 88.5491 41.9988 88.5491 41.1284C88.5491 40.5551 90.1752 37.4397 90.5988 37.2013C90.8368 37.0672 91.0734 36.9996 91.1243 37.051C91.1752 37.1022 90.7052 38.1608 90.0795 39.4035ZM62.3082 41.011C61.728 42.5039 61.3524 43.8102 61.4394 44.0324C61.5596 44.3389 61.6842 44.2429 62.015 43.5901C62.845 41.9519 63.8094 38.8564 63.5655 38.6145C63.4102 38.4604 62.9821 39.2765 62.3082 41.011ZM98.8636 40.2308C99.3769 40.3741 100.117 40.4944 100.507 40.498C102.167 40.5135 103.963 41.904 104.655 43.7101C105.051 44.7428 105.333 46.7232 105.153 47.2109C105.026 47.5563 104.854 47.4372 104.174 46.5351C103.264 45.3269 102.643 44.9121 101.204 44.5515C99.4764 44.1188 98.1562 43.0336 97.4608 41.4753C97.1176 40.7064 96.7667 39.7157 96.6805 39.2737L96.5242 38.4699L97.227 39.2201C97.6137 39.6325 98.3499 40.0874 98.8636 40.2308ZM64.0408 40.5592C63.9454 40.7914 63.5241 41.9131 63.1047 43.0519L62.3423 45.1224L62.9546 46.0142C63.2913 46.5048 63.6776 46.9102 63.8128 46.9152C63.948 46.9202 64.4606 46.4405 64.952 45.8494L65.8452 44.7747L65.1436 42.813C64.7576 41.7342 64.3905 40.6906 64.328 40.4942C64.234 40.1993 64.1838 40.2105 64.0408 40.5592ZM2.31075 44.1855C2.63232 45.3086 3.73698 46.5637 4.79689 47.0099C5.85442 47.4553 7.25319 49.0959 7.56363 50.2555C7.70737 50.7927 7.79309 51.7901 7.75401 52.4719L7.68274 53.7115L7.15563 52.8589C6.63964 52.0249 6.12153 51.686 4.05997 50.8342C1.6605 49.8427 0.56105 46.8799 1.42797 43.7402C1.71449 42.7021 1.91529 42.8033 2.31075 44.1855ZM71.8262 43.9473L71.9771 44.6618L71.6285 44.0664C71.4367 43.739 71.2759 43.3155 71.2712 43.1257C71.2577 42.5637 71.6598 43.1591 71.8262 43.9473ZM23.2235 45.3219L21.7708 47.0433L21.8307 49.2864C21.8717 50.8244 21.9837 51.5605 22.1866 51.6281C22.4089 51.7024 22.4826 51.1835 22.4826 49.5408V47.3546L23.785 45.8628C24.5013 45.0421 25.0874 44.255 25.0874 44.1136C25.0874 43.4056 24.5432 43.7585 23.2235 45.3219ZM41.4264 47.9776C41.4264 50.5674 41.509 51.9023 41.6632 51.8063C41.8034 51.7191 41.9 50.2621 41.9 48.2388V44.8187L42.5772 44.6692C43.2557 44.5191 46.9438 44.888 47.3613 45.1474C47.4832 45.2231 47.5831 45.2269 47.5831 45.1552C47.5831 44.768 45.5389 44.2381 43.6168 44.1276L41.4264 44.0014V47.9776ZM42.4768 45.568C42.4117 45.7389 42.3883 47.2126 42.4252 48.8425L42.492 51.8063L44.3864 51.7265C47.4399 51.5979 48.4434 50.8389 48.7105 48.456C48.7721 47.9066 48.6977 47.0769 48.5452 46.6122C48.2966 45.8547 48.1458 45.7411 47.0852 45.5122C45.3854 45.1457 42.6253 45.1791 42.4768 45.568ZM99.0215 46.2202C99.448 46.9738 101.047 47.8623 101.992 47.8716C102.984 47.8813 104.321 48.9637 104.978 50.2897C105.487 51.3174 105.599 51.8742 105.599 53.3869C105.599 54.4014 105.507 55.2883 105.395 55.358C105.283 55.4276 104.996 55.0499 104.758 54.5183C104.242 53.3678 102.747 52.0132 101.75 51.7929C100.557 51.5296 99.1202 49.8647 98.6587 48.2112C97.9898 45.8132 98.1849 44.7418 99.0215 46.2202ZM59.9487 47.4601C59.3963 49.2586 59.2516 51.3145 59.6598 51.5681C59.8043 51.6579 59.8966 51.2976 59.8966 50.6439C59.8966 50.0545 60.1685 48.8144 60.5007 47.888C61.0534 46.3472 61.095 45.7335 60.6475 45.7335C60.5547 45.7335 60.2402 46.5103 59.9487 47.4601ZM53.1389 48.7327C53.4576 50.8706 52.6508 52.5003 50.7799 53.4981C49.8109 54.0149 49.1822 54.1511 47.3179 54.2485C44.5618 54.3926 38.1112 54.0959 38.1112 53.8251C38.1112 53.7182 40.5888 53.595 43.6168 53.5512C48.7134 53.4776 49.1926 53.4336 50.0695 52.9599C51.9798 51.9277 52.7115 50.4543 52.4552 48.1547C52.3222 46.9607 52.3437 46.8544 52.6418 47.2326C52.8273 47.4677 53.0508 48.1428 53.1389 48.7327ZM90.4435 49.1776C90.4435 49.7622 90.2242 50.8299 89.9564 51.55C89.0992 53.8537 86.9919 54.9732 83.9777 54.726C82.479 54.6029 80.3718 53.8699 80.9204 53.6624C81.0876 53.5991 81.3966 53.6912 81.6074 53.867C81.8622 54.0799 82.6711 54.1868 84.0265 54.1868C86.2155 54.1871 87.1028 53.881 88.3708 52.6879C89.0992 52.0025 89.9699 49.8966 89.9699 48.8204C89.9699 48.4324 90.0765 48.115 90.2067 48.115C90.3369 48.115 90.4435 48.5932 90.4435 49.1776ZM1.4076 50.2381C1.4076 51.0023 2.99036 52.8163 3.92902 53.1278C5.14664 53.5319 6.75994 55.1013 7.18002 56.2904C7.60483 57.4933 7.8601 59.7843 7.56908 59.7843C7.45375 59.7843 7.2906 59.5659 7.2063 59.299C7.00171 58.6507 5.5769 57.7288 4.0962 57.2868C1.64937 56.5559 0.660978 55.0263 0.647481 51.9504C0.642982 50.9156 0.713074 49.949 0.803057 49.8025C1.02659 49.4388 1.4076 49.7134 1.4076 50.2381ZM100.215 54.2395C100.478 54.53 101.205 54.9382 101.829 55.1468C103.152 55.5886 104.45 56.9003 104.889 58.2389C105.256 59.3571 105.091 62.0439 104.597 62.9919L104.235 63.6869L104.072 62.7178C103.845 61.3642 103.049 60.3001 101.433 59.187C100.64 58.6409 99.8276 57.8393 99.5344 57.314C98.937 56.2428 98.6447 54.4183 98.874 53.1899L99.0348 52.3276L99.3855 53.0194C99.5784 53.4 99.9516 53.9492 100.215 54.2395ZM24.3182 53.771C24.3931 53.9982 23.7388 54.0687 21.5551 54.0687C18.9257 54.0687 18.4068 53.9603 18.8591 53.5057C19.1627 53.2002 24.2107 53.4455 24.3182 53.771ZM34.5948 53.771C34.8316 54.0092 34.2183 54.0687 31.5283 54.0687C28.506 54.0687 27.5754 53.896 28.4617 53.4998C29.0568 53.2335 34.2907 53.465 34.5948 53.771ZM74.211 54.0966C74.342 54.219 73.0048 54.3038 71.0143 54.2992C68.1085 54.2928 67.6553 54.2437 68.0093 53.9737C68.3238 53.7336 69.108 53.6839 71.2061 53.7708C72.7351 53.8344 74.0874 53.9808 74.211 54.0966ZM3.16251 59.9632C3.51202 60.2396 4.13906 60.5399 4.5563 60.6304C7.07914 61.178 9.22192 63.6342 9.22192 65.9788V66.6863L8.55534 65.985C7.76396 65.1519 6.90391 64.7873 5.71377 64.7802C2.77132 64.7626 0.879542 61.9174 1.13386 57.892C1.16678 57.3718 1.24326 57.4245 1.84899 58.3852C2.22218 58.9767 2.81323 59.6869 3.16251 59.9632ZM98.9647 60.2382C98.9713 60.8467 100.092 62.0672 101.173 62.6445C103.676 63.9795 104.237 66.5835 102.803 70.2024C102.297 71.4782 102.047 71.4891 102.047 70.2355C102.047 68.9807 101.033 67.0774 100.056 66.4968C99.6114 66.2327 99.0544 65.5258 98.6388 64.6985C98.0232 63.4732 97.9678 63.1746 98.0888 61.7386C98.2512 59.8148 98.4676 59.1208 98.7608 59.5857C98.8709 59.7605 98.9625 60.0541 98.9647 60.2382ZM62.8566 60.8584C76.2712 60.9255 89.4987 61.0443 92.251 61.1222L97.2552 61.2639L97.3781 62.489C97.4456 63.1627 97.4049 63.8155 97.2874 63.94C97.17 64.0643 97.0738 64.3996 97.0738 64.6849C97.0738 65.4318 96.5285 65.7797 95.492 65.694C94.7082 65.629 94.5775 65.5332 94.5138 64.9769C94.443 64.3601 94.4894 64.3315 95.6978 64.247L96.9554 64.1591L95.4681 64.115C94.394 64.0831 93.9427 63.9717 93.8444 63.7138C93.7338 63.4242 93.1795 63.3565 90.9171 63.3565C88.6547 63.3565 88.1004 63.4242 87.9898 63.7138C87.887 63.9836 87.4535 64.071 86.2176 64.071C85.0523 64.071 84.4968 63.9681 84.2868 63.7138C84.0578 63.4363 83.417 63.3565 81.4163 63.3565C78.5889 63.3565 78.0116 63.5987 78.0116 64.7854C78.0116 65.3484 77.9406 65.3808 76.7092 65.3808C75.4779 65.3808 75.4069 65.3484 75.4069 64.7854C75.4069 63.6895 74.8636 63.4425 72.0595 63.2641C69.5601 63.1051 69.4514 63.1184 68.9662 63.6447C68.5137 64.1355 68.2816 64.9752 68.4201 65.619C68.4483 65.7499 68.4554 66.125 68.436 66.4525C68.3666 67.6154 68.871 71.1324 69.4609 73.597C69.9195 75.5136 70.0112 76.3102 69.8532 77.008C69.5002 78.5698 69.082 78.8363 66.9849 78.8363H65.1483L64.6536 77.8084C64.0692 76.5941 64.042 75.9913 64.5004 74.4143C65.011 72.6582 65.5594 69.4205 65.6877 67.4051C65.7502 66.4227 65.8166 65.5654 65.8353 65.4999C65.9702 65.0238 65.6932 64.102 65.2807 63.6542C64.8284 63.1634 64.5757 63.1184 62.276 63.1184C58.9847 63.1184 58.8739 63.2258 58.9118 66.3844C58.9388 68.6492 59.3896 71.8361 60.0498 74.4296C60.4462 75.9868 60.3607 77.1421 59.7837 78.028C59.3809 78.646 58.6307 78.741 56.4848 78.445C55.562 78.3178 55.3122 78.1706 55.0046 77.5722C54.5601 76.7077 54.6364 75.8034 55.496 71.7496C55.9021 69.8333 56.1249 68.0117 56.1443 66.4468C56.185 63.1748 56.1285 63.1184 52.8085 63.1184C49.7783 63.1184 49.4794 63.317 49.4969 65.3191C49.5164 67.5311 49.963 71.5113 50.4382 73.7091C50.8706 75.7084 50.8642 77.4074 50.4245 77.4074C50.3231 77.4074 49.2043 77.193 47.9383 76.9311C46.6724 76.6691 45.595 76.4548 45.5443 76.4548C45.3073 76.4548 45.5012 74.7165 45.9428 72.8825C46.2109 71.7692 46.5031 69.7866 46.5924 68.4768L46.7543 66.0953L47.8199 65.9524L48.8855 65.8095L47.7015 65.7364L46.5175 65.6633L47.7015 65.4999L48.8855 65.3365L47.8791 65.2991C46.981 65.2658 46.8727 65.1993 46.8727 64.6821C46.8727 64.2327 47.0188 64.0803 47.5239 64.0034C48.1533 63.9076 48.1503 63.9031 47.4344 63.8686C47.0271 63.8488 46.5614 63.6721 46.3991 63.4756C46.1676 63.1948 45.5038 63.1184 43.3002 63.1184C40.6461 63.1184 40.4809 63.1467 40.2147 63.6468C39.6542 64.7002 40.0082 70.2362 40.8777 74.0106C41.0961 74.9585 41.2289 75.7741 41.173 75.823C41.0347 75.9437 36.2159 75.3424 36.0591 75.185C35.9907 75.1159 36.097 74.3286 36.2955 73.435C37.1108 69.768 37.4499 64.6959 36.9436 63.7445C36.6845 63.2577 36.412 63.1646 34.8562 63.0324C32.0819 62.7964 31.3575 62.8443 30.8413 63.297C30.3087 63.7638 30.0061 65.1824 30.398 65.3751C30.5742 65.4615 30.5756 65.5378 30.403 65.623C30.1027 65.7716 30.5813 70.9938 31.1113 73.3507C31.3016 74.1978 31.4153 74.9332 31.3637 74.9849C31.3123 75.0368 30.1885 75.0013 28.8667 74.9061L26.4634 74.7332L26.5979 74.1054C27.0459 72.0183 27.4549 68.8373 27.5733 66.5208C27.7558 62.9424 27.6997 62.8802 24.2875 62.8802C22.3921 62.8802 21.7627 62.9619 21.5354 63.2375C21.3265 63.4904 20.7741 63.5947 19.641 63.5947C18.5079 63.5947 17.9555 63.4904 17.7466 63.2375C17.5165 62.9586 16.8669 62.8802 14.7867 62.8802C12.7064 62.8802 12.0569 62.9586 11.8267 63.2375C11.6505 63.4508 11.1329 63.5947 10.5404 63.5947C9.63585 63.5947 9.45304 63.4828 8.45091 62.3156C7.37088 61.0574 7.3614 61.032 7.87312 60.7664C8.252 60.5697 12.4755 60.529 23.4298 60.6162C31.6999 60.6821 49.442 60.7912 62.8566 60.8584ZM11.3105 64.3687C11.1672 65.3818 9.47482 65.1636 9.46227 64.1305C9.46014 63.9405 9.80729 63.8328 10.4225 63.8328C11.2863 63.8328 11.3782 63.8883 11.3105 64.3687ZM20.825 64.4151C20.825 64.9386 20.7113 65.0064 19.7002 65.0867L18.5754 65.176L19.7594 65.2213L20.9434 65.2665L20.995 67.4596C21.0232 68.6658 21.2685 70.8204 21.5401 72.2476C21.8115 73.6746 22.0014 74.8687 21.9621 74.9008C21.9228 74.9332 20.7594 75.0261 19.377 75.1076L16.8636 75.2554L17.1802 73.8904C17.7137 71.5903 18.2593 67.4222 18.2676 65.5806L18.2756 63.8328H19.5503C20.7445 63.8328 20.825 63.8695 20.825 64.4151ZM56.759 63.9905C56.922 64.0567 57.1884 64.0567 57.351 63.9905C57.514 63.9245 57.3806 63.8705 57.055 63.8705C56.7294 63.8705 56.5964 63.9245 56.759 63.9905ZM87.4184 64.442C87.4909 64.5151 87.4949 64.7881 87.4272 65.0488C87.3211 65.4565 87.1352 65.5127 86.0914 65.4518C85.0398 65.3903 84.8688 65.3096 84.803 64.845C84.7327 64.3461 84.8155 64.3091 86.0069 64.3091C86.7104 64.3091 87.3457 64.3689 87.4184 64.442ZM4.60437 66.9845C4.99508 67.1817 5.84495 67.421 6.4933 67.5158C8.79569 67.8533 10.0824 68.909 11.0995 71.295C11.3692 71.928 11.5899 72.4872 11.5899 72.5379C11.5899 72.5887 11.202 72.3653 10.728 72.0419C10.2541 71.7182 9.58801 71.442 9.24797 71.4277C8.90817 71.4134 7.98158 71.3867 7.18901 71.3681C5.5409 71.3298 4.29843 70.6337 3.34366 69.2143C2.70383 68.2629 2.11799 66.4503 2.11799 65.4225V64.7061L3.00598 65.6659C3.4945 66.1939 4.21365 66.7871 4.60437 66.9845ZM11.0571 65.4258C10.8291 65.4858 10.4563 65.4858 10.2283 65.4258C10.0003 65.366 10.1869 65.317 10.6427 65.317C11.0985 65.317 11.2851 65.366 11.0571 65.4258ZM56.9302 65.4894C57.0072 65.6147 57.2267 65.6568 57.4178 65.583C57.9073 65.3941 57.8497 65.2617 57.2779 65.2617C57.0098 65.2617 56.8533 65.3641 56.9302 65.4894ZM11.2226 66.0357C11.2728 66.1996 11.3725 67.2443 11.444 68.3577C11.5501 70.0083 11.521 70.295 11.2861 69.9114C11.1277 69.6525 10.6531 69.0807 10.2316 68.6406C9.54231 67.9207 9.50205 67.804 9.82978 67.4744C10.0758 67.2267 10.1454 66.8859 10.0443 66.423C9.90935 65.805 9.95505 65.738 10.5129 65.738C10.853 65.738 11.1724 65.8721 11.2226 66.0357ZM78.1037 67.4646C78.1615 69.6592 78.4904 71.8104 79.112 74.0609C79.6652 76.064 79.606 77.6408 78.9501 78.3697C78.5965 78.7624 78.2157 78.8363 76.5409 78.8363H74.5515L74.0682 77.7377C73.5364 76.5284 73.5452 76.4112 74.4114 73.119C74.7391 71.8735 75.0848 69.8552 75.1798 68.6337C75.3095 66.9667 75.4436 66.3777 75.7175 66.272C76.0213 66.1548 76.006 66.1007 75.6264 65.9512C75.3387 65.8381 75.7038 65.7654 76.614 65.7547L78.0583 65.738L78.1037 67.4646ZM87.4679 67.3456C87.7594 70.6787 88.1118 72.9568 88.5569 74.3845C89.1496 76.2862 89.1397 77.0142 88.5056 78.149L87.9884 79.0744H86.1788C84.5747 79.0744 84.3088 79.0096 83.835 78.5024C83.0471 77.6589 82.956 76.3116 83.5534 74.3338C84.0791 72.5934 84.7028 68.8449 84.7956 66.8692L84.8489 65.738H86.0881H87.3275L87.4679 67.3456ZM96.1266 66.2112C96.1266 66.3117 95.9573 67.1481 95.7504 68.0698C95.305 70.0538 95.5597 71.8506 96.4804 73.215C96.972 73.9435 97.008 74.139 96.7686 74.777C96.618 75.1783 96.3852 75.4703 96.2514 75.426C95.7589 75.2628 95.3983 74.1812 95.5152 73.2181C95.6251 72.3145 95.376 71.6918 94.9045 71.6918C94.8053 71.6918 94.4939 71.9328 94.2126 72.2276L93.7009 72.7635L93.8458 71.9299C94.0016 71.034 94.4582 66.8114 94.465 66.2027C94.4681 65.9216 94.6668 65.8569 95.2979 65.9309C95.7537 65.9845 96.1266 66.1105 96.1266 66.2112ZM85.6512 66.1446C85.9458 66.2015 86.372 66.1993 86.5984 66.1398C86.8248 66.0803 86.5837 66.0336 86.0627 66.0362C85.5418 66.0388 85.3566 66.0876 85.6512 66.1446ZM99.07 69.6423C100.779 71.3274 101.227 72.3619 101.017 74.14C100.881 75.3 99.9687 77.41 99.2997 78.1132C99.0137 78.414 98.9682 78.2733 98.9682 77.0894C98.9682 75.5639 98.6076 74.6868 97.3909 73.2524C96.031 71.6494 95.7731 69.2207 96.7302 67.0329L97.1406 66.0953L97.3639 67.1376C97.5396 67.9581 97.9033 68.4918 99.07 69.6423ZM10.5871 73.0159C11.1315 73.5477 11.6129 73.8223 11.8776 73.7527C12.1229 73.6882 12.3003 73.7713 12.3003 73.9506C12.3003 74.4384 9.64982 73.5358 9.43007 72.9733C8.99981 71.8713 9.43149 71.8873 10.5871 73.0159ZM7.31215 74.3109C7.77651 74.4407 8.71991 74.5474 9.40899 74.5481C10.6766 74.5496 12.6761 75.3217 12.4336 75.7163C12.3673 75.8239 11.8049 75.982 11.1838 76.0675C10.5627 76.1533 9.37845 76.3938 8.55226 76.6022L7.05025 76.9811L6.35833 76.3145C5.58992 75.5741 4.48597 73.512 4.48597 72.8173C4.48597 72.4431 4.64936 72.5098 5.47697 73.2221C6.02184 73.6913 6.84779 74.1814 7.31215 74.3109ZM95.5238 75.7198C95.8496 76.1895 96.4035 76.9282 96.7544 77.3614C97.7219 78.556 97.7802 80.2335 96.9135 81.9322C96.0118 83.699 95.3057 83.8472 95.0776 82.3173C94.9898 81.7291 94.6386 80.8393 94.2967 80.3397C92.8427 78.2147 92.7059 76.5696 93.7956 74.3114L94.5427 72.7635L94.7369 73.8146C94.8439 74.3929 95.1979 75.2502 95.5238 75.7198ZM22.601 77.4074C22.6912 77.5543 22.283 77.6455 21.5354 77.6455C20.7878 77.6455 20.3796 77.5543 20.4698 77.4074C20.5503 77.2764 21.0298 77.1692 21.5354 77.1692C22.041 77.1692 22.5205 77.2764 22.601 77.4074ZM26.0346 77.4074C26.0346 77.5384 25.555 77.6455 24.969 77.6455C24.3829 77.6455 23.9034 77.5384 23.9034 77.4074C23.9034 77.2764 24.3829 77.1692 24.969 77.1692C25.555 77.1692 26.0346 77.2764 26.0346 77.4074ZM28.8169 77.3193C29.7172 77.5619 29.4082 77.7727 28.2841 77.6829C27.6981 77.636 27.2185 77.5012 27.2185 77.3833C27.2185 77.1392 28.0284 77.1068 28.8169 77.3193ZM19.049 77.6455C18.9685 77.7765 18.4764 77.8837 17.9555 77.8837C17.3843 77.8837 17.0663 77.7891 17.1546 77.6455C17.2352 77.5145 17.7272 77.4074 18.2482 77.4074C18.8193 77.4074 19.1373 77.5019 19.049 77.6455ZM32.6649 77.6455C32.9192 77.8108 32.6668 77.8775 31.7769 77.8801C31.0933 77.882 30.5337 77.7765 30.5337 77.6455C30.5337 77.3409 32.1963 77.3409 32.6649 77.6455ZM15.7339 77.8837C15.6533 78.0146 15.1409 78.1142 14.5951 78.1051C13.8236 78.092 13.7081 78.0428 14.0763 77.8837C14.7459 77.5943 15.9117 77.5943 15.7339 77.8837ZM36.1574 77.9827C36.4056 78.2323 36.1157 78.2852 35.0921 78.1776C34.5384 78.1194 34.0857 77.9618 34.0857 77.8272C34.0857 77.5784 35.8898 77.7136 36.1574 77.9827ZM39.7492 78.2745C39.8034 78.3214 39.7816 78.4264 39.7009 78.5076C39.4837 78.726 37.4008 78.3676 37.4008 78.1118C37.4008 77.9153 39.5029 78.0611 39.7492 78.2745ZM12.3003 78.3454C11.8243 78.6257 10.1691 78.9291 10.1691 78.736C10.1691 78.4886 11.1767 78.1525 11.9451 78.1442C12.4627 78.1385 12.5591 78.193 12.3003 78.3454ZM42.5609 78.5126C43.267 78.7029 43.093 79.2135 42.3516 79.1266C41.2438 78.9965 40.716 78.8246 40.716 78.5936C40.716 78.3328 41.7288 78.2885 42.5609 78.5126ZM9.09168 79.0523C8.75164 79.379 7.09074 79.7824 7.09074 79.5383C7.09074 79.4216 7.43694 79.2256 7.86034 79.1028C8.89633 78.8017 9.37276 78.7824 9.09168 79.0523ZM46.2689 79.343C46.4006 79.4645 46.1387 79.5507 45.6371 79.5507C44.6504 79.5507 44.0312 79.3561 44.0312 79.0461C44.0312 78.7898 45.9447 79.0437 46.2689 79.343ZM91.2088 80.0118C91.1179 80.9644 91.2112 81.3935 91.7004 82.2742L92.3045 83.3611H90.7821H89.2595V82.6348C89.2595 82.2354 89.4352 81.5657 89.6498 81.1463C90.0076 80.4478 91.1347 78.8363 91.2657 78.8363C91.2962 78.8363 91.2706 79.3652 91.2088 80.0118ZM49.0631 79.66C49.4212 79.7358 49.7143 79.9051 49.7143 80.0361C49.7143 80.167 49.4479 80.2187 49.1223 80.1506C48.7967 80.0827 48.2597 79.9703 47.9286 79.901C47.5978 79.8317 47.3847 79.681 47.4553 79.5662C47.5258 79.4512 47.77 79.3942 47.9978 79.4397C48.2256 79.485 48.7051 79.5841 49.0631 79.66ZM68.3029 79.5507C68.1163 79.8546 66.5208 79.8546 66.0533 79.5507C65.8014 79.3871 66.0983 79.3188 67.0737 79.3161C67.9314 79.314 68.3941 79.4024 68.3029 79.5507ZM77.8932 79.5507C77.8932 79.6817 77.3072 79.7889 76.5908 79.7889C75.8745 79.7889 75.2885 79.6817 75.2885 79.5507C75.2885 79.4197 75.8745 79.3126 76.5908 79.3126C77.3072 79.3126 77.8932 79.4197 77.8932 79.5507ZM87.3651 79.5507C87.3651 79.6817 86.7854 79.7889 86.0767 79.7889C85.368 79.7889 84.7225 79.6817 84.642 79.5507C84.5506 79.4019 85.0341 79.3126 85.9304 79.3126C86.7291 79.3126 87.3651 79.4181 87.3651 79.5507ZM5.90676 79.9048C5.90676 79.9684 5.50728 80.204 5.01876 80.4281C4.53049 80.6522 4.03748 80.8813 3.92358 80.9372C3.80968 80.9934 3.76279 80.8991 3.81939 80.7281C3.94702 80.3435 5.90676 79.5705 5.90676 79.9048ZM53.0697 80.4092C53.2007 80.4907 53.2168 80.6483 53.106 80.7598C52.8917 80.9753 51.0619 80.5183 50.7363 80.168C50.5263 79.9418 52.675 80.164 53.0697 80.4092ZM68.1845 80.5078C68.1845 80.6519 67.92 80.6867 67.5333 80.5933C66.6037 80.3692 66.5724 80.2652 67.4346 80.2652C67.8471 80.2652 68.1845 80.3745 68.1845 80.5078ZM77.8932 80.7415C77.8932 81.1601 77.7353 81.2178 76.5908 81.2178C75.6633 81.2178 75.2885 81.1263 75.2885 80.9003C75.2885 80.3778 75.5473 80.2652 76.7488 80.2652C77.7353 80.2652 77.8932 80.3309 77.8932 80.7415ZM87.3651 80.8586C87.3651 81.3899 87.2849 81.4414 86.5955 81.3509C86.1721 81.2954 85.5863 81.2428 85.2932 81.2337C84.9235 81.2228 84.7604 81.0718 84.7604 80.7415C84.7604 80.3228 84.9183 80.2652 86.0627 80.2652C87.2929 80.2652 87.3651 80.298 87.3651 80.8586ZM56.5109 81.319C56.7013 81.5243 54.2445 81.3283 54.0392 81.122C53.9788 81.0611 53.9899 80.9127 54.0638 80.7922C54.2116 80.5521 56.1952 80.9791 56.5109 81.319ZM2.82697 81.3964C2.82602 81.4947 2.47982 81.7867 2.05737 82.0456C0.996757 82.6952 0.934006 82.7179 0.934006 82.4519C0.934006 82.3228 1.2802 81.9941 1.7036 81.7215C2.52055 81.1951 2.82933 81.1058 2.82697 81.3964ZM59.7782 81.9753C59.9461 82.1577 59.7399 82.1897 59.0678 82.0849C58.5469 82.0039 57.9875 81.9363 57.8246 81.9348C57.662 81.9334 57.5286 81.8112 57.5286 81.6636C57.5286 81.3311 59.4268 81.5943 59.7782 81.9753ZM78.229 81.8386C78.435 81.9182 78.6036 82.0627 78.6036 82.1599C78.6036 82.3368 75.9917 82.0044 75.7902 81.8019C75.629 81.6395 77.798 81.6724 78.229 81.8386ZM88.1096 82.2259C88.4707 82.8136 87.9711 82.947 85.9846 82.7934C84.8719 82.7074 83.9017 82.5769 83.8286 82.5033C83.7554 82.4297 83.8856 82.2299 84.1177 82.0591C84.6391 81.6757 87.8541 81.8098 88.1096 82.2259ZM62.6932 82.443C63.3089 82.6712 63.2002 83.1232 62.5603 82.9958C61.0886 82.7031 60.8438 82.6012 60.8438 82.2804C60.8438 81.9144 61.3998 81.9634 62.6932 82.443ZM31.569 83.1196C31.9363 83.1225 31.9618 83.1844 31.7177 83.4802C31.3627 83.9103 30.7336 83.9431 30.3443 83.5516C29.8927 83.0975 30.0135 82.8167 30.5929 82.9729C30.8861 83.0518 31.3253 83.118 31.569 83.1196ZM66.5073 83.2644C66.5615 83.3175 66.5447 83.4228 66.4696 83.498C66.2504 83.7186 64.159 83.3302 64.159 83.0689C64.159 82.8481 66.2613 83.0232 66.5073 83.2644ZM69.7119 83.8679C69.8442 83.9901 69.6496 84.0741 69.2383 84.0722C68.3041 84.0679 67.4741 83.831 67.4741 83.5688C67.4741 83.3142 69.3896 83.5702 69.7119 83.8679ZM110.098 83.4923C110.098 83.6562 108.556 84.3137 108.171 84.3137C107.734 84.3137 108.154 83.9874 108.99 83.6769C109.869 83.3504 110.098 83.3123 110.098 83.4923ZM17.0362 83.7898C17.0362 83.8946 16.9377 84.0822 16.8174 84.2065C16.534 84.4995 17.5946 88.513 18.1054 89.0807C18.4599 89.4744 18.4201 89.5073 17.4637 89.6087C16.2588 89.7366 15.969 89.6283 16.3339 89.186C16.7556 88.6747 16.382 87.886 15.718 87.886C15.2356 87.886 15.1419 88.0024 15.1419 88.6004C15.1419 88.9933 15.2484 89.3148 15.3787 89.3148C15.5089 89.3148 15.6155 89.4261 15.6155 89.562C15.6155 89.698 15.3756 89.7885 15.0827 89.763C13.6706 89.6411 13.4381 89.7523 13.596 90.4753C13.7073 90.9852 13.6465 91.1979 13.3566 91.3096C12.816 91.5185 12.5371 91.2891 12.5371 90.6361C12.5371 90.0603 11.9479 89.6395 11.7019 90.0398C11.6249 90.165 11.1599 90.2674 10.6683 90.2674C9.60743 90.2674 9.3981 90.4232 9.69883 90.9881C9.8582 91.2877 9.81913 91.4944 9.5622 91.709C9.11442 92.0824 8.85631 91.8211 8.66711 90.8033C8.56007 90.2265 8.60885 90.0293 8.85868 90.0293C9.41373 90.0293 9.44664 89.7297 9.12839 87.5666C8.91195 86.0929 8.69978 85.4021 8.39503 85.178C8.09713 84.9589 8.04954 84.811 8.23898 84.6933C8.38887 84.6 8.62282 84.5928 8.75875 84.6774C8.89467 84.7619 9.13431 84.7293 9.29154 84.6047C9.66237 84.3111 12.3003 84.0122 12.3003 84.2639C12.3003 84.3699 12.1862 84.5714 12.0467 84.7117C11.7715 84.9884 12.2077 88.7316 12.5714 89.2148C12.6777 89.356 13.0839 89.4246 13.4739 89.3672C14.076 89.2784 14.2058 89.1317 14.3339 88.3956C14.417 87.9188 14.6214 86.8512 14.7881 86.0231C15.0438 84.7526 15.0398 84.4976 14.7613 84.3902C14.1291 84.1461 14.4386 83.8641 15.4379 83.7736C15.9915 83.7236 16.5776 83.6638 16.7402 83.6409C16.9032 83.6181 17.0362 83.685 17.0362 83.7898ZM22.1724 83.875C22.5385 84.1806 22.588 85.7795 22.2422 86.1272C22.0793 86.2911 22.1229 86.6138 22.377 87.1258C22.7476 87.8726 22.6815 88.6345 22.193 89.2491C22.0481 89.4313 21.3488 89.5347 20.3275 89.5251C18.7807 89.5106 18.2626 89.2941 19.049 88.9905C19.3282 88.8829 19.4042 88.3968 19.4042 86.7197C19.4042 85.1406 19.3119 84.493 19.049 84.2287C18.8537 84.0322 18.6938 83.8195 18.6938 83.756C18.6938 83.5181 21.8752 83.6269 22.1724 83.875ZM26.9143 83.9284C27.009 84.0236 26.9507 84.1858 26.785 84.2889C26.5425 84.4397 26.5572 84.9389 26.86 86.836C27.067 88.1339 27.3391 89.2315 27.4643 89.2751C28.0615 89.4832 27.5808 89.7464 26.6296 89.7319L25.5674 89.7159L25.7127 88.8009C25.8491 87.9438 25.8207 87.886 25.2635 87.886C24.8463 87.886 24.6273 88.0458 24.529 88.4218C24.452 88.7166 24.493 88.9934 24.6199 89.0369C24.7466 89.0807 24.8506 89.2615 24.8506 89.4387C24.8506 89.6771 24.619 89.7252 23.9626 89.6235C22.8589 89.452 22.7786 89.3837 23.2472 89.0148C23.7899 88.5871 24.9552 84.5619 24.6306 84.2354C24.4911 84.0951 24.377 83.9027 24.377 83.8076C24.377 83.5876 26.6846 83.6974 26.9143 83.9284ZM30.2986 84.0756C30.6779 84.0756 30.6867 84.1546 30.3978 84.9686C30.2235 85.4599 30.0783 86.1832 30.075 86.5761C30.0693 87.268 30.0926 87.2532 30.8058 86.1101C31.2581 85.3859 31.4392 84.895 31.2749 84.84C31.1278 84.7907 31.0073 84.6004 31.0073 84.4175C31.0073 84.1584 31.2567 84.1175 32.1321 84.2327C33.5252 84.4161 33.5545 84.4421 32.9585 84.9627C32.2872 85.5492 31.9514 89.4094 32.5515 89.6411C33.2933 89.9274 32.64 90.2691 31.6443 90.1158C30.4596 89.9333 30.3959 89.8914 30.7068 89.4992C30.9588 89.1817 31.3561 86.9334 31.1605 86.9334C31.0985 86.9334 30.7715 87.4304 30.4338 88.0381C29.9872 88.8419 29.888 89.2253 30.0698 89.4458C30.416 89.8652 30.1117 89.9731 28.9353 89.8481C28.0184 89.7507 27.471 89.3148 28.2652 89.3148C28.5084 89.3148 28.6422 88.8686 28.7473 87.7073C28.8273 86.8233 28.9391 85.8093 28.9952 85.4542C29.0544 85.0798 28.9514 84.6614 28.7499 84.459C28.2157 83.9217 28.3322 83.7638 29.1425 83.9267C29.5496 84.0086 30.0698 84.0756 30.2986 84.0756ZM20.5882 85.0084C20.5882 85.7307 20.6832 85.9808 20.9576 85.9808C21.2387 85.9808 21.3095 85.7714 21.2536 85.106C21.1482 83.8498 20.5882 83.7674 20.5882 85.0084ZM72.6245 84.2256C72.9176 84.3047 73.1573 84.464 73.1573 84.5797C73.1573 84.8905 72.194 84.8155 71.3813 84.4414L70.6709 84.1141L71.3813 84.0982C71.772 84.0894 72.3313 84.1468 72.6245 84.2256ZM36.5559 84.7814C37.5889 84.921 38.4555 85.0605 38.4813 85.0913C38.6563 85.2982 38.2263 86.7571 37.9602 86.8598C37.4056 87.0739 36.9156 86.4713 37.0786 85.775C37.1766 85.3556 37.1463 85.2263 36.9879 85.3854C36.5934 85.781 36.1768 89.8128 36.4908 90.1934C36.8872 90.674 36.6526 90.7621 35.4267 90.593C34.3023 90.4382 34.0563 90.2043 34.6575 89.8626C34.8609 89.7471 35.0937 88.9393 35.2495 87.8093C35.5676 85.504 35.5683 85.2663 35.2592 85.2663C35.1233 85.2663 35.0293 85.4004 35.0506 85.564C35.1427 86.2784 35.008 86.4866 34.5001 86.4142C34.0506 86.3499 33.9602 86.1779 33.922 85.3142C33.8839 84.4535 33.9405 84.3094 34.2772 84.409C34.4975 84.474 35.5228 84.6416 36.5559 84.7814ZM76.4528 84.9362C76.507 84.9867 76.4945 85.0853 76.4251 85.1551C76.2188 85.3625 74.3413 84.9872 74.3413 84.7386C74.3413 84.5304 76.2041 84.7048 76.4528 84.9362ZM106.889 84.7655C106.562 85.0765 104.47 85.3799 104.77 85.0729C105.001 84.8364 105.72 84.6497 106.652 84.5842C106.933 84.5645 107.026 84.6355 106.889 84.7655ZM9.70025 85.4449C9.70783 86.1215 10.3453 89.5713 10.4897 89.7166C10.5627 89.79 10.7708 89.7926 10.9522 89.7226C11.2328 89.6144 11.2352 89.2803 10.9676 87.4904C10.7945 86.3325 10.6505 85.3051 10.6479 85.2068C10.6363 84.8079 9.69575 85.0443 9.70025 85.4449ZM42.0475 85.5411C42.1939 85.6564 42.4865 85.684 42.6978 85.6026C43.0212 85.4778 43.0586 85.5809 42.9346 86.2534C42.7267 87.378 42.2789 87.8248 41.7783 87.4068C41.5268 87.197 41.4449 86.8917 41.5389 86.5149C41.654 86.0541 41.599 85.9581 41.258 86.0229C40.958 86.0803 40.8129 86.3639 40.761 86.9948C40.6978 87.7597 40.7565 87.886 41.1754 87.886C41.451 87.886 41.6632 88.0412 41.6632 88.2432C41.6632 88.4608 41.4427 88.6004 41.0989 88.6004C40.7136 88.6004 40.4892 88.7707 40.3916 89.1362C40.1399 90.0815 40.2247 90.7438 40.5976 90.7438C40.8143 90.7438 40.9528 90.5216 40.9528 90.1739C40.9528 89.5092 41.6175 89.1596 42.0362 89.6037C42.1988 89.7764 42.2741 90.2355 42.2083 90.6547C42.093 91.3903 42.0776 91.3979 40.8711 91.3158C38.4262 91.1491 37.9751 90.9736 38.6274 90.4437C39.1309 90.0345 39.7196 86.0741 39.3345 85.6869C39.1827 85.5342 39.0584 85.3225 39.0584 85.2165C39.0584 84.9731 41.6897 85.2587 42.0475 85.5411ZM79.6692 85.2663C79.7575 85.4099 79.4395 85.5045 78.8684 85.5045C78.3474 85.5045 77.8553 85.3973 77.7748 85.2663C77.6865 85.1227 78.0045 85.0282 78.5757 85.0282C79.0966 85.0282 79.5887 85.1353 79.6692 85.2663ZM82.5996 85.4152C83.5134 85.599 83.5738 85.9819 82.6884 85.9774C81.7999 85.9731 80.9716 85.7314 80.9716 85.4766C80.9716 85.2296 81.5657 85.2072 82.5996 85.4152ZM103.467 85.4887C103.141 85.6797 102.02 85.8331 101.455 85.7643C100.834 85.6885 102.043 85.2739 102.875 85.2773C103.53 85.2796 103.713 85.3451 103.467 85.4887ZM25.2375 86.1765C25.1302 86.6114 25.1058 87.0312 25.1833 87.1091C25.4508 87.3782 25.5941 86.9765 25.5136 86.1822L25.4328 85.3854L25.2375 86.1765ZM85.9638 85.7426C86.3438 85.7426 86.6547 85.8498 86.6547 85.9808C86.6547 86.2437 85.6491 86.2923 84.8222 86.0696C84.5307 85.991 84.355 85.8243 84.4317 85.6993C84.5086 85.5742 84.7293 85.5328 84.9221 85.6073C85.1148 85.6816 85.5837 85.7426 85.9638 85.7426ZM15.5402 86.2318C15.3171 87.0705 15.3379 87.1715 15.7339 87.1715C16.1172 87.1715 16.1606 86.8457 15.8755 86.1127C15.7083 85.6833 15.6837 85.6921 15.5402 86.2318ZM89.9699 86.252C89.9699 86.3737 89.6768 86.4249 89.3187 86.3656C88.9607 86.3065 88.4748 86.2492 88.2392 86.2384C88.0035 86.2277 87.8624 86.1348 87.9254 86.0322C88.0836 85.7752 89.9699 85.9779 89.9699 86.252ZM99.9154 85.9808C99.4473 86.2851 98.021 86.2851 98.021 85.9808C98.021 85.8498 98.5271 85.7443 99.1458 85.7462C99.9592 85.7488 100.172 85.8138 99.9154 85.9808ZM47.5831 86.5023C48.1692 86.6228 48.9952 86.7809 49.4183 86.8536C50.2736 87.0003 50.3984 87.2675 49.7752 87.6183C49.2334 87.9233 48.4652 91.6051 48.8088 92.2508C48.9371 92.4922 48.9985 92.734 48.9447 92.7878C48.823 92.9102 46.1294 92.4189 45.8072 92.2155C45.6769 92.1334 45.4638 92.0529 45.3336 92.0367C45.2033 92.0202 44.9637 91.9907 44.8008 91.9707C44.3887 91.9202 44.4278 91.4582 44.8441 91.4582C45.2488 91.4582 45.334 91.1922 45.7098 88.7559C45.9421 87.2487 45.9393 86.851 45.6947 86.6988C45.2661 86.4325 45.6521 85.9122 46.1271 86.1156C46.3418 86.2075 46.9971 86.3816 47.5831 86.5023ZM93.5219 86.2189C93.5219 86.3499 92.9891 86.4571 92.3379 86.4571C91.6867 86.4571 91.1539 86.3499 91.1539 86.2189C91.1539 86.0879 91.6867 85.9808 92.3379 85.9808C92.9891 85.9808 93.5219 86.0879 93.5219 86.2189ZM96.6002 86.2189C96.1321 86.5233 94.7059 86.5233 94.7059 86.2189C94.7059 86.0879 95.2119 85.9824 95.8307 85.9843C96.644 85.987 96.8572 86.052 96.6002 86.2189ZM20.5882 87.8662C20.5882 88.8024 20.6716 89.0767 20.9564 89.0767C21.2472 89.0767 21.3095 88.8428 21.2524 87.9641C21.1494 86.3751 20.5882 86.2925 20.5882 87.8662ZM47.2343 87.7073C46.5346 90.8069 46.4453 92.0359 46.9319 91.8783C47.268 91.7692 48.0162 89.115 48.0406 87.9455C48.0596 87.0367 47.428 86.8502 47.2343 87.7073ZM53.608 87.9391C54.0479 88.5704 54.0915 90.4225 53.6975 91.7445C53.2012 93.4108 51.648 94.1174 50.6615 93.1252C50.1143 92.5749 50.0165 90.8545 50.4569 89.5289C51.0792 87.6566 52.805 86.7857 53.608 87.9391ZM52.2312 88.3125C52.0304 88.6392 51.3719 91.7002 51.3719 92.3065C51.3719 92.9795 51.9895 93.1069 52.1656 92.4703C52.6838 90.599 53.0411 88.7361 52.9352 88.4587C52.7958 88.0931 52.4148 88.0138 52.2312 88.3125ZM55.9662 88.2994C56.0621 88.3956 56.4576 88.4904 56.845 88.5101C58.2921 88.5833 58.9198 89.9014 58.0325 91.0036C57.7034 91.4122 57.6368 91.7216 57.7742 92.2034C57.9009 92.6478 57.8355 93.1019 57.5663 93.6437C57.2123 94.357 57.0799 94.4308 56.2262 94.3927C54.3889 94.3108 54.0896 94.1936 54.1604 93.5842C54.1967 93.2753 54.3913 92.7685 54.5935 92.4584C54.9426 91.9226 54.9833 91.9147 55.4083 92.3017C55.7444 92.6075 55.7986 92.8164 55.626 93.1407C55.4713 93.4313 55.4806 93.6251 55.6541 93.733C56.0337 93.969 56.3439 93.5525 56.4974 92.6011C56.6203 91.84 56.5734 91.7459 55.9984 91.6009C55.1753 91.3932 55.3539 90.8628 56.2471 90.8628C56.8519 90.8628 56.9456 90.7678 57.0108 90.0888C57.0991 89.1693 56.7666 89.0741 56.3877 89.9102C55.877 91.0379 55.0962 90.3751 55.3177 89.0022C55.4574 88.1365 55.6245 87.9555 55.9662 88.2994ZM59.997 89.2553C60.0955 89.3537 60.3532 89.4411 60.5691 89.4499C61.589 89.4913 63.473 89.8764 63.5904 90.0674C63.6624 90.1848 63.5156 90.4654 63.2636 90.6909C62.9991 90.9278 62.6418 91.819 62.4168 92.8021C61.9499 94.8437 61.9371 95.1955 62.3238 95.3381C62.5464 95.4201 62.5528 95.5191 62.3491 95.7373C62.1654 95.9342 61.9378 95.9552 61.6387 95.8025C61.397 95.6787 60.5064 95.4382 59.6598 95.2676C57.85 94.903 57.8047 94.8773 58.2916 94.4922C58.7427 94.1352 59.755 89.9462 59.418 89.8309C59.069 89.7114 59.1396 89.0767 59.5019 89.0767C59.6757 89.0767 59.8983 89.157 59.997 89.2553ZM60.8556 90.4832C60.5033 91.1455 60.5476 91.9345 60.9369 91.9345C61.2963 91.9345 61.5542 91.4349 61.5542 90.7383C61.5542 90.0922 61.1436 89.9421 60.8556 90.4832ZM67.4741 90.9121C67.7744 90.9998 67.7652 91.0636 67.4149 91.3229C67.0704 91.578 67.0005 92.014 67.0005 93.9114C67.0005 95.1757 67.1061 96.2588 67.2373 96.3403C67.7022 96.6291 67.4793 96.9928 66.9413 96.8235C66.6482 96.7311 66.1741 96.6634 65.8876 96.673C65.2492 96.6942 64.9373 96.2714 65.4464 96.075C65.9451 95.8823 65.9179 94.8823 65.4083 94.6858C64.7891 94.4467 64.0851 95.5237 64.6363 95.8663C65.1083 96.1598 64.6013 96.4412 63.8537 96.301C62.7363 96.0912 62.6529 95.8992 63.3456 95.129C64.1395 94.2462 65.346 91.4022 65.1867 90.7892C65.0732 90.353 65.132 90.3384 66.0922 90.5656C66.6569 90.6992 67.2788 90.8552 67.4741 90.9121ZM70.1973 91.3439C70.987 91.4332 71.0261 91.4499 71.0261 91.6964C71.0261 91.8273 70.8663 91.9345 70.6709 91.9345C70.4755 91.9345 70.3157 92.14 70.3157 92.3913C70.3157 92.6425 70.2461 93.0445 70.1608 93.2843C70.0481 93.6015 70.2023 93.5368 70.7258 93.0471C71.2338 92.572 71.4078 92.2279 71.3169 91.8783C71.2061 91.4518 71.2674 91.4044 71.7583 91.5363C72.0718 91.6209 72.4618 91.6913 72.6245 91.693C72.7874 91.6949 72.9205 91.8571 72.9205 92.0536C72.9205 92.25 72.7943 92.4108 72.6396 92.4108C72.1187 92.4108 71.2629 93.4415 71.2629 94.0693C71.2629 94.412 71.4253 95.3193 71.6238 96.0859C71.8224 96.8525 71.9416 97.5232 71.8885 97.5765C71.5958 97.8711 70.5359 97.2988 70.432 96.7901C70.368 96.4772 70.2482 95.9264 70.1656 95.5663L70.0154 94.9114L69.79 95.738C69.6344 96.3088 69.6441 96.5915 69.8217 96.651C69.9631 96.6984 70.0789 96.9016 70.0789 97.1023C70.0789 97.3703 69.9371 97.4243 69.5461 97.3053C69.253 97.2159 68.7557 97.1231 68.4407 97.0988C67.8281 97.0516 67.437 96.4593 68.0185 96.4593C68.4684 96.4593 69.3484 91.8881 68.9257 91.7464C68.7784 91.6971 68.6581 91.4977 68.6581 91.3032C68.6581 91.045 68.8016 90.9957 69.1909 91.12C69.4841 91.2139 69.9368 91.3144 70.1973 91.3439ZM101.81 91.8869C101.81 91.9917 101.692 92.1962 101.547 92.3413C101.197 92.6937 102.346 96.6313 102.929 97.0761C103.274 97.3393 103.285 97.4046 102.994 97.4408C102.331 97.5224 102.166 97.5589 101.614 97.7456C100.957 97.9678 100.695 97.7825 101.053 97.3488C101.429 96.894 100.933 95.0183 100.483 95.1919C100.094 95.3419 100.051 96.3977 100.396 97.3105C100.681 98.0657 100.706 98.028 99.7892 98.2252L99.0712 98.3795L99.0864 96.7134C99.0984 95.3972 99.0132 94.9711 98.6798 94.6839C98.0215 94.1171 98.1392 93.0045 98.9164 92.448C99.7089 91.8804 101.81 91.473 101.81 91.8869ZM75.7452 92.1636C76.7431 92.7006 76.9811 95.2314 76.1871 96.8597C75.7462 97.7635 74.8073 98.3881 74.1542 98.2121C72.6162 97.7975 72.5101 93.9926 73.9948 92.4994C74.5991 91.8916 75.0715 91.8009 75.7452 92.1636ZM60.3046 92.8149C60.0624 93.24 59.8952 94.7632 60.0782 94.8771C60.4801 95.1269 60.8495 94.6146 60.9049 93.7313C60.9572 92.9009 60.5819 92.3284 60.3046 92.8149ZM65.4538 93.1493C65.3669 93.4244 65.413 93.7673 65.5563 93.9114C65.7455 94.1017 65.8166 93.965 65.8166 93.411C65.8166 92.5313 65.6799 92.4327 65.4538 93.1493ZM74.7261 92.839C74.5172 93.1786 74.0275 97.1757 74.1762 97.3255C74.2558 97.4053 74.4732 97.4119 74.6593 97.3403C75.0306 97.1969 75.687 93.3432 75.4154 92.9009C75.2321 92.6028 74.8902 92.572 74.7261 92.839ZM79.5229 93.0657C79.4338 93.7094 79.8106 95.983 80.0062 95.983C80.1018 95.983 80.4381 95.4293 80.7533 94.7525C81.1717 93.8545 81.2465 93.4953 81.0306 93.4229C80.8679 93.3684 80.7348 93.2243 80.7348 93.1026C80.7348 92.9231 81.8477 92.9257 83.2212 93.1088C83.3514 93.1262 83.2588 93.2922 83.0154 93.4775C82.6761 93.7359 82.5179 94.3303 82.3384 96.0214C82.1691 97.6151 82.1769 98.2526 82.3666 98.3162C82.511 98.3645 82.6292 98.5541 82.6292 98.737C82.6292 98.9961 82.3798 99.0371 81.5044 98.9218C80.1572 98.7444 80.0663 98.6853 80.5513 98.3026C80.8383 98.0761 81.2967 96.2212 81.0658 96.2212C81.0398 96.2212 80.7959 96.6006 80.5238 97.0642C80.0954 97.7944 79.9652 97.8732 79.5532 97.6513C79.2913 97.5105 79.0772 97.1909 79.0772 96.9414C79.0772 96.6918 78.9707 96.4212 78.8404 96.3403C78.6974 96.2514 78.6036 96.576 78.6036 97.1597C78.6036 97.6913 78.7102 98.1264 78.8404 98.1264C78.9707 98.1264 79.0772 98.2319 79.0772 98.3607C79.0772 98.6232 77.3048 98.5665 77.0351 98.2952C76.9401 98.1997 77.0386 97.9885 77.2546 97.8263C77.5276 97.6206 77.7144 96.9166 77.8698 95.5067C78.0595 93.784 78.0372 93.4203 77.7194 93.0657C77.3692 92.6747 77.4151 92.6489 78.4634 92.6489C79.3914 92.6489 79.5707 92.7194 79.5229 93.0657ZM97.6417 93.4203C97.8143 94.2884 97.5965 94.7923 97.0485 94.7923C96.6232 94.7923 96.56 94.6816 96.5046 93.8397C96.4918 93.6432 96.3215 93.4825 96.1264 93.4825C95.717 93.4825 95.7115 93.5739 95.9711 96.0292C96.0852 97.11 96.3026 97.9766 96.5008 98.1421C96.8534 98.4365 96.8882 98.3776 96.9299 97.4119C96.9651 96.592 97.8974 96.4405 98.1053 97.2209C98.3601 98.1778 98.2869 98.6648 97.9102 98.5196C97.7191 98.4457 97.4996 98.4879 97.4226 98.6132C97.1453 99.0645 96.202 98.8268 95.5484 98.1407C94.9843 97.5486 94.8633 97.1874 94.7646 95.7982C94.5979 93.4548 95.0606 92.768 96.8051 92.768C97.3859 92.768 97.5351 92.8842 97.6417 93.4203ZM99.5273 93.0067C99.2834 93.6456 99.653 94.5541 100.157 94.5541C100.675 94.5541 100.744 94.1826 100.395 93.2598C100.138 92.5789 99.7352 92.4615 99.5273 93.0067ZM85.7076 93.3355C85.7076 93.4296 85.5946 93.6199 85.4565 93.7587C85.3183 93.8978 85.2385 94.5353 85.2789 95.1757L85.3524 96.3403L85.887 95.3174C86.2022 94.7142 86.3677 94.0788 86.2905 93.7694C86.162 93.2548 86.2032 93.245 88.3606 93.2748C90.2872 93.3017 90.5527 93.3555 90.4887 93.707C90.4004 94.1929 91.1215 96.4593 91.3644 96.4593C91.4594 96.4593 91.7151 95.8997 91.9325 95.2157C92.282 94.1169 92.2865 93.9488 91.9727 93.7723C91.3625 93.4286 91.816 93.1714 93.0483 93.1617C94.2173 93.1526 94.5976 93.4096 93.8451 93.7001C93.5119 93.8285 93.4745 94.1686 93.5766 96.1328C93.6576 97.6899 93.7975 98.4796 94.0161 98.6155C94.4769 98.902 94.2503 99.0259 93.1177 99.1071C92.0618 99.1828 91.534 98.9532 92.1856 98.702C92.4736 98.5908 92.5695 98.2648 92.5548 97.446L92.5347 96.3403L92.0722 97.3524C91.5017 98.6005 91.0464 98.6353 90.5183 97.4715L90.1132 96.5784L90.0248 97.3748C89.9699 97.8713 90.0765 98.3264 90.3085 98.5841C90.8489 99.1847 90.7921 99.24 89.6147 99.2578C88.5648 99.2738 88.21 99.0225 88.9043 98.7546C89.2938 98.6044 89.3675 97.2795 89.1077 95.1033C88.9531 93.8097 88.4793 93.3174 87.9398 93.8904C87.511 94.346 87.3632 98.3045 87.7625 98.6379C88.3208 99.104 88.0971 99.2817 87.0043 99.2395C85.996 99.2004 85.9396 99.1628 86.0488 98.6027C86.4464 96.5644 86.4752 96.1576 86.2105 96.3219C85.7514 96.6075 84.9775 98.3243 85.2356 98.4848C85.7705 98.817 85.4047 99.079 84.4052 99.079C83.2972 99.079 83.0893 98.8699 83.6948 98.3645C83.9642 98.1395 84.05 97.5293 84.05 95.8349C84.05 94.5048 83.9543 93.6015 83.8132 93.6015C83.6829 93.6015 83.5764 93.5032 83.5764 93.3832C83.5764 93.2631 84.0559 93.165 84.642 93.165C85.228 93.165 85.7076 93.2417 85.7076 93.3355ZM16.4443 96.2212C16.5354 96.3696 16.1165 96.4503 15.3334 96.4355C14.3481 96.4169 14.2044 96.3708 14.6683 96.2212C15.5214 95.9464 16.2754 95.9464 16.4443 96.2212ZM19.8778 96.2212C19.8778 96.3522 19.3983 96.4593 18.8122 96.4593C18.2262 96.4593 17.7466 96.3522 17.7466 96.2212C17.7466 96.0902 18.2262 95.983 18.8122 95.983C19.3983 95.983 19.8778 96.0902 19.8778 96.2212ZM23.3114 96.2212C23.4016 96.3679 22.9981 96.4593 22.2598 96.4593C21.601 96.4593 21.0618 96.3522 21.0618 96.2212C21.0618 96.0902 21.5349 95.983 22.1134 95.983C22.6919 95.983 23.2309 96.0902 23.3114 96.2212ZM13.0107 96.4593C13.0107 96.5903 12.5044 96.6849 11.8859 96.6694C10.8819 96.6441 10.8374 96.6215 11.4715 96.4593C12.5189 96.1912 13.0107 96.1912 13.0107 96.4593ZM26.6064 96.4558C26.4601 96.6029 25.9806 96.6127 25.3159 96.4817L24.2586 96.2733L25.5491 96.2474C26.3961 96.2302 26.7596 96.3017 26.6064 96.4558ZM30.0405 96.6115C30.2882 96.8273 29.8517 96.8821 28.8217 96.7644C28.2055 96.6942 27.7591 96.5429 27.8295 96.4284C27.9436 96.2426 29.7928 96.396 30.0405 96.6115ZM33.5091 96.9609C33.5811 97.078 33.1605 97.1738 32.5744 97.1738C31.6246 97.1738 31.0774 96.9445 31.3566 96.6637C31.533 96.4863 33.3736 96.7404 33.5091 96.9609ZM9.56528 96.9068C9.22192 97.2262 7.56434 97.4708 7.56434 97.2021C7.56434 96.9328 8.10471 96.7642 9.09168 96.7251C9.50466 96.7087 9.69836 96.783 9.56528 96.9068ZM36.8889 97.2938C37.1714 97.5782 36.6521 97.6734 35.6466 97.5217C35.0485 97.4317 34.5593 97.2483 34.5593 97.1145C34.5593 96.8768 36.6329 97.0366 36.8889 97.2938ZM5.90676 97.7489C4.87692 98.3021 4.18026 98.4536 4.29795 98.0985C4.40641 97.7708 5.20228 97.4698 6.02515 97.4453C6.43434 97.4329 6.41824 97.4743 5.90676 97.7489ZM39.7096 97.562C40.0028 97.641 40.2424 97.8096 40.2424 97.9371C40.2424 98.2104 38.3421 97.9461 38.0047 97.6256C37.7475 97.3812 38.882 97.3391 39.7096 97.562ZM43.0248 98.1231C43.3179 98.125 43.5576 98.2336 43.5576 98.3645C43.5576 98.4955 43.3179 98.6013 43.0248 98.5993C42.2085 98.5944 41.4264 98.3357 41.4264 98.0709C41.4264 97.9399 41.666 97.8973 41.9592 97.9764C42.2523 98.0552 42.7316 98.1214 43.0248 98.1231ZM3.06518 98.5979C3.06518 98.7261 2.63895 99.0499 2.11799 99.3171C0.918377 99.9325 0.86415 99.531 2.05879 98.8801C3.1348 98.294 3.06518 98.3136 3.06518 98.5979ZM46.2215 98.7041C46.5796 98.7844 46.8727 98.9666 46.8727 99.109C46.8727 99.2514 46.7041 99.3031 46.4981 99.2235C46.2921 99.144 45.8126 99.079 45.4325 99.079C44.963 99.079 44.7416 98.9594 44.7416 98.7058C44.7416 98.466 44.8898 98.3729 45.156 98.4455C45.384 98.5077 45.8635 98.6241 46.2215 98.7041ZM50.2677 99.4905C50.3769 99.5558 50.3769 99.6972 50.2677 99.8049C50.0283 100.042 48.0567 99.5441 48.0567 99.2471C48.0567 99.0461 49.8557 99.2443 50.2677 99.4905ZM53.5173 100.333C53.496 100.597 53.4607 100.6 52.3783 100.426C51.7565 100.326 51.3719 100.138 51.3719 99.9344C51.3719 99.6613 51.5571 99.6522 52.4517 99.8816C53.0453 100.034 53.5249 100.237 53.5173 100.333ZM56.9248 100.996C57.0669 101.139 56.9686 101.222 56.6584 101.222C55.7662 101.222 54.6871 100.929 54.6871 100.686C54.6871 100.398 56.5921 100.662 56.9248 100.996ZM60.1758 101.606C60.7136 101.94 60.0124 102.109 59.141 101.856C57.7794 101.459 57.6399 100.953 58.9757 101.255C59.5246 101.379 60.0647 101.537 60.1758 101.606ZM110.096 101.163C110.093 101.462 108.442 102.494 108.259 102.31C108.165 102.216 108.248 102.048 108.442 101.935C108.636 101.823 109.008 101.566 109.269 101.365C109.79 100.963 110.099 100.887 110.096 101.163ZM62.5606 102.188C63.5774 102.471 63.7881 102.974 62.7974 102.753C61.5528 102.474 61.3174 102.38 61.3174 102.159C61.3174 101.878 61.4661 101.882 62.5606 102.188ZM66.7637 103.151C67.0183 103.294 66.9177 103.352 66.4085 103.355C65.464 103.36 64.6326 103.124 64.6326 102.851C64.6326 102.608 66.19 102.827 66.7637 103.151ZM107.018 102.83C107.016 103.032 105.676 103.842 105.343 103.842C105.223 103.842 105.125 103.749 105.125 103.636C105.125 103.472 105.727 103.156 106.96 102.674C106.993 102.662 107.019 102.731 107.018 102.83ZM69.5698 103.627C70.3339 103.895 70.4085 104.339 69.6643 104.191C68.2307 103.906 67.9477 103.808 67.9477 103.599C67.9477 103.291 68.6453 103.303 69.5698 103.627ZM73.0955 104.229C73.387 104.308 73.5714 104.46 73.5054 104.568C73.3621 104.801 71.7135 104.582 71.3931 104.287C71.1353 104.05 72.284 104.011 73.0955 104.229ZM103.704 104.298C103.128 104.628 101.654 104.883 101.928 104.605C102.187 104.342 102.848 104.147 103.586 104.115C103.964 104.099 103.988 104.136 103.704 104.298ZM76.8276 104.795C76.9169 104.94 76.5584 105.033 75.9084 105.033C75.3223 105.033 74.777 104.926 74.6965 104.795C74.6072 104.649 74.9657 104.556 75.6157 104.556C76.2018 104.556 76.7471 104.664 76.8276 104.795ZM79.5702 105.033C79.9503 105.033 80.2612 105.14 80.2612 105.271C80.2612 105.402 80.0216 105.508 79.7284 105.506C78.9148 105.501 78.13 105.243 78.13 104.979C78.13 104.85 78.2986 104.809 78.5046 104.888C78.7107 104.968 79.1902 105.033 79.5702 105.033ZM100.389 105.007C99.82 105.325 98.4946 105.517 98.4946 105.282C98.4946 105.025 99.0653 104.857 100.034 104.829C100.532 104.815 100.638 104.868 100.389 105.007ZM83.6846 105.493C83.7597 105.615 83.7192 105.778 83.5946 105.855C83.2775 106.052 81.4452 105.731 81.4452 105.479C81.4452 105.199 83.5122 105.212 83.6846 105.493ZM97.3106 105.478C97.3106 105.711 95.4241 106.018 95.1271 105.834C95.0213 105.768 94.9962 105.615 95.0712 105.493C95.2434 105.213 97.3106 105.199 97.3106 105.478ZM86.8915 105.747C87.1459 105.912 86.8934 105.979 86.0035 105.982C85.3199 105.984 84.7604 105.878 84.7604 105.747C84.7604 105.443 86.4229 105.443 86.8915 105.747ZM93.9955 105.747C93.9955 105.88 93.4456 105.97 92.7523 105.952L91.5091 105.918L92.4563 105.747C93.8865 105.49 93.9955 105.49 93.9955 105.747ZM90.5619 105.985C90.4814 106.116 90.0019 106.223 89.4963 106.223C88.9907 106.223 88.5112 106.116 88.4307 105.985C88.3405 105.838 88.7487 105.747 89.4963 105.747C90.2439 105.747 90.6521 105.838 90.5619 105.985ZM17.646 106.909C17.4599 107.212 15.8366 107.954 15.6879 107.805C15.5293 107.645 17.0471 106.702 17.4646 106.701C17.6351 106.7 17.7168 106.794 17.646 106.909ZM14.7748 108.1C14.4315 108.419 12.7739 108.664 12.7739 108.395C12.7739 108.126 13.3143 107.957 14.3012 107.918C14.7142 107.902 14.9079 107.976 14.7748 108.1Z" fill="white"/>
</svg>
