<svg width="131" height="22" viewBox="0 0 131 22" fill="none" xmlns="http://www.w3.org/2000/svg">
<path d="M12.48 3.29999C12.48 2.73999 12.68 2.26999 13.07 1.87999C13.46 1.48999 13.94 1.29999 14.5 1.29999C15.06 1.29999 15.53 1.48999 15.91 1.87999C16.29 2.26999 16.48 2.73999 16.48 3.29999C16.48 3.85999 16.29 4.32999 15.91 4.71999C15.53 5.10999 15.06 5.29999 14.5 5.29999C13.93 5.29999 13.45 5.10999 13.06 4.72999C12.67 4.34999 12.48 3.86999 12.48 3.29999Z" fill="white"/>
<path d="M62.01 3.29999C62.01 2.73999 62.21 2.26999 62.6 1.87999C63 1.48999 63.47 1.29999 64.03 1.29999C64.59 1.29999 65.06 1.48999 65.44 1.87999C65.82 2.26999 66.01 2.73999 66.01 3.29999C66.01 3.85999 65.82 4.32999 65.44 4.71999C65.06 5.10999 64.59 5.29999 64.03 5.29999C63.46 5.29999 62.98 5.10999 62.59 4.72999C62.21 4.34999 62.01 3.86999 62.01 3.29999Z" fill="white"/>
<path d="M120.72 14.58V8.72998H120.17C119.34 8.72998 118.69 8.99998 118.23 9.54998C117.77 10.1 117.54 10.8 117.54 11.66C117.54 12.52 117.77 13.22 118.22 13.76C118.67 14.3 119.33 14.57 120.17 14.57H120.72V14.58ZM123.72 17.14V19.4C123.72 20.88 123.21 21.62 122.19 21.62C121.17 21.62 120.66 20.88 120.66 19.4V17.14C119.33 17.14 118.32 17.01 117.65 16.74C116.61 16.33 115.79 15.67 115.21 14.76C114.63 13.85 114.34 12.82 114.34 11.67C114.34 10.49 114.62 9.45998 115.19 8.55998C115.76 7.65998 116.58 6.99998 117.65 6.57998C118.32 6.31998 119.34 6.17998 120.67 6.17998V4.64998V4.38998C120.67 0.96998 127.94 1.48998 127.65 1.68998C127.18 2.00998 123.71 3.62998 123.71 3.81998V6.17998C125.03 6.17998 126.03 6.30998 126.7 6.57998C127.78 6.99998 128.61 7.65998 129.18 8.55998C129.75 9.45998 130.03 10.5 130.03 11.67C130.03 12.83 129.75 13.86 129.18 14.74C128.59 15.66 127.76 16.33 126.7 16.74C126.03 17.01 125.04 17.14 123.72 17.14ZM123.66 8.73998V14.59H124.21C125.07 14.59 125.73 14.31 126.19 13.76C126.62 13.24 126.84 12.55 126.84 11.68C126.84 10.81 126.62 10.11 126.19 9.59998C125.71 9.02998 125.05 8.74998 124.21 8.74998H123.66V8.73998ZM103.82 14.58V8.72998H103.27C102.44 8.72998 101.79 8.99998 101.33 9.54998C100.87 10.1 100.64 10.8 100.64 11.66C100.64 12.52 100.87 13.22 101.32 13.76C101.78 14.3 102.43 14.57 103.27 14.57H103.82V14.58ZM106.81 17.14V19.4C106.81 20.88 106.3 21.62 105.28 21.62C104.26 21.62 103.75 20.88 103.75 19.4V17.14C102.42 17.14 101.41 17.01 100.74 16.74C99.7 16.33 98.88 15.67 98.3 14.76C97.72 13.85 97.43 12.82 97.43 11.67C97.43 10.49 97.71 9.45998 98.28 8.55998C98.85 7.65998 99.67 6.99998 100.74 6.57998C101.41 6.31998 102.42 6.17998 103.75 6.17998V4.61998C103.75 0.74998 111.2 1.39998 110.83 1.68998C110.64 1.84998 106.83 3.36998 106.82 3.72998L106.81 6.17998C108.13 6.17998 109.13 6.30998 109.8 6.57998C110.88 6.99998 111.71 7.65998 112.28 8.55998C112.85 9.45998 113.13 10.5 113.13 11.67C113.13 12.83 112.85 13.86 112.28 14.74C111.68 15.66 110.86 16.33 109.8 16.74C109.13 17.01 108.13 17.14 106.81 17.14ZM106.75 8.73998V14.59H107.3C108.16 14.59 108.82 14.31 109.28 13.76C109.72 13.24 109.93 12.55 109.93 11.68C109.93 10.81 109.71 10.11 109.28 9.59998C108.8 9.02998 108.14 8.74998 107.3 8.74998H106.75V8.73998ZM88.88 11.69C88.88 12.42 89.05 13.05 89.38 13.59C89.78 14.22 90.32 14.54 91 14.54C91.69 14.54 92.23 14.22 92.62 13.59C92.95 13.05 93.11 12.41 93.11 11.69C93.11 10.98 92.94 10.36 92.59 9.82998C92.19 9.21998 91.66 8.91998 90.99 8.91998C90.3 8.91998 89.76 9.21998 89.37 9.82998C89.04 10.34 88.88 10.96 88.88 11.69ZM85.57 11.73C85.57 10.11 86.07 8.73998 87.09 7.63998C88.1 6.53998 89.41 5.98998 91 5.98998C92.62 5.98998 93.93 6.53998 94.92 7.62998C95.91 8.72998 96.41 10.09 96.41 11.73C96.41 13.35 95.92 14.71 94.94 15.79C93.92 16.9 92.61 17.45 91 17.45C89.4 17.45 88.09 16.89 87.06 15.77C86.06 14.69 85.57 13.34 85.57 11.73ZM77.34 12.74V14.94C77.34 16.5 76.82 17.28 75.77 17.28C74.69 17.28 74.15 16.5 74.15 14.94V8.49998C74.15 6.94998 74.69 6.17998 75.77 6.17998C76.81 6.17998 77.34 6.94998 77.34 8.49998V10.48H80.85V8.49998C80.85 6.94998 81.38 6.17998 82.44 6.17998C83.5 6.17998 84.02 6.94998 84.02 8.49998V14.94C84.02 16.5 83.49 17.28 82.44 17.28C81.39 17.28 80.85 16.5 80.85 14.94V12.74H77.34ZM53.28 12.46H53.39L55.1 7.74998C55.48 6.70998 56.24 6.17998 57.38 6.17998C58.42 6.17998 59.07 6.72998 59.32 7.84998L60.94 14.94C61.06 15.46 61.12 15.88 61.12 16.21C61.12 16.57 60.93 16.86 60.55 17.1C60.22 17.3 59.87 17.4 59.48 17.4C58.66 17.4 58.13 16.81 57.9 15.64L56.84 10.59L54.88 15.86C54.5 16.89 53.98 17.41 53.33 17.41C52.68 17.41 52.17 16.89 51.78 15.86L49.84 10.6L48.77 15.64C48.52 16.82 47.99 17.4 47.19 17.4C46.81 17.4 46.45 17.3 46.12 17.1C45.74 16.86 45.55 16.56 45.55 16.21C45.55 15.88 45.61 15.46 45.73 14.94L47.35 7.84998C47.61 6.72998 48.25 6.17998 49.3 6.17998C50.43 6.17998 51.19 6.69998 51.57 7.74998L53.28 12.46ZM41.4 16.17C40.74 16.98 39.84 17.38 38.7 17.38C37.26 17.38 36.07 16.78 35.13 15.6C34.27 14.5 33.84 13.22 33.84 11.74C33.84 10.25 34.29 8.94998 35.19 7.83998C36.14 6.64998 37.35 6.05998 38.82 6.05998C39.89 6.05998 40.75 6.43998 41.4 7.20998C41.77 6.53998 42.28 6.19998 42.93 6.19998C43.99 6.19998 44.52 6.96998 44.52 8.51998V14.96C44.52 16.52 43.99 17.3 42.93 17.3C42.22 17.28 41.71 16.91 41.4 16.17ZM37.15 11.69C37.15 12.39 37.32 12.98 37.65 13.47C38.03 14.02 38.56 14.3 39.23 14.3C39.9 14.3 40.43 14.02 40.8 13.47C41.12 12.98 41.28 12.39 41.28 11.69C41.28 10.99 41.12 10.4 40.8 9.92998C40.43 9.38998 39.91 9.11998 39.23 9.11998C38.57 9.11998 38.05 9.38998 37.66 9.92998C37.33 10.41 37.15 11 37.15 11.69ZM26.98 8.90998H25.61C24.28 8.90998 23.61 8.44998 23.61 7.53998C23.61 6.62998 24.28 6.16998 25.61 6.16998H31.52C32.87 6.16998 33.54 6.62998 33.54 7.53998C33.54 8.44998 32.87 8.90998 31.52 8.90998H30.15V14.93C30.15 16.49 29.62 17.27 28.57 17.27C27.51 17.27 26.98 16.49 26.98 14.93V8.90998ZM3.86 5.48998V8.31998H5.29C5.94 8.31998 6.39 8.23998 6.66 8.07998C7.03 7.86998 7.21 7.46998 7.21 6.88998C7.21 5.94998 6.57 5.47998 5.29 5.47998H3.86V5.48998ZM3.86 10.9V14.31H5.5C6.2 14.31 6.72 14.22 7.07 14.03C7.52 13.78 7.74 13.33 7.74 12.68C7.74 11.93 7.52 11.42 7.09 11.17C6.77 10.99 6.22 10.89 5.45 10.89H3.86V10.9ZM72.19 8.57998V15.01C72.19 16.55 71.65 17.33 70.57 17.33C69.94 17.33 69.43 16.99 69.05 16.32C68.44 16.99 67.51 17.33 66.24 17.33C63.64 17.33 62.34 15.94 62.34 13.17V8.57998C62.34 7.01998 62.87 6.24998 63.94 6.24998C65.01 6.24998 65.54 7.02998 65.54 8.57998V12.2C65.54 12.99 65.63 13.55 65.82 13.88C66.07 14.35 66.55 14.59 67.27 14.59C68.4 14.59 68.97 13.8 68.97 12.23V8.57998C68.97 7.01998 69.5 6.24998 70.57 6.24998C71.65 6.23998 72.19 7.01998 72.19 8.57998ZM22.72 8.57998V15.01C22.72 16.55 22.18 17.33 21.1 17.33C20.47 17.33 19.96 16.99 19.58 16.32C18.97 16.99 18.04 17.33 16.77 17.33C14.17 17.33 12.87 15.94 12.87 13.17V8.57998C12.87 7.01998 13.4 6.24998 14.47 6.24998C15.54 6.24998 16.07 7.02998 16.07 8.57998V12.2C16.07 12.99 16.16 13.55 16.35 13.88C16.6 14.35 17.08 14.59 17.8 14.59C18.94 14.59 19.5 13.8 19.5 12.24V8.57998C19.5 7.01998 20.03 6.24998 21.1 6.24998C22.18 6.23998 22.72 7.01998 22.72 8.57998ZM2.81 17.14C1.98 17.14 1.4 17 1.07 16.71C0.74 16.43 0.57 15.87 0.57 15.05V4.98998C0.57 4.12998 0.74 3.52998 1.07 3.18998C1.4 2.84998 2 2.66998 2.85 2.66998H5.55C6.86 2.66998 7.97 2.93998 8.88 3.47998C9.99 4.12998 10.54 5.05998 10.54 6.26998C10.54 7.83998 9.97 8.90998 8.84 9.45998V9.51998C9.69 9.77998 10.29 10.17 10.66 10.68C11.03 11.19 11.21 11.89 11.21 12.77C11.21 14.24 10.7 15.35 9.68 16.12C8.78 16.79 7.57 17.13 6.05 17.13H2.81V17.14Z" fill="white"/>
<path d="M111.53 1.51998C110.78 1.00998 107.91 0.0699791 105.93 1.10998C103.94 2.15998 104.23 4.38998 104.23 4.38998C107.28 1.99998 110.25 1.76998 110.25 1.76998C106.98 2.32998 104.37 4.60998 104.37 4.60998C106.12 4.69998 107 5.78998 108.47 5.17998C110.2 4.46998 110.32 2.26998 111.53 1.51998Z" fill="white"/>
<path d="M128.41 1.51998C127.66 1.00998 124.79 0.0699791 122.81 1.10998C120.82 2.15998 121.11 4.38998 121.11 4.38998C124.16 1.99998 127.13 1.76998 127.13 1.76998C123.86 2.32998 121.25 4.60998 121.25 4.60998C123 4.69998 123.88 5.78998 125.35 5.17998C127.08 4.46998 127.2 2.26998 128.41 1.51998Z" fill="white"/>
</svg>
