<svg width="118" height="33" viewBox="0 0 118 33" fill="none" xmlns="http://www.w3.org/2000/svg">
<path d="M73.37 15.99C72.67 15.99 72.18 15.54 72.18 14.91C72.18 14.07 72.98 13.24 73.89 13.14C73.95 13.13 74.01 13.13 74.07 13.13C74.77 13.13 75.26 13.58 75.26 14.22C75.26 15.06 74.46 15.89 73.54 15.99C73.49 15.99 73.43 15.99 73.37 15.99ZM106.75 12.36C106.05 12.36 105.57 11.91 105.56 11.28C105.56 10.44 106.36 9.61001 107.28 9.51001C107.34 9.50001 107.4 9.50001 107.46 9.50001C108.16 9.50001 108.65 9.95001 108.65 10.58C108.65 11.42 107.85 12.25 106.94 12.35C106.87 12.35 106.81 12.36 106.75 12.36ZM108.03 1.08001C107.65 1.08001 107.26 1.10001 106.88 1.14001C102.96 1.57001 99.56 4.10001 97.92 7.42001C97.27 5.50001 95.85 4.19001 93.68 3.52001C92.94 3.28001 92.12 3.16001 91.26 3.16001C90.91 3.16001 90.55 3.18001 90.19 3.22001C88.94 3.36001 87.79 3.70001 86.77 4.25001C84.13 5.65001 83.11 7.57001 82.72 9.14001C81.12 6.47001 78.14 4.71001 74.65 4.71001C74.27 4.71001 73.88 4.73001 73.5 4.77001C69.58 5.20001 66.18 7.73001 64.54 11.05C63.89 9.13001 62.48 7.83001 60.3 7.15001C59.56 6.91001 58.74 6.79001 57.88 6.79001C57.53 6.79001 57.17 6.81001 56.81 6.85001C55.56 6.99001 54.41 7.34001 53.39 7.89001C51.53 8.88001 50.47 10.13 49.87 11.33C49.11 8.23001 46.63 7.86001 45.51 7.86001C45.28 7.86001 45.04 7.87001 44.8 7.90001C41.69 8.24001 40.56 10.08 40.09 11.39C39.31 9.74001 37.93 8.90001 35.97 8.90001C35.7 8.90001 35.42 8.92001 35.14 8.95001C34.02 9.07001 32.35 9.54001 31.28 11.11C31.19 10.79 31.02 10.49 30.77 10.26C30.45 9.98001 30.05 9.83001 29.63 9.83001C29.57 9.83001 29.51 9.83001 29.44 9.84001L24.36 10.39C23.92 10.44 23.54 10.65 23.27 10.95C22.98 10.74 22.63 10.63 22.27 10.63C22.21 10.63 22.15 10.63 22.08 10.64L17 11.19C16.13 11.29 15.47 12.02 15.47 12.9L15.51 20.89C14.85 18.65 14.27 16.67 14.15 16.24C14.13 16.15 14.1 16.06 14.07 15.96C13.79 14.89 13.05 12.04 9.57 12.04C9.35 12.04 9.11 12.05 8.87 12.08C8.86 12.08 8.84 12.08 8.83 12.08C5 12.51 4.3 15.46 4 16.72C3.97 16.83 3.95 16.93 3.93 17.02C3.63 18.17 0.500003 29.86 0.470003 29.98C0.330003 30.52 0.460002 31.11 0.830002 31.54C1.16 31.92 1.63 32.14 2.13 32.14C2.19 32.14 2.25 32.14 2.32 32.13L7.23 31.6C7.97 31.52 8.57 30.97 8.72 30.24L9.13 28.25L9.49 29.82C9.67 30.61 10.37 31.16 11.16 31.16C11.22 31.16 11.28 31.16 11.35 31.15L16.26 30.62C16.76 30.56 17.22 30.29 17.5 29.87C17.78 29.45 17.86 28.92 17.72 28.44C17.72 28.43 17.69 28.33 17.64 28.18C18.32 28.76 19.16 29.21 20.17 29.52C20.91 29.75 21.73 29.88 22.59 29.88C22.94 29.88 23.3 29.86 23.66 29.82C24.9 29.68 26.06 29.34 27.08 28.78C27.96 28.31 28.66 27.79 29.21 27.24C29.26 27.63 29.43 27.99 29.71 28.26C30.03 28.57 30.46 28.75 30.91 28.75C30.97 28.75 31.03 28.75 31.1 28.74L36.01 28.2C36.74 28.12 37.33 27.59 37.49 26.9C37.98 27.55 38.7 28.02 39.82 28.02C39.99 28.02 40.16 28.01 40.36 27.99C41.75 27.84 42.55 27.24 43.06 26.35C43.16 26.54 43.3 26.71 43.47 26.85C43.78 27.11 44.17 27.25 44.57 27.25C44.63 27.25 44.69 27.25 44.76 27.24L49.67 26.7C49.79 26.69 49.91 26.66 50.02 26.62C50.27 26.75 50.55 26.83 50.83 26.83C50.89 26.83 50.95 26.83 51.02 26.82L56.1 26.27C56.54 26.22 56.92 26.01 57.19 25.71C57.48 25.92 57.83 26.03 58.19 26.03C58.25 26.03 58.31 26.03 58.38 26.02L63.45 25.47C64.32 25.37 64.98 24.64 64.98 23.76L64.97 20.37C66.62 22.81 69.47 24.39 72.78 24.39C73.16 24.39 73.55 24.37 73.93 24.33C77.56 23.94 80.73 21.74 82.49 18.79L82.5 21.5C82.5 21.99 82.71 22.45 83.07 22.77C83.39 23.05 83.79 23.2 84.21 23.2C84.27 23.2 84.33 23.2 84.4 23.19L89.47 22.64C89.91 22.59 90.29 22.38 90.56 22.08C90.85 22.29 91.2 22.4 91.56 22.4C91.62 22.4 91.68 22.4 91.75 22.39L96.82 21.84C97.69 21.75 98.36 21.01 98.35 20.13L98.33 16.74C99.98 19.18 102.83 20.76 106.14 20.76C106.52 20.76 106.91 20.74 107.29 20.7C112.84 20.1 117.33 15.29 117.31 9.99001C117.32 5.00001 113.23 1.08001 108.03 1.08001Z" stroke="white" stroke-width="0.518"/>
<path d="M32.01 14.36C32.1 13.35 32.44 11 35.33 10.68C37.97 10.39 38.53 11.85 38.84 13.04L39.92 17.08C39.99 17.39 40.08 17.53 40.15 17.52C40.22 17.51 40.29 17.35 40.38 17.03L41.45 12.75C41.77 11.49 42.3 9.92001 44.94 9.63001C47.84 9.31001 48.19 11.59 48.29 12.58L49.43 24.99L44.54 25.52L44.03 17.1C44 16.68 43.98 16.42 43.91 16.42C43.82 16.43 43.75 16.68 43.61 17.32L42.22 23.44C41.72 25.67 41.37 26.14 40.17 26.27C39.04 26.39 38.66 26.03 38.14 23.89L36.72 18.08C36.58 17.47 36.49 17.24 36.39 17.25C36.32 17.26 36.3 17.53 36.28 17.95L35.83 26.48L30.94 27.01L32.01 14.36Z" stroke="white" stroke-width="0.518"/>
<path d="M58.2 24.3L58.15 14.11C58.15 13.4 57.66 13.01 57.01 13.08C56.36 13.15 55.88 13.65 55.88 14.36L55.92 24.55L50.9 25.1L50.86 15.11C50.85 13.26 51.28 10.99 54.24 9.42C55.12 8.95 56.06 8.69 57.01 8.58C57.96 8.48 58.91 8.53 59.79 8.81C62.75 9.73 63.2 11.91 63.21 13.75L63.25 23.74L58.2 24.3Z" stroke="white" stroke-width="0.518"/>
<path d="M22.25 12.38L22.29 22.57C22.29 23.28 22.78 23.67 23.43 23.6C24.08 23.53 24.56 23.03 24.56 22.32L24.51 12.13L29.55 11.58L29.59 21.57C29.6 23.42 29.17 25.69 26.21 27.26C25.33 27.73 24.39 27.99 23.44 28.1C22.49 28.2 21.54 28.15 20.66 27.87C17.7 26.95 17.25 24.77 17.24 22.93L17.2 12.94L22.25 12.38Z" stroke="white" stroke-width="0.518"/>
<path d="M73.75 17.67C75.53 17.48 76.99 15.91 76.98 14.2C76.97 12.49 75.51 11.24 73.72 11.44C71.93 11.64 70.48 13.2 70.49 14.91C70.5 16.62 71.97 17.86 73.75 17.67ZM65.26 15.48C65.24 11.08 69.05 7.01001 73.7 6.50001C78.36 5.99001 82.19 9.22001 82.21 13.63C82.23 18.03 78.42 22.1 73.77 22.61C69.12 23.11 65.28 19.88 65.26 15.48Z" stroke="white" stroke-width="0.518"/>
<path d="M91.61 20.66L91.57 10.47C91.57 9.76001 91.08 9.37001 90.43 9.44001C89.78 9.51001 89.3 10.01 89.3 10.72L89.35 20.91L84.31 21.46L84.27 11.47C84.26 9.62001 84.69 7.35001 87.65 5.78001C88.53 5.31001 89.47 5.05001 90.42 4.94001C91.37 4.84001 92.32 4.89 93.2 5.17C96.16 6.09 96.61 8.27001 96.62 10.11L96.66 20.1L91.61 20.66Z" stroke="white" stroke-width="0.518"/>
<path d="M107.16 14.02C108.94 13.83 110.4 12.27 110.39 10.55C110.38 8.83001 108.92 7.59 107.13 7.79C105.35 7.98 103.89 9.55 103.9 11.26C103.91 12.97 105.38 14.22 107.16 14.02ZM98.67 11.83C98.65 7.43 102.46 3.36001 107.11 2.85001C111.77 2.34001 115.6 5.57 115.62 9.98C115.64 14.39 111.83 18.45 107.18 18.96C102.53 19.47 98.69 16.24 98.67 11.83Z" stroke="white" stroke-width="0.518"/>
<path d="M15.98 28.91C15.98 28.91 12.75 17.84 12.44 16.75C12.13 15.66 11.87 13.53 9.01 13.83C9.01 13.83 9.01 13.83 9 13.83C6.13 14.15 5.89 16.34 5.59 17.5C5.29 18.66 2.16 30.42 2.16 30.42L7.03 29.89L9.03 20.17L11.12 29.44L15.98 28.91Z" stroke="white" stroke-width="0.518"/>
</svg>
