<svg width="122" height="15" viewBox="0 0 122 15" fill="none" xmlns="http://www.w3.org/2000/svg">
<path d="M83.88 14.77H69.44H62.44V9.89V7.77V0.77H65.67V1.88V7.77V8.84V9.9V11.55H83.89C85.59 11.55 87.05 10.4 87.51 8.84H90.81C90.29 12.18 87.37 14.77 83.88 14.77ZM112.91 11.54H112.47H111.24H96.44V7.76V3.99H111.24H112.47H112.91H114.6C115.35 3.99 116.06 4.22 116.65 4.6C116.73 4.65 116.8 4.7 116.87 4.76C117.78 5.45 118.38 6.55 118.38 7.77C118.38 8.99 117.79 10.09 116.87 10.78C116.8 10.83 116.72 10.89 116.65 10.94C116.06 11.33 115.36 11.55 114.6 11.55H112.91V11.54ZM120.42 11.65C120.45 11.61 120.48 11.56 120.51 11.51C121.2 10.42 121.6 9.14 121.6 7.76C121.6 6.39 121.2 5.1 120.51 4.01C120.48 3.96 120.45 3.92 120.42 3.87C119.16 1.99 117.02 0.75 114.6 0.75H108.12H107.91H100.16H93.16V3.36V3.98V7.76V11.54V12.16V14.77H100.16H107.91H108.12H114.6C117.02 14.77 119.17 13.53 120.42 11.65ZM22.44 14.77H8H0.989998V7.76C0.989998 3.91 4.14 0.76 8 0.76H22.44H29.44V3.99H26.21H8C5.93 3.99 4.22 5.7 4.22 7.77V11.55H22.44H22.52C22.55 11.55 22.57 11.55 22.6 11.55C22.63 11.55 22.65 11.55 22.68 11.55C22.7 11.55 22.73 11.55 22.76 11.55C22.79 11.55 22.81 11.55 22.84 11.54C22.87 11.54 22.89 11.53 22.92 11.53C22.95 11.53 22.97 11.52 23 11.52C23.03 11.52 23.05 11.51 23.08 11.51C23.11 11.51 23.13 11.5 23.16 11.49C23.18 11.49 23.21 11.48 23.23 11.47C23.26 11.47 23.28 11.46 23.31 11.46C23.33 11.45 23.36 11.45 23.38 11.44C23.41 11.44 23.43 11.43 23.45 11.42C23.48 11.41 23.5 11.41 23.52 11.4C23.55 11.39 23.57 11.38 23.59 11.38C23.61 11.37 23.64 11.36 23.66 11.36C23.68 11.35 23.71 11.34 23.73 11.33C23.75 11.32 23.78 11.31 23.8 11.3C23.82 11.29 23.85 11.28 23.87 11.27C23.89 11.26 23.92 11.25 23.94 11.24C23.96 11.23 23.99 11.22 24.01 11.21C24.03 11.2 24.05 11.19 24.08 11.17C24.1 11.16 24.12 11.15 24.15 11.14C24.17 11.13 24.19 11.12 24.22 11.11C24.24 11.1 24.26 11.09 24.29 11.07C24.31 11.06 24.33 11.04 24.35 11.03C24.37 11.02 24.39 11.01 24.41 10.99C24.43 10.98 24.45 10.97 24.47 10.95C24.49 10.94 24.51 10.92 24.53 10.91C24.55 10.89 24.57 10.88 24.59 10.87C24.61 10.85 24.63 10.84 24.65 10.83C24.67 10.81 24.69 10.8 24.71 10.79C24.73 10.78 24.75 10.76 24.77 10.75C24.79 10.73 24.81 10.72 24.83 10.7C24.85 10.69 24.87 10.67 24.89 10.65C24.91 10.63 24.93 10.62 24.95 10.6C24.97 10.58 24.99 10.57 25 10.55C25.02 10.53 25.04 10.52 25.06 10.5C25.08 10.48 25.1 10.46 25.11 10.45C25.13 10.43 25.15 10.42 25.16 10.4C25.17 10.38 25.2 10.36 25.21 10.35C25.23 10.33 25.24 10.31 25.26 10.29C25.27 10.27 25.29 10.25 25.31 10.24C25.32 10.22 25.34 10.2 25.36 10.18C25.37 10.16 25.39 10.15 25.41 10.12C25.42 10.1 25.44 10.08 25.45 10.06C25.46 10.04 25.48 10.02 25.49 10C25.5 9.98 25.52 9.96 25.53 9.94C25.54 9.92 25.56 9.9 25.57 9.88C25.58 9.86 25.6 9.84 25.61 9.82C25.62 9.8 25.64 9.78 25.65 9.76C25.66 9.74 25.67 9.72 25.69 9.69C25.7 9.67 25.72 9.65 25.73 9.62C25.74 9.6 25.76 9.58 25.77 9.56C25.78 9.54 25.79 9.52 25.81 9.49C25.82 9.47 25.83 9.45 25.84 9.42C25.85 9.4 25.86 9.37 25.87 9.35C25.88 9.33 25.89 9.31 25.9 9.28C25.91 9.26 25.92 9.23 25.93 9.21C25.94 9.19 25.95 9.16 25.96 9.14C25.97 9.12 25.98 9.09 25.99 9.07C26 9.05 26.01 9.02 26.01 9C26.02 8.98 26.03 8.95 26.04 8.93C26.04 8.91 26.05 8.88 26.06 8.86H20.78V7.79V7.24V5.6H26.22H29.45V7.21V7.76C29.44 11.62 26.29 14.77 22.44 14.77ZM41.77 11.54H38.8C36.73 11.54 35.02 9.83 35.02 7.76C35.02 5.69 36.73 3.98 38.8 3.98H41.77H53.16C53.2 3.98 53.23 3.98 53.26 3.98C53.29 3.98 53.32 3.98 53.36 3.98C53.39 3.98 53.43 3.98 53.46 3.99C53.49 3.99 53.52 3.99 53.56 4C53.59 4 53.62 4.01 53.66 4.01C53.69 4.01 53.72 4.02 53.75 4.02C53.78 4.03 53.81 4.03 53.84 4.04C53.87 4.05 53.9 4.05 53.93 4.06C53.96 4.07 53.99 4.07 54.02 4.08C54.05 4.09 54.08 4.09 54.11 4.1C54.14 4.11 54.17 4.11 54.2 4.12C54.23 4.13 54.26 4.14 54.29 4.15C54.32 4.16 54.35 4.17 54.38 4.18C54.41 4.19 54.44 4.2 54.47 4.21C54.5 4.22 54.53 4.23 54.56 4.24C54.59 4.25 54.62 4.26 54.65 4.28C54.68 4.29 54.71 4.31 54.73 4.32C54.76 4.33 54.79 4.35 54.81 4.36C54.84 4.37 54.86 4.39 54.89 4.4C54.92 4.41 54.94 4.43 54.97 4.44C55 4.45 55.02 4.47 55.05 4.49C55.07 4.51 55.1 4.52 55.13 4.54C55.16 4.56 55.18 4.57 55.21 4.59C55.23 4.61 55.26 4.62 55.28 4.64C55.31 4.66 55.33 4.67 55.35 4.69C55.37 4.71 55.4 4.73 55.42 4.74C55.45 4.76 55.47 4.78 55.49 4.8C55.51 4.82 55.54 4.84 55.56 4.86C55.58 4.88 55.61 4.9 55.63 4.92C55.65 4.94 55.67 4.96 55.7 4.98C55.72 5 55.74 5.02 55.77 5.04C55.79 5.06 55.81 5.08 55.84 5.11C55.86 5.13 55.88 5.15 55.9 5.17C55.92 5.19 55.94 5.21 55.96 5.23C55.98 5.25 56 5.28 56.02 5.3C56.04 5.32 56.06 5.35 56.08 5.37C56.1 5.39 56.12 5.41 56.14 5.44C56.16 5.47 56.18 5.49 56.2 5.51C56.22 5.53 56.24 5.56 56.25 5.58C56.27 5.6 56.29 5.63 56.3 5.66C56.31 5.68 56.33 5.71 56.35 5.73C56.37 5.76 56.38 5.78 56.4 5.81C56.42 5.84 56.43 5.86 56.45 5.89C56.47 5.92 56.48 5.94 56.49 5.97C56.5 6 56.52 6.02 56.53 6.05C56.54 6.08 56.56 6.11 56.57 6.13C56.58 6.16 56.6 6.18 56.61 6.21C56.62 6.24 56.64 6.27 56.65 6.29C56.66 6.32 56.67 6.35 56.69 6.38C56.7 6.41 56.71 6.43 56.72 6.47C56.73 6.5 56.74 6.53 56.75 6.56C56.76 6.59 56.77 6.62 56.78 6.65C56.79 6.68 56.8 6.71 56.81 6.74C56.82 6.77 56.83 6.8 56.83 6.83C56.84 6.86 56.85 6.89 56.85 6.92C56.86 6.95 56.86 6.98 56.87 7.01C56.88 7.04 56.88 7.07 56.89 7.1C56.9 7.13 56.9 7.16 56.91 7.19C56.91 7.22 56.92 7.25 56.92 7.28C56.92 7.31 56.93 7.34 56.93 7.38C56.93 7.41 56.94 7.44 56.94 7.47C56.94 7.5 56.94 7.54 56.95 7.57C56.95 7.6 56.95 7.63 56.95 7.67V7.77V7.87C56.95 7.9 56.95 7.93 56.95 7.96C56.95 7.99 56.95 8.02 56.94 8.06C56.94 8.09 56.94 8.12 56.93 8.15C56.92 8.18 56.92 8.21 56.92 8.25C56.92 8.28 56.91 8.31 56.91 8.34C56.91 8.37 56.9 8.4 56.89 8.43C56.88 8.46 56.88 8.49 56.87 8.53C56.87 8.56 56.86 8.59 56.85 8.62C56.84 8.65 56.84 8.68 56.83 8.71C56.82 8.74 56.82 8.77 56.81 8.8C56.8 8.83 56.79 8.86 56.78 8.89C56.77 8.92 56.76 8.95 56.75 8.98C56.74 9.01 56.73 9.04 56.72 9.07C56.71 9.1 56.7 9.13 56.69 9.16C56.68 9.19 56.67 9.22 56.65 9.25C56.63 9.28 56.63 9.3 56.61 9.33C56.6 9.36 56.58 9.39 56.57 9.41C56.56 9.44 56.54 9.46 56.53 9.49C56.52 9.52 56.5 9.54 56.49 9.57C56.48 9.6 56.46 9.62 56.45 9.65C56.44 9.68 56.42 9.7 56.4 9.73C56.39 9.76 56.37 9.78 56.35 9.81C56.33 9.84 56.32 9.86 56.3 9.89C56.28 9.92 56.26 9.94 56.25 9.96C56.23 9.99 56.22 10.01 56.2 10.04C56.18 10.06 56.16 10.09 56.14 10.11C56.12 10.13 56.1 10.16 56.08 10.18C56.06 10.2 56.04 10.23 56.02 10.25C56 10.27 55.98 10.3 55.96 10.32C55.94 10.34 55.92 10.37 55.9 10.39C55.88 10.41 55.86 10.44 55.84 10.46C55.82 10.48 55.8 10.5 55.77 10.52C55.75 10.54 55.72 10.56 55.7 10.58C55.68 10.6 55.66 10.62 55.63 10.64C55.61 10.66 55.58 10.68 55.56 10.7C55.54 10.72 55.51 10.74 55.49 10.76C55.47 10.78 55.44 10.79 55.42 10.81C55.4 10.83 55.37 10.85 55.35 10.86C55.33 10.88 55.3 10.9 55.28 10.91C55.25 10.93 55.23 10.94 55.21 10.96C55.18 10.98 55.16 10.99 55.13 11.01C55.1 11.03 55.08 11.04 55.05 11.06C55.02 11.08 55 11.09 54.97 11.1C54.94 11.12 54.92 11.13 54.89 11.14C54.86 11.15 54.84 11.17 54.81 11.18C54.78 11.19 54.76 11.21 54.73 11.22C54.7 11.24 54.68 11.25 54.65 11.26C54.62 11.27 54.59 11.28 54.56 11.29C54.53 11.3 54.5 11.31 54.47 11.32C54.44 11.33 54.41 11.34 54.38 11.35C54.35 11.36 54.32 11.37 54.29 11.38C54.26 11.39 54.23 11.4 54.2 11.41C54.17 11.42 54.14 11.43 54.11 11.43C54.08 11.44 54.05 11.45 54.02 11.45C53.99 11.46 53.96 11.46 53.93 11.47C53.9 11.48 53.87 11.48 53.84 11.49C53.81 11.5 53.78 11.5 53.75 11.51C53.72 11.51 53.69 11.52 53.66 11.52C53.63 11.53 53.59 11.53 53.56 11.53C53.53 11.53 53.5 11.54 53.46 11.54C53.43 11.54 53.4 11.55 53.36 11.55C53.33 11.55 53.3 11.55 53.26 11.55H53.16H41.77V11.54ZM60.17 7.77C60.17 3.92 57.02 0.77 53.16 0.77H49.38H41.77H38.8C34.95 0.77 31.8 3.92 31.8 7.77C31.8 11.62 34.95 14.78 38.8 14.78H41.77H49.38H53.16C57.01 14.77 60.17 11.62 60.17 7.77Z" fill="#DC9129"/>
</svg>
